<?xml version="1.0" encoding="UTF-8" ?>
<!DOCTYPE svg PUBLIC "-//W3C//DTD SVG 1.1//EN" "http://www.w3.org/Graphics/SVG/1.1/DTD/svg11.dtd">
<svg width="824pt" height="1067pt" viewBox="0 0 824 1067" version="1.1" xmlns="http://www.w3.org/2000/svg">
<g id="#f7c405ff">
<path fill="#f7c405" opacity="1.00" d=" M 400.63 0.00 L 423.28 0.00 C 469.90 1.49 516.33 10.51 559.83 27.42 C 630.25 54.50 692.74 101.52 738.61 161.38 C 783.06 219.07 811.74 288.78 820.50 361.09 C 826.70 411.38 823.21 462.60 812.51 512.05 C 798.46 577.13 772.45 639.14 740.13 697.18 C 689.20 788.22 623.30 870.12 551.05 945.07 C 511.52 985.67 470.04 1024.46 425.98 1060.12 C 422.19 1063.17 418.17 1066.77 412.99 1066.79 C 408.41 1067.25 403.97 1065.38 400.58 1062.40 C 364.42 1033.49 330.22 1002.20 297.17 969.81 C 244.04 917.23 194.34 861.05 150.22 800.67 C 104.73 738.21 64.93 671.07 37.21 598.77 C 14.51 539.66 0.50 476.81 0.00 413.34 L 0.00 409.94 C 0.16 407.96 0.27 405.98 0.26 404.01 C 1.36 320.30 29.40 237.32 78.80 169.77 C 130.30 98.79 204.93 44.84 288.70 18.73 C 324.90 7.30 362.71 1.23 400.63 0.00 M 385.00 87.39 C 384.19 86.12 380.89 86.03 381.07 87.92 C 379.64 87.88 378.23 87.98 376.83 88.24 C 375.39 87.17 371.28 86.66 371.08 88.91 C 363.68 89.58 356.37 91.03 349.06 92.32 L 348.32 91.73 L 347.25 92.00 L 347.00 92.87 C 346.48 92.96 345.45 93.14 344.94 93.23 C 343.42 92.02 342.45 92.25 342.04 93.93 C 341.53 94.02 340.51 94.21 340.01 94.30 C 338.53 93.04 337.54 93.24 337.05 94.89 L 335.95 95.22 C 334.44 94.02 333.47 94.27 333.06 95.96 L 332.41 96.04 C 329.84 95.72 327.55 97.23 325.00 97.10 L 324.99 97.99 L 324.03 98.24 L 323.26 97.69 L 322.22 98.05 L 322.01 98.93 C 315.16 100.39 308.60 103.06 301.93 105.19 C 283.66 111.21 266.49 119.94 249.44 128.73 C 246.65 131.12 243.01 132.12 240.12 134.36 C 232.35 139.25 224.46 144.07 217.20 149.68 C 216.75 149.82 215.84 150.10 215.39 150.24 C 209.63 154.83 203.55 159.02 198.17 164.05 C 194.47 166.32 191.97 170.01 188.20 172.20 C 180.84 179.49 173.60 186.93 166.17 194.16 C 164.24 196.02 163.16 198.59 161.10 200.33 C 157.82 203.03 155.88 206.90 152.77 209.77 C 148.74 216.15 142.62 221.22 139.65 228.20 C 134.71 234.14 131.30 241.16 126.76 247.38 C 124.43 252.25 121.45 256.80 118.83 261.52 C 104.42 288.42 93.34 317.20 86.94 347.05 C 85.25 347.50 85.03 348.48 86.27 349.98 C 85.27 353.95 84.44 357.99 83.92 362.06 C 82.01 361.77 82.00 365.09 83.25 365.94 C 82.05 371.57 81.31 377.32 80.90 383.06 C 78.66 383.22 79.08 387.38 80.23 388.77 C 79.03 397.13 79.06 405.58 78.88 414.01 L 77.99 414.00 C 78.01 419.33 78.00 424.66 78.00 430.00 L 78.88 430.00 C 79.07 438.08 79.07 446.19 80.23 454.21 C 79.09 455.61 78.65 459.73 80.89 459.93 C 81.07 463.67 81.53 467.40 82.28 471.06 C 80.96 471.86 80.99 475.19 82.90 474.94 C 82.99 475.47 83.15 476.53 83.24 477.06 C 81.97 477.88 82.00 481.22 83.91 480.93 C 84.00 481.47 84.17 482.54 84.26 483.07 C 83.00 483.89 83.00 487.27 84.93 486.92 L 85.23 488.06 C 84.00 488.90 84.03 492.22 85.92 491.92 C 86.00 492.42 86.16 493.42 86.24 493.91 L 85.70 494.67 L 86.05 495.72 L 86.94 495.94 C 87.82 501.74 89.29 507.50 91.22 513.04 C 90.04 514.58 90.31 515.55 92.01 515.93 C 93.94 523.26 96.27 530.51 99.07 537.57 C 99.22 540.34 100.02 543.32 101.99 545.37 C 103.75 550.16 105.75 554.86 108.04 559.43 C 107.80 562.30 109.85 564.55 110.94 567.04 C 114.29 573.35 116.94 580.05 120.87 586.04 C 131.23 605.33 144.32 623.02 158.21 639.86 C 161.79 642.67 163.71 646.94 167.22 649.83 C 174.19 656.83 181.24 663.76 188.15 670.82 C 196.27 677.34 203.84 684.49 212.34 690.59 C 214.35 691.85 215.84 694.07 218.36 694.35 C 227.60 701.33 237.67 707.10 247.44 713.27 C 251.34 714.86 254.79 717.32 258.52 719.24 C 259.03 719.49 260.04 719.98 260.55 720.23 C 262.53 721.26 264.57 722.18 266.53 723.27 C 267.91 723.82 269.27 724.46 270.52 725.29 C 289.44 733.66 308.78 741.45 329.00 746.12 L 329.24 746.99 L 330.30 747.31 L 331.05 746.73 C 333.01 747.34 335.01 747.83 337.05 748.05 C 337.44 749.73 338.40 749.99 339.93 748.82 C 343.55 749.93 347.34 750.54 351.08 751.05 C 350.73 752.95 354.08 753.00 354.91 751.75 C 355.45 751.83 356.53 752.01 357.07 752.09 C 356.78 753.99 360.11 753.97 360.96 752.75 C 363.92 753.56 367.00 753.84 370.05 754.09 C 370.25 756.34 374.35 755.84 375.81 754.80 C 376.63 754.88 378.27 755.05 379.09 755.13 C 379.62 757.45 383.99 756.77 385.71 755.80 C 404.52 757.44 423.50 757.43 442.31 755.80 C 444.00 756.76 448.47 757.44 448.92 755.12 C 450.32 755.11 451.71 754.97 453.10 754.71 C 454.18 755.91 457.99 756.14 457.91 754.08 C 463.00 753.64 468.10 752.89 473.09 751.75 C 473.92 752.99 477.27 752.97 476.94 751.06 C 479.33 750.86 481.71 750.42 483.99 749.67 C 485.41 750.93 486.41 750.75 486.97 749.12 L 488.08 748.83 C 489.59 749.99 490.55 749.74 490.96 748.07 C 491.47 748.00 492.48 747.88 492.99 747.81 L 493.76 748.35 L 494.79 748.00 L 495.02 747.12 C 495.51 747.04 496.51 746.89 497.00 746.81 L 497.77 747.34 L 498.81 746.98 L 499.02 746.10 C 505.37 744.73 511.70 742.92 517.80 740.71 C 519.18 741.76 523.03 741.02 522.83 739.06 L 523.39 738.92 C 526.20 738.80 529.26 738.02 531.34 736.03 C 541.00 732.83 550.15 728.32 559.46 724.27 C 562.80 722.61 566.11 720.89 569.48 719.28 C 573.14 717.23 576.69 714.94 580.56 713.27 C 590.36 706.85 600.95 701.46 609.99 693.93 C 611.15 695.09 613.79 693.43 612.90 691.90 C 613.18 691.66 613.72 691.17 613.99 690.93 C 615.19 692.09 617.89 690.36 616.84 688.83 C 619.98 687.47 622.03 684.60 624.95 682.90 C 627.67 680.09 631.27 678.36 633.69 675.22 C 635.65 674.03 637.68 672.90 639.34 671.30 C 647.78 662.77 656.32 654.33 664.78 645.81 C 666.96 642.05 670.65 639.57 672.91 635.88 C 677.41 631.32 680.71 625.76 684.80 620.85 C 685.61 619.97 686.13 618.94 686.35 617.76 C 690.78 612.41 694.05 606.18 698.23 600.64 C 710.28 580.50 721.30 559.56 729.05 537.33 C 730.97 535.24 731.83 532.27 731.94 529.49 L 732.08 528.95 L 732.97 528.72 L 733.32 527.69 L 732.77 526.94 L 733.15 525.86 C 735.08 525.69 736.04 521.62 734.76 520.13 L 734.99 519.00 C 736.44 520.51 737.62 516.97 735.72 516.87 L 736.16 515.93 L 737.05 515.67 L 737.34 514.62 L 736.73 513.90 C 736.85 513.38 737.08 512.35 737.19 511.84 C 739.14 511.68 740.07 507.53 738.81 506.01 L 739.09 504.94 C 740.76 504.46 740.99 503.48 739.80 502.00 L 740.10 500.93 C 741.74 500.43 741.96 499.43 740.74 497.95 C 740.83 497.44 741.01 496.44 741.10 495.94 C 742.77 495.52 743.02 494.54 741.87 493.02 L 742.08 492.01 C 743.71 491.52 743.92 490.52 742.70 489.02 C 742.79 488.52 742.97 487.51 743.06 487.01 C 744.96 487.28 744.96 483.93 743.75 483.07 C 744.49 480.45 744.93 477.74 745.05 475.02 C 746.94 475.38 746.97 471.99 745.78 471.13 C 745.85 470.60 745.98 469.53 746.05 468.99 C 748.10 469.10 747.86 465.29 746.74 464.16 C 746.82 463.35 747.00 461.73 747.09 460.92 C 749.28 460.72 748.79 456.62 747.75 455.20 C 748.02 453.48 747.97 451.73 748.10 450.00 L 749.00 450.00 C 749.04 447.24 749.03 444.49 748.89 441.74 C 749.01 438.49 748.91 435.24 749.12 432.00 L 750.00 432.00 C 750.00 425.33 750.00 418.66 750.00 411.99 L 749.11 412.01 C 748.86 408.43 749.08 404.84 748.87 401.27 C 749.03 398.51 749.05 395.75 749.00 393.00 L 748.11 393.01 C 747.99 391.27 748.00 389.53 747.74 387.81 C 748.80 386.39 749.31 382.31 747.12 382.09 C 747.05 381.51 746.90 380.34 746.82 379.76 C 747.87 378.33 748.34 374.27 746.13 374.08 C 746.04 373.54 745.85 372.45 745.76 371.91 C 747.02 371.06 746.96 367.76 745.07 368.04 C 744.90 365.29 744.50 362.56 743.72 359.92 C 744.98 359.10 744.98 355.79 743.08 356.07 L 742.77 354.94 C 743.97 354.09 743.98 350.80 742.10 351.07 L 741.83 349.93 C 742.99 348.41 742.72 347.45 741.04 347.05 C 740.22 341.24 738.69 335.49 736.77 329.95 C 737.95 328.40 737.70 327.44 736.01 327.06 C 729.59 303.48 719.56 281.07 708.27 259.46 C 706.58 257.31 705.28 254.91 704.25 252.40 C 698.72 244.36 694.35 235.32 687.94 227.92 C 687.97 227.48 688.02 226.60 688.05 226.16 L 687.24 225.99 C 686.91 225.75 686.25 225.27 685.93 225.03 C 687.07 223.87 685.46 221.26 683.93 222.10 C 683.68 221.83 683.18 221.28 682.93 221.01 C 684.09 219.80 682.37 217.09 680.84 218.15 C 680.70 217.93 680.42 217.48 680.27 217.26 C 680.16 216.78 679.93 215.82 679.82 215.34 C 675.97 211.07 672.47 206.52 668.76 202.14 C 666.52 200.34 665.14 197.81 663.32 195.66 C 657.26 189.72 651.30 183.70 645.30 177.71 C 642.59 175.07 640.20 172.07 636.91 170.12 C 629.43 162.78 620.81 156.73 612.59 150.23 C 612.15 150.10 611.26 149.82 610.82 149.68 C 604.45 144.54 597.16 140.64 590.63 135.72 C 588.70 135.18 587.10 133.97 585.59 132.73 C 581.95 131.31 578.92 128.74 575.37 127.16 C 572.13 125.27 568.55 123.98 565.53 121.73 C 553.22 116.16 541.03 110.25 528.21 105.90 C 517.24 102.23 506.28 98.27 494.93 95.99 C 494.53 94.30 493.56 94.04 492.04 95.20 C 490.10 94.44 488.02 94.04 485.95 93.94 L 485.73 93.05 L 484.69 92.70 L 483.93 93.25 C 483.20 93.16 481.74 92.98 481.02 92.89 L 480.76 92.02 L 479.70 91.73 L 478.96 92.33 C 471.65 91.02 464.33 89.57 456.92 88.91 C 456.71 86.67 452.62 87.16 451.18 88.22 C 449.77 87.97 448.34 87.87 446.92 87.92 C 447.09 86.03 443.79 86.12 442.99 87.39 C 423.72 85.66 404.26 85.65 385.00 87.39 Z" />
</g>
<g id="#ffffffff">
<path fill="#ffffff" opacity="1.00" d=" M 385.00 87.39 C 404.26 85.65 423.72 85.66 442.99 87.39 C 444.26 87.75 445.57 88.04 446.92 87.92 C 448.34 87.87 449.77 87.97 451.18 88.22 C 453.06 88.64 454.98 88.95 456.92 88.91 C 464.33 89.57 471.65 91.02 478.96 92.33 C 479.47 92.47 480.50 92.75 481.02 92.89 C 481.74 92.98 483.20 93.16 483.93 93.25 C 484.43 93.42 485.45 93.77 485.95 93.94 C 488.02 94.04 490.10 94.44 492.04 95.20 C 492.92 95.77 493.88 96.03 494.93 95.99 C 506.28 98.27 517.24 102.23 528.21 105.90 C 541.03 110.25 553.22 116.16 565.53 121.73 C 568.55 123.98 572.13 125.27 575.37 127.16 C 578.92 128.74 581.95 131.31 585.59 132.73 C 587.10 133.97 588.70 135.18 590.63 135.72 C 597.16 140.64 604.45 144.54 610.82 149.68 C 634.94 167.73 657.26 188.34 675.91 212.07 C 677.28 213.86 678.77 215.57 680.27 217.26 C 680.42 217.48 680.70 217.93 680.84 218.15 C 681.29 219.25 681.98 220.25 682.93 221.01 C 683.18 221.28 683.68 221.83 683.93 222.10 C 684.37 223.19 684.82 224.42 685.93 225.03 C 686.25 225.27 686.91 225.75 687.24 225.99 C 687.41 226.48 687.76 227.44 687.94 227.92 C 694.35 235.32 698.72 244.36 704.25 252.40 C 705.28 254.91 706.58 257.31 708.27 259.46 C 719.56 281.07 729.59 303.48 736.01 327.06 C 735.96 328.09 736.22 329.05 736.77 329.95 C 738.69 335.49 740.22 341.24 741.04 347.05 C 740.98 348.09 741.24 349.04 741.83 349.93 L 742.10 351.07 C 742.03 352.39 742.29 353.70 742.77 354.94 L 743.08 356.07 C 743.05 357.38 743.27 358.68 743.72 359.92 C 744.50 362.56 744.90 365.29 745.07 368.04 C 745.02 369.36 745.34 370.65 745.76 371.91 C 745.85 372.45 746.04 373.54 746.13 374.08 C 746.06 376.00 746.35 377.90 746.82 379.76 C 746.90 380.34 747.05 381.51 747.12 382.09 C 747.01 384.02 747.31 385.93 747.74 387.81 C 748.00 389.53 747.99 391.27 748.11 393.01 C 748.27 395.76 748.63 398.51 748.87 401.27 C 749.08 404.84 748.86 408.43 749.11 412.01 C 749.34 418.67 749.32 425.34 749.12 432.00 C 748.91 435.24 749.01 438.49 748.89 441.74 C 748.66 444.50 748.25 447.23 748.10 450.00 C 747.97 451.73 748.02 453.48 747.75 455.20 C 747.32 457.08 746.96 458.98 747.09 460.92 C 747.00 461.73 746.82 463.35 746.74 464.16 C 746.30 465.73 745.99 467.34 746.05 468.99 C 745.98 469.53 745.85 470.60 745.78 471.13 C 745.36 472.39 744.99 473.67 745.05 475.02 C 744.93 477.74 744.49 480.45 743.75 483.07 C 743.31 484.33 743.05 485.65 743.06 487.01 C 742.97 487.51 742.79 488.52 742.70 489.02 C 742.19 489.95 741.98 490.95 742.08 492.01 L 741.87 493.02 C 741.30 493.90 741.04 494.88 741.10 495.94 C 741.01 496.44 740.83 497.44 740.74 497.95 C 740.22 498.87 740.00 499.86 740.10 500.93 L 739.80 502.00 C 739.25 502.90 739.01 503.88 739.09 504.94 L 738.81 506.01 C 737.85 507.81 737.34 509.80 737.19 511.84 C 737.08 512.35 736.85 513.38 736.73 513.90 C 736.59 514.41 736.30 515.42 736.16 515.93 L 735.72 516.87 C 735.54 517.41 735.17 518.47 734.99 519.00 L 734.76 520.13 C 733.83 521.91 733.19 523.83 733.15 525.86 L 732.77 526.94 C 732.60 527.44 732.26 528.44 732.08 528.95 L 731.94 529.49 C 730.76 532.01 729.77 534.63 729.05 537.33 C 721.30 559.56 710.28 580.50 698.23 600.64 C 694.05 606.18 690.78 612.41 686.35 617.76 C 677.62 629.17 668.69 640.44 658.85 650.92 C 650.73 659.29 642.44 667.51 633.69 675.22 C 631.27 678.36 627.67 680.09 624.95 682.90 C 622.03 684.60 619.98 687.47 616.84 688.83 C 615.71 689.27 614.75 690.00 613.99 690.93 C 613.72 691.17 613.18 691.66 612.90 691.90 C 611.76 692.30 610.69 692.92 609.99 693.93 C 600.95 701.46 590.36 706.85 580.56 713.27 C 576.69 714.94 573.14 717.23 569.48 719.28 C 566.11 720.89 562.80 722.61 559.46 724.27 C 550.15 728.32 541.00 732.83 531.34 736.03 C 528.62 736.79 525.98 737.80 523.39 738.92 L 522.83 739.06 C 521.05 739.24 519.30 739.69 517.80 740.71 C 511.70 742.92 505.37 744.73 499.02 746.10 C 498.52 746.27 497.51 746.63 497.00 746.81 C 496.51 746.89 495.51 747.04 495.02 747.12 C 494.51 747.29 493.50 747.64 492.99 747.81 C 492.48 747.88 491.47 748.00 490.96 748.07 C 489.91 747.99 488.95 748.25 488.08 748.83 L 486.97 749.12 C 485.91 748.98 484.92 749.16 483.99 749.67 C 481.71 750.42 479.33 750.86 476.94 751.06 C 475.61 751.03 474.33 751.32 473.09 751.75 C 468.10 752.89 463.00 753.64 457.91 754.08 C 456.27 754.04 454.67 754.31 453.10 754.71 C 451.71 754.97 450.32 755.11 448.92 755.12 C 446.69 754.98 444.49 755.39 442.31 755.80 C 423.50 757.43 404.52 757.44 385.71 755.80 C 383.52 755.38 381.32 754.99 379.09 755.13 C 378.27 755.05 376.63 754.88 375.81 754.80 C 373.91 754.37 371.99 754.07 370.05 754.09 C 367.00 753.84 363.92 753.56 360.96 752.75 C 359.70 752.32 358.39 752.05 357.07 752.09 C 356.53 752.01 355.45 751.83 354.91 751.75 C 353.67 751.31 352.39 751.01 351.08 751.05 C 347.34 750.54 343.55 749.93 339.93 748.82 C 339.05 748.25 338.09 747.99 337.05 748.05 C 335.01 747.83 333.01 747.34 331.05 746.73 C 330.54 746.58 329.51 746.27 329.00 746.12 C 308.78 741.45 289.44 733.66 270.52 725.29 C 269.27 724.46 267.91 723.82 266.53 723.27 C 264.57 722.18 262.53 721.26 260.55 720.23 C 260.04 719.98 259.03 719.49 258.52 719.24 C 254.79 717.32 251.34 714.86 247.44 713.27 C 237.67 707.10 227.60 701.33 218.36 694.35 C 214.17 690.56 209.35 687.57 205.05 683.92 C 163.39 650.94 130.11 607.71 108.04 559.43 C 105.75 554.86 103.75 550.16 101.99 545.37 C 101.23 542.69 100.17 540.12 99.07 537.57 C 96.27 530.51 93.94 523.26 92.01 515.93 C 92.03 514.88 91.76 513.92 91.22 513.04 C 89.29 507.50 87.82 501.74 86.94 495.94 C 86.76 495.44 86.42 494.42 86.24 493.91 C 86.16 493.42 86.00 492.42 85.92 491.92 C 85.97 490.59 85.69 489.30 85.23 488.06 L 84.93 486.92 C 84.94 485.59 84.67 484.31 84.26 483.07 C 84.17 482.54 84.00 481.47 83.91 480.93 C 83.93 479.60 83.64 478.31 83.24 477.06 C 83.15 476.53 82.99 475.47 82.90 474.94 C 82.92 473.61 82.66 472.31 82.28 471.06 C 81.53 467.40 81.07 463.67 80.89 459.93 C 80.92 458.00 80.59 456.09 80.23 454.21 C 79.07 446.19 79.07 438.08 78.88 430.00 C 78.67 424.67 78.67 419.33 78.88 414.01 C 79.06 405.58 79.03 397.13 80.23 388.77 C 80.59 386.88 80.91 384.98 80.90 383.06 C 81.31 377.32 82.05 371.57 83.25 365.94 C 83.67 364.68 83.94 363.38 83.92 362.06 C 84.44 357.99 85.27 353.95 86.27 349.98 C 86.77 349.06 86.99 348.09 86.94 347.05 C 93.34 317.20 104.42 288.42 118.83 261.52 C 121.45 256.80 124.43 252.25 126.76 247.38 C 131.30 241.16 134.71 234.14 139.65 228.20 C 151.25 212.80 163.24 197.58 177.12 184.15 C 189.40 171.46 203.29 160.50 217.20 149.68 C 224.46 144.07 232.35 139.25 240.12 134.36 C 243.01 132.12 246.65 131.12 249.44 128.73 C 266.49 119.94 283.66 111.21 301.93 105.19 C 308.60 103.06 315.16 100.39 322.01 98.93 C 322.51 98.76 323.53 98.42 324.03 98.24 L 324.99 97.99 C 327.49 97.44 329.96 96.78 332.41 96.04 L 333.06 95.96 C 334.09 96.02 335.06 95.77 335.95 95.22 L 337.05 94.89 C 338.09 95.00 339.07 94.80 340.01 94.30 C 340.51 94.21 341.53 94.02 342.04 93.93 C 343.07 94.00 344.04 93.77 344.94 93.23 C 345.45 93.14 346.48 92.96 347.00 92.87 C 347.51 92.73 348.55 92.46 349.06 92.32 C 356.37 91.03 363.68 89.58 371.08 88.91 C 373.02 88.94 374.94 88.66 376.83 88.24 C 378.23 87.98 379.64 87.88 381.07 87.92 C 382.40 88.04 383.72 87.76 385.00 87.39 M 384.63 198.54 C 376.75 201.90 372.72 210.83 372.82 219.03 C 372.58 224.86 375.62 230.20 375.64 236.00 C 375.58 237.84 373.70 238.62 372.31 239.33 C 365.39 242.58 359.01 247.58 355.40 254.44 C 351.25 262.66 350.95 272.13 350.72 281.15 C 349.76 280.53 348.80 279.88 348.07 278.99 C 338.93 268.73 329.64 258.60 320.90 248.00 C 315.64 241.61 304.03 240.08 298.86 247.34 C 294.88 245.98 289.96 245.40 286.68 248.61 C 283.87 250.92 283.67 254.71 283.53 258.06 C 282.24 274.72 280.39 291.33 279.59 308.02 C 279.00 317.30 277.85 326.98 281.22 335.90 C 286.33 350.34 292.46 364.39 298.65 378.39 C 301.13 383.46 302.96 389.00 306.73 393.31 C 312.73 399.85 321.08 403.38 328.96 407.08 C 347.14 414.83 365.31 422.69 382.63 432.24 C 393.83 438.18 404.54 444.95 415.16 451.84 C 443.27 432.45 474.32 417.88 505.66 404.57 C 512.39 401.75 519.94 399.53 524.66 393.58 C 528.22 389.49 529.13 384.00 531.13 379.11 C 534.73 370.00 538.57 360.95 543.20 352.30 C 546.83 345.61 549.91 338.49 551.03 330.91 C 552.18 324.33 551.57 317.63 551.71 310.99 C 550.86 293.98 551.13 276.94 550.33 259.94 C 550.26 255.35 547.29 250.46 542.59 249.48 C 540.03 248.82 537.56 250.28 535.01 250.26 C 532.03 248.71 529.49 246.07 525.96 245.82 C 519.39 244.54 513.30 248.34 508.85 252.79 C 500.28 261.37 491.67 269.92 482.95 278.34 C 486.51 265.26 481.83 250.29 470.83 242.18 C 467.45 240.30 468.32 236.07 466.88 233.04 C 462.71 222.53 454.41 213.83 444.53 208.49 C 434.37 205.15 421.84 212.98 421.09 223.88 C 420.81 233.56 424.16 245.26 434.08 249.06 C 436.40 249.86 437.31 247.05 437.05 245.27 C 431.58 241.52 430.02 234.23 430.95 228.02 C 431.32 225.98 433.26 225.00 434.91 224.13 C 437.80 224.91 440.82 225.81 442.79 228.24 C 449.82 235.83 452.98 245.98 458.48 254.59 C 461.23 258.61 466.85 259.38 469.32 263.68 C 472.44 268.86 472.63 275.18 472.83 281.05 C 472.38 293.75 471.05 306.39 469.68 319.01 C 469.65 320.25 468.77 321.24 467.72 321.79 C 454.45 329.51 440.46 335.87 427.00 343.23 C 425.95 343.68 424.86 344.01 423.74 344.21 C 423.05 340.99 423.75 337.36 425.66 334.68 C 428.63 331.23 433.57 332.16 437.59 332.10 C 438.01 327.05 437.18 322.02 437.35 316.98 C 437.33 312.63 437.57 308.24 436.92 303.92 C 436.16 299.54 433.30 295.92 430.29 292.81 C 433.91 290.31 437.35 287.56 440.39 284.37 C 444.31 280.26 448.68 276.36 451.32 271.25 C 453.67 266.43 447.90 260.98 443.15 262.99 C 439.84 264.40 436.55 265.87 433.10 266.93 C 431.18 263.21 430.57 258.96 428.96 255.09 C 427.51 251.62 427.72 246.99 424.25 244.73 C 419.90 242.29 414.75 242.93 410.00 243.17 C 408.54 243.40 406.64 241.93 407.35 240.40 C 409.67 237.72 412.98 235.91 414.68 232.71 C 415.37 230.90 415.22 228.91 415.36 227.01 C 415.49 220.36 416.91 213.64 415.62 207.02 C 414.76 202.48 411.34 198.52 406.89 197.20 C 399.64 194.90 391.61 195.69 384.63 198.54 M 263.13 490.09 C 256.24 493.93 250.79 501.01 250.52 509.10 C 249.86 516.59 253.32 524.26 259.52 528.55 C 268.83 535.74 281.12 537.38 290.54 544.33 C 295.20 547.76 295.88 554.42 293.35 559.34 C 292.01 563.24 287.40 563.88 283.87 564.23 C 277.57 564.59 270.60 564.44 265.22 560.75 C 263.58 556.24 262.47 551.52 261.85 546.77 C 257.90 546.54 253.95 546.65 250.02 547.01 C 249.90 553.39 249.88 559.77 249.87 566.15 C 257.78 571.59 267.54 573.39 276.95 573.99 C 287.01 574.40 297.90 572.61 305.70 565.77 C 314.56 557.82 314.77 542.16 305.75 534.26 C 298.00 527.36 287.66 524.85 278.64 520.14 C 275.56 518.44 272.45 516.49 270.38 513.59 C 266.99 508.87 267.36 502.14 270.33 497.32 C 277.22 492.92 286.82 493.16 293.78 497.36 C 296.13 502.14 295.92 507.87 297.02 513.06 C 300.60 513.35 304.19 513.42 307.78 513.25 C 308.65 507.77 309.93 502.36 310.83 496.88 C 311.64 493.94 309.41 491.08 306.75 490.07 C 293.33 483.45 276.37 482.55 263.13 490.09 M 346.08 487.12 C 339.24 489.54 332.68 493.89 329.34 500.53 C 324.76 509.03 326.66 520.53 334.00 526.90 C 341.99 533.96 352.65 536.44 361.99 541.12 C 365.52 542.95 369.16 545.41 370.68 549.25 C 371.85 553.41 371.05 558.18 368.44 561.65 C 364.97 564.36 360.23 564.27 356.03 564.37 C 351.10 564.23 345.64 563.73 341.64 560.59 C 339.92 556.11 339.19 551.33 338.09 546.68 C 334.26 546.65 330.41 546.52 326.61 547.13 C 326.52 553.31 326.09 559.50 326.41 565.69 C 328.16 568.09 331.36 568.89 333.96 570.13 C 345.10 574.19 357.50 575.27 369.09 572.50 C 377.20 570.49 385.22 565.19 387.84 556.89 C 390.59 549.00 388.34 539.50 381.94 534.02 C 374.01 527.10 363.45 524.68 354.37 519.73 C 350.47 517.50 346.42 514.57 345.10 510.06 C 343.75 506.44 344.56 502.47 345.89 498.98 C 346.83 496.50 349.60 495.64 351.92 495.03 C 358.08 493.37 365.10 493.95 370.48 497.53 C 372.30 502.35 372.57 507.60 373.33 512.65 C 376.69 513.88 380.48 513.13 384.02 513.32 C 385.36 507.91 386.35 502.41 387.26 496.91 C 387.87 494.85 386.64 493.02 385.73 491.30 C 373.79 484.74 359.09 482.77 346.08 487.12 M 430.18 485.24 C 421.13 486.67 411.79 490.84 406.77 498.85 C 401.22 507.42 402.60 519.86 410.25 526.73 C 418.35 533.99 429.26 536.43 438.75 541.26 C 442.09 543.05 445.59 545.30 447.03 548.99 C 448.47 552.81 447.58 557.19 445.62 560.65 C 444.08 563.27 440.69 563.60 438.00 564.09 C 431.28 564.79 424.06 564.43 418.12 560.90 C 416.73 556.25 415.41 551.56 414.78 546.75 C 410.86 546.56 406.93 546.65 403.03 547.01 C 402.83 553.42 402.90 559.84 402.89 566.26 C 407.18 569.08 412.00 570.98 416.99 572.17 C 427.35 574.53 438.44 574.99 448.63 571.56 C 455.26 569.28 461.45 564.60 464.00 557.89 C 466.70 550.34 465.52 541.14 459.77 535.29 C 450.38 525.75 435.94 524.52 425.74 516.22 C 420.69 512.20 419.73 504.80 422.33 499.13 C 423.17 496.26 426.45 495.53 429.00 494.90 C 435.04 493.45 442.09 493.96 447.16 497.83 C 448.80 502.74 449.06 507.99 450.01 513.07 C 453.57 513.35 457.14 513.40 460.71 513.28 C 461.66 507.14 463.31 501.11 464.01 494.94 C 463.50 493.29 462.58 491.60 461.01 490.77 C 451.69 485.61 440.69 483.95 430.18 485.24 M 476.81 486.86 C 476.14 493.74 476.26 500.67 476.47 507.57 C 476.68 508.84 476.36 510.37 477.13 511.48 C 480.63 512.39 484.32 511.94 487.90 512.01 C 489.10 506.74 490.36 501.48 491.37 496.17 C 496.51 495.65 501.67 495.20 506.84 495.33 C 506.84 517.59 507.39 539.87 505.93 562.10 C 502.35 563.61 498.45 564.16 494.92 565.79 C 495.62 567.76 495.98 569.83 496.24 571.91 C 508.79 572.12 521.34 571.94 533.89 572.00 C 534.49 569.83 534.91 567.62 535.18 565.39 C 531.12 564.12 524.56 563.50 524.25 558.08 C 523.12 537.35 523.81 516.56 523.73 495.81 C 528.51 494.45 534.01 495.98 539.05 496.06 C 540.17 501.08 541.51 506.07 542.13 511.18 C 545.64 512.18 549.33 511.93 552.93 511.63 C 553.27 504.71 554.41 497.86 554.66 490.94 C 554.25 489.01 552.72 487.55 551.73 485.91 C 526.79 487.56 501.78 486.74 476.81 486.86 M 569.00 486.89 C 566.82 487.02 564.48 486.48 562.41 487.24 C 561.87 489.16 561.54 491.15 561.11 493.11 C 564.66 494.66 569.30 494.95 571.69 498.34 C 572.99 505.47 572.84 512.79 572.89 520.02 C 572.89 534.07 573.11 548.15 571.96 562.18 C 568.47 563.32 564.98 564.53 561.36 565.19 C 561.53 567.43 561.90 569.65 562.30 571.88 C 586.23 572.16 610.17 571.93 634.10 571.99 C 634.29 563.97 634.31 555.95 634.10 547.93 C 630.45 547.60 626.77 547.64 623.11 547.66 C 621.85 552.45 620.62 557.25 619.71 562.11 C 615.94 563.33 611.90 562.90 608.02 563.31 C 602.46 563.29 596.64 563.68 591.37 561.64 C 589.52 557.29 590.22 552.50 589.90 547.92 C 589.53 543.49 589.66 539.05 589.69 534.62 C 598.79 535.12 607.91 535.17 617.03 535.33 C 617.66 532.57 618.13 529.78 618.66 527.01 C 617.67 525.95 616.88 524.19 615.11 524.66 C 606.63 524.76 598.18 525.48 589.71 525.65 C 589.46 517.42 590.18 509.21 590.16 500.98 C 590.38 499.30 589.65 496.34 592.08 496.05 C 600.54 494.64 609.14 495.57 617.62 496.27 C 618.67 501.03 619.32 505.87 620.40 510.62 C 623.72 511.58 627.33 510.93 630.77 511.08 C 631.61 504.30 633.19 497.62 634.09 490.85 C 633.77 488.88 632.05 487.49 631.02 485.87 C 610.38 487.42 589.67 486.75 569.00 486.89 M 197.97 486.89 C 197.45 488.98 196.98 491.07 196.56 493.19 C 200.39 494.92 206.89 494.94 207.51 500.18 C 208.50 506.77 207.60 513.45 208.26 520.07 C 208.41 526.06 208.36 532.06 208.29 538.06 C 207.58 546.11 208.48 554.26 207.31 562.28 C 203.77 563.30 200.29 564.50 196.70 565.34 C 196.94 567.58 197.34 569.82 197.97 572.00 C 210.53 571.90 223.09 572.20 235.64 571.84 C 235.95 569.74 236.34 567.65 236.85 565.60 C 233.32 564.14 228.71 563.91 226.34 560.60 C 224.67 552.50 225.22 544.16 225.11 535.95 C 225.24 522.76 224.64 509.52 226.15 496.39 C 229.74 495.49 233.28 494.38 236.79 493.22 C 236.35 491.18 235.99 489.12 235.69 487.07 C 223.12 486.66 210.54 487.00 197.97 486.89 Z" />
<path fill="#ffffff" opacity="1.00" d=" M 394.35 211.26 C 398.36 210.57 403.02 210.92 405.80 214.29 C 408.48 217.79 409.33 222.77 407.80 226.94 C 406.04 232.12 402.15 236.20 398.22 239.87 C 399.10 241.76 402.00 243.91 400.15 246.07 C 395.78 251.92 395.26 260.47 399.48 266.53 C 400.17 268.14 402.56 269.59 401.55 271.50 C 396.90 280.16 392.22 290.08 394.81 300.13 C 395.81 304.40 398.20 309.58 403.06 310.32 C 405.92 310.83 408.29 308.92 410.42 307.33 C 412.99 304.90 415.44 310.38 418.15 308.27 C 420.20 306.07 419.97 300.86 423.96 301.00 C 427.14 302.23 430.07 304.79 431.26 308.03 C 429.77 313.58 430.53 319.31 430.16 324.97 C 426.52 325.59 422.68 324.69 419.20 326.10 C 416.60 330.05 418.84 336.00 414.68 338.93 C 413.29 339.45 411.95 338.57 411.87 337.11 C 411.03 333.02 410.51 328.37 412.68 324.60 C 415.16 320.79 419.76 319.60 423.51 317.50 C 425.98 315.07 426.48 310.70 424.78 307.70 C 423.13 308.95 422.53 310.95 421.64 312.73 C 416.98 317.03 408.48 315.01 405.08 321.04 C 402.44 326.83 402.64 333.66 404.39 339.68 C 407.94 345.29 415.09 346.55 420.35 350.01 C 418.69 351.35 417.00 352.64 415.27 353.89 C 407.54 346.10 398.94 338.95 388.97 334.20 C 383.05 331.16 376.62 329.26 370.63 326.37 C 367.37 324.81 364.14 322.69 362.44 319.40 C 361.42 316.39 361.50 313.15 361.22 310.02 C 360.66 296.36 359.74 282.37 363.24 269.00 C 365.28 260.93 370.94 254.15 378.04 249.97 C 381.13 247.81 385.68 246.22 386.24 241.96 C 386.70 236.84 385.20 231.79 383.65 226.97 C 389.36 223.76 394.46 218.20 394.35 211.26 Z" />
<path fill="#ffffff" opacity="1.00" d=" M 418.51 255.01 C 419.93 255.22 421.69 254.94 422.79 256.11 C 423.58 258.32 423.98 260.64 424.52 262.92 C 421.91 265.36 418.79 270.47 423.10 272.88 C 428.64 275.12 434.70 273.56 440.21 272.00 C 438.55 275.76 436.15 279.38 432.59 281.57 C 428.54 283.88 422.23 280.80 419.68 285.78 C 418.45 290.26 420.23 295.24 418.79 299.62 C 414.02 300.20 408.70 300.62 404.12 298.82 C 400.09 295.60 399.69 289.16 401.80 284.70 C 404.75 279.39 408.57 274.55 411.03 268.95 C 411.99 267.05 411.66 264.90 411.39 262.88 C 415.41 262.36 418.82 259.28 418.51 255.01 Z" />
<path fill="#ffffff" opacity="1.00" d=" M 312.92 269.00 C 314.99 267.40 318.57 267.69 319.38 270.50 C 321.70 280.25 323.70 290.09 325.68 299.92 C 326.42 302.66 325.64 305.80 322.93 307.10 C 319.46 307.05 317.71 303.98 317.47 300.87 C 316.06 290.23 313.92 279.67 312.92 269.00 Z" />
<path fill="#ffffff" opacity="1.00" d=" M 526.65 278.07 C 527.17 274.19 528.61 269.14 533.01 268.20 C 535.28 268.66 536.52 270.88 536.65 273.05 C 537.37 284.66 536.62 296.32 537.31 307.94 C 537.35 314.64 538.69 321.45 537.11 328.07 C 535.88 334.20 532.65 339.64 530.17 345.31 C 525.83 354.53 522.11 364.06 517.20 373.01 C 515.30 376.67 512.34 379.73 508.82 381.85 C 478.92 398.40 445.56 408.55 417.72 428.79 C 416.80 429.33 415.60 430.61 414.53 429.60 C 400.29 419.52 384.86 411.22 368.90 404.20 C 353.16 397.01 337.22 390.16 322.03 381.83 C 315.33 378.01 312.28 370.58 309.12 363.96 C 304.68 353.81 299.85 343.83 295.36 333.71 C 291.11 323.87 295.38 313.38 295.24 303.21 C 296.08 294.47 295.92 285.68 296.51 276.93 C 296.68 273.68 298.01 269.60 301.72 269.06 C 304.09 270.00 305.34 272.50 305.67 274.90 C 308.01 292.89 309.56 311.03 313.28 328.81 C 315.79 341.24 325.34 351.06 336.25 356.84 C 342.56 360.20 348.66 364.57 355.87 365.67 C 358.85 366.29 361.69 363.92 362.01 360.98 C 361.82 358.61 359.85 356.99 357.98 355.83 C 349.33 350.50 340.06 346.10 331.99 339.86 C 327.67 336.57 326.05 331.16 325.32 326.01 C 324.87 324.55 325.50 323.16 326.04 321.84 C 329.72 321.25 333.06 323.21 336.22 324.80 C 355.11 334.70 375.00 342.67 393.34 353.62 C 401.62 358.48 406.69 367.11 410.23 375.76 C 413.17 382.96 414.78 390.63 415.53 398.35 C 416.41 386.43 420.08 374.62 426.49 364.51 C 430.31 358.72 435.80 354.17 441.97 351.04 C 458.49 341.84 475.87 334.33 492.75 325.83 C 496.58 323.95 500.45 321.18 504.95 321.81 C 506.43 325.70 504.79 329.94 503.60 333.70 C 499.61 341.70 490.70 345.00 483.60 349.58 C 479.19 352.57 473.91 354.33 470.12 358.16 C 467.14 360.87 470.36 365.95 473.98 365.72 C 478.69 365.58 482.94 363.18 487.04 361.09 C 493.93 357.16 501.28 353.67 506.85 347.87 C 512.68 342.31 516.56 334.89 518.04 326.98 C 521.39 310.77 524.53 294.49 526.65 278.07 Z" />
<path fill="#ffffff" opacity="1.00" d=" M 512.44 270.39 C 513.16 268.50 515.49 269.06 517.07 268.69 C 517.56 270.42 517.52 272.22 517.14 273.96 C 515.55 283.15 514.15 292.36 512.41 301.52 C 512.10 303.83 510.41 306.17 507.92 306.33 C 505.76 306.06 505.78 303.59 506.06 301.96 C 507.32 293.60 509.13 285.33 510.72 277.03 C 511.17 274.79 511.35 272.43 512.44 270.39 Z" />
<path fill="#ffffff" opacity="1.00" d=" M 330.27 284.38 C 332.25 283.36 334.40 285.27 334.61 287.24 C 335.48 293.24 336.26 299.26 337.64 305.16 C 337.77 306.55 338.57 308.42 337.19 309.45 C 334.91 310.45 332.57 308.20 332.37 305.98 C 331.48 299.27 330.24 292.61 329.37 285.91 C 329.60 285.53 330.05 284.77 330.27 284.38 Z" />
<path fill="#ffffff" opacity="1.00" d=" M 493.77 298.89 C 495.11 293.64 493.99 286.69 498.95 283.17 C 501.29 284.60 500.49 287.74 500.34 289.99 C 499.57 295.58 500.29 301.36 498.74 306.83 C 498.28 308.67 496.43 309.39 494.97 310.26 C 491.01 307.73 493.51 302.60 493.77 298.89 Z" />
<path fill="#ffffff" opacity="1.00" d=" M 344.33 296.12 C 346.22 295.75 347.91 296.75 348.26 298.71 C 349.47 303.76 350.58 308.86 351.33 313.99 C 350.45 317.18 346.10 315.86 346.00 312.97 C 345.18 307.42 342.81 301.72 344.33 296.12 Z" />
<path fill="#ffffff" opacity="1.00" d=" M 484.11 296.05 C 484.58 296.05 485.50 296.06 485.97 296.07 C 486.76 299.70 485.70 303.42 485.75 307.09 C 485.43 310.01 486.03 313.60 483.70 315.86 C 482.40 316.30 480.87 316.00 480.22 314.69 C 478.66 310.85 480.42 306.83 481.04 302.99 C 481.72 300.58 481.57 297.37 484.11 296.05 Z" />
</g>
<g id="#ca9656ff">
<path fill="#ca9656" opacity="1.00" d=" M 381.07 87.92 C 380.89 86.03 384.19 86.12 385.00 87.39 C 383.72 87.76 382.40 88.04 381.07 87.92 Z" />
<path fill="#ca9656" opacity="1.00" d=" M 442.99 87.39 C 443.79 86.12 447.09 86.03 446.92 87.92 C 445.57 88.04 444.26 87.75 442.99 87.39 Z" />
<path fill="#ca9656" opacity="1.00" d=" M 371.08 88.91 C 371.28 86.66 375.39 87.17 376.83 88.24 C 374.94 88.66 373.02 88.94 371.08 88.91 Z" />
<path fill="#ca9656" opacity="1.00" d=" M 451.18 88.22 C 452.62 87.16 456.71 86.67 456.92 88.91 C 454.98 88.95 453.06 88.64 451.18 88.22 Z" />
<path fill="#ca9656" opacity="1.00" d=" M 347.25 92.00 L 348.32 91.73 L 349.06 92.32 C 348.55 92.46 347.51 92.73 347.00 92.87 L 347.25 92.00 Z" />
<path fill="#ca9656" opacity="1.00" d=" M 478.96 92.33 L 479.70 91.73 L 480.76 92.02 L 481.02 92.89 C 480.50 92.75 479.47 92.47 478.96 92.33 Z" />
<path fill="#ca9656" opacity="1.00" d=" M 342.04 93.93 C 342.45 92.25 343.42 92.02 344.94 93.23 C 344.04 93.77 343.07 94.00 342.04 93.93 Z" />
<path fill="#ca9656" opacity="1.00" d=" M 483.93 93.25 L 484.69 92.70 L 485.73 93.05 L 485.95 93.94 C 485.45 93.77 484.43 93.42 483.93 93.25 Z" />
<path fill="#ca9656" opacity="1.00" d=" M 337.05 94.89 C 337.54 93.24 338.53 93.04 340.01 94.30 C 339.07 94.80 338.09 95.00 337.05 94.89 Z" />
<path fill="#ca9656" opacity="1.00" d=" M 333.06 95.96 C 333.47 94.27 334.44 94.02 335.95 95.22 C 335.06 95.77 334.09 96.02 333.06 95.96 Z" />
<path fill="#ca9656" opacity="1.00" d=" M 492.04 95.20 C 493.56 94.04 494.53 94.30 494.93 95.99 C 493.88 96.03 492.92 95.77 492.04 95.20 Z" />
<path fill="#ca9656" opacity="1.00" d=" M 325.00 97.10 C 327.55 97.23 329.84 95.72 332.41 96.04 C 329.96 96.78 327.49 97.44 324.99 97.99 L 325.00 97.10 Z" />
<path fill="#ca9656" opacity="1.00" d=" M 322.22 98.05 L 323.26 97.69 L 324.03 98.24 C 323.53 98.42 322.51 98.76 322.01 98.93 L 322.22 98.05 Z" />
<path fill="#ca9656" opacity="1.00" d=" M 215.39 150.24 C 215.84 150.10 216.75 149.82 217.20 149.68 C 203.29 160.50 189.40 171.46 177.12 184.15 C 163.24 197.58 151.25 212.80 139.65 228.20 C 142.62 221.22 148.74 216.15 152.77 209.77 C 155.88 206.90 157.82 203.03 161.10 200.33 C 163.16 198.59 164.24 196.02 166.17 194.16 C 173.60 186.93 180.84 179.49 188.20 172.20 C 191.97 170.01 194.47 166.32 198.17 164.05 C 203.55 159.02 209.63 154.83 215.39 150.24 Z" />
<path fill="#ca9656" opacity="1.00" d=" M 610.82 149.68 C 611.26 149.82 612.15 150.10 612.59 150.23 C 620.81 156.73 629.43 162.78 636.91 170.12 C 640.20 172.07 642.59 175.07 645.30 177.71 C 651.30 183.70 657.26 189.72 663.32 195.66 C 665.14 197.81 666.52 200.34 668.76 202.14 C 672.47 206.52 675.97 211.07 679.82 215.34 C 679.93 215.82 680.16 216.78 680.27 217.26 C 678.77 215.57 677.28 213.86 675.91 212.07 C 657.26 188.34 634.94 167.73 610.82 149.68 Z" />
<path fill="#ca9656" opacity="1.00" d=" M 384.63 198.54 C 391.61 195.69 399.64 194.90 406.89 197.20 C 411.34 198.52 414.76 202.48 415.62 207.02 C 416.91 213.64 415.49 220.36 415.36 227.01 C 415.22 228.91 415.37 230.90 414.68 232.71 C 412.98 235.91 409.67 237.72 407.35 240.40 C 406.64 241.93 408.54 243.40 410.00 243.17 C 414.75 242.93 419.90 242.29 424.25 244.73 C 427.72 246.99 427.51 251.62 428.96 255.09 C 430.57 258.96 431.18 263.21 433.10 266.93 C 436.55 265.87 439.84 264.40 443.15 262.99 C 447.90 260.98 453.67 266.43 451.32 271.25 C 448.68 276.36 444.31 280.26 440.39 284.37 C 437.35 287.56 433.91 290.31 430.29 292.81 C 433.30 295.92 436.16 299.54 436.92 303.92 C 437.57 308.24 437.33 312.63 437.35 316.98 C 437.18 322.02 438.01 327.05 437.59 332.10 C 433.57 332.16 428.63 331.23 425.66 334.68 C 423.75 337.36 423.05 340.99 423.74 344.21 C 424.86 344.01 425.95 343.68 427.00 343.23 C 440.46 335.87 454.45 329.51 467.72 321.79 C 468.77 321.24 469.65 320.25 469.68 319.01 C 471.05 306.39 472.38 293.75 472.83 281.05 C 472.63 275.18 472.44 268.86 469.32 263.68 C 466.85 259.38 461.23 258.61 458.48 254.59 C 452.98 245.98 449.82 235.83 442.79 228.24 C 440.82 225.81 437.80 224.91 434.91 224.13 C 433.26 225.00 431.32 225.98 430.95 228.02 C 430.02 234.23 431.58 241.52 437.05 245.27 C 437.31 247.05 436.40 249.86 434.08 249.06 C 424.16 245.26 420.81 233.56 421.09 223.88 C 421.84 212.98 434.37 205.15 444.53 208.49 C 454.41 213.83 462.71 222.53 466.88 233.04 C 468.32 236.07 467.45 240.30 470.83 242.18 C 481.83 250.29 486.51 265.26 482.95 278.34 C 491.67 269.92 500.28 261.37 508.85 252.79 C 513.30 248.34 519.39 244.54 525.96 245.82 C 529.49 246.07 532.03 248.71 535.01 250.26 C 537.56 250.28 540.03 248.82 542.59 249.48 C 547.29 250.46 550.26 255.35 550.33 259.94 C 551.13 276.94 550.86 293.98 551.71 310.99 C 551.57 317.63 552.18 324.33 551.03 330.91 C 549.91 338.49 546.83 345.61 543.20 352.30 C 538.57 360.95 534.73 370.00 531.13 379.11 C 529.13 384.00 528.22 389.49 524.66 393.58 C 519.94 399.53 512.39 401.75 505.66 404.57 C 474.32 417.88 443.27 432.45 415.16 451.84 C 404.54 444.95 393.83 438.18 382.63 432.24 C 365.31 422.69 347.14 414.83 328.96 407.08 C 321.08 403.38 312.73 399.85 306.73 393.31 C 302.96 389.00 301.13 383.46 298.65 378.39 C 292.46 364.39 286.33 350.34 281.22 335.90 C 277.85 326.98 279.00 317.30 279.59 308.02 C 280.39 291.33 282.24 274.72 283.53 258.06 C 283.67 254.71 283.87 250.92 286.68 248.61 C 289.96 245.40 294.88 245.98 298.86 247.34 C 304.03 240.08 315.64 241.61 320.90 248.00 C 329.64 258.60 338.93 268.73 348.07 278.99 C 348.80 279.88 349.76 280.53 350.72 281.15 C 350.95 272.13 351.25 262.66 355.40 254.44 C 359.01 247.58 365.39 242.58 372.31 239.33 C 373.70 238.62 375.58 237.84 375.64 236.00 C 375.62 230.20 372.58 224.86 372.82 219.03 C 372.72 210.83 376.75 201.90 384.63 198.54 M 394.35 211.26 C 394.46 218.20 389.36 223.76 383.65 226.97 C 385.20 231.79 386.70 236.84 386.24 241.96 C 385.68 246.22 381.13 247.81 378.04 249.97 C 370.94 254.15 365.28 260.93 363.24 269.00 C 359.74 282.37 360.66 296.36 361.22 310.02 C 361.50 313.15 361.42 316.39 362.44 319.40 C 364.14 322.69 367.37 324.81 370.63 326.37 C 376.62 329.26 383.05 331.16 388.97 334.20 C 398.94 338.95 407.54 346.10 415.27 353.89 C 417.00 352.64 418.69 351.35 420.35 350.01 C 415.09 346.55 407.94 345.29 404.39 339.68 C 402.64 333.66 402.44 326.83 405.08 321.04 C 408.48 315.01 416.98 317.03 421.64 312.73 C 422.53 310.95 423.13 308.95 424.78 307.70 C 426.48 310.70 425.98 315.07 423.51 317.50 C 419.76 319.60 415.16 320.79 412.68 324.60 C 410.51 328.37 411.03 333.02 411.87 337.11 C 411.95 338.57 413.29 339.45 414.68 338.93 C 418.84 336.00 416.60 330.05 419.20 326.10 C 422.68 324.69 426.52 325.59 430.16 324.97 C 430.53 319.31 429.77 313.58 431.26 308.03 C 430.07 304.79 427.14 302.23 423.96 301.00 C 419.97 300.86 420.20 306.07 418.15 308.27 C 415.44 310.38 412.99 304.90 410.42 307.33 C 408.29 308.92 405.92 310.83 403.06 310.32 C 398.20 309.58 395.81 304.40 394.81 300.13 C 392.22 290.08 396.90 280.16 401.55 271.50 C 402.56 269.59 400.17 268.14 399.48 266.53 C 395.26 260.47 395.78 251.92 400.15 246.07 C 402.00 243.91 399.10 241.76 398.22 239.87 C 402.15 236.20 406.04 232.12 407.80 226.94 C 409.33 222.77 408.48 217.79 405.80 214.29 C 403.02 210.92 398.36 210.57 394.35 211.26 M 418.51 255.01 C 418.82 259.28 415.41 262.36 411.39 262.88 C 411.66 264.90 411.99 267.05 411.03 268.95 C 408.57 274.55 404.75 279.39 401.80 284.70 C 399.69 289.16 400.09 295.60 404.12 298.82 C 408.70 300.62 414.02 300.20 418.79 299.62 C 420.23 295.24 418.45 290.26 419.68 285.78 C 422.23 280.80 428.54 283.88 432.59 281.57 C 436.15 279.38 438.55 275.76 440.21 272.00 C 434.70 273.56 428.64 275.12 423.10 272.88 C 418.79 270.47 421.91 265.36 424.52 262.92 C 423.98 260.64 423.58 258.32 422.79 256.11 C 421.69 254.94 419.93 255.22 418.51 255.01 M 312.92 269.00 C 313.92 279.67 316.06 290.23 317.47 300.87 C 317.71 303.98 319.46 307.05 322.93 307.10 C 325.64 305.80 326.42 302.66 325.68 299.92 C 323.70 290.09 321.70 280.25 319.38 270.50 C 318.57 267.69 314.99 267.40 312.92 269.00 M 526.65 278.07 C 524.53 294.49 521.39 310.77 518.04 326.98 C 516.56 334.89 512.68 342.31 506.85 347.87 C 501.28 353.67 493.93 357.16 487.04 361.09 C 482.94 363.18 478.69 365.58 473.98 365.72 C 470.36 365.95 467.14 360.87 470.12 358.16 C 473.91 354.33 479.19 352.57 483.60 349.58 C 490.70 345.00 499.61 341.70 503.60 333.70 C 504.79 329.94 506.43 325.70 504.95 321.81 C 500.45 321.18 496.58 323.95 492.75 325.83 C 475.87 334.33 458.49 341.84 441.97 351.04 C 435.80 354.17 430.31 358.72 426.49 364.51 C 420.08 374.62 416.41 386.43 415.53 398.35 C 414.78 390.63 413.17 382.96 410.23 375.76 C 406.69 367.11 401.62 358.48 393.34 353.62 C 375.00 342.67 355.11 334.70 336.22 324.80 C 333.06 323.21 329.72 321.25 326.04 321.84 C 325.50 323.16 324.87 324.55 325.32 326.01 C 326.05 331.16 327.67 336.57 331.99 339.86 C 340.06 346.10 349.33 350.50 357.98 355.83 C 359.85 356.99 361.82 358.61 362.01 360.98 C 361.69 363.92 358.85 366.29 355.87 365.67 C 348.66 364.57 342.56 360.20 336.25 356.84 C 325.34 351.06 315.79 341.24 313.28 328.81 C 309.56 311.03 308.01 292.89 305.67 274.90 C 305.34 272.50 304.09 270.00 301.72 269.06 C 298.01 269.60 296.68 273.68 296.51 276.93 C 295.92 285.68 296.08 294.47 295.24 303.21 C 295.38 313.38 291.11 323.87 295.36 333.71 C 299.85 343.83 304.68 353.81 309.12 363.96 C 312.28 370.58 315.33 378.01 322.03 381.83 C 337.22 390.16 353.16 397.01 368.90 404.20 C 384.86 411.22 400.29 419.52 414.53 429.60 C 415.60 430.61 416.80 429.33 417.72 428.79 C 445.56 408.55 478.92 398.40 508.82 381.85 C 512.34 379.73 515.30 376.67 517.20 373.01 C 522.11 364.06 525.83 354.53 530.17 345.31 C 532.65 339.64 535.88 334.20 537.11 328.07 C 538.69 321.45 537.35 314.64 537.31 307.94 C 536.62 296.32 537.37 284.66 536.65 273.05 C 536.52 270.88 535.28 268.66 533.01 268.20 C 528.61 269.14 527.17 274.19 526.65 278.07 M 512.44 270.39 C 511.35 272.43 511.17 274.79 510.72 277.03 C 509.13 285.33 507.32 293.60 506.06 301.96 C 505.78 303.59 505.76 306.06 507.92 306.33 C 510.41 306.17 512.10 303.83 512.41 301.52 C 514.15 292.36 515.55 283.15 517.14 273.96 C 517.52 272.22 517.56 270.42 517.07 268.69 C 515.49 269.06 513.16 268.50 512.44 270.39 M 330.27 284.38 C 330.05 284.77 329.60 285.53 329.37 285.91 C 330.24 292.61 331.48 299.27 332.37 305.98 C 332.57 308.20 334.91 310.45 337.19 309.45 C 338.57 308.42 337.77 306.55 337.64 305.16 C 336.26 299.26 335.48 293.24 334.61 287.24 C 334.40 285.27 332.25 283.36 330.27 284.38 M 493.77 298.89 C 493.51 302.60 491.01 307.73 494.97 310.26 C 496.43 309.39 498.28 308.67 498.74 306.83 C 500.29 301.36 499.57 295.58 500.34 289.99 C 500.49 287.74 501.29 284.60 498.95 283.17 C 493.99 286.69 495.11 293.64 493.77 298.89 M 344.33 296.12 C 342.81 301.72 345.18 307.42 346.00 312.97 C 346.10 315.86 350.45 317.18 351.33 313.99 C 350.58 308.86 349.47 303.76 348.26 298.71 C 347.91 296.75 346.22 295.75 344.33 296.12 M 484.11 296.05 C 481.57 297.37 481.72 300.58 481.04 302.99 C 480.42 306.83 478.66 310.85 480.22 314.69 C 480.87 316.00 482.40 316.30 483.70 315.86 C 486.03 313.60 485.43 310.01 485.75 307.09 C 485.70 303.42 486.76 299.70 485.97 296.07 C 485.50 296.06 484.58 296.05 484.11 296.05 Z" />
<path fill="#ca9656" opacity="1.00" d=" M 680.84 218.15 C 682.37 217.09 684.09 219.80 682.93 221.01 C 681.98 220.25 681.29 219.25 680.84 218.15 Z" />
<path fill="#ca9656" opacity="1.00" d=" M 683.93 222.10 C 685.46 221.26 687.07 223.87 685.93 225.03 C 684.82 224.42 684.37 223.19 683.93 222.10 Z" />
<path fill="#ca9656" opacity="1.00" d=" M 687.24 225.99 L 688.05 226.16 C 688.02 226.60 687.97 227.48 687.94 227.92 C 687.76 227.44 687.41 226.48 687.24 225.99 Z" />
<path fill="#ca9656" opacity="1.00" d=" M 736.01 327.06 C 737.70 327.44 737.95 328.40 736.77 329.95 C 736.22 329.05 735.96 328.09 736.01 327.06 Z" />
<path fill="#ca9656" opacity="1.00" d=" M 86.27 349.98 C 85.03 348.48 85.25 347.50 86.94 347.05 C 86.99 348.09 86.77 349.06 86.27 349.98 Z" />
<path fill="#ca9656" opacity="1.00" d=" M 741.04 347.05 C 742.72 347.45 742.99 348.41 741.83 349.93 C 741.24 349.04 740.98 348.09 741.04 347.05 Z" />
<path fill="#ca9656" opacity="1.00" d=" M 742.10 351.07 C 743.98 350.80 743.97 354.09 742.77 354.94 C 742.29 353.70 742.03 352.39 742.10 351.07 Z" />
<path fill="#ca9656" opacity="1.00" d=" M 743.08 356.07 C 744.98 355.79 744.98 359.10 743.72 359.92 C 743.27 358.68 743.05 357.38 743.08 356.07 Z" />
<path fill="#ca9656" opacity="1.00" d=" M 83.25 365.94 C 82.00 365.09 82.01 361.77 83.92 362.06 C 83.94 363.38 83.67 364.68 83.25 365.94 Z" />
<path fill="#ca9656" opacity="1.00" d=" M 745.07 368.04 C 746.96 367.76 747.02 371.06 745.76 371.91 C 745.34 370.65 745.02 369.36 745.07 368.04 Z" />
<path fill="#ca9656" opacity="1.00" d=" M 746.13 374.08 C 748.34 374.27 747.87 378.33 746.82 379.76 C 746.35 377.90 746.06 376.00 746.13 374.08 Z" />
<path fill="#ca9656" opacity="1.00" d=" M 747.12 382.09 C 749.31 382.31 748.80 386.39 747.74 387.81 C 747.31 385.93 747.01 384.02 747.12 382.09 Z" />
<path fill="#ca9656" opacity="1.00" d=" M 80.23 388.77 C 79.08 387.38 78.66 383.22 80.90 383.06 C 80.91 384.98 80.59 386.88 80.23 388.77 Z" />
<path fill="#ca9656" opacity="1.00" d=" M 748.11 393.01 L 749.00 393.00 C 749.05 395.75 749.03 398.51 748.87 401.27 C 748.63 398.51 748.27 395.76 748.11 393.01 Z" />
<path fill="#ca9656" opacity="1.00" d=" M 749.11 412.01 L 750.00 411.99 C 750.00 418.66 750.00 425.33 750.00 432.00 L 749.12 432.00 C 749.32 425.34 749.34 418.67 749.11 412.01 Z" />
<path fill="#ca9656" opacity="1.00" d=" M 77.99 414.00 L 78.88 414.01 C 78.67 419.33 78.67 424.67 78.88 430.00 L 78.00 430.00 C 78.00 424.66 78.01 419.33 77.99 414.00 Z" />
<path fill="#ca9656" opacity="1.00" d=" M 748.10 450.00 C 748.25 447.23 748.66 444.50 748.89 441.74 C 749.03 444.49 749.04 447.24 749.00 450.00 L 748.10 450.00 Z" />
<path fill="#ca9656" opacity="1.00" d=" M 80.23 454.21 C 80.59 456.09 80.92 458.00 80.89 459.93 C 78.65 459.73 79.09 455.61 80.23 454.21 Z" />
<path fill="#ca9656" opacity="1.00" d=" M 747.09 460.92 C 746.96 458.98 747.32 457.08 747.75 455.20 C 748.79 456.62 749.28 460.72 747.09 460.92 Z" />
<path fill="#ca9656" opacity="1.00" d=" M 746.05 468.99 C 745.99 467.34 746.30 465.73 746.74 464.16 C 747.86 465.29 748.10 469.10 746.05 468.99 Z" />
<path fill="#ca9656" opacity="1.00" d=" M 82.28 471.06 C 82.66 472.31 82.92 473.61 82.90 474.94 C 80.99 475.19 80.96 471.86 82.28 471.06 Z" />
<path fill="#ca9656" opacity="1.00" d=" M 745.05 475.02 C 744.99 473.67 745.36 472.39 745.78 471.13 C 746.97 471.99 746.94 475.38 745.05 475.02 Z" />
<path fill="#ca9656" opacity="1.00" d=" M 83.24 477.06 C 83.64 478.31 83.93 479.60 83.91 480.93 C 82.00 481.22 81.97 477.88 83.24 477.06 Z" />
<path fill="#ca9656" opacity="1.00" d=" M 84.26 483.07 C 84.67 484.31 84.94 485.59 84.93 486.92 C 83.00 487.27 83.00 483.89 84.26 483.07 Z" />
<path fill="#ca9656" opacity="1.00" d=" M 743.06 487.01 C 743.05 485.65 743.31 484.33 743.75 483.07 C 744.96 483.93 744.96 487.28 743.06 487.01 Z" />
<path fill="#ca9656" opacity="1.00" d=" M 85.23 488.06 C 85.69 489.30 85.97 490.59 85.92 491.92 C 84.03 492.22 84.00 488.90 85.23 488.06 Z" />
<path fill="#ca9656" opacity="1.00" d=" M 742.08 492.01 C 741.98 490.95 742.19 489.95 742.70 489.02 C 743.92 490.52 743.71 491.52 742.08 492.01 Z" />
<path fill="#ca9656" opacity="1.00" d=" M 741.10 495.94 C 741.04 494.88 741.30 493.90 741.87 493.02 C 743.02 494.54 742.77 495.52 741.10 495.94 Z" />
<path fill="#ca9656" opacity="1.00" d=" M 86.24 493.91 C 86.42 494.42 86.76 495.44 86.94 495.94 L 86.05 495.72 L 85.70 494.67 L 86.24 493.91 Z" />
<path fill="#ca9656" opacity="1.00" d=" M 740.10 500.93 C 740.00 499.86 740.22 498.87 740.74 497.95 C 741.96 499.43 741.74 500.43 740.10 500.93 Z" />
<path fill="#ca9656" opacity="1.00" d=" M 739.09 504.94 C 739.01 503.88 739.25 502.90 739.80 502.00 C 740.99 503.48 740.76 504.46 739.09 504.94 Z" />
<path fill="#ca9656" opacity="1.00" d=" M 737.19 511.84 C 737.34 509.80 737.85 507.81 738.81 506.01 C 740.07 507.53 739.14 511.68 737.19 511.84 Z" />
<path fill="#ca9656" opacity="1.00" d=" M 91.22 513.04 C 91.76 513.92 92.03 514.88 92.01 515.93 C 90.31 515.55 90.04 514.58 91.22 513.04 Z" />
<path fill="#ca9656" opacity="1.00" d=" M 736.16 515.93 C 736.30 515.42 736.59 514.41 736.73 513.90 L 737.34 514.62 L 737.05 515.67 L 736.16 515.93 Z" />
<path fill="#ca9656" opacity="1.00" d=" M 734.99 519.00 C 735.17 518.47 735.54 517.41 735.72 516.87 C 737.62 516.97 736.44 520.51 734.99 519.00 Z" />
<path fill="#ca9656" opacity="1.00" d=" M 733.15 525.86 C 733.19 523.83 733.83 521.91 734.76 520.13 C 736.04 521.62 735.08 525.69 733.15 525.86 Z" />
<path fill="#ca9656" opacity="1.00" d=" M 732.08 528.95 C 732.26 528.44 732.60 527.44 732.77 526.94 L 733.32 527.69 L 732.97 528.72 L 732.08 528.95 Z" />
<path fill="#ca9656" opacity="1.00" d=" M 729.05 537.33 C 729.77 534.63 730.76 532.01 731.94 529.49 C 731.83 532.27 730.97 535.24 729.05 537.33 Z" />
<path fill="#ca9656" opacity="1.00" d=" M 99.07 537.57 C 100.17 540.12 101.23 542.69 101.99 545.37 C 100.02 543.32 99.22 540.34 99.07 537.57 Z" />
<path fill="#ca9656" opacity="1.00" d=" M 108.04 559.43 C 130.11 607.71 163.39 650.94 205.05 683.92 C 209.35 687.57 214.17 690.56 218.36 694.35 C 215.84 694.07 214.35 691.85 212.34 690.59 C 203.84 684.49 196.27 677.34 188.15 670.82 C 181.24 663.76 174.19 656.83 167.22 649.83 C 163.71 646.94 161.79 642.67 158.21 639.86 C 144.32 623.02 131.23 605.33 120.87 586.04 C 116.94 580.05 114.29 573.35 110.94 567.04 C 109.85 564.55 107.80 562.30 108.04 559.43 Z" />
<path fill="#ca9656" opacity="1.00" d=" M 658.85 650.92 C 668.69 640.44 677.62 629.17 686.35 617.76 C 686.13 618.94 685.61 619.97 684.80 620.85 C 680.71 625.76 677.41 631.32 672.91 635.88 C 670.65 639.57 666.96 642.05 664.78 645.81 C 656.32 654.33 647.78 662.77 639.34 671.30 C 637.68 672.90 635.65 674.03 633.69 675.22 C 642.44 667.51 650.73 659.29 658.85 650.92 Z" />
<path fill="#ca9656" opacity="1.00" d=" M 613.99 690.93 C 614.75 690.00 615.71 689.27 616.84 688.83 C 617.89 690.36 615.19 692.09 613.99 690.93 Z" />
<path fill="#ca9656" opacity="1.00" d=" M 609.99 693.93 C 610.69 692.92 611.76 692.30 612.90 691.90 C 613.79 693.43 611.15 695.09 609.99 693.93 Z" />
<path fill="#ca9656" opacity="1.00" d=" M 523.39 738.92 C 525.98 737.80 528.62 736.79 531.34 736.03 C 529.26 738.02 526.20 738.80 523.39 738.92 Z" />
<path fill="#ca9656" opacity="1.00" d=" M 517.80 740.71 C 519.30 739.69 521.05 739.24 522.83 739.06 C 523.03 741.02 519.18 741.76 517.80 740.71 Z" />
<path fill="#ca9656" opacity="1.00" d=" M 329.00 746.12 C 329.51 746.27 330.54 746.58 331.05 746.73 L 330.30 747.31 L 329.24 746.99 L 329.00 746.12 Z" />
<path fill="#ca9656" opacity="1.00" d=" M 497.00 746.81 C 497.51 746.63 498.52 746.27 499.02 746.10 L 498.81 746.98 L 497.77 747.34 L 497.00 746.81 Z" />
<path fill="#ca9656" opacity="1.00" d=" M 492.99 747.81 C 493.50 747.64 494.51 747.29 495.02 747.12 L 494.79 748.00 L 493.76 748.35 L 492.99 747.81 Z" />
<path fill="#ca9656" opacity="1.00" d=" M 337.05 748.05 C 338.09 747.99 339.05 748.25 339.93 748.82 C 338.40 749.99 337.44 749.73 337.05 748.05 Z" />
<path fill="#ca9656" opacity="1.00" d=" M 488.08 748.83 C 488.95 748.25 489.91 747.99 490.96 748.07 C 490.55 749.74 489.59 749.99 488.08 748.83 Z" />
<path fill="#ca9656" opacity="1.00" d=" M 483.99 749.67 C 484.92 749.16 485.91 748.98 486.97 749.12 C 486.41 750.75 485.41 750.93 483.99 749.67 Z" />
<path fill="#ca9656" opacity="1.00" d=" M 351.08 751.05 C 352.39 751.01 353.67 751.31 354.91 751.75 C 354.08 753.00 350.73 752.95 351.08 751.05 Z" />
<path fill="#ca9656" opacity="1.00" d=" M 473.09 751.75 C 474.33 751.32 475.61 751.03 476.94 751.06 C 477.27 752.97 473.92 752.99 473.09 751.75 Z" />
<path fill="#ca9656" opacity="1.00" d=" M 357.07 752.09 C 358.39 752.05 359.70 752.32 360.96 752.75 C 360.11 753.97 356.78 753.99 357.07 752.09 Z" />
<path fill="#ca9656" opacity="1.00" d=" M 370.05 754.09 C 371.99 754.07 373.91 754.37 375.81 754.80 C 374.35 755.84 370.25 756.34 370.05 754.09 Z" />
<path fill="#ca9656" opacity="1.00" d=" M 453.10 754.71 C 454.67 754.31 456.27 754.04 457.91 754.08 C 457.99 756.14 454.18 755.91 453.10 754.71 Z" />
<path fill="#ca9656" opacity="1.00" d=" M 379.09 755.13 C 381.32 754.99 383.52 755.38 385.71 755.80 C 383.99 756.77 379.62 757.45 379.09 755.13 Z" />
<path fill="#ca9656" opacity="1.00" d=" M 442.31 755.80 C 444.49 755.39 446.69 754.98 448.92 755.12 C 448.47 757.44 444.00 756.76 442.31 755.80 Z" />
</g>
<g id="#ba1b40ff">
<path fill="#ba1b40" opacity="1.00" d=" M 263.13 490.09 C 276.37 482.55 293.33 483.45 306.75 490.07 C 309.41 491.08 311.64 493.94 310.83 496.88 C 309.93 502.36 308.65 507.77 307.78 513.25 C 304.19 513.42 300.60 513.35 297.02 513.06 C 295.92 507.87 296.13 502.14 293.78 497.36 C 286.82 493.16 277.22 492.92 270.33 497.32 C 267.36 502.14 266.99 508.87 270.38 513.59 C 272.45 516.49 275.56 518.44 278.64 520.14 C 287.66 524.85 298.00 527.36 305.75 534.26 C 314.77 542.16 314.56 557.82 305.70 565.77 C 297.90 572.61 287.01 574.40 276.95 573.99 C 267.54 573.39 257.78 571.59 249.87 566.15 C 249.88 559.77 249.90 553.39 250.02 547.01 C 253.95 546.65 257.90 546.54 261.85 546.77 C 262.47 551.52 263.58 556.24 265.22 560.75 C 270.60 564.44 277.57 564.59 283.87 564.23 C 287.40 563.88 292.01 563.24 293.35 559.34 C 295.88 554.42 295.20 547.76 290.54 544.33 C 281.12 537.38 268.83 535.74 259.52 528.55 C 253.32 524.26 249.86 516.59 250.52 509.10 C 250.79 501.01 256.24 493.93 263.13 490.09 Z" />
<path fill="#ba1b40" opacity="1.00" d=" M 346.08 487.12 C 359.09 482.77 373.79 484.74 385.73 491.30 C 386.64 493.02 387.87 494.85 387.26 496.91 C 386.35 502.41 385.36 507.91 384.02 513.32 C 380.48 513.13 376.69 513.88 373.33 512.65 C 372.57 507.60 372.30 502.35 370.48 497.53 C 365.10 493.95 358.08 493.37 351.92 495.03 C 349.60 495.64 346.83 496.50 345.89 498.98 C 344.56 502.47 343.75 506.44 345.10 510.06 C 346.42 514.57 350.47 517.50 354.37 519.73 C 363.45 524.68 374.01 527.10 381.94 534.02 C 388.34 539.50 390.59 549.00 387.84 556.89 C 385.22 565.19 377.20 570.49 369.09 572.50 C 357.50 575.27 345.10 574.19 333.96 570.13 C 331.36 568.89 328.16 568.09 326.41 565.69 C 326.09 559.50 326.52 553.31 326.61 547.13 C 330.41 546.52 334.26 546.65 338.09 546.68 C 339.19 551.33 339.92 556.11 341.64 560.59 C 345.64 563.73 351.10 564.23 356.03 564.37 C 360.23 564.27 364.97 564.36 368.44 561.65 C 371.05 558.18 371.85 553.41 370.68 549.25 C 369.16 545.41 365.52 542.95 361.99 541.12 C 352.65 536.44 341.99 533.96 334.00 526.90 C 326.66 520.53 324.76 509.03 329.34 500.53 C 332.68 493.89 339.24 489.54 346.08 487.12 Z" />
<path fill="#ba1b40" opacity="1.00" d=" M 430.18 485.24 C 440.69 483.95 451.69 485.61 461.01 490.77 C 462.58 491.60 463.50 493.29 464.01 494.94 C 463.31 501.11 461.66 507.14 460.71 513.28 C 457.14 513.40 453.57 513.35 450.01 513.07 C 449.06 507.99 448.80 502.74 447.16 497.83 C 442.09 493.96 435.04 493.45 429.00 494.90 C 426.45 495.53 423.17 496.26 422.33 499.13 C 419.73 504.80 420.69 512.20 425.74 516.22 C 435.94 524.52 450.38 525.75 459.77 535.29 C 465.52 541.14 466.70 550.34 464.00 557.89 C 461.45 564.60 455.26 569.28 448.63 571.56 C 438.44 574.99 427.35 574.53 416.99 572.17 C 412.00 570.98 407.18 569.08 402.89 566.26 C 402.90 559.84 402.83 553.42 403.03 547.01 C 406.93 546.65 410.86 546.56 414.78 546.75 C 415.41 551.56 416.73 556.25 418.12 560.90 C 424.06 564.43 431.28 564.79 438.00 564.09 C 440.69 563.60 444.08 563.27 445.62 560.65 C 447.58 557.19 448.47 552.81 447.03 548.99 C 445.59 545.30 442.09 543.05 438.75 541.26 C 429.26 536.43 418.35 533.99 410.25 526.73 C 402.60 519.86 401.22 507.42 406.77 498.85 C 411.79 490.84 421.13 486.67 430.18 485.24 Z" />
<path fill="#ba1b40" opacity="1.00" d=" M 476.81 486.86 C 501.78 486.74 526.79 487.56 551.73 485.91 C 552.72 487.55 554.25 489.01 554.66 490.94 C 554.41 497.86 553.27 504.71 552.93 511.63 C 549.33 511.93 545.64 512.18 542.13 511.18 C 541.51 506.07 540.17 501.08 539.05 496.06 C 534.01 495.98 528.51 494.45 523.73 495.81 C 523.81 516.56 523.12 537.35 524.25 558.08 C 524.56 563.50 531.12 564.12 535.18 565.39 C 534.91 567.62 534.49 569.83 533.89 572.00 C 521.34 571.94 508.79 572.12 496.24 571.91 C 495.98 569.83 495.62 567.76 494.92 565.79 C 498.45 564.16 502.35 563.61 505.93 562.10 C 507.39 539.87 506.84 517.59 506.84 495.33 C 501.67 495.20 496.51 495.65 491.37 496.17 C 490.36 501.48 489.10 506.74 487.90 512.01 C 484.32 511.94 480.63 512.39 477.13 511.48 C 476.36 510.37 476.68 508.84 476.47 507.57 C 476.26 500.67 476.14 493.74 476.81 486.86 Z" />
<path fill="#ba1b40" opacity="1.00" d=" M 569.00 486.89 C 589.67 486.75 610.38 487.42 631.02 485.87 C 632.05 487.49 633.77 488.88 634.09 490.85 C 633.19 497.62 631.61 504.30 630.77 511.08 C 627.33 510.93 623.72 511.58 620.40 510.62 C 619.32 505.87 618.67 501.03 617.62 496.27 C 609.14 495.57 600.54 494.64 592.08 496.05 C 589.65 496.34 590.38 499.30 590.16 500.98 C 590.18 509.21 589.46 517.42 589.71 525.65 C 598.18 525.48 606.63 524.76 615.11 524.66 C 616.88 524.19 617.67 525.95 618.66 527.01 C 618.13 529.78 617.66 532.57 617.03 535.33 C 607.91 535.17 598.79 535.12 589.69 534.62 C 589.66 539.05 589.53 543.49 589.90 547.92 C 590.22 552.50 589.52 557.29 591.37 561.64 C 596.64 563.68 602.46 563.29 608.02 563.31 C 611.90 562.90 615.94 563.33 619.71 562.11 C 620.62 557.25 621.85 552.45 623.11 547.66 C 626.77 547.64 630.45 547.60 634.10 547.93 C 634.31 555.95 634.29 563.97 634.10 571.99 C 610.17 571.93 586.23 572.16 562.30 571.88 C 561.90 569.65 561.53 567.43 561.36 565.19 C 564.98 564.53 568.47 563.32 571.96 562.18 C 573.11 548.15 572.89 534.07 572.89 520.02 C 572.84 512.79 572.99 505.47 571.69 498.34 C 569.30 494.95 564.66 494.66 561.11 493.11 C 561.54 491.15 561.87 489.16 562.41 487.24 C 564.48 486.48 566.82 487.02 569.00 486.89 Z" />
<path fill="#ba1b40" opacity="1.00" d=" M 197.97 486.89 C 210.54 487.00 223.12 486.66 235.69 487.07 C 235.99 489.12 236.35 491.18 236.79 493.22 C 233.28 494.38 229.74 495.49 226.15 496.39 C 224.64 509.52 225.24 522.76 225.11 535.95 C 225.22 544.16 224.67 552.50 226.34 560.60 C 228.71 563.91 233.32 564.14 236.85 565.60 C 236.34 567.65 235.95 569.74 235.64 571.84 C 223.09 572.20 210.53 571.90 197.97 572.00 C 197.34 569.82 196.94 567.58 196.70 565.34 C 200.29 564.50 203.77 563.30 207.31 562.28 C 208.48 554.26 207.58 546.11 208.29 538.06 C 208.36 532.06 208.41 526.06 208.26 520.07 C 207.60 513.45 208.50 506.77 207.51 500.18 C 206.89 494.94 200.39 494.92 196.56 493.19 C 196.98 491.07 197.45 488.98 197.97 486.89 Z" />
</g>
</svg>
