<?xml version="1.0" encoding="UTF-8" ?>
<!DOCTYPE svg PUBLIC "-//W3C//DTD SVG 1.1//EN" "http://www.w3.org/Graphics/SVG/1.1/DTD/svg11.dtd">
<svg width="824pt" height="1067pt" viewBox="0 0 824 1067" version="1.1" xmlns="http://www.w3.org/2000/svg">
<g id="#ff9b4dff">
<path fill="#ff9b4d" opacity="1.00" d=" M 400.65 0.00 L 423.21 0.00 C 475.43 1.61 527.39 12.86 575.31 33.76 C 643.14 63.11 702.66 111.19 745.87 171.12 C 792.15 234.94 819.40 312.34 823.07 391.10 C 826.71 465.49 810.29 539.72 782.65 608.49 C 757.48 671.35 723.24 730.26 684.32 785.55 C 631.45 860.29 570.09 928.81 503.74 991.79 C 479.18 1014.98 453.96 1037.48 427.71 1058.73 C 424.71 1061.07 421.88 1063.73 418.46 1065.46 C 412.76 1068.08 405.67 1066.91 401.01 1062.74 C 364.88 1033.91 330.73 1002.66 297.70 970.33 C 244.57 917.80 194.87 861.68 150.72 801.36 C 104.69 738.25 64.45 670.35 36.60 597.17 C 14.25 538.52 0.49 476.21 0.00 413.29 L 0.00 410.03 C 0.40 381.12 3.25 352.20 9.51 323.95 C 19.06 280.02 35.92 237.69 59.22 199.25 C 107.66 118.71 184.40 55.61 272.96 24.03 C 313.88 9.24 357.19 1.37 400.65 0.00 M 367.04 89.45 C 365.73 88.05 364.77 88.19 364.18 89.87 C 363.58 89.95 362.37 90.11 361.77 90.19 C 361.09 88.67 357.76 88.91 358.21 90.85 C 357.39 90.97 355.76 91.19 354.94 91.30 C 353.57 89.98 352.63 90.17 352.12 91.89 C 351.36 92.00 349.84 92.22 349.08 92.33 L 348.41 91.70 L 347.35 91.94 L 347.02 92.79 L 345.73 93.09 C 344.98 91.58 341.68 92.00 342.22 93.93 C 336.11 94.98 330.11 96.62 324.15 98.26 L 323.42 97.68 L 322.38 97.99 L 322.12 98.88 C 310.10 102.28 298.26 106.38 286.69 111.07 C 285.87 111.23 284.25 111.55 283.43 111.71 C 273.92 115.45 265.01 120.51 255.80 124.90 C 245.19 130.23 235.23 136.73 225.30 143.22 C 223.85 144.09 222.68 145.33 221.60 146.63 C 221.45 146.75 221.16 146.99 221.01 147.11 C 219.83 145.72 217.11 147.57 218.24 149.12 C 218.02 149.26 217.58 149.54 217.36 149.67 C 216.00 150.24 214.62 150.80 213.43 151.69 C 206.42 156.91 199.67 162.47 193.05 168.17 C 183.92 175.62 176.04 184.43 167.62 192.64 C 161.05 200.15 154.26 207.49 148.36 215.56 C 145.36 219.71 141.38 223.31 139.69 228.28 C 139.62 228.37 139.48 228.57 139.42 228.67 C 138.30 229.44 137.23 230.31 136.48 231.45 C 132.94 236.65 129.73 242.07 126.28 247.33 C 125.08 249.12 124.36 251.15 123.73 253.20 C 123.66 253.32 123.52 253.55 123.45 253.67 C 121.54 255.16 120.51 257.38 119.37 259.45 C 110.67 274.84 103.49 291.07 97.74 307.79 C 96.65 310.98 94.94 314.05 95.02 317.53 C 93.22 323.34 91.23 329.11 89.90 335.06 L 89.00 335.30 L 88.65 336.33 L 89.21 337.06 C 89.11 337.55 88.91 338.52 88.82 339.01 L 87.94 339.29 L 87.65 340.34 L 88.24 341.04 C 88.13 341.54 87.92 342.53 87.81 343.02 L 86.94 343.30 L 86.64 344.34 L 87.23 345.05 C 87.14 345.57 86.97 346.60 86.88 347.11 C 85.16 347.59 84.96 348.53 86.29 349.92 C 85.63 352.27 85.19 354.68 84.94 357.11 C 83.18 357.49 82.92 358.41 84.15 359.85 C 84.08 360.44 83.94 361.60 83.87 362.18 C 81.93 361.79 81.72 365.09 83.24 365.77 C 83.14 366.37 82.95 367.56 82.86 368.16 C 81.17 368.74 81.02 369.69 82.42 371.01 C 80.26 385.23 78.98 399.61 78.86 414.01 L 77.97 413.97 C 77.92 419.33 77.93 424.68 77.97 430.03 L 78.86 429.99 C 78.98 441.70 79.93 453.40 81.42 465.02 C 80.03 466.32 80.18 467.27 81.88 467.86 C 81.97 468.70 82.16 470.40 82.26 471.25 C 80.72 471.89 80.92 475.24 82.88 474.83 C 82.97 475.42 83.15 476.61 83.24 477.21 C 81.71 477.88 81.96 481.19 83.91 480.79 C 84.17 483.29 84.57 485.80 85.25 488.23 C 83.73 488.90 83.96 492.22 85.91 491.80 L 86.12 493.13 C 84.92 494.58 85.20 495.49 86.96 495.87 C 87.79 500.60 88.90 505.31 90.31 509.91 L 89.67 510.59 L 89.90 511.65 L 90.75 511.98 L 91.18 513.12 C 89.91 514.50 90.14 515.43 91.87 515.91 L 92.25 516.90 L 91.63 517.58 L 91.88 518.64 L 92.74 518.96 L 93.08 520.04 L 92.59 520.81 L 93.02 521.81 L 93.93 521.98 C 97.65 534.77 102.65 547.18 108.04 559.36 C 108.17 560.69 108.48 561.98 108.95 563.24 C 116.82 579.82 125.78 595.90 136.17 611.04 C 136.90 611.88 137.71 612.65 138.60 613.35 C 138.62 613.39 138.67 613.46 138.70 613.49 C 139.61 616.70 141.63 619.48 144.41 621.33 C 144.48 621.43 144.62 621.62 144.69 621.71 C 145.97 625.19 148.24 628.29 151.33 630.39 C 151.40 630.48 151.55 630.67 151.62 630.76 C 154.76 637.40 160.85 641.97 165.17 647.80 C 174.66 657.29 183.77 667.23 194.05 675.89 C 195.54 677.37 197.24 678.64 199.24 679.36 C 199.34 679.45 199.55 679.62 199.65 679.70 C 200.97 681.91 202.71 683.97 205.43 684.35 C 214.48 691.50 223.84 698.26 233.55 704.47 C 234.03 704.96 234.98 705.94 235.46 706.43 C 259.85 722.15 286.65 733.93 314.27 742.72 C 316.32 743.38 318.46 743.69 320.61 743.89 C 323.40 744.70 326.19 745.52 329.05 746.09 L 329.29 746.99 L 330.32 747.34 L 331.05 746.78 C 331.54 746.88 332.54 747.09 333.03 747.19 L 333.31 748.06 L 334.35 748.37 L 335.06 747.78 C 335.57 747.86 336.60 748.02 337.11 748.10 C 337.50 749.83 338.42 750.09 339.87 748.88 L 341.20 749.11 C 340.74 751.05 344.07 751.33 344.76 749.82 L 346.18 750.09 C 345.73 752.03 349.05 752.37 349.76 750.84 L 351.20 751.08 C 350.76 753.03 354.11 753.26 354.79 751.74 C 355.39 751.84 356.60 752.02 357.20 752.11 C 356.76 754.06 360.10 754.27 360.78 752.77 C 361.38 752.86 362.56 753.04 363.16 753.13 C 363.78 754.81 364.73 754.94 366.01 753.54 C 370.39 754.33 374.84 754.74 379.27 755.14 C 379.73 757.53 384.04 757.17 385.58 755.74 C 404.48 757.37 423.50 757.37 442.40 755.74 C 443.95 757.15 448.25 757.53 448.74 755.14 C 453.17 754.76 457.60 754.32 461.99 753.55 C 463.28 754.94 464.23 754.80 464.84 753.13 C 465.43 753.04 466.61 752.87 467.20 752.79 C 467.87 754.31 471.19 754.07 470.80 752.13 C 471.41 752.04 472.63 751.85 473.25 751.75 C 473.89 753.28 477.22 753.05 476.83 751.12 C 477.40 751.03 478.55 750.86 479.13 750.78 C 480.51 752.05 481.44 751.83 481.92 750.11 L 483.26 749.83 C 483.95 751.34 487.28 751.03 486.82 749.10 L 488.14 748.88 C 489.57 750.09 490.49 749.83 490.90 748.10 C 491.42 748.02 492.44 747.86 492.96 747.78 L 493.67 748.36 L 494.71 748.06 L 494.99 747.18 C 495.48 747.08 496.47 746.87 496.96 746.76 L 497.67 747.35 L 498.71 747.06 L 499.00 746.18 C 499.49 746.08 500.46 745.89 500.95 745.79 L 501.68 746.34 L 502.71 745.98 L 502.95 745.08 C 509.80 743.32 516.54 741.13 523.26 738.91 C 524.56 738.81 525.85 738.59 527.12 738.25 C 535.77 735.07 544.37 731.74 552.73 727.83 C 568.82 721.05 583.82 712.00 598.56 702.71 C 601.33 700.90 604.58 699.49 606.35 696.54 C 606.42 696.49 606.57 696.39 606.64 696.34 C 609.28 695.44 612.04 694.25 613.29 691.55 C 613.47 691.39 613.83 691.08 614.00 690.93 C 615.22 692.30 617.87 690.33 616.71 688.81 C 620.47 686.23 623.98 683.30 627.52 680.42 C 631.33 679.47 633.39 675.88 636.39 673.68 C 640.92 670.17 644.77 665.92 648.85 661.92 C 655.73 654.87 663.06 648.23 669.22 640.51 C 674.40 634.11 680.41 628.17 684.15 620.75 C 684.29 620.53 684.58 620.09 684.73 619.87 L 685.64 619.82 L 686.19 618.87 L 685.79 618.03 C 686.18 617.75 686.96 617.19 687.35 616.91 C 688.89 617.20 690.20 614.73 689.05 613.63 C 689.24 613.37 689.61 612.84 689.80 612.58 C 692.02 613.65 694.13 610.05 692.84 608.25 C 693.11 607.89 693.65 607.16 693.92 606.80 L 694.86 606.75 L 695.42 605.82 L 695.02 604.99 C 695.11 604.88 695.31 604.66 695.41 604.55 C 698.48 602.10 699.92 598.36 702.00 595.14 C 708.76 584.23 714.49 572.73 720.00 561.16 C 721.46 557.58 723.62 554.18 723.93 550.24 L 724.11 549.72 C 726.13 550.60 727.23 546.98 725.61 545.95 C 726.89 543.19 727.91 540.33 728.94 537.49 C 731.04 535.30 731.85 532.33 731.95 529.36 L 732.12 528.82 L 733.01 528.57 L 733.35 527.53 L 732.77 526.81 L 733.10 525.66 C 735.49 525.96 736.26 521.71 734.67 520.29 C 736.66 513.85 738.60 507.37 740.03 500.78 C 741.77 500.35 742.03 499.42 740.79 498.00 C 740.88 497.46 741.07 496.38 741.16 495.84 C 742.89 495.39 743.13 494.46 741.90 493.05 L 742.09 491.83 C 744.01 492.17 744.31 488.90 742.83 488.17 L 743.07 486.82 C 745.01 487.22 745.27 483.90 743.78 483.19 C 743.87 482.64 744.04 481.55 744.12 481.00 L 744.99 480.71 L 745.27 479.66 L 744.66 478.96 C 744.73 478.37 744.86 477.19 744.93 476.60 C 747.19 476.58 747.15 472.54 745.71 471.31 C 745.80 470.68 745.96 469.42 746.04 468.79 C 748.20 469.02 748.14 465.24 746.71 464.27 C 746.80 463.39 747.00 461.63 747.10 460.75 C 749.37 460.64 749.15 456.57 747.68 455.36 C 747.89 453.57 748.00 451.78 748.15 449.99 L 749.08 450.05 C 749.07 447.28 749.01 444.52 748.83 441.78 C 748.97 438.32 749.03 434.86 749.26 431.41 L 749.70 432.67 C 750.25 425.56 750.29 418.37 749.69 411.27 L 749.25 412.58 C 748.98 408.81 749.00 405.03 748.83 401.25 C 749.02 398.46 749.07 395.67 749.08 392.88 L 748.15 393.03 C 748.01 391.24 747.89 389.45 747.68 387.68 C 749.17 386.46 749.38 382.44 747.11 382.28 C 746.78 378.77 746.44 375.25 745.72 371.79 C 747.24 371.14 747.08 367.79 745.13 368.20 C 745.05 367.59 744.88 366.37 744.80 365.76 C 746.33 365.08 746.08 361.74 744.13 362.20 C 744.03 361.59 743.84 360.38 743.74 359.77 C 745.27 359.09 745.02 355.73 743.06 356.21 L 742.78 354.83 C 744.28 354.13 744.03 350.83 742.10 351.22 L 741.88 349.87 C 743.09 348.43 742.83 347.51 741.11 347.10 C 741.01 346.56 740.82 345.48 740.72 344.94 C 742.02 343.57 741.82 342.63 740.13 342.12 L 739.77 340.93 C 741.04 339.54 740.82 338.61 739.11 338.13 L 738.78 336.96 C 740.05 335.58 739.84 334.65 738.13 334.16 L 737.82 333.11 L 738.36 332.37 L 737.99 331.35 L 737.10 331.12 C 734.10 319.76 730.18 308.66 725.95 297.71 C 725.62 293.82 723.69 290.40 722.12 286.93 C 717.19 275.47 711.60 264.29 705.34 253.51 C 703.93 251.05 702.78 248.31 700.39 246.62 C 697.22 241.76 694.29 236.73 690.85 232.06 C 692.28 230.92 690.51 228.12 688.91 229.21 C 688.70 228.90 688.27 228.28 688.05 227.97 L 688.48 227.16 L 687.96 226.21 L 687.04 226.13 C 686.76 225.84 686.22 225.27 685.94 224.98 C 687.31 223.79 685.40 221.15 683.88 222.26 C 683.64 221.94 683.15 221.32 682.91 221.00 C 684.32 219.80 682.39 217.10 680.85 218.26 C 680.59 217.92 680.08 217.25 679.82 216.92 C 681.29 215.31 678.84 212.06 676.97 213.32 C 676.80 213.10 676.47 212.65 676.30 212.43 C 675.99 209.69 673.91 207.97 671.71 206.65 C 671.64 206.56 671.49 206.39 671.42 206.30 C 671.11 205.67 670.51 204.42 670.21 203.79 C 665.38 198.01 660.42 192.32 654.92 187.16 C 645.16 177.04 634.87 167.44 623.77 158.81 C 619.54 155.63 615.71 151.73 610.75 149.69 C 610.65 149.62 610.46 149.48 610.37 149.41 C 609.71 148.46 608.95 147.61 608.09 146.86 C 597.08 139.43 586.02 132.01 574.20 125.92 C 571.00 124.31 567.90 122.44 564.42 121.53 C 546.86 112.85 528.62 105.52 509.82 100.02 C 509.44 98.24 508.52 97.97 507.07 99.23 C 503.06 97.91 498.96 96.82 494.82 95.99 C 494.46 94.23 493.55 93.94 492.08 95.14 L 490.79 94.89 C 491.21 92.95 487.89 92.67 487.23 94.20 C 483.46 93.23 479.63 92.47 475.78 91.91 C 476.29 89.94 472.92 89.66 472.24 91.19 C 471.64 91.11 470.42 90.94 469.81 90.86 C 470.29 88.88 466.90 88.72 466.26 90.25 C 463.13 89.60 459.95 89.16 456.77 88.94 C 457.06 86.96 453.72 86.92 453.12 88.48 C 424.54 85.08 395.53 85.49 367.04 89.45 M 75.45 411.14 C 75.77 408.39 75.80 405.62 75.52 402.87 C 75.21 405.62 75.20 408.39 75.45 411.14 M 75.48 444.91 C 75.20 447.66 75.20 450.44 75.53 453.19 C 75.77 450.43 75.77 447.66 75.48 444.91 M 438.57 763.36 C 439.09 764.79 442.87 764.73 443.41 763.33 C 442.02 762.46 439.93 762.44 438.57 763.36 M 393.89 764.45 C 400.24 765.08 406.63 764.69 413.00 764.75 C 418.71 764.67 424.43 765.06 430.13 764.45 C 418.06 764.04 405.96 764.07 393.89 764.45 Z" />
</g>
<g id="#ffffffff">
<path fill="#ffffff" opacity="1.00" d=" M 367.04 89.45 C 395.53 85.49 424.54 85.08 453.12 88.48 C 454.31 88.76 455.53 88.96 456.77 88.94 C 459.95 89.16 463.13 89.60 466.26 90.25 C 467.41 90.58 468.59 90.85 469.81 90.86 C 470.42 90.94 471.64 91.11 472.24 91.19 C 473.39 91.55 474.56 91.85 475.78 91.91 C 479.63 92.47 483.46 93.23 487.23 94.20 C 488.37 94.59 489.56 94.85 490.79 94.89 L 492.08 95.14 C 492.89 95.72 493.81 96.01 494.82 95.99 C 498.96 96.82 503.06 97.91 507.07 99.23 C 507.90 99.76 508.81 100.02 509.82 100.02 C 528.62 105.52 546.86 112.85 564.42 121.53 C 580.37 129.73 595.66 139.15 610.37 149.41 C 610.46 149.48 610.65 149.62 610.75 149.69 C 633.06 166.16 653.49 185.13 671.42 206.30 C 671.49 206.39 671.64 206.56 671.71 206.65 C 673.23 208.58 674.77 210.50 676.30 212.43 C 676.47 212.65 676.80 213.10 676.97 213.32 C 677.82 214.59 678.79 215.78 679.82 216.92 C 680.08 217.25 680.59 217.92 680.85 218.26 C 681.38 219.27 682.07 220.20 682.91 221.00 C 683.15 221.32 683.64 221.94 683.88 222.26 C 684.38 223.28 685.04 224.24 685.94 224.98 C 686.22 225.27 686.76 225.84 687.04 226.13 C 687.29 226.59 687.80 227.51 688.05 227.97 C 688.27 228.28 688.70 228.90 688.91 229.21 C 689.40 230.25 690.05 231.21 690.85 232.06 C 694.29 236.73 697.22 241.76 700.39 246.62 C 710.18 262.98 718.75 280.05 725.95 297.71 C 730.18 308.66 734.10 319.76 737.10 331.12 C 737.28 331.62 737.64 332.61 737.82 333.11 L 738.13 334.16 C 738.01 335.16 738.23 336.10 738.78 336.96 L 739.11 338.13 C 738.99 339.14 739.22 340.07 739.77 340.93 L 740.13 342.12 C 739.99 343.12 740.19 344.06 740.72 344.94 C 740.82 345.48 741.01 346.56 741.11 347.10 C 741.02 348.11 741.28 349.03 741.88 349.87 L 742.10 351.22 C 742.12 352.45 742.39 353.65 742.78 354.83 L 743.06 356.21 C 743.11 357.42 743.38 358.61 743.74 359.77 C 743.84 360.38 744.03 361.59 744.13 362.20 C 744.15 363.41 744.44 364.59 744.80 365.76 C 744.88 366.37 745.05 367.59 745.13 368.20 C 745.12 369.42 745.37 370.62 745.72 371.79 C 746.44 375.25 746.78 378.77 747.11 382.28 C 747.17 384.08 747.40 385.88 747.68 387.68 C 747.89 389.45 748.01 391.24 748.15 393.03 C 748.35 395.77 748.63 398.50 748.83 401.25 C 749.00 405.03 748.98 408.81 749.25 412.58 C 749.26 418.86 749.25 425.14 749.26 431.41 C 749.03 434.86 748.97 438.32 748.83 441.78 C 748.64 444.51 748.34 447.24 748.15 449.99 C 748.00 451.78 747.89 453.57 747.68 455.36 C 747.39 457.14 747.15 458.94 747.10 460.75 C 747.00 461.63 746.80 463.39 746.71 464.27 C 746.38 465.76 746.11 467.26 746.04 468.79 C 745.96 469.42 745.80 470.68 745.71 471.31 C 745.34 473.05 745.01 474.81 744.93 476.60 C 744.86 477.19 744.73 478.37 744.66 478.96 C 744.53 479.47 744.26 480.49 744.12 481.00 C 744.04 481.55 743.87 482.64 743.78 483.19 C 743.40 484.36 743.12 485.57 743.07 486.82 L 742.83 488.17 C 742.43 489.35 742.13 490.57 742.09 491.83 L 741.90 493.05 C 741.33 493.89 741.08 494.82 741.16 495.84 C 741.07 496.38 740.88 497.46 740.79 498.00 C 740.23 498.84 739.97 499.76 740.03 500.78 C 738.60 507.37 736.66 513.85 734.67 520.29 C 734.03 522.04 733.52 523.84 733.10 525.66 L 732.77 526.81 C 732.61 527.31 732.29 528.31 732.12 528.82 L 731.95 529.36 C 730.90 532.05 729.85 534.74 728.94 537.49 C 727.91 540.33 726.89 543.19 725.61 545.95 C 724.98 547.14 724.48 548.41 724.11 549.72 L 723.93 550.24 C 716.06 569.15 706.25 587.19 695.41 604.55 C 695.31 604.66 695.11 604.88 695.02 604.99 C 694.74 605.44 694.19 606.35 693.92 606.80 C 693.65 607.16 693.11 607.89 692.84 608.25 C 691.72 609.61 690.71 611.07 689.80 612.58 C 689.61 612.84 689.24 613.37 689.05 613.63 C 688.26 614.58 687.25 615.56 687.35 616.91 C 686.96 617.19 686.18 617.75 685.79 618.03 C 685.52 618.49 684.99 619.41 684.73 619.87 C 684.58 620.09 684.29 620.53 684.15 620.75 C 667.55 642.66 648.65 662.82 627.52 680.42 C 623.98 683.30 620.47 686.23 616.71 688.81 C 615.68 689.35 614.78 690.07 614.00 690.93 C 613.83 691.08 613.47 691.39 613.29 691.55 C 611.07 693.14 608.83 694.70 606.64 696.34 C 606.57 696.39 606.42 696.49 606.35 696.54 C 580.70 714.29 552.70 728.58 523.26 738.91 C 516.54 741.13 509.80 743.32 502.95 745.08 C 502.45 745.26 501.45 745.61 500.95 745.79 C 500.46 745.89 499.49 746.08 499.00 746.18 C 498.49 746.33 497.47 746.62 496.96 746.76 C 496.47 746.87 495.48 747.08 494.99 747.18 C 494.48 747.33 493.46 747.63 492.96 747.78 C 492.44 747.86 491.42 748.02 490.90 748.10 C 489.88 748.02 488.96 748.28 488.14 748.88 L 486.82 749.10 C 485.59 749.14 484.41 749.43 483.26 749.83 L 481.92 750.11 C 480.90 750.00 479.97 750.23 479.13 750.78 C 478.55 750.86 477.40 751.03 476.83 751.12 C 475.59 751.11 474.40 751.39 473.25 751.75 C 472.63 751.85 471.41 752.04 470.80 752.13 C 469.56 752.14 468.36 752.42 467.20 752.79 C 466.61 752.87 465.43 753.04 464.84 753.13 C 463.84 752.95 462.89 753.09 461.99 753.55 C 457.60 754.32 453.17 754.76 448.74 755.14 C 446.61 755.22 444.50 755.46 442.40 755.74 C 423.50 757.37 404.48 757.37 385.58 755.74 C 383.48 755.46 381.38 755.22 379.27 755.14 C 374.84 754.74 370.39 754.33 366.01 753.54 C 365.10 753.09 364.15 752.96 363.16 753.13 C 362.56 753.04 361.38 752.86 360.78 752.77 C 359.61 752.39 358.42 752.12 357.20 752.11 C 356.60 752.02 355.39 751.84 354.79 751.74 C 353.62 751.38 352.42 751.11 351.20 751.08 L 349.76 750.84 C 348.59 750.46 347.40 750.16 346.18 750.09 L 344.76 749.82 C 343.60 749.43 342.41 749.14 341.20 749.11 L 339.87 748.88 C 339.03 748.28 338.11 748.02 337.11 748.10 C 336.60 748.02 335.57 747.86 335.06 747.78 C 334.55 747.63 333.54 747.34 333.03 747.19 C 332.54 747.09 331.54 746.88 331.05 746.78 C 330.55 746.61 329.55 746.27 329.05 746.09 C 326.19 745.52 323.40 744.70 320.61 743.89 C 289.91 734.93 260.61 721.48 233.55 704.47 C 223.84 698.26 214.48 691.50 205.43 684.35 C 203.54 682.75 201.60 681.22 199.65 679.70 C 199.55 679.62 199.34 679.45 199.24 679.36 C 181.90 664.68 165.98 648.37 151.62 630.76 C 151.55 630.67 151.40 630.48 151.33 630.39 C 149.22 627.41 146.99 624.53 144.69 621.71 C 144.62 621.62 144.48 621.43 144.41 621.33 C 142.59 618.66 140.69 616.03 138.70 613.49 C 138.67 613.46 138.62 613.39 138.60 613.35 C 127.06 596.16 116.61 578.23 108.04 559.36 C 102.65 547.18 97.65 534.77 93.93 521.98 C 93.72 521.50 93.29 520.53 93.08 520.04 L 92.74 518.96 C 92.62 518.44 92.37 517.41 92.25 516.90 L 91.87 515.91 C 91.97 514.89 91.74 513.96 91.18 513.12 L 90.75 511.98 C 90.64 511.46 90.42 510.42 90.31 509.91 C 88.90 505.31 87.79 500.60 86.96 495.87 C 86.99 494.86 86.71 493.94 86.12 493.13 L 85.91 491.80 C 85.89 490.57 85.64 489.37 85.25 488.23 C 84.57 485.80 84.17 483.29 83.91 480.79 C 83.89 479.56 83.60 478.37 83.24 477.21 C 83.15 476.61 82.97 475.42 82.88 474.83 C 82.87 473.60 82.60 472.40 82.26 471.25 C 82.16 470.40 81.97 468.70 81.88 467.86 C 82.02 466.86 81.87 465.91 81.42 465.02 C 79.93 453.40 78.98 441.70 78.86 429.99 C 78.66 424.66 78.66 419.33 78.86 414.01 C 78.98 399.61 80.26 385.23 82.42 371.01 C 82.86 370.10 83.01 369.15 82.86 368.16 C 82.95 367.56 83.14 366.37 83.24 365.77 C 83.60 364.60 83.88 363.40 83.87 362.18 C 83.94 361.60 84.08 360.44 84.15 359.85 C 84.73 359.02 84.99 358.11 84.94 357.11 C 85.19 354.68 85.63 352.27 86.29 349.92 C 86.78 349.04 86.98 348.10 86.88 347.11 C 86.97 346.60 87.14 345.57 87.23 345.05 C 87.37 344.54 87.67 343.53 87.81 343.02 C 87.92 342.53 88.13 341.54 88.24 341.04 C 88.38 340.53 88.67 339.52 88.82 339.01 C 88.91 338.52 89.11 337.55 89.21 337.06 C 89.38 336.56 89.73 335.56 89.90 335.06 C 91.23 329.11 93.22 323.34 95.02 317.53 C 102.29 295.33 111.96 273.99 123.45 253.67 C 123.52 253.55 123.66 253.32 123.73 253.20 C 128.80 244.92 134.00 236.73 139.42 228.67 C 139.48 228.57 139.62 228.37 139.69 228.28 C 154.54 207.92 171.04 188.67 189.96 171.98 C 198.66 164.03 207.99 156.82 217.36 149.67 C 217.58 149.54 218.02 149.26 218.24 149.12 C 219.28 148.64 220.21 147.94 221.01 147.11 C 221.16 146.99 221.45 146.75 221.60 146.63 C 242.03 132.62 263.82 120.61 286.69 111.07 C 298.26 106.38 310.10 102.28 322.12 98.88 C 322.63 98.73 323.64 98.42 324.15 98.26 C 330.11 96.62 336.11 94.98 342.22 93.93 C 343.42 93.86 344.59 93.51 345.73 93.09 L 347.02 92.79 C 347.53 92.68 348.57 92.45 349.08 92.33 C 349.84 92.22 351.36 92.00 352.12 91.89 C 353.12 92.00 354.06 91.81 354.94 91.30 C 355.76 91.19 357.39 90.97 358.21 90.85 C 359.43 90.86 360.61 90.55 361.77 90.19 C 362.37 90.11 363.58 89.95 364.18 89.87 C 365.17 90.03 366.12 89.89 367.04 89.45 M 384.67 198.52 C 376.78 201.86 372.76 210.76 372.81 218.96 C 372.61 224.76 375.55 230.11 375.61 235.88 C 375.77 237.79 373.64 238.50 372.33 239.32 C 365.87 242.40 359.85 246.89 356.14 253.12 C 351.19 261.62 351.04 271.79 350.66 281.34 C 339.97 270.60 330.26 258.91 320.37 247.44 C 314.95 241.46 304.00 240.43 298.82 247.24 C 295.64 246.51 292.15 245.48 289.06 247.04 C 285.89 248.40 283.81 251.70 283.77 255.13 C 282.46 272.41 280.52 289.66 279.66 306.98 C 279.16 313.95 278.57 320.98 279.25 327.97 C 280.47 335.53 283.69 342.55 286.41 349.65 C 291.56 362.31 296.88 374.92 302.77 387.26 C 305.28 392.73 309.88 396.89 314.96 399.96 C 323.38 405.03 332.60 408.58 341.58 412.51 C 367.23 423.39 392.01 436.39 415.19 451.86 C 445.99 430.57 480.30 415.07 514.77 400.80 C 518.74 399.00 522.50 396.53 525.13 393.00 C 528.30 388.95 529.25 383.78 531.13 379.11 C 534.99 369.28 539.21 359.56 544.26 350.27 C 548.43 342.47 551.29 333.86 551.66 324.97 C 552.07 313.00 551.11 301.04 551.08 289.08 C 550.84 279.70 550.80 270.33 550.41 260.96 C 550.42 256.51 548.34 251.68 544.02 249.91 C 541.12 248.61 538.02 250.10 535.05 250.19 C 531.73 248.52 528.82 245.69 524.87 245.69 C 517.02 244.75 510.81 250.58 505.82 255.82 C 498.26 263.38 490.62 270.87 483.00 278.37 C 485.09 269.69 484.20 260.14 479.74 252.34 C 477.16 247.39 472.68 243.98 468.82 240.14 C 467.00 230.11 461.21 221.15 453.45 214.64 C 450.28 212.06 447.06 209.25 443.09 208.01 C 432.78 205.92 421.04 214.05 421.03 224.97 C 421.25 231.43 422.53 238.29 426.58 243.51 C 428.81 246.02 431.55 248.56 434.96 249.17 C 437.41 248.94 437.68 245.40 435.78 244.21 C 431.30 240.26 430.13 233.77 430.94 228.11 C 431.25 226.03 433.36 225.14 434.85 224.01 C 437.96 224.96 441.20 226.08 443.29 228.74 C 449.77 236.15 452.98 245.67 458.07 253.97 C 460.70 258.44 466.69 259.24 469.33 263.70 C 472.43 268.84 472.63 275.10 472.82 280.94 C 472.38 293.63 471.10 306.28 469.66 318.90 C 469.62 320.18 468.79 321.22 467.68 321.79 C 454.93 329.28 441.44 335.39 428.46 342.45 C 426.90 343.26 425.24 343.85 423.58 344.40 C 423.38 340.90 423.55 336.86 426.12 334.19 C 429.23 331.28 433.80 332.22 437.66 332.06 C 437.56 323.74 437.31 315.41 437.26 307.09 C 437.35 301.48 434.08 296.66 430.34 292.78 C 436.75 288.49 442.09 282.85 447.22 277.15 C 448.99 274.96 451.01 272.75 451.69 269.96 C 452.77 265.39 447.35 261.20 443.16 263.03 C 439.75 264.35 436.44 265.90 432.96 267.00 C 430.72 260.76 428.81 254.41 426.84 248.09 C 426.19 245.83 424.12 244.31 421.93 243.73 C 417.76 242.32 413.33 243.25 409.05 243.07 C 408.21 242.44 407.40 241.78 406.64 241.07 C 409.31 238.27 412.70 236.06 414.69 232.67 C 415.49 229.84 415.28 226.84 415.53 223.93 C 415.81 218.12 416.81 212.19 415.48 206.44 C 414.49 202.13 411.13 198.49 406.90 197.19 C 399.66 194.91 391.64 195.68 384.67 198.52 M 270.02 486.97 C 263.63 489.18 257.44 492.95 253.81 498.81 C 248.14 507.57 249.74 520.43 257.81 527.19 C 266.80 534.96 279.03 536.89 288.90 543.13 C 292.96 545.52 295.71 550.38 294.64 555.12 C 294.05 558.60 292.46 562.70 288.54 563.42 C 280.79 565.17 272.24 564.78 265.12 560.97 C 263.79 556.27 262.46 551.56 261.78 546.72 C 257.86 546.60 253.93 546.67 250.02 546.99 C 249.91 553.40 249.86 559.81 249.88 566.23 C 258.18 571.71 268.27 573.61 278.06 574.02 C 287.77 574.27 298.22 572.36 305.71 565.75 C 314.59 557.80 314.76 542.09 305.70 534.22 C 297.78 527.18 287.17 524.74 278.03 519.81 C 274.31 517.72 270.52 515.05 268.93 510.92 C 267.26 506.41 267.71 500.59 270.87 496.88 C 277.94 493.07 287.61 493.01 294.19 497.84 C 295.86 502.75 296.12 508.00 297.02 513.09 C 300.59 513.32 304.17 513.38 307.74 513.30 C 308.68 507.14 310.42 501.11 310.99 494.91 C 310.29 491.20 306.47 489.85 303.42 488.53 C 292.91 484.32 280.86 483.48 270.02 486.97 M 346.01 487.15 C 339.00 489.61 332.31 494.19 329.07 501.08 C 324.84 509.50 326.81 520.61 333.95 526.85 C 341.92 533.94 352.60 536.42 361.95 541.10 C 365.47 542.92 369.10 545.35 370.65 549.17 C 371.83 553.35 371.09 558.16 368.44 561.66 C 365.83 563.79 362.26 564.06 359.04 564.32 C 353.26 564.53 347.04 564.18 342.03 561.00 C 339.72 556.63 339.34 551.43 338.10 546.66 C 334.31 546.62 330.53 546.68 326.75 546.95 C 326.56 553.33 325.74 559.92 326.71 566.20 C 333.90 571.50 343.14 573.08 351.86 573.90 C 362.68 574.55 374.81 572.95 382.85 565.00 C 390.94 557.17 391.04 542.81 382.94 534.97 C 373.93 526.17 360.65 524.50 350.62 517.30 C 346.11 514.25 343.39 508.49 344.73 503.10 C 345.24 500.60 345.81 497.50 348.39 496.31 C 355.43 493.03 363.98 493.53 370.68 497.46 C 371.94 502.53 372.88 507.69 373.28 512.90 C 376.85 513.37 380.45 513.39 384.05 513.34 C 385.33 507.58 386.62 501.80 387.33 495.95 C 387.57 494.25 386.38 492.81 385.82 491.31 C 373.81 484.80 359.08 482.71 346.01 487.15 M 420.13 488.06 C 412.43 491.20 405.51 497.58 403.89 506.01 C 402.19 513.65 404.78 522.16 410.83 527.24 C 419.43 534.62 430.95 536.78 440.62 542.32 C 444.51 544.45 448.01 548.33 447.73 553.05 C 447.57 557.11 446.19 562.47 441.55 563.37 C 433.81 565.18 425.21 564.81 418.11 560.97 C 416.73 556.27 415.46 551.54 414.72 546.71 C 410.82 546.60 406.91 546.67 403.02 546.99 C 402.84 553.42 402.90 559.85 402.88 566.29 C 408.95 570.19 415.98 572.38 423.11 573.30 C 431.62 574.62 440.50 574.30 448.71 571.53 C 455.08 569.32 461.01 564.92 463.72 558.58 C 466.90 550.72 465.59 540.83 459.32 534.83 C 449.89 525.70 435.79 524.39 425.75 516.22 C 420.49 512.05 419.69 504.25 422.62 498.49 C 423.47 496.38 425.92 495.77 427.89 495.17 C 434.23 493.42 441.79 493.69 447.14 497.85 C 448.83 502.76 449.08 508.01 450.01 513.09 C 453.56 513.32 457.12 513.37 460.69 513.31 C 461.65 507.14 463.37 501.09 463.98 494.87 C 463.42 492.71 461.86 490.95 459.81 490.11 C 447.66 484.10 432.77 482.83 420.13 488.06 M 476.77 486.90 C 476.13 495.09 476.14 503.34 476.76 511.53 C 480.45 512.06 484.18 512.12 487.90 512.03 C 489.11 506.74 490.34 501.45 491.40 496.14 C 496.54 495.67 501.70 495.22 506.87 495.31 C 506.80 517.60 507.42 539.91 505.91 562.16 C 502.29 563.37 498.61 564.42 494.99 565.64 C 495.50 567.73 495.93 569.84 496.34 571.97 C 508.87 572.05 521.41 571.97 533.94 572.01 C 534.41 569.83 534.87 567.67 535.24 565.49 C 531.85 564.52 528.25 563.67 525.41 561.48 C 523.24 557.36 524.32 552.45 523.73 547.99 C 523.63 530.41 523.55 512.83 523.78 495.26 C 528.89 495.23 533.99 495.62 539.08 496.07 C 540.20 501.13 541.44 506.17 542.21 511.30 C 545.73 511.94 549.33 512.03 552.90 511.65 C 553.29 504.75 554.44 497.91 554.61 490.99 C 554.26 489.05 552.72 487.55 551.77 485.88 C 526.81 487.63 501.77 486.66 476.77 486.90 M 569.99 486.88 C 567.48 487.02 564.80 486.47 562.41 487.29 C 561.85 489.22 561.53 491.21 561.11 493.17 C 564.69 494.58 569.28 494.99 571.66 498.33 C 572.81 503.83 572.71 509.49 572.89 515.08 C 572.82 530.79 573.27 546.53 571.93 562.21 C 568.40 563.36 564.85 564.45 561.25 565.33 C 561.59 567.53 561.97 569.72 562.32 571.93 C 586.24 572.09 610.17 571.95 634.09 572.00 C 634.30 563.96 634.32 555.93 634.09 547.89 C 630.43 547.65 626.76 547.64 623.10 547.65 C 621.62 552.50 621.04 557.62 619.26 562.37 C 610.04 563.42 600.35 564.32 591.31 561.71 C 590.65 559.54 590.12 557.31 590.09 555.04 C 589.96 548.22 589.46 541.42 589.69 534.60 C 598.79 535.17 607.92 535.12 617.04 535.35 C 617.63 532.52 618.14 529.68 618.72 526.86 C 617.95 526.10 617.17 525.39 616.35 524.72 C 607.46 524.64 598.60 525.43 589.72 525.72 C 589.46 517.46 590.17 509.22 590.15 500.96 C 590.45 499.34 589.65 496.35 592.02 496.09 C 600.49 494.59 609.12 495.59 617.62 496.27 C 618.67 501.07 619.33 505.94 620.42 510.73 C 623.82 511.37 627.31 511.07 630.75 511.09 C 631.59 504.68 632.99 498.36 633.95 491.97 C 634.55 489.48 632.18 487.77 631.06 485.85 C 610.74 487.41 590.35 486.76 569.99 486.88 M 197.95 486.89 C 197.45 488.98 196.98 491.08 196.54 493.19 C 200.36 494.90 206.82 494.94 207.49 500.13 C 208.34 505.39 207.83 510.75 208.04 516.06 C 208.49 523.37 208.38 530.70 208.27 538.03 C 207.69 546.09 208.32 554.20 207.39 562.25 C 203.83 563.33 200.26 564.43 196.65 565.39 C 197.00 567.60 197.42 569.81 197.91 572.00 C 210.31 571.90 222.73 572.18 235.13 571.88 C 236.44 570.21 236.17 567.60 236.86 565.60 C 232.92 563.93 225.97 563.72 225.85 558.10 C 224.83 550.44 225.17 542.68 225.11 534.97 C 225.18 522.13 224.75 509.24 226.10 496.44 C 229.68 495.48 233.22 494.36 236.77 493.29 C 236.37 491.19 235.99 489.08 235.62 486.99 C 223.07 486.77 210.51 486.95 197.95 486.89 Z" />
<path fill="#ffffff" opacity="1.00" d=" M 394.47 211.15 C 397.33 211.08 400.44 210.60 403.04 212.12 C 407.03 214.07 408.48 218.79 408.60 222.92 C 408.13 229.89 403.09 235.27 398.29 239.85 C 399.14 241.78 401.88 243.93 400.09 246.11 C 397.59 249.90 396.02 254.38 396.70 258.97 C 396.87 263.26 399.73 266.60 401.77 270.15 C 401.62 272.08 400.30 273.68 399.54 275.42 C 395.67 282.96 392.57 291.70 394.82 300.21 C 395.86 304.46 398.21 309.58 403.05 310.32 C 406.53 310.91 409.01 307.94 411.90 306.61 C 413.79 307.24 415.46 308.87 417.56 308.68 C 420.33 306.77 419.74 300.87 423.97 301.03 C 427.74 302.53 432.40 306.26 430.76 310.86 C 429.95 315.54 430.42 320.30 430.21 325.02 C 426.50 325.18 422.79 325.25 419.13 325.88 C 417.78 329.36 417.50 333.10 416.72 336.71 C 416.07 338.45 412.98 340.38 412.13 337.81 C 410.93 333.57 410.45 328.56 412.71 324.58 C 415.26 320.53 420.31 319.65 423.98 317.06 C 426.13 314.38 426.20 310.46 424.75 307.43 C 423.45 309.28 422.39 311.28 421.16 313.16 C 416.35 316.84 408.34 315.27 405.05 321.08 C 402.45 327.03 402.44 334.19 404.71 340.23 C 408.42 345.22 414.90 346.69 420.05 349.71 C 418.97 351.53 417.13 352.74 415.29 353.70 C 410.87 349.78 406.70 345.57 401.90 342.10 C 394.39 336.33 385.70 332.37 376.88 329.07 C 372.16 327.12 367.02 325.31 363.65 321.27 C 361.46 318.74 361.68 315.17 361.35 312.06 C 360.71 298.34 359.74 284.38 362.75 270.86 C 364.37 263.11 369.00 256.07 375.57 251.62 C 378.93 248.97 383.53 247.57 385.77 243.72 C 387.37 238.14 385.20 232.36 383.70 226.99 C 389.46 223.68 394.36 218.13 394.47 211.15 Z" />
<path fill="#ffffff" opacity="1.00" d=" M 418.65 254.90 C 419.99 255.27 421.61 255.11 422.73 256.07 C 423.59 258.26 423.98 260.59 424.51 262.87 C 422.98 265.04 420.41 267.15 421.01 270.12 C 421.13 271.86 422.92 272.92 424.44 273.37 C 429.71 274.88 435.14 273.36 440.28 272.04 C 438.45 275.68 436.23 279.39 432.63 281.54 C 428.74 283.78 423.03 281.06 420.06 285.12 C 418.04 289.68 420.41 295.06 418.77 299.72 C 414.55 300.26 410.23 300.21 406.04 299.55 C 401.75 298.76 400.69 293.72 400.51 290.06 C 401.21 279.94 412.83 273.52 411.54 262.94 C 413.41 262.12 415.65 261.72 416.99 260.03 C 418.18 258.60 418.17 256.61 418.65 254.90 Z" />
<path fill="#ffffff" opacity="1.00" d=" M 312.80 268.85 C 315.04 267.80 318.51 267.47 319.34 270.48 C 321.08 276.92 322.19 283.53 323.67 290.04 C 324.43 294.36 325.88 298.61 325.85 303.04 C 325.83 304.93 324.08 306.03 322.97 307.33 C 321.42 306.55 319.16 306.36 318.51 304.47 C 317.00 300.51 316.87 296.21 316.15 292.07 C 315.12 284.32 313.57 276.63 312.80 268.85 Z" />
<path fill="#ffffff" opacity="1.00" d=" M 526.82 277.08 C 527.39 273.49 528.97 269.04 532.99 268.21 C 535.65 268.68 536.68 271.50 536.73 273.90 C 537.30 285.60 536.65 297.32 537.34 309.01 C 537.49 315.33 538.57 321.76 537.13 328.00 C 535.94 333.89 532.94 339.16 530.51 344.58 C 526.14 353.84 522.37 363.40 517.52 372.44 C 515.55 376.31 512.54 379.65 508.79 381.86 C 478.68 398.49 445.13 408.76 417.12 429.17 C 415.14 431.06 413.13 428.43 411.40 427.51 C 383.72 407.89 350.81 397.98 321.43 381.44 C 315.52 377.82 312.59 371.27 309.73 365.26 C 305.54 356.15 301.57 346.95 297.18 337.93 C 294.50 332.46 292.73 326.30 293.61 320.17 C 295.44 306.85 295.92 293.39 296.30 279.96 C 296.58 276.43 296.47 271.92 299.83 269.75 C 302.95 267.68 305.39 272.17 305.65 274.85 C 307.69 290.92 309.34 307.06 312.08 323.04 C 313.11 328.75 314.42 334.54 317.44 339.56 C 322.09 347.38 329.40 353.31 337.39 357.49 C 343.32 360.66 349.12 364.70 355.91 365.67 C 359.09 366.37 362.46 363.33 361.85 360.11 C 360.96 357.26 358.03 355.91 355.69 354.44 C 348.13 350.00 340.28 345.98 333.19 340.80 C 327.25 336.66 324.26 328.59 325.89 321.62 C 331.65 321.55 336.39 325.11 341.38 327.47 C 355.22 334.34 369.36 340.62 383.04 347.82 C 389.53 351.43 396.59 354.63 401.42 360.51 C 410.09 371.18 414.20 384.89 415.58 398.40 C 416.13 388.65 418.92 379.09 423.15 370.32 C 426.58 363.17 431.91 356.85 438.80 352.85 C 457.74 341.93 477.99 333.55 497.36 323.46 C 499.74 322.13 502.45 321.73 505.15 321.63 C 506.24 327.96 504.25 335.06 499.33 339.36 C 494.31 343.94 488.02 346.71 482.34 350.34 C 478.11 353.10 473.04 354.79 469.66 358.69 C 467.48 361.59 470.65 365.94 474.02 365.71 C 478.73 365.56 482.98 363.17 487.08 361.07 C 494.18 357.06 501.71 353.40 507.37 347.36 C 512.93 341.87 516.59 334.64 518.04 326.99 C 521.49 310.45 524.59 293.83 526.82 277.08 Z" />
<path fill="#ffffff" opacity="1.00" d=" M 513.26 269.29 C 514.48 268.83 515.73 268.69 517.02 268.89 C 517.89 270.87 517.21 273.00 516.97 275.03 C 515.41 283.88 514.11 292.78 512.39 301.60 C 512.03 303.93 510.34 306.19 507.84 306.37 C 505.28 305.72 506.00 302.81 506.20 300.89 C 507.61 292.17 509.51 283.54 511.10 274.86 C 511.51 272.92 511.85 270.79 513.26 269.29 Z" />
<path fill="#ffffff" opacity="1.00" d=" M 330.22 284.35 C 332.26 283.42 334.36 285.21 334.58 287.25 C 335.50 292.81 336.09 298.44 337.39 303.94 C 337.62 305.76 338.54 307.82 337.32 309.48 C 334.96 310.40 332.58 308.29 332.39 305.95 C 331.46 299.26 330.17 292.61 329.42 285.89 C 329.62 285.51 330.02 284.74 330.22 284.35 Z" />
<path fill="#ffffff" opacity="1.00" d=" M 494.96 291.03 C 495.21 287.80 496.73 284.86 499.11 282.68 C 501.49 286.07 500.14 290.18 500.04 293.96 C 499.66 298.21 500.01 302.60 498.77 306.73 C 498.31 308.51 496.49 309.27 495.15 310.29 C 494.60 309.89 493.48 309.09 492.92 308.69 C 492.68 302.73 494.20 296.90 494.96 291.03 Z" />
<path fill="#ffffff" opacity="1.00" d=" M 344.27 295.89 C 346.05 296.02 347.97 296.72 348.26 298.75 C 349.50 303.80 350.64 308.92 351.31 314.09 C 350.53 316.63 346.92 316.33 346.33 313.88 C 344.99 308.02 343.08 301.92 344.27 295.89 Z" />
<path fill="#ffffff" opacity="1.00" d=" M 484.12 296.10 C 486.89 294.92 486.12 298.26 486.21 299.92 C 485.72 304.56 486.05 309.33 484.98 313.91 C 484.67 316.33 481.20 316.85 480.20 314.64 C 478.72 310.80 480.41 306.77 481.03 302.93 C 481.74 300.59 481.59 297.34 484.12 296.10 Z" />
</g>
<g id="#ca9656ff">
<path fill="#ca9656" opacity="1.00" d=" M 453.12 88.48 C 453.72 86.92 457.06 86.96 456.77 88.94 C 455.53 88.96 454.31 88.76 453.12 88.48 Z" />
<path fill="#ca9656" opacity="1.00" d=" M 364.18 89.87 C 364.77 88.19 365.73 88.05 367.04 89.45 C 366.12 89.89 365.17 90.03 364.18 89.87 Z" />
<path fill="#ca9656" opacity="1.00" d=" M 358.21 90.85 C 357.76 88.91 361.09 88.67 361.77 90.19 C 360.61 90.55 359.43 90.86 358.21 90.85 Z" />
<path fill="#ca9656" opacity="1.00" d=" M 466.26 90.25 C 466.90 88.72 470.29 88.88 469.81 90.86 C 468.59 90.85 467.41 90.58 466.26 90.25 Z" />
<path fill="#ca9656" opacity="1.00" d=" M 352.12 91.89 C 352.63 90.17 353.57 89.98 354.94 91.30 C 354.06 91.81 353.12 92.00 352.12 91.89 Z" />
<path fill="#ca9656" opacity="1.00" d=" M 472.24 91.19 C 472.92 89.66 476.29 89.94 475.78 91.91 C 474.56 91.85 473.39 91.55 472.24 91.19 Z" />
<path fill="#ca9656" opacity="1.00" d=" M 347.35 91.94 L 348.41 91.70 L 349.08 92.33 C 348.57 92.45 347.53 92.68 347.02 92.79 L 347.35 91.94 Z" />
<path fill="#ca9656" opacity="1.00" d=" M 342.22 93.93 C 341.68 92.00 344.98 91.58 345.73 93.09 C 344.59 93.51 343.42 93.86 342.22 93.93 Z" />
<path fill="#ca9656" opacity="1.00" d=" M 487.23 94.20 C 487.89 92.67 491.21 92.95 490.79 94.89 C 489.56 94.85 488.37 94.59 487.23 94.20 Z" />
<path fill="#ca9656" opacity="1.00" d=" M 492.08 95.14 C 493.55 93.94 494.46 94.23 494.82 95.99 C 493.81 96.01 492.89 95.72 492.08 95.14 Z" />
<path fill="#ca9656" opacity="1.00" d=" M 322.38 97.99 L 323.42 97.68 L 324.15 98.26 C 323.64 98.42 322.63 98.73 322.12 98.88 L 322.38 97.99 Z" />
<path fill="#ca9656" opacity="1.00" d=" M 507.07 99.23 C 508.52 97.97 509.44 98.24 509.82 100.02 C 508.81 100.02 507.90 99.76 507.07 99.23 Z" />
<path fill="#ca9656" opacity="1.00" d=" M 283.43 111.71 C 284.25 111.55 285.87 111.23 286.69 111.07 C 263.82 120.61 242.03 132.62 221.60 146.63 C 222.68 145.33 223.85 144.09 225.30 143.22 C 235.23 136.73 245.19 130.23 255.80 124.90 C 265.01 120.51 273.92 115.45 283.43 111.71 Z" />
<path fill="#ca9656" opacity="1.00" d=" M 564.42 121.53 C 567.90 122.44 571.00 124.31 574.20 125.92 C 586.02 132.01 597.08 139.43 608.09 146.86 C 608.95 147.61 609.71 148.46 610.37 149.41 C 595.66 139.15 580.37 129.73 564.42 121.53 Z" />
<path fill="#ca9656" opacity="1.00" d=" M 218.24 149.12 C 217.11 147.57 219.83 145.72 221.01 147.11 C 220.21 147.94 219.28 148.64 218.24 149.12 Z" />
<path fill="#ca9656" opacity="1.00" d=" M 213.43 151.69 C 214.62 150.80 216.00 150.24 217.36 149.67 C 207.99 156.82 198.66 164.03 189.96 171.98 C 171.04 188.67 154.54 207.92 139.69 228.28 C 141.38 223.31 145.36 219.71 148.36 215.56 C 154.26 207.49 161.05 200.15 167.62 192.64 C 176.04 184.43 183.92 175.62 193.05 168.17 C 199.67 162.47 206.42 156.91 213.43 151.69 Z" />
<path fill="#ca9656" opacity="1.00" d=" M 610.75 149.69 C 615.71 151.73 619.54 155.63 623.77 158.81 C 634.87 167.44 645.16 177.04 654.92 187.16 C 660.42 192.32 665.38 198.01 670.21 203.79 C 670.51 204.42 671.11 205.67 671.42 206.30 C 653.49 185.13 633.06 166.16 610.75 149.69 Z" />
<path fill="#ca9656" opacity="1.00" d=" M 384.67 198.52 C 391.64 195.68 399.66 194.91 406.90 197.19 C 411.13 198.49 414.49 202.13 415.48 206.44 C 416.81 212.19 415.81 218.12 415.53 223.93 C 415.28 226.84 415.49 229.84 414.69 232.67 C 412.70 236.06 409.31 238.27 406.64 241.07 C 407.40 241.78 408.21 242.44 409.05 243.07 C 413.33 243.25 417.76 242.32 421.93 243.73 C 424.12 244.31 426.19 245.83 426.84 248.09 C 428.81 254.41 430.72 260.76 432.96 267.00 C 436.44 265.90 439.75 264.35 443.16 263.03 C 447.35 261.20 452.77 265.39 451.69 269.96 C 451.01 272.75 448.99 274.96 447.22 277.15 C 442.09 282.85 436.75 288.49 430.34 292.78 C 434.08 296.66 437.35 301.48 437.26 307.09 C 437.31 315.41 437.56 323.74 437.66 332.06 C 433.80 332.22 429.23 331.28 426.12 334.19 C 423.55 336.86 423.38 340.90 423.58 344.40 C 425.24 343.85 426.90 343.26 428.46 342.45 C 441.44 335.39 454.93 329.28 467.68 321.79 C 468.79 321.22 469.62 320.18 469.66 318.90 C 471.10 306.28 472.38 293.63 472.82 280.94 C 472.63 275.10 472.43 268.84 469.33 263.70 C 466.69 259.24 460.70 258.44 458.07 253.97 C 452.98 245.67 449.77 236.15 443.29 228.74 C 441.20 226.08 437.96 224.96 434.85 224.01 C 433.36 225.14 431.25 226.03 430.94 228.11 C 430.13 233.77 431.30 240.26 435.78 244.21 C 437.68 245.40 437.41 248.94 434.96 249.17 C 431.55 248.56 428.81 246.02 426.58 243.51 C 422.53 238.29 421.25 231.43 421.03 224.97 C 421.04 214.05 432.78 205.92 443.09 208.01 C 447.06 209.25 450.28 212.06 453.45 214.64 C 461.21 221.15 467.00 230.11 468.82 240.14 C 472.68 243.98 477.16 247.39 479.74 252.34 C 484.20 260.14 485.09 269.69 483.00 278.37 C 490.62 270.87 498.26 263.38 505.82 255.82 C 510.81 250.58 517.02 244.75 524.87 245.69 C 528.82 245.69 531.73 248.52 535.05 250.19 C 538.02 250.10 541.12 248.61 544.02 249.91 C 548.34 251.68 550.42 256.51 550.41 260.96 C 550.80 270.33 550.84 279.70 551.08 289.08 C 551.11 301.04 552.07 313.00 551.66 324.97 C 551.29 333.86 548.43 342.47 544.26 350.27 C 539.21 359.56 534.99 369.28 531.13 379.11 C 529.25 383.78 528.30 388.95 525.13 393.00 C 522.50 396.53 518.74 399.00 514.77 400.80 C 480.30 415.07 445.99 430.57 415.19 451.86 C 392.01 436.39 367.23 423.39 341.58 412.51 C 332.60 408.58 323.38 405.03 314.96 399.96 C 309.88 396.89 305.28 392.73 302.77 387.26 C 296.88 374.92 291.56 362.31 286.41 349.65 C 283.69 342.55 280.47 335.53 279.25 327.97 C 278.57 320.98 279.16 313.95 279.66 306.98 C 280.52 289.66 282.46 272.41 283.77 255.13 C 283.81 251.70 285.89 248.40 289.06 247.04 C 292.15 245.48 295.64 246.51 298.82 247.24 C 304.00 240.43 314.95 241.46 320.37 247.44 C 330.26 258.91 339.97 270.60 350.66 281.34 C 351.04 271.79 351.19 261.62 356.14 253.12 C 359.85 246.89 365.87 242.40 372.33 239.32 C 373.64 238.50 375.77 237.79 375.61 235.88 C 375.55 230.11 372.61 224.76 372.81 218.96 C 372.76 210.76 376.78 201.86 384.67 198.52 M 394.47 211.15 C 394.36 218.13 389.46 223.68 383.70 226.99 C 385.20 232.36 387.37 238.14 385.77 243.72 C 383.53 247.57 378.93 248.97 375.57 251.62 C 369.00 256.07 364.37 263.11 362.75 270.86 C 359.74 284.38 360.71 298.34 361.35 312.06 C 361.68 315.17 361.46 318.74 363.65 321.27 C 367.02 325.31 372.16 327.12 376.88 329.07 C 385.70 332.37 394.39 336.33 401.90 342.10 C 406.70 345.57 410.87 349.78 415.29 353.70 C 417.13 352.74 418.97 351.53 420.05 349.71 C 414.90 346.69 408.42 345.22 404.71 340.23 C 402.44 334.19 402.45 327.03 405.05 321.08 C 408.34 315.27 416.35 316.84 421.16 313.16 C 422.39 311.28 423.45 309.28 424.75 307.43 C 426.20 310.46 426.13 314.38 423.98 317.06 C 420.31 319.65 415.26 320.53 412.71 324.58 C 410.45 328.56 410.93 333.57 412.13 337.81 C 412.98 340.38 416.07 338.45 416.72 336.71 C 417.50 333.10 417.78 329.36 419.13 325.88 C 422.79 325.25 426.50 325.18 430.21 325.02 C 430.42 320.30 429.95 315.54 430.76 310.86 C 432.40 306.26 427.74 302.53 423.97 301.03 C 419.74 300.87 420.33 306.77 417.56 308.68 C 415.46 308.87 413.79 307.24 411.90 306.61 C 409.01 307.94 406.53 310.91 403.05 310.32 C 398.21 309.58 395.86 304.46 394.82 300.21 C 392.57 291.70 395.67 282.96 399.54 275.42 C 400.30 273.68 401.62 272.08 401.77 270.15 C 399.73 266.60 396.87 263.26 396.70 258.97 C 396.02 254.38 397.59 249.90 400.09 246.11 C 401.88 243.93 399.14 241.78 398.29 239.85 C 403.09 235.27 408.13 229.89 408.60 222.92 C 408.48 218.79 407.03 214.07 403.04 212.12 C 400.44 210.60 397.33 211.08 394.47 211.15 M 418.65 254.90 C 418.17 256.61 418.18 258.60 416.99 260.03 C 415.65 261.72 413.41 262.12 411.54 262.94 C 412.83 273.52 401.21 279.94 400.51 290.06 C 400.69 293.72 401.75 298.76 406.04 299.55 C 410.23 300.21 414.55 300.26 418.77 299.72 C 420.41 295.06 418.04 289.68 420.06 285.12 C 423.03 281.06 428.74 283.78 432.63 281.54 C 436.23 279.39 438.45 275.68 440.28 272.04 C 435.14 273.36 429.71 274.88 424.44 273.37 C 422.92 272.92 421.13 271.86 421.01 270.12 C 420.41 267.15 422.98 265.04 424.51 262.87 C 423.98 260.59 423.59 258.26 422.73 256.07 C 421.61 255.11 419.99 255.27 418.65 254.90 M 312.80 268.85 C 313.57 276.63 315.12 284.32 316.15 292.07 C 316.87 296.21 317.00 300.51 318.51 304.47 C 319.16 306.36 321.42 306.55 322.97 307.33 C 324.08 306.03 325.83 304.93 325.85 303.04 C 325.88 298.61 324.43 294.36 323.67 290.04 C 322.19 283.53 321.08 276.92 319.34 270.48 C 318.51 267.47 315.04 267.80 312.80 268.85 M 526.82 277.08 C 524.59 293.83 521.49 310.45 518.04 326.99 C 516.59 334.64 512.93 341.87 507.37 347.36 C 501.71 353.40 494.18 357.06 487.08 361.07 C 482.98 363.17 478.73 365.56 474.02 365.71 C 470.65 365.94 467.48 361.59 469.66 358.69 C 473.04 354.79 478.11 353.10 482.34 350.34 C 488.02 346.71 494.31 343.94 499.33 339.36 C 504.25 335.06 506.24 327.96 505.15 321.63 C 502.45 321.73 499.74 322.13 497.36 323.46 C 477.99 333.55 457.74 341.93 438.80 352.85 C 431.91 356.85 426.58 363.17 423.15 370.32 C 418.92 379.09 416.13 388.65 415.58 398.40 C 414.20 384.89 410.09 371.18 401.42 360.51 C 396.59 354.63 389.53 351.43 383.04 347.82 C 369.36 340.62 355.22 334.34 341.38 327.47 C 336.39 325.11 331.65 321.55 325.89 321.62 C 324.26 328.59 327.25 336.66 333.19 340.80 C 340.28 345.98 348.13 350.00 355.69 354.44 C 358.03 355.91 360.96 357.26 361.85 360.11 C 362.46 363.33 359.09 366.37 355.91 365.67 C 349.12 364.70 343.32 360.66 337.39 357.49 C 329.40 353.31 322.09 347.38 317.44 339.56 C 314.42 334.54 313.11 328.75 312.08 323.04 C 309.34 307.06 307.69 290.92 305.65 274.85 C 305.39 272.17 302.95 267.68 299.83 269.75 C 296.47 271.92 296.58 276.43 296.30 279.96 C 295.92 293.39 295.44 306.85 293.61 320.17 C 292.73 326.30 294.50 332.46 297.18 337.93 C 301.57 346.95 305.54 356.15 309.73 365.26 C 312.59 371.27 315.52 377.82 321.43 381.44 C 350.81 397.98 383.72 407.89 411.40 427.51 C 413.13 428.43 415.14 431.06 417.12 429.17 C 445.13 408.76 478.68 398.49 508.79 381.86 C 512.54 379.65 515.55 376.31 517.52 372.44 C 522.37 363.40 526.14 353.84 530.51 344.58 C 532.94 339.16 535.94 333.89 537.13 328.00 C 538.57 321.76 537.49 315.33 537.34 309.01 C 536.65 297.32 537.30 285.60 536.73 273.90 C 536.68 271.50 535.65 268.68 532.99 268.21 C 528.97 269.04 527.39 273.49 526.82 277.08 M 513.26 269.29 C 511.85 270.79 511.51 272.92 511.10 274.86 C 509.51 283.54 507.61 292.17 506.20 300.89 C 506.00 302.81 505.28 305.72 507.84 306.37 C 510.34 306.19 512.03 303.93 512.39 301.60 C 514.11 292.78 515.41 283.88 516.97 275.03 C 517.21 273.00 517.89 270.87 517.02 268.89 C 515.73 268.69 514.48 268.83 513.26 269.29 M 330.22 284.35 C 330.02 284.74 329.62 285.51 329.42 285.89 C 330.17 292.61 331.46 299.26 332.39 305.95 C 332.58 308.29 334.96 310.40 337.32 309.48 C 338.54 307.82 337.62 305.76 337.39 303.94 C 336.09 298.44 335.50 292.81 334.58 287.25 C 334.36 285.21 332.26 283.42 330.22 284.35 M 494.96 291.03 C 494.20 296.90 492.68 302.73 492.92 308.69 C 493.48 309.09 494.60 309.89 495.15 310.29 C 496.49 309.27 498.31 308.51 498.77 306.73 C 500.01 302.60 499.66 298.21 500.04 293.96 C 500.14 290.18 501.49 286.07 499.11 282.68 C 496.73 284.86 495.21 287.80 494.96 291.03 M 344.27 295.89 C 343.08 301.92 344.99 308.02 346.33 313.88 C 346.92 316.33 350.53 316.63 351.31 314.09 C 350.64 308.92 349.50 303.80 348.26 298.75 C 347.97 296.72 346.05 296.02 344.27 295.89 M 484.12 296.10 C 481.59 297.34 481.74 300.59 481.03 302.93 C 480.41 306.77 478.72 310.80 480.20 314.64 C 481.20 316.85 484.67 316.33 484.98 313.91 C 486.05 309.33 485.72 304.56 486.21 299.92 C 486.12 298.26 486.89 294.92 484.12 296.10 Z" />
<path fill="#ca9656" opacity="1.00" d=" M 671.71 206.65 C 673.91 207.97 675.99 209.69 676.30 212.43 C 674.77 210.50 673.23 208.58 671.71 206.65 Z" />
<path fill="#ca9656" opacity="1.00" d=" M 676.97 213.32 C 678.84 212.06 681.29 215.31 679.82 216.92 C 678.79 215.78 677.82 214.59 676.97 213.32 Z" />
<path fill="#ca9656" opacity="1.00" d=" M 680.85 218.26 C 682.39 217.10 684.32 219.80 682.91 221.00 C 682.07 220.20 681.38 219.27 680.85 218.26 Z" />
<path fill="#ca9656" opacity="1.00" d=" M 683.88 222.26 C 685.40 221.15 687.31 223.79 685.94 224.98 C 685.04 224.24 684.38 223.28 683.88 222.26 Z" />
<path fill="#ca9656" opacity="1.00" d=" M 687.04 226.13 L 687.96 226.21 L 688.48 227.16 L 688.05 227.97 C 687.80 227.51 687.29 226.59 687.04 226.13 Z" />
<path fill="#ca9656" opacity="1.00" d=" M 136.48 231.45 C 137.23 230.31 138.30 229.44 139.42 228.67 C 134.00 236.73 128.80 244.92 123.73 253.20 C 124.36 251.15 125.08 249.12 126.28 247.33 C 129.73 242.07 132.94 236.65 136.48 231.45 Z" />
<path fill="#ca9656" opacity="1.00" d=" M 688.91 229.21 C 690.51 228.12 692.28 230.92 690.85 232.06 C 690.05 231.21 689.40 230.25 688.91 229.21 Z" />
<path fill="#ca9656" opacity="1.00" d=" M 700.39 246.62 C 702.78 248.31 703.93 251.05 705.34 253.51 C 711.60 264.29 717.19 275.47 722.12 286.93 C 723.69 290.40 725.62 293.82 725.95 297.71 C 718.75 280.05 710.18 262.98 700.39 246.62 Z" />
<path fill="#ca9656" opacity="1.00" d=" M 119.37 259.45 C 120.51 257.38 121.54 255.16 123.45 253.67 C 111.96 273.99 102.29 295.33 95.02 317.53 C 94.94 314.05 96.65 310.98 97.74 307.79 C 103.49 291.07 110.67 274.84 119.37 259.45 Z" />
<path fill="#ca9656" opacity="1.00" d=" M 737.10 331.12 L 737.99 331.35 L 738.36 332.37 L 737.82 333.11 C 737.64 332.61 737.28 331.62 737.10 331.12 Z" />
<path fill="#ca9656" opacity="1.00" d=" M 738.13 334.16 C 739.84 334.65 740.05 335.58 738.78 336.96 C 738.23 336.10 738.01 335.16 738.13 334.16 Z" />
<path fill="#ca9656" opacity="1.00" d=" M 89.00 335.30 L 89.90 335.06 C 89.73 335.56 89.38 336.56 89.21 337.06 L 88.65 336.33 L 89.00 335.30 Z" />
<path fill="#ca9656" opacity="1.00" d=" M 739.11 338.13 C 740.82 338.61 741.04 339.54 739.77 340.93 C 739.22 340.07 738.99 339.14 739.11 338.13 Z" />
<path fill="#ca9656" opacity="1.00" d=" M 87.94 339.29 L 88.82 339.01 C 88.67 339.52 88.38 340.53 88.24 341.04 L 87.65 340.34 L 87.94 339.29 Z" />
<path fill="#ca9656" opacity="1.00" d=" M 740.13 342.12 C 741.82 342.63 742.02 343.57 740.72 344.94 C 740.19 344.06 739.99 343.12 740.13 342.12 Z" />
<path fill="#ca9656" opacity="1.00" d=" M 86.94 343.30 L 87.81 343.02 C 87.67 343.53 87.37 344.54 87.23 345.05 L 86.64 344.34 L 86.94 343.30 Z" />
<path fill="#ca9656" opacity="1.00" d=" M 86.29 349.92 C 84.96 348.53 85.16 347.59 86.88 347.11 C 86.98 348.10 86.78 349.04 86.29 349.92 Z" />
<path fill="#ca9656" opacity="1.00" d=" M 741.11 347.10 C 742.83 347.51 743.09 348.43 741.88 349.87 C 741.28 349.03 741.02 348.11 741.11 347.10 Z" />
<path fill="#ca9656" opacity="1.00" d=" M 742.10 351.22 C 744.03 350.83 744.28 354.13 742.78 354.83 C 742.39 353.65 742.12 352.45 742.10 351.22 Z" />
<path fill="#ca9656" opacity="1.00" d=" M 743.06 356.21 C 745.02 355.73 745.27 359.09 743.74 359.77 C 743.38 358.61 743.11 357.42 743.06 356.21 Z" />
<path fill="#ca9656" opacity="1.00" d=" M 84.15 359.85 C 82.92 358.41 83.18 357.49 84.94 357.11 C 84.99 358.11 84.73 359.02 84.15 359.85 Z" />
<path fill="#ca9656" opacity="1.00" d=" M 83.24 365.77 C 81.72 365.09 81.93 361.79 83.87 362.18 C 83.88 363.40 83.60 364.60 83.24 365.77 Z" />
<path fill="#ca9656" opacity="1.00" d=" M 744.13 362.20 C 746.08 361.74 746.33 365.08 744.80 365.76 C 744.44 364.59 744.15 363.41 744.13 362.20 Z" />
<path fill="#ca9656" opacity="1.00" d=" M 82.42 371.01 C 81.02 369.69 81.17 368.74 82.86 368.16 C 83.01 369.15 82.86 370.10 82.42 371.01 Z" />
<path fill="#ca9656" opacity="1.00" d=" M 745.13 368.20 C 747.08 367.79 747.24 371.14 745.72 371.79 C 745.37 370.62 745.12 369.42 745.13 368.20 Z" />
<path fill="#ca9656" opacity="1.00" d=" M 747.11 382.28 C 749.38 382.44 749.17 386.46 747.68 387.68 C 747.40 385.88 747.17 384.08 747.11 382.28 Z" />
<path fill="#ca9656" opacity="1.00" d=" M 748.15 393.03 L 749.08 392.88 C 749.07 395.67 749.02 398.46 748.83 401.25 C 748.63 398.50 748.35 395.77 748.15 393.03 Z" />
<path fill="#ca9656" opacity="1.00" d=" M 75.45 411.14 C 75.20 408.39 75.21 405.62 75.52 402.87 C 75.80 405.62 75.77 408.39 75.45 411.14 Z" />
<path fill="#ca9656" opacity="1.00" d=" M 749.25 412.58 L 749.69 411.27 C 750.29 418.37 750.25 425.56 749.70 432.67 L 749.26 431.41 C 749.25 425.14 749.26 418.86 749.25 412.58 Z" />
<path fill="#ca9656" opacity="1.00" d=" M 77.97 413.97 L 78.86 414.01 C 78.66 419.33 78.66 424.66 78.86 429.99 L 77.97 430.03 C 77.93 424.68 77.92 419.33 77.97 413.97 Z" />
<path fill="#ca9656" opacity="1.00" d=" M 748.15 449.99 C 748.34 447.24 748.64 444.51 748.83 441.78 C 749.01 444.52 749.07 447.28 749.08 450.05 L 748.15 449.99 Z" />
<path fill="#ca9656" opacity="1.00" d=" M 75.48 444.91 C 75.77 447.66 75.77 450.43 75.53 453.19 C 75.20 450.44 75.20 447.66 75.48 444.91 Z" />
<path fill="#ca9656" opacity="1.00" d=" M 747.10 460.75 C 747.15 458.94 747.39 457.14 747.68 455.36 C 749.15 456.57 749.37 460.64 747.10 460.75 Z" />
<path fill="#ca9656" opacity="1.00" d=" M 746.04 468.79 C 746.11 467.26 746.38 465.76 746.71 464.27 C 748.14 465.24 748.20 469.02 746.04 468.79 Z" />
<path fill="#ca9656" opacity="1.00" d=" M 81.42 465.02 C 81.87 465.91 82.02 466.86 81.88 467.86 C 80.18 467.27 80.03 466.32 81.42 465.02 Z" />
<path fill="#ca9656" opacity="1.00" d=" M 82.26 471.25 C 82.60 472.40 82.87 473.60 82.88 474.83 C 80.92 475.24 80.72 471.89 82.26 471.25 Z" />
<path fill="#ca9656" opacity="1.00" d=" M 744.93 476.60 C 745.01 474.81 745.34 473.05 745.71 471.31 C 747.15 472.54 747.19 476.58 744.93 476.60 Z" />
<path fill="#ca9656" opacity="1.00" d=" M 83.24 477.21 C 83.60 478.37 83.89 479.56 83.91 480.79 C 81.96 481.19 81.71 477.88 83.24 477.21 Z" />
<path fill="#ca9656" opacity="1.00" d=" M 744.12 481.00 C 744.26 480.49 744.53 479.47 744.66 478.96 L 745.27 479.66 L 744.99 480.71 L 744.12 481.00 Z" />
<path fill="#ca9656" opacity="1.00" d=" M 743.07 486.82 C 743.12 485.57 743.40 484.36 743.78 483.19 C 745.27 483.90 745.01 487.22 743.07 486.82 Z" />
<path fill="#ca9656" opacity="1.00" d=" M 85.25 488.23 C 85.64 489.37 85.89 490.57 85.91 491.80 C 83.96 492.22 83.73 488.90 85.25 488.23 Z" />
<path fill="#ca9656" opacity="1.00" d=" M 742.09 491.83 C 742.13 490.57 742.43 489.35 742.83 488.17 C 744.31 488.90 744.01 492.17 742.09 491.83 Z" />
<path fill="#ca9656" opacity="1.00" d=" M 86.12 493.13 C 86.71 493.94 86.99 494.86 86.96 495.87 C 85.20 495.49 84.92 494.58 86.12 493.13 Z" />
<path fill="#ca9656" opacity="1.00" d=" M 741.16 495.84 C 741.08 494.82 741.33 493.89 741.90 493.05 C 743.13 494.46 742.89 495.39 741.16 495.84 Z" />
<path fill="#ca9656" opacity="1.00" d=" M 740.03 500.78 C 739.97 499.76 740.23 498.84 740.79 498.00 C 742.03 499.42 741.77 500.35 740.03 500.78 Z" />
<path fill="#ca9656" opacity="1.00" d=" M 90.31 509.91 C 90.42 510.42 90.64 511.46 90.75 511.98 L 89.90 511.65 L 89.67 510.59 L 90.31 509.91 Z" />
<path fill="#ca9656" opacity="1.00" d=" M 91.18 513.12 C 91.74 513.96 91.97 514.89 91.87 515.91 C 90.14 515.43 89.91 514.50 91.18 513.12 Z" />
<path fill="#ca9656" opacity="1.00" d=" M 92.25 516.90 C 92.37 517.41 92.62 518.44 92.74 518.96 L 91.88 518.64 L 91.63 517.58 L 92.25 516.90 Z" />
<path fill="#ca9656" opacity="1.00" d=" M 93.08 520.04 C 93.29 520.53 93.72 521.50 93.93 521.98 L 93.02 521.81 L 92.59 520.81 L 93.08 520.04 Z" />
<path fill="#ca9656" opacity="1.00" d=" M 733.10 525.66 C 733.52 523.84 734.03 522.04 734.67 520.29 C 736.26 521.71 735.49 525.96 733.10 525.66 Z" />
<path fill="#ca9656" opacity="1.00" d=" M 732.12 528.82 C 732.29 528.31 732.61 527.31 732.77 526.81 L 733.35 527.53 L 733.01 528.57 L 732.12 528.82 Z" />
<path fill="#ca9656" opacity="1.00" d=" M 728.94 537.49 C 729.85 534.74 730.90 532.05 731.95 529.36 C 731.85 532.33 731.04 535.30 728.94 537.49 Z" />
<path fill="#ca9656" opacity="1.00" d=" M 724.11 549.72 C 724.48 548.41 724.98 547.14 725.61 545.95 C 727.23 546.98 726.13 550.60 724.11 549.72 Z" />
<path fill="#ca9656" opacity="1.00" d=" M 695.41 604.55 C 706.25 587.19 716.06 569.15 723.93 550.24 C 723.62 554.18 721.46 557.58 720.00 561.16 C 714.49 572.73 708.76 584.23 702.00 595.14 C 699.92 598.36 698.48 602.10 695.41 604.55 Z" />
<path fill="#ca9656" opacity="1.00" d=" M 108.04 559.36 C 116.61 578.23 127.06 596.16 138.60 613.35 C 137.71 612.65 136.90 611.88 136.17 611.04 C 125.78 595.90 116.82 579.82 108.95 563.24 C 108.48 561.98 108.17 560.69 108.04 559.36 Z" />
<path fill="#ca9656" opacity="1.00" d=" M 693.92 606.80 C 694.19 606.35 694.74 605.44 695.02 604.99 L 695.42 605.82 L 694.86 606.75 L 693.92 606.80 Z" />
<path fill="#ca9656" opacity="1.00" d=" M 689.80 612.58 C 690.71 611.07 691.72 609.61 692.84 608.25 C 694.13 610.05 692.02 613.65 689.80 612.58 Z" />
<path fill="#ca9656" opacity="1.00" d=" M 138.70 613.49 C 140.69 616.03 142.59 618.66 144.41 621.33 C 141.63 619.48 139.61 616.70 138.70 613.49 Z" />
<path fill="#ca9656" opacity="1.00" d=" M 684.73 619.87 C 684.99 619.41 685.52 618.49 685.79 618.03 L 686.19 618.87 L 685.64 619.82 L 684.73 619.87 Z" />
<path fill="#ca9656" opacity="1.00" d=" M 627.52 680.42 C 648.65 662.82 667.55 642.66 684.15 620.75 C 680.41 628.17 674.40 634.11 669.22 640.51 C 663.06 648.23 655.73 654.87 648.85 661.92 C 644.77 665.92 640.92 670.17 636.39 673.68 C 633.39 675.88 631.33 679.47 627.52 680.42 Z" />
<path fill="#ca9656" opacity="1.00" d=" M 144.69 621.71 C 146.99 624.53 149.22 627.41 151.33 630.39 C 148.24 628.29 145.97 625.19 144.69 621.71 Z" />
<path fill="#ca9656" opacity="1.00" d=" M 151.62 630.76 C 165.98 648.37 181.90 664.68 199.24 679.36 C 197.24 678.64 195.54 677.37 194.05 675.89 C 183.77 667.23 174.66 657.29 165.17 647.80 C 160.85 641.97 154.76 637.40 151.62 630.76 Z" />
<path fill="#ca9656" opacity="1.00" d=" M 199.65 679.70 C 201.60 681.22 203.54 682.75 205.43 684.35 C 202.71 683.97 200.97 681.91 199.65 679.70 Z" />
<path fill="#ca9656" opacity="1.00" d=" M 614.00 690.93 C 614.78 690.07 615.68 689.35 616.71 688.81 C 617.87 690.33 615.22 692.30 614.00 690.93 Z" />
<path fill="#ca9656" opacity="1.00" d=" M 606.64 696.34 C 608.83 694.70 611.07 693.14 613.29 691.55 C 612.04 694.25 609.28 695.44 606.64 696.34 Z" />
<path fill="#ca9656" opacity="1.00" d=" M 523.26 738.91 C 552.70 728.58 580.70 714.29 606.35 696.54 C 604.58 699.49 601.33 700.90 598.56 702.71 C 583.82 712.00 568.82 721.05 552.73 727.83 C 544.37 731.74 535.77 735.07 527.12 738.25 C 525.85 738.59 524.56 738.81 523.26 738.91 Z" />
<path fill="#ca9656" opacity="1.00" d=" M 233.55 704.47 C 260.61 721.48 289.91 734.93 320.61 743.89 C 318.46 743.69 316.32 743.38 314.27 742.72 C 286.65 733.93 259.85 722.15 235.46 706.43 C 234.98 705.94 234.03 704.96 233.55 704.47 Z" />
<path fill="#ca9656" opacity="1.00" d=" M 500.95 745.79 C 501.45 745.61 502.45 745.26 502.95 745.08 L 502.71 745.98 L 501.68 746.34 L 500.95 745.79 Z" />
<path fill="#ca9656" opacity="1.00" d=" M 329.05 746.09 C 329.55 746.27 330.55 746.61 331.05 746.78 L 330.32 747.34 L 329.29 746.99 L 329.05 746.09 Z" />
<path fill="#ca9656" opacity="1.00" d=" M 496.96 746.76 C 497.47 746.62 498.49 746.33 499.00 746.18 L 498.71 747.06 L 497.67 747.35 L 496.96 746.76 Z" />
<path fill="#ca9656" opacity="1.00" d=" M 333.03 747.19 C 333.54 747.34 334.55 747.63 335.06 747.78 L 334.35 748.37 L 333.31 748.06 L 333.03 747.19 Z" />
<path fill="#ca9656" opacity="1.00" d=" M 492.96 747.78 C 493.46 747.63 494.48 747.33 494.99 747.18 L 494.71 748.06 L 493.67 748.36 L 492.96 747.78 Z" />
<path fill="#ca9656" opacity="1.00" d=" M 337.11 748.10 C 338.11 748.02 339.03 748.28 339.87 748.88 C 338.42 750.09 337.50 749.83 337.11 748.10 Z" />
<path fill="#ca9656" opacity="1.00" d=" M 488.14 748.88 C 488.96 748.28 489.88 748.02 490.90 748.10 C 490.49 749.83 489.57 750.09 488.14 748.88 Z" />
<path fill="#ca9656" opacity="1.00" d=" M 341.20 749.11 C 342.41 749.14 343.60 749.43 344.76 749.82 C 344.07 751.33 340.74 751.05 341.20 749.11 Z" />
<path fill="#ca9656" opacity="1.00" d=" M 483.26 749.83 C 484.41 749.43 485.59 749.14 486.82 749.10 C 487.28 751.03 483.95 751.34 483.26 749.83 Z" />
<path fill="#ca9656" opacity="1.00" d=" M 346.18 750.09 C 347.40 750.16 348.59 750.46 349.76 750.84 C 349.05 752.37 345.73 752.03 346.18 750.09 Z" />
<path fill="#ca9656" opacity="1.00" d=" M 479.13 750.78 C 479.97 750.23 480.90 750.00 481.92 750.11 C 481.44 751.83 480.51 752.05 479.13 750.78 Z" />
<path fill="#ca9656" opacity="1.00" d=" M 351.20 751.08 C 352.42 751.11 353.62 751.38 354.79 751.74 C 354.11 753.26 350.76 753.03 351.20 751.08 Z" />
<path fill="#ca9656" opacity="1.00" d=" M 473.25 751.75 C 474.40 751.39 475.59 751.11 476.83 751.12 C 477.22 753.05 473.89 753.28 473.25 751.75 Z" />
<path fill="#ca9656" opacity="1.00" d=" M 357.20 752.11 C 358.42 752.12 359.61 752.39 360.78 752.77 C 360.10 754.27 356.76 754.06 357.20 752.11 Z" />
<path fill="#ca9656" opacity="1.00" d=" M 467.20 752.79 C 468.36 752.42 469.56 752.14 470.80 752.13 C 471.19 754.07 467.87 754.31 467.20 752.79 Z" />
<path fill="#ca9656" opacity="1.00" d=" M 363.16 753.13 C 364.15 752.96 365.10 753.09 366.01 753.54 C 364.73 754.94 363.78 754.81 363.16 753.13 Z" />
<path fill="#ca9656" opacity="1.00" d=" M 461.99 753.55 C 462.89 753.09 463.84 752.95 464.84 753.13 C 464.23 754.80 463.28 754.94 461.99 753.55 Z" />
<path fill="#ca9656" opacity="1.00" d=" M 379.27 755.14 C 381.38 755.22 383.48 755.46 385.58 755.74 C 384.04 757.17 379.73 757.53 379.27 755.14 Z" />
<path fill="#ca9656" opacity="1.00" d=" M 442.40 755.74 C 444.50 755.46 446.61 755.22 448.74 755.14 C 448.25 757.53 443.95 757.15 442.40 755.74 Z" />
<path fill="#ca9656" opacity="1.00" d=" M 438.57 763.36 C 439.93 762.44 442.02 762.46 443.41 763.33 C 442.87 764.73 439.09 764.79 438.57 763.36 Z" />
<path fill="#ca9656" opacity="1.00" d=" M 393.89 764.45 C 405.96 764.07 418.06 764.04 430.13 764.45 C 424.43 765.06 418.71 764.67 413.00 764.75 C 406.63 764.69 400.24 765.08 393.89 764.45 Z" />
</g>
<g id="#ba1b40ff">
<path fill="#ba1b40" opacity="1.00" d=" M 270.02 486.97 C 280.86 483.48 292.91 484.32 303.42 488.53 C 306.47 489.85 310.29 491.20 310.99 494.91 C 310.42 501.11 308.68 507.14 307.74 513.30 C 304.17 513.38 300.59 513.32 297.02 513.09 C 296.12 508.00 295.86 502.75 294.19 497.84 C 287.61 493.01 277.94 493.07 270.87 496.88 C 267.71 500.59 267.26 506.41 268.93 510.92 C 270.52 515.05 274.31 517.72 278.03 519.81 C 287.17 524.74 297.78 527.18 305.70 534.22 C 314.76 542.09 314.59 557.80 305.71 565.75 C 298.22 572.36 287.77 574.27 278.06 574.02 C 268.27 573.61 258.18 571.71 249.88 566.23 C 249.86 559.81 249.91 553.40 250.02 546.99 C 253.93 546.67 257.86 546.60 261.78 546.72 C 262.46 551.56 263.79 556.27 265.12 560.97 C 272.24 564.78 280.79 565.17 288.54 563.42 C 292.46 562.70 294.05 558.60 294.64 555.12 C 295.71 550.38 292.96 545.52 288.90 543.13 C 279.03 536.89 266.80 534.96 257.81 527.19 C 249.74 520.43 248.14 507.57 253.81 498.81 C 257.44 492.95 263.63 489.18 270.02 486.97 Z" />
<path fill="#ba1b40" opacity="1.00" d=" M 346.01 487.15 C 359.08 482.71 373.81 484.80 385.82 491.31 C 386.38 492.81 387.57 494.25 387.33 495.95 C 386.62 501.80 385.33 507.58 384.05 513.34 C 380.45 513.39 376.85 513.37 373.28 512.90 C 372.88 507.69 371.94 502.53 370.68 497.46 C 363.98 493.53 355.43 493.03 348.39 496.31 C 345.81 497.50 345.24 500.60 344.73 503.10 C 343.39 508.49 346.11 514.25 350.62 517.30 C 360.65 524.50 373.93 526.17 382.94 534.97 C 391.04 542.81 390.94 557.17 382.85 565.00 C 374.81 572.95 362.68 574.55 351.86 573.90 C 343.14 573.08 333.90 571.50 326.71 566.20 C 325.74 559.92 326.56 553.33 326.75 546.95 C 330.53 546.68 334.31 546.62 338.10 546.66 C 339.34 551.43 339.72 556.63 342.03 561.00 C 347.04 564.18 353.26 564.53 359.04 564.32 C 362.26 564.06 365.83 563.79 368.44 561.66 C 371.09 558.16 371.83 553.35 370.65 549.17 C 369.10 545.35 365.47 542.92 361.95 541.10 C 352.60 536.42 341.92 533.94 333.95 526.85 C 326.81 520.61 324.84 509.50 329.07 501.08 C 332.31 494.19 339.00 489.61 346.01 487.15 Z" />
<path fill="#ba1b40" opacity="1.00" d=" M 420.13 488.06 C 432.77 482.83 447.66 484.10 459.81 490.11 C 461.86 490.95 463.42 492.71 463.98 494.87 C 463.37 501.09 461.65 507.14 460.69 513.31 C 457.12 513.37 453.56 513.32 450.01 513.09 C 449.08 508.01 448.83 502.76 447.14 497.85 C 441.79 493.69 434.23 493.42 427.89 495.17 C 425.92 495.77 423.47 496.38 422.62 498.49 C 419.69 504.25 420.49 512.05 425.75 516.22 C 435.79 524.39 449.89 525.70 459.32 534.83 C 465.59 540.83 466.90 550.72 463.72 558.58 C 461.01 564.92 455.08 569.32 448.71 571.53 C 440.50 574.30 431.62 574.62 423.11 573.30 C 415.98 572.38 408.95 570.19 402.88 566.29 C 402.90 559.85 402.84 553.42 403.02 546.99 C 406.91 546.67 410.82 546.60 414.72 546.71 C 415.46 551.54 416.73 556.27 418.11 560.97 C 425.21 564.81 433.81 565.18 441.55 563.37 C 446.19 562.47 447.57 557.11 447.73 553.05 C 448.01 548.33 444.51 544.45 440.62 542.32 C 430.95 536.78 419.43 534.62 410.83 527.24 C 404.78 522.16 402.19 513.65 403.89 506.01 C 405.51 497.58 412.43 491.20 420.13 488.06 Z" />
<path fill="#ba1b40" opacity="1.00" d=" M 476.77 486.90 C 501.77 486.66 526.81 487.63 551.77 485.88 C 552.72 487.55 554.26 489.05 554.61 490.99 C 554.44 497.91 553.29 504.75 552.90 511.65 C 549.33 512.03 545.73 511.94 542.21 511.30 C 541.44 506.17 540.20 501.13 539.08 496.07 C 533.99 495.62 528.89 495.23 523.78 495.26 C 523.55 512.83 523.63 530.41 523.73 547.99 C 524.32 552.45 523.24 557.36 525.41 561.48 C 528.25 563.67 531.85 564.52 535.24 565.49 C 534.87 567.67 534.41 569.83 533.94 572.01 C 521.41 571.97 508.87 572.05 496.34 571.97 C 495.93 569.84 495.50 567.73 494.99 565.64 C 498.61 564.42 502.29 563.37 505.91 562.16 C 507.42 539.91 506.80 517.60 506.87 495.31 C 501.70 495.22 496.54 495.67 491.40 496.14 C 490.34 501.45 489.11 506.74 487.90 512.03 C 484.18 512.12 480.45 512.06 476.76 511.53 C 476.14 503.34 476.13 495.09 476.77 486.90 Z" />
<path fill="#ba1b40" opacity="1.00" d=" M 569.99 486.88 C 590.35 486.76 610.74 487.41 631.06 485.85 C 632.18 487.77 634.55 489.48 633.95 491.97 C 632.99 498.36 631.59 504.68 630.75 511.09 C 627.31 511.07 623.82 511.37 620.42 510.73 C 619.33 505.94 618.67 501.07 617.62 496.27 C 609.12 495.59 600.49 494.59 592.02 496.09 C 589.65 496.35 590.45 499.34 590.15 500.96 C 590.17 509.22 589.46 517.46 589.72 525.72 C 598.60 525.43 607.46 524.64 616.35 524.72 C 617.17 525.39 617.95 526.10 618.72 526.86 C 618.14 529.68 617.63 532.52 617.04 535.35 C 607.92 535.12 598.79 535.17 589.69 534.60 C 589.46 541.42 589.96 548.22 590.09 555.04 C 590.12 557.31 590.65 559.54 591.31 561.71 C 600.35 564.32 610.04 563.42 619.26 562.37 C 621.04 557.62 621.62 552.50 623.10 547.65 C 626.76 547.64 630.43 547.65 634.09 547.89 C 634.32 555.93 634.30 563.96 634.09 572.00 C 610.17 571.95 586.24 572.09 562.32 571.93 C 561.97 569.72 561.59 567.53 561.25 565.33 C 564.85 564.45 568.40 563.36 571.93 562.21 C 573.27 546.53 572.82 530.79 572.89 515.08 C 572.71 509.49 572.81 503.83 571.66 498.33 C 569.28 494.99 564.69 494.58 561.11 493.17 C 561.53 491.21 561.85 489.22 562.41 487.29 C 564.80 486.47 567.48 487.02 569.99 486.88 Z" />
<path fill="#ba1b40" opacity="1.00" d=" M 197.95 486.89 C 210.51 486.95 223.07 486.77 235.62 486.99 C 235.99 489.08 236.37 491.19 236.77 493.29 C 233.22 494.36 229.68 495.48 226.10 496.44 C 224.75 509.24 225.18 522.13 225.11 534.97 C 225.17 542.68 224.83 550.44 225.85 558.10 C 225.97 563.72 232.92 563.93 236.86 565.60 C 236.17 567.60 236.44 570.21 235.13 571.88 C 222.73 572.18 210.31 571.90 197.91 572.00 C 197.42 569.81 197.00 567.60 196.65 565.39 C 200.26 564.43 203.83 563.33 207.39 562.25 C 208.32 554.20 207.69 546.09 208.27 538.03 C 208.38 530.70 208.49 523.37 208.04 516.06 C 207.83 510.75 208.34 505.39 207.49 500.13 C 206.82 494.94 200.36 494.90 196.54 493.19 C 196.98 491.08 197.45 488.98 197.95 486.89 Z" />
</g>
</svg>
