<?xml version="1.0" encoding="UTF-8" ?>
<!DOCTYPE svg PUBLIC "-//W3C//DTD SVG 1.1//EN" "http://www.w3.org/Graphics/SVG/1.1/DTD/svg11.dtd">
<svg width="824pt" height="1067pt" viewBox="0 0 824 1067" version="1.1" xmlns="http://www.w3.org/2000/svg">
<g id="#bb4a05ff">
<path fill="#bb4a05" opacity="1.00" d=" M 400.68 0.00 L 423.19 0.00 C 470.59 1.49 517.78 10.82 561.92 28.23 C 631.50 55.45 693.23 102.14 738.65 161.44 C 782.24 218.04 810.68 286.19 819.98 357.03 C 826.57 406.27 823.80 456.51 813.96 505.12 C 801.10 568.86 776.55 629.78 745.78 686.90 C 700.31 770.84 641.75 847.08 577.29 917.25 C 530.06 968.37 479.62 1016.61 425.56 1060.47 C 421.70 1063.69 417.31 1067.12 411.97 1066.82 C 406.94 1067.15 402.60 1064.24 398.95 1061.13 C 363.07 1032.24 329.02 1001.12 296.19 968.82 C 246.82 919.91 200.45 867.87 158.77 812.22 C 112.55 750.41 71.85 683.98 42.59 612.40 C 16.77 549.27 0.50 481.67 0.00 413.25 L 0.00 410.43 C 0.38 377.38 4.14 344.31 12.24 312.24 C 32.90 228.37 81.12 151.73 147.34 96.34 C 185.29 64.41 229.05 39.38 275.86 23.00 C 315.93 8.86 358.23 1.34 400.68 0.00 M 349.02 92.44 L 348.32 91.83 L 347.27 92.11 L 346.97 92.98 C 335.80 94.79 324.72 97.70 314.02 101.35 L 313.33 100.73 L 312.27 100.99 L 311.96 101.85 L 310.89 102.18 L 310.13 101.66 L 309.12 102.05 L 308.92 102.95 L 307.89 103.11 L 307.11 102.64 L 306.12 103.09 L 305.97 104.01 L 305.13 104.22 C 302.58 105.05 299.22 104.80 297.28 106.79 C 291.24 109.07 285.23 111.45 279.36 114.13 C 276.23 114.59 273.44 116.07 270.97 117.97 L 270.25 118.30 C 259.46 122.96 249.02 128.37 238.93 134.39 L 239.10 135.27 C 237.48 136.16 235.83 136.99 234.15 137.75 C 233.85 138.13 233.24 138.89 232.94 139.27 L 232.17 138.78 L 231.18 139.19 L 231.00 140.08 C 230.71 140.35 230.13 140.90 229.85 141.17 L 229.04 140.73 L 228.07 141.22 L 227.96 142.13 C 227.68 142.38 227.12 142.87 226.84 143.12 L 225.98 142.77 L 225.07 143.37 L 225.07 144.30 C 218.01 148.61 211.55 153.89 205.02 158.96 C 201.67 160.83 198.80 163.38 195.97 165.94 C 192.09 169.44 187.72 172.40 184.20 176.29 C 178.49 182.54 172.27 188.29 166.28 194.25 C 160.30 201.89 152.88 208.44 148.04 216.93 C 142.20 224.10 137.11 231.84 131.86 239.46 C 131.07 240.85 130.27 242.24 129.48 243.64 C 126.64 246.13 124.95 249.55 123.79 253.09 C 121.78 256.23 120.11 259.57 118.22 262.78 C 116.00 266.99 113.85 271.24 111.74 275.51 C 110.77 277.53 109.79 279.56 108.83 281.59 C 103.73 293.49 98.45 305.44 95.02 317.94 L 94.12 318.14 L 93.73 319.16 L 94.25 319.92 L 93.84 321.03 C 92.53 323.94 91.63 327.02 91.09 330.17 C 88.84 339.03 86.19 347.86 84.99 356.95 L 84.11 357.24 L 83.84 358.29 L 84.44 358.99 C 81.58 373.12 80.06 387.53 79.13 401.91 C 79.16 411.25 78.04 420.58 78.77 429.92 C 79.48 459.33 83.68 488.84 92.37 516.98 L 91.74 517.66 L 91.98 518.72 L 92.84 519.04 L 93.14 520.09 L 92.66 520.88 L 93.11 521.87 L 94.02 522.02 C 94.83 527.08 97.07 531.75 98.69 536.57 C 101.60 545.07 105.24 553.29 108.83 561.51 C 112.15 568.48 115.59 575.40 119.21 582.22 C 120.81 584.95 122.38 587.71 123.76 590.57 C 124.10 590.96 124.78 591.73 125.11 592.12 C 123.89 593.47 125.54 596.55 127.37 595.71 C 128.12 597.39 129.00 599.01 129.82 600.66 C 130.15 601.04 130.80 601.79 131.12 602.17 C 134.59 607.51 137.92 612.96 141.86 617.97 C 143.30 620.88 145.17 623.56 147.26 626.05 C 155.53 636.59 164.04 647.00 173.85 656.16 C 180.68 662.62 186.67 669.96 194.18 675.68 C 199.49 679.89 204.14 685.09 210.21 688.25 C 211.64 689.49 213.21 690.59 214.78 691.67 C 216.33 693.90 218.66 695.30 221.18 696.20 C 223.37 697.80 225.58 699.37 227.82 700.92 C 228.21 701.22 228.98 701.82 229.37 702.12 C 232.18 703.63 234.88 705.33 237.51 707.14 C 241.17 709.28 244.80 711.47 248.46 713.63 C 251.85 715.46 255.27 717.25 258.58 719.23 C 259.10 719.48 260.14 719.98 260.66 720.23 C 262.65 721.22 264.63 722.24 266.62 723.24 C 267.67 723.73 268.73 724.23 269.79 724.74 C 288.82 733.54 308.48 741.30 328.94 746.01 L 329.22 746.90 L 330.26 747.20 L 330.97 746.61 C 332.90 747.35 334.92 747.81 336.98 748.03 L 337.28 748.90 L 338.33 749.17 L 339.03 748.56 C 352.80 751.97 366.93 753.97 381.04 755.43 C 421.18 759.16 462.10 756.27 501.03 745.59 L 501.74 746.19 L 502.79 745.88 L 503.06 745.00 C 504.72 744.75 506.37 744.36 507.96 743.80 C 510.69 742.90 514.90 743.47 516.67 741.21 C 521.80 739.43 527.12 737.97 532.05 735.64 L 532.80 736.18 L 533.83 735.80 L 534.04 734.90 C 536.00 734.52 537.84 733.71 539.65 732.88 C 545.74 731.39 551.12 728.08 556.93 725.84 C 565.21 722.54 572.77 717.77 580.59 713.57 C 585.09 710.83 589.88 708.49 593.82 704.94 C 598.35 702.25 602.81 699.44 606.93 696.16 C 608.58 695.35 610.23 694.55 611.93 693.82 C 612.19 693.31 612.71 692.29 612.97 691.78 C 614.61 690.64 616.28 689.54 617.82 688.25 C 625.84 683.54 632.60 676.92 639.31 670.53 C 639.47 670.39 639.77 670.11 639.93 669.97 C 648.09 662.80 655.30 654.65 663.24 647.25 C 666.44 643.09 670.62 639.61 673.00 634.87 C 673.21 634.59 673.64 634.02 673.85 633.73 C 675.76 634.80 678.17 631.64 676.77 630.00 C 677.02 629.68 677.52 629.05 677.76 628.73 C 679.68 629.75 682.02 626.63 680.81 624.94 C 681.07 624.65 681.58 624.06 681.84 623.77 C 683.72 622.14 685.23 620.14 686.19 617.84 C 686.34 617.61 686.66 617.16 686.82 616.94 C 687.32 616.69 688.34 616.20 688.84 615.96 C 689.52 614.25 690.29 612.59 691.07 610.94 C 691.23 610.69 691.55 610.18 691.72 609.92 L 692.65 609.94 L 693.26 609.04 L 692.91 608.18 C 693.12 607.81 693.55 607.07 693.77 606.70 C 695.87 607.41 697.91 603.83 696.83 602.08 C 697.11 601.79 697.68 601.21 697.97 600.92 C 704.69 591.31 710.24 580.91 715.30 570.34 C 717.34 566.18 720.07 562.24 720.87 557.58 C 721.68 555.90 722.42 554.20 723.19 552.51 C 724.09 550.09 725.12 547.73 726.02 545.31 C 727.49 543.09 728.39 540.56 728.83 537.94 C 730.39 533.94 732.00 529.93 732.92 525.73 C 735.24 525.87 736.09 521.72 734.66 520.16 L 735.01 519.05 L 735.90 518.80 L 736.24 517.76 L 735.68 517.03 L 736.21 516.09 L 737.02 515.69 L 737.16 514.61 L 736.47 514.00 C 740.55 501.60 742.93 488.67 745.09 475.81 C 747.99 459.04 749.05 442.02 749.45 425.02 C 749.58 390.55 745.21 355.85 734.73 322.96 L 735.28 322.21 L 734.91 321.18 L 734.01 320.96 C 733.11 316.48 731.63 312.08 729.67 307.95 L 730.28 307.25 L 730.00 306.20 L 729.13 305.90 L 728.76 304.86 L 729.23 304.07 L 728.77 303.09 L 727.86 302.95 C 725.47 294.84 721.49 287.30 718.27 279.51 C 715.15 273.24 712.08 266.95 708.79 260.77 C 706.20 256.37 703.70 251.92 701.14 247.50 C 696.15 239.95 691.67 231.99 685.88 225.01 C 687.23 223.81 685.33 221.16 683.81 222.24 C 683.57 221.92 683.09 221.29 682.85 220.97 C 684.25 219.76 682.29 217.12 680.76 218.22 C 680.52 217.91 680.05 217.30 679.81 217.00 C 681.17 215.35 678.80 212.21 676.89 213.26 C 676.71 213.01 676.36 212.51 676.18 212.26 C 674.69 208.54 671.61 205.87 669.09 202.87 C 665.96 199.26 663.19 195.31 659.60 192.12 C 652.89 185.95 646.74 179.21 640.24 172.84 C 634.36 168.39 629.55 162.60 623.03 158.99 C 616.51 153.86 610.00 148.61 602.92 144.28 L 602.92 143.35 L 602.00 142.76 L 601.15 143.13 C 600.86 142.86 600.27 142.32 599.98 142.04 L 599.87 141.13 L 598.90 140.65 L 598.09 141.11 C 597.79 140.85 597.17 140.33 596.86 140.07 C 590.49 134.45 582.66 130.90 575.36 126.68 C 570.57 124.85 566.61 121.17 561.55 120.09 C 557.90 118.27 554.20 116.55 550.52 114.83 C 542.09 111.41 533.82 107.41 525.03 105.04 L 524.90 104.13 L 523.93 103.65 L 523.14 104.10 L 522.07 103.98 L 521.89 103.07 L 520.89 102.65 L 520.12 103.15 L 519.07 102.89 L 518.80 102.01 L 517.75 101.70 L 517.04 102.29 C 512.35 100.29 507.32 99.29 502.47 97.78 C 497.00 96.48 491.63 94.60 486.02 94.03 L 485.79 93.14 L 484.77 92.78 L 484.03 93.33 C 483.28 93.24 481.80 93.05 481.06 92.96 L 480.75 92.09 L 479.69 91.83 L 479.01 92.45 C 436.25 83.98 391.78 84.01 349.02 92.44 Z" />
</g>
<g id="#ffffffff">
<path fill="#ffffff" opacity="1.00" d=" M 349.02 92.44 C 391.78 84.01 436.25 83.98 479.01 92.45 C 479.52 92.58 480.54 92.83 481.06 92.96 C 481.80 93.05 483.28 93.24 484.03 93.33 C 484.53 93.51 485.52 93.85 486.02 94.03 C 491.63 94.60 497.00 96.48 502.47 97.78 C 507.32 99.29 512.35 100.29 517.04 102.29 C 517.55 102.44 518.56 102.74 519.07 102.89 L 520.12 103.15 C 520.61 103.36 521.59 103.77 522.07 103.98 L 523.14 104.10 C 523.61 104.33 524.56 104.80 525.03 105.04 C 533.82 107.41 542.09 111.41 550.52 114.83 C 554.20 116.55 557.90 118.27 561.55 120.09 C 573.64 126.18 585.24 133.15 596.86 140.07 C 597.17 140.33 597.79 140.85 598.09 141.11 C 598.57 141.34 599.51 141.81 599.98 142.04 C 600.27 142.32 600.86 142.86 601.15 143.13 C 601.59 143.42 602.48 143.99 602.92 144.28 C 610.00 148.61 616.51 153.86 623.03 158.99 C 642.44 174.96 660.48 192.61 676.18 212.26 C 676.36 212.51 676.71 213.01 676.89 213.26 C 677.73 214.60 678.72 215.84 679.81 217.00 C 680.05 217.30 680.52 217.91 680.76 218.22 C 681.30 219.24 681.99 220.18 682.85 220.97 C 683.09 221.29 683.57 221.92 683.81 222.24 C 684.30 223.28 684.99 224.23 685.88 225.01 C 691.67 231.99 696.15 239.95 701.14 247.50 C 703.70 251.92 706.20 256.37 708.79 260.77 C 712.08 266.95 715.15 273.24 718.27 279.51 C 721.49 287.30 725.47 294.84 727.86 302.95 C 728.08 303.43 728.53 304.39 728.76 304.86 L 729.13 305.90 C 729.27 306.42 729.54 307.44 729.67 307.95 C 731.63 312.08 733.11 316.48 734.01 320.96 C 734.19 321.46 734.55 322.46 734.73 322.96 C 745.21 355.85 749.58 390.55 749.45 425.02 C 749.05 442.02 747.99 459.04 745.09 475.81 C 742.93 488.67 740.55 501.60 736.47 514.00 C 736.41 514.52 736.27 515.57 736.21 516.09 L 735.68 517.03 C 735.51 517.54 735.17 518.54 735.01 519.05 L 734.66 520.16 C 733.97 521.97 733.31 523.81 732.92 525.73 C 732.00 529.93 730.39 533.94 728.83 537.94 C 727.84 540.37 726.91 542.84 726.02 545.31 C 725.12 547.73 724.09 550.09 723.19 552.51 C 722.42 554.20 721.68 555.90 720.87 557.58 C 716.89 565.61 713.19 573.79 708.82 581.63 C 705.41 588.17 701.21 594.28 697.97 600.92 C 697.68 601.21 697.11 601.79 696.83 602.08 C 695.49 603.38 694.60 605.04 693.77 606.70 C 693.55 607.07 693.12 607.81 692.91 608.18 C 692.61 608.62 692.01 609.49 691.72 609.92 C 691.55 610.18 691.23 610.69 691.07 610.94 C 689.67 612.95 688.20 614.92 686.82 616.94 C 686.66 617.16 686.34 617.61 686.19 617.84 C 684.76 619.83 683.33 621.82 681.84 623.77 C 681.58 624.06 681.07 624.65 680.81 624.94 C 679.66 626.09 678.66 627.37 677.76 628.73 C 677.52 629.05 677.02 629.68 676.77 630.00 C 675.70 631.17 674.71 632.40 673.85 633.73 C 673.64 634.02 673.21 634.59 673.00 634.87 C 666.74 641.98 660.67 649.27 653.95 655.96 C 649.30 660.65 644.49 665.19 639.93 669.97 C 639.77 670.11 639.47 670.39 639.31 670.53 C 632.04 676.30 624.96 682.31 617.82 688.25 C 616.28 689.54 614.61 690.64 612.97 691.78 C 610.91 693.18 608.90 694.64 606.93 696.16 C 602.81 699.44 598.35 702.25 593.82 704.94 C 576.51 715.63 558.33 724.82 539.65 732.88 C 537.84 733.71 536.00 734.52 534.04 734.90 C 533.54 735.09 532.55 735.46 532.05 735.64 C 527.12 737.97 521.80 739.43 516.67 741.21 C 516.50 741.14 516.17 740.99 516.00 740.92 C 513.32 741.88 510.65 742.87 507.96 743.80 C 506.37 744.36 504.72 744.75 503.06 745.00 C 502.55 745.15 501.54 745.45 501.03 745.59 C 462.10 756.27 421.18 759.16 381.04 755.43 C 366.93 753.97 352.80 751.97 339.03 748.56 C 338.51 748.43 337.49 748.16 336.98 748.03 C 334.92 747.81 332.90 747.35 330.97 746.61 C 330.47 746.46 329.45 746.16 328.94 746.01 C 308.48 741.30 288.82 733.54 269.79 724.74 C 268.73 724.23 267.67 723.73 266.62 723.24 C 264.63 722.24 262.65 721.22 260.66 720.23 C 260.14 719.98 259.10 719.48 258.58 719.23 C 255.27 717.25 251.85 715.46 248.46 713.63 C 244.80 711.47 241.17 709.28 237.51 707.14 C 234.88 705.33 232.18 703.63 229.37 702.12 C 228.98 701.82 228.21 701.22 227.82 700.92 C 225.58 699.37 223.37 697.80 221.18 696.20 C 219.09 694.62 216.95 693.12 214.78 691.67 C 213.21 690.59 211.64 689.49 210.21 688.25 C 198.87 678.78 187.36 669.49 177.01 658.92 C 164.13 646.31 152.87 632.20 141.86 617.97 C 137.92 612.96 134.59 607.51 131.12 602.17 C 130.80 601.79 130.15 601.04 129.82 600.66 C 129.00 599.01 128.12 597.39 127.37 595.71 C 126.84 594.38 126.11 593.13 125.11 592.12 C 124.78 591.73 124.10 590.96 123.76 590.57 C 122.38 587.71 120.81 584.95 119.21 582.22 C 115.59 575.40 112.15 568.48 108.83 561.51 C 105.24 553.29 101.60 545.07 98.69 536.57 C 97.07 531.75 94.83 527.08 94.02 522.02 C 93.80 521.54 93.36 520.58 93.14 520.09 L 92.84 519.04 C 92.72 518.53 92.49 517.49 92.37 516.98 C 83.68 488.84 79.48 459.33 78.77 429.92 C 78.04 420.58 79.16 411.25 79.13 401.91 C 80.06 387.53 81.58 373.12 84.44 358.99 C 84.58 358.48 84.85 357.46 84.99 356.95 C 86.19 347.86 88.84 339.03 91.09 330.17 C 91.99 327.12 92.90 324.07 93.84 321.03 L 94.25 319.92 C 94.44 319.42 94.83 318.44 95.02 317.94 C 98.45 305.44 103.73 293.49 108.83 281.59 C 109.79 279.56 110.77 277.53 111.74 275.51 C 113.85 271.24 116.00 266.99 118.22 262.78 C 120.11 259.57 121.78 256.23 123.79 253.09 C 125.80 250.01 127.75 246.88 129.48 243.64 C 130.27 242.24 131.07 240.85 131.86 239.46 C 137.11 231.84 142.20 224.10 148.04 216.93 C 160.87 201.19 174.21 185.76 189.55 172.40 C 194.59 167.78 199.94 163.52 205.02 158.96 C 211.55 153.89 218.01 148.61 225.07 144.30 C 225.51 144.00 226.39 143.42 226.84 143.12 C 227.12 142.87 227.68 142.38 227.96 142.13 C 228.43 141.89 229.37 141.41 229.85 141.17 C 230.13 140.90 230.71 140.35 231.00 140.08 C 231.49 139.88 232.46 139.47 232.94 139.27 C 233.24 138.89 233.85 138.13 234.15 137.75 C 235.83 136.99 237.48 136.16 239.10 135.27 C 249.33 129.34 259.61 123.49 270.25 118.30 L 270.97 117.97 C 273.78 116.74 276.59 115.47 279.36 114.13 C 285.23 111.45 291.24 109.07 297.28 106.79 C 297.41 106.75 297.69 106.67 297.82 106.63 C 300.28 105.89 302.68 105.00 305.13 104.22 L 305.97 104.01 C 306.45 103.78 307.41 103.34 307.89 103.11 L 308.92 102.95 C 309.41 102.76 310.40 102.37 310.89 102.18 L 311.96 101.85 C 312.47 101.72 313.50 101.48 314.02 101.35 C 324.72 97.70 335.80 94.79 346.97 92.98 C 347.49 92.85 348.51 92.57 349.02 92.44 M 383.26 199.23 C 375.90 203.16 372.49 212.01 372.84 220.02 C 372.92 225.76 375.97 231.10 375.52 236.87 C 374.24 238.58 372.15 239.31 370.38 240.35 C 364.64 243.28 359.48 247.57 356.13 253.13 C 351.17 261.66 351.05 271.87 350.64 281.45 C 340.78 271.23 331.46 260.51 322.33 249.65 C 319.01 245.19 313.68 242.07 307.99 242.60 C 304.23 242.33 301.26 244.75 298.74 247.19 C 295.61 246.55 292.17 245.51 289.12 247.01 C 285.93 248.35 283.87 251.63 283.78 255.06 C 282.44 272.38 280.54 289.66 279.65 307.01 C 279.18 314.00 278.54 321.04 279.27 328.04 C 280.42 335.31 283.49 342.07 286.11 348.89 C 291.36 361.84 296.79 374.73 302.82 387.34 C 305.44 393.01 310.30 397.24 315.60 400.35 C 325.18 405.96 335.65 409.78 345.75 414.33 C 369.92 424.77 393.26 437.21 415.15 451.87 C 445.96 430.62 480.23 415.09 514.70 400.83 C 518.67 399.03 522.46 396.57 525.10 393.04 C 528.27 388.95 529.28 383.76 531.16 379.05 C 534.99 369.24 539.23 359.57 544.25 350.30 C 548.42 342.49 551.30 333.88 551.65 324.98 C 552.08 312.34 551.03 299.72 551.05 287.08 C 550.80 278.71 550.78 270.34 550.48 261.97 C 550.46 257.76 549.26 253.07 545.49 250.69 C 542.40 248.31 538.51 250.05 535.05 250.07 C 531.69 248.61 528.85 245.75 524.98 245.69 C 517.62 244.75 511.52 249.88 506.78 254.83 C 498.95 262.79 490.87 270.50 483.01 278.44 C 485.83 266.96 483.14 253.84 474.48 245.48 C 472.36 243.05 468.77 241.51 468.21 238.06 C 465.86 226.30 457.35 216.74 447.64 210.22 C 440.00 204.73 428.94 208.84 423.88 215.96 C 419.34 222.64 421.06 231.30 423.61 238.39 C 425.74 243.45 430.07 248.58 435.81 249.19 C 436.40 248.05 436.87 246.84 437.35 245.65 C 431.88 241.69 429.86 234.50 430.96 228.04 C 431.36 226.08 433.41 225.18 434.75 223.90 C 437.82 224.98 441.12 226.04 443.25 228.69 C 449.79 236.14 452.98 245.75 458.15 254.08 C 461.01 258.60 467.26 259.49 469.74 264.36 C 472.41 269.44 472.68 275.38 472.82 281.00 C 472.42 293.05 471.18 305.06 469.91 317.05 C 469.74 318.81 469.56 320.93 467.69 321.76 C 458.17 327.42 448.16 332.21 438.31 337.28 C 433.34 339.65 428.68 342.70 423.46 344.53 C 423.60 341.00 423.42 336.87 426.13 334.19 C 429.24 331.28 433.83 332.24 437.69 332.04 C 437.77 326.68 437.29 321.34 437.36 315.99 C 437.34 311.71 437.59 307.37 436.74 303.15 C 435.86 299.06 433.03 295.84 430.39 292.76 C 436.75 288.44 442.12 282.85 447.23 277.15 C 449.01 274.96 451.01 272.72 451.70 269.91 C 452.74 265.38 447.37 261.20 443.20 263.06 C 439.74 264.31 436.39 265.87 432.90 267.03 C 430.78 260.77 428.84 254.45 426.83 248.16 C 425.61 244.03 420.74 243.04 416.99 242.97 C 413.47 242.67 409.26 244.20 406.52 241.20 C 409.23 238.38 412.64 236.12 414.65 232.70 C 415.69 228.42 415.36 223.95 415.84 219.60 C 416.15 213.66 417.02 206.94 413.34 201.80 C 410.34 197.54 404.86 196.19 399.94 195.92 C 394.25 195.68 388.36 196.60 383.26 199.23 M 267.86 487.77 C 261.87 490.21 256.22 494.19 253.11 500.00 C 248.29 508.70 250.10 520.75 257.83 527.21 C 266.63 534.78 278.49 536.84 288.27 542.72 C 292.26 544.95 295.41 549.34 294.78 554.08 C 294.35 557.88 292.82 562.59 288.53 563.42 C 280.78 565.20 272.28 564.73 265.14 561.01 C 263.78 556.29 262.50 551.54 261.74 546.69 C 257.83 546.61 253.92 546.69 250.02 546.97 C 249.91 553.40 249.86 559.82 249.88 566.25 C 258.20 571.68 268.25 573.63 278.04 574.02 C 287.76 574.27 298.22 572.37 305.71 565.74 C 314.58 557.80 314.75 542.11 305.71 534.23 C 296.26 525.65 282.67 524.19 272.83 516.26 C 267.11 511.75 266.34 502.33 270.91 496.86 C 277.86 493.08 287.01 493.18 293.76 497.39 C 296.15 502.16 295.93 507.90 297.03 513.11 C 300.59 513.31 304.15 513.36 307.72 513.32 C 308.69 507.18 310.41 501.15 310.97 494.95 C 310.33 491.20 306.45 489.85 303.41 488.52 C 292.20 484.07 279.19 483.33 267.86 487.77 M 349.27 486.17 C 341.49 488.19 333.79 492.55 329.76 499.76 C 325.32 507.33 326.02 517.66 331.67 524.43 C 336.72 530.51 344.30 533.54 351.39 536.54 C 357.25 539.07 363.72 540.97 368.33 545.62 C 370.56 547.74 371.49 550.89 371.14 553.92 C 370.98 557.94 369.18 562.88 364.62 563.52 C 357.14 564.98 348.68 564.98 341.96 560.97 C 339.77 556.52 339.29 551.43 338.10 546.65 C 334.31 546.63 330.52 546.69 326.74 546.95 C 326.42 552.95 326.13 558.96 326.39 564.97 C 326.26 566.59 328.08 567.17 329.17 567.93 C 337.67 572.44 347.46 574.01 357.00 574.03 C 366.24 573.87 376.22 571.73 382.93 564.91 C 390.92 557.09 391.01 542.85 382.99 535.02 C 374.00 526.19 360.72 524.52 350.67 517.34 C 346.13 514.29 343.39 508.52 344.72 503.10 C 345.23 500.63 345.79 497.57 348.32 496.35 C 355.36 493.00 363.89 493.58 370.64 497.39 C 371.98 502.51 372.83 507.75 373.36 513.02 C 376.91 513.31 380.48 513.37 384.05 513.35 C 385.26 507.91 386.44 502.45 387.22 496.93 C 387.76 494.92 386.61 493.12 385.90 491.34 C 374.83 485.34 361.56 483.10 349.27 486.17 M 422.31 487.20 C 414.28 489.98 406.74 495.85 404.29 504.28 C 401.98 512.12 404.12 521.24 410.29 526.75 C 418.90 534.52 430.73 536.67 440.59 542.30 C 444.48 544.43 447.99 548.28 447.72 552.99 C 447.59 557.05 446.21 562.43 441.59 563.36 C 433.84 565.22 425.27 564.76 418.13 561.01 C 416.72 556.30 415.50 551.53 414.69 546.68 C 410.79 546.62 406.90 546.69 403.02 546.97 C 402.84 553.42 402.89 559.87 402.89 566.33 C 412.41 572.31 423.94 574.24 435.03 574.00 C 443.66 573.58 452.83 571.42 459.18 565.18 C 467.63 557.17 467.47 541.98 458.71 534.25 C 449.73 526.15 437.15 524.33 427.38 517.53 C 423.33 514.77 420.41 510.02 420.99 505.00 C 421.28 501.80 421.84 497.56 425.18 496.13 C 432.24 493.08 440.67 493.57 447.28 497.57 C 448.49 502.69 449.22 507.90 450.01 513.10 C 453.56 513.31 457.11 513.36 460.67 513.33 C 461.63 507.80 462.92 502.34 463.80 496.80 C 464.59 493.89 462.34 491.14 459.76 490.09 C 448.30 484.40 434.48 483.05 422.31 487.20 M 476.76 486.90 C 476.16 495.12 476.10 503.39 476.79 511.60 C 480.47 512.01 484.18 512.10 487.89 512.05 C 489.11 506.75 490.33 501.46 491.41 496.13 C 496.55 495.68 501.70 495.24 506.87 495.30 C 506.78 517.60 507.47 539.94 505.87 562.21 C 502.26 563.36 498.63 564.45 495.01 565.57 C 495.51 567.70 495.94 569.84 496.36 572.00 C 508.88 572.00 521.41 572.00 533.94 572.00 C 534.40 569.85 534.87 567.70 535.30 565.55 C 531.92 564.51 528.32 563.69 525.46 561.52 C 523.22 557.40 524.31 552.45 523.73 547.98 C 523.60 530.41 523.62 512.84 523.73 495.27 C 528.86 495.22 533.98 495.62 539.09 496.08 C 540.24 501.18 541.38 506.28 542.31 511.42 C 545.82 511.86 549.35 511.98 552.88 511.69 C 553.31 504.74 554.46 497.85 554.61 490.88 C 554.08 489.02 552.77 487.51 551.81 485.87 C 526.83 487.64 501.78 486.66 476.76 486.90 M 562.45 487.16 C 561.87 489.13 561.53 491.16 561.10 493.17 C 564.67 494.57 569.26 494.99 571.64 498.31 C 572.84 503.80 572.70 509.48 572.89 515.08 C 572.81 530.80 573.29 546.55 571.92 562.24 C 568.37 563.35 564.81 564.44 561.21 565.38 C 561.59 567.57 561.97 569.76 562.35 571.96 C 586.26 572.06 610.17 571.97 634.08 572.00 C 634.31 563.96 634.32 555.92 634.08 547.88 C 630.42 547.66 626.75 547.64 623.09 547.65 C 621.68 552.52 620.98 557.59 619.29 562.38 C 610.04 563.42 600.33 564.31 591.25 561.70 C 589.17 552.86 589.91 543.61 589.68 534.59 C 598.79 535.18 607.93 535.11 617.05 535.36 C 617.62 532.60 618.12 529.84 618.63 527.07 C 618.16 526.47 617.23 525.25 616.76 524.65 C 607.73 524.76 598.72 525.33 589.71 525.73 C 589.44 518.15 590.16 510.58 590.09 503.00 C 590.47 500.89 589.56 497.93 591.21 496.36 C 599.87 494.37 608.86 495.65 617.62 496.27 C 618.66 501.08 619.33 505.97 620.44 510.76 C 623.84 511.31 627.30 511.09 630.74 511.10 C 631.72 504.10 633.18 497.18 634.21 490.19 C 633.14 488.75 632.07 487.30 631.01 485.86 C 608.20 487.72 585.28 486.32 562.45 487.16 M 197.95 486.89 C 197.46 488.98 196.98 491.07 196.53 493.19 C 200.35 494.89 206.76 494.94 207.48 500.08 C 208.49 507.00 207.64 514.02 208.28 520.97 C 208.42 534.73 208.18 548.50 207.44 562.23 C 203.84 563.33 200.24 564.42 196.61 565.44 C 197.00 567.62 197.44 569.81 197.90 572.00 C 210.45 571.97 223.00 572.06 235.54 571.95 C 235.95 569.81 236.36 567.67 236.81 565.54 C 233.30 564.18 228.71 563.88 226.39 560.61 C 224.95 554.55 225.19 548.24 225.10 542.05 C 225.27 526.85 224.58 511.61 226.07 496.46 C 229.66 495.48 233.20 494.36 236.77 493.31 C 236.36 491.18 235.98 489.05 235.59 486.92 C 223.04 486.85 210.50 486.91 197.95 486.89 Z" />
<path fill="#ffffff" opacity="1.00" d=" M 394.54 211.09 C 397.54 211.11 400.85 210.62 403.50 212.38 C 407.18 214.47 408.48 218.94 408.59 222.91 C 408.15 229.89 403.08 235.23 398.34 239.84 C 399.17 241.29 400.10 242.70 400.77 244.24 C 399.83 247.28 397.61 249.80 396.97 252.96 C 396.38 255.92 396.45 259.02 397.26 261.93 C 398.18 264.96 400.32 267.38 401.70 270.18 C 401.67 271.84 400.54 273.26 399.91 274.76 C 395.84 282.46 392.53 291.41 394.80 300.18 C 395.81 304.18 397.83 308.81 402.11 310.13 C 405.84 311.34 408.73 308.11 411.87 306.75 C 413.82 307.31 415.56 308.64 417.63 308.72 C 419.99 306.55 419.88 302.21 423.11 300.96 C 427.39 301.78 432.26 306.07 430.77 310.86 C 430.07 315.54 430.31 320.28 430.22 325.00 C 426.50 325.19 422.77 325.36 419.07 325.81 C 417.13 330.01 418.51 335.80 414.70 338.94 C 412.93 339.47 411.83 338.20 411.73 336.55 C 410.97 332.22 410.45 327.05 413.55 323.47 C 416.32 320.31 420.65 319.43 423.96 317.04 C 426.32 314.34 425.89 310.43 424.84 307.27 C 423.41 309.34 422.38 311.73 420.63 313.56 C 415.78 316.68 408.28 315.54 405.08 321.04 C 402.47 326.80 402.54 333.67 404.44 339.64 C 407.77 345.37 415.12 346.31 420.12 350.04 C 418.62 351.44 416.96 352.67 415.34 353.93 C 407.38 345.97 398.57 338.64 388.30 333.87 C 381.69 330.52 374.41 328.68 367.99 324.94 C 364.67 323.04 361.74 319.87 361.68 315.84 C 360.75 303.53 360.14 291.13 361.39 278.82 C 362.25 271.21 364.12 263.30 369.25 257.36 C 372.45 253.44 376.77 250.72 381.03 248.10 C 383.30 246.64 386.00 244.90 386.23 241.93 C 386.75 236.83 385.12 231.84 383.72 227.00 C 389.52 223.64 394.29 218.07 394.54 211.09 Z" />
<path fill="#ffffff" opacity="1.00" d=" M 418.84 254.87 C 420.17 255.17 421.51 255.48 422.86 255.80 C 423.41 258.14 423.94 260.47 424.47 262.82 C 422.39 265.17 420.86 267.96 420.59 271.14 C 426.28 275.76 433.92 273.72 440.34 272.07 C 437.87 276.52 434.78 282.15 429.05 282.46 C 425.84 282.87 421.37 282.17 419.72 285.74 C 418.59 290.31 420.00 295.14 418.87 299.72 C 414.01 300.10 408.78 300.68 404.16 298.84 C 400.66 296.24 399.99 291.01 400.99 287.01 C 403.68 278.65 412.41 272.43 411.66 262.99 C 413.47 262.10 415.63 261.61 417.00 260.04 C 418.00 258.48 418.25 256.59 418.84 254.87 Z" />
<path fill="#ffffff" opacity="1.00" d=" M 312.77 268.70 C 314.51 268.48 316.60 267.42 318.14 268.76 C 319.44 269.73 319.56 271.52 320.02 272.95 C 321.70 280.60 323.27 288.28 324.93 295.94 C 325.42 298.50 326.10 301.13 325.74 303.76 C 325.15 305.20 323.94 306.28 323.03 307.52 C 320.53 306.60 317.96 305.16 317.77 302.18 C 315.93 291.05 314.21 279.89 312.77 268.70 Z" />
<path fill="#ffffff" opacity="1.00" d=" M 529.86 269.92 C 530.95 268.92 532.73 267.59 534.19 268.69 C 536.50 269.81 536.63 272.72 536.80 274.95 C 537.23 286.29 536.69 297.65 537.34 308.98 C 537.52 315.32 538.55 321.78 537.12 328.05 C 535.91 333.93 532.93 339.20 530.49 344.62 C 526.14 353.85 522.38 363.37 517.56 372.37 C 515.58 376.23 512.60 379.60 508.85 381.82 C 480.81 397.40 449.76 407.19 423.01 425.13 C 420.44 426.73 418.17 428.91 415.29 429.95 C 407.29 424.82 399.45 419.40 391.01 414.99 C 370.05 403.79 347.71 395.45 326.70 384.35 C 321.70 382.00 316.90 378.76 314.16 373.82 C 308.23 363.36 304.10 352.00 298.75 341.25 C 295.46 334.76 292.48 327.58 293.61 320.15 C 295.74 305.58 295.73 290.82 296.60 276.16 C 296.61 272.69 298.94 270.11 301.79 268.47 C 303.48 270.34 305.46 272.26 305.66 274.93 C 307.66 290.62 309.27 306.36 311.89 321.96 C 312.95 328.03 314.24 334.22 317.45 339.58 C 322.09 347.38 329.39 353.28 337.35 357.48 C 343.31 360.64 349.12 364.72 355.95 365.66 C 358.87 366.26 361.71 363.92 361.98 361.02 C 361.86 358.37 359.40 356.78 357.41 355.47 C 349.32 350.57 340.78 346.37 333.15 340.77 C 327.10 336.58 324.51 328.59 325.71 321.52 C 328.92 321.83 332.13 322.52 334.95 324.14 C 354.82 334.73 376.00 342.86 395.14 354.80 C 408.10 364.37 413.14 381.00 415.43 396.26 C 418.04 380.36 423.28 362.73 437.64 353.57 C 453.65 344.09 470.76 336.70 487.42 328.48 C 493.26 325.90 498.63 321.66 505.28 321.52 C 505.93 327.41 504.69 333.94 500.41 338.29 C 495.49 343.35 488.90 346.20 483.02 349.93 C 478.74 352.70 473.77 354.51 470.12 358.16 C 467.14 360.89 470.36 365.98 474.01 365.70 C 478.70 365.57 482.93 363.20 487.01 361.10 C 493.93 357.20 501.26 353.64 506.87 347.87 C 512.36 342.56 516.22 335.63 517.77 328.14 C 520.86 313.85 523.48 299.46 525.72 285.01 C 526.61 279.91 526.30 274.08 529.86 269.92 Z" />
<path fill="#ffffff" opacity="1.00" d=" M 512.14 271.08 C 512.74 268.71 515.56 269.02 517.40 268.42 C 517.38 275.38 515.61 282.15 514.62 288.99 C 513.71 293.63 513.32 298.39 511.98 302.94 C 511.37 305.40 507.77 307.77 506.04 305.03 C 505.91 299.19 507.68 293.52 508.60 287.80 C 509.87 282.25 510.42 276.52 512.14 271.08 Z" />
<path fill="#ffffff" opacity="1.00" d=" M 330.15 284.33 C 331.91 283.55 333.99 284.77 334.38 286.61 C 335.35 290.69 335.56 294.91 336.40 299.02 C 336.94 302.34 338.10 305.61 337.82 309.02 C 335.58 310.91 332.56 308.47 332.41 305.95 C 331.46 299.28 330.12 292.63 329.47 285.93 C 329.64 285.53 329.98 284.73 330.15 284.33 Z" />
<path fill="#ffffff" opacity="1.00" d=" M 495.35 289.02 C 495.74 286.41 497.58 284.42 499.20 282.47 C 500.27 284.82 500.79 287.36 500.37 289.93 C 499.75 295.26 500.09 300.70 499.00 305.97 C 498.62 308.23 496.42 309.34 494.84 310.70 C 493.64 309.09 492.39 307.22 492.88 305.10 C 493.53 299.72 494.40 294.36 495.35 289.02 Z" />
<path fill="#ffffff" opacity="1.00" d=" M 344.20 295.68 C 345.86 296.22 347.97 296.66 348.24 298.76 C 349.53 303.80 350.69 308.92 351.26 314.10 C 350.39 316.70 347.02 316.34 346.34 313.83 C 344.82 307.95 343.25 301.79 344.20 295.68 Z" />
<path fill="#ffffff" opacity="1.00" d=" M 484.09 296.18 C 484.58 296.12 485.58 295.99 486.08 295.92 C 486.21 301.90 486.08 308.01 484.96 313.89 C 484.69 316.35 481.25 316.85 480.24 314.67 C 478.66 310.48 480.58 306.05 481.24 301.85 C 481.85 299.87 481.89 297.12 484.09 296.18 Z" />
</g>
<g id="#ca9656ff">
<path fill="#ca9656" opacity="1.00" d=" M 347.27 92.11 L 348.32 91.83 L 349.02 92.44 C 348.51 92.57 347.49 92.85 346.97 92.98 L 347.27 92.11 Z" />
<path fill="#ca9656" opacity="1.00" d=" M 479.01 92.45 L 479.69 91.83 L 480.75 92.09 L 481.06 92.96 C 480.54 92.83 479.52 92.58 479.01 92.45 Z" />
<path fill="#ca9656" opacity="1.00" d=" M 484.03 93.33 L 484.77 92.78 L 485.79 93.14 L 486.02 94.03 C 485.52 93.85 484.53 93.51 484.03 93.33 Z" />
<path fill="#ca9656" opacity="1.00" d=" M 312.27 100.99 L 313.33 100.73 L 314.02 101.35 C 313.50 101.48 312.47 101.72 311.96 101.85 L 312.27 100.99 Z" />
<path fill="#ca9656" opacity="1.00" d=" M 309.12 102.05 L 310.13 101.66 L 310.89 102.18 C 310.40 102.37 309.41 102.76 308.92 102.95 L 309.12 102.05 Z" />
<path fill="#ca9656" opacity="1.00" d=" M 517.04 102.29 L 517.75 101.70 L 518.80 102.01 L 519.07 102.89 C 518.56 102.74 517.55 102.44 517.04 102.29 Z" />
<path fill="#ca9656" opacity="1.00" d=" M 306.12 103.09 L 307.11 102.64 L 307.89 103.11 C 307.41 103.34 306.45 103.78 305.97 104.01 L 306.12 103.09 Z" />
<path fill="#ca9656" opacity="1.00" d=" M 520.12 103.15 L 520.89 102.65 L 521.89 103.07 L 522.07 103.98 C 521.59 103.77 520.61 103.36 520.12 103.15 Z" />
<path fill="#ca9656" opacity="1.00" d=" M 297.28 106.79 C 299.22 104.80 302.58 105.05 305.13 104.22 C 302.68 105.00 300.28 105.89 297.82 106.63 C 297.69 106.67 297.41 106.75 297.28 106.79 Z" />
<path fill="#ca9656" opacity="1.00" d=" M 523.14 104.10 L 523.93 103.65 L 524.90 104.13 L 525.03 105.04 C 524.56 104.80 523.61 104.33 523.14 104.10 Z" />
<path fill="#ca9656" opacity="1.00" d=" M 270.97 117.97 C 273.44 116.07 276.23 114.59 279.36 114.13 C 276.59 115.47 273.78 116.74 270.97 117.97 Z" />
<path fill="#ca9656" opacity="1.00" d=" M 238.93 134.39 C 249.02 128.37 259.46 122.96 270.25 118.30 C 259.61 123.49 249.33 129.34 239.10 135.27 L 238.93 134.39 Z" />
<path fill="#ca9656" opacity="1.00" d=" M 561.55 120.09 C 566.61 121.17 570.57 124.85 575.36 126.68 C 582.66 130.90 590.49 134.45 596.86 140.07 C 585.24 133.15 573.64 126.18 561.55 120.09 Z" />
<path fill="#ca9656" opacity="1.00" d=" M 231.18 139.19 L 232.17 138.78 L 232.94 139.27 C 232.46 139.47 231.49 139.88 231.00 140.08 L 231.18 139.19 Z" />
<path fill="#ca9656" opacity="1.00" d=" M 228.07 141.22 L 229.04 140.73 L 229.85 141.17 C 229.37 141.41 228.43 141.89 227.96 142.13 L 228.07 141.22 Z" />
<path fill="#ca9656" opacity="1.00" d=" M 598.09 141.11 L 598.90 140.65 L 599.87 141.13 L 599.98 142.04 C 599.51 141.81 598.57 141.34 598.09 141.11 Z" />
<path fill="#ca9656" opacity="1.00" d=" M 225.07 143.37 L 225.98 142.77 L 226.84 143.12 C 226.39 143.42 225.51 144.00 225.07 144.30 L 225.07 143.37 Z" />
<path fill="#ca9656" opacity="1.00" d=" M 601.15 143.13 L 602.00 142.76 L 602.92 143.35 L 602.92 144.28 C 602.48 143.99 601.59 143.42 601.15 143.13 Z" />
<path fill="#ca9656" opacity="1.00" d=" M 195.97 165.94 C 198.80 163.38 201.67 160.83 205.02 158.96 C 199.94 163.52 194.59 167.78 189.55 172.40 C 174.21 185.76 160.87 201.19 148.04 216.93 C 152.88 208.44 160.30 201.89 166.28 194.25 C 172.27 188.29 178.49 182.54 184.20 176.29 C 187.72 172.40 192.09 169.44 195.97 165.94 Z" />
<path fill="#ca9656" opacity="1.00" d=" M 623.03 158.99 C 629.55 162.60 634.36 168.39 640.24 172.84 C 646.74 179.21 652.89 185.95 659.60 192.12 C 663.19 195.31 665.96 199.26 669.09 202.87 C 671.61 205.87 674.69 208.54 676.18 212.26 C 660.48 192.61 642.44 174.96 623.03 158.99 Z" />
<path fill="#ca9656" opacity="1.00" d=" M 383.26 199.23 C 388.36 196.60 394.25 195.68 399.94 195.92 C 404.86 196.19 410.34 197.54 413.34 201.80 C 417.02 206.94 416.15 213.66 415.84 219.60 C 415.36 223.95 415.69 228.42 414.65 232.70 C 412.64 236.12 409.23 238.38 406.52 241.20 C 409.26 244.20 413.47 242.67 416.99 242.97 C 420.74 243.04 425.61 244.03 426.83 248.16 C 428.84 254.45 430.78 260.77 432.90 267.03 C 436.39 265.87 439.74 264.31 443.20 263.06 C 447.37 261.20 452.74 265.38 451.70 269.91 C 451.01 272.72 449.01 274.96 447.23 277.15 C 442.12 282.85 436.75 288.44 430.39 292.76 C 433.03 295.84 435.86 299.06 436.74 303.15 C 437.59 307.37 437.34 311.71 437.36 315.99 C 437.29 321.34 437.77 326.68 437.69 332.04 C 433.83 332.24 429.24 331.28 426.13 334.19 C 423.42 336.87 423.60 341.00 423.46 344.53 C 428.68 342.70 433.34 339.65 438.31 337.28 C 448.16 332.21 458.17 327.42 467.69 321.76 C 469.56 320.93 469.74 318.81 469.91 317.05 C 471.18 305.06 472.42 293.05 472.82 281.00 C 472.68 275.38 472.41 269.44 469.74 264.36 C 467.26 259.49 461.01 258.60 458.15 254.08 C 452.98 245.75 449.79 236.14 443.25 228.69 C 441.12 226.04 437.82 224.98 434.75 223.90 C 433.41 225.18 431.36 226.08 430.96 228.04 C 429.86 234.50 431.88 241.69 437.35 245.65 C 436.87 246.84 436.40 248.05 435.81 249.19 C 430.07 248.58 425.74 243.45 423.61 238.39 C 421.06 231.30 419.34 222.64 423.88 215.96 C 428.94 208.84 440.00 204.73 447.64 210.22 C 457.35 216.74 465.86 226.30 468.21 238.06 C 468.77 241.51 472.36 243.05 474.48 245.48 C 483.14 253.84 485.83 266.96 483.01 278.44 C 490.87 270.50 498.95 262.79 506.78 254.83 C 511.52 249.88 517.62 244.75 524.98 245.69 C 528.85 245.75 531.69 248.61 535.05 250.07 C 538.51 250.05 542.40 248.31 545.49 250.69 C 549.26 253.07 550.46 257.76 550.48 261.97 C 550.78 270.34 550.80 278.71 551.05 287.08 C 551.03 299.72 552.08 312.34 551.65 324.98 C 551.30 333.88 548.42 342.49 544.25 350.30 C 539.23 359.57 534.99 369.24 531.16 379.05 C 529.28 383.76 528.27 388.95 525.10 393.04 C 522.46 396.57 518.67 399.03 514.70 400.83 C 480.23 415.09 445.96 430.62 415.15 451.87 C 393.26 437.21 369.92 424.77 345.75 414.33 C 335.65 409.78 325.18 405.96 315.60 400.35 C 310.30 397.24 305.44 393.01 302.82 387.34 C 296.79 374.73 291.36 361.84 286.11 348.89 C 283.49 342.07 280.42 335.31 279.27 328.04 C 278.54 321.04 279.18 314.00 279.65 307.01 C 280.54 289.66 282.44 272.38 283.78 255.06 C 283.87 251.63 285.93 248.35 289.12 247.01 C 292.17 245.51 295.61 246.55 298.74 247.19 C 301.26 244.75 304.23 242.33 307.99 242.60 C 313.68 242.07 319.01 245.19 322.33 249.65 C 331.46 260.51 340.78 271.23 350.64 281.45 C 351.05 271.87 351.17 261.66 356.13 253.13 C 359.48 247.57 364.64 243.28 370.38 240.35 C 372.15 239.31 374.24 238.58 375.52 236.87 C 375.97 231.10 372.92 225.76 372.84 220.02 C 372.49 212.01 375.90 203.16 383.26 199.23 M 394.54 211.09 C 394.29 218.07 389.52 223.64 383.72 227.00 C 385.12 231.84 386.75 236.83 386.23 241.93 C 386.00 244.90 383.30 246.64 381.03 248.10 C 376.77 250.72 372.45 253.44 369.25 257.36 C 364.12 263.30 362.25 271.21 361.39 278.82 C 360.14 291.13 360.75 303.53 361.68 315.84 C 361.74 319.87 364.67 323.04 367.99 324.94 C 374.41 328.68 381.69 330.52 388.30 333.87 C 398.57 338.64 407.38 345.97 415.34 353.93 C 416.96 352.67 418.62 351.44 420.12 350.04 C 415.12 346.31 407.77 345.37 404.44 339.64 C 402.54 333.67 402.47 326.80 405.08 321.04 C 408.28 315.54 415.78 316.68 420.63 313.56 C 422.38 311.73 423.41 309.34 424.84 307.27 C 425.89 310.43 426.32 314.34 423.96 317.04 C 420.65 319.43 416.32 320.31 413.55 323.47 C 410.45 327.05 410.97 332.22 411.73 336.55 C 411.83 338.20 412.93 339.47 414.70 338.94 C 418.51 335.80 417.13 330.01 419.07 325.81 C 422.77 325.36 426.50 325.19 430.22 325.00 C 430.31 320.28 430.07 315.54 430.77 310.86 C 432.26 306.07 427.39 301.78 423.11 300.96 C 419.88 302.21 419.99 306.55 417.63 308.72 C 415.56 308.64 413.82 307.31 411.87 306.75 C 408.73 308.11 405.84 311.34 402.11 310.13 C 397.83 308.81 395.81 304.18 394.80 300.18 C 392.53 291.41 395.84 282.46 399.91 274.76 C 400.54 273.26 401.67 271.84 401.70 270.18 C 400.32 267.38 398.18 264.96 397.26 261.93 C 396.45 259.02 396.38 255.92 396.97 252.96 C 397.61 249.80 399.83 247.28 400.77 244.24 C 400.10 242.70 399.17 241.29 398.34 239.84 C 403.08 235.23 408.15 229.89 408.59 222.91 C 408.48 218.94 407.18 214.47 403.50 212.38 C 400.85 210.62 397.54 211.11 394.54 211.09 M 418.84 254.87 C 418.25 256.59 418.00 258.48 417.00 260.04 C 415.63 261.61 413.47 262.10 411.66 262.99 C 412.41 272.43 403.68 278.65 400.99 287.01 C 399.99 291.01 400.66 296.24 404.16 298.84 C 408.78 300.68 414.01 300.10 418.87 299.72 C 420.00 295.14 418.59 290.31 419.72 285.74 C 421.37 282.17 425.84 282.87 429.05 282.46 C 434.78 282.15 437.87 276.52 440.34 272.07 C 433.92 273.72 426.28 275.76 420.59 271.14 C 420.86 267.96 422.39 265.17 424.47 262.82 C 423.94 260.47 423.41 258.14 422.86 255.80 C 421.51 255.48 420.17 255.17 418.84 254.87 M 312.77 268.70 C 314.21 279.89 315.93 291.05 317.77 302.18 C 317.96 305.16 320.53 306.60 323.03 307.52 C 323.94 306.28 325.15 305.20 325.74 303.76 C 326.10 301.13 325.42 298.50 324.93 295.94 C 323.27 288.28 321.70 280.60 320.02 272.95 C 319.56 271.52 319.44 269.73 318.14 268.76 C 316.60 267.42 314.51 268.48 312.77 268.70 M 529.86 269.92 C 526.30 274.08 526.61 279.91 525.72 285.01 C 523.48 299.46 520.86 313.85 517.77 328.14 C 516.22 335.63 512.36 342.56 506.87 347.87 C 501.26 353.64 493.93 357.20 487.01 361.10 C 482.93 363.20 478.70 365.57 474.01 365.70 C 470.36 365.98 467.14 360.89 470.12 358.16 C 473.77 354.51 478.74 352.70 483.02 349.93 C 488.90 346.20 495.49 343.35 500.41 338.29 C 504.69 333.94 505.93 327.41 505.28 321.52 C 498.63 321.66 493.26 325.90 487.42 328.48 C 470.76 336.70 453.65 344.09 437.64 353.57 C 423.28 362.73 418.04 380.36 415.43 396.26 C 413.14 381.00 408.10 364.37 395.14 354.80 C 376.00 342.86 354.82 334.73 334.95 324.14 C 332.13 322.52 328.92 321.83 325.71 321.52 C 324.51 328.59 327.10 336.58 333.15 340.77 C 340.78 346.37 349.32 350.57 357.41 355.47 C 359.40 356.78 361.86 358.37 361.98 361.02 C 361.71 363.92 358.87 366.26 355.95 365.66 C 349.12 364.72 343.31 360.64 337.35 357.48 C 329.39 353.28 322.09 347.38 317.45 339.58 C 314.24 334.22 312.95 328.03 311.89 321.96 C 309.27 306.36 307.66 290.62 305.66 274.93 C 305.46 272.26 303.48 270.34 301.79 268.47 C 298.94 270.11 296.61 272.69 296.60 276.16 C 295.73 290.82 295.74 305.58 293.61 320.15 C 292.48 327.58 295.46 334.76 298.75 341.25 C 304.10 352.00 308.23 363.36 314.16 373.82 C 316.90 378.76 321.70 382.00 326.70 384.35 C 347.71 395.45 370.05 403.79 391.01 414.99 C 399.45 419.40 407.29 424.82 415.29 429.95 C 418.17 428.91 420.44 426.73 423.01 425.13 C 449.76 407.19 480.81 397.40 508.85 381.82 C 512.60 379.60 515.58 376.23 517.56 372.37 C 522.38 363.37 526.14 353.85 530.49 344.62 C 532.93 339.20 535.91 333.93 537.12 328.05 C 538.55 321.78 537.52 315.32 537.34 308.98 C 536.69 297.65 537.23 286.29 536.80 274.95 C 536.63 272.72 536.50 269.81 534.19 268.69 C 532.73 267.59 530.95 268.92 529.86 269.92 M 512.14 271.08 C 510.42 276.52 509.87 282.25 508.60 287.80 C 507.68 293.52 505.91 299.19 506.04 305.03 C 507.77 307.77 511.37 305.40 511.98 302.94 C 513.32 298.39 513.71 293.63 514.62 288.99 C 515.61 282.15 517.38 275.38 517.40 268.42 C 515.56 269.02 512.74 268.71 512.14 271.08 M 330.15 284.33 C 329.98 284.73 329.64 285.53 329.47 285.93 C 330.12 292.63 331.46 299.28 332.41 305.95 C 332.56 308.47 335.58 310.91 337.82 309.02 C 338.10 305.61 336.94 302.34 336.40 299.02 C 335.56 294.91 335.35 290.69 334.38 286.61 C 333.99 284.77 331.91 283.55 330.15 284.33 M 495.35 289.02 C 494.40 294.36 493.53 299.72 492.88 305.10 C 492.39 307.22 493.64 309.09 494.84 310.70 C 496.42 309.34 498.62 308.23 499.00 305.97 C 500.09 300.70 499.75 295.26 500.37 289.93 C 500.79 287.36 500.27 284.82 499.20 282.47 C 497.58 284.42 495.74 286.41 495.35 289.02 M 344.20 295.68 C 343.25 301.79 344.82 307.95 346.34 313.83 C 347.02 316.34 350.39 316.70 351.26 314.10 C 350.69 308.92 349.53 303.80 348.24 298.76 C 347.97 296.66 345.86 296.22 344.20 295.68 M 484.09 296.18 C 481.89 297.12 481.85 299.87 481.24 301.85 C 480.58 306.05 478.66 310.48 480.24 314.67 C 481.25 316.85 484.69 316.35 484.96 313.89 C 486.08 308.01 486.21 301.90 486.08 295.92 C 485.58 295.99 484.58 296.12 484.09 296.18 Z" />
<path fill="#ca9656" opacity="1.00" d=" M 676.89 213.26 C 678.80 212.21 681.17 215.35 679.81 217.00 C 678.72 215.84 677.73 214.60 676.89 213.26 Z" />
<path fill="#ca9656" opacity="1.00" d=" M 680.76 218.22 C 682.29 217.12 684.25 219.76 682.85 220.97 C 681.99 220.18 681.30 219.24 680.76 218.22 Z" />
<path fill="#ca9656" opacity="1.00" d=" M 683.81 222.24 C 685.33 221.16 687.23 223.81 685.88 225.01 C 684.99 224.23 684.30 223.28 683.81 222.24 Z" />
<path fill="#ca9656" opacity="1.00" d=" M 123.79 253.09 C 124.95 249.55 126.64 246.13 129.48 243.64 C 127.75 246.88 125.80 250.01 123.79 253.09 Z" />
<path fill="#ca9656" opacity="1.00" d=" M 727.86 302.95 L 728.77 303.09 L 729.23 304.07 L 728.76 304.86 C 728.53 304.39 728.08 303.43 727.86 302.95 Z" />
<path fill="#ca9656" opacity="1.00" d=" M 729.13 305.90 L 730.00 306.20 L 730.28 307.25 L 729.67 307.95 C 729.54 307.44 729.27 306.42 729.13 305.90 Z" />
<path fill="#ca9656" opacity="1.00" d=" M 94.12 318.14 L 95.02 317.94 C 94.83 318.44 94.44 319.42 94.25 319.92 L 93.73 319.16 L 94.12 318.14 Z" />
<path fill="#ca9656" opacity="1.00" d=" M 91.09 330.17 C 91.63 327.02 92.53 323.94 93.84 321.03 C 92.90 324.07 91.99 327.12 91.09 330.17 Z" />
<path fill="#ca9656" opacity="1.00" d=" M 734.01 320.96 L 734.91 321.18 L 735.28 322.21 L 734.73 322.96 C 734.55 322.46 734.19 321.46 734.01 320.96 Z" />
<path fill="#ca9656" opacity="1.00" d=" M 84.11 357.24 L 84.99 356.95 C 84.85 357.46 84.58 358.48 84.44 358.99 L 83.84 358.29 L 84.11 357.24 Z" />
<path fill="#ca9656" opacity="1.00" d=" M 736.21 516.09 C 736.27 515.57 736.41 514.52 736.47 514.00 L 737.16 514.61 L 737.02 515.69 L 736.21 516.09 Z" />
<path fill="#ca9656" opacity="1.00" d=" M 92.37 516.98 C 92.49 517.49 92.72 518.53 92.84 519.04 L 91.98 518.72 L 91.74 517.66 L 92.37 516.98 Z" />
<path fill="#ca9656" opacity="1.00" d=" M 735.01 519.05 C 735.17 518.54 735.51 517.54 735.68 517.03 L 736.24 517.76 L 735.90 518.80 L 735.01 519.05 Z" />
<path fill="#ca9656" opacity="1.00" d=" M 93.14 520.09 C 93.36 520.58 93.80 521.54 94.02 522.02 L 93.11 521.87 L 92.66 520.88 L 93.14 520.09 Z" />
<path fill="#ca9656" opacity="1.00" d=" M 732.92 525.73 C 733.31 523.81 733.97 521.97 734.66 520.16 C 736.09 521.72 735.24 525.87 732.92 525.73 Z" />
<path fill="#ca9656" opacity="1.00" d=" M 726.02 545.31 C 726.91 542.84 727.84 540.37 728.83 537.94 C 728.39 540.56 727.49 543.09 726.02 545.31 Z" />
<path fill="#ca9656" opacity="1.00" d=" M 708.82 581.63 C 713.19 573.79 716.89 565.61 720.87 557.58 C 720.07 562.24 717.34 566.18 715.30 570.34 C 710.24 580.91 704.69 591.31 697.97 600.92 C 701.21 594.28 705.41 588.17 708.82 581.63 Z" />
<path fill="#ca9656" opacity="1.00" d=" M 125.11 592.12 C 126.11 593.13 126.84 594.38 127.37 595.71 C 125.54 596.55 123.89 593.47 125.11 592.12 Z" />
<path fill="#ca9656" opacity="1.00" d=" M 693.77 606.70 C 694.60 605.04 695.49 603.38 696.83 602.08 C 697.91 603.83 695.87 607.41 693.77 606.70 Z" />
<path fill="#ca9656" opacity="1.00" d=" M 691.72 609.92 C 692.01 609.49 692.61 608.62 692.91 608.18 L 693.26 609.04 L 692.65 609.94 L 691.72 609.92 Z" />
<path fill="#ca9656" opacity="1.00" d=" M 686.82 616.94 C 688.20 614.92 689.67 612.95 691.07 610.94 C 690.29 612.59 689.52 614.25 688.84 615.96 C 688.34 616.20 687.32 616.69 686.82 616.94 Z" />
<path fill="#ca9656" opacity="1.00" d=" M 141.86 617.97 C 152.87 632.20 164.13 646.31 177.01 658.92 C 187.36 669.49 198.87 678.78 210.21 688.25 C 204.14 685.09 199.49 679.89 194.18 675.68 C 186.67 669.96 180.68 662.62 173.85 656.16 C 164.04 647.00 155.53 636.59 147.26 626.05 C 145.17 623.56 143.30 620.88 141.86 617.97 Z" />
<path fill="#ca9656" opacity="1.00" d=" M 681.84 623.77 C 683.33 621.82 684.76 619.83 686.19 617.84 C 685.23 620.14 683.72 622.14 681.84 623.77 Z" />
<path fill="#ca9656" opacity="1.00" d=" M 677.76 628.73 C 678.66 627.37 679.66 626.09 680.81 624.94 C 682.02 626.63 679.68 629.75 677.76 628.73 Z" />
<path fill="#ca9656" opacity="1.00" d=" M 673.85 633.73 C 674.71 632.40 675.70 631.17 676.77 630.00 C 678.17 631.64 675.76 634.80 673.85 633.73 Z" />
<path fill="#ca9656" opacity="1.00" d=" M 653.95 655.96 C 660.67 649.27 666.74 641.98 673.00 634.87 C 670.62 639.61 666.44 643.09 663.24 647.25 C 655.30 654.65 648.09 662.80 639.93 669.97 C 644.49 665.19 649.30 660.65 653.95 655.96 Z" />
<path fill="#ca9656" opacity="1.00" d=" M 617.82 688.25 C 624.96 682.31 632.04 676.30 639.31 670.53 C 632.60 676.92 625.84 683.54 617.82 688.25 Z" />
<path fill="#ca9656" opacity="1.00" d=" M 214.78 691.67 C 216.95 693.12 219.09 694.62 221.18 696.20 C 218.66 695.30 216.33 693.90 214.78 691.67 Z" />
<path fill="#ca9656" opacity="1.00" d=" M 606.93 696.16 C 608.90 694.64 610.91 693.18 612.97 691.78 C 612.71 692.29 612.19 693.31 611.93 693.82 C 610.23 694.55 608.58 695.35 606.93 696.16 Z" />
<path fill="#ca9656" opacity="1.00" d=" M 539.65 732.88 C 558.33 724.82 576.51 715.63 593.82 704.94 C 589.88 708.49 585.09 710.83 580.59 713.57 C 572.77 717.77 565.21 722.54 556.93 725.84 C 551.12 728.08 545.74 731.39 539.65 732.88 Z" />
<path fill="#ca9656" opacity="1.00" d=" M 532.05 735.64 C 532.55 735.46 533.54 735.09 534.04 734.90 L 533.83 735.80 L 532.80 736.18 L 532.05 735.64 Z" />
<path fill="#ca9656" opacity="1.00" d=" M 507.96 743.80 C 510.65 742.87 513.32 741.88 516.00 740.92 C 516.17 740.99 516.50 741.14 516.67 741.21 C 514.90 743.47 510.69 742.90 507.96 743.80 Z" />
<path fill="#ca9656" opacity="1.00" d=" M 501.03 745.59 C 501.54 745.45 502.55 745.15 503.06 745.00 L 502.79 745.88 L 501.74 746.19 L 501.03 745.59 Z" />
<path fill="#ca9656" opacity="1.00" d=" M 328.94 746.01 C 329.45 746.16 330.47 746.46 330.97 746.61 L 330.26 747.20 L 329.22 746.90 L 328.94 746.01 Z" />
<path fill="#ca9656" opacity="1.00" d=" M 336.98 748.03 C 337.49 748.16 338.51 748.43 339.03 748.56 L 338.33 749.17 L 337.28 748.90 L 336.98 748.03 Z" />
</g>
<g id="#ba1b40ff">
<path fill="#ba1b40" opacity="1.00" d=" M 267.86 487.77 C 279.19 483.33 292.20 484.07 303.41 488.52 C 306.45 489.85 310.33 491.20 310.97 494.95 C 310.41 501.15 308.69 507.18 307.72 513.32 C 304.15 513.36 300.59 513.31 297.03 513.11 C 295.93 507.90 296.15 502.16 293.76 497.39 C 287.01 493.18 277.86 493.08 270.91 496.86 C 266.34 502.33 267.11 511.75 272.83 516.26 C 282.67 524.19 296.26 525.65 305.71 534.23 C 314.75 542.11 314.58 557.80 305.71 565.74 C 298.22 572.37 287.76 574.27 278.04 574.02 C 268.25 573.63 258.20 571.68 249.88 566.25 C 249.86 559.82 249.91 553.40 250.02 546.97 C 253.92 546.69 257.83 546.61 261.74 546.69 C 262.50 551.54 263.78 556.29 265.14 561.01 C 272.28 564.73 280.78 565.20 288.53 563.42 C 292.82 562.59 294.35 557.88 294.78 554.08 C 295.41 549.34 292.26 544.95 288.27 542.72 C 278.49 536.84 266.63 534.78 257.83 527.21 C 250.10 520.75 248.29 508.70 253.11 500.00 C 256.22 494.19 261.87 490.21 267.86 487.77 Z" />
<path fill="#ba1b40" opacity="1.00" d=" M 349.27 486.17 C 361.56 483.10 374.83 485.34 385.90 491.34 C 386.61 493.12 387.76 494.92 387.22 496.93 C 386.44 502.45 385.26 507.91 384.05 513.35 C 380.48 513.37 376.91 513.31 373.36 513.02 C 372.83 507.75 371.98 502.51 370.64 497.39 C 363.89 493.58 355.36 493.00 348.32 496.35 C 345.79 497.57 345.23 500.63 344.72 503.10 C 343.39 508.52 346.13 514.29 350.67 517.34 C 360.72 524.52 374.00 526.19 382.99 535.02 C 391.01 542.85 390.92 557.09 382.93 564.91 C 376.22 571.73 366.24 573.87 357.00 574.03 C 347.46 574.01 337.67 572.44 329.17 567.93 C 328.08 567.17 326.26 566.59 326.39 564.97 C 326.13 558.96 326.42 552.95 326.74 546.95 C 330.52 546.69 334.31 546.63 338.10 546.65 C 339.29 551.43 339.77 556.52 341.96 560.97 C 348.68 564.98 357.14 564.98 364.62 563.52 C 369.18 562.88 370.98 557.94 371.14 553.92 C 371.49 550.89 370.56 547.74 368.33 545.62 C 363.72 540.97 357.25 539.07 351.39 536.54 C 344.30 533.54 336.72 530.51 331.67 524.43 C 326.02 517.66 325.32 507.33 329.76 499.76 C 333.79 492.55 341.49 488.19 349.27 486.17 Z" />
<path fill="#ba1b40" opacity="1.00" d=" M 422.31 487.20 C 434.48 483.05 448.30 484.40 459.76 490.09 C 462.34 491.14 464.59 493.89 463.80 496.80 C 462.92 502.34 461.63 507.80 460.67 513.33 C 457.11 513.36 453.56 513.31 450.01 513.10 C 449.22 507.90 448.49 502.69 447.28 497.57 C 440.67 493.57 432.24 493.08 425.18 496.13 C 421.84 497.56 421.28 501.80 420.99 505.00 C 420.41 510.02 423.33 514.77 427.38 517.53 C 437.15 524.33 449.73 526.15 458.71 534.25 C 467.47 541.98 467.63 557.17 459.18 565.18 C 452.83 571.42 443.66 573.58 435.03 574.00 C 423.94 574.24 412.41 572.31 402.89 566.33 C 402.89 559.87 402.84 553.42 403.02 546.97 C 406.90 546.69 410.79 546.62 414.69 546.68 C 415.50 551.53 416.72 556.30 418.13 561.01 C 425.27 564.76 433.84 565.22 441.59 563.36 C 446.21 562.43 447.59 557.05 447.72 552.99 C 447.99 548.28 444.48 544.43 440.59 542.30 C 430.73 536.67 418.90 534.52 410.29 526.75 C 404.12 521.24 401.98 512.12 404.29 504.28 C 406.74 495.85 414.28 489.98 422.31 487.20 Z" />
<path fill="#ba1b40" opacity="1.00" d=" M 476.76 486.90 C 501.78 486.66 526.83 487.64 551.81 485.87 C 552.77 487.51 554.08 489.02 554.61 490.88 C 554.46 497.85 553.31 504.74 552.88 511.69 C 549.35 511.98 545.82 511.86 542.31 511.42 C 541.38 506.28 540.24 501.18 539.09 496.08 C 533.98 495.62 528.86 495.22 523.73 495.27 C 523.62 512.84 523.60 530.41 523.73 547.98 C 524.31 552.45 523.22 557.40 525.46 561.52 C 528.32 563.69 531.92 564.51 535.30 565.55 C 534.87 567.70 534.40 569.85 533.94 572.00 C 521.41 572.00 508.88 572.00 496.36 572.00 C 495.94 569.84 495.51 567.70 495.01 565.57 C 498.63 564.45 502.26 563.36 505.87 562.21 C 507.47 539.94 506.78 517.60 506.87 495.30 C 501.70 495.24 496.55 495.68 491.41 496.13 C 490.33 501.46 489.11 506.75 487.89 512.05 C 484.18 512.10 480.47 512.01 476.79 511.60 C 476.10 503.39 476.16 495.12 476.76 486.90 Z" />
<path fill="#ba1b40" opacity="1.00" d=" M 562.45 487.16 C 585.28 486.32 608.20 487.72 631.01 485.86 C 632.07 487.30 633.14 488.75 634.21 490.19 C 633.18 497.18 631.72 504.10 630.74 511.10 C 627.30 511.09 623.84 511.31 620.44 510.76 C 619.33 505.97 618.66 501.08 617.62 496.27 C 608.86 495.65 599.87 494.37 591.21 496.36 C 589.56 497.93 590.47 500.89 590.09 503.00 C 590.16 510.58 589.44 518.15 589.71 525.73 C 598.72 525.33 607.73 524.76 616.76 524.65 C 617.23 525.25 618.16 526.47 618.63 527.07 C 618.12 529.84 617.62 532.60 617.05 535.36 C 607.93 535.11 598.79 535.18 589.68 534.59 C 589.91 543.61 589.17 552.86 591.25 561.70 C 600.33 564.31 610.04 563.42 619.29 562.38 C 620.98 557.59 621.68 552.52 623.09 547.65 C 626.75 547.64 630.42 547.66 634.08 547.88 C 634.32 555.92 634.31 563.96 634.08 572.00 C 610.17 571.97 586.26 572.06 562.35 571.96 C 561.97 569.76 561.59 567.57 561.21 565.38 C 564.81 564.44 568.37 563.35 571.92 562.24 C 573.29 546.55 572.81 530.80 572.89 515.08 C 572.70 509.48 572.84 503.80 571.64 498.31 C 569.26 494.99 564.67 494.57 561.10 493.17 C 561.53 491.16 561.87 489.13 562.45 487.16 Z" />
<path fill="#ba1b40" opacity="1.00" d=" M 197.95 486.89 C 210.50 486.91 223.04 486.85 235.59 486.92 C 235.98 489.05 236.36 491.18 236.77 493.31 C 233.20 494.36 229.66 495.48 226.07 496.46 C 224.58 511.61 225.27 526.85 225.10 542.05 C 225.19 548.24 224.95 554.55 226.39 560.61 C 228.71 563.88 233.30 564.18 236.81 565.54 C 236.36 567.67 235.95 569.81 235.54 571.95 C 223.00 572.06 210.45 571.97 197.90 572.00 C 197.44 569.81 197.00 567.62 196.61 565.44 C 200.24 564.42 203.84 563.33 207.44 562.23 C 208.18 548.50 208.42 534.73 208.28 520.97 C 207.64 514.02 208.49 507.00 207.48 500.08 C 206.76 494.94 200.35 494.89 196.53 493.19 C 196.98 491.07 197.46 488.98 197.95 486.89 Z" />
</g>
</svg>
