<?xml version="1.0" encoding="UTF-8" ?>
<!DOCTYPE svg PUBLIC "-//W3C//DTD SVG 1.1//EN" "http://www.w3.org/Graphics/SVG/1.1/DTD/svg11.dtd">
<svg width="824pt" height="1067pt" viewBox="0 0 824 1067" version="1.1" xmlns="http://www.w3.org/2000/svg">
<g id="#d5385cff">
<path fill="#d5385c" opacity="1.00" d=" M 400.40 0.00 L 423.55 0.00 C 474.85 1.65 525.90 12.55 573.11 32.81 C 638.32 60.59 696.01 105.61 739.02 161.92 C 788.16 225.84 817.78 304.51 822.72 384.99 C 827.52 460.06 811.60 535.24 784.11 604.86 C 761.13 663.19 730.25 718.17 695.09 769.99 C 643.32 845.98 582.44 915.47 516.59 979.52 C 486.45 1008.54 455.39 1036.65 422.67 1062.75 C 417.35 1067.51 408.80 1068.31 402.92 1064.12 C 398.11 1060.65 393.65 1056.74 389.02 1053.05 C 351.88 1022.37 316.57 989.51 282.66 955.30 C 231.50 903.33 183.70 847.92 141.42 788.46 C 97.03 725.76 58.48 658.36 32.44 585.89 C 12.56 530.68 0.51 472.37 0.00 413.58 L 0.00 409.47 C 0.45 378.11 3.90 346.73 11.27 316.21 C 31.08 232.21 78.47 155.14 144.07 99.12 C 182.79 65.85 227.74 39.83 275.93 22.98 C 315.90 8.87 358.07 1.38 400.40 0.00 M 354.94 91.37 C 353.55 90.08 352.63 90.29 352.19 92.02 C 351.60 92.05 350.43 92.12 349.84 92.15 C 348.38 91.00 347.49 91.29 347.17 93.02 C 346.60 93.07 345.45 93.16 344.88 93.20 C 343.44 92.02 342.54 92.30 342.19 94.04 C 341.62 94.11 340.47 94.24 339.90 94.31 C 338.50 93.07 337.58 93.32 337.16 95.06 L 335.87 95.16 C 334.38 94.05 333.49 94.36 333.21 96.11 L 332.18 96.23 C 329.67 96.46 327.24 97.11 324.87 97.94 L 323.99 98.26 L 323.23 97.74 L 322.22 98.14 L 322.03 99.04 C 318.25 99.71 314.59 100.94 311.01 102.26 L 310.24 101.73 L 309.23 102.12 L 309.03 103.02 L 307.95 102.99 L 307.13 102.60 L 306.20 103.14 L 306.13 104.06 C 296.88 106.56 288.04 110.45 279.24 114.22 C 274.65 114.97 270.85 117.83 266.72 119.76 C 260.84 122.93 254.51 125.24 248.83 128.79 C 245.51 130.87 241.62 132.21 239.01 135.25 C 238.76 135.41 238.25 135.72 237.99 135.88 C 235.39 136.84 232.86 138.13 230.97 140.22 C 230.72 140.42 230.20 140.83 229.94 141.03 L 229.09 140.67 L 228.18 141.27 L 228.17 142.19 C 227.85 142.38 227.21 142.77 226.89 142.96 L 226.01 142.68 L 225.16 143.36 L 225.23 144.28 C 224.94 144.46 224.34 144.82 224.04 145.00 C 221.63 145.75 219.43 147.06 218.00 149.19 C 209.37 155.38 201.01 161.97 193.08 169.03 C 190.10 170.60 187.68 172.97 185.30 175.30 C 178.69 181.34 172.45 187.77 166.34 194.31 C 164.67 196.06 163.26 198.04 162.00 200.10 C 161.77 200.35 161.32 200.85 161.09 201.10 C 158.87 202.58 156.97 204.53 156.08 207.09 C 155.82 207.44 155.31 208.13 155.05 208.48 C 153.25 207.06 150.68 210.30 152.29 211.84 C 152.00 212.16 151.40 212.82 151.11 213.15 C 148.51 215.33 146.06 217.84 144.94 221.12 C 144.76 221.36 144.41 221.82 144.23 222.06 C 142.05 223.47 140.74 225.69 139.86 228.07 C 136.06 233.19 132.52 238.50 129.29 243.99 C 126.54 246.35 124.86 249.62 123.83 253.04 C 123.68 253.29 123.40 253.78 123.25 254.02 C 117.27 262.51 112.65 271.95 108.53 281.47 C 106.34 287.80 102.55 293.52 101.19 300.14 C 99.03 306.06 96.44 311.88 95.05 318.04 L 94.15 318.20 L 93.72 319.20 L 94.23 319.99 C 92.93 323.64 91.65 327.36 91.10 331.21 C 89.34 331.45 89.00 332.33 90.09 333.85 L 90.00 335.14 C 88.27 335.42 87.96 336.30 89.05 337.80 L 89.05 339.07 L 88.15 339.21 L 87.71 340.19 L 88.19 340.98 C 88.14 341.53 88.03 342.64 87.98 343.19 C 86.25 343.48 85.94 344.37 87.07 345.86 L 87.02 347.19 C 85.29 347.56 85.01 348.46 86.20 349.90 C 86.15 350.46 86.06 351.58 86.01 352.14 C 84.27 352.55 84.03 353.46 85.29 354.87 C 82.23 368.99 80.53 383.39 79.44 397.79 C 77.53 428.28 79.15 459.10 85.41 489.03 C 84.08 490.38 84.27 491.31 85.99 491.82 L 86.13 493.15 C 85.02 494.63 85.34 495.52 87.09 495.81 C 87.61 500.60 88.86 505.31 90.30 509.90 L 89.70 510.62 L 90.00 511.67 L 90.87 511.94 L 91.18 513.14 C 90.07 514.62 90.38 515.51 92.12 515.81 L 92.23 517.04 L 91.73 517.80 L 92.14 518.80 L 93.04 518.97 L 92.97 520.09 L 92.60 520.92 L 93.16 521.83 L 94.07 521.87 C 94.83 526.40 96.49 530.75 98.25 534.97 L 97.70 535.72 L 98.07 536.75 L 98.97 536.96 L 99.22 537.82 C 99.68 540.41 100.52 542.93 101.97 545.14 C 102.66 547.01 103.41 548.86 104.24 550.68 C 104.48 553.78 106.05 556.50 107.87 558.95 C 112.02 568.22 116.40 577.46 121.70 586.14 C 120.09 587.71 121.92 591.55 124.19 590.45 C 126.87 595.45 129.74 600.43 133.09 605.01 L 132.76 605.88 L 133.39 606.76 L 134.32 606.74 C 136.50 610.68 139.15 614.35 141.90 617.91 C 143.09 620.61 144.79 623.08 147.12 624.93 C 148.37 626.68 149.66 628.43 151.09 630.06 C 154.71 636.76 160.62 641.76 165.32 647.66 C 177.00 660.25 189.35 672.25 202.72 683.04 C 203.78 683.82 204.98 684.38 206.16 684.95 C 206.46 685.16 207.07 685.58 207.37 685.79 C 206.09 687.28 208.79 689.26 209.99 687.84 C 210.32 688.08 210.98 688.57 211.31 688.81 C 210.09 690.32 212.81 692.26 213.98 690.82 C 214.32 691.07 214.99 691.57 215.32 691.82 C 214.16 693.33 216.84 695.29 217.99 693.82 C 218.28 694.05 218.87 694.52 219.16 694.76 L 219.17 695.67 L 220.09 696.26 L 220.95 695.89 C 225.02 699.23 229.53 702.02 234.01 704.79 C 236.78 707.51 240.34 709.15 243.60 711.18 C 247.01 713.26 250.27 715.78 254.25 716.69 L 254.84 717.01 C 261.60 722.52 270.25 724.95 277.93 728.89 C 283.11 730.73 287.87 733.86 293.37 734.75 C 303.77 738.65 314.28 742.62 325.18 744.87 C 325.39 746.61 326.26 746.97 327.80 745.94 L 329.07 745.97 L 329.21 746.87 L 330.18 747.32 L 330.97 746.85 C 331.50 746.88 332.54 746.92 333.07 746.94 L 333.21 747.84 L 334.18 748.30 L 334.97 747.83 C 335.49 747.87 336.54 747.94 337.06 747.98 L 337.30 748.87 L 338.34 749.20 L 339.07 748.62 C 384.91 759.03 432.95 759.70 479.08 750.70 C 480.51 751.93 481.42 751.68 481.81 749.94 C 484.21 749.76 486.64 749.44 488.91 748.60 L 489.60 749.21 L 490.66 748.95 L 490.96 748.08 L 492.21 747.93 C 493.64 748.98 494.52 748.68 494.85 747.03 L 496.39 747.25 C 497.86 747.97 498.62 747.53 498.67 745.93 C 499.26 745.90 500.43 745.83 501.01 745.80 L 501.78 746.32 L 502.78 745.92 L 502.97 745.03 L 504.11 744.86 C 505.59 745.97 506.49 745.66 506.79 743.93 L 507.98 743.81 L 508.73 744.34 L 509.74 743.96 L 509.95 743.05 L 511.35 742.55 C 512.71 744.21 516.88 743.25 516.48 740.93 C 526.84 738.12 536.85 734.06 546.69 729.81 C 549.16 729.68 551.35 728.55 553.16 726.93 L 553.85 726.61 C 563.07 724.03 570.98 718.48 579.46 714.25 C 581.79 712.99 584.00 711.51 585.99 709.76 C 586.24 709.61 586.73 709.31 586.97 709.16 C 590.11 708.14 593.13 706.55 595.27 703.98 C 599.26 701.41 603.54 699.15 607.04 695.90 L 607.88 696.29 L 608.81 695.73 L 608.85 694.81 C 609.16 694.60 609.76 694.16 610.06 693.94 L 610.93 694.25 L 611.80 693.61 L 611.76 692.69 C 612.13 692.47 612.87 692.04 613.24 691.82 C 613.95 693.33 616.47 691.74 615.75 690.41 C 616.09 689.95 616.79 689.03 617.13 688.57 C 618.67 690.00 621.77 687.65 620.49 685.85 C 620.87 685.60 621.61 685.11 621.98 684.86 C 623.98 684.01 625.72 682.70 626.95 680.90 C 627.19 680.71 627.66 680.31 627.89 680.12 C 630.06 679.38 631.65 677.73 632.91 675.88 C 633.16 675.65 633.66 675.21 633.91 674.99 C 636.46 673.63 638.76 671.81 640.36 669.36 C 652.07 657.93 664.15 646.69 673.94 633.51 C 675.74 634.84 678.32 631.69 676.71 630.15 C 677.00 629.84 677.57 629.21 677.86 628.89 C 680.51 626.81 682.45 624.02 683.87 621.00 C 684.08 620.69 684.49 620.08 684.70 619.78 L 685.62 619.83 L 686.27 618.95 L 685.96 618.08 C 686.17 617.82 686.60 617.30 686.82 617.04 C 688.93 615.56 690.23 613.33 691.02 610.92 C 691.20 610.63 691.55 610.05 691.72 609.76 L 692.65 609.84 L 693.31 608.98 L 693.02 608.10 C 693.24 607.69 693.69 606.88 693.92 606.48 C 696.04 607.60 698.16 603.83 696.62 602.23 C 696.90 601.80 697.45 600.96 697.72 600.54 C 699.56 601.69 701.37 598.37 699.79 597.14 C 700.03 596.75 700.52 595.96 700.76 595.57 C 702.53 596.78 704.40 593.59 702.90 592.32 C 703.19 591.97 703.78 591.28 704.07 590.93 C 705.80 589.64 706.92 587.54 706.76 585.35 C 706.95 585.02 707.35 584.37 707.54 584.05 C 710.62 581.52 711.68 577.50 713.46 574.10 C 715.80 568.61 719.68 563.73 720.72 557.74 L 721.03 556.97 C 722.26 555.18 723.40 553.33 724.47 551.45 C 724.24 551.42 723.78 551.34 723.55 551.30 L 723.72 551.05 C 725.47 547.80 726.89 544.36 727.72 540.75 L 727.98 539.91 L 728.89 539.73 L 729.30 538.73 L 728.78 537.96 L 729.13 537.14 C 730.69 534.97 731.32 532.34 731.68 529.74 L 731.90 528.89 L 732.81 528.71 L 733.21 527.71 L 732.68 526.93 L 733.00 525.52 C 735.32 525.77 736.23 521.67 734.58 520.28 L 735.03 518.91 L 735.93 518.75 L 736.37 517.76 L 735.89 516.98 L 735.93 515.95 L 736.83 515.76 L 737.23 514.76 L 736.72 513.99 C 736.78 513.47 736.91 512.44 736.98 511.92 L 737.88 511.77 L 738.33 510.79 L 737.85 510.00 L 737.92 508.82 C 739.64 508.44 739.92 507.53 738.75 506.11 L 738.91 504.85 C 740.65 504.49 740.94 503.59 739.79 502.15 L 739.94 500.82 C 741.68 500.41 741.94 499.50 740.73 498.09 C 740.80 497.52 740.95 496.38 741.03 495.81 C 742.75 495.48 743.05 494.58 741.90 493.12 L 741.97 491.85 C 743.68 491.39 743.90 490.47 742.63 489.08 C 743.42 486.44 743.89 483.68 743.93 480.93 L 744.82 480.71 L 745.17 479.68 L 744.61 478.94 C 751.70 436.26 750.99 392.20 741.80 349.89 C 742.98 348.42 742.69 347.52 740.95 347.20 C 740.41 342.39 739.09 337.69 737.73 333.07 L 738.26 332.31 L 737.87 331.29 L 736.96 331.09 C 736.54 328.33 735.84 325.60 734.80 323.01 L 735.30 322.23 L 734.88 321.23 L 733.97 321.07 C 733.11 316.57 731.50 312.23 729.76 308.01 L 730.29 307.24 L 729.89 306.23 L 728.99 306.04 L 728.77 305.19 C 726.88 297.70 723.44 290.73 720.37 283.68 C 717.39 275.99 713.52 268.70 709.64 261.44 C 706.00 255.67 703.57 249.05 698.82 244.05 C 694.72 237.56 690.70 230.96 685.84 225.02 C 687.28 223.86 685.37 221.11 683.86 222.35 C 683.60 222.01 683.09 221.33 682.84 220.99 C 684.31 219.82 682.36 217.09 680.84 218.32 C 680.55 217.96 679.98 217.23 679.70 216.87 C 681.33 215.34 678.81 212.05 677.00 213.49 C 676.76 213.16 676.29 212.48 676.06 212.14 C 675.37 209.97 673.74 208.38 672.00 207.02 C 671.79 206.77 671.36 206.26 671.15 206.01 C 670.41 204.59 669.60 203.20 668.57 201.97 C 656.56 187.84 642.97 175.15 628.96 163.04 C 627.15 161.48 625.13 160.22 623.05 159.08 C 622.77 158.85 622.20 158.39 621.91 158.16 C 619.02 154.40 614.75 152.21 611.10 149.32 C 608.90 147.57 606.52 146.06 603.96 144.91 C 603.67 144.74 603.10 144.40 602.81 144.23 L 602.84 143.31 L 601.95 142.68 L 601.09 143.01 C 600.78 142.79 600.17 142.36 599.86 142.15 L 599.82 141.23 L 598.90 140.67 L 598.06 141.05 C 597.79 140.83 597.25 140.39 596.99 140.17 C 590.66 134.49 582.73 131.07 575.50 126.72 C 570.74 124.85 566.64 121.54 561.69 120.20 C 551.39 115.04 540.73 110.64 529.97 106.56 C 528.31 105.96 526.65 105.34 524.91 105.11 L 524.87 104.20 L 523.95 103.64 L 523.11 104.02 L 521.93 104.00 L 521.82 103.10 L 520.86 102.61 L 520.06 103.05 L 518.94 103.03 L 518.77 102.13 L 517.76 101.71 L 516.99 102.22 C 514.70 101.21 512.27 100.54 509.81 100.17 C 509.48 98.40 508.58 98.10 507.11 99.27 C 504.45 98.18 501.65 97.44 498.80 97.10 C 498.47 95.33 497.57 95.03 496.11 96.18 L 494.80 96.05 C 494.44 94.31 493.53 94.03 492.08 95.22 C 490.09 94.44 487.93 94.22 485.82 94.08 C 485.54 92.33 484.65 92.02 483.17 93.14 C 482.59 93.11 481.42 93.04 480.83 93.01 C 480.44 91.28 479.53 91.03 478.11 92.26 C 437.58 84.46 395.58 84.09 354.94 91.37 M 75.22 445.30 C 75.28 447.89 75.36 450.49 75.51 453.09 C 75.65 450.49 75.73 447.89 75.78 445.29 L 75.22 445.30 M 393.95 764.50 C 405.98 764.77 418.03 764.87 430.06 764.49 C 418.03 764.16 405.98 764.11 393.95 764.50 Z" />
</g>
<g id="#ffffffff">
<path fill="#ffffff" opacity="1.00" d=" M 354.94 91.37 C 395.58 84.09 437.58 84.46 478.11 92.26 C 478.92 92.86 479.82 93.11 480.83 93.01 C 481.42 93.04 482.59 93.11 483.17 93.14 C 483.92 93.82 484.80 94.14 485.82 94.08 C 487.93 94.22 490.09 94.44 492.08 95.22 C 492.88 95.84 493.78 96.11 494.80 96.05 L 496.11 96.18 C 496.89 96.82 497.78 97.13 498.80 97.10 C 501.65 97.44 504.45 98.18 507.11 99.27 C 507.90 99.88 508.80 100.18 509.81 100.17 C 512.27 100.54 514.70 101.21 516.99 102.22 C 517.47 102.42 518.45 102.83 518.94 103.03 L 520.06 103.05 C 520.53 103.29 521.46 103.77 521.93 104.00 L 523.11 104.02 C 523.56 104.29 524.46 104.84 524.91 105.11 C 526.65 105.34 528.31 105.96 529.97 106.56 C 540.73 110.64 551.39 115.04 561.69 120.20 C 573.78 126.27 585.41 133.18 596.99 140.17 C 597.25 140.39 597.79 140.83 598.06 141.05 C 598.51 141.32 599.41 141.87 599.86 142.15 C 600.17 142.36 600.78 142.79 601.09 143.01 C 601.52 143.31 602.38 143.93 602.81 144.23 C 603.10 144.40 603.67 144.74 603.96 144.91 C 609.94 149.33 615.93 153.74 621.91 158.16 C 622.20 158.39 622.77 158.85 623.05 159.08 C 640.43 173.27 656.56 188.95 671.15 206.01 C 671.36 206.26 671.79 206.77 672.00 207.02 C 673.37 208.71 674.73 210.41 676.06 212.14 C 676.29 212.48 676.76 213.16 677.00 213.49 C 677.76 214.71 678.70 215.82 679.70 216.87 C 679.98 217.23 680.55 217.96 680.84 218.32 C 681.34 219.31 682.01 220.21 682.84 220.99 C 683.09 221.33 683.60 222.01 683.86 222.35 C 684.34 223.35 685.00 224.26 685.84 225.02 C 690.70 230.96 694.72 237.56 698.82 244.05 C 710.58 263.50 720.81 283.88 728.77 305.19 L 728.99 306.04 C 729.18 306.53 729.57 307.52 729.76 308.01 C 731.50 312.23 733.11 316.57 733.97 321.07 C 734.18 321.55 734.59 322.53 734.80 323.01 C 735.84 325.60 736.54 328.33 736.96 331.09 C 737.15 331.59 737.53 332.57 737.73 333.07 C 739.09 337.69 740.41 342.39 740.95 347.20 C 740.89 348.19 741.17 349.09 741.80 349.89 C 750.99 392.20 751.70 436.26 744.61 478.94 C 744.44 479.43 744.10 480.43 743.93 480.93 C 743.89 483.68 743.42 486.44 742.63 489.08 C 742.07 489.92 741.85 490.84 741.97 491.85 L 741.90 493.12 C 741.24 493.90 740.95 494.79 741.03 495.81 C 740.95 496.38 740.80 497.52 740.73 498.09 C 740.12 498.90 739.86 499.80 739.94 500.82 L 739.79 502.15 C 739.14 502.93 738.84 503.83 738.91 504.85 L 738.75 506.11 C 738.10 506.90 737.82 507.80 737.92 508.82 L 737.85 510.00 C 737.64 510.48 737.20 511.44 736.98 511.92 C 736.91 512.44 736.78 513.47 736.72 513.99 C 736.52 514.48 736.12 515.46 735.93 515.95 L 735.89 516.98 C 735.68 517.46 735.25 518.43 735.03 518.91 L 734.58 520.28 C 733.91 521.98 733.31 523.71 733.00 525.52 L 732.68 526.93 C 732.49 527.42 732.10 528.40 731.90 528.89 L 731.68 529.74 C 730.86 532.22 730.00 534.68 729.13 537.14 L 728.78 537.96 C 728.58 538.45 728.18 539.42 727.98 539.91 L 727.72 540.75 C 726.36 544.17 724.87 547.55 723.72 551.05 L 723.55 551.30 C 722.42 553.04 721.82 555.06 721.03 556.97 L 720.72 557.74 C 716.55 566.61 712.29 575.46 707.54 584.05 C 707.35 584.37 706.95 585.02 706.76 585.35 L 706.67 585.51 C 705.79 587.31 705.02 589.16 704.07 590.93 C 703.78 591.28 703.19 591.97 702.90 592.32 C 701.98 593.25 701.30 594.38 700.76 595.57 C 700.52 595.96 700.03 596.75 699.79 597.14 C 698.99 598.20 698.29 599.34 697.72 600.54 C 697.45 600.96 696.90 601.80 696.62 602.23 C 695.58 603.55 694.63 604.95 693.92 606.48 C 693.69 606.88 693.24 607.69 693.02 608.10 C 692.69 608.52 692.05 609.35 691.72 609.76 C 691.55 610.05 691.20 610.63 691.02 610.92 C 689.62 612.96 688.22 615.00 686.82 617.04 C 686.60 617.30 686.17 617.82 685.96 618.08 C 685.64 618.50 685.01 619.35 684.70 619.78 C 684.49 620.08 684.08 620.69 683.87 621.00 C 681.83 623.60 679.84 626.24 677.86 628.89 C 677.57 629.21 677.00 629.84 676.71 630.15 C 675.66 631.16 674.71 632.27 673.94 633.51 C 664.15 646.69 652.07 657.93 640.36 669.36 C 638.18 671.20 635.98 673.03 633.91 674.99 C 633.66 675.21 633.16 675.65 632.91 675.88 C 631.24 677.29 629.55 678.68 627.89 680.12 C 627.66 680.31 627.19 680.71 626.95 680.90 C 625.30 682.23 623.66 683.57 621.98 684.86 C 621.61 685.11 620.87 685.60 620.49 685.85 C 619.24 686.57 617.95 687.33 617.13 688.57 C 616.79 689.03 616.09 689.95 615.75 690.41 C 615.27 690.44 614.31 690.51 613.83 690.55 C 613.68 690.87 613.39 691.50 613.24 691.82 C 612.87 692.04 612.13 692.47 611.76 692.69 C 611.34 693.00 610.49 693.63 610.06 693.94 C 609.76 694.16 609.16 694.60 608.85 694.81 C 608.40 695.09 607.49 695.63 607.04 695.90 C 603.54 699.15 599.26 701.41 595.27 703.98 C 592.43 705.58 589.68 707.34 586.97 709.16 C 586.73 709.31 586.24 709.61 585.99 709.76 C 575.45 715.71 564.80 721.45 553.85 726.61 L 553.16 726.93 C 550.99 727.88 548.83 728.82 546.69 729.81 C 536.85 734.06 526.84 738.12 516.48 740.93 C 514.70 741.26 513.00 741.86 511.35 742.55 L 509.95 743.05 C 509.46 743.24 508.48 743.62 507.98 743.81 L 506.79 743.93 C 505.77 743.87 504.88 744.18 504.11 744.86 L 502.97 745.03 C 502.48 745.22 501.50 745.61 501.01 745.80 C 500.43 745.83 499.26 745.90 498.67 745.93 C 497.48 745.73 496.72 746.17 496.39 747.25 L 494.85 747.03 C 493.82 746.82 492.94 747.12 492.21 747.93 L 490.96 748.08 C 490.45 748.21 489.42 748.47 488.91 748.60 C 486.64 749.44 484.21 749.76 481.81 749.94 C 480.80 749.86 479.90 750.11 479.08 750.70 C 432.95 759.70 384.91 759.03 339.07 748.62 C 338.57 748.46 337.56 748.14 337.06 747.98 C 336.54 747.94 335.49 747.87 334.97 747.83 C 334.49 747.61 333.54 747.16 333.07 746.94 C 332.54 746.92 331.50 746.88 330.97 746.85 C 330.50 746.63 329.54 746.19 329.07 745.97 L 327.80 745.94 C 327.06 745.20 326.19 744.85 325.18 744.87 C 314.28 742.62 303.77 738.65 293.37 734.75 C 280.24 729.48 267.44 723.46 254.84 717.01 L 254.25 716.69 C 247.48 712.75 240.76 708.74 234.01 704.79 C 229.53 702.02 225.02 699.23 220.95 695.89 C 220.50 695.60 219.60 695.04 219.16 694.76 C 218.87 694.52 218.28 694.05 217.99 693.82 C 217.24 692.96 216.34 692.29 215.32 691.82 C 214.99 691.57 214.32 691.07 213.98 690.82 C 213.22 689.98 212.33 689.29 211.31 688.81 C 210.98 688.57 210.32 688.08 209.99 687.84 C 209.23 687.00 208.37 686.29 207.37 685.79 C 207.07 685.58 206.46 685.16 206.16 684.95 C 190.77 672.37 176.05 658.91 162.95 643.93 C 158.86 639.42 155.13 634.61 151.09 630.06 C 149.66 628.43 148.37 626.68 147.12 624.93 C 145.46 622.53 143.74 620.17 141.90 617.91 C 139.15 614.35 136.50 610.68 134.32 606.74 C 134.01 606.31 133.40 605.45 133.09 605.01 C 129.74 600.43 126.87 595.45 124.19 590.45 C 123.50 588.93 122.66 587.49 121.70 586.14 C 116.40 577.46 112.02 568.22 107.87 558.95 C 106.74 556.15 105.51 553.41 104.24 550.68 C 103.41 548.86 102.66 547.01 101.97 545.14 C 101.08 542.69 100.11 540.27 99.22 537.82 L 98.97 536.96 C 98.79 536.46 98.43 535.47 98.25 534.97 C 96.49 530.75 94.83 526.40 94.07 521.87 C 93.80 521.43 93.25 520.53 92.97 520.09 L 93.04 518.97 C 92.83 518.49 92.43 517.52 92.23 517.04 L 92.12 515.81 C 92.17 514.79 91.86 513.90 91.18 513.14 L 90.87 511.94 C 90.73 511.43 90.44 510.41 90.30 509.90 C 88.86 505.31 87.61 500.60 87.09 495.81 C 87.13 494.79 86.81 493.90 86.13 493.15 L 85.99 491.82 C 86.11 490.82 85.92 489.89 85.41 489.03 C 79.15 459.10 77.53 428.28 79.44 397.79 C 80.53 383.39 82.23 368.99 85.29 354.87 C 85.87 354.04 86.11 353.13 86.01 352.14 C 86.06 351.58 86.15 350.46 86.20 349.90 C 86.84 349.10 87.11 348.19 87.02 347.19 L 87.07 345.86 C 87.74 345.09 88.05 344.20 87.98 343.19 C 88.03 342.64 88.14 341.53 88.19 340.98 C 88.40 340.50 88.83 339.54 89.05 339.07 L 89.05 337.80 C 89.75 337.04 90.06 336.15 90.00 335.14 L 90.09 333.85 C 90.77 333.10 91.11 332.22 91.10 331.21 C 91.65 327.36 92.93 323.64 94.23 319.99 C 94.43 319.50 94.85 318.53 95.05 318.04 C 96.44 311.88 99.03 306.06 101.19 300.14 C 107.49 284.28 114.98 268.94 123.25 254.02 C 123.40 253.78 123.68 253.29 123.83 253.04 C 125.73 250.07 127.60 247.09 129.29 243.99 C 132.52 238.50 136.06 233.19 139.86 228.07 C 141.36 226.10 142.79 224.08 144.23 222.06 C 144.41 221.82 144.76 221.36 144.94 221.12 C 147.06 218.52 149.06 215.81 151.11 213.15 C 151.40 212.82 152.00 212.16 152.29 211.84 C 153.33 210.82 154.25 209.69 155.05 208.48 C 155.31 208.13 155.82 207.44 156.08 207.09 C 157.73 205.08 159.40 203.07 161.09 201.10 C 161.32 200.85 161.77 200.35 162.00 200.10 C 171.79 189.19 182.22 178.88 193.08 169.03 C 201.01 161.97 209.37 155.38 218.00 149.19 C 220.03 147.82 222.03 146.40 224.04 145.00 C 224.34 144.82 224.94 144.46 225.23 144.28 C 225.65 143.95 226.47 143.29 226.89 142.96 C 227.21 142.77 227.85 142.38 228.17 142.19 C 228.61 141.90 229.50 141.32 229.94 141.03 C 230.20 140.83 230.72 140.42 230.97 140.22 C 233.33 138.80 235.69 137.39 237.99 135.88 C 238.25 135.72 238.76 135.41 239.01 135.25 C 252.06 127.56 265.46 120.50 279.24 114.22 C 288.04 110.45 296.88 106.56 306.13 104.06 C 306.59 103.79 307.50 103.26 307.95 102.99 L 309.03 103.02 C 309.52 102.83 310.51 102.45 311.01 102.26 C 314.59 100.94 318.25 99.71 322.03 99.04 C 322.52 98.84 323.50 98.45 323.99 98.26 L 324.87 97.94 C 327.30 97.32 329.73 96.72 332.18 96.23 L 333.21 96.11 C 334.21 96.15 335.10 95.84 335.87 95.16 L 337.16 95.06 C 338.16 95.15 339.07 94.90 339.90 94.31 C 340.47 94.24 341.62 94.11 342.19 94.04 C 343.19 94.13 344.09 93.85 344.88 93.20 C 345.45 93.16 346.60 93.07 347.17 93.02 C 348.17 93.12 349.07 92.83 349.84 92.15 C 350.43 92.12 351.60 92.05 352.19 92.02 C 353.18 92.14 354.09 91.92 354.94 91.37 M 384.62 198.55 C 376.75 201.91 372.73 210.82 372.81 219.01 C 372.64 224.80 375.55 230.13 375.61 235.89 C 375.74 237.77 373.67 238.50 372.36 239.30 C 366.08 242.32 360.21 246.60 356.47 252.58 C 351.20 261.15 351.03 271.59 350.67 281.33 C 348.73 279.62 346.92 277.76 345.21 275.82 C 337.03 266.62 328.75 257.51 320.91 248.02 C 315.61 241.58 304.25 240.20 298.84 247.20 C 295.90 246.63 292.76 245.60 289.82 246.73 C 286.30 247.89 283.83 251.36 283.78 255.06 C 282.58 270.39 281.01 285.69 279.96 301.04 C 279.65 310.06 278.33 319.09 279.27 328.11 C 280.35 334.83 283.10 341.11 285.52 347.42 C 290.92 360.85 296.55 374.19 302.78 387.26 C 305.38 392.96 310.26 397.21 315.57 400.33 C 324.49 405.58 334.21 409.22 343.64 413.41 C 368.54 424.08 392.62 436.75 415.11 451.86 C 445.99 430.63 480.29 415.05 514.81 400.78 C 518.79 398.98 522.55 396.48 525.18 392.93 C 528.32 388.87 529.28 383.71 531.16 379.04 C 535.00 369.24 539.22 359.56 544.25 350.31 C 548.24 342.81 551.07 334.59 551.60 326.07 C 552.08 315.70 551.38 305.34 551.16 294.98 C 551.05 284.28 550.74 273.58 550.52 262.89 C 550.56 258.39 549.56 253.26 545.48 250.67 C 542.38 248.31 538.52 249.97 535.07 250.16 C 531.74 248.56 528.85 245.71 524.93 245.69 C 517.07 244.73 510.84 250.54 505.85 255.78 C 498.31 263.32 490.72 270.82 483.07 278.26 C 485.86 266.61 482.97 253.34 474.03 245.03 C 472.05 242.81 468.67 241.38 468.21 238.16 C 466.01 226.64 457.75 217.23 448.36 210.71 C 438.32 202.84 421.72 211.60 421.09 223.97 C 420.98 232.49 423.21 242.29 430.74 247.32 C 432.48 248.46 435.37 250.41 436.84 247.87 C 437.79 245.89 435.98 244.54 434.86 243.20 C 431.21 239.56 430.46 234.00 430.77 229.07 C 430.82 226.12 434.02 223.39 436.91 224.71 C 440.45 225.44 443.03 228.22 445.15 230.96 C 450.37 238.10 453.52 246.47 458.09 254.00 C 460.74 258.42 466.66 259.27 469.32 263.69 C 472.44 268.86 472.64 275.17 472.82 281.05 C 472.36 293.75 471.11 306.41 469.64 319.02 C 469.61 320.62 468.17 321.52 466.95 322.25 C 454.40 329.47 441.23 335.54 428.51 342.42 C 426.91 343.24 425.21 343.85 423.52 344.43 C 423.48 340.92 423.50 336.83 426.15 334.17 C 429.25 331.28 433.80 332.22 437.64 332.07 C 437.58 323.74 437.31 315.42 437.25 307.09 C 437.35 301.48 434.07 296.68 430.37 292.78 C 436.95 288.30 442.48 282.51 447.72 276.56 C 449.46 274.32 451.60 272.00 451.80 269.03 C 452.07 264.74 446.94 261.30 443.05 263.08 C 439.68 264.36 436.40 265.90 432.96 267.01 C 430.47 260.37 428.75 253.44 426.27 246.81 C 422.83 241.98 416.01 243.01 410.86 243.10 C 409.26 243.47 406.51 242.46 407.40 240.45 C 409.63 237.71 412.95 235.91 414.65 232.73 C 415.50 229.91 415.28 226.90 415.53 223.99 C 415.80 218.14 416.82 212.19 415.47 206.40 C 414.47 202.15 411.18 198.53 407.00 197.23 C 399.72 194.89 391.63 195.67 384.62 198.55 M 268.53 487.50 C 260.62 490.46 253.24 496.49 251.11 504.98 C 249.18 512.88 251.47 521.89 257.82 527.20 C 266.60 534.77 278.45 536.83 288.22 542.69 C 292.25 544.92 295.43 549.34 294.77 554.11 C 294.34 557.95 292.76 562.68 288.41 563.46 C 280.70 565.16 272.24 564.74 265.16 561.01 C 263.78 556.31 262.48 551.57 261.77 546.71 C 257.85 546.60 253.93 546.67 250.02 546.98 C 250.03 553.35 249.63 559.73 250.03 566.09 C 258.02 571.95 268.34 573.48 278.01 574.02 C 287.75 574.28 298.23 572.37 305.74 565.72 C 312.75 559.38 314.30 548.30 310.15 539.97 C 306.88 533.56 300.25 529.91 293.98 526.98 C 286.63 523.46 278.40 521.26 272.22 515.71 C 267.11 511.16 266.78 502.93 270.33 497.36 C 273.56 494.77 278.00 494.40 281.99 494.12 C 286.22 494.35 291.01 494.99 294.23 497.95 C 295.85 502.83 296.13 508.04 297.02 513.10 C 300.59 513.32 304.17 513.37 307.75 513.29 C 308.66 507.83 309.92 502.43 310.81 496.97 C 311.52 494.36 309.88 491.54 307.49 490.46 C 295.66 484.28 281.13 482.93 268.53 487.50 M 349.14 486.20 C 341.38 488.25 333.72 492.63 329.72 499.82 C 325.34 507.38 326.02 517.65 331.65 524.39 C 336.54 530.35 343.91 533.36 350.82 536.30 C 356.85 538.93 363.56 540.83 368.32 545.62 C 370.87 547.99 371.59 551.66 371.04 555.00 C 370.70 558.73 368.75 562.96 364.60 563.53 C 357.12 564.96 348.66 564.99 341.95 560.95 C 339.77 556.52 339.30 551.43 338.11 546.67 C 334.29 546.60 330.47 546.64 326.68 547.08 C 326.48 553.41 325.98 559.77 326.53 566.09 C 330.70 569.43 335.99 571.00 341.10 572.31 C 351.58 574.58 362.83 574.99 373.02 571.24 C 379.92 568.68 386.23 563.28 388.12 555.95 C 390.45 548.30 388.08 539.34 382.00 534.07 C 372.96 526.03 360.32 524.25 350.62 517.30 C 346.12 514.26 343.41 508.53 344.71 503.15 C 345.22 500.67 345.77 497.59 348.30 496.36 C 355.35 493.01 363.90 493.55 370.64 497.41 C 371.97 502.51 372.84 507.72 373.33 512.97 C 376.89 513.34 380.48 513.38 384.06 513.33 C 385.27 507.87 386.44 502.39 387.24 496.86 C 387.79 494.85 386.58 493.08 385.85 491.32 C 374.76 485.31 361.44 483.09 349.14 486.20 M 417.99 489.05 C 410.86 492.49 404.79 499.04 403.70 507.10 C 402.35 514.68 405.28 522.88 411.36 527.68 C 420.64 535.43 433.26 537.09 443.05 543.97 C 448.93 547.85 448.97 556.65 444.76 561.76 C 443.21 563.13 441.07 563.53 439.11 563.92 C 432.04 564.95 424.47 564.48 418.11 560.97 C 416.73 556.28 415.47 551.55 414.72 546.71 C 410.82 546.60 406.91 546.67 403.02 546.98 C 402.84 553.42 402.90 559.86 402.88 566.30 C 407.22 569.02 412.00 571.02 417.00 572.17 C 427.33 574.54 438.37 574.99 448.53 571.59 C 454.92 569.41 460.89 565.05 463.66 558.73 C 466.93 550.80 465.61 540.77 459.23 534.74 C 451.55 527.47 440.91 525.04 431.78 520.22 C 427.52 517.99 423.18 514.95 421.58 510.19 C 420.13 505.81 421.31 501.12 423.18 497.06 C 430.53 493.35 440.40 492.68 447.15 497.91 C 448.83 502.80 449.08 508.04 450.01 513.10 C 453.56 513.32 457.13 513.37 460.70 513.30 C 461.65 507.14 463.36 501.10 463.98 494.89 C 463.39 492.12 460.95 490.45 458.49 489.46 C 445.90 483.75 430.57 482.85 417.99 489.05 M 476.71 487.06 C 476.48 495.18 475.56 503.56 477.15 511.54 C 480.68 512.25 484.31 512.03 487.90 512.02 C 489.10 506.74 490.35 501.47 491.38 496.16 C 496.52 495.65 501.67 495.25 506.84 495.28 C 506.82 517.58 507.43 539.92 505.89 562.19 C 502.27 563.36 498.63 564.43 495.01 565.60 C 495.50 567.71 495.92 569.83 496.33 571.97 C 508.88 572.05 521.42 571.97 533.97 572.00 C 534.41 569.83 534.84 567.65 535.20 565.46 C 531.18 564.03 524.55 563.56 524.27 558.09 C 523.27 545.44 523.78 532.74 523.66 520.06 C 523.75 511.97 523.47 503.88 523.77 495.80 C 528.59 494.48 534.03 495.96 539.08 496.08 C 540.21 501.15 541.42 506.22 542.26 511.36 C 545.76 511.89 549.31 512.00 552.85 511.70 C 553.33 504.82 554.42 497.99 554.61 491.09 C 554.32 489.11 552.74 487.60 551.81 485.89 C 526.81 487.72 501.74 486.46 476.71 487.06 M 562.36 487.03 C 561.95 489.08 561.56 491.13 561.14 493.18 C 564.71 494.55 569.14 495.02 571.62 498.21 C 572.83 503.71 572.70 509.38 572.89 514.98 C 572.81 530.73 573.30 546.52 571.91 562.24 C 568.40 563.36 564.87 564.44 561.28 565.30 C 561.61 567.50 561.96 569.71 562.29 571.92 C 586.22 572.10 610.16 571.95 634.09 572.00 C 634.31 563.96 634.32 555.93 634.09 547.89 C 630.42 547.65 626.75 547.64 623.08 547.66 C 621.67 552.52 620.98 557.58 619.31 562.36 C 610.07 563.43 600.36 564.31 591.30 561.71 C 590.64 559.52 590.14 557.26 590.09 554.97 C 589.95 548.18 589.46 541.39 589.69 534.60 C 598.80 535.17 607.92 535.12 617.04 535.35 C 617.64 532.49 618.16 529.61 618.72 526.75 C 617.91 526.02 617.06 525.34 616.18 524.73 C 607.35 524.63 598.53 525.45 589.71 525.71 C 589.48 517.44 590.16 509.17 590.15 500.90 C 590.50 499.29 589.62 496.34 592.01 496.11 C 600.48 494.56 609.12 495.61 617.62 496.27 C 618.66 501.06 619.34 505.92 620.40 510.71 C 623.80 511.39 627.30 511.07 630.75 511.08 C 631.59 504.68 632.99 498.37 633.95 491.99 C 634.49 489.52 632.21 487.77 631.08 485.85 C 608.21 487.65 585.26 486.49 562.36 487.03 M 197.93 486.89 C 197.44 488.94 196.92 490.99 196.74 493.11 C 199.95 494.59 203.72 495.04 206.52 497.34 C 207.91 499.98 207.84 503.04 207.97 505.95 C 207.92 517.96 208.85 529.98 208.07 541.99 C 207.70 548.69 208.49 555.51 207.21 562.12 C 203.81 563.58 200.18 564.38 196.63 565.40 C 197.00 567.60 197.43 569.81 197.91 572.00 C 210.47 571.94 223.03 572.13 235.58 571.90 C 235.98 569.79 236.37 567.68 236.82 565.59 C 233.31 564.18 228.75 563.87 226.38 560.63 C 224.78 553.54 225.20 546.18 225.11 538.96 C 225.26 524.78 224.60 510.54 226.13 496.40 C 229.71 495.48 233.24 494.36 236.77 493.27 C 236.37 491.18 235.99 489.08 235.62 486.99 C 223.06 486.76 210.49 486.96 197.93 486.89 Z" />
<path fill="#ffffff" opacity="1.00" d=" M 394.47 211.16 C 397.31 211.10 400.40 210.59 402.98 212.09 C 407.01 214.02 408.50 218.76 408.59 222.93 C 408.14 229.90 403.08 235.26 398.31 239.85 C 399.16 241.78 401.81 243.87 400.10 246.06 C 396.26 251.59 395.17 259.29 398.74 265.22 C 399.67 267.11 401.38 268.67 401.78 270.78 C 397.95 278.70 393.36 286.98 394.15 296.10 C 394.69 301.21 396.26 307.23 401.17 309.80 C 404.51 311.50 407.80 309.24 410.49 307.41 C 412.80 305.40 415.06 309.33 417.65 308.63 C 420.28 306.65 419.84 300.82 424.01 301.04 C 427.48 302.49 431.92 305.74 430.88 310.03 C 429.99 314.98 430.37 320.03 430.20 325.03 C 426.97 325.27 423.70 325.07 420.50 325.61 C 415.31 328.35 419.99 338.43 412.98 339.14 C 410.69 335.78 411.03 331.29 411.53 327.44 C 412.74 321.63 419.06 319.99 423.53 317.41 C 426.31 314.93 425.99 310.64 424.92 307.39 C 423.47 309.22 422.40 311.30 421.06 313.20 C 416.31 316.83 408.41 315.30 405.10 320.99 C 402.44 326.79 402.56 333.71 404.45 339.72 C 407.81 345.10 414.60 346.47 419.75 349.56 C 419.53 351.71 416.71 352.48 415.29 353.90 C 407.54 346.12 398.97 338.96 389.00 334.21 C 382.85 331.06 376.17 329.13 369.99 326.06 C 365.97 324.09 361.76 320.78 361.68 315.89 C 360.76 303.60 360.14 291.20 361.38 278.90 C 362.24 271.22 364.13 263.24 369.33 257.27 C 372.67 253.18 377.25 250.44 381.68 247.69 C 383.75 246.35 386.05 244.62 386.23 241.93 C 386.88 236.82 384.84 231.95 383.94 227.01 C 386.64 224.70 389.87 222.87 391.77 219.75 C 393.59 217.25 394.03 214.13 394.47 211.16 Z" />
<path fill="#ffffff" opacity="1.00" d=" M 418.66 254.92 C 419.99 255.28 421.60 255.12 422.71 256.07 C 423.60 258.25 423.98 260.58 424.51 262.87 C 422.77 265.19 420.06 267.66 421.15 270.88 C 422.18 272.98 424.68 273.59 426.81 273.83 C 431.37 274.48 435.85 273.10 440.25 272.11 C 438.41 275.72 436.21 279.40 432.64 281.54 C 429.42 283.22 425.58 282.11 422.24 283.30 C 420.81 284.01 419.47 285.33 419.40 287.02 C 419.13 291.29 419.42 295.58 419.11 299.85 C 414.59 299.95 409.96 300.44 405.51 299.41 C 401.57 298.29 400.72 293.54 400.52 290.03 C 401.28 279.93 412.75 273.51 411.61 262.94 C 413.26 262.21 415.11 261.77 416.51 260.56 C 418.10 259.14 418.10 256.83 418.66 254.92 Z" />
<path fill="#ffffff" opacity="1.00" d=" M 314.27 268.31 C 316.78 266.99 319.54 269.24 319.74 271.82 C 321.80 281.89 324.46 291.88 325.86 302.06 C 326.79 306.17 320.89 308.77 318.79 304.99 C 316.50 299.52 316.67 293.38 315.49 287.62 C 314.86 281.39 312.97 275.28 313.11 269.00 C 313.40 268.83 313.98 268.48 314.27 268.31 Z" />
<path fill="#ffffff" opacity="1.00" d=" M 529.90 269.86 C 530.98 268.86 532.73 267.69 534.18 268.66 C 536.47 269.78 536.64 272.67 536.80 274.90 C 537.23 286.25 536.69 297.62 537.34 308.97 C 537.49 315.29 538.56 321.72 537.14 327.97 C 535.82 334.37 532.46 340.06 529.86 345.98 C 525.39 355.47 521.64 365.32 516.37 374.41 C 512.64 380.90 505.38 383.71 499.04 386.94 C 478.77 397.31 457.36 405.32 437.43 416.37 C 429.74 420.48 422.59 425.49 415.29 430.24 C 386.96 409.10 352.66 398.80 322.02 381.80 C 316.46 378.67 313.33 372.88 310.71 367.32 C 306.19 357.79 302.13 348.06 297.49 338.59 C 294.66 332.92 292.68 326.55 293.61 320.16 C 295.44 306.86 295.92 293.43 296.29 280.02 C 296.57 276.47 296.46 271.96 299.81 269.75 C 302.96 267.68 305.40 272.18 305.65 274.89 C 307.66 290.60 309.27 306.37 311.90 321.99 C 312.95 328.04 314.24 334.23 317.44 339.56 C 322.09 347.39 329.40 353.30 337.39 357.49 C 343.33 360.65 349.12 364.72 355.93 365.66 C 358.87 366.28 361.69 363.92 361.99 361.02 C 361.86 358.37 359.44 356.78 357.44 355.49 C 349.37 350.61 340.87 346.40 333.24 340.84 C 327.20 336.70 324.44 328.68 325.75 321.62 C 328.98 321.69 332.13 322.54 334.95 324.14 C 354.82 334.72 375.98 342.87 395.13 354.79 C 407.77 364.19 413.15 380.42 415.17 395.47 L 415.84 395.51 C 416.62 386.99 419.23 378.71 422.83 370.98 C 426.28 363.56 431.71 356.94 438.85 352.82 C 457.58 342.01 477.61 333.73 496.76 323.75 C 499.26 322.64 502.07 321.03 504.87 322.03 C 505.85 323.34 505.62 325.01 505.43 326.52 C 504.85 330.33 503.94 334.32 501.31 337.29 C 496.39 343.00 489.26 345.94 483.04 349.92 C 478.78 352.71 473.80 354.48 470.15 358.12 C 467.13 360.82 470.32 365.97 473.97 365.70 C 478.66 365.59 482.90 363.21 486.98 361.12 C 493.91 357.20 501.26 353.66 506.87 347.87 C 512.37 342.55 516.23 335.62 517.77 328.12 C 520.87 313.84 523.48 299.44 525.73 285.00 C 526.62 279.87 526.29 274.02 529.90 269.86 Z" />
<path fill="#ffffff" opacity="1.00" d=" M 513.30 269.34 C 514.63 269.00 515.98 268.74 517.35 268.54 C 517.47 271.81 517.02 275.06 516.43 278.27 C 515.04 286.03 513.94 293.84 512.40 301.57 C 512.02 303.88 510.40 306.21 507.88 306.35 C 505.28 305.83 506.02 302.76 506.20 300.90 C 507.60 292.18 509.51 283.54 511.10 274.85 C 511.53 272.94 511.80 270.76 513.30 269.34 Z" />
<path fill="#ffffff" opacity="1.00" d=" M 330.17 284.32 C 332.21 283.47 334.32 285.12 334.56 287.18 C 335.44 292.08 335.86 297.07 336.98 301.94 C 337.34 304.21 338.23 306.53 337.77 308.84 C 335.85 311.09 332.49 308.47 332.42 306.04 C 331.47 299.35 330.16 292.68 329.45 285.96 C 329.63 285.55 329.99 284.73 330.17 284.32 Z" />
<path fill="#ffffff" opacity="1.00" d=" M 493.73 298.99 C 494.89 293.39 494.37 286.75 499.08 282.63 C 501.49 286.06 500.15 290.20 500.04 294.03 C 499.64 298.31 500.03 302.74 498.71 306.89 C 498.06 309.07 494.88 311.21 493.23 308.80 C 492.22 305.58 493.35 302.22 493.73 298.99 Z" />
<path fill="#ffffff" opacity="1.00" d=" M 345.13 296.22 C 347.23 295.44 347.97 297.89 348.46 299.41 C 349.50 303.93 350.49 308.47 351.21 313.05 C 351.84 315.01 349.04 316.87 347.50 315.44 C 345.65 313.92 345.76 311.20 345.16 309.06 C 344.67 304.86 342.82 300.47 344.36 296.32 L 345.13 296.22 Z" />
<path fill="#ffffff" opacity="1.00" d=" M 480.77 304.10 C 481.56 300.76 481.68 295.86 486.19 295.61 C 486.03 301.72 486.16 307.95 484.95 313.97 C 484.64 316.35 481.25 316.81 480.25 314.70 C 478.79 311.27 480.19 307.57 480.77 304.10 Z" />
</g>
<g id="#ca9656ff">
<path fill="#ca9656" opacity="1.00" d=" M 352.19 92.02 C 352.63 90.29 353.55 90.08 354.94 91.37 C 354.09 91.92 353.18 92.14 352.19 92.02 Z" />
<path fill="#ca9656" opacity="1.00" d=" M 347.17 93.02 C 347.49 91.29 348.38 91.00 349.84 92.15 C 349.07 92.83 348.17 93.12 347.17 93.02 Z" />
<path fill="#ca9656" opacity="1.00" d=" M 478.11 92.26 C 479.53 91.03 480.44 91.28 480.83 93.01 C 479.82 93.11 478.92 92.86 478.11 92.26 Z" />
<path fill="#ca9656" opacity="1.00" d=" M 342.19 94.04 C 342.54 92.30 343.44 92.02 344.88 93.20 C 344.09 93.85 343.19 94.13 342.19 94.04 Z" />
<path fill="#ca9656" opacity="1.00" d=" M 483.17 93.14 C 484.65 92.02 485.54 92.33 485.82 94.08 C 484.80 94.14 483.92 93.82 483.17 93.14 Z" />
<path fill="#ca9656" opacity="1.00" d=" M 337.16 95.06 C 337.58 93.32 338.50 93.07 339.90 94.31 C 339.07 94.90 338.16 95.15 337.16 95.06 Z" />
<path fill="#ca9656" opacity="1.00" d=" M 333.21 96.11 C 333.49 94.36 334.38 94.05 335.87 95.16 C 335.10 95.84 334.21 96.15 333.21 96.11 Z" />
<path fill="#ca9656" opacity="1.00" d=" M 492.08 95.22 C 493.53 94.03 494.44 94.31 494.80 96.05 C 493.78 96.11 492.88 95.84 492.08 95.22 Z" />
<path fill="#ca9656" opacity="1.00" d=" M 324.87 97.94 C 327.24 97.11 329.67 96.46 332.18 96.23 C 329.73 96.72 327.30 97.32 324.87 97.94 Z" />
<path fill="#ca9656" opacity="1.00" d=" M 496.11 96.18 C 497.57 95.03 498.47 95.33 498.80 97.10 C 497.78 97.13 496.89 96.82 496.11 96.18 Z" />
<path fill="#ca9656" opacity="1.00" d=" M 322.22 98.14 L 323.23 97.74 L 323.99 98.26 C 323.50 98.45 322.52 98.84 322.03 99.04 L 322.22 98.14 Z" />
<path fill="#ca9656" opacity="1.00" d=" M 507.11 99.27 C 508.58 98.10 509.48 98.40 509.81 100.17 C 508.80 100.18 507.90 99.88 507.11 99.27 Z" />
<path fill="#ca9656" opacity="1.00" d=" M 309.23 102.12 L 310.24 101.73 L 311.01 102.26 C 310.51 102.45 309.52 102.83 309.03 103.02 L 309.23 102.12 Z" />
<path fill="#ca9656" opacity="1.00" d=" M 516.99 102.22 L 517.76 101.71 L 518.77 102.13 L 518.94 103.03 C 518.45 102.83 517.47 102.42 516.99 102.22 Z" />
<path fill="#ca9656" opacity="1.00" d=" M 306.20 103.14 L 307.13 102.60 L 307.95 102.99 C 307.50 103.26 306.59 103.79 306.13 104.06 L 306.20 103.14 Z" />
<path fill="#ca9656" opacity="1.00" d=" M 520.06 103.05 L 520.86 102.61 L 521.82 103.10 L 521.93 104.00 C 521.46 103.77 520.53 103.29 520.06 103.05 Z" />
<path fill="#ca9656" opacity="1.00" d=" M 523.11 104.02 L 523.95 103.64 L 524.87 104.20 L 524.91 105.11 C 524.46 104.84 523.56 104.29 523.11 104.02 Z" />
<path fill="#ca9656" opacity="1.00" d=" M 266.72 119.76 C 270.85 117.83 274.65 114.97 279.24 114.22 C 265.46 120.50 252.06 127.56 239.01 135.25 C 241.62 132.21 245.51 130.87 248.83 128.79 C 254.51 125.24 260.84 122.93 266.72 119.76 Z" />
<path fill="#ca9656" opacity="1.00" d=" M 561.69 120.20 C 566.64 121.54 570.74 124.85 575.50 126.72 C 582.73 131.07 590.66 134.49 596.99 140.17 C 585.41 133.18 573.78 126.27 561.69 120.20 Z" />
<path fill="#ca9656" opacity="1.00" d=" M 230.97 140.22 C 232.86 138.13 235.39 136.84 237.99 135.88 C 235.69 137.39 233.33 138.80 230.97 140.22 Z" />
<path fill="#ca9656" opacity="1.00" d=" M 228.18 141.27 L 229.09 140.67 L 229.94 141.03 C 229.50 141.32 228.61 141.90 228.17 142.19 L 228.18 141.27 Z" />
<path fill="#ca9656" opacity="1.00" d=" M 598.06 141.05 L 598.90 140.67 L 599.82 141.23 L 599.86 142.15 C 599.41 141.87 598.51 141.32 598.06 141.05 Z" />
<path fill="#ca9656" opacity="1.00" d=" M 225.16 143.36 L 226.01 142.68 L 226.89 142.96 C 226.47 143.29 225.65 143.95 225.23 144.28 L 225.16 143.36 Z" />
<path fill="#ca9656" opacity="1.00" d=" M 601.09 143.01 L 601.95 142.68 L 602.84 143.31 L 602.81 144.23 C 602.38 143.93 601.52 143.31 601.09 143.01 Z" />
<path fill="#ca9656" opacity="1.00" d=" M 218.00 149.19 C 219.43 147.06 221.63 145.75 224.04 145.00 C 222.03 146.40 220.03 147.82 218.00 149.19 Z" />
<path fill="#ca9656" opacity="1.00" d=" M 603.96 144.91 C 606.52 146.06 608.90 147.57 611.10 149.32 C 614.75 152.21 619.02 154.40 621.91 158.16 C 615.93 153.74 609.94 149.33 603.96 144.91 Z" />
<path fill="#ca9656" opacity="1.00" d=" M 623.05 159.08 C 625.13 160.22 627.15 161.48 628.96 163.04 C 642.97 175.15 656.56 187.84 668.57 201.97 C 669.60 203.20 670.41 204.59 671.15 206.01 C 656.56 188.95 640.43 173.27 623.05 159.08 Z" />
<path fill="#ca9656" opacity="1.00" d=" M 185.30 175.30 C 187.68 172.97 190.10 170.60 193.08 169.03 C 182.22 178.88 171.79 189.19 162.00 200.10 C 163.26 198.04 164.67 196.06 166.34 194.31 C 172.45 187.77 178.69 181.34 185.30 175.30 Z" />
<path fill="#ca9656" opacity="1.00" d=" M 384.62 198.55 C 391.63 195.67 399.72 194.89 407.00 197.23 C 411.18 198.53 414.47 202.15 415.47 206.40 C 416.82 212.19 415.80 218.14 415.53 223.99 C 415.28 226.90 415.50 229.91 414.65 232.73 C 412.95 235.91 409.63 237.71 407.40 240.45 C 406.51 242.46 409.26 243.47 410.86 243.10 C 416.01 243.01 422.83 241.98 426.27 246.81 C 428.75 253.44 430.47 260.37 432.96 267.01 C 436.40 265.90 439.68 264.36 443.05 263.08 C 446.94 261.30 452.07 264.74 451.80 269.03 C 451.60 272.00 449.46 274.32 447.72 276.56 C 442.48 282.51 436.95 288.30 430.37 292.78 C 434.07 296.68 437.35 301.48 437.25 307.09 C 437.31 315.42 437.58 323.74 437.64 332.07 C 433.80 332.22 429.25 331.28 426.15 334.17 C 423.50 336.83 423.48 340.92 423.52 344.43 C 425.21 343.85 426.91 343.24 428.51 342.42 C 441.23 335.54 454.40 329.47 466.95 322.25 C 468.17 321.52 469.61 320.62 469.64 319.02 C 471.11 306.41 472.36 293.75 472.82 281.05 C 472.64 275.17 472.44 268.86 469.32 263.69 C 466.66 259.27 460.74 258.42 458.09 254.00 C 453.52 246.47 450.37 238.10 445.15 230.96 C 443.03 228.22 440.45 225.44 436.91 224.71 C 434.02 223.39 430.82 226.12 430.77 229.07 C 430.46 234.00 431.21 239.56 434.86 243.20 C 435.98 244.54 437.79 245.89 436.84 247.87 C 435.37 250.41 432.48 248.46 430.74 247.32 C 423.21 242.29 420.98 232.49 421.09 223.97 C 421.72 211.60 438.32 202.84 448.36 210.71 C 457.75 217.23 466.01 226.64 468.21 238.16 C 468.67 241.38 472.05 242.81 474.03 245.03 C 482.97 253.34 485.86 266.61 483.07 278.26 C 490.72 270.82 498.31 263.32 505.85 255.78 C 510.84 250.54 517.07 244.73 524.93 245.69 C 528.85 245.71 531.74 248.56 535.07 250.16 C 538.52 249.97 542.38 248.31 545.48 250.67 C 549.56 253.26 550.56 258.39 550.52 262.89 C 550.74 273.58 551.05 284.28 551.16 294.98 C 551.38 305.34 552.08 315.70 551.60 326.07 C 551.07 334.59 548.24 342.81 544.25 350.31 C 539.22 359.56 535.00 369.24 531.16 379.04 C 529.28 383.71 528.32 388.87 525.18 392.93 C 522.55 396.48 518.79 398.98 514.81 400.78 C 480.29 415.05 445.99 430.63 415.11 451.86 C 392.62 436.75 368.54 424.08 343.64 413.41 C 334.21 409.22 324.49 405.58 315.57 400.33 C 310.26 397.21 305.38 392.96 302.78 387.26 C 296.55 374.19 290.92 360.85 285.52 347.42 C 283.10 341.11 280.35 334.83 279.27 328.11 C 278.33 319.09 279.65 310.06 279.96 301.04 C 281.01 285.69 282.58 270.39 283.78 255.06 C 283.83 251.36 286.30 247.89 289.82 246.73 C 292.76 245.60 295.90 246.63 298.84 247.20 C 304.25 240.20 315.61 241.58 320.91 248.02 C 328.75 257.51 337.03 266.62 345.21 275.82 C 346.92 277.76 348.73 279.62 350.67 281.33 C 351.03 271.59 351.20 261.15 356.47 252.58 C 360.21 246.60 366.08 242.32 372.36 239.30 C 373.67 238.50 375.74 237.77 375.61 235.89 C 375.55 230.13 372.64 224.80 372.81 219.01 C 372.73 210.82 376.75 201.91 384.62 198.55 M 394.47 211.16 C 394.03 214.13 393.59 217.25 391.77 219.75 C 389.87 222.87 386.64 224.70 383.94 227.01 C 384.84 231.95 386.88 236.82 386.23 241.93 C 386.05 244.62 383.75 246.35 381.68 247.69 C 377.25 250.44 372.67 253.18 369.33 257.27 C 364.13 263.24 362.24 271.22 361.38 278.90 C 360.14 291.20 360.76 303.60 361.68 315.89 C 361.76 320.78 365.97 324.09 369.99 326.06 C 376.17 329.13 382.85 331.06 389.00 334.21 C 398.97 338.96 407.54 346.12 415.29 353.90 C 416.71 352.48 419.53 351.71 419.75 349.56 C 414.60 346.47 407.81 345.10 404.45 339.72 C 402.56 333.71 402.44 326.79 405.10 320.99 C 408.41 315.30 416.31 316.83 421.06 313.20 C 422.40 311.30 423.47 309.22 424.92 307.39 C 425.99 310.64 426.31 314.93 423.53 317.41 C 419.06 319.99 412.74 321.63 411.53 327.44 C 411.03 331.29 410.69 335.78 412.98 339.14 C 419.99 338.43 415.31 328.35 420.50 325.61 C 423.70 325.07 426.97 325.27 430.20 325.03 C 430.37 320.03 429.99 314.98 430.88 310.03 C 431.92 305.74 427.48 302.49 424.01 301.04 C 419.84 300.82 420.28 306.65 417.65 308.63 C 415.06 309.33 412.80 305.40 410.49 307.41 C 407.80 309.24 404.51 311.50 401.17 309.80 C 396.26 307.23 394.69 301.21 394.15 296.10 C 393.36 286.98 397.95 278.70 401.78 270.78 C 401.38 268.67 399.67 267.11 398.74 265.22 C 395.17 259.29 396.26 251.59 400.10 246.06 C 401.81 243.87 399.16 241.78 398.31 239.85 C 403.08 235.26 408.14 229.90 408.59 222.93 C 408.50 218.76 407.01 214.02 402.98 212.09 C 400.40 210.59 397.31 211.10 394.47 211.16 M 418.66 254.92 C 418.10 256.83 418.10 259.14 416.51 260.56 C 415.11 261.77 413.26 262.21 411.61 262.94 C 412.75 273.51 401.28 279.93 400.52 290.03 C 400.72 293.54 401.57 298.29 405.51 299.41 C 409.96 300.44 414.59 299.95 419.11 299.85 C 419.42 295.58 419.13 291.29 419.40 287.02 C 419.47 285.33 420.81 284.01 422.24 283.30 C 425.58 282.11 429.42 283.22 432.64 281.54 C 436.21 279.40 438.41 275.72 440.25 272.11 C 435.85 273.10 431.37 274.48 426.81 273.83 C 424.68 273.59 422.18 272.98 421.15 270.88 C 420.06 267.66 422.77 265.19 424.51 262.87 C 423.98 260.58 423.60 258.25 422.71 256.07 C 421.60 255.12 419.99 255.28 418.66 254.92 M 314.27 268.31 C 313.98 268.48 313.40 268.83 313.11 269.00 C 312.97 275.28 314.86 281.39 315.49 287.62 C 316.67 293.38 316.50 299.52 318.79 304.99 C 320.89 308.77 326.79 306.17 325.86 302.06 C 324.46 291.88 321.80 281.89 319.74 271.82 C 319.54 269.24 316.78 266.99 314.27 268.31 M 529.90 269.86 C 526.29 274.02 526.62 279.87 525.73 285.00 C 523.48 299.44 520.87 313.84 517.77 328.12 C 516.23 335.62 512.37 342.55 506.87 347.87 C 501.26 353.66 493.91 357.20 486.98 361.12 C 482.90 363.21 478.66 365.59 473.97 365.70 C 470.32 365.97 467.13 360.82 470.15 358.12 C 473.80 354.48 478.78 352.71 483.04 349.92 C 489.26 345.94 496.39 343.00 501.31 337.29 C 503.94 334.32 504.85 330.33 505.43 326.52 C 505.62 325.01 505.85 323.34 504.87 322.03 C 502.07 321.03 499.26 322.64 496.76 323.75 C 477.61 333.73 457.58 342.01 438.85 352.82 C 431.71 356.94 426.28 363.56 422.83 370.98 C 419.23 378.71 416.62 386.99 415.84 395.51 L 415.17 395.47 C 413.15 380.42 407.77 364.19 395.13 354.79 C 375.98 342.87 354.82 334.72 334.95 324.14 C 332.13 322.54 328.98 321.69 325.75 321.62 C 324.44 328.68 327.20 336.70 333.24 340.84 C 340.87 346.40 349.37 350.61 357.44 355.49 C 359.44 356.78 361.86 358.37 361.99 361.02 C 361.69 363.92 358.87 366.28 355.93 365.66 C 349.12 364.72 343.33 360.65 337.39 357.49 C 329.40 353.30 322.09 347.39 317.44 339.56 C 314.24 334.23 312.95 328.04 311.90 321.99 C 309.27 306.37 307.66 290.60 305.65 274.89 C 305.40 272.18 302.96 267.68 299.81 269.75 C 296.46 271.96 296.57 276.47 296.29 280.02 C 295.92 293.43 295.44 306.86 293.61 320.16 C 292.68 326.55 294.66 332.92 297.49 338.59 C 302.13 348.06 306.19 357.79 310.71 367.32 C 313.33 372.88 316.46 378.67 322.02 381.80 C 352.66 398.80 386.96 409.10 415.29 430.24 C 422.59 425.49 429.74 420.48 437.43 416.37 C 457.36 405.32 478.77 397.31 499.04 386.94 C 505.38 383.71 512.64 380.90 516.37 374.41 C 521.64 365.32 525.39 355.47 529.86 345.98 C 532.46 340.06 535.82 334.37 537.14 327.97 C 538.56 321.72 537.49 315.29 537.34 308.97 C 536.69 297.62 537.23 286.25 536.80 274.90 C 536.64 272.67 536.47 269.78 534.18 268.66 C 532.73 267.69 530.98 268.86 529.90 269.86 M 513.30 269.34 C 511.80 270.76 511.53 272.94 511.10 274.85 C 509.51 283.54 507.60 292.18 506.20 300.90 C 506.02 302.76 505.28 305.83 507.88 306.35 C 510.40 306.21 512.02 303.88 512.40 301.57 C 513.94 293.84 515.04 286.03 516.43 278.27 C 517.02 275.06 517.47 271.81 517.35 268.54 C 515.98 268.74 514.63 269.00 513.30 269.34 M 330.17 284.32 C 329.99 284.73 329.63 285.55 329.45 285.96 C 330.16 292.68 331.47 299.35 332.42 306.04 C 332.49 308.47 335.85 311.09 337.77 308.84 C 338.23 306.53 337.34 304.21 336.98 301.94 C 335.86 297.07 335.44 292.08 334.56 287.18 C 334.32 285.12 332.21 283.47 330.17 284.32 M 493.73 298.99 C 493.35 302.22 492.22 305.58 493.23 308.80 C 494.88 311.21 498.06 309.07 498.71 306.89 C 500.03 302.74 499.64 298.31 500.04 294.03 C 500.15 290.20 501.49 286.06 499.08 282.63 C 494.37 286.75 494.89 293.39 493.73 298.99 M 345.13 296.22 L 344.36 296.32 C 342.82 300.47 344.67 304.86 345.16 309.06 C 345.76 311.20 345.65 313.92 347.50 315.44 C 349.04 316.87 351.84 315.01 351.21 313.05 C 350.49 308.47 349.50 303.93 348.46 299.41 C 347.97 297.89 347.23 295.44 345.13 296.22 M 480.77 304.10 C 480.19 307.57 478.79 311.27 480.25 314.70 C 481.25 316.81 484.64 316.35 484.95 313.97 C 486.16 307.95 486.03 301.72 486.19 295.61 C 481.68 295.86 481.56 300.76 480.77 304.10 Z" />
<path fill="#ca9656" opacity="1.00" d=" M 156.08 207.09 C 156.97 204.53 158.87 202.58 161.09 201.10 C 159.40 203.07 157.73 205.08 156.08 207.09 Z" />
<path fill="#ca9656" opacity="1.00" d=" M 672.00 207.02 C 673.74 208.38 675.37 209.97 676.06 212.14 C 674.73 210.41 673.37 208.71 672.00 207.02 Z" />
<path fill="#ca9656" opacity="1.00" d=" M 152.29 211.84 C 150.68 210.30 153.25 207.06 155.05 208.48 C 154.25 209.69 153.33 210.82 152.29 211.84 Z" />
<path fill="#ca9656" opacity="1.00" d=" M 144.94 221.12 C 146.06 217.84 148.51 215.33 151.11 213.15 C 149.06 215.81 147.06 218.52 144.94 221.12 Z" />
<path fill="#ca9656" opacity="1.00" d=" M 677.00 213.49 C 678.81 212.05 681.33 215.34 679.70 216.87 C 678.70 215.82 677.76 214.71 677.00 213.49 Z" />
<path fill="#ca9656" opacity="1.00" d=" M 680.84 218.32 C 682.36 217.09 684.31 219.82 682.84 220.99 C 682.01 220.21 681.34 219.31 680.84 218.32 Z" />
<path fill="#ca9656" opacity="1.00" d=" M 139.86 228.07 C 140.74 225.69 142.05 223.47 144.23 222.06 C 142.79 224.08 141.36 226.10 139.86 228.07 Z" />
<path fill="#ca9656" opacity="1.00" d=" M 683.86 222.35 C 685.37 221.11 687.28 223.86 685.84 225.02 C 685.00 224.26 684.34 223.35 683.86 222.35 Z" />
<path fill="#ca9656" opacity="1.00" d=" M 123.83 253.04 C 124.86 249.62 126.54 246.35 129.29 243.99 C 127.60 247.09 125.73 250.07 123.83 253.04 Z" />
<path fill="#ca9656" opacity="1.00" d=" M 698.82 244.05 C 703.57 249.05 706.00 255.67 709.64 261.44 C 713.52 268.70 717.39 275.99 720.37 283.68 C 723.44 290.73 726.88 297.70 728.77 305.19 C 720.81 283.88 710.58 263.50 698.82 244.05 Z" />
<path fill="#ca9656" opacity="1.00" d=" M 108.53 281.47 C 112.65 271.95 117.27 262.51 123.25 254.02 C 114.98 268.94 107.49 284.28 101.19 300.14 C 102.55 293.52 106.34 287.80 108.53 281.47 Z" />
<path fill="#ca9656" opacity="1.00" d=" M 728.99 306.04 L 729.89 306.23 L 730.29 307.24 L 729.76 308.01 C 729.57 307.52 729.18 306.53 728.99 306.04 Z" />
<path fill="#ca9656" opacity="1.00" d=" M 94.15 318.20 L 95.05 318.04 C 94.85 318.53 94.43 319.50 94.23 319.99 L 93.72 319.20 L 94.15 318.20 Z" />
<path fill="#ca9656" opacity="1.00" d=" M 733.97 321.07 L 734.88 321.23 L 735.30 322.23 L 734.80 323.01 C 734.59 322.53 734.18 321.55 733.97 321.07 Z" />
<path fill="#ca9656" opacity="1.00" d=" M 90.09 333.85 C 89.00 332.33 89.34 331.45 91.10 331.21 C 91.11 332.22 90.77 333.10 90.09 333.85 Z" />
<path fill="#ca9656" opacity="1.00" d=" M 736.96 331.09 L 737.87 331.29 L 738.26 332.31 L 737.73 333.07 C 737.53 332.57 737.15 331.59 736.96 331.09 Z" />
<path fill="#ca9656" opacity="1.00" d=" M 89.05 337.80 C 87.96 336.30 88.27 335.42 90.00 335.14 C 90.06 336.15 89.75 337.04 89.05 337.80 Z" />
<path fill="#ca9656" opacity="1.00" d=" M 88.15 339.21 L 89.05 339.07 C 88.83 339.54 88.40 340.50 88.19 340.98 L 87.71 340.19 L 88.15 339.21 Z" />
<path fill="#ca9656" opacity="1.00" d=" M 87.07 345.86 C 85.94 344.37 86.25 343.48 87.98 343.19 C 88.05 344.20 87.74 345.09 87.07 345.86 Z" />
<path fill="#ca9656" opacity="1.00" d=" M 86.20 349.90 C 85.01 348.46 85.29 347.56 87.02 347.19 C 87.11 348.19 86.84 349.10 86.20 349.90 Z" />
<path fill="#ca9656" opacity="1.00" d=" M 740.95 347.20 C 742.69 347.52 742.98 348.42 741.80 349.89 C 741.17 349.09 740.89 348.19 740.95 347.20 Z" />
<path fill="#ca9656" opacity="1.00" d=" M 85.29 354.87 C 84.03 353.46 84.27 352.55 86.01 352.14 C 86.11 353.13 85.87 354.04 85.29 354.87 Z" />
<path fill="#ca9656" opacity="1.00" d=" M 743.93 480.93 C 744.10 480.43 744.44 479.43 744.61 478.94 L 745.17 479.68 L 744.82 480.71 L 743.93 480.93 Z" />
<path fill="#ca9656" opacity="1.00" d=" M 85.41 489.03 C 85.92 489.89 86.11 490.82 85.99 491.82 C 84.27 491.31 84.08 490.38 85.41 489.03 Z" />
<path fill="#ca9656" opacity="1.00" d=" M 741.97 491.85 C 741.85 490.84 742.07 489.92 742.63 489.08 C 743.90 490.47 743.68 491.39 741.97 491.85 Z" />
<path fill="#ca9656" opacity="1.00" d=" M 86.13 493.15 C 86.81 493.90 87.13 494.79 87.09 495.81 C 85.34 495.52 85.02 494.63 86.13 493.15 Z" />
<path fill="#ca9656" opacity="1.00" d=" M 741.03 495.81 C 740.95 494.79 741.24 493.90 741.90 493.12 C 743.05 494.58 742.75 495.48 741.03 495.81 Z" />
<path fill="#ca9656" opacity="1.00" d=" M 739.94 500.82 C 739.86 499.80 740.12 498.90 740.73 498.09 C 741.94 499.50 741.68 500.41 739.94 500.82 Z" />
<path fill="#ca9656" opacity="1.00" d=" M 738.91 504.85 C 738.84 503.83 739.14 502.93 739.79 502.15 C 740.94 503.59 740.65 504.49 738.91 504.85 Z" />
<path fill="#ca9656" opacity="1.00" d=" M 737.92 508.82 C 737.82 507.80 738.10 506.90 738.75 506.11 C 739.92 507.53 739.64 508.44 737.92 508.82 Z" />
<path fill="#ca9656" opacity="1.00" d=" M 90.30 509.90 C 90.44 510.41 90.73 511.43 90.87 511.94 L 90.00 511.67 L 89.70 510.62 L 90.30 509.90 Z" />
<path fill="#ca9656" opacity="1.00" d=" M 736.98 511.92 C 737.20 511.44 737.64 510.48 737.85 510.00 L 738.33 510.79 L 737.88 511.77 L 736.98 511.92 Z" />
<path fill="#ca9656" opacity="1.00" d=" M 91.18 513.14 C 91.86 513.90 92.17 514.79 92.12 515.81 C 90.38 515.51 90.07 514.62 91.18 513.14 Z" />
<path fill="#ca9656" opacity="1.00" d=" M 735.93 515.95 C 736.12 515.46 736.52 514.48 736.72 513.99 L 737.23 514.76 L 736.83 515.76 L 735.93 515.95 Z" />
<path fill="#ca9656" opacity="1.00" d=" M 92.23 517.04 C 92.43 517.52 92.83 518.49 93.04 518.97 L 92.14 518.80 L 91.73 517.80 L 92.23 517.04 Z" />
<path fill="#ca9656" opacity="1.00" d=" M 735.03 518.91 C 735.25 518.43 735.68 517.46 735.89 516.98 L 736.37 517.76 L 735.93 518.75 L 735.03 518.91 Z" />
<path fill="#ca9656" opacity="1.00" d=" M 92.97 520.09 C 93.25 520.53 93.80 521.43 94.07 521.87 L 93.16 521.83 L 92.60 520.92 L 92.97 520.09 Z" />
<path fill="#ca9656" opacity="1.00" d=" M 733.00 525.52 C 733.31 523.71 733.91 521.98 734.58 520.28 C 736.23 521.67 735.32 525.77 733.00 525.52 Z" />
<path fill="#ca9656" opacity="1.00" d=" M 731.90 528.89 C 732.10 528.40 732.49 527.42 732.68 526.93 L 733.21 527.71 L 732.81 528.71 L 731.90 528.89 Z" />
<path fill="#ca9656" opacity="1.00" d=" M 729.13 537.14 C 730.00 534.68 730.86 532.22 731.68 529.74 C 731.32 532.34 730.69 534.97 729.13 537.14 Z" />
<path fill="#ca9656" opacity="1.00" d=" M 98.25 534.97 C 98.43 535.47 98.79 536.46 98.97 536.96 L 98.07 536.75 L 97.70 535.72 L 98.25 534.97 Z" />
<path fill="#ca9656" opacity="1.00" d=" M 99.22 537.82 C 100.11 540.27 101.08 542.69 101.97 545.14 C 100.52 542.93 99.68 540.41 99.22 537.82 Z" />
<path fill="#ca9656" opacity="1.00" d=" M 727.98 539.91 C 728.18 539.42 728.58 538.45 728.78 537.96 L 729.30 538.73 L 728.89 539.73 L 727.98 539.91 Z" />
<path fill="#ca9656" opacity="1.00" d=" M 723.72 551.05 C 724.87 547.55 726.36 544.17 727.72 540.75 C 726.89 544.36 725.47 547.80 723.72 551.05 Z" />
<path fill="#ca9656" opacity="1.00" d=" M 104.24 550.68 C 105.51 553.41 106.74 556.15 107.87 558.95 C 106.05 556.50 104.48 553.78 104.24 550.68 Z" />
<path fill="#ca9656" opacity="1.00" d=" M 721.03 556.97 C 721.82 555.06 722.42 553.04 723.55 551.30 C 723.78 551.34 724.24 551.42 724.47 551.45 C 723.40 553.33 722.26 555.18 721.03 556.97 Z" />
<path fill="#ca9656" opacity="1.00" d=" M 707.54 584.05 C 712.29 575.46 716.55 566.61 720.72 557.74 C 719.68 563.73 715.80 568.61 713.46 574.10 C 711.68 577.50 710.62 581.52 707.54 584.05 Z" />
<path fill="#ca9656" opacity="1.00" d=" M 121.70 586.14 C 122.66 587.49 123.50 588.93 124.19 590.45 C 121.92 591.55 120.09 587.71 121.70 586.14 Z" />
<path fill="#ca9656" opacity="1.00" d=" M 700.76 595.57 C 701.30 594.38 701.98 593.25 702.90 592.32 C 704.40 593.59 702.53 596.78 700.76 595.57 Z" />
<path fill="#ca9656" opacity="1.00" d=" M 697.72 600.54 C 698.29 599.34 698.99 598.20 699.79 597.14 C 701.37 598.37 699.56 601.69 697.72 600.54 Z" />
<path fill="#ca9656" opacity="1.00" d=" M 693.92 606.48 C 694.63 604.95 695.58 603.55 696.62 602.23 C 698.16 603.83 696.04 607.60 693.92 606.48 Z" />
<path fill="#ca9656" opacity="1.00" d=" M 133.09 605.01 C 133.40 605.45 134.01 606.31 134.32 606.74 L 133.39 606.76 L 132.76 605.88 L 133.09 605.01 Z" />
<path fill="#ca9656" opacity="1.00" d=" M 691.72 609.76 C 692.05 609.35 692.69 608.52 693.02 608.10 L 693.31 608.98 L 692.65 609.84 L 691.72 609.76 Z" />
<path fill="#ca9656" opacity="1.00" d=" M 686.82 617.04 C 688.22 615.00 689.62 612.96 691.02 610.92 C 690.23 613.33 688.93 615.56 686.82 617.04 Z" />
<path fill="#ca9656" opacity="1.00" d=" M 141.90 617.91 C 143.74 620.17 145.46 622.53 147.12 624.93 C 144.79 623.08 143.09 620.61 141.90 617.91 Z" />
<path fill="#ca9656" opacity="1.00" d=" M 684.70 619.78 C 685.01 619.35 685.64 618.50 685.96 618.08 L 686.27 618.95 L 685.62 619.83 L 684.70 619.78 Z" />
<path fill="#ca9656" opacity="1.00" d=" M 677.86 628.89 C 679.84 626.24 681.83 623.60 683.87 621.00 C 682.45 624.02 680.51 626.81 677.86 628.89 Z" />
<path fill="#ca9656" opacity="1.00" d=" M 151.09 630.06 C 155.13 634.61 158.86 639.42 162.95 643.93 C 176.05 658.91 190.77 672.37 206.16 684.95 C 204.98 684.38 203.78 683.82 202.72 683.04 C 189.35 672.25 177.00 660.25 165.32 647.66 C 160.62 641.76 154.71 636.76 151.09 630.06 Z" />
<path fill="#ca9656" opacity="1.00" d=" M 673.94 633.51 C 674.71 632.27 675.66 631.16 676.71 630.15 C 678.32 631.69 675.74 634.84 673.94 633.51 Z" />
<path fill="#ca9656" opacity="1.00" d=" M 633.91 674.99 C 635.98 673.03 638.18 671.20 640.36 669.36 C 638.76 671.81 636.46 673.63 633.91 674.99 Z" />
<path fill="#ca9656" opacity="1.00" d=" M 627.89 680.12 C 629.55 678.68 631.24 677.29 632.91 675.88 C 631.65 677.73 630.06 679.38 627.89 680.12 Z" />
<path fill="#ca9656" opacity="1.00" d=" M 621.98 684.86 C 623.66 683.57 625.30 682.23 626.95 680.90 C 625.72 682.70 623.98 684.01 621.98 684.86 Z" />
<path fill="#ca9656" opacity="1.00" d=" M 207.37 685.79 C 208.37 686.29 209.23 687.00 209.99 687.84 C 208.79 689.26 206.09 687.28 207.37 685.79 Z" />
<path fill="#ca9656" opacity="1.00" d=" M 617.13 688.57 C 617.95 687.33 619.24 686.57 620.49 685.85 C 621.77 687.65 618.67 690.00 617.13 688.57 Z" />
<path fill="#ca9656" opacity="1.00" d=" M 211.31 688.81 C 212.33 689.29 213.22 689.98 213.98 690.82 C 212.81 692.26 210.09 690.32 211.31 688.81 Z" />
<path fill="#ca9656" opacity="1.00" d=" M 215.32 691.82 C 216.34 692.29 217.24 692.96 217.99 693.82 C 216.84 695.29 214.16 693.33 215.32 691.82 Z" />
<path fill="#ca9656" opacity="1.00" d=" M 610.06 693.94 C 610.49 693.63 611.34 693.00 611.76 692.69 L 611.80 693.61 L 610.93 694.25 L 610.06 693.94 Z" />
<path fill="#ca9656" opacity="1.00" d=" M 219.16 694.76 C 219.60 695.04 220.50 695.60 220.95 695.89 L 220.09 696.26 L 219.17 695.67 L 219.16 694.76 Z" />
<path fill="#ca9656" opacity="1.00" d=" M 607.04 695.90 C 607.49 695.63 608.40 695.09 608.85 694.81 L 608.81 695.73 L 607.88 696.29 L 607.04 695.90 Z" />
<path fill="#ca9656" opacity="1.00" d=" M 586.97 709.16 C 589.68 707.34 592.43 705.58 595.27 703.98 C 593.13 706.55 590.11 708.14 586.97 709.16 Z" />
<path fill="#ca9656" opacity="1.00" d=" M 234.01 704.79 C 240.76 708.74 247.48 712.75 254.25 716.69 C 250.27 715.78 247.01 713.26 243.60 711.18 C 240.34 709.15 236.78 707.51 234.01 704.79 Z" />
<path fill="#ca9656" opacity="1.00" d=" M 553.85 726.61 C 564.80 721.45 575.45 715.71 585.99 709.76 C 584.00 711.51 581.79 712.99 579.46 714.25 C 570.98 718.48 563.07 724.03 553.85 726.61 Z" />
<path fill="#ca9656" opacity="1.00" d=" M 254.84 717.01 C 267.44 723.46 280.24 729.48 293.37 734.75 C 287.87 733.86 283.11 730.73 277.93 728.89 C 270.25 724.95 261.60 722.52 254.84 717.01 Z" />
<path fill="#ca9656" opacity="1.00" d=" M 546.69 729.81 C 548.83 728.82 550.99 727.88 553.16 726.93 C 551.35 728.55 549.16 729.68 546.69 729.81 Z" />
<path fill="#ca9656" opacity="1.00" d=" M 511.35 742.55 C 513.00 741.86 514.70 741.26 516.48 740.93 C 516.88 743.25 512.71 744.21 511.35 742.55 Z" />
<path fill="#ca9656" opacity="1.00" d=" M 507.98 743.81 C 508.48 743.62 509.46 743.24 509.95 743.05 L 509.74 743.96 L 508.73 744.34 L 507.98 743.81 Z" />
<path fill="#ca9656" opacity="1.00" d=" M 504.11 744.86 C 504.88 744.18 505.77 743.87 506.79 743.93 C 506.49 745.66 505.59 745.97 504.11 744.86 Z" />
<path fill="#ca9656" opacity="1.00" d=" M 325.18 744.87 C 326.19 744.85 327.06 745.20 327.80 745.94 C 326.26 746.97 325.39 746.61 325.18 744.87 Z" />
<path fill="#ca9656" opacity="1.00" d=" M 501.01 745.80 C 501.50 745.61 502.48 745.22 502.97 745.03 L 502.78 745.92 L 501.78 746.32 L 501.01 745.80 Z" />
<path fill="#ca9656" opacity="1.00" d=" M 329.07 745.97 C 329.54 746.19 330.50 746.63 330.97 746.85 L 330.18 747.32 L 329.21 746.87 L 329.07 745.97 Z" />
<path fill="#ca9656" opacity="1.00" d=" M 496.39 747.25 C 496.72 746.17 497.48 745.73 498.67 745.93 C 498.62 747.53 497.86 747.97 496.39 747.25 Z" />
<path fill="#ca9656" opacity="1.00" d=" M 333.07 746.94 C 333.54 747.16 334.49 747.61 334.97 747.83 L 334.18 748.30 L 333.21 747.84 L 333.07 746.94 Z" />
<path fill="#ca9656" opacity="1.00" d=" M 492.21 747.93 C 492.94 747.12 493.82 746.82 494.85 747.03 C 494.52 748.68 493.64 748.98 492.21 747.93 Z" />
<path fill="#ca9656" opacity="1.00" d=" M 337.06 747.98 C 337.56 748.14 338.57 748.46 339.07 748.62 L 338.34 749.20 L 337.30 748.87 L 337.06 747.98 Z" />
<path fill="#ca9656" opacity="1.00" d=" M 488.91 748.60 C 489.42 748.47 490.45 748.21 490.96 748.08 L 490.66 748.95 L 489.60 749.21 L 488.91 748.60 Z" />
<path fill="#ca9656" opacity="1.00" d=" M 479.08 750.70 C 479.90 750.11 480.80 749.86 481.81 749.94 C 481.42 751.68 480.51 751.93 479.08 750.70 Z" />
</g>
<g id="#ba1b40ff">
<path fill="#ba1b40" opacity="1.00" d=" M 75.22 445.30 L 75.78 445.29 C 75.73 447.89 75.65 450.49 75.51 453.09 C 75.36 450.49 75.28 447.89 75.22 445.30 Z" />
<path fill="#ba1b40" opacity="1.00" d=" M 268.53 487.50 C 281.13 482.93 295.66 484.28 307.49 490.46 C 309.88 491.54 311.52 494.36 310.81 496.97 C 309.92 502.43 308.66 507.83 307.75 513.29 C 304.17 513.37 300.59 513.32 297.02 513.10 C 296.13 508.04 295.85 502.83 294.23 497.95 C 291.01 494.99 286.22 494.35 281.99 494.12 C 278.00 494.40 273.56 494.77 270.33 497.36 C 266.78 502.93 267.11 511.16 272.22 515.71 C 278.40 521.26 286.63 523.46 293.98 526.98 C 300.25 529.91 306.88 533.56 310.15 539.97 C 314.30 548.30 312.75 559.38 305.74 565.72 C 298.23 572.37 287.75 574.28 278.01 574.02 C 268.34 573.48 258.02 571.95 250.03 566.09 C 249.63 559.73 250.03 553.35 250.02 546.98 C 253.93 546.67 257.85 546.60 261.77 546.71 C 262.48 551.57 263.78 556.31 265.16 561.01 C 272.24 564.74 280.70 565.16 288.41 563.46 C 292.76 562.68 294.34 557.95 294.77 554.11 C 295.43 549.34 292.25 544.92 288.22 542.69 C 278.45 536.83 266.60 534.77 257.82 527.20 C 251.47 521.89 249.18 512.88 251.11 504.98 C 253.24 496.49 260.62 490.46 268.53 487.50 Z" />
<path fill="#ba1b40" opacity="1.00" d=" M 349.14 486.20 C 361.44 483.09 374.76 485.31 385.85 491.32 C 386.58 493.08 387.79 494.85 387.24 496.86 C 386.44 502.39 385.27 507.87 384.06 513.33 C 380.48 513.38 376.89 513.34 373.33 512.97 C 372.84 507.72 371.97 502.51 370.64 497.41 C 363.90 493.55 355.35 493.01 348.30 496.36 C 345.77 497.59 345.22 500.67 344.71 503.15 C 343.41 508.53 346.12 514.26 350.62 517.30 C 360.32 524.25 372.96 526.03 382.00 534.07 C 388.08 539.34 390.45 548.30 388.12 555.95 C 386.23 563.28 379.92 568.68 373.02 571.24 C 362.83 574.99 351.58 574.58 341.10 572.31 C 335.99 571.00 330.70 569.43 326.53 566.09 C 325.98 559.77 326.48 553.41 326.68 547.08 C 330.47 546.64 334.29 546.60 338.11 546.67 C 339.30 551.43 339.77 556.52 341.95 560.95 C 348.66 564.99 357.12 564.96 364.60 563.53 C 368.75 562.96 370.70 558.73 371.04 555.00 C 371.59 551.66 370.87 547.99 368.32 545.62 C 363.56 540.83 356.85 538.93 350.82 536.30 C 343.91 533.36 336.54 530.35 331.65 524.39 C 326.02 517.65 325.34 507.38 329.72 499.82 C 333.72 492.63 341.38 488.25 349.14 486.20 Z" />
<path fill="#ba1b40" opacity="1.00" d=" M 417.99 489.05 C 430.57 482.85 445.90 483.75 458.49 489.46 C 460.95 490.45 463.39 492.12 463.98 494.89 C 463.36 501.10 461.65 507.14 460.70 513.30 C 457.13 513.37 453.56 513.32 450.01 513.10 C 449.08 508.04 448.83 502.80 447.15 497.91 C 440.40 492.68 430.53 493.35 423.18 497.06 C 421.31 501.12 420.13 505.81 421.58 510.19 C 423.18 514.95 427.52 517.99 431.78 520.22 C 440.91 525.04 451.55 527.47 459.23 534.74 C 465.61 540.77 466.93 550.80 463.66 558.73 C 460.89 565.05 454.92 569.41 448.53 571.59 C 438.37 574.99 427.33 574.54 417.00 572.17 C 412.00 571.02 407.22 569.02 402.88 566.30 C 402.90 559.86 402.84 553.42 403.02 546.98 C 406.91 546.67 410.82 546.60 414.72 546.71 C 415.47 551.55 416.73 556.28 418.11 560.97 C 424.47 564.48 432.04 564.95 439.11 563.92 C 441.07 563.53 443.21 563.13 444.76 561.76 C 448.97 556.65 448.93 547.85 443.05 543.97 C 433.26 537.09 420.64 535.43 411.36 527.68 C 405.28 522.88 402.35 514.68 403.70 507.10 C 404.79 499.04 410.86 492.49 417.99 489.05 Z" />
<path fill="#ba1b40" opacity="1.00" d=" M 476.71 487.06 C 501.74 486.46 526.81 487.72 551.81 485.89 C 552.74 487.60 554.32 489.11 554.61 491.09 C 554.42 497.99 553.33 504.82 552.85 511.70 C 549.31 512.00 545.76 511.89 542.26 511.36 C 541.42 506.22 540.21 501.15 539.08 496.08 C 534.03 495.96 528.59 494.48 523.77 495.80 C 523.47 503.88 523.75 511.97 523.66 520.06 C 523.78 532.74 523.27 545.44 524.27 558.09 C 524.55 563.56 531.18 564.03 535.20 565.46 C 534.84 567.65 534.41 569.83 533.97 572.00 C 521.42 571.97 508.88 572.05 496.33 571.97 C 495.92 569.83 495.50 567.71 495.01 565.60 C 498.63 564.43 502.27 563.36 505.89 562.19 C 507.43 539.92 506.82 517.58 506.84 495.28 C 501.67 495.25 496.52 495.65 491.38 496.16 C 490.35 501.47 489.10 506.74 487.90 512.02 C 484.31 512.03 480.68 512.25 477.15 511.54 C 475.56 503.56 476.48 495.18 476.71 487.06 Z" />
<path fill="#ba1b40" opacity="1.00" d=" M 562.36 487.03 C 585.26 486.49 608.21 487.65 631.08 485.85 C 632.21 487.77 634.49 489.52 633.95 491.99 C 632.99 498.37 631.59 504.68 630.75 511.08 C 627.30 511.07 623.80 511.39 620.40 510.71 C 619.34 505.92 618.66 501.06 617.62 496.27 C 609.12 495.61 600.48 494.56 592.01 496.11 C 589.62 496.34 590.50 499.29 590.15 500.90 C 590.16 509.17 589.48 517.44 589.71 525.71 C 598.53 525.45 607.35 524.63 616.18 524.73 C 617.06 525.34 617.91 526.02 618.72 526.75 C 618.16 529.61 617.64 532.49 617.04 535.35 C 607.92 535.12 598.80 535.17 589.69 534.60 C 589.46 541.39 589.95 548.18 590.09 554.97 C 590.14 557.26 590.64 559.52 591.30 561.71 C 600.36 564.31 610.07 563.43 619.31 562.36 C 620.98 557.58 621.67 552.52 623.08 547.66 C 626.75 547.64 630.42 547.65 634.09 547.89 C 634.32 555.93 634.31 563.96 634.09 572.00 C 610.16 571.95 586.22 572.10 562.29 571.92 C 561.96 569.71 561.61 567.50 561.28 565.30 C 564.87 564.44 568.40 563.36 571.91 562.24 C 573.30 546.52 572.81 530.73 572.89 514.98 C 572.70 509.38 572.83 503.71 571.62 498.21 C 569.14 495.02 564.71 494.55 561.14 493.18 C 561.56 491.13 561.95 489.08 562.36 487.03 Z" />
<path fill="#ba1b40" opacity="1.00" d=" M 197.93 486.89 C 210.49 486.96 223.06 486.76 235.62 486.99 C 235.99 489.08 236.37 491.18 236.77 493.27 C 233.24 494.36 229.71 495.48 226.13 496.40 C 224.60 510.54 225.26 524.78 225.11 538.96 C 225.20 546.18 224.78 553.54 226.38 560.63 C 228.75 563.87 233.31 564.18 236.82 565.59 C 236.37 567.68 235.98 569.79 235.58 571.90 C 223.03 572.13 210.47 571.94 197.91 572.00 C 197.43 569.81 197.00 567.60 196.63 565.40 C 200.18 564.38 203.81 563.58 207.21 562.12 C 208.49 555.51 207.70 548.69 208.07 541.99 C 208.85 529.98 207.92 517.96 207.97 505.95 C 207.84 503.04 207.91 499.98 206.52 497.34 C 203.72 495.04 199.95 494.59 196.74 493.11 C 196.92 490.99 197.44 488.94 197.93 486.89 Z" />
<path fill="#ba1b40" opacity="1.00" d=" M 393.95 764.50 C 405.98 764.11 418.03 764.16 430.06 764.49 C 418.03 764.87 405.98 764.77 393.95 764.50 Z" />
</g>
</svg>
