<?xml version="1.0" encoding="UTF-8" ?>
<!DOCTYPE svg PUBLIC "-//W3C//DTD SVG 1.1//EN" "http://www.w3.org/Graphics/SVG/1.1/DTD/svg11.dtd">
<svg width="824pt" height="1067pt" viewBox="0 0 824 1067" version="1.1" xmlns="http://www.w3.org/2000/svg">
<g id="#457692ff">
<path fill="#457692" opacity="1.00" d=" M 400.41 0.00 L 423.53 0.00 C 475.12 1.65 526.44 12.67 573.87 33.13 C 638.58 60.86 695.85 105.57 738.66 161.44 C 783.07 219.11 811.74 288.79 820.49 361.07 C 826.62 410.68 823.31 461.22 812.94 510.05 C 799.15 575.13 773.34 637.17 741.21 695.24 C 694.09 780.02 633.83 856.89 567.69 927.59 C 528.57 969.21 487.23 1008.76 443.59 1045.62 C 436.30 1051.68 429.06 1057.81 421.54 1063.59 C 415.67 1068.26 406.68 1067.78 401.13 1062.83 C 366.05 1034.85 332.85 1004.59 300.72 973.29 C 252.00 925.41 206.16 874.49 164.74 820.13 C 117.02 757.36 74.85 689.85 44.46 616.92 C 17.59 552.57 0.56 483.50 0.00 413.53 L 0.00 409.51 C 0.45 378.13 3.89 346.75 11.27 316.22 C 21.07 275.06 37.29 235.43 59.22 199.25 C 107.42 119.11 183.63 56.23 271.63 24.51 C 312.87 9.44 356.56 1.42 400.41 0.00 M 354.93 91.45 C 353.60 90.16 352.68 90.38 352.19 92.11 C 349.71 92.11 347.26 92.63 344.90 93.35 C 343.52 92.13 342.61 92.38 342.18 94.12 C 340.06 94.23 337.89 94.47 335.91 95.29 C 334.48 94.12 333.58 94.42 333.22 96.18 C 325.66 97.47 318.29 99.87 311.04 102.33 L 310.29 101.80 L 309.28 102.19 L 309.07 103.08 L 307.97 103.03 L 307.15 102.66 L 306.23 103.22 L 306.18 104.13 C 302.79 104.84 299.49 105.98 296.25 107.20 C 287.16 110.60 278.13 114.23 269.40 118.47 C 262.89 122.43 255.45 124.62 249.25 129.13 C 245.47 131.43 241.66 133.69 237.88 135.99 C 235.50 137.13 233.26 138.52 231.18 140.13 C 230.88 140.36 230.29 140.83 230.00 141.06 L 229.15 140.70 L 228.24 141.30 L 228.23 142.22 C 227.91 142.42 227.26 142.83 226.93 143.03 L 226.07 142.74 L 225.21 143.40 L 225.27 144.32 C 224.94 144.50 224.29 144.87 223.96 145.06 C 221.81 146.11 219.83 147.46 218.12 149.13 C 215.80 150.82 213.53 152.57 211.23 154.28 C 209.43 155.43 207.71 156.72 206.14 158.18 C 176.47 181.56 150.90 210.06 130.62 241.93 C 119.54 259.77 109.45 278.40 102.19 298.13 L 101.29 298.29 L 100.86 299.29 L 101.36 300.06 C 98.92 305.92 96.57 311.92 95.10 318.10 L 94.20 318.29 L 93.80 319.30 L 94.32 320.06 C 92.87 323.64 91.69 327.38 91.18 331.22 C 89.41 331.49 89.07 332.37 90.15 333.86 L 90.06 335.21 C 88.32 335.55 88.02 336.45 89.17 337.89 L 89.09 339.20 C 87.36 339.51 87.05 340.40 88.17 341.85 L 88.08 343.19 C 86.34 343.52 86.03 344.40 87.15 345.85 L 87.10 347.16 C 85.37 347.62 85.13 348.53 86.39 349.89 C 85.28 353.97 84.44 358.14 84.08 362.36 C 82.17 361.87 81.77 365.16 83.39 365.76 C 79.96 383.61 78.97 401.84 78.66 419.99 C 78.79 437.12 79.52 454.34 82.43 471.26 C 80.79 471.79 81.12 475.11 83.05 474.66 C 83.13 475.31 83.28 476.62 83.36 477.27 C 81.75 477.86 82.18 481.13 84.08 480.67 C 84.34 484.87 85.17 489.04 86.28 493.10 C 85.10 494.51 85.38 495.41 87.13 495.80 C 87.63 500.60 88.89 505.33 90.37 509.92 L 89.83 510.67 L 90.22 511.69 L 91.11 511.89 C 91.46 514.65 92.18 517.38 93.28 519.94 L 92.77 520.71 L 93.19 521.71 L 94.09 521.88 C 94.26 523.30 94.63 524.70 95.07 526.07 C 104.38 553.84 116.91 580.65 133.20 605.02 L 132.88 605.88 L 133.51 606.76 L 134.43 606.73 C 137.54 612.10 141.18 617.23 145.14 622.00 L 144.82 622.86 L 145.46 623.74 L 146.39 623.70 C 149.04 627.65 152.10 631.32 155.13 634.99 C 156.43 637.18 158.08 639.14 160.04 640.78 C 168.10 650.46 177.21 659.19 186.25 667.95 C 188.12 670.33 190.43 672.34 193.02 673.93 C 198.99 679.05 204.82 684.45 211.42 688.76 C 210.26 690.26 212.90 692.24 214.09 690.80 C 214.41 691.04 215.07 691.53 215.40 691.77 C 214.26 693.27 216.88 695.29 218.06 693.82 C 218.36 694.04 218.97 694.49 219.27 694.71 L 219.28 695.63 L 220.18 696.23 L 221.04 695.87 C 234.53 705.88 249.28 714.16 264.23 721.82 C 274.05 726.50 283.85 731.51 294.25 734.77 C 294.43 736.55 295.30 736.93 296.85 735.91 C 303.75 738.70 310.85 741.29 318.14 742.86 L 318.28 743.77 L 319.25 744.23 L 320.04 743.77 L 321.23 743.84 C 321.57 745.57 322.46 745.87 323.90 744.74 L 325.21 744.86 C 325.48 746.60 326.35 746.94 327.84 745.89 L 329.11 745.92 L 329.27 746.82 L 330.25 747.26 L 331.03 746.77 C 331.56 746.80 332.63 746.87 333.16 746.91 C 333.54 748.63 334.43 748.91 335.85 747.74 C 342.89 749.61 350.08 751.24 357.34 751.92 C 356.90 753.81 360.16 754.21 360.73 752.59 C 363.73 753.44 366.86 753.67 369.95 754.13 C 388.86 756.46 407.96 757.48 427.01 756.74 C 442.49 755.84 458.05 754.81 473.25 751.60 C 473.83 753.21 477.11 752.80 476.65 750.90 C 482.16 750.34 487.60 749.04 492.94 747.57 L 493.67 748.14 L 494.69 747.80 L 494.94 746.92 L 496.15 746.90 C 497.60 747.97 498.48 747.64 498.79 745.93 L 500.18 745.85 C 501.66 746.92 502.54 746.58 502.81 744.83 C 510.03 743.60 516.92 740.89 523.88 738.65 C 533.85 735.50 543.74 731.81 553.04 726.99 C 567.61 720.21 582.01 712.82 595.25 703.66 C 596.81 705.30 600.54 703.04 599.45 700.95 C 602.10 699.49 604.88 698.09 606.98 695.85 L 607.81 696.26 L 608.74 695.71 L 608.80 694.79 C 609.08 694.55 609.65 694.08 609.93 693.84 C 611.10 695.32 613.74 693.31 612.61 691.80 C 612.94 691.55 613.60 691.06 613.93 690.81 C 615.08 692.31 617.76 690.32 616.62 688.80 C 616.95 688.55 617.63 688.04 617.96 687.78 C 619.15 689.23 621.75 687.19 620.60 685.70 C 625.40 682.52 629.65 678.56 634.03 674.84 C 636.94 672.94 639.64 670.72 641.77 667.96 C 648.29 661.71 654.72 655.34 660.92 648.78 C 663.64 646.61 665.88 643.92 667.80 641.03 C 668.07 640.73 668.61 640.13 668.88 639.83 C 670.41 638.37 671.75 636.74 672.95 635.01 C 673.19 634.72 673.68 634.14 673.92 633.85 C 675.43 632.38 676.76 630.75 677.86 628.96 C 678.07 628.65 678.49 628.02 678.70 627.71 L 679.62 627.73 L 680.24 626.84 L 679.90 625.98 C 681.83 624.20 683.37 622.01 684.60 619.70 L 685.51 619.80 L 686.21 618.96 L 685.94 618.08 C 686.16 617.72 686.59 617.00 686.81 616.64 C 688.32 617.74 690.26 615.10 688.82 613.95 C 689.02 613.65 689.43 613.03 689.63 612.72 L 690.54 612.78 L 691.20 611.92 L 690.91 611.05 C 691.14 610.73 691.58 610.10 691.80 609.79 L 692.71 609.74 L 693.27 608.81 L 692.88 607.98 C 699.00 599.44 704.12 590.20 709.27 581.06 C 716.26 567.72 723.02 554.13 727.83 539.85 L 728.74 539.72 L 729.21 538.75 L 728.75 537.96 L 729.12 537.09 C 730.20 534.75 731.00 532.30 731.68 529.83 C 734.29 521.56 737.25 513.32 738.82 504.78 C 740.57 504.41 740.86 503.51 739.70 502.09 C 740.53 500.10 740.78 497.92 740.91 495.79 C 742.65 495.39 742.92 494.49 741.73 493.08 C 749.98 455.35 751.56 416.05 746.44 377.77 C 748.08 377.26 747.86 373.95 745.93 374.35 C 745.86 373.70 745.72 372.40 745.65 371.75 C 747.23 371.15 746.84 367.87 744.95 368.36 C 743.10 352.98 739.31 337.82 734.72 323.05 L 735.23 322.28 L 734.81 321.28 L 733.91 321.11 C 733.71 319.67 733.36 318.27 732.92 316.90 C 722.37 285.30 707.46 254.99 687.90 227.99 L 688.29 227.15 L 687.72 226.23 L 686.80 226.19 C 686.56 225.91 686.08 225.35 685.85 225.06 C 687.32 223.89 685.33 221.23 683.82 222.40 C 683.56 222.06 683.05 221.38 682.79 221.04 C 684.23 219.86 682.26 217.20 680.76 218.37 C 679.43 216.06 677.74 214.00 676.04 211.98 C 674.90 210.14 673.50 208.48 671.96 206.98 C 671.75 206.72 671.33 206.20 671.11 205.95 C 669.97 204.13 668.53 202.53 666.95 201.10 C 666.70 200.82 666.21 200.27 665.96 199.99 C 664.67 198.00 663.12 196.18 661.29 194.67 C 647.47 180.12 632.94 166.12 616.67 154.32 L 616.74 153.40 L 615.88 152.73 L 615.01 153.02 C 611.12 149.86 607.05 146.82 602.71 144.33 L 602.78 143.41 L 601.93 142.74 L 601.06 143.01 C 600.75 142.81 600.12 142.40 599.81 142.20 L 599.77 141.28 L 598.85 140.71 L 598.02 141.10 C 597.72 140.87 597.14 140.41 596.85 140.18 C 585.98 132.27 573.95 126.02 561.82 120.30 C 551.44 115.17 540.76 110.69 529.95 106.59 C 528.27 105.98 526.57 105.36 524.80 105.13 L 524.76 104.22 L 523.84 103.66 L 523.01 104.04 L 521.86 104.04 L 521.74 103.15 L 520.79 102.66 L 520.00 103.09 L 518.90 103.08 L 518.71 102.18 L 517.70 101.78 L 516.94 102.30 C 511.02 100.23 504.97 98.21 498.77 97.19 C 498.45 95.43 497.57 95.11 496.11 96.22 L 494.82 96.13 C 494.40 94.40 493.50 94.13 492.10 95.34 C 447.34 84.62 400.24 83.26 354.93 91.45 Z" />
</g>
<g id="#ffffffff">
<path fill="#ffffff" opacity="1.00" d=" M 354.93 91.45 C 400.24 83.26 447.34 84.62 492.10 95.34 C 492.90 95.96 493.80 96.23 494.82 96.13 L 496.11 96.22 C 496.86 96.90 497.74 97.23 498.77 97.19 C 504.97 98.21 511.02 100.23 516.94 102.30 C 517.43 102.50 518.41 102.89 518.90 103.08 L 520.00 103.09 C 520.47 103.33 521.39 103.81 521.86 104.04 L 523.01 104.04 C 523.46 104.31 524.35 104.85 524.80 105.13 C 526.57 105.36 528.27 105.98 529.95 106.59 C 540.76 110.69 551.44 115.17 561.82 120.30 C 573.82 126.33 585.47 133.03 596.85 140.18 C 597.14 140.41 597.72 140.87 598.02 141.10 C 598.46 141.37 599.36 141.92 599.81 142.20 C 600.12 142.40 600.75 142.81 601.06 143.01 C 601.47 143.34 602.29 144.00 602.71 144.33 C 607.05 146.82 611.12 149.86 615.01 153.02 C 615.42 153.35 616.25 154.00 616.67 154.32 C 632.94 166.12 647.47 180.12 661.29 194.67 C 662.82 196.46 664.35 198.26 665.96 199.99 C 666.21 200.27 666.70 200.82 666.95 201.10 C 668.35 202.69 669.74 204.32 671.11 205.95 C 671.33 206.20 671.75 206.72 671.96 206.98 C 673.29 208.66 674.64 210.34 676.04 211.98 C 677.74 214.00 679.43 216.06 680.76 218.37 C 681.23 219.39 681.95 220.28 682.79 221.04 C 683.05 221.38 683.56 222.06 683.82 222.40 C 684.32 223.40 684.99 224.31 685.85 225.06 C 686.08 225.35 686.56 225.91 686.80 226.19 C 687.07 226.64 687.62 227.54 687.90 227.99 C 707.46 254.99 722.37 285.30 732.92 316.90 C 733.36 318.27 733.71 319.67 733.91 321.11 C 734.11 321.59 734.52 322.56 734.72 323.05 C 739.31 337.82 743.10 352.98 744.95 368.36 C 744.88 369.53 745.22 370.66 745.65 371.75 C 745.72 372.40 745.86 373.70 745.93 374.35 C 745.83 375.51 746.07 376.66 746.44 377.77 C 751.56 416.05 749.98 455.35 741.73 493.08 C 741.09 493.88 740.82 494.78 740.91 495.79 C 740.78 497.92 740.53 500.10 739.70 502.09 C 739.06 502.87 738.76 503.76 738.82 504.78 C 737.25 513.32 734.29 521.56 731.68 529.83 C 730.81 532.24 730.01 534.68 729.12 537.09 L 728.75 537.96 C 728.52 538.43 728.06 539.38 727.83 539.85 C 723.02 554.13 716.26 567.72 709.27 581.06 C 704.12 590.20 699.00 599.44 692.88 607.98 C 692.61 608.43 692.07 609.33 691.80 609.79 C 691.58 610.10 691.14 610.73 690.91 611.05 C 690.59 611.47 689.95 612.30 689.63 612.72 C 689.43 613.03 689.02 613.65 688.82 613.95 C 687.95 614.69 687.25 615.59 686.81 616.64 C 686.59 617.00 686.16 617.72 685.94 618.08 C 685.60 618.49 684.93 619.30 684.60 619.70 C 683.37 622.01 681.83 624.20 679.90 625.98 C 679.60 626.41 679.00 627.28 678.70 627.71 C 678.49 628.02 678.07 628.65 677.86 628.96 C 676.56 630.59 675.24 632.22 673.92 633.85 C 673.68 634.14 673.19 634.72 672.95 635.01 C 671.57 636.59 670.24 638.22 668.88 639.83 C 668.61 640.13 668.07 640.73 667.80 641.03 C 665.42 643.53 663.19 646.17 660.92 648.78 C 654.72 655.34 648.29 661.71 641.77 667.96 C 639.20 670.27 636.56 672.49 634.03 674.84 C 629.65 678.56 625.40 682.52 620.60 685.70 C 619.58 686.20 618.70 686.92 617.96 687.78 C 617.63 688.04 616.95 688.55 616.62 688.80 C 615.60 689.31 614.69 689.98 613.93 690.81 C 613.60 691.06 612.94 691.55 612.61 691.80 C 611.60 692.32 610.68 692.98 609.93 693.84 C 609.65 694.08 609.08 694.55 608.80 694.79 C 608.34 695.06 607.43 695.59 606.98 695.85 C 604.88 698.09 602.10 699.49 599.45 700.95 C 597.94 701.68 596.55 702.61 595.25 703.66 C 582.01 712.82 567.61 720.21 553.04 726.99 C 543.45 731.20 533.72 735.09 523.88 738.65 C 516.92 740.89 510.03 743.60 502.81 744.83 C 501.79 744.80 500.91 745.14 500.18 745.85 L 498.79 745.93 C 497.76 745.84 496.88 746.16 496.15 746.90 L 494.94 746.92 C 494.44 747.08 493.44 747.41 492.94 747.57 C 487.60 749.04 482.16 750.34 476.65 750.90 C 475.46 750.86 474.33 751.18 473.25 751.60 C 458.05 754.81 442.49 755.84 427.01 756.74 C 407.96 757.48 388.86 756.46 369.95 754.13 C 366.86 753.67 363.73 753.44 360.73 752.59 C 359.64 752.17 358.51 751.85 357.34 751.92 C 350.08 751.24 342.89 749.61 335.85 747.74 C 335.06 747.08 334.16 746.81 333.16 746.91 C 332.63 746.87 331.56 746.80 331.03 746.77 C 330.55 746.56 329.59 746.13 329.11 745.92 L 327.84 745.89 C 327.11 745.15 326.23 744.81 325.21 744.86 L 323.90 744.74 C 323.13 744.05 322.24 743.75 321.23 743.84 L 320.04 743.77 C 319.56 743.54 318.62 743.09 318.14 742.86 C 310.85 741.29 303.75 738.70 296.85 735.91 C 296.12 735.20 295.25 734.82 294.25 734.77 C 283.85 731.51 274.05 726.50 264.23 721.82 C 249.28 714.16 234.53 705.88 221.04 695.87 C 220.60 695.58 219.71 695.00 219.27 694.71 C 218.97 694.49 218.36 694.04 218.06 693.82 C 217.31 692.96 216.41 692.26 215.40 691.77 C 215.07 691.53 214.41 691.04 214.09 690.80 C 213.32 689.95 212.45 689.23 211.42 688.76 C 204.82 684.45 198.99 679.05 193.02 673.93 C 190.81 671.87 188.50 669.94 186.25 667.95 C 177.21 659.19 168.10 650.46 160.04 640.78 C 158.41 638.84 156.79 636.89 155.13 634.99 C 152.10 631.32 149.04 627.65 146.39 623.70 C 146.08 623.27 145.46 622.42 145.14 622.00 C 141.18 617.23 137.54 612.10 134.43 606.73 C 134.13 606.30 133.51 605.44 133.20 605.02 C 116.91 580.65 104.38 553.84 95.07 526.07 C 94.63 524.70 94.26 523.30 94.09 521.88 C 93.89 521.40 93.48 520.43 93.28 519.94 C 92.18 517.38 91.46 514.65 91.11 511.89 C 90.92 511.40 90.56 510.41 90.37 509.92 C 88.89 505.33 87.63 500.60 87.13 495.80 C 87.20 494.78 86.92 493.89 86.28 493.10 C 85.17 489.04 84.34 484.87 84.08 480.67 C 84.13 479.48 83.78 478.35 83.36 477.27 C 83.28 476.62 83.13 475.31 83.05 474.66 C 83.09 473.48 82.81 472.35 82.43 471.26 C 79.52 454.34 78.79 437.12 78.66 419.99 C 78.97 401.84 79.96 383.61 83.39 365.76 C 83.79 364.66 84.12 363.53 84.08 362.36 C 84.44 358.14 85.28 353.97 86.39 349.89 C 86.98 349.07 87.22 348.16 87.10 347.16 L 87.15 345.85 C 87.84 345.09 88.15 344.20 88.08 343.19 L 88.17 341.85 C 88.86 341.09 89.17 340.21 89.09 339.20 L 89.17 337.89 C 89.84 337.11 90.14 336.22 90.06 335.21 L 90.15 333.86 C 90.85 333.11 91.19 332.23 91.18 331.22 C 91.69 327.38 92.87 323.64 94.32 320.06 C 94.52 319.57 94.91 318.59 95.10 318.10 C 96.57 311.92 98.92 305.92 101.36 300.06 C 101.57 299.58 101.98 298.61 102.19 298.13 C 109.45 278.40 119.54 259.77 130.62 241.93 C 150.90 210.06 176.47 181.56 206.14 158.18 C 207.84 156.88 209.54 155.59 211.23 154.28 C 213.53 152.57 215.80 150.82 218.12 149.13 C 220.05 147.76 221.98 146.38 223.96 145.06 C 224.29 144.87 224.94 144.50 225.27 144.32 C 225.68 144.00 226.52 143.35 226.93 143.03 C 227.26 142.83 227.91 142.42 228.23 142.22 C 228.67 141.93 229.56 141.35 230.00 141.06 C 230.29 140.83 230.88 140.36 231.18 140.13 C 233.39 138.72 235.65 137.39 237.88 135.99 C 241.66 133.69 245.47 131.43 249.25 129.13 C 253.77 125.85 259.39 124.82 263.99 121.74 C 266.09 120.68 268.36 119.99 270.35 118.72 C 270.88 118.62 271.94 118.41 272.47 118.31 L 272.12 117.12 C 274.08 116.36 276.04 115.55 278.07 114.96 C 281.46 114.26 284.04 111.57 287.56 111.24 C 288.83 109.72 290.80 109.61 292.60 109.24 C 293.74 108.43 294.98 107.78 296.25 107.20 C 299.49 105.98 302.79 104.84 306.18 104.13 C 306.63 103.86 307.53 103.31 307.97 103.03 L 309.07 103.08 C 309.57 102.89 310.55 102.51 311.04 102.33 C 318.29 99.87 325.66 97.47 333.22 96.18 C 334.23 96.23 335.12 95.93 335.91 95.29 C 337.89 94.47 340.06 94.23 342.18 94.12 C 343.18 94.22 344.09 93.97 344.90 93.35 C 347.26 92.63 349.71 92.11 352.19 92.11 C 353.18 92.24 354.10 92.02 354.93 91.45 M 384.62 198.55 C 376.43 202.05 372.43 211.49 372.84 219.99 C 372.89 225.74 376.02 231.10 375.48 236.87 C 371.35 240.73 365.36 242.24 361.46 246.57 C 351.64 255.25 350.96 269.27 350.63 281.44 C 342.49 273.20 335.04 264.31 327.35 255.66 C 324.00 252.02 321.38 247.57 317.16 244.85 C 311.46 241.26 303.18 241.70 298.80 247.16 C 295.42 246.48 291.61 245.43 288.43 247.35 C 285.22 248.98 283.70 252.57 283.68 256.04 C 281.98 278.67 279.25 301.26 278.98 323.96 C 278.98 330.41 281.34 336.50 283.57 342.44 C 289.40 357.35 295.63 372.11 302.44 386.60 C 304.69 391.61 308.52 395.77 313.10 398.75 C 320.65 403.72 329.07 407.11 337.33 410.68 C 360.64 420.50 383.43 431.68 404.84 445.20 C 408.28 447.30 411.41 449.94 415.11 451.62 C 425.72 445.01 436.15 438.03 447.25 432.21 C 465.48 422.33 484.34 413.65 503.40 405.51 C 509.00 403.06 514.98 401.30 520.08 397.83 C 524.20 395.02 527.19 390.76 528.70 386.03 C 531.44 377.68 534.92 369.60 538.57 361.62 C 542.39 353.07 547.76 345.16 549.98 335.96 C 552.33 327.48 551.71 318.61 551.65 309.93 C 550.92 293.62 551.05 277.28 550.41 260.97 C 550.36 256.79 548.66 252.28 544.77 250.26 C 541.76 248.48 538.27 250.10 535.06 250.07 C 531.44 248.38 528.22 245.38 523.95 245.63 C 516.45 245.21 510.66 250.80 505.84 255.79 C 498.31 263.34 490.69 270.80 483.09 278.28 C 485.62 267.27 483.37 254.81 475.43 246.46 C 472.89 243.33 468.29 241.47 467.93 236.99 C 465.77 227.12 458.97 218.91 451.19 212.78 C 448.14 210.50 444.92 207.88 440.94 207.69 C 433.68 207.35 426.14 211.32 422.79 217.85 C 419.91 223.55 421.11 230.19 422.79 236.06 C 424.46 242.05 428.92 247.56 435.04 249.32 C 436.32 248.65 437.44 247.62 437.03 246.03 C 435.55 243.58 433.12 241.75 432.09 239.02 C 430.92 235.85 430.46 232.38 430.78 229.02 C 430.90 226.74 432.68 224.66 434.98 224.35 C 438.75 224.59 441.95 226.91 444.22 229.80 C 450.08 237.14 453.25 246.14 458.15 254.08 C 460.99 258.58 467.19 259.48 469.69 264.29 C 472.55 269.68 472.75 276.02 472.81 282.00 C 472.25 294.38 471.12 306.75 469.62 319.06 C 469.54 320.86 467.76 321.71 466.44 322.56 C 456.79 328.02 446.84 332.94 436.96 337.96 C 432.47 340.17 428.22 342.89 423.46 344.52 C 423.60 340.97 423.43 336.82 426.18 334.14 C 429.30 331.29 433.83 332.24 437.68 332.04 C 437.52 323.73 437.35 315.43 437.25 307.12 C 437.37 301.49 434.05 296.72 430.40 292.77 C 436.73 288.43 442.09 282.89 447.19 277.20 C 448.97 275.01 450.97 272.78 451.68 269.99 C 452.82 265.37 447.28 261.13 443.07 263.10 C 439.65 264.35 436.35 265.88 432.90 267.03 C 430.75 260.73 428.82 254.35 426.79 248.02 C 425.15 243.30 419.26 242.86 415.03 242.96 C 412.39 242.72 408.93 244.14 407.07 241.58 C 408.83 237.13 415.31 235.42 415.17 229.95 C 415.43 222.96 416.52 215.96 415.94 208.96 C 415.55 204.00 412.45 199.20 407.67 197.48 C 400.25 194.82 391.84 195.59 384.62 198.55 M 266.33 488.44 C 258.69 491.78 251.86 498.47 250.75 507.04 C 249.52 514.40 252.06 522.37 257.84 527.22 C 266.62 534.77 278.46 536.83 288.23 542.69 C 292.26 544.93 295.44 549.36 294.77 554.14 C 294.32 557.91 292.82 562.56 288.58 563.41 C 280.81 565.19 272.28 564.75 265.13 561.00 C 263.78 556.29 262.49 551.54 261.74 546.69 C 257.83 546.61 253.92 546.68 250.02 546.97 C 249.91 553.40 249.86 559.83 249.89 566.26 C 258.18 571.66 268.20 573.62 277.96 574.02 C 287.71 574.28 298.22 572.38 305.74 565.72 C 314.60 557.75 314.74 542.04 305.66 534.19 C 297.95 527.35 287.68 524.85 278.72 520.18 C 275.43 518.38 272.09 516.27 270.02 513.06 C 267.11 508.56 267.50 502.53 269.94 497.92 C 271.61 495.61 274.78 495.22 277.37 494.60 C 283.02 493.58 289.58 494.21 294.19 497.86 C 295.86 502.77 296.12 508.02 297.03 513.10 C 300.59 513.31 304.15 513.36 307.72 513.32 C 308.67 507.83 309.93 502.41 310.81 496.91 C 311.60 493.99 309.47 491.15 306.83 490.11 C 294.43 483.94 279.12 482.78 266.33 488.44 M 348.44 486.39 C 340.69 488.57 333.11 493.15 329.35 500.51 C 324.79 508.98 326.63 520.41 333.89 526.80 C 342.05 534.09 353.05 536.50 362.56 541.42 C 366.62 543.59 371.10 546.97 371.17 552.04 C 371.38 556.58 369.88 562.72 364.58 563.54 C 357.10 564.96 348.62 564.99 341.91 560.93 C 339.80 556.47 339.27 551.43 338.11 546.66 C 334.30 546.61 330.50 546.67 326.71 547.04 C 326.58 553.41 325.74 559.93 326.70 566.23 C 330.86 569.48 336.08 571.02 341.13 572.32 C 351.62 574.59 362.90 574.99 373.10 571.21 C 379.98 568.64 386.25 563.24 388.12 555.92 C 390.46 548.28 388.07 539.35 382.01 534.08 C 372.95 526.03 360.29 524.25 350.58 517.27 C 346.09 514.22 343.40 508.48 344.72 503.11 C 345.22 500.64 345.78 497.61 348.28 496.37 C 355.33 493.00 363.87 493.57 370.64 497.39 C 371.97 502.51 372.83 507.74 373.35 513.00 C 376.91 513.32 380.48 513.37 384.05 513.35 C 385.27 507.89 386.45 502.40 387.23 496.86 C 387.75 494.87 386.59 493.11 385.90 491.34 C 374.59 485.21 360.94 482.99 348.44 486.39 M 420.90 487.74 C 412.89 490.82 405.55 497.29 403.89 506.02 C 402.19 513.65 404.77 522.14 410.80 527.21 C 419.39 534.61 430.91 536.78 440.58 542.29 C 444.47 544.43 448.00 548.28 447.73 553.01 C 447.59 557.09 446.19 562.47 441.53 563.38 C 433.79 565.20 425.25 564.76 418.12 561.01 C 416.72 556.30 415.49 551.53 414.69 546.69 C 410.80 546.61 406.90 546.69 403.02 546.97 C 402.84 553.42 402.89 559.87 402.88 566.32 C 412.40 572.32 423.94 574.23 435.03 574.00 C 443.66 573.58 452.82 571.43 459.16 565.19 C 467.41 557.37 467.51 542.68 459.29 534.80 C 452.75 528.53 443.87 525.84 435.80 522.17 C 431.21 520.05 426.37 517.72 423.31 513.54 C 420.23 509.37 420.38 503.56 422.39 498.97 C 423.47 495.92 427.14 495.37 429.89 494.70 C 435.65 493.57 442.47 494.05 447.14 497.92 C 448.85 502.80 449.08 508.04 450.01 513.10 C 453.56 513.31 457.12 513.36 460.68 513.32 C 461.62 507.81 462.91 502.36 463.79 496.84 C 464.60 493.93 462.37 491.17 459.80 490.10 C 447.89 484.20 433.39 482.91 420.90 487.74 M 476.88 487.06 C 476.01 493.33 476.38 499.69 476.38 506.01 C 476.61 507.82 476.30 509.89 477.20 511.54 C 480.71 512.26 484.33 512.02 487.89 512.03 C 489.11 506.74 490.33 501.45 491.41 496.13 C 496.54 495.68 501.69 495.25 506.85 495.28 C 506.80 517.59 507.46 539.94 505.87 562.21 C 502.29 563.37 498.69 564.44 495.08 565.48 C 495.52 567.64 495.93 569.80 496.32 571.98 C 508.86 572.02 521.41 571.99 533.96 572.00 C 534.40 569.84 534.86 567.69 535.27 565.53 C 531.26 564.01 524.60 563.60 524.28 558.12 C 523.24 545.08 523.79 531.99 523.66 518.92 C 523.77 511.22 523.44 503.51 523.79 495.82 C 528.55 494.44 534.06 495.97 539.09 496.08 C 540.24 501.18 541.39 506.28 542.31 511.43 C 545.81 511.86 549.33 511.97 552.85 511.72 C 553.33 504.81 554.44 497.94 554.60 491.02 C 554.21 489.08 552.77 487.56 551.83 485.88 C 526.88 487.73 501.85 486.46 476.88 487.06 M 619.07 486.57 C 600.18 487.24 581.28 486.65 562.39 486.98 C 561.97 489.04 561.57 491.11 561.14 493.18 C 565.20 494.83 572.23 495.28 572.14 501.06 C 573.18 510.00 572.82 519.03 572.89 528.02 C 572.84 539.39 573.12 550.82 571.78 562.13 C 568.40 563.58 564.77 564.38 561.23 565.35 C 561.60 567.54 561.97 569.74 562.34 571.95 C 586.25 572.07 610.17 571.96 634.09 572.00 C 634.31 563.96 634.32 555.92 634.08 547.88 C 630.42 547.65 626.75 547.64 623.09 547.66 C 621.81 552.54 620.66 557.46 619.56 562.39 C 610.18 563.29 600.38 564.44 591.22 561.65 C 589.21 552.81 589.89 543.60 589.68 534.59 C 598.79 535.18 607.92 535.11 617.04 535.36 C 617.65 532.46 618.17 529.54 618.70 526.63 C 617.52 525.92 616.56 524.41 614.99 524.70 C 606.55 524.73 598.14 525.42 589.71 525.73 C 589.75 516.07 589.77 506.36 590.59 496.74 C 599.26 493.98 608.69 495.79 617.63 496.27 C 618.66 501.09 619.33 505.98 620.45 510.77 C 623.85 511.32 627.31 511.08 630.75 511.10 C 631.59 504.69 633.00 498.37 633.94 491.98 C 634.42 489.60 632.51 487.63 630.99 486.09 C 627.01 485.79 623.04 486.45 619.07 486.57 M 197.95 486.89 C 197.45 488.98 196.98 491.08 196.54 493.19 C 200.33 494.89 206.75 494.94 207.47 500.05 C 208.30 504.99 207.88 510.02 208.02 515.00 C 208.51 524.65 208.48 534.33 208.01 543.98 C 207.79 550.02 208.39 556.17 207.21 562.13 C 203.80 563.58 200.15 564.38 196.60 565.43 C 197.00 567.62 197.43 569.81 197.92 572.00 C 210.46 571.97 223.01 572.07 235.55 571.94 C 235.96 569.81 236.36 567.67 236.81 565.55 C 232.84 563.94 225.94 563.68 225.85 558.06 C 224.83 550.43 225.17 542.70 225.11 535.03 C 225.18 522.16 224.76 509.26 226.09 496.44 C 229.67 495.47 233.21 494.36 236.76 493.31 C 236.37 491.19 235.98 489.07 235.60 486.95 C 223.05 486.81 210.50 486.92 197.95 486.89 Z" />
<path fill="#ffffff" opacity="1.00" d=" M 394.54 211.09 C 397.39 211.13 400.49 210.63 403.08 212.14 C 407.03 214.11 408.51 218.80 408.59 222.92 C 408.15 229.88 403.10 235.22 398.35 239.81 C 399.16 241.78 401.74 243.85 400.07 246.05 C 396.13 251.86 395.10 259.97 399.21 265.97 C 400.11 267.91 402.70 269.91 401.16 272.19 C 396.92 280.37 392.57 289.51 394.55 298.97 C 395.43 303.36 397.41 308.59 402.06 310.11 C 405.81 311.38 408.71 308.11 411.87 306.76 C 413.95 307.15 416.01 309.36 418.16 308.32 C 419.86 305.92 420.15 302.26 423.06 300.91 C 427.36 301.80 432.31 306.05 430.76 310.90 C 430.07 315.58 430.31 320.32 430.22 325.03 C 426.80 325.33 423.26 324.91 419.93 325.83 C 415.95 329.23 419.33 336.76 414.07 339.13 C 411.85 339.25 411.82 336.76 411.47 335.18 C 411.03 331.45 410.72 327.23 413.08 324.05 C 415.78 320.42 420.51 319.55 424.01 317.00 C 426.17 314.31 426.23 310.34 424.52 307.39 C 423.37 309.31 422.45 311.37 421.11 313.17 C 416.33 316.82 408.40 315.31 405.08 321.03 C 402.46 326.81 402.54 333.70 404.45 339.69 C 407.78 345.14 414.66 346.44 419.80 349.61 C 419.38 351.63 416.98 352.64 415.35 353.67 C 411.49 350.54 408.12 346.84 404.16 343.84 C 396.49 337.55 387.54 333.08 378.30 329.62 C 373.33 327.59 367.93 325.84 364.14 321.85 C 361.31 319.00 361.64 314.70 361.28 311.02 C 360.70 297.02 359.65 282.68 363.25 268.97 C 365.29 260.94 370.91 254.17 378.00 250.02 C 380.84 247.99 384.71 246.59 386.00 243.06 C 387.25 237.63 384.85 232.33 383.98 227.05 C 386.63 224.66 389.87 222.84 391.78 219.73 C 393.58 217.20 394.00 214.06 394.54 211.09 Z" />
<path fill="#ffffff" opacity="1.00" d=" M 418.77 254.95 C 420.13 255.21 421.50 255.48 422.86 255.77 C 423.40 258.12 423.95 260.47 424.46 262.83 C 423.00 265.04 420.48 267.16 421.00 270.10 C 421.14 271.87 422.92 272.92 424.46 273.37 C 429.72 274.88 435.14 273.31 440.29 272.11 C 438.36 275.69 436.22 279.45 432.60 281.55 C 429.38 283.12 425.63 282.21 422.29 283.28 C 420.80 283.98 419.46 285.35 419.41 287.08 C 419.11 291.33 419.38 295.60 419.15 299.85 C 414.61 299.95 409.97 300.44 405.51 299.40 C 401.32 298.14 400.48 292.92 400.57 289.16 C 402.06 279.56 412.52 273.24 411.69 262.99 C 413.48 262.10 415.60 261.60 416.98 260.06 C 418.01 258.55 418.20 256.65 418.77 254.95 Z" />
<path fill="#ffffff" opacity="1.00" d=" M 312.78 268.63 C 315.10 268.09 318.55 267.41 319.33 270.52 C 321.54 278.88 323.00 287.44 324.92 295.89 C 325.39 298.83 326.56 302.05 325.30 304.93 C 324.05 307.79 319.49 307.26 318.52 304.46 C 317.09 300.82 316.93 296.87 316.29 293.06 C 315.22 284.90 313.60 276.82 312.78 268.63 Z" />
<path fill="#ffffff" opacity="1.00" d=" M 529.41 270.44 C 530.57 268.84 533.18 267.37 534.86 269.11 C 536.83 270.78 536.65 273.67 536.85 276.01 C 537.13 289.63 536.73 303.26 537.75 316.85 C 538.40 323.78 537.07 330.79 534.03 337.04 C 529.47 346.58 525.28 356.29 520.84 365.89 C 518.90 369.82 517.10 373.92 514.26 377.30 C 510.56 381.63 505.17 383.81 500.23 386.35 C 472.74 400.44 442.97 410.44 417.78 428.73 C 415.46 431.19 412.93 428.47 410.86 427.15 C 384.94 408.91 354.49 399.07 326.66 384.33 C 321.70 381.99 316.92 378.78 314.19 373.88 C 309.05 364.95 305.43 355.27 301.00 346.01 C 297.39 338.14 292.45 330.12 293.52 321.09 C 295.36 307.47 295.95 293.73 296.29 280.00 C 296.58 276.46 296.47 271.95 299.81 269.75 C 302.96 267.68 305.37 272.17 305.65 274.86 C 307.62 290.21 309.19 305.62 311.71 320.90 C 312.80 327.33 314.06 333.92 317.46 339.60 C 322.12 347.42 329.45 353.32 337.44 357.53 C 343.38 360.67 349.17 364.75 355.97 365.66 C 358.90 366.26 361.73 363.89 361.98 360.99 C 361.87 358.57 359.74 357.03 357.93 355.81 C 349.51 350.59 340.48 346.31 332.57 340.31 C 326.86 336.07 324.63 328.36 325.67 321.52 C 328.89 321.81 332.09 322.51 334.92 324.12 C 354.80 334.72 375.99 342.86 395.14 354.80 C 408.07 364.34 413.09 380.91 415.43 396.12 C 418.10 380.31 423.29 362.77 437.57 353.62 C 453.83 343.98 471.22 336.49 488.15 328.13 C 493.74 325.60 498.92 321.56 505.34 321.57 C 505.85 327.49 504.69 334.04 500.33 338.38 C 495.40 343.40 488.84 346.23 482.98 349.95 C 478.73 352.71 473.78 354.51 470.14 358.13 C 467.42 360.53 469.79 365.12 472.99 365.61 C 476.26 366.00 479.43 364.70 482.38 363.42 C 487.54 361.01 492.45 358.08 497.38 355.22 C 507.06 349.49 515.12 340.25 517.55 329.05 C 520.78 314.47 523.42 299.76 525.72 285.00 C 526.57 280.10 526.33 274.62 529.41 270.44 Z" />
<path fill="#ffffff" opacity="1.00" d=" M 512.98 268.86 C 514.38 268.87 515.77 268.96 517.16 269.13 C 517.74 271.44 517.10 273.81 516.80 276.11 C 515.39 284.12 514.15 292.17 512.70 300.17 C 512.26 302.51 511.52 305.39 508.90 306.11 C 507.67 307.03 505.77 305.40 506.02 304.06 C 506.11 298.75 507.63 293.59 508.48 288.37 C 509.94 281.86 510.56 275.12 512.98 268.86 Z" />
<path fill="#ffffff" opacity="1.00" d=" M 330.13 284.31 C 333.65 283.07 334.99 287.26 335.03 289.95 C 335.55 296.33 337.62 302.51 337.88 308.91 C 336.02 310.80 332.87 308.91 332.57 306.58 C 331.50 301.48 331.07 296.26 330.07 291.14 C 329.88 288.89 328.83 286.41 330.13 284.31 Z" />
<path fill="#ffffff" opacity="1.00" d=" M 497.48 284.40 C 498.67 281.98 500.75 284.11 500.48 286.06 C 500.40 291.40 499.82 296.74 499.59 302.09 C 499.29 304.71 499.18 308.16 496.43 309.46 C 494.77 310.98 492.59 308.76 492.84 306.92 C 492.85 302.59 493.95 298.35 494.48 294.07 C 495.08 290.77 495.19 287.08 497.48 284.40 Z" />
<path fill="#ffffff" opacity="1.00" d=" M 345.13 296.18 C 347.48 295.50 348.09 298.35 348.62 300.02 C 349.59 304.66 350.82 309.28 351.24 314.01 C 350.81 316.26 347.56 316.54 346.63 314.51 C 344.97 309.83 344.35 304.84 343.76 299.93 C 343.92 298.78 343.51 296.14 345.13 296.18 Z" />
<path fill="#ffffff" opacity="1.00" d=" M 482.29 298.12 C 482.76 296.39 484.87 296.24 486.16 295.42 C 486.22 300.80 485.91 306.19 485.45 311.55 C 485.15 313.40 484.68 316.68 482.06 315.95 C 479.84 315.77 479.56 312.79 479.62 311.04 C 480.13 306.67 480.94 302.30 482.29 298.12 Z" />
</g>
<g id="#ca9656ff">
<path fill="#ca9656" opacity="1.00" d=" M 352.19 92.11 C 352.68 90.38 353.60 90.16 354.93 91.45 C 354.10 92.02 353.18 92.24 352.19 92.11 Z" />
<path fill="#ca9656" opacity="1.00" d=" M 342.18 94.12 C 342.61 92.38 343.52 92.13 344.90 93.35 C 344.09 93.97 343.18 94.22 342.18 94.12 Z" />
<path fill="#ca9656" opacity="1.00" d=" M 333.22 96.18 C 333.58 94.42 334.48 94.12 335.91 95.29 C 335.12 95.93 334.23 96.23 333.22 96.18 Z" />
<path fill="#ca9656" opacity="1.00" d=" M 492.10 95.34 C 493.50 94.13 494.40 94.40 494.82 96.13 C 493.80 96.23 492.90 95.96 492.10 95.34 Z" />
<path fill="#ca9656" opacity="1.00" d=" M 496.11 96.22 C 497.57 95.11 498.45 95.43 498.77 97.19 C 497.74 97.23 496.86 96.90 496.11 96.22 Z" />
<path fill="#ca9656" opacity="1.00" d=" M 309.28 102.19 L 310.29 101.80 L 311.04 102.33 C 310.55 102.51 309.57 102.89 309.07 103.08 L 309.28 102.19 Z" />
<path fill="#ca9656" opacity="1.00" d=" M 516.94 102.30 L 517.70 101.78 L 518.71 102.18 L 518.90 103.08 C 518.41 102.89 517.43 102.50 516.94 102.30 Z" />
<path fill="#ca9656" opacity="1.00" d=" M 306.23 103.22 L 307.15 102.66 L 307.97 103.03 C 307.53 103.31 306.63 103.86 306.18 104.13 L 306.23 103.22 Z" />
<path fill="#ca9656" opacity="1.00" d=" M 520.00 103.09 L 520.79 102.66 L 521.74 103.15 L 521.86 104.04 C 521.39 103.81 520.47 103.33 520.00 103.09 Z" />
<path fill="#ca9656" opacity="1.00" d=" M 523.01 104.04 L 523.84 103.66 L 524.76 104.22 L 524.80 105.13 C 524.35 104.85 523.46 104.31 523.01 104.04 Z" />
<path fill="#ca9656" opacity="1.00" d=" M 561.82 120.30 C 573.95 126.02 585.98 132.27 596.85 140.18 C 585.47 133.03 573.82 126.33 561.82 120.30 Z" />
<path fill="#ca9656" opacity="1.00" d=" M 231.18 140.13 C 233.26 138.52 235.50 137.13 237.88 135.99 C 235.65 137.39 233.39 138.72 231.18 140.13 Z" />
<path fill="#ca9656" opacity="1.00" d=" M 228.24 141.30 L 229.15 140.70 L 230.00 141.06 C 229.56 141.35 228.67 141.93 228.23 142.22 L 228.24 141.30 Z" />
<path fill="#ca9656" opacity="1.00" d=" M 598.02 141.10 L 598.85 140.71 L 599.77 141.28 L 599.81 142.20 C 599.36 141.92 598.46 141.37 598.02 141.10 Z" />
<path fill="#ca9656" opacity="1.00" d=" M 225.21 143.40 L 226.07 142.74 L 226.93 143.03 C 226.52 143.35 225.68 144.00 225.27 144.32 L 225.21 143.40 Z" />
<path fill="#ca9656" opacity="1.00" d=" M 601.06 143.01 L 601.93 142.74 L 602.78 143.41 L 602.71 144.33 C 602.29 144.00 601.47 143.34 601.06 143.01 Z" />
<path fill="#ca9656" opacity="1.00" d=" M 218.12 149.13 C 219.83 147.46 221.81 146.11 223.96 145.06 C 221.98 146.38 220.05 147.76 218.12 149.13 Z" />
<path fill="#ca9656" opacity="1.00" d=" M 615.01 153.02 L 615.88 152.73 L 616.74 153.40 L 616.67 154.32 C 616.25 154.00 615.42 153.35 615.01 153.02 Z" />
<path fill="#ca9656" opacity="1.00" d=" M 206.14 158.18 C 207.71 156.72 209.43 155.43 211.23 154.28 C 209.54 155.59 207.84 156.88 206.14 158.18 Z" />
<path fill="#ca9656" opacity="1.00" d=" M 661.29 194.67 C 663.12 196.18 664.67 198.00 665.96 199.99 C 664.35 198.26 662.82 196.46 661.29 194.67 Z" />
<path fill="#ca9656" opacity="1.00" d=" M 384.62 198.55 C 391.84 195.59 400.25 194.82 407.67 197.48 C 412.45 199.20 415.55 204.00 415.94 208.96 C 416.52 215.96 415.43 222.96 415.17 229.95 C 415.31 235.42 408.83 237.13 407.07 241.58 C 408.93 244.14 412.39 242.72 415.03 242.96 C 419.26 242.86 425.15 243.30 426.79 248.02 C 428.82 254.35 430.75 260.73 432.90 267.03 C 436.35 265.88 439.65 264.35 443.07 263.10 C 447.28 261.13 452.82 265.37 451.68 269.99 C 450.97 272.78 448.97 275.01 447.19 277.20 C 442.09 282.89 436.73 288.43 430.40 292.77 C 434.05 296.72 437.37 301.49 437.25 307.12 C 437.35 315.43 437.52 323.73 437.68 332.04 C 433.83 332.24 429.30 331.29 426.18 334.14 C 423.43 336.82 423.60 340.97 423.46 344.52 C 428.22 342.89 432.47 340.17 436.96 337.96 C 446.84 332.94 456.79 328.02 466.44 322.56 C 467.76 321.71 469.54 320.86 469.62 319.06 C 471.12 306.75 472.25 294.38 472.81 282.00 C 472.75 276.02 472.55 269.68 469.69 264.29 C 467.19 259.48 460.99 258.58 458.15 254.08 C 453.25 246.14 450.08 237.14 444.22 229.80 C 441.95 226.91 438.75 224.59 434.98 224.35 C 432.68 224.66 430.90 226.74 430.78 229.02 C 430.46 232.38 430.92 235.85 432.09 239.02 C 433.12 241.75 435.55 243.58 437.03 246.03 C 437.44 247.62 436.32 248.65 435.04 249.32 C 428.92 247.56 424.46 242.05 422.79 236.06 C 421.11 230.19 419.91 223.55 422.79 217.85 C 426.14 211.32 433.68 207.35 440.94 207.69 C 444.92 207.88 448.14 210.50 451.19 212.78 C 458.97 218.91 465.77 227.12 467.93 236.99 C 468.29 241.47 472.89 243.33 475.43 246.46 C 483.37 254.81 485.62 267.27 483.09 278.28 C 490.69 270.80 498.31 263.34 505.84 255.79 C 510.66 250.80 516.45 245.21 523.95 245.63 C 528.22 245.38 531.44 248.38 535.06 250.07 C 538.27 250.10 541.76 248.48 544.77 250.26 C 548.66 252.28 550.36 256.79 550.41 260.97 C 551.05 277.28 550.92 293.62 551.65 309.93 C 551.71 318.61 552.33 327.48 549.98 335.96 C 547.76 345.16 542.39 353.07 538.57 361.62 C 534.92 369.60 531.44 377.68 528.70 386.03 C 527.19 390.76 524.20 395.02 520.08 397.83 C 514.98 401.30 509.00 403.06 503.40 405.51 C 484.34 413.65 465.48 422.33 447.25 432.21 C 436.15 438.03 425.72 445.01 415.11 451.62 C 411.41 449.94 408.28 447.30 404.84 445.20 C 383.43 431.68 360.64 420.50 337.33 410.68 C 329.07 407.11 320.65 403.72 313.10 398.75 C 308.52 395.77 304.69 391.61 302.44 386.60 C 295.63 372.11 289.40 357.35 283.57 342.44 C 281.34 336.50 278.98 330.41 278.98 323.96 C 279.25 301.26 281.98 278.67 283.68 256.04 C 283.70 252.57 285.22 248.98 288.43 247.35 C 291.61 245.43 295.42 246.48 298.80 247.16 C 303.18 241.70 311.46 241.26 317.16 244.85 C 321.38 247.57 324.00 252.02 327.35 255.66 C 335.04 264.31 342.49 273.20 350.63 281.44 C 350.96 269.27 351.64 255.25 361.46 246.57 C 365.36 242.24 371.35 240.73 375.48 236.87 C 376.02 231.10 372.89 225.74 372.84 219.99 C 372.43 211.49 376.43 202.05 384.62 198.55 M 394.54 211.09 C 394.00 214.06 393.58 217.20 391.78 219.73 C 389.87 222.84 386.63 224.66 383.98 227.05 C 384.85 232.33 387.25 237.63 386.00 243.06 C 384.71 246.59 380.84 247.99 378.00 250.02 C 370.91 254.17 365.29 260.94 363.25 268.97 C 359.65 282.68 360.70 297.02 361.28 311.02 C 361.64 314.70 361.31 319.00 364.14 321.85 C 367.93 325.84 373.33 327.59 378.30 329.62 C 387.54 333.08 396.49 337.55 404.16 343.84 C 408.12 346.84 411.49 350.54 415.35 353.67 C 416.98 352.64 419.38 351.63 419.80 349.61 C 414.66 346.44 407.78 345.14 404.45 339.69 C 402.54 333.70 402.46 326.81 405.08 321.03 C 408.40 315.31 416.33 316.82 421.11 313.17 C 422.45 311.37 423.37 309.31 424.52 307.39 C 426.23 310.34 426.17 314.31 424.01 317.00 C 420.51 319.55 415.78 320.42 413.08 324.05 C 410.72 327.23 411.03 331.45 411.47 335.18 C 411.82 336.76 411.85 339.25 414.07 339.13 C 419.33 336.76 415.95 329.23 419.93 325.83 C 423.26 324.91 426.80 325.33 430.22 325.03 C 430.31 320.32 430.07 315.58 430.76 310.90 C 432.31 306.05 427.36 301.80 423.06 300.91 C 420.15 302.26 419.86 305.92 418.16 308.32 C 416.01 309.36 413.95 307.15 411.87 306.76 C 408.71 308.11 405.81 311.38 402.06 310.11 C 397.41 308.59 395.43 303.36 394.55 298.97 C 392.57 289.51 396.92 280.37 401.16 272.19 C 402.70 269.91 400.11 267.91 399.21 265.97 C 395.10 259.97 396.13 251.86 400.07 246.05 C 401.74 243.85 399.16 241.78 398.35 239.81 C 403.10 235.22 408.15 229.88 408.59 222.92 C 408.51 218.80 407.03 214.11 403.08 212.14 C 400.49 210.63 397.39 211.13 394.54 211.09 M 418.77 254.95 C 418.20 256.65 418.01 258.55 416.98 260.06 C 415.60 261.60 413.48 262.10 411.69 262.99 C 412.52 273.24 402.06 279.56 400.57 289.16 C 400.48 292.92 401.32 298.14 405.51 299.40 C 409.97 300.44 414.61 299.95 419.15 299.85 C 419.38 295.60 419.11 291.33 419.41 287.08 C 419.46 285.35 420.80 283.98 422.29 283.28 C 425.63 282.21 429.38 283.12 432.60 281.55 C 436.22 279.45 438.36 275.69 440.29 272.11 C 435.14 273.31 429.72 274.88 424.46 273.37 C 422.92 272.92 421.14 271.87 421.00 270.10 C 420.48 267.16 423.00 265.04 424.46 262.83 C 423.95 260.47 423.40 258.12 422.86 255.77 C 421.50 255.48 420.13 255.21 418.77 254.95 M 312.78 268.63 C 313.60 276.82 315.22 284.90 316.29 293.06 C 316.93 296.87 317.09 300.82 318.52 304.46 C 319.49 307.26 324.05 307.79 325.30 304.93 C 326.56 302.05 325.39 298.83 324.92 295.89 C 323.00 287.44 321.54 278.88 319.33 270.52 C 318.55 267.41 315.10 268.09 312.78 268.63 M 529.41 270.44 C 526.33 274.62 526.57 280.10 525.72 285.00 C 523.42 299.76 520.78 314.47 517.55 329.05 C 515.12 340.25 507.06 349.49 497.38 355.22 C 492.45 358.08 487.54 361.01 482.38 363.42 C 479.43 364.70 476.26 366.00 472.99 365.61 C 469.79 365.12 467.42 360.53 470.14 358.13 C 473.78 354.51 478.73 352.71 482.98 349.95 C 488.84 346.23 495.40 343.40 500.33 338.38 C 504.69 334.04 505.85 327.49 505.34 321.57 C 498.92 321.56 493.74 325.60 488.15 328.13 C 471.22 336.49 453.83 343.98 437.57 353.62 C 423.29 362.77 418.10 380.31 415.43 396.12 C 413.09 380.91 408.07 364.34 395.14 354.80 C 375.99 342.86 354.80 334.72 334.92 324.12 C 332.09 322.51 328.89 321.81 325.67 321.52 C 324.63 328.36 326.86 336.07 332.57 340.31 C 340.48 346.31 349.51 350.59 357.93 355.81 C 359.74 357.03 361.87 358.57 361.98 360.99 C 361.73 363.89 358.90 366.26 355.97 365.66 C 349.17 364.75 343.38 360.67 337.44 357.53 C 329.45 353.32 322.12 347.42 317.46 339.60 C 314.06 333.92 312.80 327.33 311.71 320.90 C 309.19 305.62 307.62 290.21 305.65 274.86 C 305.37 272.17 302.96 267.68 299.81 269.75 C 296.47 271.95 296.58 276.46 296.29 280.00 C 295.95 293.73 295.36 307.47 293.52 321.09 C 292.45 330.12 297.39 338.14 301.00 346.01 C 305.43 355.27 309.05 364.95 314.19 373.88 C 316.92 378.78 321.70 381.99 326.66 384.33 C 354.49 399.07 384.94 408.91 410.86 427.15 C 412.93 428.47 415.46 431.19 417.78 428.73 C 442.97 410.44 472.74 400.44 500.23 386.35 C 505.17 383.81 510.56 381.63 514.26 377.30 C 517.10 373.92 518.90 369.82 520.84 365.89 C 525.28 356.29 529.47 346.58 534.03 337.04 C 537.07 330.79 538.40 323.78 537.75 316.85 C 536.73 303.26 537.13 289.63 536.85 276.01 C 536.65 273.67 536.83 270.78 534.86 269.11 C 533.18 267.37 530.57 268.84 529.41 270.44 M 512.98 268.86 C 510.56 275.12 509.94 281.86 508.48 288.37 C 507.63 293.59 506.11 298.75 506.02 304.06 C 505.77 305.40 507.67 307.03 508.90 306.11 C 511.52 305.39 512.26 302.51 512.70 300.17 C 514.15 292.17 515.39 284.12 516.80 276.11 C 517.10 273.81 517.74 271.44 517.16 269.13 C 515.77 268.96 514.38 268.87 512.98 268.86 M 330.13 284.31 C 328.83 286.41 329.88 288.89 330.07 291.14 C 331.07 296.26 331.50 301.48 332.57 306.58 C 332.87 308.91 336.02 310.80 337.88 308.91 C 337.62 302.51 335.55 296.33 335.03 289.95 C 334.99 287.26 333.65 283.07 330.13 284.31 M 497.48 284.40 C 495.19 287.08 495.08 290.77 494.48 294.07 C 493.95 298.35 492.85 302.59 492.84 306.92 C 492.59 308.76 494.77 310.98 496.43 309.46 C 499.18 308.16 499.29 304.71 499.59 302.09 C 499.82 296.74 500.40 291.40 500.48 286.06 C 500.75 284.11 498.67 281.98 497.48 284.40 M 345.13 296.18 C 343.51 296.14 343.92 298.78 343.76 299.93 C 344.35 304.84 344.97 309.83 346.63 314.51 C 347.56 316.54 350.81 316.26 351.24 314.01 C 350.82 309.28 349.59 304.66 348.62 300.02 C 348.09 298.35 347.48 295.50 345.13 296.18 M 482.29 298.12 C 480.94 302.30 480.13 306.67 479.62 311.04 C 479.56 312.79 479.84 315.77 482.06 315.95 C 484.68 316.68 485.15 313.40 485.45 311.55 C 485.91 306.19 486.22 300.80 486.16 295.42 C 484.87 296.24 482.76 296.39 482.29 298.12 Z" />
<path fill="#ca9656" opacity="1.00" d=" M 666.95 201.10 C 668.53 202.53 669.97 204.13 671.11 205.95 C 669.74 204.32 668.35 202.69 666.95 201.10 Z" />
<path fill="#ca9656" opacity="1.00" d=" M 671.96 206.98 C 673.50 208.48 674.90 210.14 676.04 211.98 C 674.64 210.34 673.29 208.66 671.96 206.98 Z" />
<path fill="#ca9656" opacity="1.00" d=" M 680.76 218.37 C 682.26 217.20 684.23 219.86 682.79 221.04 C 681.95 220.28 681.23 219.39 680.76 218.37 Z" />
<path fill="#ca9656" opacity="1.00" d=" M 683.82 222.40 C 685.33 221.23 687.32 223.89 685.85 225.06 C 684.99 224.31 684.32 223.40 683.82 222.40 Z" />
<path fill="#ca9656" opacity="1.00" d=" M 686.80 226.19 L 687.72 226.23 L 688.29 227.15 L 687.90 227.99 C 687.62 227.54 687.07 226.64 686.80 226.19 Z" />
<path fill="#ca9656" opacity="1.00" d=" M 101.29 298.29 L 102.19 298.13 C 101.98 298.61 101.57 299.58 101.36 300.06 L 100.86 299.29 L 101.29 298.29 Z" />
<path fill="#ca9656" opacity="1.00" d=" M 94.20 318.29 L 95.10 318.10 C 94.91 318.59 94.52 319.57 94.32 320.06 L 93.80 319.30 L 94.20 318.29 Z" />
<path fill="#ca9656" opacity="1.00" d=" M 733.91 321.11 L 734.81 321.28 L 735.23 322.28 L 734.72 323.05 C 734.52 322.56 734.11 321.59 733.91 321.11 Z" />
<path fill="#ca9656" opacity="1.00" d=" M 90.15 333.86 C 89.07 332.37 89.41 331.49 91.18 331.22 C 91.19 332.23 90.85 333.11 90.15 333.86 Z" />
<path fill="#ca9656" opacity="1.00" d=" M 89.17 337.89 C 88.02 336.45 88.32 335.55 90.06 335.21 C 90.14 336.22 89.84 337.11 89.17 337.89 Z" />
<path fill="#ca9656" opacity="1.00" d=" M 88.17 341.85 C 87.05 340.40 87.36 339.51 89.09 339.20 C 89.17 340.21 88.86 341.09 88.17 341.85 Z" />
<path fill="#ca9656" opacity="1.00" d=" M 87.15 345.85 C 86.03 344.40 86.34 343.52 88.08 343.19 C 88.15 344.20 87.84 345.09 87.15 345.85 Z" />
<path fill="#ca9656" opacity="1.00" d=" M 86.39 349.89 C 85.13 348.53 85.37 347.62 87.10 347.16 C 87.22 348.16 86.98 349.07 86.39 349.89 Z" />
<path fill="#ca9656" opacity="1.00" d=" M 83.39 365.76 C 81.77 365.16 82.17 361.87 84.08 362.36 C 84.12 363.53 83.79 364.66 83.39 365.76 Z" />
<path fill="#ca9656" opacity="1.00" d=" M 744.95 368.36 C 746.84 367.87 747.23 371.15 745.65 371.75 C 745.22 370.66 744.88 369.53 744.95 368.36 Z" />
<path fill="#ca9656" opacity="1.00" d=" M 745.93 374.35 C 747.86 373.95 748.08 377.26 746.44 377.77 C 746.07 376.66 745.83 375.51 745.93 374.35 Z" />
<path fill="#ca9656" opacity="1.00" d=" M 82.43 471.26 C 82.81 472.35 83.09 473.48 83.05 474.66 C 81.12 475.11 80.79 471.79 82.43 471.26 Z" />
<path fill="#ca9656" opacity="1.00" d=" M 83.36 477.27 C 83.78 478.35 84.13 479.48 84.08 480.67 C 82.18 481.13 81.75 477.86 83.36 477.27 Z" />
<path fill="#ca9656" opacity="1.00" d=" M 86.28 493.10 C 86.92 493.89 87.20 494.78 87.13 495.80 C 85.38 495.41 85.10 494.51 86.28 493.10 Z" />
<path fill="#ca9656" opacity="1.00" d=" M 740.91 495.79 C 740.82 494.78 741.09 493.88 741.73 493.08 C 742.92 494.49 742.65 495.39 740.91 495.79 Z" />
<path fill="#ca9656" opacity="1.00" d=" M 738.82 504.78 C 738.76 503.76 739.06 502.87 739.70 502.09 C 740.86 503.51 740.57 504.41 738.82 504.78 Z" />
<path fill="#ca9656" opacity="1.00" d=" M 90.37 509.92 C 90.56 510.41 90.92 511.40 91.11 511.89 L 90.22 511.69 L 89.83 510.67 L 90.37 509.92 Z" />
<path fill="#ca9656" opacity="1.00" d=" M 93.28 519.94 C 93.48 520.43 93.89 521.40 94.09 521.88 L 93.19 521.71 L 92.77 520.71 L 93.28 519.94 Z" />
<path fill="#ca9656" opacity="1.00" d=" M 729.12 537.09 C 730.01 534.68 730.81 532.24 731.68 529.83 C 731.00 532.30 730.20 534.75 729.12 537.09 Z" />
<path fill="#ca9656" opacity="1.00" d=" M 727.83 539.85 C 728.06 539.38 728.52 538.43 728.75 537.96 L 729.21 538.75 L 728.74 539.72 L 727.83 539.85 Z" />
<path fill="#ca9656" opacity="1.00" d=" M 133.20 605.02 C 133.51 605.44 134.13 606.30 134.43 606.73 L 133.51 606.76 L 132.88 605.88 L 133.20 605.02 Z" />
<path fill="#ca9656" opacity="1.00" d=" M 691.80 609.79 C 692.07 609.33 692.61 608.43 692.88 607.98 L 693.27 608.81 L 692.71 609.74 L 691.80 609.79 Z" />
<path fill="#ca9656" opacity="1.00" d=" M 689.63 612.72 C 689.95 612.30 690.59 611.47 690.91 611.05 L 691.20 611.92 L 690.54 612.78 L 689.63 612.72 Z" />
<path fill="#ca9656" opacity="1.00" d=" M 686.81 616.64 C 687.25 615.59 687.95 614.69 688.82 613.95 C 690.26 615.10 688.32 617.74 686.81 616.64 Z" />
<path fill="#ca9656" opacity="1.00" d=" M 684.60 619.70 C 684.93 619.30 685.60 618.49 685.94 618.08 L 686.21 618.96 L 685.51 619.80 L 684.60 619.70 Z" />
<path fill="#ca9656" opacity="1.00" d=" M 145.14 622.00 C 145.46 622.42 146.08 623.27 146.39 623.70 L 145.46 623.74 L 144.82 622.86 L 145.14 622.00 Z" />
<path fill="#ca9656" opacity="1.00" d=" M 678.70 627.71 C 679.00 627.28 679.60 626.41 679.90 625.98 L 680.24 626.84 L 679.62 627.73 L 678.70 627.71 Z" />
<path fill="#ca9656" opacity="1.00" d=" M 673.92 633.85 C 675.24 632.22 676.56 630.59 677.86 628.96 C 676.76 630.75 675.43 632.38 673.92 633.85 Z" />
<path fill="#ca9656" opacity="1.00" d=" M 155.13 634.99 C 156.79 636.89 158.41 638.84 160.04 640.78 C 158.08 639.14 156.43 637.18 155.13 634.99 Z" />
<path fill="#ca9656" opacity="1.00" d=" M 668.88 639.83 C 670.24 638.22 671.57 636.59 672.95 635.01 C 671.75 636.74 670.41 638.37 668.88 639.83 Z" />
<path fill="#ca9656" opacity="1.00" d=" M 660.92 648.78 C 663.19 646.17 665.42 643.53 667.80 641.03 C 665.88 643.92 663.64 646.61 660.92 648.78 Z" />
<path fill="#ca9656" opacity="1.00" d=" M 186.25 667.95 C 188.50 669.94 190.81 671.87 193.02 673.93 C 190.43 672.34 188.12 670.33 186.25 667.95 Z" />
<path fill="#ca9656" opacity="1.00" d=" M 634.03 674.84 C 636.56 672.49 639.20 670.27 641.77 667.96 C 639.64 670.72 636.94 672.94 634.03 674.84 Z" />
<path fill="#ca9656" opacity="1.00" d=" M 617.96 687.78 C 618.70 686.92 619.58 686.20 620.60 685.70 C 621.75 687.19 619.15 689.23 617.96 687.78 Z" />
<path fill="#ca9656" opacity="1.00" d=" M 211.42 688.76 C 212.45 689.23 213.32 689.95 214.09 690.80 C 212.90 692.24 210.26 690.26 211.42 688.76 Z" />
<path fill="#ca9656" opacity="1.00" d=" M 613.93 690.81 C 614.69 689.98 615.60 689.31 616.62 688.80 C 617.76 690.32 615.08 692.31 613.93 690.81 Z" />
<path fill="#ca9656" opacity="1.00" d=" M 215.40 691.77 C 216.41 692.26 217.31 692.96 218.06 693.82 C 216.88 695.29 214.26 693.27 215.40 691.77 Z" />
<path fill="#ca9656" opacity="1.00" d=" M 609.93 693.84 C 610.68 692.98 611.60 692.32 612.61 691.80 C 613.74 693.31 611.10 695.32 609.93 693.84 Z" />
<path fill="#ca9656" opacity="1.00" d=" M 219.27 694.71 C 219.71 695.00 220.60 695.58 221.04 695.87 L 220.18 696.23 L 219.28 695.63 L 219.27 694.71 Z" />
<path fill="#ca9656" opacity="1.00" d=" M 606.98 695.85 C 607.43 695.59 608.34 695.06 608.80 694.79 L 608.74 695.71 L 607.81 696.26 L 606.98 695.85 Z" />
<path fill="#ca9656" opacity="1.00" d=" M 595.25 703.66 C 596.55 702.61 597.94 701.68 599.45 700.95 C 600.54 703.04 596.81 705.30 595.25 703.66 Z" />
<path fill="#ca9656" opacity="1.00" d=" M 523.88 738.65 C 533.72 735.09 543.45 731.20 553.04 726.99 C 543.74 731.81 533.85 735.50 523.88 738.65 Z" />
<path fill="#ca9656" opacity="1.00" d=" M 294.25 734.77 C 295.25 734.82 296.12 735.20 296.85 735.91 C 295.30 736.93 294.43 736.55 294.25 734.77 Z" />
<path fill="#ca9656" opacity="1.00" d=" M 318.14 742.86 C 318.62 743.09 319.56 743.54 320.04 743.77 L 319.25 744.23 L 318.28 743.77 L 318.14 742.86 Z" />
<path fill="#ca9656" opacity="1.00" d=" M 321.23 743.84 C 322.24 743.75 323.13 744.05 323.90 744.74 C 322.46 745.87 321.57 745.57 321.23 743.84 Z" />
<path fill="#ca9656" opacity="1.00" d=" M 325.21 744.86 C 326.23 744.81 327.11 745.15 327.84 745.89 C 326.35 746.94 325.48 746.60 325.21 744.86 Z" />
<path fill="#ca9656" opacity="1.00" d=" M 500.18 745.85 C 500.91 745.14 501.79 744.80 502.81 744.83 C 502.54 746.58 501.66 746.92 500.18 745.85 Z" />
<path fill="#ca9656" opacity="1.00" d=" M 329.11 745.92 C 329.59 746.13 330.55 746.56 331.03 746.77 L 330.25 747.26 L 329.27 746.82 L 329.11 745.92 Z" />
<path fill="#ca9656" opacity="1.00" d=" M 496.15 746.90 C 496.88 746.16 497.76 745.84 498.79 745.93 C 498.48 747.64 497.60 747.97 496.15 746.90 Z" />
<path fill="#ca9656" opacity="1.00" d=" M 333.16 746.91 C 334.16 746.81 335.06 747.08 335.85 747.74 C 334.43 748.91 333.54 748.63 333.16 746.91 Z" />
<path fill="#ca9656" opacity="1.00" d=" M 492.94 747.57 C 493.44 747.41 494.44 747.08 494.94 746.92 L 494.69 747.80 L 493.67 748.14 L 492.94 747.57 Z" />
<path fill="#ca9656" opacity="1.00" d=" M 473.25 751.60 C 474.33 751.18 475.46 750.86 476.65 750.90 C 477.11 752.80 473.83 753.21 473.25 751.60 Z" />
<path fill="#ca9656" opacity="1.00" d=" M 357.34 751.92 C 358.51 751.85 359.64 752.17 360.73 752.59 C 360.16 754.21 356.90 753.81 357.34 751.92 Z" />
</g>
<g id="#ba1b40ff">
<path fill="#ba1b40" opacity="1.00" d=" M 266.33 488.44 C 279.12 482.78 294.43 483.94 306.83 490.11 C 309.47 491.15 311.60 493.99 310.81 496.91 C 309.93 502.41 308.67 507.83 307.72 513.32 C 304.15 513.36 300.59 513.31 297.03 513.10 C 296.12 508.02 295.86 502.77 294.19 497.86 C 289.58 494.21 283.02 493.58 277.37 494.60 C 274.78 495.22 271.61 495.61 269.94 497.92 C 267.50 502.53 267.11 508.56 270.02 513.06 C 272.09 516.27 275.43 518.38 278.72 520.18 C 287.68 524.85 297.95 527.35 305.66 534.19 C 314.74 542.04 314.60 557.75 305.74 565.72 C 298.22 572.38 287.71 574.28 277.96 574.02 C 268.20 573.62 258.18 571.66 249.89 566.26 C 249.86 559.83 249.91 553.40 250.02 546.97 C 253.92 546.68 257.83 546.61 261.74 546.69 C 262.49 551.54 263.78 556.29 265.13 561.00 C 272.28 564.75 280.81 565.19 288.58 563.41 C 292.82 562.56 294.32 557.91 294.77 554.14 C 295.44 549.36 292.26 544.93 288.23 542.69 C 278.46 536.83 266.62 534.77 257.84 527.22 C 252.06 522.37 249.52 514.40 250.75 507.04 C 251.86 498.47 258.69 491.78 266.33 488.44 Z" />
<path fill="#ba1b40" opacity="1.00" d=" M 348.44 486.39 C 360.94 482.99 374.59 485.21 385.90 491.34 C 386.59 493.11 387.75 494.87 387.23 496.86 C 386.45 502.40 385.27 507.89 384.05 513.35 C 380.48 513.37 376.91 513.32 373.35 513.00 C 372.83 507.74 371.97 502.51 370.64 497.39 C 363.87 493.57 355.33 493.00 348.28 496.37 C 345.78 497.61 345.22 500.64 344.72 503.11 C 343.40 508.48 346.09 514.22 350.58 517.27 C 360.29 524.25 372.95 526.03 382.01 534.08 C 388.07 539.35 390.46 548.28 388.12 555.92 C 386.25 563.24 379.98 568.64 373.10 571.21 C 362.90 574.99 351.62 574.59 341.13 572.32 C 336.08 571.02 330.86 569.48 326.70 566.23 C 325.74 559.93 326.58 553.41 326.71 547.04 C 330.50 546.67 334.30 546.61 338.11 546.66 C 339.27 551.43 339.80 556.47 341.91 560.93 C 348.62 564.99 357.10 564.96 364.58 563.54 C 369.88 562.72 371.38 556.58 371.17 552.04 C 371.10 546.97 366.62 543.59 362.56 541.42 C 353.05 536.50 342.05 534.09 333.89 526.80 C 326.63 520.41 324.79 508.98 329.35 500.51 C 333.11 493.15 340.69 488.57 348.44 486.39 Z" />
<path fill="#ba1b40" opacity="1.00" d=" M 420.90 487.74 C 433.39 482.91 447.89 484.20 459.80 490.10 C 462.37 491.17 464.60 493.93 463.79 496.84 C 462.91 502.36 461.62 507.81 460.68 513.32 C 457.12 513.36 453.56 513.31 450.01 513.10 C 449.08 508.04 448.85 502.80 447.14 497.92 C 442.47 494.05 435.65 493.57 429.89 494.70 C 427.14 495.37 423.47 495.92 422.39 498.97 C 420.38 503.56 420.23 509.37 423.31 513.54 C 426.37 517.72 431.21 520.05 435.80 522.17 C 443.87 525.84 452.75 528.53 459.29 534.80 C 467.51 542.68 467.41 557.37 459.16 565.19 C 452.82 571.43 443.66 573.58 435.03 574.00 C 423.94 574.23 412.40 572.32 402.88 566.32 C 402.89 559.87 402.84 553.42 403.02 546.97 C 406.90 546.69 410.80 546.61 414.69 546.69 C 415.49 551.53 416.72 556.30 418.12 561.01 C 425.25 564.76 433.79 565.20 441.53 563.38 C 446.19 562.47 447.59 557.09 447.73 553.01 C 448.00 548.28 444.47 544.43 440.58 542.29 C 430.91 536.78 419.39 534.61 410.80 527.21 C 404.77 522.14 402.19 513.65 403.89 506.02 C 405.55 497.29 412.89 490.82 420.90 487.74 Z" />
<path fill="#ba1b40" opacity="1.00" d=" M 476.88 487.06 C 501.85 486.46 526.88 487.73 551.83 485.88 C 552.77 487.56 554.21 489.08 554.60 491.02 C 554.44 497.94 553.33 504.81 552.85 511.72 C 549.33 511.97 545.81 511.86 542.31 511.43 C 541.39 506.28 540.24 501.18 539.09 496.08 C 534.06 495.97 528.55 494.44 523.79 495.82 C 523.44 503.51 523.77 511.22 523.66 518.92 C 523.79 531.99 523.24 545.08 524.28 558.12 C 524.60 563.60 531.26 564.01 535.27 565.53 C 534.86 567.69 534.40 569.84 533.96 572.00 C 521.41 571.99 508.86 572.02 496.32 571.98 C 495.93 569.80 495.52 567.64 495.08 565.48 C 498.69 564.44 502.29 563.37 505.87 562.21 C 507.46 539.94 506.80 517.59 506.85 495.28 C 501.69 495.25 496.54 495.68 491.41 496.13 C 490.33 501.45 489.11 506.74 487.89 512.03 C 484.33 512.02 480.71 512.26 477.20 511.54 C 476.30 509.89 476.61 507.82 476.38 506.01 C 476.38 499.69 476.01 493.33 476.88 487.06 Z" />
<path fill="#ba1b40" opacity="1.00" d=" M 619.07 486.57 C 623.04 486.45 627.01 485.79 630.99 486.09 C 632.51 487.63 634.42 489.60 633.94 491.98 C 633.00 498.37 631.59 504.69 630.75 511.10 C 627.31 511.08 623.85 511.32 620.45 510.77 C 619.33 505.98 618.66 501.09 617.63 496.27 C 608.69 495.79 599.26 493.98 590.59 496.74 C 589.77 506.36 589.75 516.07 589.71 525.73 C 598.14 525.42 606.55 524.73 614.99 524.70 C 616.56 524.41 617.52 525.92 618.70 526.63 C 618.17 529.54 617.65 532.46 617.04 535.36 C 607.92 535.11 598.79 535.18 589.68 534.59 C 589.89 543.60 589.21 552.81 591.22 561.65 C 600.38 564.44 610.18 563.29 619.56 562.39 C 620.66 557.46 621.81 552.54 623.09 547.66 C 626.75 547.64 630.42 547.65 634.08 547.88 C 634.32 555.92 634.31 563.96 634.09 572.00 C 610.17 571.96 586.25 572.07 562.34 571.95 C 561.97 569.74 561.60 567.54 561.23 565.35 C 564.77 564.38 568.40 563.58 571.78 562.13 C 573.12 550.82 572.84 539.39 572.89 528.02 C 572.82 519.03 573.18 510.00 572.14 501.06 C 572.23 495.28 565.20 494.83 561.14 493.18 C 561.57 491.11 561.97 489.04 562.39 486.98 C 581.28 486.65 600.18 487.24 619.07 486.57 Z" />
<path fill="#ba1b40" opacity="1.00" d=" M 197.95 486.89 C 210.50 486.92 223.05 486.81 235.60 486.95 C 235.98 489.07 236.37 491.19 236.76 493.31 C 233.21 494.36 229.67 495.47 226.09 496.44 C 224.76 509.26 225.18 522.16 225.11 535.03 C 225.17 542.70 224.83 550.43 225.85 558.06 C 225.94 563.68 232.84 563.94 236.81 565.55 C 236.36 567.67 235.96 569.81 235.55 571.94 C 223.01 572.07 210.46 571.97 197.92 572.00 C 197.43 569.81 197.00 567.62 196.60 565.43 C 200.15 564.38 203.80 563.58 207.21 562.13 C 208.39 556.17 207.79 550.02 208.01 543.98 C 208.48 534.33 208.51 524.65 208.02 515.00 C 207.88 510.02 208.30 504.99 207.47 500.05 C 206.75 494.94 200.33 494.89 196.54 493.19 C 196.98 491.08 197.45 488.98 197.95 486.89 Z" />
</g>
</svg>
