<?xml version="1.0" encoding="UTF-8" ?>
<!DOCTYPE svg PUBLIC "-//W3C//DTD SVG 1.1//EN" "http://www.w3.org/Graphics/SVG/1.1/DTD/svg11.dtd">
<svg width="824pt" height="1067pt" viewBox="0 0 824 1067" version="1.1" xmlns="http://www.w3.org/2000/svg">
<g id="#5ca563ff">
<path fill="#5ca563" opacity="1.00" d=" M 400.66 0.00 L 423.22 0.00 C 469.98 1.49 516.54 10.56 560.16 27.55 C 630.46 54.66 692.84 101.64 738.64 161.43 C 783.55 219.72 812.35 290.30 820.78 363.42 C 826.55 412.63 823.10 462.68 812.72 511.06 C 798.93 575.54 773.36 637.02 741.57 694.61 C 695.08 778.39 635.75 854.46 570.59 924.48 C 530.93 966.93 488.94 1007.22 444.61 1044.77 C 437.00 1051.11 429.43 1057.51 421.58 1063.56 C 415.72 1068.25 406.71 1067.80 401.15 1062.85 C 359.65 1029.67 320.61 993.49 283.18 955.81 C 234.34 906.27 188.58 853.59 147.73 797.25 C 103.27 735.73 64.38 669.68 37.17 598.66 C 14.49 539.56 0.49 476.74 0.00 413.29 L 0.00 410.39 C 0.38 379.00 3.76 347.60 11.07 317.04 C 31.09 231.32 79.84 152.79 147.33 96.35 C 185.31 64.39 229.10 39.35 275.96 22.97 C 315.99 8.85 358.26 1.34 400.66 0.00 M 361.75 90.31 C 361.19 88.66 357.84 88.96 358.33 90.92 C 357.68 91.00 356.38 91.18 355.73 91.27 C 355.15 89.63 351.84 90.05 352.34 91.97 C 349.83 92.19 347.33 92.61 344.92 93.33 C 343.61 91.99 342.69 92.19 342.15 93.93 L 340.75 94.23 C 340.12 92.59 336.84 93.07 337.32 94.98 L 335.94 95.19 C 334.52 94.00 333.62 94.30 333.25 96.09 C 325.72 97.58 318.31 99.83 311.06 102.33 L 310.36 101.71 L 309.31 101.98 L 309.02 102.86 L 308.06 103.05 L 307.27 102.59 L 306.29 103.07 L 306.16 103.99 C 301.02 105.37 296.09 107.43 291.12 109.33 C 282.79 112.32 274.71 115.98 266.82 119.98 C 258.47 124.17 250.03 128.23 242.18 133.31 C 241.89 133.50 241.30 133.89 241.00 134.08 L 240.14 133.74 L 239.25 134.36 L 239.27 135.29 C 238.93 135.46 238.24 135.81 237.89 135.98 C 235.62 137.24 233.42 138.61 231.29 140.10 C 230.96 140.36 230.31 140.87 229.98 141.13 L 229.16 140.72 L 228.21 141.26 L 228.15 142.17 C 227.86 142.38 227.27 142.81 226.98 143.02 L 226.11 142.71 L 225.24 143.36 L 225.29 144.28 C 224.95 144.48 224.25 144.88 223.91 145.09 C 221.89 146.26 219.97 147.59 218.19 149.10 C 215.83 150.82 213.51 152.59 211.17 154.34 C 209.49 155.56 207.82 156.81 206.21 158.12 C 205.89 158.37 205.25 158.87 204.94 159.12 C 203.29 160.35 201.71 161.65 200.19 163.03 C 186.14 174.68 173.02 187.46 161.01 201.21 C 159.52 202.62 158.19 204.20 157.02 205.89 C 147.02 218.08 137.39 230.70 129.33 244.26 L 128.40 244.28 L 127.82 245.20 L 128.21 246.05 C 117.93 262.51 109.04 279.95 102.16 298.10 L 101.25 298.28 L 100.84 299.29 L 101.37 300.05 C 98.86 305.92 96.73 311.99 94.97 318.12 L 94.06 318.36 L 93.72 319.40 L 94.29 320.13 C 92.86 323.69 91.76 327.41 91.13 331.21 C 89.34 331.47 88.99 332.35 90.09 333.84 L 89.94 335.15 C 88.18 335.54 87.90 336.44 89.09 337.85 L 88.94 339.15 C 87.18 339.54 86.90 340.45 88.10 341.85 L 87.92 343.18 C 86.16 343.59 85.89 344.49 87.09 345.89 L 86.93 347.15 C 85.19 347.70 85.00 348.62 86.34 349.93 C 85.30 354.01 84.50 358.16 83.99 362.34 C 82.07 361.84 81.63 365.14 83.28 365.73 C 83.18 366.34 82.99 367.57 82.90 368.18 C 81.20 368.83 81.06 369.76 82.49 370.98 C 77.45 404.13 77.38 438.11 82.38 471.27 C 80.69 471.77 80.98 475.11 82.93 474.70 C 83.03 475.34 83.22 476.63 83.31 477.27 C 81.65 477.80 82.01 481.11 83.93 480.68 C 84.06 481.54 84.31 483.24 84.43 484.09 C 83.10 485.37 83.30 486.29 85.04 486.85 C 85.13 487.40 85.32 488.50 85.41 489.05 C 84.03 490.28 84.20 491.22 85.91 491.84 L 86.13 493.08 C 84.95 494.50 85.26 495.39 87.03 495.77 C 87.95 501.65 89.44 507.47 91.33 513.11 C 90.07 514.49 90.33 515.39 92.11 515.83 L 92.24 516.98 L 91.74 517.74 L 92.16 518.74 L 93.06 518.92 L 93.01 519.96 L 92.57 520.76 L 93.08 521.72 L 93.99 521.82 C 94.97 526.31 96.51 530.71 98.34 534.93 L 97.70 535.60 L 97.93 536.66 L 98.79 536.99 L 99.22 537.98 L 98.77 538.78 L 99.26 539.75 L 100.18 539.86 C 101.12 543.65 102.90 547.17 104.32 550.80 C 105.08 552.86 105.97 554.87 106.94 556.85 C 115.29 575.79 125.43 593.91 137.10 611.01 C 138.24 613.08 139.59 615.04 141.16 616.83 C 142.85 619.17 144.60 621.47 146.32 623.79 C 147.53 625.48 148.78 627.15 150.11 628.77 C 151.79 630.89 153.49 633.02 155.24 635.10 C 156.60 637.16 158.19 639.08 160.01 640.76 C 168.17 650.39 177.20 659.20 186.25 667.98 C 188.21 670.22 190.46 672.20 192.93 673.87 C 193.26 674.16 193.91 674.74 194.23 675.03 C 195.93 676.80 197.81 678.40 199.84 679.80 C 203.69 682.81 207.32 686.14 211.42 688.82 C 210.29 690.33 212.91 692.37 214.09 690.86 C 214.41 691.10 215.06 691.59 215.39 691.83 C 214.26 693.36 216.90 695.38 218.07 693.87 C 218.36 694.08 218.93 694.50 219.21 694.71 L 219.20 695.63 L 220.09 696.25 L 220.95 695.91 C 221.25 696.16 221.85 696.67 222.15 696.92 L 222.23 697.84 L 223.18 698.37 L 224.00 697.95 C 224.29 698.20 224.86 698.69 225.15 698.93 C 227.55 700.90 230.14 702.64 232.92 704.02 C 233.26 704.20 233.92 704.55 234.26 704.73 L 234.24 705.66 L 235.14 706.28 L 236.00 705.93 C 236.42 706.21 237.26 706.78 237.68 707.07 L 237.13 706.73 C 253.27 716.96 270.36 725.77 288.20 732.65 C 301.55 737.98 315.19 742.81 329.21 746.00 C 329.56 747.78 330.45 748.08 331.89 746.92 L 333.13 747.06 C 333.52 748.80 334.42 749.09 335.84 747.91 L 337.18 748.06 C 337.63 749.79 338.54 750.05 339.91 748.82 L 341.32 749.04 C 340.87 750.95 344.16 751.37 344.76 749.74 L 346.29 750.02 C 345.82 751.93 349.12 752.41 349.73 750.76 L 351.35 751.02 C 350.89 752.93 354.20 753.35 354.77 751.69 C 355.41 751.79 356.69 751.97 357.34 752.07 C 356.90 753.99 360.22 754.31 360.76 752.66 C 391.59 757.74 423.21 758.29 454.22 754.49 C 454.67 756.18 458.02 755.96 457.63 754.01 C 460.87 753.81 464.12 753.42 467.28 752.67 C 467.80 754.34 471.11 754.00 470.71 752.08 C 471.35 751.98 472.63 751.80 473.26 751.71 C 473.83 753.35 477.15 752.95 476.69 751.03 L 478.25 750.79 C 478.86 752.42 482.16 751.95 481.69 750.04 L 483.27 749.75 C 483.86 751.39 487.14 750.88 486.66 748.98 C 488.51 748.76 490.35 748.40 492.13 747.81 C 493.49 749.06 494.40 748.82 494.87 747.07 L 496.12 746.91 C 497.52 748.10 498.42 747.82 498.83 746.08 L 500.11 745.94 C 501.55 747.08 502.44 746.76 502.77 744.98 C 503.37 744.86 504.57 744.62 505.17 744.49 C 541.58 734.30 576.15 717.73 607.07 695.98 C 609.06 694.76 610.98 693.41 612.78 691.92 C 613.07 691.67 613.64 691.17 613.92 690.92 C 615.08 692.42 617.70 690.40 616.60 688.88 C 616.93 688.62 617.61 688.10 617.94 687.85 C 619.11 689.33 621.72 687.29 620.62 685.78 C 620.97 685.54 621.68 685.07 622.04 684.83 C 623.67 683.63 625.27 682.37 626.82 681.04 C 627.13 680.78 627.74 680.27 628.05 680.01 C 629.76 678.84 631.35 677.50 632.76 675.99 C 633.09 675.69 633.75 675.10 634.08 674.80 C 636.83 672.78 639.48 670.61 641.73 668.03 C 648.25 661.70 654.71 655.31 660.99 648.73 C 663.56 646.46 665.78 643.82 667.77 641.03 C 668.06 640.71 668.63 640.07 668.91 639.75 C 670.31 638.26 671.64 636.69 672.89 635.07 C 673.14 634.76 673.66 634.15 673.92 633.84 C 675.30 632.30 676.61 630.69 677.82 629.00 C 678.03 628.69 678.45 628.06 678.66 627.75 L 679.58 627.78 L 680.21 626.89 L 679.87 626.02 C 681.77 624.21 683.32 622.04 684.60 619.76 L 685.53 619.81 L 686.18 618.94 L 685.86 618.07 C 686.13 617.77 686.66 617.16 686.92 616.86 C 688.38 615.03 689.71 613.09 690.93 611.09 C 691.12 610.75 691.51 610.07 691.70 609.73 L 692.62 609.76 L 693.26 608.88 L 692.93 608.01 C 693.17 607.63 693.65 606.86 693.89 606.48 C 696.03 607.51 698.25 603.78 696.65 602.15 C 709.35 582.68 719.92 561.72 727.87 539.88 L 728.78 539.71 L 729.21 538.71 L 728.70 537.94 L 729.09 537.05 C 730.06 534.68 730.92 532.27 731.67 529.83 C 732.85 526.23 734.28 522.68 734.93 518.94 L 735.83 518.71 L 736.19 517.68 L 735.63 516.95 C 736.98 512.97 738.19 508.91 738.91 504.77 C 740.69 504.34 740.96 503.44 739.73 502.06 C 740.49 500.05 740.79 497.90 741.03 495.78 C 742.79 495.36 743.06 494.46 741.85 493.07 L 742.04 491.68 C 743.95 492.12 744.37 488.83 742.74 488.25 L 743.01 486.68 C 744.93 487.12 745.33 483.80 743.66 483.26 C 746.36 470.03 747.72 456.55 748.74 443.10 C 749.91 419.30 749.43 395.30 745.66 371.74 C 747.32 371.21 747.00 367.90 745.07 368.32 C 744.99 367.66 744.82 366.36 744.74 365.71 C 746.38 365.13 745.99 361.82 744.07 362.29 C 743.97 361.65 743.78 360.38 743.69 359.74 C 745.35 359.17 744.92 355.85 743.00 356.33 L 742.69 354.75 C 744.34 354.18 743.93 350.89 742.03 351.32 L 741.85 349.92 C 743.04 348.51 742.75 347.61 740.99 347.22 C 739.61 339.05 737.23 331.03 734.74 323.14 L 735.31 322.40 L 734.97 321.37 L 734.07 321.13 C 732.46 314.66 729.86 308.48 727.65 302.20 C 726.67 299.04 725.42 295.97 723.99 292.99 C 713.95 269.02 701.31 246.04 685.86 225.12 C 687.40 223.98 685.44 221.29 683.89 222.39 C 683.64 222.06 683.14 221.41 682.89 221.08 C 684.40 219.90 682.35 217.28 680.84 218.42 C 679.40 216.13 677.67 214.04 675.97 211.94 C 674.79 210.26 673.51 208.65 672.11 207.15 C 671.87 206.85 671.37 206.25 671.12 205.95 C 669.84 204.30 668.51 202.70 667.04 201.22 C 656.71 189.43 645.58 178.33 633.76 168.03 C 631.72 165.87 629.42 163.97 626.98 162.29 C 625.25 160.81 623.48 159.38 621.57 158.15 C 622.70 156.64 620.11 154.59 618.93 156.08 C 613.83 151.77 608.33 147.87 602.72 144.30 L 602.76 143.36 L 601.88 142.72 L 601.01 143.04 C 600.73 142.81 600.15 142.33 599.86 142.09 L 599.75 141.18 L 598.78 140.69 L 597.97 141.14 C 591.90 136.71 585.24 133.11 578.79 129.25 C 561.53 119.70 543.59 111.12 524.82 104.99 L 524.72 104.08 L 523.76 103.57 L 522.96 104.01 L 521.95 103.96 L 521.77 103.06 L 520.77 102.63 L 520.00 103.13 L 518.98 102.82 L 518.67 101.95 L 517.61 101.69 L 516.92 102.31 C 511.00 100.19 504.91 98.34 498.74 97.09 C 498.37 95.31 497.48 95.00 496.06 96.16 L 494.78 95.95 C 494.29 94.19 493.38 93.95 492.03 95.21 L 490.66 94.99 C 491.15 93.07 487.84 92.62 487.25 94.26 C 483.46 93.20 479.58 92.42 475.68 91.96 C 476.15 90.04 472.85 89.60 472.28 91.26 C 471.63 91.17 470.35 91.00 469.71 90.92 C 470.15 88.97 466.82 88.65 466.29 90.31 C 431.75 84.79 396.29 84.80 361.75 90.31 Z" />
</g>
<g id="#ffffffff">
<path fill="#ffffff" opacity="1.00" d=" M 361.75 90.31 C 396.29 84.80 431.75 84.79 466.29 90.31 C 467.39 90.67 468.53 90.93 469.71 90.92 C 470.35 91.00 471.63 91.17 472.28 91.26 C 473.37 91.64 474.50 91.95 475.68 91.96 C 479.58 92.42 483.46 93.20 487.25 94.26 C 488.34 94.67 489.48 94.95 490.66 94.99 L 492.03 95.21 C 492.85 95.79 493.77 96.03 494.78 95.95 L 496.06 96.16 C 496.83 96.80 497.73 97.11 498.74 97.09 C 504.91 98.34 511.00 100.19 516.92 102.31 C 517.44 102.44 518.46 102.69 518.98 102.82 L 520.00 103.13 C 520.49 103.34 521.46 103.75 521.95 103.96 L 522.96 104.01 C 523.43 104.26 524.36 104.75 524.82 104.99 C 543.59 111.12 561.53 119.70 578.79 129.25 C 585.24 133.11 591.90 136.71 597.97 141.14 C 598.44 141.38 599.39 141.86 599.86 142.09 C 600.15 142.33 600.73 142.81 601.01 143.04 C 601.44 143.36 602.29 143.98 602.72 144.30 C 608.33 147.87 613.83 151.77 618.93 156.08 C 619.65 156.94 620.57 157.62 621.57 158.15 C 623.48 159.38 625.25 160.81 626.98 162.29 C 629.20 164.24 631.51 166.10 633.76 168.03 C 645.58 178.33 656.71 189.43 667.04 201.22 C 668.42 202.77 669.77 204.36 671.12 205.95 C 671.37 206.25 671.87 206.85 672.11 207.15 C 673.40 208.74 674.67 210.35 675.97 211.94 C 677.67 214.04 679.40 216.13 680.84 218.42 C 681.35 219.42 682.05 220.31 682.89 221.08 C 683.14 221.41 683.64 222.06 683.89 222.39 C 684.40 223.39 685.04 224.33 685.86 225.12 C 701.31 246.04 713.95 269.02 723.99 292.99 C 725.22 296.06 726.44 299.12 727.65 302.20 C 729.86 308.48 732.46 314.66 734.07 321.13 C 734.24 321.63 734.57 322.63 734.74 323.14 C 737.23 331.03 739.61 339.05 740.99 347.22 C 740.93 348.22 741.22 349.12 741.85 349.92 L 742.03 351.32 C 742.02 352.49 742.29 353.64 742.69 354.75 L 743.00 356.33 C 743.03 357.49 743.30 358.63 743.69 359.74 C 743.78 360.38 743.97 361.65 744.07 362.29 C 744.06 363.46 744.35 364.60 744.74 365.71 C 744.82 366.36 744.99 367.66 745.07 368.32 C 745.03 369.48 745.28 370.63 745.66 371.74 C 749.43 395.30 749.91 419.30 748.74 443.10 C 747.72 456.55 746.36 470.03 743.66 483.26 C 743.28 484.36 743.02 485.50 743.01 486.68 L 742.74 488.25 C 742.33 489.35 742.05 490.49 742.04 491.68 L 741.85 493.07 C 741.24 493.87 740.96 494.77 741.03 495.78 C 740.79 497.90 740.49 500.05 739.73 502.06 C 739.14 502.86 738.87 503.77 738.91 504.77 C 738.19 508.91 736.98 512.97 735.63 516.95 C 735.45 517.45 735.10 518.44 734.93 518.94 C 734.28 522.68 732.85 526.23 731.67 529.83 C 730.82 532.24 730.00 534.66 729.09 537.05 L 728.70 537.94 C 728.49 538.43 728.07 539.40 727.87 539.88 C 719.92 561.72 709.35 582.68 696.65 602.15 C 695.61 603.51 694.70 604.97 693.89 606.48 C 693.65 606.86 693.17 607.63 692.93 608.01 C 692.62 608.44 692.01 609.30 691.70 609.73 C 691.51 610.07 691.12 610.75 690.93 611.09 C 689.64 613.04 688.30 614.97 686.92 616.86 C 686.66 617.16 686.13 617.77 685.86 618.07 C 685.55 618.49 684.92 619.34 684.60 619.76 C 683.32 622.04 681.77 624.21 679.87 626.02 C 679.57 626.45 678.96 627.32 678.66 627.75 C 678.45 628.06 678.03 628.69 677.82 629.00 C 676.53 630.63 675.22 632.23 673.92 633.84 C 673.66 634.15 673.14 634.76 672.89 635.07 C 671.54 636.61 670.25 638.20 668.91 639.75 C 668.63 640.07 668.06 640.71 667.77 641.03 C 665.43 643.53 663.25 646.17 660.99 648.73 C 654.71 655.31 648.25 661.70 641.73 668.03 C 639.22 670.33 636.58 672.49 634.08 674.80 C 633.75 675.10 633.09 675.69 632.76 675.99 C 631.19 677.34 629.61 678.66 628.05 680.01 C 627.74 680.27 627.13 680.78 626.82 681.04 C 625.24 682.33 623.66 683.60 622.04 684.83 C 621.68 685.07 620.97 685.54 620.62 685.78 C 619.59 686.29 618.69 686.99 617.94 687.85 C 617.61 688.10 616.93 688.62 616.60 688.88 C 615.58 689.40 614.66 690.06 613.92 690.92 C 613.64 691.17 613.07 691.67 612.78 691.92 C 610.91 693.32 608.98 694.64 607.07 695.98 C 576.15 717.73 541.58 734.30 505.17 744.49 C 504.57 744.62 503.37 744.86 502.77 744.98 C 501.76 744.97 500.87 745.29 500.11 745.94 L 498.83 746.08 C 497.81 746.00 496.91 746.28 496.12 746.91 L 494.87 747.07 C 493.86 746.98 492.95 747.23 492.13 747.81 C 490.35 748.40 488.51 748.76 486.66 748.98 C 485.48 749.01 484.35 749.33 483.27 749.75 L 481.69 750.04 C 480.50 750.08 479.36 750.39 478.25 750.79 L 476.69 751.03 C 475.51 751.04 474.37 751.32 473.26 751.71 C 472.63 751.80 471.35 751.98 470.71 752.08 C 469.53 752.05 468.39 752.30 467.28 752.67 C 464.12 753.42 460.87 753.81 457.63 754.01 C 456.46 753.95 455.32 754.16 454.22 754.49 C 423.21 758.29 391.59 757.74 360.76 752.66 C 359.65 752.28 358.50 752.04 357.34 752.07 C 356.69 751.97 355.41 751.79 354.77 751.69 C 353.66 751.30 352.52 751.03 351.35 751.02 L 349.73 750.76 C 348.61 750.37 347.47 750.07 346.29 750.02 L 344.76 749.74 C 343.65 749.34 342.50 749.05 341.32 749.04 L 339.91 748.82 C 339.09 748.21 338.18 747.96 337.18 748.06 L 335.84 747.91 C 335.04 747.26 334.14 746.98 333.13 747.06 L 331.89 746.92 C 331.10 746.28 330.21 745.97 329.21 746.00 C 315.19 742.81 301.55 737.98 288.20 732.65 C 270.70 725.50 253.87 716.81 237.68 707.07 C 237.26 706.78 236.42 706.21 236.00 705.93 C 235.56 705.63 234.69 705.03 234.26 704.73 C 233.92 704.55 233.26 704.20 232.92 704.02 C 230.29 702.38 227.70 700.69 225.15 698.93 C 224.86 698.69 224.29 698.20 224.00 697.95 C 223.54 697.69 222.61 697.18 222.15 696.92 C 221.85 696.67 221.25 696.16 220.95 695.91 C 220.51 695.61 219.64 695.01 219.21 694.71 C 218.93 694.50 218.36 694.08 218.07 693.87 C 217.29 693.03 216.38 692.35 215.39 691.83 C 215.06 691.59 214.41 691.10 214.09 690.86 C 213.31 690.02 212.43 689.32 211.42 688.82 C 207.32 686.14 203.69 682.81 199.84 679.80 C 197.96 678.22 196.08 676.65 194.23 675.03 C 193.91 674.74 193.26 674.16 192.93 673.87 C 190.75 671.85 188.47 669.95 186.25 667.98 C 177.20 659.20 168.17 650.39 160.01 640.76 C 158.41 638.88 156.85 636.97 155.24 635.10 C 153.49 633.02 151.79 630.89 150.11 628.77 C 148.84 627.11 147.58 625.45 146.32 623.79 C 144.60 621.47 142.85 619.17 141.16 616.83 C 139.79 614.89 138.44 612.95 137.10 611.01 C 125.43 593.91 115.29 575.79 106.94 556.85 C 106.05 554.84 105.18 552.82 104.32 550.80 C 102.90 547.17 101.12 543.65 100.18 539.86 C 99.94 539.39 99.46 538.45 99.22 537.98 L 98.79 536.99 C 98.67 536.47 98.45 535.44 98.34 534.93 C 96.51 530.71 94.97 526.31 93.99 521.82 C 93.75 521.36 93.26 520.42 93.01 519.96 L 93.06 518.92 C 92.86 518.43 92.45 517.47 92.24 516.98 L 92.11 515.83 C 92.16 514.83 91.90 513.92 91.33 513.11 C 89.44 507.47 87.95 501.65 87.03 495.77 C 87.06 494.76 86.76 493.86 86.13 493.08 L 85.91 491.84 C 86.08 490.84 85.91 489.91 85.41 489.05 C 85.32 488.50 85.13 487.40 85.04 486.85 C 85.16 485.85 84.96 484.93 84.43 484.09 C 84.31 483.24 84.06 481.54 83.93 480.68 C 83.96 479.50 83.68 478.36 83.31 477.27 C 83.22 476.63 83.03 475.34 82.93 474.70 C 82.95 473.52 82.71 472.38 82.38 471.27 C 77.38 438.11 77.45 404.13 82.49 370.98 C 82.94 370.08 83.08 369.15 82.90 368.18 C 82.99 367.57 83.18 366.34 83.28 365.73 C 83.67 364.63 83.97 363.50 83.99 362.34 C 84.50 358.16 85.30 354.01 86.34 349.93 C 86.86 349.07 87.05 348.14 86.93 347.15 L 87.09 345.89 C 87.71 345.08 87.99 344.18 87.92 343.18 L 88.10 341.85 C 88.72 341.05 89.00 340.15 88.94 339.15 L 89.09 337.85 C 89.72 337.06 90.00 336.16 89.94 335.15 L 90.09 333.84 C 90.77 333.09 91.12 332.21 91.13 331.21 C 91.76 327.41 92.86 323.69 94.29 320.13 C 94.46 319.63 94.80 318.62 94.97 318.12 C 96.73 311.99 98.86 305.92 101.37 300.05 C 101.56 299.57 101.96 298.59 102.16 298.10 C 109.04 279.95 117.93 262.51 128.21 246.05 C 128.49 245.60 129.05 244.71 129.33 244.26 C 137.39 230.70 147.02 218.08 157.02 205.89 C 158.34 204.31 159.66 202.74 161.01 201.21 C 173.02 187.46 186.14 174.68 200.19 163.03 C 201.76 161.71 203.35 160.42 204.94 159.12 C 205.25 158.87 205.89 158.37 206.21 158.12 C 207.86 156.86 209.52 155.60 211.17 154.34 C 213.51 152.59 215.83 150.82 218.19 149.10 C 220.08 147.74 221.96 146.37 223.91 145.09 C 224.25 144.88 224.95 144.48 225.29 144.28 C 225.71 143.97 226.56 143.33 226.98 143.02 C 227.27 142.81 227.86 142.38 228.15 142.17 C 228.61 141.91 229.52 141.39 229.98 141.13 C 230.31 140.87 230.96 140.36 231.29 140.10 C 233.45 138.67 235.65 137.28 237.89 135.98 C 238.24 135.81 238.93 135.46 239.27 135.29 C 239.71 134.99 240.57 134.38 241.00 134.08 C 241.30 133.89 241.89 133.50 242.18 133.31 C 257.93 124.22 274.20 116.02 291.12 109.33 C 296.09 107.43 301.02 105.37 306.16 103.99 C 306.64 103.75 307.58 103.29 308.06 103.05 L 309.02 102.86 C 309.53 102.73 310.55 102.46 311.06 102.33 C 318.31 99.83 325.72 97.58 333.25 96.09 C 334.25 96.10 335.14 95.81 335.94 95.19 L 337.32 94.98 C 338.50 94.94 339.64 94.64 340.75 94.23 L 342.15 93.93 C 343.14 94.05 344.06 93.85 344.92 93.33 C 347.33 92.61 349.83 92.19 352.34 91.97 C 353.51 91.97 354.63 91.67 355.73 91.27 C 356.38 91.18 357.68 91.00 358.33 90.92 C 359.49 90.92 360.64 90.66 361.75 90.31 M 384.61 198.56 C 376.72 201.93 372.71 210.87 372.81 219.08 C 372.68 224.87 375.58 230.21 375.60 235.97 C 375.69 237.82 373.56 238.47 372.31 239.31 C 365.90 242.44 359.87 246.84 356.17 253.06 C 351.16 261.60 351.06 271.85 350.63 281.45 C 342.80 273.53 335.65 264.99 328.24 256.69 C 325.05 253.24 322.46 249.24 318.92 246.13 C 313.26 241.24 303.63 241.11 298.75 247.19 C 295.83 246.63 292.71 245.61 289.79 246.74 C 286.28 247.90 283.85 251.37 283.78 255.06 C 282.57 270.40 281.01 285.71 279.97 301.06 C 279.64 310.05 278.34 319.07 279.27 328.07 C 280.33 334.79 283.09 341.08 285.52 347.40 C 290.93 360.85 296.55 374.23 302.80 387.31 C 305.32 392.76 309.91 396.92 314.98 399.98 C 323.40 405.04 332.60 408.58 341.58 412.50 C 367.20 423.40 392.00 436.32 415.12 451.87 C 445.96 430.64 480.22 415.08 514.71 400.83 C 520.74 398.26 526.09 393.56 528.25 387.23 C 531.24 378.28 534.88 369.57 538.84 361.02 C 542.37 353.22 547.18 345.97 549.51 337.67 C 552.66 327.40 551.70 316.54 551.49 305.97 C 550.94 290.99 550.99 276.00 550.42 261.04 C 550.36 256.83 548.68 252.27 544.74 250.25 C 541.72 248.47 538.24 250.11 535.03 250.09 C 531.69 248.57 528.82 245.73 524.94 245.69 C 517.60 244.77 511.53 249.88 506.80 254.82 C 498.95 262.78 490.88 270.50 483.01 278.43 C 485.90 266.75 483.02 253.37 474.02 245.04 C 471.99 242.81 468.66 241.32 468.21 238.04 C 465.85 226.27 457.32 216.71 447.60 210.19 C 440.84 205.25 431.23 208.20 425.74 213.71 C 420.93 218.39 420.22 225.73 421.78 231.97 C 422.88 239.13 426.97 246.44 434.07 249.02 C 436.12 249.98 437.85 247.06 436.68 245.45 C 434.82 242.93 432.27 240.74 431.59 237.52 C 430.33 232.85 429.44 226.36 434.80 223.91 C 437.87 224.99 441.15 226.07 443.27 228.72 C 449.79 236.15 452.98 245.74 458.13 254.06 C 460.99 258.60 467.28 259.49 469.75 264.39 C 472.55 269.80 472.76 276.12 472.80 282.09 C 472.24 294.44 471.12 306.76 469.62 319.03 C 469.58 320.86 467.78 321.71 466.45 322.56 C 456.77 328.02 446.81 332.95 436.91 337.99 C 432.44 340.18 428.21 342.89 423.48 344.53 C 423.58 340.97 423.43 336.82 426.18 334.13 C 429.31 331.30 433.84 332.23 437.69 332.04 C 437.51 323.72 437.35 315.39 437.25 307.07 C 437.35 301.46 434.04 296.69 430.38 292.77 C 436.75 288.45 442.10 282.86 447.22 277.16 C 449.00 274.97 451.01 272.74 451.69 269.92 C 452.75 265.37 447.34 261.18 443.17 263.06 C 439.72 264.31 436.40 265.88 432.92 267.02 C 431.01 261.35 429.12 255.68 427.45 249.93 C 426.82 247.73 425.86 245.32 423.58 244.38 C 418.79 241.91 413.28 243.64 408.23 242.81 C 407.92 242.35 407.30 241.45 406.99 240.99 C 409.27 237.98 412.81 236.05 414.65 232.70 C 415.53 229.51 415.32 226.15 415.61 222.89 C 415.90 217.40 416.75 211.79 415.46 206.36 C 414.45 202.07 411.09 198.47 406.87 197.18 C 399.62 194.91 391.57 195.67 384.61 198.56 M 267.07 488.10 C 259.43 491.28 252.49 497.60 250.91 506.00 C 249.34 513.66 251.77 522.15 257.85 527.23 C 266.65 534.79 278.51 536.84 288.27 542.72 C 292.26 544.94 295.40 549.33 294.78 554.06 C 294.36 557.93 292.76 562.70 288.37 563.47 C 280.66 565.18 272.22 564.71 265.14 561.01 C 263.78 556.29 262.50 551.54 261.74 546.69 C 257.83 546.61 253.92 546.68 250.02 546.97 C 249.91 553.40 249.86 559.82 249.88 566.24 C 258.19 571.68 268.24 573.63 278.03 574.02 C 287.76 574.27 298.26 572.36 305.75 565.71 C 314.58 557.76 314.74 542.13 305.74 534.26 C 297.82 527.19 287.18 524.75 278.03 519.81 C 274.32 517.73 270.54 515.05 268.94 510.94 C 267.25 506.43 267.69 500.60 270.88 496.89 C 277.93 493.06 287.55 493.03 294.16 497.80 C 295.87 502.71 296.12 508.00 297.03 513.10 C 300.59 513.31 304.15 513.36 307.72 513.32 C 308.67 507.83 309.93 502.39 310.82 496.89 C 311.59 493.98 309.46 491.15 306.84 490.11 C 294.67 484.05 279.73 482.85 267.07 488.10 M 343.98 487.93 C 336.50 490.93 329.77 496.84 327.64 504.84 C 325.47 512.59 327.86 521.50 333.96 526.85 C 342.30 534.29 353.60 536.60 363.24 541.79 C 367.08 543.94 371.16 547.32 371.18 552.13 C 371.36 556.64 369.85 562.73 364.58 563.53 C 357.11 564.97 348.65 564.98 341.94 560.95 C 339.78 556.50 339.29 551.43 338.10 546.66 C 334.31 546.63 330.52 546.69 326.74 546.95 C 326.59 553.34 325.71 559.93 326.73 566.23 C 330.85 569.50 336.08 571.01 341.11 572.32 C 351.61 574.60 362.89 574.99 373.10 571.21 C 379.96 568.64 386.22 563.26 388.11 555.97 C 390.46 548.31 388.08 539.35 382.00 534.07 C 372.95 526.03 360.31 524.25 350.61 517.29 C 346.11 514.25 343.41 508.51 344.72 503.13 C 345.23 500.63 345.80 497.54 348.36 496.33 C 355.40 493.01 363.91 493.58 370.65 497.40 C 371.97 502.53 372.83 507.76 373.36 513.04 C 376.92 513.31 380.48 513.37 384.05 513.35 C 385.26 507.91 386.44 502.45 387.23 496.94 C 387.78 494.90 386.59 493.10 385.86 491.31 C 373.21 484.49 357.49 482.45 343.98 487.93 M 420.93 487.73 C 412.93 490.79 405.59 497.25 403.90 505.97 C 402.18 513.62 404.77 522.16 410.83 527.24 C 419.43 534.62 430.94 536.78 440.60 542.30 C 444.48 544.44 447.99 548.29 447.73 553.00 C 447.59 557.07 446.20 562.45 441.56 563.37 C 433.81 565.21 425.25 564.76 418.12 561.01 C 416.72 556.30 415.49 551.53 414.69 546.68 C 410.80 546.62 406.90 546.68 403.02 546.97 C 402.84 553.41 402.91 559.85 402.87 566.29 C 412.37 572.33 423.93 574.22 435.03 574.00 C 443.88 573.58 453.33 571.30 459.67 564.68 C 467.83 556.38 467.22 541.18 458.16 533.75 C 450.69 527.39 440.96 524.92 432.37 520.54 C 428.80 518.67 425.19 516.46 422.95 513.01 C 420.26 508.93 420.47 503.51 422.31 499.14 C 423.34 495.97 427.08 495.37 429.89 494.70 C 435.65 493.54 442.34 494.10 447.10 497.82 C 448.85 502.72 449.07 508.01 450.01 513.10 C 453.56 513.31 457.11 513.36 460.67 513.33 C 461.62 507.82 462.91 502.37 463.79 496.85 C 464.61 493.95 462.38 491.18 459.82 490.11 C 447.92 484.21 433.42 482.91 420.93 487.73 M 476.77 486.90 C 476.15 495.12 476.11 503.39 476.79 511.61 C 480.47 512.01 484.18 512.10 487.89 512.04 C 489.11 506.75 490.33 501.45 491.41 496.13 C 496.55 495.68 501.70 495.24 506.86 495.29 C 506.79 517.60 507.45 539.93 505.88 562.20 C 502.27 563.36 498.63 564.45 495.01 565.58 C 495.51 567.70 495.93 569.84 496.35 571.99 C 508.88 572.01 521.41 571.99 533.94 572.00 C 534.40 569.93 534.95 567.88 535.18 565.77 C 531.61 563.73 525.28 563.91 524.42 558.92 C 523.33 548.66 523.73 538.30 523.66 527.99 C 523.70 517.08 523.56 506.18 523.74 495.27 C 528.86 495.22 533.98 495.62 539.09 496.08 C 540.23 501.17 541.39 506.27 542.30 511.41 C 545.81 511.86 549.35 511.99 552.88 511.69 C 553.31 504.81 554.43 497.98 554.60 491.09 C 554.30 489.10 552.73 487.58 551.80 485.87 C 526.83 487.64 501.78 486.66 476.77 486.90 M 562.43 487.17 C 561.87 489.14 561.54 491.17 561.10 493.17 C 564.67 494.57 569.25 494.98 571.64 498.30 C 572.84 503.78 572.70 509.44 572.89 515.02 C 572.81 530.76 573.29 546.53 571.92 562.24 C 568.37 563.35 564.81 564.44 561.22 565.38 C 561.59 567.56 561.97 569.76 562.35 571.96 C 586.26 572.06 610.17 571.97 634.08 572.00 C 634.31 563.96 634.33 555.92 634.08 547.88 C 630.42 547.65 626.75 547.64 623.09 547.65 C 621.65 552.52 621.02 557.62 619.25 562.39 C 610.02 563.42 600.34 564.30 591.28 561.72 C 590.66 559.55 590.17 557.33 590.10 555.08 C 589.94 548.25 589.48 541.43 589.68 534.59 C 598.79 535.18 607.93 535.11 617.05 535.36 C 617.62 532.60 618.12 529.83 618.61 527.07 C 618.17 526.47 617.29 525.27 616.84 524.67 C 607.79 524.72 598.75 525.35 589.71 525.73 C 589.48 517.46 590.15 509.20 590.15 500.93 C 590.47 499.31 589.67 496.31 592.06 496.09 C 600.52 494.58 609.13 495.60 617.62 496.27 C 618.67 501.07 619.33 505.96 620.43 510.75 C 623.83 511.31 627.30 511.10 630.74 511.10 C 631.59 504.68 633.01 498.36 633.94 491.96 C 634.48 489.49 632.20 487.77 631.09 485.85 C 608.25 487.75 585.29 486.29 562.43 487.17 M 197.95 486.89 C 197.45 488.98 196.98 491.08 196.54 493.19 C 199.91 494.38 203.64 495.07 206.51 497.34 C 207.91 499.98 207.84 503.07 207.97 505.99 C 207.93 517.99 208.85 530.01 208.07 542.01 C 207.90 548.76 208.11 555.53 207.43 562.26 C 203.84 563.35 200.17 564.23 196.69 565.64 C 196.92 567.78 197.42 569.89 197.92 572.00 C 210.46 571.97 223.00 572.06 235.54 571.95 C 235.95 569.81 236.37 567.67 236.81 565.54 C 232.85 563.95 225.96 563.68 225.85 558.09 C 224.86 550.78 225.15 543.39 225.11 536.05 C 225.18 522.85 224.74 509.61 226.08 496.46 C 229.66 495.48 233.20 494.36 236.76 493.31 C 236.37 491.20 235.99 489.09 235.61 486.98 C 223.06 486.78 210.50 486.94 197.95 486.89 Z" />
<path fill="#ffffff" opacity="1.00" d=" M 394.53 211.10 C 397.57 211.10 400.92 210.61 403.59 212.43 C 407.21 214.53 408.48 218.99 408.59 222.92 C 408.14 229.89 403.09 235.24 398.34 239.83 C 399.17 241.28 400.11 242.70 400.79 244.25 C 399.15 248.41 396.10 252.23 396.59 256.98 C 396.19 262.03 399.37 266.10 401.74 270.21 C 401.44 272.34 400.09 274.15 399.22 276.08 C 395.34 283.68 392.49 292.57 395.03 301.05 C 396.16 305.01 398.51 309.66 403.03 310.31 C 406.44 310.91 408.86 307.91 411.80 306.85 C 413.87 306.91 415.40 308.87 417.56 308.71 C 420.02 306.62 419.85 302.30 423.06 300.92 C 427.36 301.79 432.29 306.04 430.77 310.88 C 430.06 315.55 430.32 320.29 430.22 325.01 C 426.50 325.17 422.77 325.36 419.07 325.82 C 418.03 329.12 417.53 332.54 416.87 335.92 C 416.53 337.85 414.43 339.88 412.44 338.66 C 410.93 334.45 410.50 329.48 412.30 325.30 C 414.61 320.74 420.08 319.78 423.95 317.06 C 426.21 314.37 426.16 310.39 424.58 307.37 C 423.39 309.27 422.47 311.36 421.11 313.15 C 416.35 316.85 408.34 315.29 405.06 321.08 C 402.45 327.02 402.42 334.20 404.73 340.23 C 408.56 345.28 415.17 346.85 420.45 349.95 C 418.74 351.27 417.02 352.58 415.31 353.89 C 407.52 346.13 398.95 338.93 388.95 334.19 C 382.37 330.79 375.13 328.90 368.64 325.32 C 365.09 323.41 361.76 320.18 361.68 315.88 C 360.70 301.59 359.74 287.05 362.31 272.86 C 363.67 264.86 367.82 257.26 374.44 252.45 C 378.05 249.39 383.11 247.92 385.72 243.81 C 387.43 238.22 385.17 232.40 383.72 227.00 C 389.52 223.64 394.30 218.08 394.53 211.10 Z" />
<path fill="#ffffff" opacity="1.00" d=" M 418.85 254.73 C 420.13 255.17 421.61 255.27 422.70 256.14 C 423.61 258.27 423.99 260.56 424.52 262.80 C 422.81 265.17 420.08 267.67 421.15 270.91 C 422.22 272.98 424.72 273.60 426.86 273.84 C 431.43 274.47 435.92 273.10 440.32 272.07 C 437.89 276.52 434.80 282.13 429.09 282.46 C 425.85 282.86 421.31 282.17 419.69 285.81 C 418.62 290.35 419.95 295.13 418.91 299.70 C 414.45 300.21 409.85 300.36 405.45 299.38 C 401.55 298.24 400.70 293.49 400.52 290.00 C 401.34 279.93 412.62 273.54 411.65 262.99 C 413.62 261.99 416.19 261.53 417.37 259.47 C 418.02 257.94 418.38 256.32 418.85 254.73 Z" />
<path fill="#ffffff" opacity="1.00" d=" M 312.77 268.71 C 314.52 268.47 316.66 267.39 318.19 268.80 C 319.82 270.27 319.81 272.72 320.42 274.71 C 322.13 283.48 324.39 292.16 325.78 300.98 C 326.57 303.66 324.63 305.66 323.04 307.50 C 320.55 306.64 317.98 305.19 317.79 302.24 C 315.93 291.10 314.21 279.91 312.77 268.71 Z" />
<path fill="#ffffff" opacity="1.00" d=" M 526.83 277.08 C 527.20 273.08 529.47 269.50 533.08 267.68 C 534.68 269.10 536.58 270.63 536.62 272.98 C 537.42 284.62 536.60 296.32 537.30 307.97 C 537.45 314.98 538.71 322.14 536.89 329.03 C 535.59 334.50 532.82 339.45 530.52 344.54 C 526.15 353.81 522.38 363.39 517.53 372.44 C 515.44 376.51 512.21 379.98 508.20 382.21 C 488.22 393.10 466.94 401.34 446.61 411.53 C 435.80 416.75 425.70 423.27 415.75 429.94 C 413.22 429.15 411.21 427.26 409.00 425.87 C 382.85 408.00 352.39 398.23 324.65 383.28 C 320.12 381.11 316.21 377.64 313.79 373.21 C 308.77 364.20 305.10 354.55 300.65 345.27 C 298.12 339.63 294.83 334.19 293.81 328.01 C 292.73 322.72 294.09 317.39 294.58 312.12 C 295.63 301.11 296.01 290.05 296.35 279.00 C 296.48 275.18 297.18 269.87 301.74 269.01 C 304.43 270.19 305.54 273.15 305.81 275.88 C 307.73 291.64 309.42 307.44 312.09 323.09 C 313.33 330.67 315.64 338.34 320.72 344.27 C 325.68 350.48 332.37 354.94 339.35 358.60 C 344.63 361.43 349.89 364.89 355.96 365.66 C 358.91 366.26 361.73 363.88 362.00 360.97 C 361.79 358.37 359.46 356.79 357.47 355.51 C 349.37 350.60 340.82 346.39 333.17 340.78 C 327.12 336.61 324.51 328.62 325.71 321.54 C 329.95 321.68 333.85 323.38 337.48 325.45 C 356.61 335.46 376.87 343.37 395.21 354.85 C 407.85 364.29 413.14 380.53 415.22 395.58 L 415.80 395.58 C 416.73 386.52 419.48 377.67 423.55 369.54 C 426.97 362.67 432.22 356.66 438.89 352.79 C 457.58 342.01 477.58 333.75 496.69 323.78 C 499.30 322.28 502.30 321.82 505.26 321.53 C 505.99 327.67 504.54 334.49 499.88 338.83 C 495.00 343.57 488.67 346.34 482.98 349.95 C 478.71 352.72 473.73 354.53 470.10 358.18 C 467.40 360.62 469.87 365.23 473.09 365.62 C 476.34 365.98 479.47 364.68 482.40 363.41 C 487.54 361.01 492.43 358.09 497.34 355.24 C 507.06 349.50 515.14 340.22 517.56 328.99 C 521.33 311.82 524.45 294.49 526.83 277.08 Z" />
<path fill="#ffffff" opacity="1.00" d=" M 513.26 269.27 C 514.51 268.91 515.78 268.75 517.10 268.80 C 517.78 271.22 517.14 273.70 516.80 276.12 C 515.32 284.39 514.09 292.71 512.53 300.97 C 512.15 303.41 510.74 306.15 507.96 306.32 C 505.27 305.95 506.02 302.81 506.20 300.92 C 507.52 292.59 509.36 284.35 510.87 276.06 C 511.37 273.72 511.63 271.14 513.26 269.27 Z" />
<path fill="#ffffff" opacity="1.00" d=" M 330.18 284.33 C 333.11 283.15 334.86 286.46 334.88 288.92 C 335.50 295.34 337.21 301.61 337.91 308.00 C 337.72 311.10 333.13 309.46 332.77 307.18 C 331.43 301.91 331.16 296.41 330.06 291.08 C 329.91 288.86 328.73 286.34 330.18 284.33 Z" />
<path fill="#ffffff" opacity="1.00" d=" M 493.75 298.84 C 494.84 293.21 494.50 286.68 499.15 282.50 C 500.36 284.81 500.77 287.41 500.37 289.98 C 499.74 295.28 500.10 300.70 499.00 305.95 C 498.65 308.21 496.45 309.31 494.88 310.67 C 491.51 307.49 493.25 302.78 493.75 298.84 Z" />
<path fill="#ffffff" opacity="1.00" d=" M 344.19 295.73 C 345.89 296.22 347.99 296.64 348.25 298.78 C 349.54 303.82 350.67 308.94 351.29 314.12 C 350.46 316.61 346.96 316.35 346.36 313.88 C 344.83 308.00 343.26 301.84 344.19 295.73 Z" />
<path fill="#ffffff" opacity="1.00" d=" M 484.11 296.16 C 484.60 296.11 485.59 296.00 486.08 295.95 C 486.22 301.92 486.06 308.01 484.96 313.89 C 484.69 316.34 481.24 316.85 480.24 314.66 C 478.66 310.48 480.58 306.04 481.24 301.85 C 481.85 299.86 481.89 297.09 484.11 296.16 Z" />
</g>
<g id="#ca9656ff">
<path fill="#ca9656" opacity="1.00" d=" M 358.33 90.92 C 357.84 88.96 361.19 88.66 361.75 90.31 C 360.64 90.66 359.49 90.92 358.33 90.92 Z" />
<path fill="#ca9656" opacity="1.00" d=" M 466.29 90.31 C 466.82 88.65 470.15 88.97 469.71 90.92 C 468.53 90.93 467.39 90.67 466.29 90.31 Z" />
<path fill="#ca9656" opacity="1.00" d=" M 352.34 91.97 C 351.84 90.05 355.15 89.63 355.73 91.27 C 354.63 91.67 353.51 91.97 352.34 91.97 Z" />
<path fill="#ca9656" opacity="1.00" d=" M 472.28 91.26 C 472.85 89.60 476.15 90.04 475.68 91.96 C 474.50 91.95 473.37 91.64 472.28 91.26 Z" />
<path fill="#ca9656" opacity="1.00" d=" M 342.15 93.93 C 342.69 92.19 343.61 91.99 344.92 93.33 C 344.06 93.85 343.14 94.05 342.15 93.93 Z" />
<path fill="#ca9656" opacity="1.00" d=" M 337.32 94.98 C 336.84 93.07 340.12 92.59 340.75 94.23 C 339.64 94.64 338.50 94.94 337.32 94.98 Z" />
<path fill="#ca9656" opacity="1.00" d=" M 487.25 94.26 C 487.84 92.62 491.15 93.07 490.66 94.99 C 489.48 94.95 488.34 94.67 487.25 94.26 Z" />
<path fill="#ca9656" opacity="1.00" d=" M 333.25 96.09 C 333.62 94.30 334.52 94.00 335.94 95.19 C 335.14 95.81 334.25 96.10 333.25 96.09 Z" />
<path fill="#ca9656" opacity="1.00" d=" M 492.03 95.21 C 493.38 93.95 494.29 94.19 494.78 95.95 C 493.77 96.03 492.85 95.79 492.03 95.21 Z" />
<path fill="#ca9656" opacity="1.00" d=" M 496.06 96.16 C 497.48 95.00 498.37 95.31 498.74 97.09 C 497.73 97.11 496.83 96.80 496.06 96.16 Z" />
<path fill="#ca9656" opacity="1.00" d=" M 309.31 101.98 L 310.36 101.71 L 311.06 102.33 C 310.55 102.46 309.53 102.73 309.02 102.86 L 309.31 101.98 Z" />
<path fill="#ca9656" opacity="1.00" d=" M 516.92 102.31 L 517.61 101.69 L 518.67 101.95 L 518.98 102.82 C 518.46 102.69 517.44 102.44 516.92 102.31 Z" />
<path fill="#ca9656" opacity="1.00" d=" M 306.29 103.07 L 307.27 102.59 L 308.06 103.05 C 307.58 103.29 306.64 103.75 306.16 103.99 L 306.29 103.07 Z" />
<path fill="#ca9656" opacity="1.00" d=" M 520.00 103.13 L 520.77 102.63 L 521.77 103.06 L 521.95 103.96 C 521.46 103.75 520.49 103.34 520.00 103.13 Z" />
<path fill="#ca9656" opacity="1.00" d=" M 522.96 104.01 L 523.76 103.57 L 524.72 104.08 L 524.82 104.99 C 524.36 104.75 523.43 104.26 522.96 104.01 Z" />
<path fill="#ca9656" opacity="1.00" d=" M 266.82 119.98 C 274.71 115.98 282.79 112.32 291.12 109.33 C 274.20 116.02 257.93 124.22 242.18 133.31 C 250.03 128.23 258.47 124.17 266.82 119.98 Z" />
<path fill="#ca9656" opacity="1.00" d=" M 239.25 134.36 L 240.14 133.74 L 241.00 134.08 C 240.57 134.38 239.71 134.99 239.27 135.29 L 239.25 134.36 Z" />
<path fill="#ca9656" opacity="1.00" d=" M 231.29 140.10 C 233.42 138.61 235.62 137.24 237.89 135.98 C 235.65 137.28 233.45 138.67 231.29 140.10 Z" />
<path fill="#ca9656" opacity="1.00" d=" M 228.21 141.26 L 229.16 140.72 L 229.98 141.13 C 229.52 141.39 228.61 141.91 228.15 142.17 L 228.21 141.26 Z" />
<path fill="#ca9656" opacity="1.00" d=" M 597.97 141.14 L 598.78 140.69 L 599.75 141.18 L 599.86 142.09 C 599.39 141.86 598.44 141.38 597.97 141.14 Z" />
<path fill="#ca9656" opacity="1.00" d=" M 225.24 143.36 L 226.11 142.71 L 226.98 143.02 C 226.56 143.33 225.71 143.97 225.29 144.28 L 225.24 143.36 Z" />
<path fill="#ca9656" opacity="1.00" d=" M 601.01 143.04 L 601.88 142.72 L 602.76 143.36 L 602.72 144.30 C 602.29 143.98 601.44 143.36 601.01 143.04 Z" />
<path fill="#ca9656" opacity="1.00" d=" M 218.19 149.10 C 219.97 147.59 221.89 146.26 223.91 145.09 C 221.96 146.37 220.08 147.74 218.19 149.10 Z" />
<path fill="#ca9656" opacity="1.00" d=" M 206.21 158.12 C 207.82 156.81 209.49 155.56 211.17 154.34 C 209.52 155.60 207.86 156.86 206.21 158.12 Z" />
<path fill="#ca9656" opacity="1.00" d=" M 618.93 156.08 C 620.11 154.59 622.70 156.64 621.57 158.15 C 620.57 157.62 619.65 156.94 618.93 156.08 Z" />
<path fill="#ca9656" opacity="1.00" d=" M 200.19 163.03 C 201.71 161.65 203.29 160.35 204.94 159.12 C 203.35 160.42 201.76 161.71 200.19 163.03 Z" />
<path fill="#ca9656" opacity="1.00" d=" M 626.98 162.29 C 629.42 163.97 631.72 165.87 633.76 168.03 C 631.51 166.10 629.20 164.24 626.98 162.29 Z" />
<path fill="#ca9656" opacity="1.00" d=" M 384.61 198.56 C 391.57 195.67 399.62 194.91 406.87 197.18 C 411.09 198.47 414.45 202.07 415.46 206.36 C 416.75 211.79 415.90 217.40 415.61 222.89 C 415.32 226.15 415.53 229.51 414.65 232.70 C 412.81 236.05 409.27 237.98 406.99 240.99 C 407.30 241.45 407.92 242.35 408.23 242.81 C 413.28 243.64 418.79 241.91 423.58 244.38 C 425.86 245.32 426.82 247.73 427.45 249.93 C 429.12 255.68 431.01 261.35 432.92 267.02 C 436.40 265.88 439.72 264.31 443.17 263.06 C 447.34 261.18 452.75 265.37 451.69 269.92 C 451.01 272.74 449.00 274.97 447.22 277.16 C 442.10 282.86 436.75 288.45 430.38 292.77 C 434.04 296.69 437.35 301.46 437.25 307.07 C 437.35 315.39 437.51 323.72 437.69 332.04 C 433.84 332.23 429.31 331.30 426.18 334.13 C 423.43 336.82 423.58 340.97 423.48 344.53 C 428.21 342.89 432.44 340.18 436.91 337.99 C 446.81 332.95 456.77 328.02 466.45 322.56 C 467.78 321.71 469.58 320.86 469.62 319.03 C 471.12 306.76 472.24 294.44 472.80 282.09 C 472.76 276.12 472.55 269.80 469.75 264.39 C 467.28 259.49 460.99 258.60 458.13 254.06 C 452.98 245.74 449.79 236.15 443.27 228.72 C 441.15 226.07 437.87 224.99 434.80 223.91 C 429.44 226.36 430.33 232.85 431.59 237.52 C 432.27 240.74 434.82 242.93 436.68 245.45 C 437.85 247.06 436.12 249.98 434.07 249.02 C 426.97 246.44 422.88 239.13 421.78 231.97 C 420.22 225.73 420.93 218.39 425.74 213.71 C 431.23 208.20 440.84 205.25 447.60 210.19 C 457.32 216.71 465.85 226.27 468.21 238.04 C 468.66 241.32 471.99 242.81 474.02 245.04 C 483.02 253.37 485.90 266.75 483.01 278.43 C 490.88 270.50 498.95 262.78 506.80 254.82 C 511.53 249.88 517.60 244.77 524.94 245.69 C 528.82 245.73 531.69 248.57 535.03 250.09 C 538.24 250.11 541.72 248.47 544.74 250.25 C 548.68 252.27 550.36 256.83 550.42 261.04 C 550.99 276.00 550.94 290.99 551.49 305.97 C 551.70 316.54 552.66 327.40 549.51 337.67 C 547.18 345.97 542.37 353.22 538.84 361.02 C 534.88 369.57 531.24 378.28 528.25 387.23 C 526.09 393.56 520.74 398.26 514.71 400.83 C 480.22 415.08 445.96 430.64 415.12 451.87 C 392.00 436.32 367.20 423.40 341.58 412.50 C 332.60 408.58 323.40 405.04 314.98 399.98 C 309.91 396.92 305.32 392.76 302.80 387.31 C 296.55 374.23 290.93 360.85 285.52 347.40 C 283.09 341.08 280.33 334.79 279.27 328.07 C 278.34 319.07 279.64 310.05 279.97 301.06 C 281.01 285.71 282.57 270.40 283.78 255.06 C 283.85 251.37 286.28 247.90 289.79 246.74 C 292.71 245.61 295.83 246.63 298.75 247.19 C 303.63 241.11 313.26 241.24 318.92 246.13 C 322.46 249.24 325.05 253.24 328.24 256.69 C 335.65 264.99 342.80 273.53 350.63 281.45 C 351.06 271.85 351.16 261.60 356.17 253.06 C 359.87 246.84 365.90 242.44 372.31 239.31 C 373.56 238.47 375.69 237.82 375.60 235.97 C 375.58 230.21 372.68 224.87 372.81 219.08 C 372.71 210.87 376.72 201.93 384.61 198.56 M 394.53 211.10 C 394.30 218.08 389.52 223.64 383.72 227.00 C 385.17 232.40 387.43 238.22 385.72 243.81 C 383.11 247.92 378.05 249.39 374.44 252.45 C 367.82 257.26 363.67 264.86 362.31 272.86 C 359.74 287.05 360.70 301.59 361.68 315.88 C 361.76 320.18 365.09 323.41 368.64 325.32 C 375.13 328.90 382.37 330.79 388.95 334.19 C 398.95 338.93 407.52 346.13 415.31 353.89 C 417.02 352.58 418.74 351.27 420.45 349.95 C 415.17 346.85 408.56 345.28 404.73 340.23 C 402.42 334.20 402.45 327.02 405.06 321.08 C 408.34 315.29 416.35 316.85 421.11 313.15 C 422.47 311.36 423.39 309.27 424.58 307.37 C 426.16 310.39 426.21 314.37 423.95 317.06 C 420.08 319.78 414.61 320.74 412.30 325.30 C 410.50 329.48 410.93 334.45 412.44 338.66 C 414.43 339.88 416.53 337.85 416.87 335.92 C 417.53 332.54 418.03 329.12 419.07 325.82 C 422.77 325.36 426.50 325.17 430.22 325.01 C 430.32 320.29 430.06 315.55 430.77 310.88 C 432.29 306.04 427.36 301.79 423.06 300.92 C 419.85 302.30 420.02 306.62 417.56 308.71 C 415.40 308.87 413.87 306.91 411.80 306.85 C 408.86 307.91 406.44 310.91 403.03 310.31 C 398.51 309.66 396.16 305.01 395.03 301.05 C 392.49 292.57 395.34 283.68 399.22 276.08 C 400.09 274.15 401.44 272.34 401.74 270.21 C 399.37 266.10 396.19 262.03 396.59 256.98 C 396.10 252.23 399.15 248.41 400.79 244.25 C 400.11 242.70 399.17 241.28 398.34 239.83 C 403.09 235.24 408.14 229.89 408.59 222.92 C 408.48 218.99 407.21 214.53 403.59 212.43 C 400.92 210.61 397.57 211.10 394.53 211.10 M 418.85 254.73 C 418.38 256.32 418.02 257.94 417.37 259.47 C 416.19 261.53 413.62 261.99 411.65 262.99 C 412.62 273.54 401.34 279.93 400.52 290.00 C 400.70 293.49 401.55 298.24 405.45 299.38 C 409.85 300.36 414.45 300.21 418.91 299.70 C 419.95 295.13 418.62 290.35 419.69 285.81 C 421.31 282.17 425.85 282.86 429.09 282.46 C 434.80 282.13 437.89 276.52 440.32 272.07 C 435.92 273.10 431.43 274.47 426.86 273.84 C 424.72 273.60 422.22 272.98 421.15 270.91 C 420.08 267.67 422.81 265.17 424.52 262.80 C 423.99 260.56 423.61 258.27 422.70 256.14 C 421.61 255.27 420.13 255.17 418.85 254.73 M 312.77 268.71 C 314.21 279.91 315.93 291.10 317.79 302.24 C 317.98 305.19 320.55 306.64 323.04 307.50 C 324.63 305.66 326.57 303.66 325.78 300.98 C 324.39 292.16 322.13 283.48 320.42 274.71 C 319.81 272.72 319.82 270.27 318.19 268.80 C 316.66 267.39 314.52 268.47 312.77 268.71 M 526.83 277.08 C 524.45 294.49 521.33 311.82 517.56 328.99 C 515.14 340.22 507.06 349.50 497.34 355.24 C 492.43 358.09 487.54 361.01 482.40 363.41 C 479.47 364.68 476.34 365.98 473.09 365.62 C 469.87 365.23 467.40 360.62 470.10 358.18 C 473.73 354.53 478.71 352.72 482.98 349.95 C 488.67 346.34 495.00 343.57 499.88 338.83 C 504.54 334.49 505.99 327.67 505.26 321.53 C 502.30 321.82 499.30 322.28 496.69 323.78 C 477.58 333.75 457.58 342.01 438.89 352.79 C 432.22 356.66 426.97 362.67 423.55 369.54 C 419.48 377.67 416.73 386.52 415.80 395.58 L 415.22 395.58 C 413.14 380.53 407.85 364.29 395.21 354.85 C 376.87 343.37 356.61 335.46 337.48 325.45 C 333.85 323.38 329.95 321.68 325.71 321.54 C 324.51 328.62 327.12 336.61 333.17 340.78 C 340.82 346.39 349.37 350.60 357.47 355.51 C 359.46 356.79 361.79 358.37 362.00 360.97 C 361.73 363.88 358.91 366.26 355.96 365.66 C 349.89 364.89 344.63 361.43 339.35 358.60 C 332.37 354.94 325.68 350.48 320.72 344.27 C 315.64 338.34 313.33 330.67 312.09 323.09 C 309.42 307.44 307.73 291.64 305.81 275.88 C 305.54 273.15 304.43 270.19 301.74 269.01 C 297.18 269.87 296.48 275.18 296.35 279.00 C 296.01 290.05 295.63 301.11 294.58 312.12 C 294.09 317.39 292.73 322.72 293.81 328.01 C 294.83 334.19 298.12 339.63 300.65 345.27 C 305.10 354.55 308.77 364.20 313.79 373.21 C 316.21 377.64 320.12 381.11 324.65 383.28 C 352.39 398.23 382.85 408.00 409.00 425.87 C 411.21 427.26 413.22 429.15 415.75 429.94 C 425.70 423.27 435.80 416.75 446.61 411.53 C 466.94 401.34 488.22 393.10 508.20 382.21 C 512.21 379.98 515.44 376.51 517.53 372.44 C 522.38 363.39 526.15 353.81 530.52 344.54 C 532.82 339.45 535.59 334.50 536.89 329.03 C 538.71 322.14 537.45 314.98 537.30 307.97 C 536.60 296.32 537.42 284.62 536.62 272.98 C 536.58 270.63 534.68 269.10 533.08 267.68 C 529.47 269.50 527.20 273.08 526.83 277.08 M 513.26 269.27 C 511.63 271.14 511.37 273.72 510.87 276.06 C 509.36 284.35 507.52 292.59 506.20 300.92 C 506.02 302.81 505.27 305.95 507.96 306.32 C 510.74 306.15 512.15 303.41 512.53 300.97 C 514.09 292.71 515.32 284.39 516.80 276.12 C 517.14 273.70 517.78 271.22 517.10 268.80 C 515.78 268.75 514.51 268.91 513.26 269.27 M 330.18 284.33 C 328.73 286.34 329.91 288.86 330.06 291.08 C 331.16 296.41 331.43 301.91 332.77 307.18 C 333.13 309.46 337.72 311.10 337.91 308.00 C 337.21 301.61 335.50 295.34 334.88 288.92 C 334.86 286.46 333.11 283.15 330.18 284.33 M 493.75 298.84 C 493.25 302.78 491.51 307.49 494.88 310.67 C 496.45 309.31 498.65 308.21 499.00 305.95 C 500.10 300.70 499.74 295.28 500.37 289.98 C 500.77 287.41 500.36 284.81 499.15 282.50 C 494.50 286.68 494.84 293.21 493.75 298.84 M 344.19 295.73 C 343.26 301.84 344.83 308.00 346.36 313.88 C 346.96 316.35 350.46 316.61 351.29 314.12 C 350.67 308.94 349.54 303.82 348.25 298.78 C 347.99 296.64 345.89 296.22 344.19 295.73 M 484.11 296.16 C 481.89 297.09 481.85 299.86 481.24 301.85 C 480.58 306.04 478.66 310.48 480.24 314.66 C 481.24 316.85 484.69 316.34 484.96 313.89 C 486.06 308.01 486.22 301.92 486.08 295.95 C 485.59 296.00 484.60 296.11 484.11 296.16 Z" />
<path fill="#ca9656" opacity="1.00" d=" M 157.02 205.89 C 158.19 204.20 159.52 202.62 161.01 201.21 C 159.66 202.74 158.34 204.31 157.02 205.89 Z" />
<path fill="#ca9656" opacity="1.00" d=" M 667.04 201.22 C 668.51 202.70 669.84 204.30 671.12 205.95 C 669.77 204.36 668.42 202.77 667.04 201.22 Z" />
<path fill="#ca9656" opacity="1.00" d=" M 672.11 207.15 C 673.51 208.65 674.79 210.26 675.97 211.94 C 674.67 210.35 673.40 208.74 672.11 207.15 Z" />
<path fill="#ca9656" opacity="1.00" d=" M 680.84 218.42 C 682.35 217.28 684.40 219.90 682.89 221.08 C 682.05 220.31 681.35 219.42 680.84 218.42 Z" />
<path fill="#ca9656" opacity="1.00" d=" M 683.89 222.39 C 685.44 221.29 687.40 223.98 685.86 225.12 C 685.04 224.33 684.40 223.39 683.89 222.39 Z" />
<path fill="#ca9656" opacity="1.00" d=" M 128.40 244.28 L 129.33 244.26 C 129.05 244.71 128.49 245.60 128.21 246.05 L 127.82 245.20 L 128.40 244.28 Z" />
<path fill="#ca9656" opacity="1.00" d=" M 723.99 292.99 C 725.42 295.97 726.67 299.04 727.65 302.20 C 726.44 299.12 725.22 296.06 723.99 292.99 Z" />
<path fill="#ca9656" opacity="1.00" d=" M 101.25 298.28 L 102.16 298.10 C 101.96 298.59 101.56 299.57 101.37 300.05 L 100.84 299.29 L 101.25 298.28 Z" />
<path fill="#ca9656" opacity="1.00" d=" M 94.06 318.36 L 94.97 318.12 C 94.80 318.62 94.46 319.63 94.29 320.13 L 93.72 319.40 L 94.06 318.36 Z" />
<path fill="#ca9656" opacity="1.00" d=" M 734.07 321.13 L 734.97 321.37 L 735.31 322.40 L 734.74 323.14 C 734.57 322.63 734.24 321.63 734.07 321.13 Z" />
<path fill="#ca9656" opacity="1.00" d=" M 90.09 333.84 C 88.99 332.35 89.34 331.47 91.13 331.21 C 91.12 332.21 90.77 333.09 90.09 333.84 Z" />
<path fill="#ca9656" opacity="1.00" d=" M 89.09 337.85 C 87.90 336.44 88.18 335.54 89.94 335.15 C 90.00 336.16 89.72 337.06 89.09 337.85 Z" />
<path fill="#ca9656" opacity="1.00" d=" M 88.10 341.85 C 86.90 340.45 87.18 339.54 88.94 339.15 C 89.00 340.15 88.72 341.05 88.10 341.85 Z" />
<path fill="#ca9656" opacity="1.00" d=" M 87.09 345.89 C 85.89 344.49 86.16 343.59 87.92 343.18 C 87.99 344.18 87.71 345.08 87.09 345.89 Z" />
<path fill="#ca9656" opacity="1.00" d=" M 86.34 349.93 C 85.00 348.62 85.19 347.70 86.93 347.15 C 87.05 348.14 86.86 349.07 86.34 349.93 Z" />
<path fill="#ca9656" opacity="1.00" d=" M 740.99 347.22 C 742.75 347.61 743.04 348.51 741.85 349.92 C 741.22 349.12 740.93 348.22 740.99 347.22 Z" />
<path fill="#ca9656" opacity="1.00" d=" M 742.03 351.32 C 743.93 350.89 744.34 354.18 742.69 354.75 C 742.29 353.64 742.02 352.49 742.03 351.32 Z" />
<path fill="#ca9656" opacity="1.00" d=" M 743.00 356.33 C 744.92 355.85 745.35 359.17 743.69 359.74 C 743.30 358.63 743.03 357.49 743.00 356.33 Z" />
<path fill="#ca9656" opacity="1.00" d=" M 83.28 365.73 C 81.63 365.14 82.07 361.84 83.99 362.34 C 83.97 363.50 83.67 364.63 83.28 365.73 Z" />
<path fill="#ca9656" opacity="1.00" d=" M 744.07 362.29 C 745.99 361.82 746.38 365.13 744.74 365.71 C 744.35 364.60 744.06 363.46 744.07 362.29 Z" />
<path fill="#ca9656" opacity="1.00" d=" M 82.49 370.98 C 81.06 369.76 81.20 368.83 82.90 368.18 C 83.08 369.15 82.94 370.08 82.49 370.98 Z" />
<path fill="#ca9656" opacity="1.00" d=" M 745.07 368.32 C 747.00 367.90 747.32 371.21 745.66 371.74 C 745.28 370.63 745.03 369.48 745.07 368.32 Z" />
<path fill="#ca9656" opacity="1.00" d=" M 82.38 471.27 C 82.71 472.38 82.95 473.52 82.93 474.70 C 80.98 475.11 80.69 471.77 82.38 471.27 Z" />
<path fill="#ca9656" opacity="1.00" d=" M 83.31 477.27 C 83.68 478.36 83.96 479.50 83.93 480.68 C 82.01 481.11 81.65 477.80 83.31 477.27 Z" />
<path fill="#ca9656" opacity="1.00" d=" M 743.01 486.68 C 743.02 485.50 743.28 484.36 743.66 483.26 C 745.33 483.80 744.93 487.12 743.01 486.68 Z" />
<path fill="#ca9656" opacity="1.00" d=" M 84.43 484.09 C 84.96 484.93 85.16 485.85 85.04 486.85 C 83.30 486.29 83.10 485.37 84.43 484.09 Z" />
<path fill="#ca9656" opacity="1.00" d=" M 742.04 491.68 C 742.05 490.49 742.33 489.35 742.74 488.25 C 744.37 488.83 743.95 492.12 742.04 491.68 Z" />
<path fill="#ca9656" opacity="1.00" d=" M 85.41 489.05 C 85.91 489.91 86.08 490.84 85.91 491.84 C 84.20 491.22 84.03 490.28 85.41 489.05 Z" />
<path fill="#ca9656" opacity="1.00" d=" M 86.13 493.08 C 86.76 493.86 87.06 494.76 87.03 495.77 C 85.26 495.39 84.95 494.50 86.13 493.08 Z" />
<path fill="#ca9656" opacity="1.00" d=" M 741.03 495.78 C 740.96 494.77 741.24 493.87 741.85 493.07 C 743.06 494.46 742.79 495.36 741.03 495.78 Z" />
<path fill="#ca9656" opacity="1.00" d=" M 738.91 504.77 C 738.87 503.77 739.14 502.86 739.73 502.06 C 740.96 503.44 740.69 504.34 738.91 504.77 Z" />
<path fill="#ca9656" opacity="1.00" d=" M 91.33 513.11 C 91.90 513.92 92.16 514.83 92.11 515.83 C 90.33 515.39 90.07 514.49 91.33 513.11 Z" />
<path fill="#ca9656" opacity="1.00" d=" M 92.24 516.98 C 92.45 517.47 92.86 518.43 93.06 518.92 L 92.16 518.74 L 91.74 517.74 L 92.24 516.98 Z" />
<path fill="#ca9656" opacity="1.00" d=" M 734.93 518.94 C 735.10 518.44 735.45 517.45 735.63 516.95 L 736.19 517.68 L 735.83 518.71 L 734.93 518.94 Z" />
<path fill="#ca9656" opacity="1.00" d=" M 93.01 519.96 C 93.26 520.42 93.75 521.36 93.99 521.82 L 93.08 521.72 L 92.57 520.76 L 93.01 519.96 Z" />
<path fill="#ca9656" opacity="1.00" d=" M 729.09 537.05 C 730.00 534.66 730.82 532.24 731.67 529.83 C 730.92 532.27 730.06 534.68 729.09 537.05 Z" />
<path fill="#ca9656" opacity="1.00" d=" M 98.34 534.93 C 98.45 535.44 98.67 536.47 98.79 536.99 L 97.93 536.66 L 97.70 535.60 L 98.34 534.93 Z" />
<path fill="#ca9656" opacity="1.00" d=" M 99.22 537.98 C 99.46 538.45 99.94 539.39 100.18 539.86 L 99.26 539.75 L 98.77 538.78 L 99.22 537.98 Z" />
<path fill="#ca9656" opacity="1.00" d=" M 727.87 539.88 C 728.07 539.40 728.49 538.43 728.70 537.94 L 729.21 538.71 L 728.78 539.71 L 727.87 539.88 Z" />
<path fill="#ca9656" opacity="1.00" d=" M 104.32 550.80 C 105.18 552.82 106.05 554.84 106.94 556.85 C 105.97 554.87 105.08 552.86 104.32 550.80 Z" />
<path fill="#ca9656" opacity="1.00" d=" M 693.89 606.48 C 694.70 604.97 695.61 603.51 696.65 602.15 C 698.25 603.78 696.03 607.51 693.89 606.48 Z" />
<path fill="#ca9656" opacity="1.00" d=" M 691.70 609.73 C 692.01 609.30 692.62 608.44 692.93 608.01 L 693.26 608.88 L 692.62 609.76 L 691.70 609.73 Z" />
<path fill="#ca9656" opacity="1.00" d=" M 137.10 611.01 C 138.44 612.95 139.79 614.89 141.16 616.83 C 139.59 615.04 138.24 613.08 137.10 611.01 Z" />
<path fill="#ca9656" opacity="1.00" d=" M 686.92 616.86 C 688.30 614.97 689.64 613.04 690.93 611.09 C 689.71 613.09 688.38 615.03 686.92 616.86 Z" />
<path fill="#ca9656" opacity="1.00" d=" M 684.60 619.76 C 684.92 619.34 685.55 618.49 685.86 618.07 L 686.18 618.94 L 685.53 619.81 L 684.60 619.76 Z" />
<path fill="#ca9656" opacity="1.00" d=" M 146.32 623.79 C 147.58 625.45 148.84 627.11 150.11 628.77 C 148.78 627.15 147.53 625.48 146.32 623.79 Z" />
<path fill="#ca9656" opacity="1.00" d=" M 678.66 627.75 C 678.96 627.32 679.57 626.45 679.87 626.02 L 680.21 626.89 L 679.58 627.78 L 678.66 627.75 Z" />
<path fill="#ca9656" opacity="1.00" d=" M 673.92 633.84 C 675.22 632.23 676.53 630.63 677.82 629.00 C 676.61 630.69 675.30 632.30 673.92 633.84 Z" />
<path fill="#ca9656" opacity="1.00" d=" M 155.24 635.10 C 156.85 636.97 158.41 638.88 160.01 640.76 C 158.19 639.08 156.60 637.16 155.24 635.10 Z" />
<path fill="#ca9656" opacity="1.00" d=" M 668.91 639.75 C 670.25 638.20 671.54 636.61 672.89 635.07 C 671.64 636.69 670.31 638.26 668.91 639.75 Z" />
<path fill="#ca9656" opacity="1.00" d=" M 660.99 648.73 C 663.25 646.17 665.43 643.53 667.77 641.03 C 665.78 643.82 663.56 646.46 660.99 648.73 Z" />
<path fill="#ca9656" opacity="1.00" d=" M 186.25 667.98 C 188.47 669.95 190.75 671.85 192.93 673.87 C 190.46 672.20 188.21 670.22 186.25 667.98 Z" />
<path fill="#ca9656" opacity="1.00" d=" M 634.08 674.80 C 636.58 672.49 639.22 670.33 641.73 668.03 C 639.48 670.61 636.83 672.78 634.08 674.80 Z" />
<path fill="#ca9656" opacity="1.00" d=" M 194.23 675.03 C 196.08 676.65 197.96 678.22 199.84 679.80 C 197.81 678.40 195.93 676.80 194.23 675.03 Z" />
<path fill="#ca9656" opacity="1.00" d=" M 628.05 680.01 C 629.61 678.66 631.19 677.34 632.76 675.99 C 631.35 677.50 629.76 678.84 628.05 680.01 Z" />
<path fill="#ca9656" opacity="1.00" d=" M 622.04 684.83 C 623.66 683.60 625.24 682.33 626.82 681.04 C 625.27 682.37 623.67 683.63 622.04 684.83 Z" />
<path fill="#ca9656" opacity="1.00" d=" M 617.94 687.85 C 618.69 686.99 619.59 686.29 620.62 685.78 C 621.72 687.29 619.11 689.33 617.94 687.85 Z" />
<path fill="#ca9656" opacity="1.00" d=" M 211.42 688.82 C 212.43 689.32 213.31 690.02 214.09 690.86 C 212.91 692.37 210.29 690.33 211.42 688.82 Z" />
<path fill="#ca9656" opacity="1.00" d=" M 613.92 690.92 C 614.66 690.06 615.58 689.40 616.60 688.88 C 617.70 690.40 615.08 692.42 613.92 690.92 Z" />
<path fill="#ca9656" opacity="1.00" d=" M 215.39 691.83 C 216.38 692.35 217.29 693.03 218.07 693.87 C 216.90 695.38 214.26 693.36 215.39 691.83 Z" />
<path fill="#ca9656" opacity="1.00" d=" M 607.07 695.98 C 608.98 694.64 610.91 693.32 612.78 691.92 C 610.98 693.41 609.06 694.76 607.07 695.98 Z" />
<path fill="#ca9656" opacity="1.00" d=" M 219.21 694.71 C 219.64 695.01 220.51 695.61 220.95 695.91 L 220.09 696.25 L 219.20 695.63 L 219.21 694.71 Z" />
<path fill="#ca9656" opacity="1.00" d=" M 222.15 696.92 C 222.61 697.18 223.54 697.69 224.00 697.95 L 223.18 698.37 L 222.23 697.84 L 222.15 696.92 Z" />
<path fill="#ca9656" opacity="1.00" d=" M 225.15 698.93 C 227.70 700.69 230.29 702.38 232.92 704.02 C 230.14 702.64 227.55 700.90 225.15 698.93 Z" />
<path fill="#ca9656" opacity="1.00" d=" M 234.26 704.73 C 234.69 705.03 235.56 705.63 236.00 705.93 L 235.14 706.28 L 234.24 705.66 L 234.26 704.73 Z" />
<path fill="#ca9656" opacity="1.00" d=" M 237.68 707.07 C 253.87 716.81 270.70 725.50 288.20 732.65 C 270.36 725.77 253.27 716.96 237.13 706.73 L 237.68 707.07 Z" />
<path fill="#ca9656" opacity="1.00" d=" M 500.11 745.94 C 500.87 745.29 501.76 744.97 502.77 744.98 C 502.44 746.76 501.55 747.08 500.11 745.94 Z" />
<path fill="#ca9656" opacity="1.00" d=" M 329.21 746.00 C 330.21 745.97 331.10 746.28 331.89 746.92 C 330.45 748.08 329.56 747.78 329.21 746.00 Z" />
<path fill="#ca9656" opacity="1.00" d=" M 496.12 746.91 C 496.91 746.28 497.81 746.00 498.83 746.08 C 498.42 747.82 497.52 748.10 496.12 746.91 Z" />
<path fill="#ca9656" opacity="1.00" d=" M 333.13 747.06 C 334.14 746.98 335.04 747.26 335.84 747.91 C 334.42 749.09 333.52 748.80 333.13 747.06 Z" />
<path fill="#ca9656" opacity="1.00" d=" M 492.13 747.81 C 492.95 747.23 493.86 746.98 494.87 747.07 C 494.40 748.82 493.49 749.06 492.13 747.81 Z" />
<path fill="#ca9656" opacity="1.00" d=" M 337.18 748.06 C 338.18 747.96 339.09 748.21 339.91 748.82 C 338.54 750.05 337.63 749.79 337.18 748.06 Z" />
<path fill="#ca9656" opacity="1.00" d=" M 341.32 749.04 C 342.50 749.05 343.65 749.34 344.76 749.74 C 344.16 751.37 340.87 750.95 341.32 749.04 Z" />
<path fill="#ca9656" opacity="1.00" d=" M 483.27 749.75 C 484.35 749.33 485.48 749.01 486.66 748.98 C 487.14 750.88 483.86 751.39 483.27 749.75 Z" />
<path fill="#ca9656" opacity="1.00" d=" M 346.29 750.02 C 347.47 750.07 348.61 750.37 349.73 750.76 C 349.12 752.41 345.82 751.93 346.29 750.02 Z" />
<path fill="#ca9656" opacity="1.00" d=" M 478.25 750.79 C 479.36 750.39 480.50 750.08 481.69 750.04 C 482.16 751.95 478.86 752.42 478.25 750.79 Z" />
<path fill="#ca9656" opacity="1.00" d=" M 351.35 751.02 C 352.52 751.03 353.66 751.30 354.77 751.69 C 354.20 753.35 350.89 752.93 351.35 751.02 Z" />
<path fill="#ca9656" opacity="1.00" d=" M 473.26 751.71 C 474.37 751.32 475.51 751.04 476.69 751.03 C 477.15 752.95 473.83 753.35 473.26 751.71 Z" />
<path fill="#ca9656" opacity="1.00" d=" M 357.34 752.07 C 358.50 752.04 359.65 752.28 360.76 752.66 C 360.22 754.31 356.90 753.99 357.34 752.07 Z" />
<path fill="#ca9656" opacity="1.00" d=" M 467.28 752.67 C 468.39 752.30 469.53 752.05 470.71 752.08 C 471.11 754.00 467.80 754.34 467.28 752.67 Z" />
<path fill="#ca9656" opacity="1.00" d=" M 454.22 754.49 C 455.32 754.16 456.46 753.95 457.63 754.01 C 458.02 755.96 454.67 756.18 454.22 754.49 Z" />
</g>
<g id="#ba1b40ff">
<path fill="#ba1b40" opacity="1.00" d=" M 267.07 488.10 C 279.73 482.85 294.67 484.05 306.84 490.11 C 309.46 491.15 311.59 493.98 310.82 496.89 C 309.93 502.39 308.67 507.83 307.72 513.32 C 304.15 513.36 300.59 513.31 297.03 513.10 C 296.12 508.00 295.87 502.71 294.16 497.80 C 287.55 493.03 277.93 493.06 270.88 496.89 C 267.69 500.60 267.25 506.43 268.94 510.94 C 270.54 515.05 274.32 517.73 278.03 519.81 C 287.18 524.75 297.82 527.19 305.74 534.26 C 314.74 542.13 314.58 557.76 305.75 565.71 C 298.26 572.36 287.76 574.27 278.03 574.02 C 268.24 573.63 258.19 571.68 249.88 566.24 C 249.86 559.82 249.91 553.40 250.02 546.97 C 253.92 546.68 257.83 546.61 261.74 546.69 C 262.50 551.54 263.78 556.29 265.14 561.01 C 272.22 564.71 280.66 565.18 288.37 563.47 C 292.76 562.70 294.36 557.93 294.78 554.06 C 295.40 549.33 292.26 544.94 288.27 542.72 C 278.51 536.84 266.65 534.79 257.85 527.23 C 251.77 522.15 249.34 513.66 250.91 506.00 C 252.49 497.60 259.43 491.28 267.07 488.10 Z" />
<path fill="#ba1b40" opacity="1.00" d=" M 343.98 487.93 C 357.49 482.45 373.21 484.49 385.86 491.31 C 386.59 493.10 387.78 494.90 387.23 496.94 C 386.44 502.45 385.26 507.91 384.05 513.35 C 380.48 513.37 376.92 513.31 373.36 513.04 C 372.83 507.76 371.97 502.53 370.65 497.40 C 363.91 493.58 355.40 493.01 348.36 496.33 C 345.80 497.54 345.23 500.63 344.72 503.13 C 343.41 508.51 346.11 514.25 350.61 517.29 C 360.31 524.25 372.95 526.03 382.00 534.07 C 388.08 539.35 390.46 548.31 388.11 555.97 C 386.22 563.26 379.96 568.64 373.10 571.21 C 362.89 574.99 351.61 574.60 341.11 572.32 C 336.08 571.01 330.85 569.50 326.73 566.23 C 325.71 559.93 326.59 553.34 326.74 546.95 C 330.52 546.69 334.31 546.63 338.10 546.66 C 339.29 551.43 339.78 556.50 341.94 560.95 C 348.65 564.98 357.11 564.97 364.58 563.53 C 369.85 562.73 371.36 556.64 371.18 552.13 C 371.16 547.32 367.08 543.94 363.24 541.79 C 353.60 536.60 342.30 534.29 333.96 526.85 C 327.86 521.50 325.47 512.59 327.64 504.84 C 329.77 496.84 336.50 490.93 343.98 487.93 Z" />
<path fill="#ba1b40" opacity="1.00" d=" M 420.93 487.73 C 433.42 482.91 447.92 484.21 459.82 490.11 C 462.38 491.18 464.61 493.95 463.79 496.85 C 462.91 502.37 461.62 507.82 460.67 513.33 C 457.11 513.36 453.56 513.31 450.01 513.10 C 449.07 508.01 448.85 502.72 447.10 497.82 C 442.34 494.10 435.65 493.54 429.89 494.70 C 427.08 495.37 423.34 495.97 422.31 499.14 C 420.47 503.51 420.26 508.93 422.95 513.01 C 425.19 516.46 428.80 518.67 432.37 520.54 C 440.96 524.92 450.69 527.39 458.16 533.75 C 467.22 541.18 467.83 556.38 459.67 564.68 C 453.33 571.30 443.88 573.58 435.03 574.00 C 423.93 574.22 412.37 572.33 402.87 566.29 C 402.91 559.85 402.84 553.41 403.02 546.97 C 406.90 546.68 410.80 546.62 414.69 546.68 C 415.49 551.53 416.72 556.30 418.12 561.01 C 425.25 564.76 433.81 565.21 441.56 563.37 C 446.20 562.45 447.59 557.07 447.73 553.00 C 447.99 548.29 444.48 544.44 440.60 542.30 C 430.94 536.78 419.43 534.62 410.83 527.24 C 404.77 522.16 402.18 513.62 403.90 505.97 C 405.59 497.25 412.93 490.79 420.93 487.73 Z" />
<path fill="#ba1b40" opacity="1.00" d=" M 476.77 486.90 C 501.78 486.66 526.83 487.64 551.80 485.87 C 552.73 487.58 554.30 489.10 554.60 491.09 C 554.43 497.98 553.31 504.81 552.88 511.69 C 549.35 511.99 545.81 511.86 542.30 511.41 C 541.39 506.27 540.23 501.17 539.09 496.08 C 533.98 495.62 528.86 495.22 523.74 495.27 C 523.56 506.18 523.70 517.08 523.66 527.99 C 523.73 538.30 523.33 548.66 524.42 558.92 C 525.28 563.91 531.61 563.73 535.18 565.77 C 534.95 567.88 534.40 569.93 533.94 572.00 C 521.41 571.99 508.88 572.01 496.35 571.99 C 495.93 569.84 495.51 567.70 495.01 565.58 C 498.63 564.45 502.27 563.36 505.88 562.20 C 507.45 539.93 506.79 517.60 506.86 495.29 C 501.70 495.24 496.55 495.68 491.41 496.13 C 490.33 501.45 489.11 506.75 487.89 512.04 C 484.18 512.10 480.47 512.01 476.79 511.61 C 476.11 503.39 476.15 495.12 476.77 486.90 Z" />
<path fill="#ba1b40" opacity="1.00" d=" M 562.43 487.17 C 585.29 486.29 608.25 487.75 631.09 485.85 C 632.20 487.77 634.48 489.49 633.94 491.96 C 633.01 498.36 631.59 504.68 630.74 511.10 C 627.30 511.10 623.83 511.31 620.43 510.75 C 619.33 505.96 618.67 501.07 617.62 496.27 C 609.13 495.60 600.52 494.58 592.06 496.09 C 589.67 496.31 590.47 499.31 590.15 500.93 C 590.15 509.20 589.48 517.46 589.71 525.73 C 598.75 525.35 607.79 524.72 616.84 524.67 C 617.29 525.27 618.17 526.47 618.61 527.07 C 618.12 529.83 617.62 532.60 617.05 535.36 C 607.93 535.11 598.79 535.18 589.68 534.59 C 589.48 541.43 589.94 548.25 590.10 555.08 C 590.17 557.33 590.66 559.55 591.28 561.72 C 600.34 564.30 610.02 563.42 619.25 562.39 C 621.02 557.62 621.65 552.52 623.09 547.65 C 626.75 547.64 630.42 547.65 634.08 547.88 C 634.33 555.92 634.31 563.96 634.08 572.00 C 610.17 571.97 586.26 572.06 562.35 571.96 C 561.97 569.76 561.59 567.56 561.22 565.38 C 564.81 564.44 568.37 563.35 571.92 562.24 C 573.29 546.53 572.81 530.76 572.89 515.02 C 572.70 509.44 572.84 503.78 571.64 498.30 C 569.25 494.98 564.67 494.57 561.10 493.17 C 561.54 491.17 561.87 489.14 562.43 487.17 Z" />
<path fill="#ba1b40" opacity="1.00" d=" M 197.95 486.89 C 210.50 486.94 223.06 486.78 235.61 486.98 C 235.99 489.09 236.37 491.20 236.76 493.31 C 233.20 494.36 229.66 495.48 226.08 496.46 C 224.74 509.61 225.18 522.85 225.11 536.05 C 225.15 543.39 224.86 550.78 225.85 558.09 C 225.96 563.68 232.85 563.95 236.81 565.54 C 236.37 567.67 235.95 569.81 235.54 571.95 C 223.00 572.06 210.46 571.97 197.92 572.00 C 197.42 569.89 196.92 567.78 196.69 565.64 C 200.17 564.23 203.84 563.35 207.43 562.26 C 208.11 555.53 207.90 548.76 208.07 542.01 C 208.85 530.01 207.93 517.99 207.97 505.99 C 207.84 503.07 207.91 499.98 206.51 497.34 C 203.64 495.07 199.91 494.38 196.54 493.19 C 196.98 491.08 197.45 488.98 197.95 486.89 Z" />
</g>
</svg>
