<?xml version="1.0" encoding="UTF-8" ?>
<!DOCTYPE svg PUBLIC "-//W3C//DTD SVG 1.1//EN" "http://www.w3.org/Graphics/SVG/1.1/DTD/svg11.dtd">
<svg width="824pt" height="1067pt" viewBox="0 0 824 1067" version="1.1" xmlns="http://www.w3.org/2000/svg">
<g id="#780002ff">
<path fill="#780002" opacity="1.00" d=" M 400.52 0.00 L 423.43 0.00 C 469.99 1.51 516.36 10.53 559.81 27.41 C 627.78 53.55 688.38 98.26 733.75 155.18 C 778.80 211.42 808.70 279.70 819.13 351.02 C 826.40 399.70 824.43 449.53 815.37 497.83 C 803.83 559.54 781.18 618.75 752.39 674.39 C 706.70 762.23 646.36 841.70 579.70 914.62 C 532.10 966.40 481.19 1015.23 426.62 1059.62 C 422.40 1063.06 417.84 1067.11 412.02 1066.82 C 406.94 1067.16 402.57 1064.21 398.89 1061.08 C 358.64 1028.61 320.60 993.47 284.17 956.80 C 236.46 908.52 191.70 857.23 151.54 802.48 C 108.35 743.43 70.28 680.21 42.58 612.37 C 16.79 549.31 0.54 481.82 0.00 413.48 L 0.00 409.59 C 0.42 381.85 3.07 354.10 8.86 326.94 C 17.11 287.67 31.17 249.63 50.46 214.44 C 78.14 163.89 116.53 119.24 162.36 84.30 C 196.68 58.05 235.15 37.24 275.93 22.97 C 315.93 8.86 358.15 1.36 400.52 0.00 M 289.49 109.76 C 285.47 111.38 281.52 113.19 277.47 114.77 C 268.70 118.87 260.09 123.31 251.46 127.70 C 250.28 128.43 249.09 129.15 247.93 129.92 C 244.58 131.04 241.49 132.82 238.89 135.22 L 239.58 134.85 C 239.17 135.10 238.34 135.60 237.93 135.84 C 235.44 136.80 233.21 138.27 231.23 140.04 C 224.98 144.08 218.74 148.18 212.95 152.86 C 205.77 157.13 199.74 163.03 193.35 168.36 C 184.56 175.03 177.78 183.87 169.56 191.20 C 165.45 194.59 162.78 199.29 158.91 202.92 C 153.26 209.34 148.19 216.24 142.89 222.94 C 138.54 229.60 133.02 235.59 129.85 242.96 C 129.63 243.26 129.19 243.88 128.97 244.18 C 126.76 246.76 125.01 249.69 123.87 252.90 C 121.78 256.08 120.13 259.52 118.15 262.78 C 117.32 264.34 116.53 265.92 115.72 267.50 C 115.46 267.99 114.95 268.98 114.69 269.47 C 113.69 271.47 112.72 273.48 111.72 275.49 C 111.47 275.99 110.97 276.99 110.71 277.49 C 110.07 278.85 109.43 280.22 108.78 281.58 C 90.19 322.87 79.47 367.89 78.83 413.22 C 78.35 419.03 78.35 424.90 78.83 430.72 C 79.61 473.20 88.98 515.44 105.66 554.50 C 107.15 557.43 108.41 560.47 109.68 563.50 C 110.37 564.83 111.02 566.17 111.68 567.53 C 113.36 570.86 115.02 574.20 116.69 577.55 C 117.52 579.10 118.32 580.67 119.15 582.22 C 120.75 584.94 122.30 587.68 123.77 590.48 C 124.86 592.10 125.85 593.79 126.82 595.50 C 131.89 603.69 137.15 611.78 142.87 619.54 C 143.91 620.84 144.92 622.15 145.86 623.53 C 146.92 624.84 147.95 626.17 148.88 627.59 C 151.56 630.93 154.46 634.12 156.87 637.68 C 159.75 640.61 162.49 643.66 165.01 646.91 C 170.94 652.97 176.86 659.04 182.96 664.94 C 185.83 667.65 188.32 670.82 191.72 672.92 C 195.38 676.59 199.57 679.64 203.41 683.12 C 205.24 684.26 206.83 685.71 208.43 687.16 C 215.76 692.47 223.05 697.86 230.62 702.84 C 232.97 704.19 235.25 705.65 237.48 707.20 C 240.27 708.73 242.91 710.53 245.76 711.97 C 247.65 713.99 250.19 715.12 252.80 715.93 C 255.13 717.36 257.51 718.74 260.00 719.87 L 260.35 720.59 C 260.67 720.57 261.32 720.55 261.65 720.53 C 262.58 721.13 263.51 721.72 264.46 722.31 C 265.00 722.55 266.08 723.05 266.61 723.29 C 267.74 723.78 268.86 724.29 270.01 724.78 L 270.28 725.20 C 273.45 726.28 276.45 727.79 279.48 729.23 C 281.88 730.11 284.22 731.15 286.54 732.25 C 367.27 765.25 460.76 765.26 541.49 732.24 C 543.79 731.15 546.11 730.10 548.51 729.23 C 551.46 727.83 554.39 726.41 557.43 725.22 C 557.92 724.98 558.90 724.49 559.39 724.25 C 560.75 723.57 562.12 722.93 563.51 722.30 C 564.81 721.60 566.13 720.93 567.45 720.27 C 567.95 720.02 568.95 719.53 569.45 719.28 C 572.43 717.55 575.41 715.78 578.53 714.30 C 580.86 712.94 583.16 711.51 585.51 710.20 C 586.78 709.38 588.07 708.60 589.37 707.83 C 592.05 706.19 594.65 704.43 597.36 702.84 C 600.70 700.73 604.04 698.60 607.11 696.10 C 615.64 691.32 622.85 684.56 630.56 678.60 C 633.74 675.08 637.97 672.69 640.94 668.98 C 647.05 663.05 653.10 657.05 659.04 650.94 C 661.44 648.47 664.13 646.22 665.94 643.26 C 675.13 633.32 683.27 622.44 690.94 611.30 C 693.68 607.39 696.29 603.38 698.85 599.35 C 699.81 597.68 700.84 596.04 701.84 594.39 C 702.16 593.78 702.80 592.56 703.12 591.94 C 703.52 591.64 704.32 591.02 704.72 590.72 C 705.50 588.85 706.30 586.99 707.09 585.13 C 707.84 583.95 708.58 582.76 709.31 581.56 C 709.95 580.19 710.63 578.84 711.32 577.50 C 713.83 572.57 716.33 567.62 718.71 562.63 C 719.21 561.59 719.72 560.55 720.23 559.53 C 723.23 552.09 726.56 544.78 729.13 537.18 C 730.36 534.91 731.18 532.45 731.76 529.94 C 759.31 448.80 754.59 357.20 718.32 279.50 C 717.29 277.51 716.31 275.49 715.34 273.48 C 713.97 270.81 712.64 268.13 711.30 265.47 C 710.61 264.17 709.95 262.86 709.31 261.55 C 707.91 259.23 706.52 256.90 705.26 254.50 C 703.88 252.17 702.47 249.85 701.20 247.46 C 699.64 245.24 698.20 242.95 696.83 240.61 C 695.57 238.61 694.28 236.64 692.95 234.70 C 688.61 228.08 683.72 221.85 679.14 215.41 C 677.71 213.81 676.26 212.23 675.15 210.40 C 674.09 209.20 673.00 208.02 671.92 206.84 C 663.97 195.10 652.60 186.32 643.14 175.85 C 639.87 172.08 635.46 169.56 632.08 165.89 C 625.30 160.23 618.28 154.85 611.21 149.55 C 608.06 147.05 604.73 144.76 601.14 142.93 C 599.73 141.88 598.25 140.92 596.75 140.01 C 587.45 132.51 576.35 127.75 566.04 121.90 C 557.01 117.54 547.86 113.45 538.66 109.46 C 534.32 108.07 530.21 105.45 525.59 105.29 C 510.89 99.45 495.38 95.63 479.87 92.53 C 416.50 79.97 349.56 85.88 289.49 109.76 Z" />
</g>
<g id="#ffffffff">
<path fill="#ffffff" opacity="1.00" d=" M 289.49 109.76 C 349.56 85.88 416.50 79.97 479.87 92.53 C 495.38 95.63 510.89 99.45 525.59 105.29 C 533.55 109.46 542.69 110.88 550.69 115.13 C 566.76 122.02 581.78 131.03 596.75 140.01 C 598.25 140.92 599.73 141.88 601.14 142.93 C 622.46 157.84 642.66 174.50 660.26 193.71 C 664.09 198.14 668.00 202.50 671.92 206.84 C 673.00 208.02 674.09 209.20 675.15 210.40 C 676.26 212.23 677.71 213.81 679.14 215.41 C 683.72 221.85 688.61 228.08 692.95 234.70 C 694.28 236.64 695.57 238.61 696.83 240.61 C 698.20 242.95 699.64 245.24 701.20 247.46 C 702.47 249.85 703.88 252.17 705.26 254.50 C 706.52 256.90 707.91 259.23 709.31 261.55 C 709.95 262.86 710.61 264.17 711.30 265.47 C 712.64 268.13 713.97 270.81 715.34 273.48 C 716.31 275.49 717.29 277.51 718.32 279.50 C 754.59 357.20 759.31 448.80 731.76 529.94 C 730.84 532.34 729.95 534.75 729.13 537.18 C 726.56 544.78 723.23 552.09 720.23 559.53 C 719.72 560.55 719.21 561.59 718.71 562.63 C 716.33 567.62 713.83 572.57 711.32 577.50 C 710.63 578.84 709.95 580.19 709.31 581.56 C 708.58 582.76 707.84 583.95 707.09 585.13 C 705.67 587.35 704.33 589.61 703.12 591.94 C 702.80 592.56 702.16 593.78 701.84 594.39 C 700.84 596.04 699.81 597.68 698.85 599.35 C 696.29 603.38 693.68 607.39 690.94 611.30 C 683.27 622.44 675.13 633.32 665.94 643.26 C 664.13 646.22 661.44 648.47 659.04 650.94 C 653.10 657.05 647.05 663.05 640.94 668.98 C 630.01 678.45 618.66 687.41 607.11 696.10 C 604.04 698.60 600.70 700.73 597.36 702.84 C 594.65 704.43 592.05 706.19 589.37 707.83 C 588.07 708.60 586.78 709.38 585.51 710.20 C 583.16 711.51 580.86 712.94 578.53 714.30 C 575.41 715.78 572.43 717.55 569.45 719.28 C 568.95 719.53 567.95 720.02 567.45 720.27 C 566.13 720.93 564.81 721.60 563.51 722.30 C 562.12 722.93 560.75 723.57 559.39 724.25 C 558.90 724.49 557.92 724.98 557.43 725.22 C 554.39 726.41 551.46 727.83 548.51 729.23 C 546.11 730.10 543.79 731.15 541.49 732.24 C 460.76 765.26 367.27 765.25 286.54 732.25 C 284.22 731.15 281.88 730.11 279.48 729.23 C 276.45 727.79 273.45 726.28 270.28 725.20 L 270.01 724.78 C 268.86 724.29 267.74 723.78 266.61 723.29 C 266.08 723.05 265.00 722.55 264.46 722.31 C 263.51 721.72 262.58 721.13 261.65 720.53 C 261.32 720.55 260.67 720.57 260.35 720.59 L 260.00 719.87 C 257.51 718.74 255.13 717.36 252.80 715.93 C 250.52 714.49 248.17 713.17 245.76 711.97 C 242.91 710.53 240.27 708.73 237.48 707.20 C 235.25 705.65 232.97 704.19 230.62 702.84 C 223.05 697.86 215.76 692.47 208.43 687.16 C 206.83 685.71 205.24 684.26 203.41 683.12 C 199.57 679.64 195.38 676.59 191.72 672.92 C 188.32 670.82 185.83 667.65 182.96 664.94 C 176.86 659.04 170.94 652.97 165.01 646.91 C 162.49 643.66 159.75 640.61 156.87 637.68 C 154.46 634.12 151.56 630.93 148.88 627.59 C 147.95 626.17 146.92 624.84 145.86 623.53 C 144.92 622.15 143.91 620.84 142.87 619.54 C 137.15 611.78 131.89 603.69 126.82 595.50 C 125.85 593.79 124.86 592.10 123.77 590.48 C 122.30 587.68 120.75 584.94 119.15 582.22 C 118.32 580.67 117.52 579.10 116.69 577.55 C 115.02 574.20 113.36 570.86 111.68 567.53 C 111.02 566.17 110.37 564.83 109.68 563.50 C 108.41 560.47 107.15 557.43 105.66 554.50 C 88.98 515.44 79.61 473.20 78.83 430.72 C 78.35 424.90 78.35 419.03 78.83 413.22 C 79.47 367.89 90.19 322.87 108.78 281.58 C 109.43 280.22 110.07 278.85 110.71 277.49 C 110.97 276.99 111.47 275.99 111.72 275.49 C 112.72 273.48 113.69 271.47 114.69 269.47 C 114.95 268.98 115.46 267.99 115.72 267.50 C 116.53 265.92 117.32 264.34 118.15 262.78 C 120.13 259.52 121.78 256.08 123.87 252.90 C 125.76 250.11 127.55 247.24 128.97 244.18 C 129.19 243.88 129.63 243.26 129.85 242.96 C 140.48 227.21 151.47 211.63 164.35 197.62 C 178.76 180.88 195.67 166.52 212.95 152.86 C 218.74 148.18 224.98 144.08 231.23 140.04 C 233.49 138.69 235.72 137.28 237.93 135.84 C 238.34 135.60 239.17 135.10 239.58 134.85 C 242.44 133.34 245.25 131.73 247.93 129.92 C 249.09 129.15 250.28 128.43 251.46 127.70 C 260.09 123.31 268.70 118.87 277.47 114.77 C 281.52 113.19 285.47 111.38 289.49 109.76 M 377.70 203.91 C 372.20 211.00 371.73 220.76 374.52 229.04 C 374.91 232.06 377.31 236.72 373.65 238.55 C 367.01 241.90 360.45 246.08 356.48 252.56 C 351.18 261.16 351.04 271.64 350.64 281.42 C 340.08 270.60 330.30 259.02 320.45 247.54 C 315.03 241.45 304.12 240.46 298.80 247.19 C 295.85 246.62 292.69 245.61 289.75 246.76 C 286.25 247.93 283.84 251.40 283.78 255.07 C 282.49 271.88 280.63 288.64 279.75 305.48 C 279.16 315.86 277.56 326.71 281.47 336.66 C 287.67 353.64 294.85 370.26 302.47 386.64 C 304.99 392.38 309.68 396.82 315.00 399.99 C 324.74 405.81 335.45 409.68 345.75 414.33 C 369.91 424.78 393.25 437.18 415.11 451.87 C 442.36 433.06 472.40 418.82 502.74 405.79 C 508.53 403.21 514.74 401.43 520.04 397.85 C 524.23 395.02 527.24 390.68 528.75 385.88 C 531.48 377.57 534.95 369.54 538.58 361.59 C 542.40 353.04 547.78 345.12 549.99 335.91 C 552.32 327.49 551.70 318.68 551.66 310.05 C 550.91 293.68 551.06 277.29 550.40 260.92 C 550.37 256.72 548.60 252.23 544.71 250.22 C 541.69 248.50 538.25 250.10 535.05 250.10 C 531.68 248.56 528.79 245.71 524.87 245.68 C 517.01 244.76 510.80 250.59 505.80 255.83 C 498.27 263.37 490.68 270.85 483.05 278.29 C 485.87 266.62 482.97 253.31 473.99 245.00 C 471.98 242.79 468.66 241.32 468.21 238.07 C 465.87 226.30 457.35 216.74 447.63 210.22 C 440.63 205.10 430.64 208.36 425.20 214.28 C 420.53 219.29 420.35 226.75 422.01 233.04 C 423.22 239.84 427.37 246.58 434.09 249.03 C 436.41 250.01 438.20 246.27 436.23 244.83 C 431.67 240.61 429.91 234.08 430.95 228.05 C 431.35 226.06 433.40 225.16 434.77 223.93 C 437.87 224.97 441.15 226.06 443.27 228.72 C 449.80 236.15 452.98 245.75 458.14 254.06 C 460.97 258.60 467.26 259.47 469.73 264.35 C 472.55 269.76 472.75 276.09 472.80 282.06 C 472.29 294.10 471.11 306.11 469.78 318.09 C 469.70 319.58 469.15 321.09 467.71 321.76 C 457.97 327.53 447.74 332.43 437.68 337.61 C 432.93 339.86 428.50 342.80 423.51 344.51 C 423.53 340.97 423.45 336.80 426.19 334.14 C 429.30 331.29 433.83 332.23 437.67 332.05 C 437.54 323.72 437.33 315.40 437.25 307.07 C 437.34 301.47 434.06 296.69 430.38 292.79 C 436.93 288.28 442.48 282.52 447.72 276.57 C 449.46 274.33 451.56 272.02 451.80 269.05 C 452.09 264.81 447.05 261.34 443.18 263.05 C 439.74 264.32 436.41 265.87 432.93 267.03 C 431.01 261.36 429.12 255.68 427.45 249.93 C 426.85 247.96 426.12 245.79 424.21 244.72 C 419.61 242.04 414.15 243.29 409.14 243.02 C 408.05 242.81 406.37 241.62 407.49 240.48 C 410.32 236.82 415.77 234.36 415.26 228.93 C 415.26 220.74 417.64 212.17 414.73 204.24 C 412.26 198.04 405.09 195.91 398.98 195.88 C 391.33 195.85 382.68 197.56 377.70 203.91 M 267.07 488.10 C 261.14 490.66 255.61 494.82 252.72 500.73 C 248.39 509.38 250.32 520.95 257.86 527.23 C 266.66 534.80 278.53 536.84 288.30 542.74 C 292.28 544.97 295.40 549.35 294.78 554.07 C 294.35 557.87 292.82 562.58 288.53 563.42 C 280.78 565.19 272.27 564.74 265.14 561.00 C 263.78 556.29 262.49 551.55 261.75 546.70 C 257.84 546.61 253.92 546.68 250.02 546.98 C 249.91 553.40 249.86 559.82 249.88 566.24 C 256.24 570.40 263.69 572.57 271.18 573.45 C 281.44 574.80 292.56 574.12 301.64 568.73 C 306.35 566.07 309.94 561.58 311.56 556.43 C 313.55 548.94 312.11 540.12 306.22 534.71 C 296.78 525.71 282.82 524.33 272.81 516.24 C 267.20 511.79 266.60 503.12 270.36 497.32 C 277.32 492.89 287.37 493.01 294.16 497.77 C 295.86 502.70 296.12 507.99 297.03 513.10 C 300.59 513.31 304.16 513.37 307.72 513.32 C 308.69 507.18 310.40 501.15 310.98 494.96 C 310.33 491.20 306.43 489.84 303.38 488.51 C 291.92 483.97 278.55 483.28 267.07 488.10 M 345.37 487.38 C 338.80 489.83 332.58 494.12 329.35 500.51 C 324.77 509.01 326.65 520.49 333.97 526.87 C 342.31 534.28 353.59 536.61 363.22 541.78 C 367.04 543.92 371.12 547.26 371.17 552.05 C 371.29 556.31 370.15 562.22 365.26 563.32 C 359.78 564.82 353.90 564.64 348.36 563.56 C 346.04 562.85 343.35 562.35 341.63 560.52 C 339.88 556.07 339.17 551.30 338.10 546.66 C 334.31 546.62 330.53 546.69 326.75 546.94 C 326.52 553.34 325.82 559.83 326.65 566.18 C 330.81 569.47 336.06 571.01 341.13 572.32 C 351.63 574.60 362.92 574.99 373.13 571.20 C 379.99 568.62 386.25 563.24 388.12 555.94 C 390.46 548.28 388.06 539.31 381.97 534.04 C 372.93 526.04 360.32 524.24 350.63 517.31 C 346.12 514.26 343.40 508.50 344.72 503.11 C 345.23 500.62 345.80 497.56 348.33 496.35 C 355.37 493.01 363.92 493.56 370.65 497.41 C 371.97 502.52 372.85 507.72 373.33 512.97 C 376.89 513.34 380.47 513.38 384.05 513.35 C 385.27 507.89 386.45 502.41 387.23 496.87 C 387.77 494.87 386.59 493.09 385.88 491.33 C 373.65 484.71 358.60 482.62 345.37 487.38 M 416.64 489.77 C 410.10 493.28 404.72 499.59 403.70 507.10 C 402.40 514.46 405.09 522.42 410.84 527.25 C 419.44 534.62 430.93 536.78 440.59 542.30 C 444.49 544.43 448.00 548.30 447.72 553.03 C 447.59 557.10 446.19 562.44 441.56 563.37 C 433.82 565.20 425.24 564.78 418.12 560.99 C 416.73 556.29 415.49 551.53 414.70 546.69 C 410.80 546.61 406.91 546.68 403.02 546.98 C 402.84 553.41 402.91 559.84 402.87 566.28 C 412.36 572.34 423.93 574.22 435.03 574.00 C 443.89 573.58 453.36 571.29 459.69 564.66 C 468.04 556.16 467.14 540.51 457.58 533.26 C 449.97 527.10 440.25 524.69 431.71 520.19 C 428.38 518.40 425.05 516.26 422.96 513.02 C 420.25 508.92 420.47 503.45 422.35 499.07 C 423.38 495.96 427.07 495.38 429.83 494.71 C 435.61 493.54 442.36 494.07 447.11 497.85 C 448.85 502.74 449.07 508.02 450.01 513.10 C 453.56 513.31 457.13 513.37 460.69 513.31 C 461.65 507.18 463.34 501.17 463.97 494.99 C 463.24 491.01 459.02 489.68 455.78 488.30 C 443.32 483.54 428.53 483.21 416.64 489.77 M 476.77 486.90 C 476.13 495.11 476.13 503.37 476.77 511.58 C 480.46 512.02 484.18 512.11 487.89 512.04 C 489.11 506.75 490.34 501.46 491.40 496.14 C 496.54 495.67 501.69 495.24 506.85 495.29 C 506.80 517.59 507.45 539.93 505.88 562.20 C 502.35 563.39 498.72 564.27 495.21 565.55 C 495.41 567.71 495.93 569.82 496.28 571.97 C 508.83 572.04 521.38 571.98 533.94 572.00 C 534.41 569.92 534.94 567.85 535.20 565.73 C 531.96 564.31 528.28 563.72 525.45 561.51 C 523.30 557.71 524.31 553.09 523.77 548.94 C 523.55 531.05 523.62 513.16 523.74 495.27 C 528.87 495.22 533.98 495.62 539.09 496.08 C 540.22 501.16 541.41 506.24 542.28 511.39 C 545.79 511.88 549.34 512.00 552.87 511.69 C 553.31 504.81 554.43 497.98 554.60 491.08 C 554.30 489.10 552.74 487.58 551.80 485.88 C 526.83 487.63 501.78 486.67 476.77 486.90 M 562.47 487.13 C 561.88 489.11 561.54 491.15 561.10 493.17 C 564.68 494.57 569.26 494.99 571.64 498.31 C 572.83 503.78 572.70 509.42 572.89 514.99 C 572.81 530.74 573.28 546.51 571.93 562.22 C 568.39 563.35 564.83 564.44 561.23 565.35 C 561.60 567.55 561.97 569.74 562.33 571.94 C 586.25 572.08 610.17 571.96 634.09 572.00 C 634.31 563.96 634.32 555.92 634.09 547.89 C 630.42 547.65 626.75 547.64 623.09 547.66 C 621.63 552.52 621.05 557.64 619.23 562.38 C 610.00 563.41 600.30 564.33 591.26 561.68 C 590.64 559.50 590.15 557.26 590.09 554.99 C 589.94 548.19 589.47 541.40 589.68 534.59 C 598.79 535.18 607.93 535.11 617.05 535.36 C 617.62 532.60 618.12 529.84 618.61 527.07 C 618.17 526.47 617.28 525.27 616.83 524.67 C 607.78 524.72 598.75 525.36 589.71 525.72 C 589.48 517.46 590.15 509.21 590.16 500.95 C 590.51 499.32 589.61 496.30 592.06 496.10 C 600.51 494.56 609.13 495.61 617.62 496.27 C 618.66 501.07 619.33 505.95 620.43 510.75 C 623.83 511.34 627.30 511.08 630.74 511.10 C 631.59 504.69 633.01 498.37 633.93 491.98 C 634.48 489.50 632.20 487.77 631.08 485.85 C 608.25 487.72 585.31 486.35 562.47 487.13 M 197.95 486.89 C 197.45 488.98 196.98 491.08 196.54 493.19 C 199.92 494.40 203.68 495.06 206.53 497.37 C 209.22 504.23 207.35 511.86 208.19 519.03 C 208.54 533.43 208.17 547.86 207.42 562.23 C 203.83 563.33 200.24 564.42 196.63 565.42 C 197.00 567.62 197.43 569.81 197.91 572.00 C 210.46 571.97 223.00 572.07 235.55 571.94 C 235.96 569.81 236.37 567.68 236.82 565.56 C 233.30 564.18 228.73 563.88 226.38 560.62 C 224.89 554.20 225.18 547.52 225.11 540.97 C 225.27 526.13 224.59 511.24 226.09 496.44 C 229.68 495.48 233.21 494.36 236.77 493.30 C 236.37 491.18 235.98 489.06 235.60 486.95 C 223.05 486.82 210.50 486.92 197.95 486.89 Z" />
<path fill="#ffffff" opacity="1.00" d=" M 394.52 211.10 C 397.55 211.08 400.89 210.62 403.56 212.41 C 407.19 214.51 408.47 218.96 408.59 222.91 C 408.15 229.85 403.13 235.22 398.36 239.78 C 399.10 241.74 401.77 243.92 400.09 246.07 C 396.09 251.83 395.13 259.94 399.17 265.94 C 400.06 267.92 402.80 269.85 401.17 272.16 C 396.96 280.32 392.59 289.43 394.53 298.86 C 395.40 303.29 397.37 308.56 402.05 310.11 C 405.80 311.39 408.72 308.13 411.85 306.73 C 413.79 307.30 415.53 308.67 417.61 308.71 C 420.01 306.54 419.88 302.33 423.06 300.89 C 426.60 301.60 430.04 304.47 431.06 307.96 C 430.26 313.61 430.20 319.31 430.21 325.00 C 426.49 325.21 422.76 325.31 419.07 325.84 C 417.90 329.38 417.53 333.09 416.66 336.69 C 416.02 338.20 413.99 339.99 412.47 338.54 C 410.87 334.65 410.69 330.05 411.97 326.05 C 413.88 321.16 419.46 319.89 423.51 317.40 C 426.40 314.92 425.87 310.59 424.94 307.31 C 423.39 309.31 422.36 311.70 420.63 313.57 C 415.91 316.56 408.98 315.59 405.45 320.42 C 402.64 325.46 402.75 331.62 403.71 337.16 C 404.01 339.69 405.59 341.86 407.69 343.23 C 411.68 345.89 416.16 347.69 420.41 349.89 C 418.77 351.23 417.12 352.57 415.48 353.91 C 408.50 347.33 401.32 340.78 392.82 336.20 C 386.63 332.69 379.91 330.31 373.35 327.63 C 369.20 325.78 364.60 323.65 362.47 319.37 C 361.41 316.38 361.47 313.15 361.23 310.03 C 360.66 296.39 359.74 282.43 363.22 269.08 C 365.25 260.99 370.90 254.17 378.03 249.99 C 380.90 247.96 384.83 246.54 386.04 242.93 C 387.05 237.54 385.18 232.15 383.71 227.01 C 389.50 223.65 394.31 218.09 394.52 211.10 Z" />
<path fill="#ffffff" opacity="1.00" d=" M 418.81 254.78 C 420.09 255.21 421.62 255.23 422.70 256.13 C 423.60 258.27 423.98 260.57 424.52 262.82 C 422.80 265.17 420.07 267.67 421.15 270.91 C 422.23 273.00 424.75 273.60 426.91 273.85 C 431.45 274.46 435.92 273.10 440.29 272.07 C 437.91 276.55 434.77 282.12 429.08 282.47 C 425.83 282.85 421.27 282.16 419.68 285.85 C 418.64 290.39 419.96 295.16 418.89 299.72 C 414.45 300.21 409.87 300.34 405.49 299.39 C 401.55 298.28 400.71 293.51 400.52 290.01 C 401.32 279.93 412.66 273.54 411.63 262.98 C 413.61 262.02 416.15 261.54 417.35 259.50 C 418.03 257.99 418.35 256.35 418.81 254.78 Z" />
<path fill="#ffffff" opacity="1.00" d=" M 312.78 268.68 C 314.53 268.51 316.64 267.38 318.16 268.78 C 319.82 270.23 319.80 272.71 320.42 274.70 C 322.14 283.45 324.36 292.12 325.78 300.93 C 326.54 303.59 324.70 305.68 323.05 307.48 C 321.51 306.58 319.24 306.32 318.52 304.45 C 317.09 300.83 316.94 296.88 316.29 293.08 C 315.22 284.93 313.61 276.85 312.78 268.68 Z" />
<path fill="#ffffff" opacity="1.00" d=" M 526.83 277.06 C 527.42 273.49 528.96 268.98 533.02 268.23 C 535.68 268.67 536.65 271.55 536.72 273.91 C 537.31 285.27 536.65 296.66 537.30 308.03 C 537.43 314.69 538.62 321.47 537.12 328.06 C 535.90 333.94 532.92 339.22 530.47 344.64 C 526.11 353.89 522.36 363.43 517.52 372.45 C 515.54 376.29 512.56 379.62 508.83 381.83 C 481.01 397.28 450.25 407.05 423.63 424.72 C 420.82 426.41 418.39 428.83 415.27 429.95 C 407.30 424.80 399.45 419.42 391.02 415.00 C 370.04 403.78 347.68 395.44 326.65 384.32 C 321.42 381.91 316.50 378.39 313.78 373.19 C 308.09 362.87 303.97 351.79 298.74 341.24 C 295.64 335.03 292.71 328.27 293.51 321.16 C 295.24 308.15 295.94 295.01 296.21 281.89 C 296.51 278.13 296.12 273.80 298.66 270.70 C 299.60 269.91 301.17 268.49 302.39 269.39 C 305.09 270.90 305.65 274.22 305.97 277.01 C 307.59 291.05 309.24 305.10 311.41 319.07 C 312.58 326.09 313.74 333.35 317.44 339.56 C 322.09 347.40 329.42 353.31 337.42 357.51 C 343.33 360.66 349.11 364.70 355.89 365.65 C 358.85 366.29 361.70 363.92 362.00 361.00 C 361.82 358.41 359.49 356.82 357.51 355.54 C 349.41 350.62 340.85 346.41 333.18 340.80 C 327.13 336.63 324.48 328.62 325.73 321.54 C 330.76 321.63 335.14 324.18 339.45 326.48 C 357.38 335.61 376.07 343.30 393.37 353.64 C 402.05 358.79 407.20 367.97 410.75 377.10 C 413.35 383.92 414.88 391.12 415.47 398.39 C 416.91 384.07 421.27 369.10 431.47 358.50 C 435.74 354.13 441.29 351.39 446.61 348.52 C 463.03 339.71 480.19 332.39 496.71 323.77 C 499.32 322.29 502.30 321.76 505.27 321.56 C 505.99 327.69 504.53 334.52 499.86 338.85 C 494.80 343.72 488.26 346.57 482.39 350.30 C 478.31 352.92 473.58 354.65 470.13 358.15 C 467.15 360.85 470.32 365.94 473.95 365.70 C 478.68 365.59 482.95 363.19 487.06 361.08 C 494.18 357.07 501.71 353.39 507.39 347.35 C 512.95 341.85 516.59 334.61 518.05 326.94 C 521.50 310.42 524.59 293.79 526.83 277.06 Z" />
<path fill="#ffffff" opacity="1.00" d=" M 513.27 269.41 C 514.62 269.02 515.98 268.70 517.37 268.45 C 517.14 278.14 514.55 287.57 513.25 297.14 C 512.53 300.31 512.60 304.94 508.83 306.14 C 507.00 307.13 505.49 304.63 506.01 303.01 C 506.98 294.24 509.19 285.66 510.70 276.97 C 511.33 274.42 511.34 271.40 513.27 269.41 Z" />
<path fill="#ffffff" opacity="1.00" d=" M 330.23 284.31 C 332.25 283.46 334.33 285.18 334.55 287.21 C 335.50 292.50 335.99 297.87 337.23 303.11 C 337.53 305.19 338.48 307.47 337.40 309.47 C 335.02 310.42 332.61 308.34 332.41 305.97 C 331.45 299.29 330.15 292.64 329.45 285.93 C 329.65 285.53 330.04 284.71 330.23 284.31 Z" />
<path fill="#ffffff" opacity="1.00" d=" M 493.88 297.98 C 495.00 292.83 494.39 286.43 499.07 282.91 C 501.34 285.41 500.32 288.85 500.21 291.86 C 499.71 296.58 500.03 301.41 498.98 306.06 C 498.59 308.27 496.42 309.33 494.88 310.67 C 491.31 307.23 493.44 302.21 493.88 297.98 Z" />
<path fill="#ffffff" opacity="1.00" d=" M 344.21 295.72 C 345.93 296.18 347.98 296.68 348.25 298.78 C 349.54 303.83 350.66 308.96 351.30 314.13 C 350.41 316.60 346.97 316.34 346.35 313.88 C 344.85 307.99 343.23 301.83 344.21 295.72 Z" />
<path fill="#ffffff" opacity="1.00" d=" M 484.17 296.16 C 484.65 296.10 485.60 295.99 486.07 295.93 C 486.23 301.91 486.06 308.02 484.96 313.90 C 484.68 316.34 481.30 316.82 480.23 314.69 C 478.67 310.48 480.58 306.06 481.25 301.86 C 481.85 299.86 481.88 297.02 484.17 296.16 Z" />
</g>
<g id="#ca9656ff">
<path fill="#ca9656" opacity="1.00" d=" M 525.59 105.29 C 530.21 105.45 534.32 108.07 538.66 109.46 C 547.86 113.45 557.01 117.54 566.04 121.90 C 576.35 127.75 587.45 132.51 596.75 140.01 C 581.78 131.03 566.76 122.02 550.69 115.13 C 542.69 110.88 533.55 109.46 525.59 105.29 Z" />
<path fill="#ca9656" opacity="1.00" d=" M 238.89 135.22 C 241.49 132.82 244.58 131.04 247.93 129.92 C 245.25 131.73 242.44 133.34 239.58 134.85 L 238.89 135.22 Z" />
<path fill="#ca9656" opacity="1.00" d=" M 231.23 140.04 C 233.21 138.27 235.44 136.80 237.93 135.84 C 235.72 137.28 233.49 138.69 231.23 140.04 Z" />
<path fill="#ca9656" opacity="1.00" d=" M 601.14 142.93 C 604.73 144.76 608.06 147.05 611.21 149.55 C 618.28 154.85 625.30 160.23 632.08 165.89 C 635.46 169.56 639.87 172.08 643.14 175.85 C 652.60 186.32 663.97 195.10 671.92 206.84 C 668.00 202.50 664.09 198.14 660.26 193.71 C 642.66 174.50 622.46 157.84 601.14 142.93 Z" />
<path fill="#ca9656" opacity="1.00" d=" M 193.35 168.36 C 199.74 163.03 205.77 157.13 212.95 152.86 C 195.67 166.52 178.76 180.88 164.35 197.62 C 151.47 211.63 140.48 227.21 129.85 242.96 C 133.02 235.59 138.54 229.60 142.89 222.94 C 148.19 216.24 153.26 209.34 158.91 202.92 C 162.78 199.29 165.45 194.59 169.56 191.20 C 177.78 183.87 184.56 175.03 193.35 168.36 Z" />
<path fill="#ca9656" opacity="1.00" d=" M 377.70 203.91 C 382.68 197.56 391.33 195.85 398.98 195.88 C 405.09 195.91 412.26 198.04 414.73 204.24 C 417.64 212.17 415.26 220.74 415.26 228.93 C 415.77 234.36 410.32 236.82 407.49 240.48 C 406.37 241.62 408.05 242.81 409.14 243.02 C 414.15 243.29 419.61 242.04 424.21 244.72 C 426.12 245.79 426.85 247.96 427.45 249.93 C 429.12 255.68 431.01 261.36 432.93 267.03 C 436.41 265.87 439.74 264.32 443.18 263.05 C 447.05 261.34 452.09 264.81 451.80 269.05 C 451.56 272.02 449.46 274.33 447.72 276.57 C 442.48 282.52 436.93 288.28 430.38 292.79 C 434.06 296.69 437.34 301.47 437.25 307.07 C 437.33 315.40 437.54 323.72 437.67 332.05 C 433.83 332.23 429.30 331.29 426.19 334.14 C 423.45 336.80 423.53 340.97 423.51 344.51 C 428.50 342.80 432.93 339.86 437.68 337.61 C 447.74 332.43 457.97 327.53 467.71 321.76 C 469.15 321.09 469.70 319.58 469.78 318.09 C 471.11 306.11 472.29 294.10 472.80 282.06 C 472.75 276.09 472.55 269.76 469.73 264.35 C 467.26 259.47 460.97 258.60 458.14 254.06 C 452.98 245.75 449.80 236.15 443.27 228.72 C 441.15 226.06 437.87 224.97 434.77 223.93 C 433.40 225.16 431.35 226.06 430.95 228.05 C 429.91 234.08 431.67 240.61 436.23 244.83 C 438.20 246.27 436.41 250.01 434.09 249.03 C 427.37 246.58 423.22 239.84 422.01 233.04 C 420.35 226.75 420.53 219.29 425.20 214.28 C 430.64 208.36 440.63 205.10 447.63 210.22 C 457.35 216.74 465.87 226.30 468.21 238.07 C 468.66 241.32 471.98 242.79 473.99 245.00 C 482.97 253.31 485.87 266.62 483.05 278.29 C 490.68 270.85 498.27 263.37 505.80 255.83 C 510.80 250.59 517.01 244.76 524.87 245.68 C 528.79 245.71 531.68 248.56 535.05 250.10 C 538.25 250.10 541.69 248.50 544.71 250.22 C 548.60 252.23 550.37 256.72 550.40 260.92 C 551.06 277.29 550.91 293.68 551.66 310.05 C 551.70 318.68 552.32 327.49 549.99 335.91 C 547.78 345.12 542.40 353.04 538.58 361.59 C 534.95 369.54 531.48 377.57 528.75 385.88 C 527.24 390.68 524.23 395.02 520.04 397.85 C 514.74 401.43 508.53 403.21 502.74 405.79 C 472.40 418.82 442.36 433.06 415.11 451.87 C 393.25 437.18 369.91 424.78 345.75 414.33 C 335.45 409.68 324.74 405.81 315.00 399.99 C 309.68 396.82 304.99 392.38 302.47 386.64 C 294.85 370.26 287.67 353.64 281.47 336.66 C 277.56 326.71 279.16 315.86 279.75 305.48 C 280.63 288.64 282.49 271.88 283.78 255.07 C 283.84 251.40 286.25 247.93 289.75 246.76 C 292.69 245.61 295.85 246.62 298.80 247.19 C 304.12 240.46 315.03 241.45 320.45 247.54 C 330.30 259.02 340.08 270.60 350.64 281.42 C 351.04 271.64 351.18 261.16 356.48 252.56 C 360.45 246.08 367.01 241.90 373.65 238.55 C 377.31 236.72 374.91 232.06 374.52 229.04 C 371.73 220.76 372.20 211.00 377.70 203.91 M 394.52 211.10 C 394.31 218.09 389.50 223.65 383.71 227.01 C 385.18 232.15 387.05 237.54 386.04 242.93 C 384.83 246.54 380.90 247.96 378.03 249.99 C 370.90 254.17 365.25 260.99 363.22 269.08 C 359.74 282.43 360.66 296.39 361.23 310.03 C 361.47 313.15 361.41 316.38 362.47 319.37 C 364.60 323.65 369.20 325.78 373.35 327.63 C 379.91 330.31 386.63 332.69 392.82 336.20 C 401.32 340.78 408.50 347.33 415.48 353.91 C 417.12 352.57 418.77 351.23 420.41 349.89 C 416.16 347.69 411.68 345.89 407.69 343.23 C 405.59 341.86 404.01 339.69 403.71 337.16 C 402.75 331.62 402.64 325.46 405.45 320.42 C 408.98 315.59 415.91 316.56 420.63 313.57 C 422.36 311.70 423.39 309.31 424.94 307.31 C 425.87 310.59 426.40 314.92 423.51 317.40 C 419.46 319.89 413.88 321.16 411.97 326.05 C 410.69 330.05 410.87 334.65 412.47 338.54 C 413.99 339.99 416.02 338.20 416.66 336.69 C 417.53 333.09 417.90 329.38 419.07 325.84 C 422.76 325.31 426.49 325.21 430.21 325.00 C 430.20 319.31 430.26 313.61 431.06 307.96 C 430.04 304.47 426.60 301.60 423.06 300.89 C 419.88 302.33 420.01 306.54 417.61 308.71 C 415.53 308.67 413.79 307.30 411.85 306.73 C 408.72 308.13 405.80 311.39 402.05 310.11 C 397.37 308.56 395.40 303.29 394.53 298.86 C 392.59 289.43 396.96 280.32 401.17 272.16 C 402.80 269.85 400.06 267.92 399.17 265.94 C 395.13 259.94 396.09 251.83 400.09 246.07 C 401.77 243.92 399.10 241.74 398.36 239.78 C 403.13 235.22 408.15 229.85 408.59 222.91 C 408.47 218.96 407.19 214.51 403.56 212.41 C 400.89 210.62 397.55 211.08 394.52 211.10 M 418.81 254.78 C 418.35 256.35 418.03 257.99 417.35 259.50 C 416.15 261.54 413.61 262.02 411.63 262.98 C 412.66 273.54 401.32 279.93 400.52 290.01 C 400.71 293.51 401.55 298.28 405.49 299.39 C 409.87 300.34 414.45 300.21 418.89 299.72 C 419.96 295.16 418.64 290.39 419.68 285.85 C 421.27 282.16 425.83 282.85 429.08 282.47 C 434.77 282.12 437.91 276.55 440.29 272.07 C 435.92 273.10 431.45 274.46 426.91 273.85 C 424.75 273.60 422.23 273.00 421.15 270.91 C 420.07 267.67 422.80 265.17 424.52 262.82 C 423.98 260.57 423.60 258.27 422.70 256.13 C 421.62 255.23 420.09 255.21 418.81 254.78 M 312.78 268.68 C 313.61 276.85 315.22 284.93 316.29 293.08 C 316.94 296.88 317.09 300.83 318.52 304.45 C 319.24 306.32 321.51 306.58 323.05 307.48 C 324.70 305.68 326.54 303.59 325.78 300.93 C 324.36 292.12 322.14 283.45 320.42 274.70 C 319.80 272.71 319.82 270.23 318.16 268.78 C 316.64 267.38 314.53 268.51 312.78 268.68 M 526.83 277.06 C 524.59 293.79 521.50 310.42 518.05 326.94 C 516.59 334.61 512.95 341.85 507.39 347.35 C 501.71 353.39 494.18 357.07 487.06 361.08 C 482.95 363.19 478.68 365.59 473.95 365.70 C 470.32 365.94 467.15 360.85 470.13 358.15 C 473.58 354.65 478.31 352.92 482.39 350.30 C 488.26 346.57 494.80 343.72 499.86 338.85 C 504.53 334.52 505.99 327.69 505.27 321.56 C 502.30 321.76 499.32 322.29 496.71 323.77 C 480.19 332.39 463.03 339.71 446.61 348.52 C 441.29 351.39 435.74 354.13 431.47 358.50 C 421.27 369.10 416.91 384.07 415.47 398.39 C 414.88 391.12 413.35 383.92 410.75 377.10 C 407.20 367.97 402.05 358.79 393.37 353.64 C 376.07 343.30 357.38 335.61 339.45 326.48 C 335.14 324.18 330.76 321.63 325.73 321.54 C 324.48 328.62 327.13 336.63 333.18 340.80 C 340.85 346.41 349.41 350.62 357.51 355.54 C 359.49 356.82 361.82 358.41 362.00 361.00 C 361.70 363.92 358.85 366.29 355.89 365.65 C 349.11 364.70 343.33 360.66 337.42 357.51 C 329.42 353.31 322.09 347.40 317.44 339.56 C 313.74 333.35 312.58 326.09 311.41 319.07 C 309.24 305.10 307.59 291.05 305.97 277.01 C 305.65 274.22 305.09 270.90 302.39 269.39 C 301.17 268.49 299.60 269.91 298.66 270.70 C 296.12 273.80 296.51 278.13 296.21 281.89 C 295.94 295.01 295.24 308.15 293.51 321.16 C 292.71 328.27 295.64 335.03 298.74 341.24 C 303.97 351.79 308.09 362.87 313.78 373.19 C 316.50 378.39 321.42 381.91 326.65 384.32 C 347.68 395.44 370.04 403.78 391.02 415.00 C 399.45 419.42 407.30 424.80 415.27 429.95 C 418.39 428.83 420.82 426.41 423.63 424.72 C 450.25 407.05 481.01 397.28 508.83 381.83 C 512.56 379.62 515.54 376.29 517.52 372.45 C 522.36 363.43 526.11 353.89 530.47 344.64 C 532.92 339.22 535.90 333.94 537.12 328.06 C 538.62 321.47 537.43 314.69 537.30 308.03 C 536.65 296.66 537.31 285.27 536.72 273.91 C 536.65 271.55 535.68 268.67 533.02 268.23 C 528.96 268.98 527.42 273.49 526.83 277.06 M 513.27 269.41 C 511.34 271.40 511.33 274.42 510.70 276.97 C 509.19 285.66 506.98 294.24 506.01 303.01 C 505.49 304.63 507.00 307.13 508.83 306.14 C 512.60 304.94 512.53 300.31 513.25 297.14 C 514.55 287.57 517.14 278.14 517.37 268.45 C 515.98 268.70 514.62 269.02 513.27 269.41 M 330.23 284.31 C 330.04 284.71 329.65 285.53 329.45 285.93 C 330.15 292.64 331.45 299.29 332.41 305.97 C 332.61 308.34 335.02 310.42 337.40 309.47 C 338.48 307.47 337.53 305.19 337.23 303.11 C 335.99 297.87 335.50 292.50 334.55 287.21 C 334.33 285.18 332.25 283.46 330.23 284.31 M 493.88 297.98 C 493.44 302.21 491.31 307.23 494.88 310.67 C 496.42 309.33 498.59 308.27 498.98 306.06 C 500.03 301.41 499.71 296.58 500.21 291.86 C 500.32 288.85 501.34 285.41 499.07 282.91 C 494.39 286.43 495.00 292.83 493.88 297.98 M 344.21 295.72 C 343.23 301.83 344.85 307.99 346.35 313.88 C 346.97 316.34 350.41 316.60 351.30 314.13 C 350.66 308.96 349.54 303.83 348.25 298.78 C 347.98 296.68 345.93 296.18 344.21 295.72 M 484.17 296.16 C 481.88 297.02 481.85 299.86 481.25 301.86 C 480.58 306.06 478.67 310.48 480.23 314.69 C 481.30 316.82 484.68 316.34 484.96 313.90 C 486.06 308.02 486.23 301.91 486.07 295.93 C 485.60 295.99 484.65 296.10 484.17 296.16 Z" />
<path fill="#ca9656" opacity="1.00" d=" M 123.87 252.90 C 125.01 249.69 126.76 246.76 128.97 244.18 C 127.55 247.24 125.76 250.11 123.87 252.90 Z" />
<path fill="#ca9656" opacity="1.00" d=" M 729.13 537.18 C 729.95 534.75 730.84 532.34 731.76 529.94 C 731.18 532.45 730.36 534.91 729.13 537.18 Z" />
<path fill="#ca9656" opacity="1.00" d=" M 703.12 591.94 C 704.33 589.61 705.67 587.35 707.09 585.13 C 706.30 586.99 705.50 588.85 704.72 590.72 C 704.32 591.02 703.52 591.64 703.12 591.94 Z" />
<path fill="#ca9656" opacity="1.00" d=" M 607.11 696.10 C 618.66 687.41 630.01 678.45 640.94 668.98 C 637.97 672.69 633.74 675.08 630.56 678.60 C 622.85 684.56 615.64 691.32 607.11 696.10 Z" />
<path fill="#ca9656" opacity="1.00" d=" M 245.76 711.97 C 248.17 713.17 250.52 714.49 252.80 715.93 C 250.19 715.12 247.65 713.99 245.76 711.97 Z" />
</g>
<g id="#ba1b40ff">
<path fill="#ba1b40" opacity="1.00" d=" M 267.07 488.10 C 278.55 483.28 291.92 483.97 303.38 488.51 C 306.43 489.84 310.33 491.20 310.98 494.96 C 310.40 501.15 308.69 507.18 307.72 513.32 C 304.16 513.37 300.59 513.31 297.03 513.10 C 296.12 507.99 295.86 502.70 294.16 497.77 C 287.37 493.01 277.32 492.89 270.36 497.32 C 266.60 503.12 267.20 511.79 272.81 516.24 C 282.82 524.33 296.78 525.71 306.22 534.71 C 312.11 540.12 313.55 548.94 311.56 556.43 C 309.94 561.58 306.35 566.07 301.64 568.73 C 292.56 574.12 281.44 574.80 271.18 573.45 C 263.69 572.57 256.24 570.40 249.88 566.24 C 249.86 559.82 249.91 553.40 250.02 546.98 C 253.92 546.68 257.84 546.61 261.75 546.70 C 262.49 551.55 263.78 556.29 265.14 561.00 C 272.27 564.74 280.78 565.19 288.53 563.42 C 292.82 562.58 294.35 557.87 294.78 554.07 C 295.40 549.35 292.28 544.97 288.30 542.74 C 278.53 536.84 266.66 534.80 257.86 527.23 C 250.32 520.95 248.39 509.38 252.72 500.73 C 255.61 494.82 261.14 490.66 267.07 488.10 Z" />
<path fill="#ba1b40" opacity="1.00" d=" M 345.37 487.38 C 358.60 482.62 373.65 484.71 385.88 491.33 C 386.59 493.09 387.77 494.87 387.23 496.87 C 386.45 502.41 385.27 507.89 384.05 513.35 C 380.47 513.38 376.89 513.34 373.33 512.97 C 372.85 507.72 371.97 502.52 370.65 497.41 C 363.92 493.56 355.37 493.01 348.33 496.35 C 345.80 497.56 345.23 500.62 344.72 503.11 C 343.40 508.50 346.12 514.26 350.63 517.31 C 360.32 524.24 372.93 526.04 381.97 534.04 C 388.06 539.31 390.46 548.28 388.12 555.94 C 386.25 563.24 379.99 568.62 373.13 571.20 C 362.92 574.99 351.63 574.60 341.13 572.32 C 336.06 571.01 330.81 569.47 326.65 566.18 C 325.82 559.83 326.52 553.34 326.75 546.94 C 330.53 546.69 334.31 546.62 338.10 546.66 C 339.17 551.30 339.88 556.07 341.63 560.52 C 343.35 562.35 346.04 562.85 348.36 563.56 C 353.90 564.64 359.78 564.82 365.26 563.32 C 370.15 562.22 371.29 556.31 371.17 552.05 C 371.12 547.26 367.04 543.92 363.22 541.78 C 353.59 536.61 342.31 534.28 333.97 526.87 C 326.65 520.49 324.77 509.01 329.35 500.51 C 332.58 494.12 338.80 489.83 345.37 487.38 Z" />
<path fill="#ba1b40" opacity="1.00" d=" M 416.64 489.77 C 428.53 483.21 443.32 483.54 455.78 488.30 C 459.02 489.68 463.24 491.01 463.97 494.99 C 463.34 501.17 461.65 507.18 460.69 513.31 C 457.13 513.37 453.56 513.31 450.01 513.10 C 449.07 508.02 448.85 502.74 447.11 497.85 C 442.36 494.07 435.61 493.54 429.83 494.71 C 427.07 495.38 423.38 495.96 422.35 499.07 C 420.47 503.45 420.25 508.92 422.96 513.02 C 425.05 516.26 428.38 518.40 431.71 520.19 C 440.25 524.69 449.97 527.10 457.58 533.26 C 467.14 540.51 468.04 556.16 459.69 564.66 C 453.36 571.29 443.89 573.58 435.03 574.00 C 423.93 574.22 412.36 572.34 402.87 566.28 C 402.91 559.84 402.84 553.41 403.02 546.98 C 406.91 546.68 410.80 546.61 414.70 546.69 C 415.49 551.53 416.73 556.29 418.12 560.99 C 425.24 564.78 433.82 565.20 441.56 563.37 C 446.19 562.44 447.59 557.10 447.72 553.03 C 448.00 548.30 444.49 544.43 440.59 542.30 C 430.93 536.78 419.44 534.62 410.84 527.25 C 405.09 522.42 402.40 514.46 403.70 507.10 C 404.72 499.59 410.10 493.28 416.64 489.77 Z" />
<path fill="#ba1b40" opacity="1.00" d=" M 476.77 486.90 C 501.78 486.67 526.83 487.63 551.80 485.88 C 552.74 487.58 554.30 489.10 554.60 491.08 C 554.43 497.98 553.31 504.81 552.87 511.69 C 549.34 512.00 545.79 511.88 542.28 511.39 C 541.41 506.24 540.22 501.16 539.09 496.08 C 533.98 495.62 528.87 495.22 523.74 495.27 C 523.62 513.16 523.55 531.05 523.77 548.94 C 524.31 553.09 523.30 557.71 525.45 561.51 C 528.28 563.72 531.96 564.31 535.20 565.73 C 534.94 567.85 534.41 569.92 533.94 572.00 C 521.38 571.98 508.83 572.04 496.28 571.97 C 495.93 569.82 495.41 567.71 495.21 565.55 C 498.72 564.27 502.35 563.39 505.88 562.20 C 507.45 539.93 506.80 517.59 506.85 495.29 C 501.69 495.24 496.54 495.67 491.40 496.14 C 490.34 501.46 489.11 506.75 487.89 512.04 C 484.18 512.11 480.46 512.02 476.77 511.58 C 476.13 503.37 476.13 495.11 476.77 486.90 Z" />
<path fill="#ba1b40" opacity="1.00" d=" M 562.47 487.13 C 585.31 486.35 608.25 487.72 631.08 485.85 C 632.20 487.77 634.48 489.50 633.93 491.98 C 633.01 498.37 631.59 504.69 630.74 511.10 C 627.30 511.08 623.83 511.34 620.43 510.75 C 619.33 505.95 618.66 501.07 617.62 496.27 C 609.13 495.61 600.51 494.56 592.06 496.10 C 589.61 496.30 590.51 499.32 590.16 500.95 C 590.15 509.21 589.48 517.46 589.71 525.72 C 598.75 525.36 607.78 524.72 616.83 524.67 C 617.28 525.27 618.17 526.47 618.61 527.07 C 618.12 529.84 617.62 532.60 617.05 535.36 C 607.93 535.11 598.79 535.18 589.68 534.59 C 589.47 541.40 589.94 548.19 590.09 554.99 C 590.15 557.26 590.64 559.50 591.26 561.68 C 600.30 564.33 610.00 563.41 619.23 562.38 C 621.05 557.64 621.63 552.52 623.09 547.66 C 626.75 547.64 630.42 547.65 634.09 547.89 C 634.32 555.92 634.31 563.96 634.09 572.00 C 610.17 571.96 586.25 572.08 562.33 571.94 C 561.97 569.74 561.60 567.55 561.23 565.35 C 564.83 564.44 568.39 563.35 571.93 562.22 C 573.28 546.51 572.81 530.74 572.89 514.99 C 572.70 509.42 572.83 503.78 571.64 498.31 C 569.26 494.99 564.68 494.57 561.10 493.17 C 561.54 491.15 561.88 489.11 562.47 487.13 Z" />
<path fill="#ba1b40" opacity="1.00" d=" M 197.95 486.89 C 210.50 486.92 223.05 486.82 235.60 486.95 C 235.98 489.06 236.37 491.18 236.77 493.30 C 233.21 494.36 229.68 495.48 226.09 496.44 C 224.59 511.24 225.27 526.13 225.11 540.97 C 225.18 547.52 224.89 554.20 226.38 560.62 C 228.73 563.88 233.30 564.18 236.82 565.56 C 236.37 567.68 235.96 569.81 235.55 571.94 C 223.00 572.07 210.46 571.97 197.91 572.00 C 197.43 569.81 197.00 567.62 196.63 565.42 C 200.24 564.42 203.83 563.33 207.42 562.23 C 208.17 547.86 208.54 533.43 208.19 519.03 C 207.35 511.86 209.22 504.23 206.53 497.37 C 203.68 495.06 199.92 494.40 196.54 493.19 C 196.98 491.08 197.45 488.98 197.95 486.89 Z" />
</g>
</svg>
