<?xml version="1.0" encoding="UTF-8" ?>
<!DOCTYPE svg PUBLIC "-//W3C//DTD SVG 1.1//EN" "http://www.w3.org/Graphics/SVG/1.1/DTD/svg11.dtd">
<svg width="824pt" height="1067pt" viewBox="0 0 824 1067" version="1.1" xmlns="http://www.w3.org/2000/svg">
<g id="#ff704eff">
<path fill="#ff704e" opacity="1.00" d=" M 400.71 0.00 L 423.16 0.00 C 470.07 1.48 516.77 10.60 560.52 27.69 C 630.66 54.81 692.90 101.72 738.62 161.40 C 786.93 224.04 816.51 300.93 822.37 379.84 C 828.06 454.08 813.23 528.69 786.82 597.90 C 764.58 656.15 734.41 711.12 699.85 762.92 C 647.09 841.70 584.43 913.52 516.54 979.57 C 486.23 1008.72 455.04 1037.01 422.11 1063.18 C 416.25 1068.21 406.86 1068.00 401.15 1062.84 C 359.82 1029.80 320.93 993.79 283.65 956.27 C 234.96 906.96 189.35 854.51 148.59 798.44 C 103.17 735.75 63.50 668.35 36.07 595.78 C 14.02 537.51 0.47 475.64 0.00 413.19 L 0.00 410.41 C 0.28 406.94 0.25 403.46 0.27 399.99 C 1.42 358.58 8.81 317.34 22.31 278.18 C 38.02 232.30 62.04 189.30 92.72 151.75 C 143.73 89.00 213.56 41.70 290.93 18.04 C 326.48 7.03 363.54 1.19 400.71 0.00 M 367.05 89.45 C 365.70 88.09 364.72 88.23 364.12 89.89 C 363.54 89.96 362.39 90.12 361.81 90.19 C 361.05 88.79 357.73 88.96 358.11 90.88 C 357.32 90.99 355.75 91.20 354.96 91.31 C 353.54 90.02 352.57 90.22 352.07 91.90 C 351.33 92.01 349.86 92.22 349.12 92.32 L 348.43 91.71 L 347.37 91.97 L 347.06 92.82 C 346.52 92.93 345.44 93.14 344.89 93.24 C 343.47 91.98 342.51 92.20 342.04 93.90 L 340.82 94.18 C 340.03 92.79 336.71 92.98 337.10 94.92 L 335.92 95.21 C 334.43 93.99 333.49 94.25 333.08 95.98 C 325.63 97.65 318.28 99.86 311.02 102.23 L 310.29 101.62 L 309.24 101.92 L 308.97 102.78 L 307.99 103.13 L 307.23 102.59 L 306.21 102.98 L 306.00 103.87 L 305.42 104.03 C 294.92 106.26 285.24 111.24 275.34 115.24 C 263.06 121.61 250.29 127.10 238.71 134.73 C 236.95 135.96 234.66 136.64 233.53 138.60 C 233.40 138.71 233.14 138.92 233.01 139.02 L 232.20 138.55 L 231.21 139.01 L 231.09 139.90 C 230.83 140.18 230.31 140.73 230.05 141.01 L 229.25 140.54 L 228.27 140.99 L 228.14 141.88 C 227.87 142.16 227.32 142.71 227.05 142.98 L 226.23 142.55 L 225.29 143.08 L 225.23 144.01 C 225.01 144.18 224.57 144.50 224.35 144.66 C 221.81 145.56 218.93 146.72 217.78 149.37 C 213.51 152.39 209.32 155.55 205.26 158.84 C 198.81 162.16 194.09 168.05 188.24 172.28 C 181.61 178.55 175.33 185.19 168.79 191.56 C 165.05 194.93 162.46 199.31 158.75 202.71 C 155.13 207.55 150.40 211.63 147.88 217.22 C 144.97 220.94 142.12 224.72 139.48 228.64 C 138.38 229.14 137.51 229.91 136.88 230.93 C 134.51 234.55 132.05 238.13 129.87 241.87 C 127.69 245.58 124.70 248.92 123.76 253.23 C 123.68 253.36 123.52 253.63 123.44 253.77 L 122.44 254.35 C 115.66 265.72 109.71 277.62 104.72 289.90 C 103.40 293.37 101.12 296.60 101.07 300.43 C 99.55 304.30 98.07 308.19 96.92 312.19 C 94.77 311.61 93.75 315.61 95.26 316.90 L 94.86 318.00 L 93.97 318.23 L 93.63 319.27 L 94.21 320.02 C 93.02 323.69 91.77 327.35 90.92 331.11 L 90.03 331.36 L 89.68 332.39 L 90.24 333.12 C 90.15 333.60 89.98 334.56 89.90 335.04 C 88.17 335.42 87.90 336.36 89.08 337.85 L 88.88 339.04 C 87.16 339.44 86.90 340.38 88.09 341.86 L 87.89 343.03 C 86.17 343.42 85.90 344.36 87.09 345.85 L 86.88 347.05 C 85.19 347.54 84.99 348.50 86.29 349.93 C 85.39 353.97 84.52 358.03 83.92 362.13 C 81.98 361.78 81.82 365.09 83.23 365.86 C 83.14 366.41 82.97 367.52 82.88 368.07 C 81.21 368.65 81.06 369.63 82.42 371.00 C 77.46 404.12 77.39 438.00 82.29 471.13 C 80.86 471.85 80.94 475.21 82.89 474.89 C 82.98 475.46 83.16 476.61 83.25 477.18 C 81.82 477.91 81.97 481.23 83.91 480.90 C 84.00 481.47 84.18 482.59 84.27 483.16 C 82.84 483.89 82.99 487.21 84.93 486.88 L 85.23 488.12 C 83.87 488.89 83.99 492.19 85.91 491.87 L 86.17 493.11 C 84.96 494.57 85.21 495.51 86.93 495.93 C 86.98 496.29 87.09 497.01 87.15 497.38 C 87.29 500.05 87.11 503.21 89.01 505.34 L 89.28 506.04 C 88.01 507.45 88.20 508.41 89.86 508.92 L 90.26 509.91 L 89.66 510.62 L 89.96 511.67 L 90.84 511.95 L 91.23 513.15 C 89.74 514.64 90.64 518.84 92.85 518.75 L 93.14 520.01 L 92.61 520.78 L 93.02 521.80 L 93.92 521.99 C 94.92 526.30 96.55 530.44 98.04 534.60 C 100.18 544.89 105.45 554.21 109.35 563.90 C 113.31 571.58 116.81 579.51 121.28 586.91 C 122.28 588.49 122.74 590.65 124.63 591.46 C 125.62 593.19 126.60 594.93 127.70 596.60 C 129.15 602.07 133.46 606.14 136.21 610.97 C 137.86 613.20 138.88 616.14 141.54 617.41 C 144.48 621.63 147.60 625.72 150.81 629.74 C 154.14 636.50 160.31 641.23 164.70 647.25 C 172.83 655.46 180.94 663.72 189.26 671.74 C 193.16 674.22 195.76 678.47 200.19 680.13 C 203.79 683.12 207.33 686.23 211.25 688.80 C 210.15 690.33 212.82 692.20 214.03 690.89 C 214.32 691.13 214.90 691.61 215.19 691.84 C 214.13 693.39 216.84 695.18 218.04 693.89 C 218.18 694.01 218.46 694.25 218.60 694.37 C 219.55 696.02 221.25 696.97 222.78 698.02 C 226.19 700.24 229.13 703.40 233.25 704.30 C 233.48 704.44 233.93 704.70 234.16 704.84 L 234.16 705.77 L 235.07 706.36 L 235.93 705.99 C 236.08 706.10 236.39 706.32 236.54 706.43 C 236.90 706.83 237.61 707.61 237.96 708.01 C 245.02 712.40 252.36 716.30 259.58 720.41 C 267.62 724.65 276.07 728.03 284.34 731.80 C 285.72 732.43 287.15 733.07 288.73 732.91 C 298.39 736.78 308.19 740.42 318.25 743.10 C 318.08 745.32 322.37 746.27 323.84 744.74 L 325.05 745.05 C 325.41 746.78 326.34 747.06 327.82 745.89 L 328.98 746.20 L 329.28 747.06 L 330.34 747.34 L 331.04 746.73 C 331.53 746.84 332.50 747.06 332.99 747.17 L 333.27 748.04 L 334.31 748.34 L 335.03 747.76 C 335.53 747.84 336.54 748.01 337.04 748.09 C 337.47 749.79 338.41 750.04 339.86 748.83 L 341.11 749.09 C 340.74 751.01 344.06 751.17 344.86 749.81 L 346.10 750.08 C 345.72 752.01 349.04 752.23 349.83 750.83 L 351.10 751.07 C 350.77 752.99 354.08 753.15 354.82 751.73 C 355.39 751.83 356.54 752.01 357.12 752.10 C 356.77 754.02 360.09 754.14 360.86 752.77 C 361.43 752.86 362.57 753.04 363.14 753.13 C 363.76 754.77 364.74 754.91 366.07 753.55 C 399.54 758.35 433.78 758.12 467.17 752.75 C 467.91 754.15 471.28 754.05 470.91 752.11 C 471.47 752.02 472.59 751.85 473.16 751.76 C 473.90 753.17 477.23 753.00 476.88 751.07 C 479.00 750.83 481.11 750.42 483.16 749.81 C 483.94 751.17 487.25 751.01 486.89 749.09 L 488.13 748.84 C 489.58 750.04 490.52 749.79 490.95 748.09 C 491.45 748.01 492.44 747.84 492.94 747.76 L 493.65 748.35 L 494.70 748.05 L 494.98 747.18 C 495.47 747.07 496.45 746.84 496.95 746.73 L 497.65 747.34 L 498.71 747.07 L 499.01 746.21 L 500.16 745.91 C 501.64 747.09 502.57 746.81 502.96 745.08 L 504.17 744.75 C 505.62 746.31 509.94 745.39 509.72 743.12 L 510.41 742.94 C 514.99 743.10 519.04 740.57 523.38 739.48 C 545.04 731.89 566.17 722.58 585.75 710.54 C 587.71 709.25 590.21 708.52 591.45 706.37 C 596.60 703.14 601.77 699.93 606.65 696.29 C 609.31 695.50 612.10 694.14 613.34 691.49 C 613.49 691.35 613.81 691.07 613.97 690.93 C 615.17 692.24 617.83 690.36 616.76 688.83 C 620.52 686.21 624.16 683.39 627.59 680.34 C 630.36 680.16 632.03 677.80 633.23 675.59 C 633.35 675.48 633.59 675.27 633.72 675.16 C 636.86 673.53 639.62 671.26 642.00 668.64 C 651.11 659.21 660.99 650.48 669.29 640.31 C 674.48 633.98 680.32 627.99 684.16 620.71 C 684.30 620.52 684.56 620.13 684.69 619.93 L 685.62 619.94 L 686.23 619.05 L 685.90 618.19 C 686.14 617.85 686.63 617.15 686.87 616.81 C 688.43 617.86 690.22 615.11 688.89 613.94 C 689.10 613.65 689.51 613.05 689.72 612.76 C 691.91 613.63 693.87 609.96 692.84 608.15 C 695.61 604.40 698.05 600.42 700.44 596.42 C 703.17 594.43 704.16 590.97 705.96 588.23 C 710.79 580.40 714.44 571.93 718.73 563.80 C 719.76 561.75 721.10 559.70 720.94 557.30 C 722.77 553.39 724.35 549.36 725.95 545.35 C 727.99 543.27 728.72 540.33 728.93 537.52 C 732.16 529.10 734.89 520.48 737.15 511.75 C 739.36 511.90 740.25 507.54 738.75 506.08 L 739.08 504.88 C 740.79 504.41 741.03 503.47 739.80 502.04 L 740.12 500.91 C 741.79 500.38 741.99 499.42 740.72 498.01 C 740.83 497.49 741.03 496.45 741.13 495.93 C 742.82 495.47 743.07 494.52 741.87 493.06 L 742.07 491.90 C 743.99 492.24 744.17 488.92 742.82 488.12 L 743.05 486.94 C 744.97 487.25 745.14 483.93 743.77 483.15 C 743.86 482.61 744.04 481.54 744.12 481.01 L 744.99 480.72 L 745.25 479.66 L 744.62 478.95 C 745.09 475.59 745.67 472.26 746.03 468.89 C 748.13 469.03 748.02 465.24 746.72 464.18 C 746.81 463.35 747.00 461.70 747.09 460.87 C 749.29 460.68 748.99 456.57 747.72 455.25 C 747.95 453.50 747.99 451.74 748.11 450.00 L 749.02 450.00 C 749.05 447.25 749.04 444.50 748.86 441.76 C 749.54 428.26 749.42 414.75 748.85 401.26 C 749.05 398.36 749.11 395.44 748.88 392.55 L 748.19 393.42 C 747.78 388.25 747.45 383.06 746.57 377.95 C 747.97 377.23 748.02 373.92 746.10 374.13 C 746.01 373.56 745.85 372.42 745.77 371.86 C 747.13 371.08 747.02 367.77 745.10 368.11 C 745.03 367.54 744.88 366.40 744.80 365.83 C 746.21 365.06 746.03 361.74 744.11 362.10 C 744.02 361.54 743.83 360.41 743.74 359.85 C 745.14 359.09 745.00 355.75 743.07 356.13 L 742.76 354.85 C 744.14 354.09 743.99 350.83 742.10 351.10 L 741.85 349.87 C 743.03 348.39 742.76 347.45 741.04 347.06 C 740.07 341.23 738.50 335.49 736.73 329.85 C 738.29 328.39 737.37 324.08 735.17 324.25 L 734.85 322.98 L 735.38 322.21 L 734.98 321.19 L 734.08 321.00 C 730.33 308.23 725.48 295.75 719.94 283.65 C 719.88 283.09 719.77 281.96 719.71 281.40 C 711.39 263.40 701.52 246.12 690.25 229.79 C 689.23 228.25 687.96 226.88 686.52 225.73 C 686.37 225.55 686.08 225.21 685.93 225.04 C 687.22 223.86 685.44 221.14 683.89 222.20 C 683.65 221.91 683.16 221.34 682.92 221.05 C 684.23 219.86 682.42 217.15 680.87 218.20 C 680.63 217.90 680.13 217.29 679.88 216.99 C 681.21 215.37 678.75 212.13 676.91 213.26 C 676.73 213.02 676.37 212.54 676.20 212.30 C 676.18 209.56 673.71 208.09 671.72 206.73 C 671.60 206.59 671.36 206.30 671.25 206.16 C 670.95 203.73 668.82 202.36 667.33 200.67 C 660.35 191.81 651.70 184.47 643.94 176.31 C 640.45 172.34 635.86 169.62 632.29 165.75 C 625.81 160.50 619.34 155.24 612.59 150.35 C 609.74 148.33 607.22 145.66 603.76 144.70 C 603.52 144.53 603.03 144.19 602.78 144.01 L 602.72 143.08 L 601.78 142.55 L 600.95 142.98 C 600.69 142.71 600.18 142.18 599.92 141.91 L 599.80 141.01 L 598.82 140.55 L 598.01 141.02 C 597.86 140.89 597.56 140.63 597.41 140.50 C 595.68 138.17 593.01 136.92 590.65 135.38 C 583.68 131.20 576.67 127.06 569.32 123.58 C 564.19 120.12 558.19 118.41 552.85 115.33 C 543.82 111.78 535.11 107.02 525.58 105.02 L 524.98 104.86 L 524.77 103.97 L 523.75 103.59 L 522.99 104.12 L 522.04 103.79 L 521.78 102.92 L 520.74 102.59 L 520.01 103.16 L 519.05 102.78 L 518.77 101.91 L 517.71 101.63 L 516.99 102.23 C 513.36 100.95 509.68 99.77 505.93 98.90 L 505.70 98.01 L 504.66 97.65 L 503.92 98.20 L 502.90 97.86 C 502.40 96.20 501.44 95.99 500.02 97.25 L 498.94 96.89 C 498.44 95.19 497.49 94.97 496.07 96.22 L 494.94 95.88 C 494.45 94.19 493.49 93.97 492.07 95.23 L 490.90 94.92 C 491.27 92.98 487.95 92.80 487.16 94.18 L 485.96 93.91 C 485.53 92.19 484.59 91.95 483.14 93.19 C 482.60 93.12 481.52 92.98 480.98 92.91 C 480.53 91.20 479.59 90.96 478.17 92.20 C 477.60 92.12 476.47 91.97 475.90 91.89 C 476.28 89.95 472.94 89.79 472.19 91.20 C 471.62 91.12 470.48 90.96 469.91 90.89 C 470.24 88.96 466.93 88.80 466.16 90.19 C 465.59 90.11 464.45 89.96 463.88 89.88 C 463.30 88.22 462.32 88.06 460.95 89.40 C 459.59 89.09 458.23 88.93 456.85 88.92 C 457.06 86.98 453.73 87.06 453.03 88.46 C 424.49 85.06 395.50 85.46 367.05 89.45 Z" />
</g>
<g id="#ffffffff">
<path fill="#ffffff" opacity="1.00" d=" M 367.05 89.45 C 395.50 85.46 424.49 85.06 453.03 88.46 C 454.27 88.78 455.55 88.99 456.85 88.92 C 458.23 88.93 459.59 89.09 460.95 89.40 C 461.87 89.86 462.85 90.02 463.88 89.88 C 464.45 89.96 465.59 90.11 466.16 90.19 C 467.37 90.57 468.61 90.88 469.91 90.89 C 470.48 90.96 471.62 91.12 472.19 91.20 C 473.39 91.57 474.62 91.88 475.90 91.89 C 476.47 91.97 477.60 92.12 478.17 92.20 C 479.02 92.76 479.95 93.00 480.98 92.91 C 481.52 92.98 482.60 93.12 483.14 93.19 C 484.00 93.74 484.94 93.98 485.96 93.91 L 487.16 94.18 C 488.37 94.58 489.61 94.87 490.90 94.92 L 492.07 95.23 C 492.95 95.76 493.90 95.98 494.94 95.88 L 496.07 96.22 C 496.94 96.76 497.90 96.98 498.94 96.89 L 500.02 97.25 C 500.90 97.79 501.86 97.99 502.90 97.86 L 503.92 98.20 C 504.43 98.37 505.43 98.72 505.93 98.90 C 509.68 99.77 513.36 100.95 516.99 102.23 C 517.51 102.37 518.53 102.64 519.05 102.78 L 520.01 103.16 C 520.52 103.32 521.53 103.63 522.04 103.79 L 522.99 104.12 C 523.49 104.31 524.49 104.67 524.98 104.86 L 525.58 105.02 C 542.20 111.18 558.54 118.19 574.09 126.74 C 582.08 130.96 589.64 135.90 597.41 140.50 C 597.56 140.63 597.86 140.89 598.01 141.02 C 598.49 141.24 599.44 141.69 599.92 141.91 C 600.18 142.18 600.69 142.71 600.95 142.98 C 601.41 143.24 602.32 143.76 602.78 144.01 C 603.03 144.19 603.52 144.53 603.76 144.70 C 614.58 152.72 625.50 160.64 635.50 169.69 C 648.35 180.88 660.15 193.23 671.25 206.16 C 671.36 206.30 671.60 206.59 671.72 206.73 C 673.17 208.62 674.68 210.46 676.20 212.30 C 676.37 212.54 676.73 213.02 676.91 213.26 C 677.77 214.59 678.76 215.84 679.88 216.99 C 680.13 217.29 680.63 217.90 680.87 218.20 C 681.36 219.27 682.03 220.25 682.92 221.05 C 683.16 221.34 683.65 221.91 683.89 222.20 C 684.37 223.27 685.03 224.26 685.93 225.04 C 686.08 225.21 686.37 225.55 686.52 225.73 C 699.32 244.02 710.68 263.32 719.94 283.65 C 725.48 295.75 730.33 308.23 734.08 321.00 C 734.27 321.49 734.66 322.48 734.85 322.98 L 735.17 324.25 C 735.53 326.15 736.05 328.03 736.73 329.85 C 738.50 335.49 740.07 341.23 741.04 347.06 C 740.99 348.08 741.26 349.02 741.85 349.87 L 742.10 351.10 C 742.07 352.38 742.33 353.64 742.76 354.85 L 743.07 356.13 C 743.08 357.39 743.35 358.63 743.74 359.85 C 743.83 360.41 744.02 361.54 744.11 362.10 C 744.12 363.37 744.42 364.61 744.80 365.83 C 744.88 366.40 745.03 367.54 745.10 368.11 C 745.08 369.38 745.37 370.63 745.77 371.86 C 745.85 372.42 746.01 373.56 746.10 374.13 C 746.03 375.41 746.23 376.70 746.57 377.95 C 747.45 383.06 747.78 388.25 748.19 393.42 C 748.29 396.04 748.62 398.64 748.85 401.26 C 749.42 414.75 749.54 428.26 748.86 441.76 C 748.64 444.50 748.27 447.24 748.11 450.00 C 747.99 451.74 747.95 453.50 747.72 455.25 C 747.37 457.10 747.07 458.97 747.09 460.87 C 747.00 461.70 746.81 463.35 746.72 464.18 C 746.35 465.73 746.06 467.29 746.03 468.89 C 745.67 472.26 745.09 475.59 744.62 478.95 C 744.50 479.46 744.25 480.49 744.12 481.01 C 744.04 481.54 743.86 482.61 743.77 483.15 C 743.38 484.37 743.09 485.64 743.05 486.94 L 742.82 488.12 C 742.42 489.34 742.11 490.60 742.07 491.90 L 741.87 493.06 C 741.31 493.93 741.06 494.89 741.13 495.93 C 741.03 496.45 740.83 497.49 740.72 498.01 C 740.20 498.91 740.00 499.87 740.12 500.91 L 739.80 502.04 C 739.25 502.90 739.00 503.85 739.08 504.88 L 738.75 506.08 C 738.09 507.93 737.51 509.81 737.15 511.75 C 734.89 520.48 732.16 529.10 728.93 537.52 C 727.85 540.10 726.87 542.71 725.95 545.35 C 724.35 549.36 722.77 553.39 720.94 557.30 C 714.80 570.70 707.97 583.76 700.44 596.42 C 698.05 600.42 695.61 604.40 692.84 608.15 C 691.62 609.56 690.57 611.10 689.72 612.76 C 689.51 613.05 689.10 613.65 688.89 613.94 C 688.05 614.76 687.35 615.72 686.87 616.81 C 686.63 617.15 686.14 617.85 685.90 618.19 C 685.59 618.63 684.99 619.50 684.69 619.93 C 684.56 620.13 684.30 620.52 684.16 620.71 C 669.17 640.45 652.36 658.81 633.72 675.16 C 633.59 675.27 633.35 675.48 633.23 675.59 C 631.32 677.13 629.40 678.67 627.59 680.34 C 624.16 683.39 620.52 686.21 616.76 688.83 C 615.70 689.34 614.74 690.03 613.97 690.93 C 613.81 691.07 613.49 691.35 613.34 691.49 C 611.08 693.06 608.82 694.61 606.65 696.29 C 601.77 699.93 596.60 703.14 591.45 706.37 C 566.13 721.92 538.90 734.42 510.41 742.94 L 509.72 743.12 C 507.82 743.52 505.99 744.10 504.17 744.75 L 502.96 745.08 C 501.93 745.05 500.99 745.32 500.16 745.91 L 499.01 746.21 C 498.49 746.34 497.46 746.60 496.95 746.73 C 496.45 746.84 495.47 747.07 494.98 747.18 C 494.47 747.32 493.45 747.62 492.94 747.76 C 492.44 747.84 491.45 748.01 490.95 748.09 C 489.92 748.00 488.98 748.25 488.13 748.84 L 486.89 749.09 C 485.61 749.11 484.36 749.37 483.16 749.81 C 481.11 750.42 479.00 750.83 476.88 751.07 C 475.60 751.09 474.36 751.38 473.16 751.76 C 472.59 751.85 471.47 752.02 470.91 752.11 C 469.63 752.12 468.38 752.39 467.17 752.75 C 433.78 758.12 399.54 758.35 366.07 753.55 C 365.13 753.09 364.15 752.95 363.14 753.13 C 362.57 753.04 361.43 752.86 360.86 752.77 C 359.64 752.37 358.39 752.09 357.12 752.10 C 356.54 752.01 355.39 751.83 354.82 751.73 C 353.61 751.34 352.36 751.07 351.10 751.07 L 349.83 750.83 C 348.61 750.44 347.37 750.13 346.10 750.08 L 344.86 749.81 C 343.64 749.41 342.39 749.11 341.11 749.09 L 339.86 748.83 C 339.00 748.25 338.06 748.00 337.04 748.09 C 336.54 748.01 335.53 747.84 335.03 747.76 C 334.52 747.61 333.50 747.31 332.99 747.17 C 332.50 747.06 331.53 746.84 331.04 746.73 C 330.53 746.60 329.50 746.34 328.98 746.20 L 327.82 745.89 C 326.98 745.28 326.06 745.01 325.05 745.05 L 323.84 744.74 C 322.01 744.08 320.16 743.46 318.25 743.10 C 308.19 740.42 298.39 736.78 288.73 732.91 C 270.66 725.47 253.31 716.44 236.54 706.43 C 236.39 706.32 236.08 706.10 235.93 705.99 C 235.49 705.70 234.60 705.13 234.16 704.84 C 233.93 704.70 233.48 704.44 233.25 704.30 C 228.38 700.97 223.53 697.61 218.60 694.37 C 218.46 694.25 218.18 694.01 218.04 693.89 C 217.24 693.00 216.26 692.32 215.19 691.84 C 214.90 691.61 214.32 691.13 214.03 690.89 C 213.24 690.01 212.31 689.30 211.25 688.80 C 207.33 686.23 203.79 683.12 200.19 680.13 C 186.53 668.46 173.41 656.10 161.65 642.49 C 157.89 638.36 154.55 633.88 150.81 629.74 C 147.60 625.72 144.48 621.63 141.54 617.41 C 136.85 610.52 132.30 603.54 127.70 596.60 C 126.60 594.93 125.62 593.19 124.63 591.46 C 114.21 573.29 105.23 554.29 98.04 534.60 C 96.55 530.44 94.92 526.30 93.92 521.99 C 93.72 521.50 93.33 520.51 93.14 520.01 L 92.85 518.75 C 92.52 516.82 91.95 514.96 91.23 513.15 L 90.84 511.95 C 90.69 511.44 90.40 510.42 90.26 509.91 L 89.86 508.92 C 90.01 507.88 89.81 506.92 89.28 506.04 L 89.01 505.34 C 88.45 502.67 87.82 500.02 87.15 497.38 C 87.09 497.01 86.98 496.29 86.93 495.93 C 86.99 494.90 86.74 493.96 86.17 493.11 L 85.91 491.87 C 85.91 490.58 85.65 489.33 85.23 488.12 L 84.93 486.88 C 84.90 485.60 84.64 484.36 84.27 483.16 C 84.18 482.59 84.00 481.47 83.91 480.90 C 83.89 479.62 83.62 478.38 83.25 477.18 C 83.16 476.61 82.98 475.46 82.89 474.89 C 82.88 473.60 82.62 472.35 82.29 471.13 C 77.39 438.00 77.46 404.12 82.42 371.00 C 82.86 370.07 83.01 369.09 82.88 368.07 C 82.97 367.52 83.14 366.41 83.23 365.86 C 83.61 364.64 83.89 363.40 83.92 362.13 C 84.52 358.03 85.39 353.97 86.29 349.93 C 86.78 349.02 86.97 348.06 86.88 347.05 L 87.09 345.85 C 87.67 345.00 87.93 344.06 87.89 343.03 L 88.09 341.86 C 88.66 341.00 88.93 340.06 88.88 339.04 L 89.08 337.85 C 89.67 337.00 89.94 336.06 89.90 335.04 C 89.98 334.56 90.15 333.60 90.24 333.12 C 90.41 332.62 90.75 331.62 90.92 331.11 C 91.77 327.35 93.02 323.69 94.21 320.02 C 94.37 319.51 94.70 318.50 94.86 318.00 L 95.26 316.90 C 95.91 315.36 96.51 313.80 96.92 312.19 C 98.07 308.19 99.55 304.30 101.07 300.43 C 107.44 284.38 114.95 268.80 123.44 253.77 C 123.52 253.63 123.68 253.36 123.76 253.23 C 128.79 244.90 134.04 236.71 139.48 228.64 C 142.12 224.72 144.97 220.94 147.88 217.22 C 157.55 205.19 167.50 193.35 178.64 182.65 C 186.93 174.08 196.24 166.61 205.26 158.84 C 209.32 155.55 213.51 152.39 217.78 149.37 C 220.08 147.95 222.29 146.41 224.35 144.66 C 224.57 144.50 225.01 144.18 225.23 144.01 C 225.68 143.75 226.60 143.24 227.05 142.98 C 227.32 142.71 227.87 142.16 228.14 141.88 C 228.62 141.67 229.57 141.23 230.05 141.01 C 230.31 140.73 230.83 140.18 231.09 139.90 C 231.57 139.68 232.53 139.24 233.01 139.02 C 233.14 138.92 233.40 138.71 233.53 138.60 C 256.19 124.58 280.22 112.76 305.42 104.03 L 306.00 103.87 C 306.50 103.68 307.49 103.31 307.99 103.13 L 308.97 102.78 C 309.48 102.64 310.51 102.37 311.02 102.23 C 318.28 99.86 325.63 97.65 333.08 95.98 C 334.10 96.01 335.05 95.76 335.92 95.21 L 337.10 94.92 C 338.37 94.87 339.61 94.59 340.82 94.18 L 342.04 93.90 C 343.05 93.99 344.01 93.77 344.89 93.24 C 345.44 93.14 346.52 92.93 347.06 92.82 C 347.58 92.70 348.61 92.45 349.12 92.32 C 349.86 92.22 351.33 92.01 352.07 91.90 C 353.09 92.01 354.05 91.81 354.96 91.31 C 355.75 91.20 357.32 90.99 358.11 90.88 C 359.37 90.89 360.60 90.58 361.81 90.19 C 362.39 90.12 363.54 89.96 364.12 89.89 C 365.14 90.05 366.11 89.90 367.05 89.45 M 377.76 203.82 C 372.24 210.92 371.66 220.74 374.54 229.04 C 374.93 232.08 377.31 236.74 373.65 238.62 C 366.73 241.88 360.09 246.43 356.13 253.13 C 351.21 261.61 351.05 271.74 350.65 281.26 C 342.46 273.46 335.39 264.52 327.77 256.15 C 323.87 252.10 321.09 246.69 315.86 244.13 C 310.31 241.39 302.62 241.96 298.83 247.32 C 296.09 246.69 293.22 245.59 290.42 246.55 C 286.62 247.50 283.77 251.16 283.77 255.08 C 282.45 272.70 280.46 290.27 279.60 307.92 C 278.96 317.50 277.83 327.51 281.47 336.67 C 287.78 353.88 295.02 370.74 302.81 387.33 C 307.48 397.35 318.21 402.03 327.64 406.48 C 346.70 414.67 365.82 422.85 383.97 432.97 C 394.73 438.68 404.96 445.30 415.22 451.84 C 441.98 433.26 471.56 419.27 501.37 406.37 C 507.10 403.76 513.22 401.96 518.67 398.74 C 523.50 395.92 527.15 391.22 528.76 385.86 C 533.35 371.89 539.86 358.65 546.54 345.58 C 552.67 333.29 552.03 319.26 551.48 305.94 C 550.93 290.70 551.03 275.44 550.34 260.20 C 550.32 255.75 547.72 251.01 543.29 249.66 C 540.55 248.71 537.80 250.14 535.06 250.28 C 531.81 248.51 528.90 245.70 524.95 245.70 C 518.68 244.87 513.06 248.63 508.81 252.83 C 500.25 261.43 491.59 269.92 482.94 278.42 C 485.16 269.74 484.18 260.15 479.74 252.33 C 477.13 247.42 472.76 243.91 468.78 240.20 C 466.51 226.72 456.82 215.46 445.19 208.80 C 437.62 205.63 428.48 209.59 423.86 215.98 C 419.59 222.20 420.95 230.20 423.07 236.93 C 424.74 242.29 428.77 246.95 434.01 249.05 C 436.38 249.92 437.25 247.10 437.07 245.30 C 431.60 241.53 430.01 234.26 430.95 228.04 C 431.30 225.99 433.28 225.04 434.89 224.10 C 437.74 224.92 440.77 225.78 442.73 228.18 C 449.80 235.77 452.96 245.95 458.47 254.58 C 461.22 258.59 466.82 259.38 469.31 263.67 C 472.44 268.84 472.63 275.16 472.82 281.04 C 472.38 293.71 471.07 306.33 469.68 318.93 C 469.65 320.20 468.81 321.23 467.72 321.79 C 454.47 329.51 440.49 335.87 427.03 343.20 C 425.94 343.65 424.83 344.00 423.68 344.25 C 423.16 340.99 423.70 337.38 425.65 334.68 C 428.64 331.22 433.59 332.17 437.62 332.08 C 437.96 327.04 437.21 322.01 437.35 316.97 C 437.33 312.64 437.56 308.28 436.93 303.98 C 436.19 299.57 433.31 295.94 430.30 292.80 C 436.54 288.67 441.70 283.20 446.73 277.71 C 448.62 275.40 450.83 273.11 451.65 270.17 C 452.94 265.52 447.41 261.17 443.12 263.01 C 439.77 264.40 436.47 265.92 432.99 266.95 C 430.39 260.34 428.74 253.37 426.26 246.74 C 422.74 242.07 416.03 242.88 410.89 243.14 C 409.26 243.58 406.62 242.44 407.33 240.46 C 410.06 237.08 415.22 234.89 415.20 229.93 C 415.38 224.28 416.05 218.65 416.15 212.99 C 416.22 208.65 415.52 203.87 412.35 200.63 C 408.50 196.50 402.41 195.84 397.08 195.88 C 390.06 196.22 382.31 198.01 377.76 203.82 M 261.88 490.85 C 254.74 495.19 249.79 503.34 250.50 511.84 C 250.65 518.42 254.12 524.73 259.48 528.52 C 268.30 535.27 279.64 537.24 288.92 543.15 C 292.97 545.52 295.71 550.38 294.64 555.12 C 294.05 558.62 292.45 562.73 288.50 563.43 C 280.76 565.13 272.15 564.86 265.11 560.90 C 263.81 556.23 262.39 551.58 261.83 546.75 C 257.89 546.56 253.94 546.65 250.02 547.01 C 249.91 553.40 249.86 559.79 249.88 566.19 C 254.40 569.27 259.61 571.20 264.93 572.39 C 274.45 574.41 284.52 574.86 293.95 572.12 C 300.47 570.12 306.91 566.30 310.06 560.01 C 314.30 551.76 312.88 540.48 305.74 534.25 C 296.45 525.85 283.24 524.22 273.40 516.74 C 267.32 512.40 266.45 503.36 270.35 497.31 C 276.36 493.39 284.47 493.31 291.05 495.92 C 292.25 496.56 293.99 496.94 294.45 498.42 C 295.78 503.21 296.20 508.18 297.02 513.07 C 300.59 513.34 304.18 513.40 307.77 513.27 C 308.66 507.75 309.95 502.30 310.84 496.78 C 311.60 493.87 309.37 491.06 306.74 490.07 C 292.91 483.24 275.24 482.49 261.88 490.85 M 346.98 486.82 C 339.62 489.21 332.51 493.84 329.10 501.01 C 324.82 509.45 326.80 520.60 333.96 526.86 C 341.54 533.58 351.60 536.19 360.59 540.43 C 364.44 542.26 368.43 544.64 370.41 548.59 C 371.76 552.13 371.33 556.26 369.69 559.64 C 368.21 563.51 363.43 563.88 359.91 564.26 C 353.73 564.55 346.84 564.40 341.65 560.64 C 339.94 556.14 339.17 551.35 338.10 546.67 C 334.35 546.67 330.59 546.52 326.87 547.03 C 326.31 553.34 325.93 559.90 326.66 566.14 C 334.13 571.70 343.83 573.23 352.92 573.96 C 363.43 574.41 375.18 572.71 382.93 564.91 C 390.93 557.10 391.01 542.85 382.99 535.02 C 373.98 526.18 360.67 524.52 350.63 517.30 C 346.08 514.25 343.37 508.43 344.74 503.01 C 345.25 500.56 345.82 497.55 348.32 496.34 C 355.36 493.06 363.99 493.47 370.66 497.49 C 371.97 502.54 372.87 507.70 373.29 512.91 C 376.84 513.41 380.44 513.38 384.03 513.32 C 385.34 507.90 386.37 502.40 387.25 496.89 C 387.85 494.83 386.63 493.03 385.75 491.30 C 374.07 484.91 359.78 482.86 346.98 486.82 M 420.88 487.75 C 412.90 490.82 405.60 497.26 403.89 505.94 C 402.19 513.59 404.75 522.10 410.78 527.20 C 419.38 534.60 430.90 536.78 440.58 542.29 C 444.49 544.43 448.01 548.30 447.73 553.04 C 447.57 557.09 446.20 562.47 441.57 563.36 C 433.84 565.16 425.17 564.87 418.11 560.92 C 416.73 556.26 415.42 551.56 414.76 546.74 C 410.85 546.57 406.92 546.65 403.02 547.00 C 402.84 553.43 402.89 559.86 402.89 566.29 C 411.79 572.02 422.58 573.92 433.01 574.04 C 442.29 573.93 452.29 571.88 459.16 565.20 C 467.45 557.34 467.50 542.58 459.21 534.72 C 452.46 528.33 443.32 525.67 435.07 521.84 C 430.74 519.79 426.21 517.52 423.32 513.55 C 420.13 509.23 420.37 503.16 422.63 498.48 C 423.32 496.56 425.50 495.97 427.24 495.34 C 433.77 493.40 441.58 493.58 447.16 497.84 C 448.80 502.75 449.07 508.00 450.01 513.07 C 453.56 513.34 457.13 513.39 460.71 513.29 C 461.61 507.77 462.91 502.33 463.80 496.81 C 464.64 493.91 462.32 491.10 459.73 490.07 C 447.83 484.21 433.35 482.90 420.88 487.75 M 476.76 486.91 C 476.25 494.99 475.96 503.16 476.85 511.23 C 480.27 512.64 484.25 511.83 487.90 512.01 C 489.11 506.74 490.35 501.47 491.38 496.16 C 496.53 495.67 501.69 495.19 506.87 495.34 C 506.81 517.60 507.41 539.89 505.92 562.12 C 502.32 563.51 498.52 564.27 494.95 565.73 C 495.56 567.76 495.96 569.85 496.30 571.95 C 508.84 572.07 521.37 571.96 533.91 572.00 C 534.44 569.84 534.88 567.65 535.24 565.46 C 531.18 564.07 524.54 563.55 524.25 558.06 C 523.85 551.69 523.53 545.31 523.66 538.93 C 523.75 524.38 523.47 509.82 523.80 495.27 C 528.90 495.20 533.98 495.64 539.06 496.06 C 540.19 501.10 541.46 506.12 542.17 511.24 C 545.70 512.06 549.34 511.99 552.93 511.63 C 553.28 504.74 554.41 497.90 554.65 491.00 C 554.32 489.04 552.70 487.57 551.74 485.90 C 526.78 487.61 501.75 486.66 476.76 486.91 M 562.59 486.81 C 562.02 488.91 561.54 491.04 561.11 493.17 C 564.70 494.59 569.30 494.98 571.69 498.34 C 572.82 504.14 572.75 510.09 572.90 515.98 C 572.82 531.39 573.24 546.82 571.95 562.19 C 568.44 563.35 564.91 564.49 561.29 565.26 C 561.58 567.48 561.94 569.70 562.32 571.92 C 586.25 572.10 610.17 571.95 634.10 572.00 C 634.30 563.96 634.32 555.94 634.10 547.92 C 630.44 547.62 626.77 547.63 623.11 547.66 C 621.75 552.34 620.91 557.15 619.59 561.83 C 618.91 563.00 617.21 562.57 616.11 562.85 C 607.88 563.17 599.24 564.38 591.30 561.61 C 590.60 559.47 590.07 557.27 590.08 555.02 C 589.99 548.21 589.43 541.42 589.69 534.62 C 598.79 535.13 607.92 535.15 617.03 535.34 C 617.65 532.60 618.14 529.83 618.61 527.07 C 618.17 526.48 617.29 525.29 616.85 524.69 C 607.80 524.66 598.78 525.42 589.74 525.70 C 589.42 517.46 590.20 509.24 590.15 501.01 C 590.44 499.36 589.61 496.37 592.01 496.08 C 600.49 494.60 609.12 495.58 617.63 496.27 C 618.64 501.04 619.36 505.87 620.37 510.65 C 623.74 511.52 627.31 510.97 630.77 511.09 C 631.59 504.70 632.96 498.41 633.95 492.05 C 634.68 489.52 632.18 487.81 631.03 485.87 C 608.25 487.48 585.40 486.78 562.59 486.81 M 197.97 486.89 C 197.45 488.98 196.99 491.07 196.55 493.19 C 200.36 494.92 206.89 494.94 207.50 500.17 C 208.48 506.42 207.64 512.78 208.20 519.06 C 208.47 525.36 208.35 531.67 208.29 537.98 C 207.61 546.07 208.46 554.23 207.31 562.29 C 203.79 563.30 200.31 564.48 196.74 565.30 C 196.95 567.56 197.35 569.80 197.95 572.00 C 210.50 571.94 223.04 572.13 235.58 571.90 C 235.95 569.78 236.37 567.67 236.84 565.58 C 233.31 564.16 228.70 563.90 226.34 560.59 C 224.72 552.82 225.20 544.82 225.11 536.94 C 225.22 523.43 224.66 509.88 226.12 496.42 C 229.70 495.49 233.24 494.37 236.77 493.26 C 236.38 491.19 236.00 489.12 235.66 487.04 C 223.10 486.69 210.53 486.99 197.97 486.89 Z" />
<path fill="#ffffff" opacity="1.00" d=" M 394.37 211.25 C 397.23 211.00 400.34 210.57 402.95 212.08 C 407.04 214.01 408.50 218.83 408.60 223.02 C 408.06 229.95 403.07 235.35 398.24 239.86 C 399.07 241.75 401.96 243.86 400.17 246.01 C 395.65 252.08 395.24 261.00 399.88 267.12 C 400.52 268.50 402.56 269.85 401.53 271.53 C 397.80 278.51 394.24 285.95 394.01 294.01 C 394.24 299.01 395.28 304.35 398.79 308.14 C 400.92 310.45 404.68 311.11 407.38 309.43 C 408.94 308.54 410.25 307.19 411.96 306.56 C 413.85 307.14 415.43 309.10 417.56 308.65 C 420.32 306.89 419.53 301.92 423.13 300.99 C 426.11 301.17 428.36 303.71 430.18 305.86 C 432.10 307.87 430.56 310.53 430.42 312.88 C 430.09 316.90 430.45 320.95 430.18 324.98 C 426.51 325.49 422.70 324.81 419.16 326.07 C 416.68 330.07 418.80 336.01 414.65 338.95 C 413.27 339.45 412.02 338.58 411.89 337.16 C 411.03 333.07 410.50 328.40 412.68 324.62 C 415.14 320.78 419.78 319.61 423.52 317.48 C 425.90 315.50 425.60 312.13 425.80 309.36 C 425.42 308.95 424.65 308.13 424.27 307.72 C 422.63 309.91 422.26 313.39 419.31 314.29 C 414.63 316.54 407.96 315.95 405.09 321.01 C 402.44 326.79 402.63 333.61 404.37 339.63 C 407.90 345.28 415.09 346.58 420.39 350.00 C 418.71 351.32 417.00 352.62 415.29 353.89 C 407.52 346.10 398.91 338.91 388.90 334.16 C 382.33 330.77 375.09 328.87 368.61 325.31 C 365.07 323.37 361.67 320.14 361.68 315.81 C 360.70 300.85 359.56 285.57 362.77 270.79 C 364.51 262.27 370.03 254.79 377.46 250.34 C 380.47 248.16 384.70 246.78 386.03 242.98 C 387.03 237.57 385.25 232.12 383.65 227.00 C 389.36 223.73 394.45 218.21 394.37 211.25 Z" />
<path fill="#ffffff" opacity="1.00" d=" M 418.64 254.88 C 420.01 255.22 421.65 255.07 422.77 256.07 C 423.57 258.29 423.99 260.61 424.52 262.91 C 422.97 265.03 420.42 267.10 421.00 270.03 C 421.13 272.02 423.26 273.19 425.04 273.51 C 430.14 274.78 435.32 273.35 440.23 272.00 C 438.52 275.75 436.16 279.42 432.56 281.58 C 428.67 283.81 423.00 281.00 420.08 285.12 C 417.97 289.59 420.47 295.07 418.77 299.60 C 414.04 300.25 408.73 300.58 404.17 298.85 C 400.09 295.67 399.69 289.21 401.79 284.75 C 404.81 279.18 408.94 274.18 411.29 268.25 C 411.98 266.54 411.55 264.68 411.43 262.91 C 415.53 262.32 418.75 259.17 418.64 254.88 Z" />
<path fill="#ffffff" opacity="1.00" d=" M 312.86 269.03 C 314.93 267.47 318.49 267.62 319.34 270.44 C 321.64 279.71 323.42 289.11 325.42 298.45 C 326.30 301.58 326.25 305.52 322.91 307.16 C 319.84 306.91 317.83 304.53 317.61 301.54 C 316.03 290.70 314.08 279.91 312.86 269.03 Z" />
<path fill="#ffffff" opacity="1.00" d=" M 526.81 277.09 C 527.30 273.29 529.17 269.24 533.07 267.97 C 535.03 269.00 536.63 270.73 536.65 273.07 C 537.37 284.69 536.62 296.36 537.31 307.99 C 537.37 314.65 538.67 321.43 537.12 328.02 C 535.96 333.91 532.92 339.15 530.50 344.58 C 526.04 354.03 522.24 363.80 517.21 372.98 C 515.31 376.64 512.36 379.71 508.83 381.84 C 478.95 398.39 445.60 408.54 417.76 428.76 C 416.81 429.28 415.60 430.62 414.52 429.59 C 402.29 420.98 389.23 413.58 375.66 407.28 C 360.86 400.49 345.91 393.99 331.32 386.75 C 325.40 383.54 318.59 381.00 314.89 374.99 C 309.43 366.02 305.82 356.09 301.30 346.65 C 297.66 338.54 292.41 330.38 293.51 321.09 C 294.89 311.46 295.39 301.74 295.95 292.04 C 296.20 286.30 295.94 280.52 296.81 274.84 C 297.18 272.19 298.89 269.45 301.73 269.05 C 304.42 270.13 305.56 273.11 305.81 275.80 C 307.55 290.51 309.23 305.24 311.54 319.88 C 312.69 326.63 313.86 333.60 317.44 339.56 C 321.98 347.17 329.03 353.05 336.81 357.16 C 342.95 360.44 348.92 364.65 355.96 365.68 C 359.13 366.34 362.42 363.33 361.86 360.13 C 361.25 357.95 359.26 356.64 357.46 355.50 C 349.57 350.76 341.33 346.60 333.81 341.26 C 330.36 338.88 327.44 335.49 326.48 331.33 C 325.78 328.22 324.42 324.84 326.00 321.79 C 330.45 321.30 334.30 323.89 338.10 325.79 C 356.19 335.09 375.08 342.83 392.62 353.18 C 398.96 356.75 403.77 362.57 407.06 368.99 C 411.96 378.05 414.56 388.19 415.57 398.40 C 416.00 389.86 418.33 381.52 421.61 373.65 C 424.10 367.89 427.34 362.32 431.98 358.01 C 435.44 354.56 439.77 352.21 444.04 349.90 C 461.47 340.37 479.79 332.61 497.41 323.44 C 499.74 322.21 502.33 321.52 504.98 321.77 C 506.35 325.69 504.84 329.87 503.63 333.63 C 499.66 341.69 490.70 345.00 483.57 349.60 C 479.18 352.56 473.94 354.33 470.15 358.13 C 467.11 360.82 470.35 365.99 474.01 365.72 C 478.69 365.56 482.91 363.20 486.98 361.12 C 493.90 357.18 501.27 353.67 506.87 347.86 C 512.70 342.29 516.56 334.87 518.04 326.97 C 521.48 310.44 524.61 293.83 526.81 277.09 Z" />
<path fill="#ffffff" opacity="1.00" d=" M 513.27 269.29 C 514.92 268.55 517.79 268.18 517.53 270.88 C 516.09 280.94 514.28 290.95 512.54 300.96 C 512.23 303.41 510.72 306.17 507.97 306.29 C 505.76 306.21 505.79 303.55 506.06 301.96 C 507.41 292.90 509.46 283.96 511.09 274.95 C 511.50 272.98 511.79 270.79 513.27 269.29 Z" />
<path fill="#ffffff" opacity="1.00" d=" M 330.28 284.35 C 332.63 283.29 334.69 285.76 334.74 287.96 C 335.43 294.69 337.01 301.29 337.99 307.96 C 337.80 310.43 334.72 309.90 333.52 308.56 C 332.06 306.67 332.17 304.14 331.76 301.91 C 331.12 296.55 329.94 291.26 329.37 285.89 C 329.60 285.50 330.05 284.73 330.28 284.35 Z" />
<path fill="#ffffff" opacity="1.00" d=" M 494.80 292.07 C 495.13 288.63 496.17 285.03 499.07 282.86 C 500.05 284.37 500.94 286.07 500.52 287.93 C 499.72 293.91 500.18 300.02 499.02 305.94 C 498.73 308.16 496.76 309.32 495.02 310.32 C 494.04 309.37 492.66 308.50 492.81 306.94 C 492.95 301.93 494.21 297.04 494.80 292.07 Z" />
<path fill="#ffffff" opacity="1.00" d=" M 344.31 296.09 C 345.82 295.99 347.55 296.26 347.99 298.00 C 349.50 302.89 350.23 308.02 351.24 313.04 C 351.89 314.96 349.05 316.87 347.54 315.46 C 345.75 314.20 345.85 311.73 345.32 309.82 C 344.74 305.28 342.89 300.65 344.31 296.09 Z" />
<path fill="#ffffff" opacity="1.00" d=" M 481.45 301.04 C 481.75 298.67 482.92 295.22 486.01 296.07 C 486.62 299.03 485.94 302.05 485.86 305.04 C 485.55 308.80 486.03 312.89 483.79 316.18 C 482.47 315.95 480.85 316.02 480.17 314.60 C 478.59 310.11 480.82 305.50 481.45 301.04 Z" />
</g>
<g id="#ca9656ff">
<path fill="#ca9656" opacity="1.00" d=" M 453.03 88.46 C 453.73 87.06 457.06 86.98 456.85 88.92 C 455.55 88.99 454.27 88.78 453.03 88.46 Z" />
<path fill="#ca9656" opacity="1.00" d=" M 364.12 89.89 C 364.72 88.23 365.70 88.09 367.05 89.45 C 366.11 89.90 365.14 90.05 364.12 89.89 Z" />
<path fill="#ca9656" opacity="1.00" d=" M 460.95 89.40 C 462.32 88.06 463.30 88.22 463.88 89.88 C 462.85 90.02 461.87 89.86 460.95 89.40 Z" />
<path fill="#ca9656" opacity="1.00" d=" M 358.11 90.88 C 357.73 88.96 361.05 88.79 361.81 90.19 C 360.60 90.58 359.37 90.89 358.11 90.88 Z" />
<path fill="#ca9656" opacity="1.00" d=" M 466.16 90.19 C 466.93 88.80 470.24 88.96 469.91 90.89 C 468.61 90.88 467.37 90.57 466.16 90.19 Z" />
<path fill="#ca9656" opacity="1.00" d=" M 352.07 91.90 C 352.57 90.22 353.54 90.02 354.96 91.31 C 354.05 91.81 353.09 92.01 352.07 91.90 Z" />
<path fill="#ca9656" opacity="1.00" d=" M 472.19 91.20 C 472.94 89.79 476.28 89.95 475.90 91.89 C 474.62 91.88 473.39 91.57 472.19 91.20 Z" />
<path fill="#ca9656" opacity="1.00" d=" M 347.37 91.97 L 348.43 91.71 L 349.12 92.32 C 348.61 92.45 347.58 92.70 347.06 92.82 L 347.37 91.97 Z" />
<path fill="#ca9656" opacity="1.00" d=" M 478.17 92.20 C 479.59 90.96 480.53 91.20 480.98 92.91 C 479.95 93.00 479.02 92.76 478.17 92.20 Z" />
<path fill="#ca9656" opacity="1.00" d=" M 342.04 93.90 C 342.51 92.20 343.47 91.98 344.89 93.24 C 344.01 93.77 343.05 93.99 342.04 93.90 Z" />
<path fill="#ca9656" opacity="1.00" d=" M 483.14 93.19 C 484.59 91.95 485.53 92.19 485.96 93.91 C 484.94 93.98 484.00 93.74 483.14 93.19 Z" />
<path fill="#ca9656" opacity="1.00" d=" M 337.10 94.92 C 336.71 92.98 340.03 92.79 340.82 94.18 C 339.61 94.59 338.37 94.87 337.10 94.92 Z" />
<path fill="#ca9656" opacity="1.00" d=" M 487.16 94.18 C 487.95 92.80 491.27 92.98 490.90 94.92 C 489.61 94.87 488.37 94.58 487.16 94.18 Z" />
<path fill="#ca9656" opacity="1.00" d=" M 333.08 95.98 C 333.49 94.25 334.43 93.99 335.92 95.21 C 335.05 95.76 334.10 96.01 333.08 95.98 Z" />
<path fill="#ca9656" opacity="1.00" d=" M 492.07 95.23 C 493.49 93.97 494.45 94.19 494.94 95.88 C 493.90 95.98 492.95 95.76 492.07 95.23 Z" />
<path fill="#ca9656" opacity="1.00" d=" M 496.07 96.22 C 497.49 94.97 498.44 95.19 498.94 96.89 C 497.90 96.98 496.94 96.76 496.07 96.22 Z" />
<path fill="#ca9656" opacity="1.00" d=" M 500.02 97.25 C 501.44 95.99 502.40 96.20 502.90 97.86 C 501.86 97.99 500.90 97.79 500.02 97.25 Z" />
<path fill="#ca9656" opacity="1.00" d=" M 503.92 98.20 L 504.66 97.65 L 505.70 98.01 L 505.93 98.90 C 505.43 98.72 504.43 98.37 503.92 98.20 Z" />
<path fill="#ca9656" opacity="1.00" d=" M 309.24 101.92 L 310.29 101.62 L 311.02 102.23 C 310.51 102.37 309.48 102.64 308.97 102.78 L 309.24 101.92 Z" />
<path fill="#ca9656" opacity="1.00" d=" M 516.99 102.23 L 517.71 101.63 L 518.77 101.91 L 519.05 102.78 C 518.53 102.64 517.51 102.37 516.99 102.23 Z" />
<path fill="#ca9656" opacity="1.00" d=" M 306.21 102.98 L 307.23 102.59 L 307.99 103.13 C 307.49 103.31 306.50 103.68 306.00 103.87 L 306.21 102.98 Z" />
<path fill="#ca9656" opacity="1.00" d=" M 520.01 103.16 L 520.74 102.59 L 521.78 102.92 L 522.04 103.79 C 521.53 103.63 520.52 103.32 520.01 103.16 Z" />
<path fill="#ca9656" opacity="1.00" d=" M 275.34 115.24 C 285.24 111.24 294.92 106.26 305.42 104.03 C 280.22 112.76 256.19 124.58 233.53 138.60 C 234.66 136.64 236.95 135.96 238.71 134.73 C 250.29 127.10 263.06 121.61 275.34 115.24 Z" />
<path fill="#ca9656" opacity="1.00" d=" M 522.99 104.12 L 523.75 103.59 L 524.77 103.97 L 524.98 104.86 C 524.49 104.67 523.49 104.31 522.99 104.12 Z" />
<path fill="#ca9656" opacity="1.00" d=" M 525.58 105.02 C 535.11 107.02 543.82 111.78 552.85 115.33 C 558.19 118.41 564.19 120.12 569.32 123.58 C 576.67 127.06 583.68 131.20 590.65 135.38 C 593.01 136.92 595.68 138.17 597.41 140.50 C 589.64 135.90 582.08 130.96 574.09 126.74 C 558.54 118.19 542.20 111.18 525.58 105.02 Z" />
<path fill="#ca9656" opacity="1.00" d=" M 231.21 139.01 L 232.20 138.55 L 233.01 139.02 C 232.53 139.24 231.57 139.68 231.09 139.90 L 231.21 139.01 Z" />
<path fill="#ca9656" opacity="1.00" d=" M 228.27 140.99 L 229.25 140.54 L 230.05 141.01 C 229.57 141.23 228.62 141.67 228.14 141.88 L 228.27 140.99 Z" />
<path fill="#ca9656" opacity="1.00" d=" M 598.01 141.02 L 598.82 140.55 L 599.80 141.01 L 599.92 141.91 C 599.44 141.69 598.49 141.24 598.01 141.02 Z" />
<path fill="#ca9656" opacity="1.00" d=" M 225.29 143.08 L 226.23 142.55 L 227.05 142.98 C 226.60 143.24 225.68 143.75 225.23 144.01 L 225.29 143.08 Z" />
<path fill="#ca9656" opacity="1.00" d=" M 600.95 142.98 L 601.78 142.55 L 602.72 143.08 L 602.78 144.01 C 602.32 143.76 601.41 143.24 600.95 142.98 Z" />
<path fill="#ca9656" opacity="1.00" d=" M 217.78 149.37 C 218.93 146.72 221.81 145.56 224.35 144.66 C 222.29 146.41 220.08 147.95 217.78 149.37 Z" />
<path fill="#ca9656" opacity="1.00" d=" M 603.76 144.70 C 607.22 145.66 609.74 148.33 612.59 150.35 C 619.34 155.24 625.81 160.50 632.29 165.75 C 635.86 169.62 640.45 172.34 643.94 176.31 C 651.70 184.47 660.35 191.81 667.33 200.67 C 668.82 202.36 670.95 203.73 671.25 206.16 C 660.15 193.23 648.35 180.88 635.50 169.69 C 625.50 160.64 614.58 152.72 603.76 144.70 Z" />
<path fill="#ca9656" opacity="1.00" d=" M 188.24 172.28 C 194.09 168.05 198.81 162.16 205.26 158.84 C 196.24 166.61 186.93 174.08 178.64 182.65 C 167.50 193.35 157.55 205.19 147.88 217.22 C 150.40 211.63 155.13 207.55 158.75 202.71 C 162.46 199.31 165.05 194.93 168.79 191.56 C 175.33 185.19 181.61 178.55 188.24 172.28 Z" />
<path fill="#ca9656" opacity="1.00" d=" M 377.76 203.82 C 382.31 198.01 390.06 196.22 397.08 195.88 C 402.41 195.84 408.50 196.50 412.35 200.63 C 415.52 203.87 416.22 208.65 416.15 212.99 C 416.05 218.65 415.38 224.28 415.20 229.93 C 415.22 234.89 410.06 237.08 407.33 240.46 C 406.62 242.44 409.26 243.58 410.89 243.14 C 416.03 242.88 422.74 242.07 426.26 246.74 C 428.74 253.37 430.39 260.34 432.99 266.95 C 436.47 265.92 439.77 264.40 443.12 263.01 C 447.41 261.17 452.94 265.52 451.65 270.17 C 450.83 273.11 448.62 275.40 446.73 277.71 C 441.70 283.20 436.54 288.67 430.30 292.80 C 433.31 295.94 436.19 299.57 436.93 303.98 C 437.56 308.28 437.33 312.64 437.35 316.97 C 437.21 322.01 437.96 327.04 437.62 332.08 C 433.59 332.17 428.64 331.22 425.65 334.68 C 423.70 337.38 423.16 340.99 423.68 344.25 C 424.83 344.00 425.94 343.65 427.03 343.20 C 440.49 335.87 454.47 329.51 467.72 321.79 C 468.81 321.23 469.65 320.20 469.68 318.93 C 471.07 306.33 472.38 293.71 472.82 281.04 C 472.63 275.16 472.44 268.84 469.31 263.67 C 466.82 259.38 461.22 258.59 458.47 254.58 C 452.96 245.95 449.80 235.77 442.73 228.18 C 440.77 225.78 437.74 224.92 434.89 224.10 C 433.28 225.04 431.30 225.99 430.95 228.04 C 430.01 234.26 431.60 241.53 437.07 245.30 C 437.25 247.10 436.38 249.92 434.01 249.05 C 428.77 246.95 424.74 242.29 423.07 236.93 C 420.95 230.20 419.59 222.20 423.86 215.98 C 428.48 209.59 437.62 205.63 445.19 208.80 C 456.82 215.46 466.51 226.72 468.78 240.20 C 472.76 243.91 477.13 247.42 479.74 252.33 C 484.18 260.15 485.16 269.74 482.94 278.42 C 491.59 269.92 500.25 261.43 508.81 252.83 C 513.06 248.63 518.68 244.87 524.95 245.70 C 528.90 245.70 531.81 248.51 535.06 250.28 C 537.80 250.14 540.55 248.71 543.29 249.66 C 547.72 251.01 550.32 255.75 550.34 260.20 C 551.03 275.44 550.93 290.70 551.48 305.94 C 552.03 319.26 552.67 333.29 546.54 345.58 C 539.86 358.65 533.35 371.89 528.76 385.86 C 527.15 391.22 523.50 395.92 518.67 398.74 C 513.22 401.96 507.10 403.76 501.37 406.37 C 471.56 419.27 441.98 433.26 415.22 451.84 C 404.96 445.30 394.73 438.68 383.97 432.97 C 365.82 422.85 346.70 414.67 327.64 406.48 C 318.21 402.03 307.48 397.35 302.81 387.33 C 295.02 370.74 287.78 353.88 281.47 336.67 C 277.83 327.51 278.96 317.50 279.60 307.92 C 280.46 290.27 282.45 272.70 283.77 255.08 C 283.77 251.16 286.62 247.50 290.42 246.55 C 293.22 245.59 296.09 246.69 298.83 247.32 C 302.62 241.96 310.31 241.39 315.86 244.13 C 321.09 246.69 323.87 252.10 327.77 256.15 C 335.39 264.52 342.46 273.46 350.65 281.26 C 351.05 271.74 351.21 261.61 356.13 253.13 C 360.09 246.43 366.73 241.88 373.65 238.62 C 377.31 236.74 374.93 232.08 374.54 229.04 C 371.66 220.74 372.24 210.92 377.76 203.82 M 394.37 211.25 C 394.45 218.21 389.36 223.73 383.65 227.00 C 385.25 232.12 387.03 237.57 386.03 242.98 C 384.70 246.78 380.47 248.16 377.46 250.34 C 370.03 254.79 364.51 262.27 362.77 270.79 C 359.56 285.57 360.70 300.85 361.68 315.81 C 361.67 320.14 365.07 323.37 368.61 325.31 C 375.09 328.87 382.33 330.77 388.90 334.16 C 398.91 338.91 407.52 346.10 415.29 353.89 C 417.00 352.62 418.71 351.32 420.39 350.00 C 415.09 346.58 407.90 345.28 404.37 339.63 C 402.63 333.61 402.44 326.79 405.09 321.01 C 407.96 315.95 414.63 316.54 419.31 314.29 C 422.26 313.39 422.63 309.91 424.27 307.72 C 424.65 308.13 425.42 308.95 425.80 309.36 C 425.60 312.13 425.90 315.50 423.52 317.48 C 419.78 319.61 415.14 320.78 412.68 324.62 C 410.50 328.40 411.03 333.07 411.89 337.16 C 412.02 338.58 413.27 339.45 414.65 338.95 C 418.80 336.01 416.68 330.07 419.16 326.07 C 422.70 324.81 426.51 325.49 430.18 324.98 C 430.45 320.95 430.09 316.90 430.42 312.88 C 430.56 310.53 432.10 307.87 430.18 305.86 C 428.36 303.71 426.11 301.17 423.13 300.99 C 419.53 301.92 420.32 306.89 417.56 308.65 C 415.43 309.10 413.85 307.14 411.96 306.56 C 410.25 307.19 408.94 308.54 407.38 309.43 C 404.68 311.11 400.92 310.45 398.79 308.14 C 395.28 304.35 394.24 299.01 394.01 294.01 C 394.24 285.95 397.80 278.51 401.53 271.53 C 402.56 269.85 400.52 268.50 399.88 267.12 C 395.24 261.00 395.65 252.08 400.17 246.01 C 401.96 243.86 399.07 241.75 398.24 239.86 C 403.07 235.35 408.06 229.95 408.60 223.02 C 408.50 218.83 407.04 214.01 402.95 212.08 C 400.34 210.57 397.23 211.00 394.37 211.25 M 418.64 254.88 C 418.75 259.17 415.53 262.32 411.43 262.91 C 411.55 264.68 411.98 266.54 411.29 268.25 C 408.94 274.18 404.81 279.18 401.79 284.75 C 399.69 289.21 400.09 295.67 404.17 298.85 C 408.73 300.58 414.04 300.25 418.77 299.60 C 420.47 295.07 417.97 289.59 420.08 285.12 C 423.00 281.00 428.67 283.81 432.56 281.58 C 436.16 279.42 438.52 275.75 440.23 272.00 C 435.32 273.35 430.14 274.78 425.04 273.51 C 423.26 273.19 421.13 272.02 421.00 270.03 C 420.42 267.10 422.97 265.03 424.52 262.91 C 423.99 260.61 423.57 258.29 422.77 256.07 C 421.65 255.07 420.01 255.22 418.64 254.88 M 312.86 269.03 C 314.08 279.91 316.03 290.70 317.61 301.54 C 317.83 304.53 319.84 306.91 322.91 307.16 C 326.25 305.52 326.30 301.58 325.42 298.45 C 323.42 289.11 321.64 279.71 319.34 270.44 C 318.49 267.62 314.93 267.47 312.86 269.03 M 526.81 277.09 C 524.61 293.83 521.48 310.44 518.04 326.97 C 516.56 334.87 512.70 342.29 506.87 347.86 C 501.27 353.67 493.90 357.18 486.98 361.12 C 482.91 363.20 478.69 365.56 474.01 365.72 C 470.35 365.99 467.11 360.82 470.15 358.13 C 473.94 354.33 479.18 352.56 483.57 349.60 C 490.70 345.00 499.66 341.69 503.63 333.63 C 504.84 329.87 506.35 325.69 504.98 321.77 C 502.33 321.52 499.74 322.21 497.41 323.44 C 479.79 332.61 461.47 340.37 444.04 349.90 C 439.77 352.21 435.44 354.56 431.98 358.01 C 427.34 362.32 424.10 367.89 421.61 373.65 C 418.33 381.52 416.00 389.86 415.57 398.40 C 414.56 388.19 411.96 378.05 407.06 368.99 C 403.77 362.57 398.96 356.75 392.62 353.18 C 375.08 342.83 356.19 335.09 338.10 325.79 C 334.30 323.89 330.45 321.30 326.00 321.79 C 324.42 324.84 325.78 328.22 326.48 331.33 C 327.44 335.49 330.36 338.88 333.81 341.26 C 341.33 346.60 349.57 350.76 357.46 355.50 C 359.26 356.64 361.25 357.95 361.86 360.13 C 362.42 363.33 359.13 366.34 355.96 365.68 C 348.92 364.65 342.95 360.44 336.81 357.16 C 329.03 353.05 321.98 347.17 317.44 339.56 C 313.86 333.60 312.69 326.63 311.54 319.88 C 309.23 305.24 307.55 290.51 305.81 275.80 C 305.56 273.11 304.42 270.13 301.73 269.05 C 298.89 269.45 297.18 272.19 296.81 274.84 C 295.94 280.52 296.20 286.30 295.95 292.04 C 295.39 301.74 294.89 311.46 293.51 321.09 C 292.41 330.38 297.66 338.54 301.30 346.65 C 305.82 356.09 309.43 366.02 314.89 374.99 C 318.59 381.00 325.40 383.54 331.32 386.75 C 345.91 393.99 360.86 400.49 375.66 407.28 C 389.23 413.58 402.29 420.98 414.52 429.59 C 415.60 430.62 416.81 429.28 417.76 428.76 C 445.60 408.54 478.95 398.39 508.83 381.84 C 512.36 379.71 515.31 376.64 517.21 372.98 C 522.24 363.80 526.04 354.03 530.50 344.58 C 532.92 339.15 535.96 333.91 537.12 328.02 C 538.67 321.43 537.37 314.65 537.31 307.99 C 536.62 296.36 537.37 284.69 536.65 273.07 C 536.63 270.73 535.03 269.00 533.07 267.97 C 529.17 269.24 527.30 273.29 526.81 277.09 M 513.27 269.29 C 511.79 270.79 511.50 272.98 511.09 274.95 C 509.46 283.96 507.41 292.90 506.06 301.96 C 505.79 303.55 505.76 306.21 507.97 306.29 C 510.72 306.17 512.23 303.41 512.54 300.96 C 514.28 290.95 516.09 280.94 517.53 270.88 C 517.79 268.18 514.92 268.55 513.27 269.29 M 330.28 284.35 C 330.05 284.73 329.60 285.50 329.37 285.89 C 329.94 291.26 331.12 296.55 331.76 301.91 C 332.17 304.14 332.06 306.67 333.52 308.56 C 334.72 309.90 337.80 310.43 337.99 307.96 C 337.01 301.29 335.43 294.69 334.74 287.96 C 334.69 285.76 332.63 283.29 330.28 284.35 M 494.80 292.07 C 494.21 297.04 492.95 301.93 492.81 306.94 C 492.66 308.50 494.04 309.37 495.02 310.32 C 496.76 309.32 498.73 308.16 499.02 305.94 C 500.18 300.02 499.72 293.91 500.52 287.93 C 500.94 286.07 500.05 284.37 499.07 282.86 C 496.17 285.03 495.13 288.63 494.80 292.07 M 344.31 296.09 C 342.89 300.65 344.74 305.28 345.32 309.82 C 345.85 311.73 345.75 314.20 347.54 315.46 C 349.05 316.87 351.89 314.96 351.24 313.04 C 350.23 308.02 349.50 302.89 347.99 298.00 C 347.55 296.26 345.82 295.99 344.31 296.09 M 481.45 301.04 C 480.82 305.50 478.59 310.11 480.17 314.60 C 480.85 316.02 482.47 315.95 483.79 316.18 C 486.03 312.89 485.55 308.80 485.86 305.04 C 485.94 302.05 486.62 299.03 486.01 296.07 C 482.92 295.22 481.75 298.67 481.45 301.04 Z" />
<path fill="#ca9656" opacity="1.00" d=" M 671.72 206.73 C 673.71 208.09 676.18 209.56 676.20 212.30 C 674.68 210.46 673.17 208.62 671.72 206.73 Z" />
<path fill="#ca9656" opacity="1.00" d=" M 676.91 213.26 C 678.75 212.13 681.21 215.37 679.88 216.99 C 678.76 215.84 677.77 214.59 676.91 213.26 Z" />
<path fill="#ca9656" opacity="1.00" d=" M 680.87 218.20 C 682.42 217.15 684.23 219.86 682.92 221.05 C 682.03 220.25 681.36 219.27 680.87 218.20 Z" />
<path fill="#ca9656" opacity="1.00" d=" M 683.89 222.20 C 685.44 221.14 687.22 223.86 685.93 225.04 C 685.03 224.26 684.37 223.27 683.89 222.20 Z" />
<path fill="#ca9656" opacity="1.00" d=" M 686.52 225.73 C 687.96 226.88 689.23 228.25 690.25 229.79 C 701.52 246.12 711.39 263.40 719.71 281.40 C 719.77 281.96 719.88 283.09 719.94 283.65 C 710.68 263.32 699.32 244.02 686.52 225.73 Z" />
<path fill="#ca9656" opacity="1.00" d=" M 136.88 230.93 C 137.51 229.91 138.38 229.14 139.48 228.64 C 134.04 236.71 128.79 244.90 123.76 253.23 C 124.70 248.92 127.69 245.58 129.87 241.87 C 132.05 238.13 134.51 234.55 136.88 230.93 Z" />
<path fill="#ca9656" opacity="1.00" d=" M 122.44 254.35 L 123.44 253.77 C 114.95 268.80 107.44 284.38 101.07 300.43 C 101.12 296.60 103.40 293.37 104.72 289.90 C 109.71 277.62 115.66 265.72 122.44 254.35 Z" />
<path fill="#ca9656" opacity="1.00" d=" M 95.26 316.90 C 93.75 315.61 94.77 311.61 96.92 312.19 C 96.51 313.80 95.91 315.36 95.26 316.90 Z" />
<path fill="#ca9656" opacity="1.00" d=" M 93.97 318.23 L 94.86 318.00 C 94.70 318.50 94.37 319.51 94.21 320.02 L 93.63 319.27 L 93.97 318.23 Z" />
<path fill="#ca9656" opacity="1.00" d=" M 734.08 321.00 L 734.98 321.19 L 735.38 322.21 L 734.85 322.98 C 734.66 322.48 734.27 321.49 734.08 321.00 Z" />
<path fill="#ca9656" opacity="1.00" d=" M 735.17 324.25 C 737.37 324.08 738.29 328.39 736.73 329.85 C 736.05 328.03 735.53 326.15 735.17 324.25 Z" />
<path fill="#ca9656" opacity="1.00" d=" M 90.03 331.36 L 90.92 331.11 C 90.75 331.62 90.41 332.62 90.24 333.12 L 89.68 332.39 L 90.03 331.36 Z" />
<path fill="#ca9656" opacity="1.00" d=" M 89.08 337.85 C 87.90 336.36 88.17 335.42 89.90 335.04 C 89.94 336.06 89.67 337.00 89.08 337.85 Z" />
<path fill="#ca9656" opacity="1.00" d=" M 88.09 341.86 C 86.90 340.38 87.16 339.44 88.88 339.04 C 88.93 340.06 88.66 341.00 88.09 341.86 Z" />
<path fill="#ca9656" opacity="1.00" d=" M 87.09 345.85 C 85.90 344.36 86.17 343.42 87.89 343.03 C 87.93 344.06 87.67 345.00 87.09 345.85 Z" />
<path fill="#ca9656" opacity="1.00" d=" M 86.29 349.93 C 84.99 348.50 85.19 347.54 86.88 347.05 C 86.97 348.06 86.78 349.02 86.29 349.93 Z" />
<path fill="#ca9656" opacity="1.00" d=" M 741.04 347.06 C 742.76 347.45 743.03 348.39 741.85 349.87 C 741.26 349.02 740.99 348.08 741.04 347.06 Z" />
<path fill="#ca9656" opacity="1.00" d=" M 742.10 351.10 C 743.99 350.83 744.14 354.09 742.76 354.85 C 742.33 353.64 742.07 352.38 742.10 351.10 Z" />
<path fill="#ca9656" opacity="1.00" d=" M 743.07 356.13 C 745.00 355.75 745.14 359.09 743.74 359.85 C 743.35 358.63 743.08 357.39 743.07 356.13 Z" />
<path fill="#ca9656" opacity="1.00" d=" M 83.23 365.86 C 81.82 365.09 81.98 361.78 83.92 362.13 C 83.89 363.40 83.61 364.64 83.23 365.86 Z" />
<path fill="#ca9656" opacity="1.00" d=" M 744.11 362.10 C 746.03 361.74 746.21 365.06 744.80 365.83 C 744.42 364.61 744.12 363.37 744.11 362.10 Z" />
<path fill="#ca9656" opacity="1.00" d=" M 82.42 371.00 C 81.06 369.63 81.21 368.65 82.88 368.07 C 83.01 369.09 82.86 370.07 82.42 371.00 Z" />
<path fill="#ca9656" opacity="1.00" d=" M 745.10 368.11 C 747.02 367.77 747.13 371.08 745.77 371.86 C 745.37 370.63 745.08 369.38 745.10 368.11 Z" />
<path fill="#ca9656" opacity="1.00" d=" M 746.10 374.13 C 748.02 373.92 747.97 377.23 746.57 377.95 C 746.23 376.70 746.03 375.41 746.10 374.13 Z" />
<path fill="#ca9656" opacity="1.00" d=" M 748.19 393.42 L 748.88 392.55 C 749.11 395.44 749.05 398.36 748.85 401.26 C 748.62 398.64 748.29 396.04 748.19 393.42 Z" />
<path fill="#ca9656" opacity="1.00" d=" M 748.11 450.00 C 748.27 447.24 748.64 444.50 748.86 441.76 C 749.04 444.50 749.05 447.25 749.02 450.00 L 748.11 450.00 Z" />
<path fill="#ca9656" opacity="1.00" d=" M 747.09 460.87 C 747.07 458.97 747.37 457.10 747.72 455.25 C 748.99 456.57 749.29 460.68 747.09 460.87 Z" />
<path fill="#ca9656" opacity="1.00" d=" M 746.03 468.89 C 746.06 467.29 746.35 465.73 746.72 464.18 C 748.02 465.24 748.13 469.03 746.03 468.89 Z" />
<path fill="#ca9656" opacity="1.00" d=" M 82.29 471.13 C 82.62 472.35 82.88 473.60 82.89 474.89 C 80.94 475.21 80.86 471.85 82.29 471.13 Z" />
<path fill="#ca9656" opacity="1.00" d=" M 83.25 477.18 C 83.62 478.38 83.89 479.62 83.91 480.90 C 81.97 481.23 81.82 477.91 83.25 477.18 Z" />
<path fill="#ca9656" opacity="1.00" d=" M 744.12 481.01 C 744.25 480.49 744.50 479.46 744.62 478.95 L 745.25 479.66 L 744.99 480.72 L 744.12 481.01 Z" />
<path fill="#ca9656" opacity="1.00" d=" M 84.27 483.16 C 84.64 484.36 84.90 485.60 84.93 486.88 C 82.99 487.21 82.84 483.89 84.27 483.16 Z" />
<path fill="#ca9656" opacity="1.00" d=" M 743.05 486.94 C 743.09 485.64 743.38 484.37 743.77 483.15 C 745.14 483.93 744.97 487.25 743.05 486.94 Z" />
<path fill="#ca9656" opacity="1.00" d=" M 85.23 488.12 C 85.65 489.33 85.91 490.58 85.91 491.87 C 83.99 492.19 83.87 488.89 85.23 488.12 Z" />
<path fill="#ca9656" opacity="1.00" d=" M 742.07 491.90 C 742.11 490.60 742.42 489.34 742.82 488.12 C 744.17 488.92 743.99 492.24 742.07 491.90 Z" />
<path fill="#ca9656" opacity="1.00" d=" M 86.17 493.11 C 86.74 493.96 86.99 494.90 86.93 495.93 C 85.21 495.51 84.96 494.57 86.17 493.11 Z" />
<path fill="#ca9656" opacity="1.00" d=" M 741.13 495.93 C 741.06 494.89 741.31 493.93 741.87 493.06 C 743.07 494.52 742.82 495.47 741.13 495.93 Z" />
<path fill="#ca9656" opacity="1.00" d=" M 87.15 497.38 C 87.82 500.02 88.45 502.67 89.01 505.34 C 87.11 503.21 87.29 500.05 87.15 497.38 Z" />
<path fill="#ca9656" opacity="1.00" d=" M 740.12 500.91 C 740.00 499.87 740.20 498.91 740.72 498.01 C 741.99 499.42 741.79 500.38 740.12 500.91 Z" />
<path fill="#ca9656" opacity="1.00" d=" M 739.08 504.88 C 739.00 503.85 739.25 502.90 739.80 502.04 C 741.03 503.47 740.79 504.41 739.08 504.88 Z" />
<path fill="#ca9656" opacity="1.00" d=" M 89.28 506.04 C 89.81 506.92 90.01 507.88 89.86 508.92 C 88.20 508.41 88.01 507.45 89.28 506.04 Z" />
<path fill="#ca9656" opacity="1.00" d=" M 737.15 511.75 C 737.51 509.81 738.09 507.93 738.75 506.08 C 740.25 507.54 739.36 511.90 737.15 511.75 Z" />
<path fill="#ca9656" opacity="1.00" d=" M 90.26 509.91 C 90.40 510.42 90.69 511.44 90.84 511.95 L 89.96 511.67 L 89.66 510.62 L 90.26 509.91 Z" />
<path fill="#ca9656" opacity="1.00" d=" M 91.23 513.15 C 91.95 514.96 92.52 516.82 92.85 518.75 C 90.64 518.84 89.74 514.64 91.23 513.15 Z" />
<path fill="#ca9656" opacity="1.00" d=" M 93.14 520.01 C 93.33 520.51 93.72 521.50 93.92 521.99 L 93.02 521.80 L 92.61 520.78 L 93.14 520.01 Z" />
<path fill="#ca9656" opacity="1.00" d=" M 98.04 534.60 C 105.23 554.29 114.21 573.29 124.63 591.46 C 122.74 590.65 122.28 588.49 121.28 586.91 C 116.81 579.51 113.31 571.58 109.35 563.90 C 105.45 554.21 100.18 544.89 98.04 534.60 Z" />
<path fill="#ca9656" opacity="1.00" d=" M 725.95 545.35 C 726.87 542.71 727.85 540.10 728.93 537.52 C 728.72 540.33 727.99 543.27 725.95 545.35 Z" />
<path fill="#ca9656" opacity="1.00" d=" M 700.44 596.42 C 707.97 583.76 714.80 570.70 720.94 557.30 C 721.10 559.70 719.76 561.75 718.73 563.80 C 714.44 571.93 710.79 580.40 705.96 588.23 C 704.16 590.97 703.17 594.43 700.44 596.42 Z" />
<path fill="#ca9656" opacity="1.00" d=" M 127.70 596.60 C 132.30 603.54 136.85 610.52 141.54 617.41 C 138.88 616.14 137.86 613.20 136.21 610.97 C 133.46 606.14 129.15 602.07 127.70 596.60 Z" />
<path fill="#ca9656" opacity="1.00" d=" M 689.72 612.76 C 690.57 611.10 691.62 609.56 692.84 608.15 C 693.87 609.96 691.91 613.63 689.72 612.76 Z" />
<path fill="#ca9656" opacity="1.00" d=" M 686.87 616.81 C 687.35 615.72 688.05 614.76 688.89 613.94 C 690.22 615.11 688.43 617.86 686.87 616.81 Z" />
<path fill="#ca9656" opacity="1.00" d=" M 684.69 619.93 C 684.99 619.50 685.59 618.63 685.90 618.19 L 686.23 619.05 L 685.62 619.94 L 684.69 619.93 Z" />
<path fill="#ca9656" opacity="1.00" d=" M 633.72 675.16 C 652.36 658.81 669.17 640.45 684.16 620.71 C 680.32 627.99 674.48 633.98 669.29 640.31 C 660.99 650.48 651.11 659.21 642.00 668.64 C 639.62 671.26 636.86 673.53 633.72 675.16 Z" />
<path fill="#ca9656" opacity="1.00" d=" M 150.81 629.74 C 154.55 633.88 157.89 638.36 161.65 642.49 C 173.41 656.10 186.53 668.46 200.19 680.13 C 195.76 678.47 193.16 674.22 189.26 671.74 C 180.94 663.72 172.83 655.46 164.70 647.25 C 160.31 641.23 154.14 636.50 150.81 629.74 Z" />
<path fill="#ca9656" opacity="1.00" d=" M 627.59 680.34 C 629.40 678.67 631.32 677.13 633.23 675.59 C 632.03 677.80 630.36 680.16 627.59 680.34 Z" />
<path fill="#ca9656" opacity="1.00" d=" M 211.25 688.80 C 212.31 689.30 213.24 690.01 214.03 690.89 C 212.82 692.20 210.15 690.33 211.25 688.80 Z" />
<path fill="#ca9656" opacity="1.00" d=" M 613.97 690.93 C 614.74 690.03 615.70 689.34 616.76 688.83 C 617.83 690.36 615.17 692.24 613.97 690.93 Z" />
<path fill="#ca9656" opacity="1.00" d=" M 215.19 691.84 C 216.26 692.32 217.24 693.00 218.04 693.89 C 216.84 695.18 214.13 693.39 215.19 691.84 Z" />
<path fill="#ca9656" opacity="1.00" d=" M 606.65 696.29 C 608.82 694.61 611.08 693.06 613.34 691.49 C 612.10 694.14 609.31 695.50 606.65 696.29 Z" />
<path fill="#ca9656" opacity="1.00" d=" M 218.60 694.37 C 223.53 697.61 228.38 700.97 233.25 704.30 C 229.13 703.40 226.19 700.24 222.78 698.02 C 221.25 696.97 219.55 696.02 218.60 694.37 Z" />
<path fill="#ca9656" opacity="1.00" d=" M 234.16 704.84 C 234.60 705.13 235.49 705.70 235.93 705.99 L 235.07 706.36 L 234.16 705.77 L 234.16 704.84 Z" />
<path fill="#ca9656" opacity="1.00" d=" M 236.54 706.43 C 253.31 716.44 270.66 725.47 288.73 732.91 C 287.15 733.07 285.72 732.43 284.34 731.80 C 276.07 728.03 267.62 724.65 259.58 720.41 C 252.36 716.30 245.02 712.40 237.96 708.01 C 237.61 707.61 236.90 706.83 236.54 706.43 Z" />
<path fill="#ca9656" opacity="1.00" d=" M 510.41 742.94 C 538.90 734.42 566.13 721.92 591.45 706.37 C 590.21 708.52 587.71 709.25 585.75 710.54 C 566.17 722.58 545.04 731.89 523.38 739.48 C 519.04 740.57 514.99 743.10 510.41 742.94 Z" />
<path fill="#ca9656" opacity="1.00" d=" M 318.25 743.10 C 320.16 743.46 322.01 744.08 323.84 744.74 C 322.37 746.27 318.08 745.32 318.25 743.10 Z" />
<path fill="#ca9656" opacity="1.00" d=" M 504.17 744.75 C 505.99 744.10 507.82 743.52 509.72 743.12 C 509.94 745.39 505.62 746.31 504.17 744.75 Z" />
<path fill="#ca9656" opacity="1.00" d=" M 325.05 745.05 C 326.06 745.01 326.98 745.28 327.82 745.89 C 326.34 747.06 325.41 746.78 325.05 745.05 Z" />
<path fill="#ca9656" opacity="1.00" d=" M 500.16 745.91 C 500.99 745.32 501.93 745.05 502.96 745.08 C 502.57 746.81 501.64 747.09 500.16 745.91 Z" />
<path fill="#ca9656" opacity="1.00" d=" M 328.98 746.20 C 329.50 746.34 330.53 746.60 331.04 746.73 L 330.34 747.34 L 329.28 747.06 L 328.98 746.20 Z" />
<path fill="#ca9656" opacity="1.00" d=" M 496.95 746.73 C 497.46 746.60 498.49 746.34 499.01 746.21 L 498.71 747.07 L 497.65 747.34 L 496.95 746.73 Z" />
<path fill="#ca9656" opacity="1.00" d=" M 332.99 747.17 C 333.50 747.31 334.52 747.61 335.03 747.76 L 334.31 748.34 L 333.27 748.04 L 332.99 747.17 Z" />
<path fill="#ca9656" opacity="1.00" d=" M 492.94 747.76 C 493.45 747.62 494.47 747.32 494.98 747.18 L 494.70 748.05 L 493.65 748.35 L 492.94 747.76 Z" />
<path fill="#ca9656" opacity="1.00" d=" M 337.04 748.09 C 338.06 748.00 339.00 748.25 339.86 748.83 C 338.41 750.04 337.47 749.79 337.04 748.09 Z" />
<path fill="#ca9656" opacity="1.00" d=" M 488.13 748.84 C 488.98 748.25 489.92 748.00 490.95 748.09 C 490.52 749.79 489.58 750.04 488.13 748.84 Z" />
<path fill="#ca9656" opacity="1.00" d=" M 341.11 749.09 C 342.39 749.11 343.64 749.41 344.86 749.81 C 344.06 751.17 340.74 751.01 341.11 749.09 Z" />
<path fill="#ca9656" opacity="1.00" d=" M 483.16 749.81 C 484.36 749.37 485.61 749.11 486.89 749.09 C 487.25 751.01 483.94 751.17 483.16 749.81 Z" />
<path fill="#ca9656" opacity="1.00" d=" M 346.10 750.08 C 347.37 750.13 348.61 750.44 349.83 750.83 C 349.04 752.23 345.72 752.01 346.10 750.08 Z" />
<path fill="#ca9656" opacity="1.00" d=" M 351.10 751.07 C 352.36 751.07 353.61 751.34 354.82 751.73 C 354.08 753.15 350.77 752.99 351.10 751.07 Z" />
<path fill="#ca9656" opacity="1.00" d=" M 473.16 751.76 C 474.36 751.38 475.60 751.09 476.88 751.07 C 477.23 753.00 473.90 753.17 473.16 751.76 Z" />
<path fill="#ca9656" opacity="1.00" d=" M 357.12 752.10 C 358.39 752.09 359.64 752.37 360.86 752.77 C 360.09 754.14 356.77 754.02 357.12 752.10 Z" />
<path fill="#ca9656" opacity="1.00" d=" M 467.17 752.75 C 468.38 752.39 469.63 752.12 470.91 752.11 C 471.28 754.05 467.91 754.15 467.17 752.75 Z" />
<path fill="#ca9656" opacity="1.00" d=" M 363.14 753.13 C 364.15 752.95 365.13 753.09 366.07 753.55 C 364.74 754.91 363.76 754.77 363.14 753.13 Z" />
</g>
<g id="#ba1b40ff">
<path fill="#ba1b40" opacity="1.00" d=" M 261.88 490.85 C 275.24 482.49 292.91 483.24 306.74 490.07 C 309.37 491.06 311.60 493.87 310.84 496.78 C 309.95 502.30 308.66 507.75 307.77 513.27 C 304.18 513.40 300.59 513.34 297.02 513.07 C 296.20 508.18 295.78 503.21 294.45 498.42 C 293.99 496.94 292.25 496.56 291.05 495.92 C 284.47 493.31 276.36 493.39 270.35 497.31 C 266.45 503.36 267.32 512.40 273.40 516.74 C 283.24 524.22 296.45 525.85 305.74 534.25 C 312.88 540.48 314.30 551.76 310.06 560.01 C 306.91 566.30 300.47 570.12 293.95 572.12 C 284.52 574.86 274.45 574.41 264.93 572.39 C 259.61 571.20 254.40 569.27 249.88 566.19 C 249.86 559.79 249.91 553.40 250.02 547.01 C 253.94 546.65 257.89 546.56 261.83 546.75 C 262.39 551.58 263.81 556.23 265.11 560.90 C 272.15 564.86 280.76 565.13 288.50 563.43 C 292.45 562.73 294.05 558.62 294.64 555.12 C 295.71 550.38 292.97 545.52 288.92 543.15 C 279.64 537.24 268.30 535.27 259.48 528.52 C 254.12 524.73 250.65 518.42 250.50 511.84 C 249.79 503.34 254.74 495.19 261.88 490.85 Z" />
<path fill="#ba1b40" opacity="1.00" d=" M 346.98 486.82 C 359.78 482.86 374.07 484.91 385.75 491.30 C 386.63 493.03 387.85 494.83 387.25 496.89 C 386.37 502.40 385.34 507.90 384.03 513.32 C 380.44 513.38 376.84 513.41 373.29 512.91 C 372.87 507.70 371.97 502.54 370.66 497.49 C 363.99 493.47 355.36 493.06 348.32 496.34 C 345.82 497.55 345.25 500.56 344.74 503.01 C 343.37 508.43 346.08 514.25 350.63 517.30 C 360.67 524.52 373.98 526.18 382.99 535.02 C 391.01 542.85 390.93 557.10 382.93 564.91 C 375.18 572.71 363.43 574.41 352.92 573.96 C 343.83 573.23 334.13 571.70 326.66 566.14 C 325.93 559.90 326.31 553.34 326.87 547.03 C 330.59 546.52 334.35 546.67 338.10 546.67 C 339.17 551.35 339.94 556.14 341.65 560.64 C 346.84 564.40 353.73 564.55 359.91 564.26 C 363.43 563.88 368.21 563.51 369.69 559.64 C 371.33 556.26 371.76 552.13 370.41 548.59 C 368.43 544.64 364.44 542.26 360.59 540.43 C 351.60 536.19 341.54 533.58 333.96 526.86 C 326.80 520.60 324.82 509.45 329.10 501.01 C 332.51 493.84 339.62 489.21 346.98 486.82 Z" />
<path fill="#ba1b40" opacity="1.00" d=" M 420.88 487.75 C 433.35 482.90 447.83 484.21 459.73 490.07 C 462.32 491.10 464.64 493.91 463.80 496.81 C 462.91 502.33 461.61 507.77 460.71 513.29 C 457.13 513.39 453.56 513.34 450.01 513.07 C 449.07 508.00 448.80 502.75 447.16 497.84 C 441.58 493.58 433.77 493.40 427.24 495.34 C 425.50 495.97 423.32 496.56 422.63 498.48 C 420.37 503.16 420.13 509.23 423.32 513.55 C 426.21 517.52 430.74 519.79 435.07 521.84 C 443.32 525.67 452.46 528.33 459.21 534.72 C 467.50 542.58 467.45 557.34 459.16 565.20 C 452.29 571.88 442.29 573.93 433.01 574.04 C 422.58 573.92 411.79 572.02 402.89 566.29 C 402.89 559.86 402.84 553.43 403.02 547.00 C 406.92 546.65 410.85 546.57 414.76 546.74 C 415.42 551.56 416.73 556.26 418.11 560.92 C 425.17 564.87 433.84 565.16 441.57 563.36 C 446.20 562.47 447.57 557.09 447.73 553.04 C 448.01 548.30 444.49 544.43 440.58 542.29 C 430.90 536.78 419.38 534.60 410.78 527.20 C 404.75 522.10 402.19 513.59 403.89 505.94 C 405.60 497.26 412.90 490.82 420.88 487.75 Z" />
<path fill="#ba1b40" opacity="1.00" d=" M 476.76 486.91 C 501.75 486.66 526.78 487.61 551.74 485.90 C 552.70 487.57 554.32 489.04 554.65 491.00 C 554.41 497.90 553.28 504.74 552.93 511.63 C 549.34 511.99 545.70 512.06 542.17 511.24 C 541.46 506.12 540.19 501.10 539.06 496.06 C 533.98 495.64 528.90 495.20 523.80 495.27 C 523.47 509.82 523.75 524.38 523.66 538.93 C 523.53 545.31 523.85 551.69 524.25 558.06 C 524.54 563.55 531.18 564.07 535.24 565.46 C 534.88 567.65 534.44 569.84 533.91 572.00 C 521.37 571.96 508.84 572.07 496.30 571.95 C 495.96 569.85 495.56 567.76 494.95 565.73 C 498.52 564.27 502.32 563.51 505.92 562.12 C 507.41 539.89 506.81 517.60 506.87 495.34 C 501.69 495.19 496.53 495.67 491.38 496.16 C 490.35 501.47 489.11 506.74 487.90 512.01 C 484.25 511.83 480.27 512.64 476.85 511.23 C 475.96 503.16 476.25 494.99 476.76 486.91 Z" />
<path fill="#ba1b40" opacity="1.00" d=" M 562.59 486.81 C 585.40 486.78 608.25 487.48 631.03 485.87 C 632.18 487.81 634.68 489.52 633.95 492.05 C 632.96 498.41 631.59 504.70 630.77 511.09 C 627.31 510.97 623.74 511.52 620.37 510.65 C 619.36 505.87 618.64 501.04 617.63 496.27 C 609.12 495.58 600.49 494.60 592.01 496.08 C 589.61 496.37 590.44 499.36 590.15 501.01 C 590.20 509.24 589.42 517.46 589.74 525.70 C 598.78 525.42 607.80 524.66 616.85 524.69 C 617.29 525.29 618.17 526.48 618.61 527.07 C 618.14 529.83 617.65 532.60 617.03 535.34 C 607.92 535.15 598.79 535.13 589.69 534.62 C 589.43 541.42 589.99 548.21 590.08 555.02 C 590.07 557.27 590.60 559.47 591.30 561.61 C 599.24 564.38 607.88 563.17 616.11 562.85 C 617.21 562.57 618.91 563.00 619.59 561.83 C 620.91 557.15 621.75 552.34 623.11 547.66 C 626.77 547.63 630.44 547.62 634.10 547.92 C 634.32 555.94 634.30 563.96 634.10 572.00 C 610.17 571.95 586.25 572.10 562.32 571.92 C 561.94 569.70 561.58 567.48 561.29 565.26 C 564.91 564.49 568.44 563.35 571.95 562.19 C 573.24 546.82 572.82 531.39 572.90 515.98 C 572.75 510.09 572.82 504.14 571.69 498.34 C 569.30 494.98 564.70 494.59 561.11 493.17 C 561.54 491.04 562.02 488.91 562.59 486.81 Z" />
<path fill="#ba1b40" opacity="1.00" d=" M 197.97 486.89 C 210.53 486.99 223.10 486.69 235.66 487.04 C 236.00 489.12 236.38 491.19 236.77 493.26 C 233.24 494.37 229.70 495.49 226.12 496.42 C 224.66 509.88 225.22 523.43 225.11 536.94 C 225.20 544.82 224.72 552.82 226.34 560.59 C 228.70 563.90 233.31 564.16 236.84 565.58 C 236.37 567.67 235.95 569.78 235.58 571.90 C 223.04 572.13 210.50 571.94 197.95 572.00 C 197.35 569.80 196.95 567.56 196.74 565.30 C 200.31 564.48 203.79 563.30 207.31 562.29 C 208.46 554.23 207.61 546.07 208.29 537.98 C 208.35 531.67 208.47 525.36 208.20 519.06 C 207.64 512.78 208.48 506.42 207.50 500.17 C 206.89 494.94 200.36 494.92 196.55 493.19 C 196.99 491.07 197.45 488.98 197.97 486.89 Z" />
</g>
</svg>
