<?xml version="1.0" encoding="UTF-8" ?>
<!DOCTYPE svg PUBLIC "-//W3C//DTD SVG 1.1//EN" "http://www.w3.org/Graphics/SVG/1.1/DTD/svg11.dtd">
<svg width="824pt" height="1067pt" viewBox="0 0 824 1067" version="1.1" xmlns="http://www.w3.org/2000/svg">
<g id="#b39717ff">
<path fill="#b39717" opacity="1.00" d=" M 400.74 0.00 L 423.14 0.00 C 474.85 1.59 526.30 12.62 573.83 33.12 C 638.76 60.93 696.19 105.83 739.05 161.95 C 788.37 226.13 818.03 305.19 822.79 386.01 C 827.38 460.75 811.48 535.56 784.10 604.87 C 761.12 663.20 730.24 718.18 695.08 770.00 C 667.81 810.14 637.84 848.42 606.06 885.08 C 556.36 942.22 502.44 995.72 444.68 1044.71 C 437.04 1051.09 429.42 1057.50 421.54 1063.58 C 417.27 1067.00 411.24 1067.67 406.16 1065.87 C 403.20 1064.71 400.82 1062.55 398.36 1060.63 C 358.29 1028.31 320.43 993.31 284.17 956.79 C 235.28 907.33 189.50 854.70 148.59 798.43 C 103.16 735.74 63.50 668.34 36.07 595.77 C 14.02 537.50 0.47 475.64 0.00 413.20 L 0.00 410.10 C 0.13 408.07 0.25 406.05 0.25 404.03 C 1.36 321.53 28.57 239.72 76.68 172.72 C 128.10 100.49 203.36 45.49 288.01 18.95 C 324.46 7.37 362.54 1.22 400.74 0.00 M 344.87 93.29 C 343.43 92.01 342.49 92.24 342.05 93.97 C 339.96 94.18 337.86 94.50 335.89 95.24 C 334.42 94.02 333.48 94.27 333.07 96.00 C 320.59 98.75 308.46 102.95 296.43 107.21 C 294.94 107.13 293.52 107.54 292.20 108.16 C 284.27 111.52 276.12 114.43 268.62 118.71 C 261.42 122.62 253.69 125.50 246.75 129.89 C 242.39 132.03 238.54 135.03 234.31 137.40 L 233.84 138.44 C 228.18 142.23 222.18 145.62 217.01 150.04 C 215.79 148.75 213.17 150.61 214.18 152.15 C 213.94 152.31 213.46 152.62 213.22 152.77 C 209.86 153.77 206.87 156.27 204.92 159.16 C 204.72 159.32 204.32 159.64 204.12 159.79 C 203.68 159.90 202.78 160.12 202.33 160.23 C 197.40 164.68 192.36 168.99 187.18 173.14 C 180.30 180.27 173.31 187.30 166.16 194.16 C 164.13 196.20 162.70 198.72 161.09 201.09 C 160.90 201.30 160.52 201.72 160.33 201.94 C 157.95 202.75 156.62 204.83 155.97 207.15 C 155.80 207.34 155.47 207.74 155.30 207.93 C 151.96 209.37 150.76 213.08 148.45 215.61 C 145.46 219.64 141.35 223.15 139.88 228.08 C 139.76 228.24 139.54 228.56 139.43 228.71 C 139.01 228.97 138.16 229.49 137.74 229.75 C 133.52 235.35 130.26 241.60 126.27 247.35 C 125.08 249.12 124.43 251.16 123.75 253.16 C 118.45 262.03 113.83 271.28 109.32 280.58 C 108.86 281.61 108.44 282.64 108.02 283.69 C 106.67 285.69 104.84 287.74 105.19 290.35 C 102.43 296.30 100.18 302.49 98.02 308.69 C 96.71 311.41 94.62 314.08 95.11 317.29 C 93.20 323.15 91.14 328.99 89.95 335.05 C 88.21 335.40 87.92 336.33 89.09 337.83 L 88.84 338.96 L 87.97 339.24 L 87.67 340.28 L 88.26 341.00 C 88.18 341.50 88.01 342.51 87.93 343.02 C 86.20 343.39 85.92 344.32 87.10 345.81 L 86.92 347.03 C 85.21 347.51 85.01 348.46 86.30 349.89 C 75.71 398.44 76.12 449.36 87.26 497.78 C 87.48 500.37 87.19 503.37 89.09 505.45 L 89.32 506.16 C 87.77 507.63 88.71 511.88 90.91 511.81 L 91.24 513.09 C 89.98 514.52 90.21 515.46 91.91 515.93 L 92.30 516.92 L 91.68 517.61 L 91.92 518.67 L 92.77 518.99 L 93.15 520.03 L 92.63 520.80 L 93.03 521.81 L 93.93 522.01 C 95.40 528.39 98.07 534.41 100.20 540.59 C 100.47 544.08 101.89 547.60 104.11 550.32 L 104.24 550.63 C 103.64 553.26 105.55 555.39 107.11 557.25 L 107.34 557.78 C 107.73 559.91 108.26 562.04 109.30 563.97 C 112.37 569.90 115.37 575.86 118.22 581.89 C 118.78 583.28 119.85 584.32 121.04 585.20 L 121.26 585.60 C 121.80 588.63 123.58 591.17 125.20 593.71 C 132.78 606.75 141.48 619.11 150.96 630.82 C 153.93 634.28 156.35 638.24 159.76 641.31 C 161.91 643.18 163.17 645.82 165.17 647.83 C 171.93 654.33 178.49 661.04 185.13 667.67 C 188.47 671.73 193.09 674.35 196.71 678.12 C 200.10 680.07 202.16 683.93 206.10 684.92 C 206.38 685.12 206.94 685.54 207.22 685.75 C 206.09 687.27 208.77 689.14 210.00 687.88 C 210.19 688.04 210.55 688.36 210.73 688.53 C 212.32 691.21 215.19 693.44 218.25 694.16 C 218.45 694.30 218.84 694.58 219.04 694.71 L 219.05 695.64 L 219.96 696.23 L 220.80 695.87 C 221.16 696.13 221.89 696.64 222.25 696.90 C 221.25 698.44 223.97 700.17 225.12 698.86 C 225.30 699.02 225.66 699.33 225.85 699.49 C 227.12 702.34 230.45 703.41 233.22 704.24 C 233.34 704.31 233.56 704.46 233.68 704.53 C 235.73 707.58 239.52 708.61 242.42 710.66 C 246.30 712.94 249.97 715.79 254.45 716.81 C 255.82 717.65 257.22 718.43 258.64 719.22 C 259.15 719.46 260.18 719.94 260.69 720.18 C 263.63 721.74 266.64 723.14 269.59 724.65 C 276.10 727.38 282.37 730.72 289.08 732.93 C 288.51 734.83 292.00 735.92 293.18 734.59 C 304.79 739.33 316.83 743.18 329.05 746.04 C 329.39 747.78 330.31 748.07 331.82 746.91 L 333.02 747.09 C 333.42 748.80 334.35 749.07 335.83 747.89 L 336.99 748.20 L 337.33 749.04 L 338.40 749.25 L 339.08 748.60 C 343.00 749.70 347.03 750.41 351.05 751.04 C 351.56 752.73 352.52 752.91 353.92 751.57 C 356.94 752.26 360.01 752.80 363.10 753.06 C 363.68 754.73 364.64 754.89 365.98 753.53 C 397.74 758.15 430.23 758.14 461.99 753.54 C 463.34 754.89 464.30 754.73 464.87 753.06 C 469.65 752.52 474.42 751.71 479.12 750.69 C 480.51 751.98 481.47 751.78 481.97 750.08 C 482.50 749.98 483.56 749.77 484.09 749.67 C 485.48 750.96 486.43 750.76 486.96 749.09 C 487.45 748.98 488.43 748.76 488.92 748.65 L 489.60 749.27 L 490.66 749.04 L 490.99 748.19 L 492.17 747.90 C 493.64 749.07 494.57 748.79 494.97 747.08 C 495.47 746.99 496.49 746.83 496.99 746.74 L 497.71 747.33 L 498.76 747.03 L 499.03 746.16 L 500.18 745.91 C 501.68 747.05 502.60 746.76 502.96 745.02 C 508.00 743.89 512.99 742.39 517.86 740.63 C 519.19 741.98 523.12 741.03 522.82 738.97 C 533.39 735.64 543.65 731.35 553.71 726.70 C 558.67 726.07 562.76 723.05 567.22 721.07 C 569.35 719.97 571.88 719.22 573.12 717.00 L 573.59 716.74 C 576.71 715.76 580.37 714.91 582.21 711.91 L 582.76 711.55 C 584.20 713.00 587.72 711.02 586.89 709.06 L 587.52 708.73 C 590.61 708.30 593.21 706.36 595.17 704.02 C 599.34 701.58 603.54 699.06 607.17 695.85 C 608.94 696.80 612.64 694.73 611.77 692.63 C 617.39 688.83 622.77 684.65 627.83 680.13 C 630.55 680.32 631.84 677.69 633.05 675.74 C 633.26 675.55 633.67 675.19 633.88 675.00 C 637.47 673.30 640.32 670.52 642.93 667.59 C 649.24 661.34 655.42 654.97 661.81 648.81 C 665.22 645.91 667.28 641.83 670.63 638.87 C 674.00 634.16 678.72 630.37 680.99 624.93 C 681.16 624.71 681.49 624.27 681.66 624.06 C 683.60 622.34 685.83 620.52 686.18 617.78 C 686.34 617.53 686.67 617.03 686.83 616.78 C 688.36 617.84 690.20 615.17 688.92 613.96 C 689.13 613.73 689.55 613.25 689.76 613.02 L 690.68 612.94 L 691.19 611.99 L 690.76 611.17 C 691.05 610.88 691.61 610.30 691.89 610.01 L 692.80 609.92 L 693.30 608.96 L 692.87 608.14 C 693.17 607.83 693.76 607.22 694.05 606.91 L 694.95 606.80 L 695.43 605.82 L 694.97 605.01 C 698.02 601.00 700.41 596.51 702.98 592.19 C 705.41 590.83 706.13 588.08 706.75 585.58 L 707.01 585.13 C 709.39 583.63 710.20 580.84 711.40 578.47 C 714.08 572.92 716.85 567.40 719.74 561.95 C 720.48 560.61 721.00 559.14 720.79 557.59 L 721.02 557.07 C 722.48 555.14 724.40 553.12 723.78 550.47 L 724.01 549.81 C 725.96 550.47 727.11 546.91 725.65 545.77 L 726.00 544.87 C 727.95 545.46 729.08 541.94 727.63 540.81 C 730.56 533.64 733.20 526.30 735.10 518.79 C 737.30 518.92 738.25 514.65 736.75 513.15 L 737.10 511.81 C 739.30 511.90 740.24 507.63 738.68 506.16 L 739.03 504.95 C 740.74 504.50 740.98 503.55 739.73 502.12 C 740.47 500.16 740.83 498.08 741.10 496.02 L 741.98 495.75 L 742.30 494.70 L 741.71 493.99 C 741.80 493.48 741.97 492.46 742.06 491.95 C 743.74 491.45 743.94 490.49 742.64 489.08 C 743.38 486.44 743.84 483.71 744.06 480.99 L 744.94 480.72 L 745.24 479.67 L 744.63 478.95 C 745.40 472.92 746.69 466.95 747.05 460.88 C 749.27 460.75 748.94 456.61 747.73 455.26 C 747.96 453.51 747.97 451.75 748.09 450.00 L 749.00 450.00 C 748.99 447.27 748.98 444.54 748.86 441.82 C 750.29 412.45 748.76 382.78 742.59 353.97 C 743.92 352.60 743.76 351.64 742.11 351.09 C 742.00 350.58 741.78 349.58 741.67 349.08 L 742.26 348.37 L 741.96 347.32 L 741.09 347.04 C 737.15 328.35 731.16 310.07 723.80 292.46 C 724.00 291.16 723.76 289.96 723.10 288.86 C 720.29 284.30 719.13 278.98 716.33 274.42 C 711.56 264.45 706.31 254.73 700.44 245.36 C 699.79 244.42 698.91 243.68 698.08 242.92 L 697.81 242.50 C 696.77 238.72 694.51 235.03 691.41 232.63 C 691.28 232.48 691.03 232.18 690.90 232.03 C 692.18 230.84 690.41 228.13 688.86 229.16 C 688.63 228.85 688.18 228.24 687.96 227.93 C 687.99 227.50 688.06 226.65 688.09 226.22 L 687.25 226.04 C 686.92 225.79 686.26 225.29 685.94 225.04 C 687.10 223.84 685.41 221.22 683.88 222.18 C 683.64 221.90 683.16 221.33 682.92 221.04 C 684.20 219.84 682.41 217.13 680.87 218.20 C 680.62 217.90 680.14 217.31 679.90 217.01 C 681.22 215.40 678.72 212.20 676.88 213.24 C 676.68 212.98 676.29 212.45 676.09 212.18 C 676.40 209.47 673.64 208.33 671.88 206.95 C 671.70 206.73 671.35 206.30 671.17 206.08 C 671.19 204.04 669.45 202.87 668.16 201.59 C 665.72 199.40 664.33 196.32 661.85 194.17 C 653.89 186.81 646.65 178.67 638.68 171.36 C 634.77 169.62 633.13 164.53 628.83 163.84 C 622.98 158.62 616.66 153.91 610.26 149.39 C 609.75 148.09 608.72 147.19 607.56 146.49 C 598.75 140.97 590.45 134.60 581.16 129.87 C 576.49 126.55 570.85 125.01 566.20 121.68 C 563.71 119.92 560.59 119.51 557.97 118.03 C 554.39 116.08 550.86 113.83 546.73 113.31 C 530.01 106.11 512.66 100.18 494.93 96.00 C 494.51 94.27 493.57 94.01 492.12 95.24 C 488.49 94.19 484.74 93.54 481.02 92.89 L 480.72 92.02 L 479.66 91.76 L 478.96 92.39 C 434.80 83.84 388.90 84.01 344.87 93.29 Z" />
</g>
<g id="#ffffffff">
<path fill="#ffffff" opacity="1.00" d=" M 344.87 93.29 C 388.90 84.01 434.80 83.84 478.96 92.39 C 479.47 92.51 480.50 92.76 481.02 92.89 C 484.74 93.54 488.49 94.19 492.12 95.24 C 492.97 95.79 493.91 96.04 494.93 96.00 C 512.66 100.18 530.01 106.11 546.73 113.31 C 569.08 123.12 590.32 135.32 610.26 149.39 C 616.66 153.91 622.98 158.62 628.83 163.84 C 644.05 176.76 658.23 190.88 671.17 206.08 C 671.35 206.30 671.70 206.73 671.88 206.95 C 673.25 208.71 674.67 210.44 676.09 212.18 C 676.29 212.45 676.68 212.98 676.88 213.24 C 677.75 214.59 678.76 215.86 679.90 217.01 C 680.14 217.31 680.62 217.90 680.87 218.20 C 681.35 219.27 682.02 220.25 682.92 221.04 C 683.16 221.33 683.64 221.90 683.88 222.18 C 684.37 223.24 684.87 224.40 685.94 225.04 C 686.26 225.29 686.92 225.79 687.25 226.04 C 687.43 226.52 687.78 227.46 687.96 227.93 C 688.18 228.24 688.63 228.85 688.86 229.16 C 689.33 230.24 690.01 231.23 690.90 232.03 C 691.03 232.18 691.28 232.48 691.41 232.63 C 693.38 236.02 695.54 239.30 697.81 242.50 L 698.08 242.92 C 707.80 258.81 716.46 275.33 723.80 292.46 C 731.16 310.07 737.15 328.35 741.09 347.04 C 741.23 347.55 741.53 348.57 741.67 349.08 C 741.78 349.58 742.00 350.58 742.11 351.09 C 741.94 352.10 742.10 353.06 742.59 353.97 C 748.76 382.78 750.29 412.45 748.86 441.82 C 748.63 444.55 748.24 447.26 748.09 450.00 C 747.97 451.75 747.96 453.51 747.73 455.26 C 747.36 457.11 747.02 458.98 747.05 460.88 C 746.69 466.95 745.40 472.92 744.63 478.95 C 744.49 479.46 744.20 480.48 744.06 480.99 C 743.84 483.71 743.38 486.44 742.64 489.08 C 742.14 489.97 741.95 490.93 742.06 491.95 C 741.97 492.46 741.80 493.48 741.71 493.99 C 741.56 494.49 741.25 495.51 741.10 496.02 C 740.83 498.08 740.47 500.16 739.73 502.12 C 739.19 502.98 738.96 503.92 739.03 504.95 L 738.68 506.16 C 738.01 508.00 737.47 509.88 737.10 511.81 L 736.75 513.15 C 736.08 514.99 735.44 516.85 735.10 518.79 C 733.20 526.30 730.56 533.64 727.63 540.81 C 726.92 542.09 726.39 543.46 726.00 544.87 L 725.65 545.77 C 724.98 547.06 724.40 548.40 724.01 549.81 L 723.78 550.47 C 722.87 552.68 721.93 554.86 721.02 557.07 L 720.79 557.59 C 716.45 566.90 711.89 576.09 707.01 585.13 L 706.75 585.58 C 705.43 587.75 704.14 589.93 702.98 592.19 C 700.41 596.51 698.02 601.00 694.97 605.01 C 694.74 605.49 694.28 606.43 694.05 606.91 C 693.76 607.22 693.17 607.83 692.87 608.14 C 692.63 608.61 692.14 609.54 691.89 610.01 C 691.61 610.30 691.05 610.88 690.76 611.17 C 690.51 611.63 690.01 612.55 689.76 613.02 C 689.55 613.25 689.13 613.73 688.92 613.96 C 688.02 614.74 687.33 615.70 686.83 616.78 C 686.67 617.03 686.34 617.53 686.18 617.78 C 684.61 619.83 683.09 621.91 681.66 624.06 C 681.49 624.27 681.16 624.71 680.99 624.93 C 666.77 642.95 651.15 659.86 633.88 675.00 C 633.67 675.19 633.26 675.55 633.05 675.74 C 631.28 677.17 629.48 678.57 627.83 680.13 C 622.77 684.65 617.39 688.83 611.77 692.63 C 610.10 693.50 608.51 694.53 607.17 695.85 C 603.54 699.06 599.34 701.58 595.17 704.02 C 592.53 705.44 590.06 707.15 587.52 708.73 L 586.89 709.06 C 585.41 709.72 584.04 710.56 582.76 711.55 L 582.21 711.91 C 579.32 713.50 576.41 715.05 573.59 716.74 L 573.12 717.00 C 566.70 720.34 560.17 723.45 553.71 726.70 C 543.65 731.35 533.39 735.64 522.82 738.97 C 521.10 739.31 519.43 739.86 517.86 740.63 C 512.99 742.39 508.00 743.89 502.96 745.02 C 501.93 745.00 501.00 745.30 500.18 745.91 L 499.03 746.16 C 498.52 746.31 497.50 746.60 496.99 746.74 C 496.49 746.83 495.47 746.99 494.97 747.08 C 493.93 747.02 493.00 747.29 492.17 747.90 L 490.99 748.19 C 490.47 748.30 489.44 748.53 488.92 748.65 C 488.43 748.76 487.45 748.98 486.96 749.09 C 485.93 748.95 484.98 749.15 484.09 749.67 C 483.56 749.77 482.50 749.98 481.97 750.08 C 480.95 749.97 480.00 750.18 479.12 750.69 C 474.42 751.71 469.65 752.52 464.87 753.06 C 463.86 752.90 462.90 753.06 461.99 753.54 C 430.23 758.14 397.74 758.15 365.98 753.53 C 365.06 753.06 364.10 752.90 363.10 753.06 C 360.01 752.80 356.94 752.26 353.92 751.57 C 353.01 751.10 352.05 750.92 351.05 751.04 C 347.03 750.41 343.00 749.70 339.08 748.60 C 338.56 748.50 337.52 748.30 336.99 748.20 L 335.83 747.89 C 334.98 747.29 334.04 747.03 333.02 747.09 L 331.82 746.91 C 330.99 746.31 330.06 746.02 329.05 746.04 C 316.83 743.18 304.79 739.33 293.18 734.59 C 291.88 733.85 290.53 733.21 289.08 732.93 C 282.37 730.72 276.10 727.38 269.59 724.65 C 266.64 723.14 263.63 721.74 260.69 720.18 C 260.18 719.94 259.15 719.46 258.64 719.22 C 257.22 718.43 255.82 717.65 254.45 716.81 C 247.54 712.69 240.55 708.72 233.68 704.53 C 233.56 704.46 233.34 704.31 233.22 704.24 C 230.84 702.53 228.37 700.96 225.85 699.49 C 225.66 699.33 225.30 699.02 225.12 698.86 C 224.35 697.95 223.34 697.31 222.25 696.90 C 221.89 696.64 221.16 696.13 220.80 695.87 C 220.36 695.58 219.48 695.00 219.04 694.71 C 218.84 694.58 218.45 694.30 218.25 694.16 C 215.89 692.10 213.35 690.24 210.73 688.53 C 210.55 688.36 210.19 688.04 210.00 687.88 C 209.22 686.98 208.26 686.27 207.22 685.75 C 206.94 685.54 206.38 685.12 206.10 684.92 C 182.73 666.06 161.47 644.50 143.77 620.20 C 135.58 609.13 128.26 597.45 121.26 585.60 L 121.04 585.20 C 116.28 576.16 111.62 567.06 107.34 557.78 L 107.11 557.25 C 106.19 555.02 105.24 552.82 104.24 550.63 L 104.11 550.32 C 102.90 547.03 101.62 543.78 100.20 540.59 C 98.07 534.41 95.40 528.39 93.93 522.01 C 93.74 521.52 93.34 520.53 93.15 520.03 L 92.77 518.99 C 92.65 518.48 92.42 517.44 92.30 516.92 L 91.91 515.93 C 92.00 514.90 91.78 513.96 91.24 513.09 L 90.91 511.81 C 90.53 509.88 90.02 507.99 89.32 506.16 L 89.09 505.45 C 88.46 502.89 87.89 500.33 87.26 497.78 C 76.12 449.36 75.71 398.44 86.30 349.89 C 86.80 348.99 87.01 348.04 86.92 347.03 L 87.10 345.81 C 87.70 344.97 87.97 344.04 87.93 343.02 C 88.01 342.51 88.18 341.50 88.26 341.00 C 88.40 340.49 88.69 339.47 88.84 338.96 L 89.09 337.83 C 89.68 336.99 89.97 336.06 89.95 335.05 C 91.14 328.99 93.20 323.15 95.11 317.29 C 96.16 314.45 97.12 311.58 98.02 308.69 C 100.18 302.49 102.43 296.30 105.19 290.35 C 106.23 288.17 107.14 285.94 108.02 283.69 C 108.44 282.64 108.86 281.61 109.32 280.58 C 113.83 271.28 118.45 262.03 123.75 253.16 C 128.87 244.94 134.02 236.75 139.43 228.71 C 139.54 228.56 139.76 228.24 139.88 228.08 C 144.99 221.35 150.03 214.56 155.30 207.93 C 155.47 207.74 155.80 207.34 155.97 207.15 C 157.51 205.48 158.92 203.71 160.33 201.94 C 160.52 201.72 160.90 201.30 161.09 201.09 C 174.31 186.20 188.73 172.43 204.12 159.79 C 204.32 159.64 204.72 159.32 204.92 159.16 C 207.77 157.14 210.53 155.00 213.22 152.77 C 213.46 152.62 213.94 152.31 214.18 152.15 C 215.25 151.64 216.24 150.95 217.01 150.04 C 222.18 145.62 228.18 142.23 233.84 138.44 C 247.14 130.48 260.59 122.68 274.77 116.36 C 281.87 113.03 289.22 110.29 296.43 107.21 C 308.46 102.95 320.59 98.75 333.07 96.00 C 334.09 96.04 335.03 95.79 335.89 95.24 C 337.86 94.50 339.96 94.18 342.05 93.97 C 343.05 94.03 344.00 93.81 344.87 93.29 M 378.26 203.22 C 372.28 210.30 371.57 220.51 374.54 229.04 C 374.92 232.05 377.31 236.68 373.70 238.58 C 367.63 241.50 361.74 245.24 357.72 250.77 C 351.24 259.47 351.08 270.88 350.66 281.26 C 342.64 273.66 335.74 264.92 328.30 256.75 C 324.84 253.15 322.23 248.74 318.30 245.62 C 312.64 241.31 303.25 241.15 298.83 247.32 C 296.29 246.77 293.67 245.71 291.04 246.40 C 287.38 247.09 284.22 250.27 283.89 254.04 C 282.61 269.35 281.18 284.65 280.01 299.97 C 279.74 309.31 278.33 318.65 279.24 327.99 C 280.38 335.00 283.27 341.55 285.81 348.14 C 291.14 361.34 296.67 374.47 302.81 387.32 C 305.40 393.02 310.31 397.23 315.62 400.36 C 324.52 405.58 334.22 409.22 343.63 413.40 C 368.56 424.05 392.61 436.80 415.16 451.85 C 442.58 432.90 472.86 418.61 503.41 405.51 C 510.60 402.29 518.88 400.32 524.22 394.11 C 528.09 389.95 529.09 384.20 531.14 379.10 C 535.08 369.03 539.43 359.10 544.61 349.60 C 549.27 340.83 551.98 330.98 551.75 321.01 C 551.57 302.67 550.79 284.34 550.66 265.99 C 550.44 260.82 550.74 254.56 546.07 251.11 C 542.93 248.22 538.69 249.79 535.03 250.27 C 531.77 248.47 528.84 245.68 524.88 245.69 C 518.37 244.87 512.65 248.94 508.31 253.32 C 499.92 261.78 491.39 270.08 482.93 278.45 C 485.97 266.99 483.06 253.86 474.49 245.45 C 472.68 243.33 469.86 242.05 468.54 239.58 C 466.29 226.09 456.25 214.93 444.56 208.51 C 434.40 205.13 421.83 212.98 421.09 223.89 C 420.81 233.55 424.15 245.20 434.01 249.04 C 436.86 250.08 438.19 245.55 435.85 244.23 C 431.44 240.61 430.41 234.44 430.77 229.06 C 430.76 226.56 432.92 225.07 434.92 224.10 C 437.79 224.93 440.82 225.82 442.80 228.24 C 449.66 235.68 452.87 245.54 458.11 254.04 C 460.70 258.49 466.71 259.21 469.31 263.67 C 472.43 268.81 472.62 275.09 472.83 280.94 C 472.39 293.66 471.07 306.33 469.68 318.97 C 469.64 320.22 468.80 321.23 467.73 321.78 C 454.47 329.51 440.48 335.88 427.00 343.21 C 425.93 343.65 424.83 344.00 423.70 344.26 C 423.13 341.00 423.70 337.37 425.66 334.67 C 428.65 331.23 433.59 332.17 437.62 332.08 C 437.96 327.04 437.22 322.02 437.35 316.99 C 437.33 312.62 437.57 308.22 436.91 303.89 C 436.15 299.51 433.28 295.93 430.30 292.80 C 436.74 288.53 442.05 282.86 447.21 277.17 C 448.96 274.95 451.05 272.75 451.70 269.92 C 452.75 265.34 447.30 261.20 443.10 263.02 C 439.75 264.41 436.45 265.92 432.97 266.95 C 430.41 260.33 428.73 253.38 426.26 246.74 C 422.49 241.80 415.39 243.01 409.96 243.15 C 408.42 243.43 407.67 241.88 406.78 240.97 C 409.33 238.13 412.77 236.06 414.69 232.69 C 415.71 228.89 415.21 224.86 415.73 220.98 C 416.08 214.79 417.15 207.96 413.76 202.39 C 410.23 196.84 403.04 195.73 396.99 195.88 C 390.24 196.24 382.87 197.88 378.26 203.22 M 261.30 491.24 C 254.16 495.76 249.50 504.25 250.58 512.79 C 250.93 519.07 254.44 524.94 259.53 528.56 C 268.33 535.27 279.62 537.25 288.89 543.12 C 292.64 545.35 295.37 549.67 294.77 554.12 C 294.32 557.96 292.77 562.69 288.40 563.46 C 280.69 565.12 272.13 564.84 265.11 560.91 C 263.81 556.24 262.39 551.58 261.83 546.75 C 257.89 546.56 253.94 546.66 250.02 547.00 C 249.91 553.40 249.86 559.80 249.89 566.20 C 257.83 571.56 267.54 573.41 276.95 573.99 C 286.80 574.39 297.39 572.69 305.19 566.21 C 314.55 558.42 314.95 542.25 305.70 534.22 C 297.78 527.18 287.16 524.74 278.02 519.80 C 274.31 517.71 270.52 515.05 268.93 510.92 C 267.25 506.42 267.72 500.61 270.86 496.90 C 277.93 493.07 287.64 493.01 294.21 497.86 C 295.84 502.77 296.12 508.00 297.02 513.07 C 300.59 513.34 304.18 513.40 307.77 513.27 C 308.68 507.49 310.11 501.80 310.93 496.01 C 311.28 493.02 308.67 490.70 306.09 489.74 C 292.17 483.15 274.48 482.57 261.30 491.24 M 346.99 486.82 C 339.81 489.15 332.86 493.60 329.36 500.50 C 324.89 508.78 326.53 519.92 333.45 526.39 C 340.50 532.96 349.99 535.71 358.62 539.53 C 363.12 541.53 367.97 543.93 370.36 548.48 C 371.79 552.02 371.34 556.21 369.70 559.62 C 368.23 563.50 363.45 563.88 359.93 564.26 C 353.74 564.53 346.74 564.45 341.61 560.56 C 339.93 556.08 339.17 551.32 338.10 546.67 C 334.28 546.62 330.45 546.60 326.66 547.08 C 326.62 553.41 325.77 559.93 326.67 566.16 C 333.85 571.50 343.12 573.07 351.84 573.90 C 361.85 574.50 372.76 573.20 380.87 566.80 C 387.62 561.58 390.63 552.13 388.14 543.98 C 386.99 539.15 383.69 535.10 379.73 532.23 C 370.87 525.69 359.56 523.70 350.63 517.30 C 346.11 514.27 343.39 508.50 344.72 503.10 C 345.24 500.62 345.79 497.55 348.34 496.34 C 355.38 493.06 364.01 493.47 370.67 497.50 C 371.97 502.55 372.87 507.71 373.29 512.91 C 376.84 513.41 380.44 513.38 384.03 513.32 C 385.38 507.57 386.57 501.77 387.35 495.92 C 387.62 494.19 386.38 492.77 385.74 491.29 C 374.06 484.91 359.79 482.86 346.99 486.82 M 420.88 487.75 C 412.88 490.83 405.57 497.29 403.88 506.00 C 402.19 513.65 404.78 522.16 410.83 527.24 C 419.42 534.60 430.90 536.78 440.56 542.28 C 444.45 544.41 447.99 548.26 447.73 552.98 C 447.58 557.07 446.20 562.51 441.51 563.38 C 433.79 565.15 425.15 564.87 418.12 560.92 C 416.73 556.26 415.43 551.56 414.76 546.74 C 410.84 546.57 406.92 546.66 403.02 547.00 C 402.82 553.41 402.93 559.82 402.86 566.23 C 411.15 571.72 421.25 573.59 431.03 574.02 C 440.74 574.21 451.30 572.42 458.71 565.63 C 467.38 557.91 467.68 542.82 459.28 534.79 C 452.73 528.53 443.86 525.84 435.79 522.17 C 431.20 520.04 426.35 517.72 423.30 513.52 C 420.12 509.19 420.38 503.14 422.63 498.46 C 423.33 496.56 425.49 495.97 427.22 495.35 C 433.75 493.40 441.56 493.57 447.15 497.84 C 448.81 502.75 449.06 508.00 450.01 513.07 C 453.56 513.33 457.13 513.39 460.70 513.29 C 461.61 507.78 462.91 502.34 463.80 496.82 C 464.64 493.91 462.33 491.10 459.74 490.07 C 447.83 484.20 433.35 482.90 420.88 487.75 M 476.76 486.91 C 476.15 495.09 476.13 503.32 476.77 511.51 C 480.44 512.14 484.18 512.10 487.90 512.01 C 489.10 506.73 490.35 501.46 491.39 496.15 C 496.53 495.68 501.69 495.19 506.87 495.34 C 506.81 517.60 507.40 539.89 505.93 562.11 C 502.33 563.51 498.52 564.28 494.95 565.72 C 495.57 567.75 495.96 569.84 496.30 571.95 C 508.83 572.07 521.37 571.96 533.91 572.00 C 534.43 569.84 534.91 567.67 535.25 565.47 C 531.21 564.07 524.57 563.56 524.26 558.09 C 523.02 537.26 523.99 516.36 523.61 495.50 C 528.76 494.94 533.92 495.74 539.06 496.06 C 540.18 501.11 541.48 506.13 542.18 511.26 C 545.71 512.05 549.34 511.98 552.93 511.63 C 553.23 504.51 554.62 497.44 554.57 490.31 C 553.74 488.76 552.72 487.33 551.73 485.89 C 526.78 487.62 501.75 486.66 476.76 486.91 M 562.55 486.83 C 562.02 488.93 561.55 491.05 561.11 493.17 C 564.70 494.59 569.30 494.99 571.69 498.34 C 572.77 503.80 572.72 509.41 572.89 514.95 C 572.82 530.70 573.26 546.48 571.95 562.19 C 568.43 563.35 564.90 564.49 561.27 565.27 C 561.58 567.49 561.94 569.70 562.32 571.92 C 586.24 572.10 610.17 571.95 634.10 572.00 C 634.30 563.96 634.31 555.95 634.10 547.92 C 630.44 547.62 626.77 547.63 623.11 547.66 C 621.55 552.45 621.13 557.72 619.20 562.31 C 615.59 563.28 611.75 562.92 608.05 563.31 C 602.47 563.30 596.63 563.66 591.32 561.63 C 590.61 559.51 590.07 557.31 590.08 555.07 C 589.99 548.25 589.43 541.44 589.69 534.62 C 598.79 535.13 607.92 535.15 617.03 535.34 C 617.64 532.60 618.14 529.84 618.62 527.08 C 618.16 526.47 617.24 525.26 616.78 524.66 C 607.75 524.71 598.75 525.40 589.74 525.70 C 589.50 516.10 590.21 506.52 590.29 496.93 C 591.12 496.48 592.00 496.14 592.92 495.91 C 601.12 494.71 609.41 495.59 617.62 496.27 C 618.65 501.04 619.35 505.87 620.38 510.64 C 623.74 511.53 627.31 510.97 630.76 511.09 C 631.60 504.68 632.96 498.36 633.96 491.98 C 634.64 489.47 632.16 487.79 631.03 485.87 C 608.24 487.50 585.38 486.76 562.55 486.83 M 197.97 486.89 C 197.46 488.98 196.98 491.07 196.55 493.19 C 200.36 494.92 206.88 494.93 207.50 500.16 C 208.34 505.39 207.83 510.70 208.03 515.97 C 208.53 523.31 208.35 530.67 208.29 538.02 C 207.62 546.09 208.44 554.24 207.33 562.29 C 203.81 563.50 200.02 564.09 196.68 565.72 C 196.91 567.85 197.43 569.93 197.96 572.00 C 210.52 571.90 223.08 572.20 235.64 571.84 C 235.98 569.74 236.37 567.64 236.83 565.57 C 233.30 564.16 228.67 563.90 226.34 560.57 C 224.73 552.85 225.20 544.88 225.11 537.05 C 225.23 523.50 224.66 509.91 226.12 496.42 C 229.71 495.49 233.25 494.37 236.78 493.25 C 236.37 491.18 236.00 489.12 235.67 487.05 C 223.11 486.68 210.54 486.99 197.97 486.89 Z" />
<path fill="#ffffff" opacity="1.00" d=" M 394.37 211.25 C 397.22 211.01 400.33 210.57 402.94 212.08 C 407.26 214.15 408.79 219.43 408.52 223.88 C 407.61 230.43 402.88 235.52 398.24 239.85 C 399.14 241.29 400.13 242.68 400.86 244.23 C 400.67 245.65 399.61 246.75 399.01 248.00 C 395.42 253.76 395.83 261.69 399.88 267.12 C 400.53 268.49 402.53 269.83 401.54 271.50 C 397.82 278.48 394.25 285.91 394.01 293.98 C 394.23 298.98 395.27 304.33 398.78 308.13 C 400.90 310.44 404.66 311.12 407.37 309.44 C 408.94 308.55 410.23 307.18 411.95 306.58 C 413.86 307.12 415.42 309.10 417.55 308.66 C 419.96 307.14 419.54 303.54 421.72 301.74 C 423.09 300.13 425.22 301.37 426.57 302.33 C 428.49 303.85 430.58 305.60 431.23 308.07 C 429.83 313.62 430.48 319.33 430.18 324.98 C 426.53 325.46 422.74 324.87 419.19 326.03 C 417.56 329.39 417.57 333.16 416.75 336.73 C 415.98 338.42 412.97 340.45 412.12 337.79 C 410.97 333.79 410.59 329.21 412.29 325.31 C 414.43 321.21 419.12 319.77 422.98 317.82 C 425.92 316.11 425.62 312.24 425.79 309.32 C 425.41 308.92 424.65 308.12 424.27 307.73 C 422.63 309.93 422.25 313.42 419.27 314.31 C 414.60 316.54 407.96 315.97 405.10 321.00 C 402.44 326.77 402.64 333.58 404.36 339.59 C 407.87 345.25 415.04 346.62 420.40 349.95 C 418.72 351.30 417.02 352.61 415.30 353.90 C 407.85 346.46 399.70 339.53 390.22 334.83 C 384.79 331.97 378.98 329.97 373.34 327.62 C 369.18 325.80 364.68 323.65 362.47 319.45 C 361.42 316.45 361.49 313.20 361.23 310.07 C 360.66 296.42 359.74 282.45 363.22 269.08 C 365.24 261.01 370.88 254.20 377.98 250.01 C 380.87 247.97 384.83 246.58 386.04 242.94 C 387.02 237.54 385.24 232.11 383.66 226.99 C 389.36 223.73 394.45 218.21 394.37 211.25 Z" />
<path fill="#ffffff" opacity="1.00" d=" M 418.64 254.87 C 420.05 255.16 421.47 255.47 422.88 255.82 C 423.39 258.19 423.96 260.54 424.53 262.90 C 422.49 265.20 420.40 267.77 420.92 271.08 C 426.14 276.06 434.08 273.61 440.24 272.00 C 438.52 275.74 436.17 279.40 432.57 281.58 C 428.54 283.86 422.26 280.83 419.70 285.75 C 418.44 290.23 420.21 295.19 418.82 299.61 C 414.04 300.22 408.71 300.61 404.12 298.82 C 400.09 295.61 399.69 289.19 401.80 284.74 C 404.73 279.39 408.59 274.54 411.04 268.92 C 411.98 267.04 411.62 264.91 411.43 262.91 C 415.53 262.31 418.76 259.17 418.64 254.87 Z" />
<path fill="#ffffff" opacity="1.00" d=" M 312.87 269.00 C 314.97 267.47 318.53 267.64 319.36 270.48 C 321.53 279.26 323.21 288.16 325.13 297.00 C 326.00 300.49 326.84 305.16 322.95 307.16 C 319.87 306.94 317.84 304.55 317.61 301.55 C 316.03 290.70 314.06 279.89 312.87 269.00 Z" />
<path fill="#ffffff" opacity="1.00" d=" M 526.64 278.16 C 527.06 274.04 528.77 269.39 533.06 267.96 C 535.03 269.00 536.65 270.73 536.65 273.10 C 537.37 284.71 536.62 296.38 537.30 308.00 C 537.37 314.66 538.67 321.43 537.12 328.01 C 535.95 333.92 532.90 339.19 530.48 344.63 C 526.02 354.08 522.21 363.85 517.19 373.03 C 515.28 376.68 512.33 379.74 508.80 381.86 C 478.69 398.50 445.12 408.74 417.13 429.18 C 415.43 431.03 413.54 428.83 412.03 427.93 C 384.21 408.09 351.08 398.09 321.46 381.48 C 317.37 378.91 314.46 374.90 312.37 370.62 C 307.26 360.58 303.12 350.08 298.14 339.97 C 295.23 334.17 292.76 327.76 293.50 321.15 C 295.32 307.80 295.93 294.33 296.26 280.87 C 296.35 276.38 296.60 270.41 301.73 268.78 C 303.76 270.23 305.44 272.28 305.66 274.86 C 307.56 290.18 309.22 305.55 311.69 320.80 C 312.83 327.50 314.14 334.39 317.84 340.22 C 322.41 347.51 329.25 353.18 336.82 357.16 C 342.93 360.43 348.88 364.62 355.87 365.67 C 358.84 366.29 361.68 363.93 362.01 361.00 C 361.84 358.59 359.80 356.98 357.92 355.79 C 349.29 350.48 340.04 346.10 332.01 339.87 C 327.68 336.59 326.05 331.17 325.33 326.02 C 324.91 324.56 325.54 323.15 325.99 321.79 C 329.16 321.41 332.12 322.68 334.87 324.11 C 354.19 334.32 374.59 342.42 393.38 353.65 C 403.64 359.84 409.06 371.32 412.52 382.35 C 414.06 387.61 415.10 393.01 415.45 398.48 C 416.90 384.14 421.24 369.13 431.46 358.52 C 435.54 354.29 440.85 351.64 445.95 348.87 C 461.27 340.63 477.24 333.65 492.77 325.81 C 496.60 323.89 500.48 321.26 504.98 321.77 C 506.34 325.93 504.82 330.43 503.29 334.35 C 498.92 342.09 490.11 345.32 483.01 349.94 C 478.43 353.06 472.65 354.73 469.21 359.30 C 467.89 362.74 471.54 366.44 475.04 365.67 C 482.01 364.62 487.94 360.43 494.04 357.17 C 503.60 352.11 512.20 344.31 516.06 334.00 C 518.00 328.46 518.94 322.64 520.10 316.91 C 522.55 304.04 525.03 291.17 526.64 278.16 Z" />
<path fill="#ffffff" opacity="1.00" d=" M 512.46 270.35 C 513.22 268.50 515.53 269.09 517.10 268.65 C 517.83 271.40 517.07 274.19 516.64 276.93 C 515.16 285.34 513.96 293.81 512.25 302.18 C 512.03 304.89 507.81 308.15 506.05 304.88 C 506.06 297.84 508.22 290.98 509.33 284.06 C 510.52 279.53 510.60 274.68 512.46 270.35 Z" />
<path fill="#ffffff" opacity="1.00" d=" M 330.28 284.38 C 332.64 283.24 334.72 285.82 334.75 288.03 C 335.44 294.76 337.02 301.35 338.00 308.03 C 337.71 310.42 334.75 309.88 333.53 308.57 C 332.05 306.67 332.16 304.12 331.75 301.87 C 331.11 296.52 329.94 291.24 329.37 285.88 C 329.60 285.51 330.05 284.75 330.28 284.38 Z" />
<path fill="#ffffff" opacity="1.00" d=" M 493.67 299.50 C 495.01 293.87 494.01 286.81 499.10 282.85 C 501.54 285.77 500.20 289.54 500.09 292.92 C 499.65 297.52 500.08 302.27 498.77 306.75 C 498.31 308.64 496.40 309.39 494.92 310.33 C 491.26 307.81 493.33 303.06 493.67 299.50 Z" />
<path fill="#ffffff" opacity="1.00" d=" M 344.27 296.12 C 345.51 296.20 347.07 295.91 347.66 297.35 C 349.37 301.14 349.51 305.42 350.58 309.41 C 350.84 311.51 352.43 314.64 349.69 315.77 C 346.95 316.68 345.78 313.15 345.57 311.05 C 344.91 306.12 342.90 301.10 344.27 296.12 Z" />
<path fill="#ffffff" opacity="1.00" d=" M 484.08 296.06 C 484.56 296.06 485.52 296.06 485.99 296.06 C 486.71 300.02 485.68 304.03 485.71 308.01 C 485.45 310.67 485.83 313.90 483.67 315.90 C 482.32 316.25 480.85 316.00 480.20 314.64 C 478.69 310.78 480.43 306.75 481.06 302.89 C 481.73 300.53 481.60 297.38 484.08 296.06 Z" />
</g>
<g id="#ca9656ff">
<path fill="#ca9656" opacity="1.00" d=" M 478.96 92.39 L 479.66 91.76 L 480.72 92.02 L 481.02 92.89 C 480.50 92.76 479.47 92.51 478.96 92.39 Z" />
<path fill="#ca9656" opacity="1.00" d=" M 342.05 93.97 C 342.49 92.24 343.43 92.01 344.87 93.29 C 344.00 93.81 343.05 94.03 342.05 93.97 Z" />
<path fill="#ca9656" opacity="1.00" d=" M 333.07 96.00 C 333.48 94.27 334.42 94.02 335.89 95.24 C 335.03 95.79 334.09 96.04 333.07 96.00 Z" />
<path fill="#ca9656" opacity="1.00" d=" M 492.12 95.24 C 493.57 94.01 494.51 94.27 494.93 96.00 C 493.91 96.04 492.97 95.79 492.12 95.24 Z" />
<path fill="#ca9656" opacity="1.00" d=" M 292.20 108.16 C 293.52 107.54 294.94 107.13 296.43 107.21 C 289.22 110.29 281.87 113.03 274.77 116.36 C 260.59 122.68 247.14 130.48 233.84 138.44 L 234.31 137.40 C 238.54 135.03 242.39 132.03 246.75 129.89 C 253.69 125.50 261.42 122.62 268.62 118.71 C 276.12 114.43 284.27 111.52 292.20 108.16 Z" />
<path fill="#ca9656" opacity="1.00" d=" M 546.73 113.31 C 550.86 113.83 554.39 116.08 557.97 118.03 C 560.59 119.51 563.71 119.92 566.20 121.68 C 570.85 125.01 576.49 126.55 581.16 129.87 C 590.45 134.60 598.75 140.97 607.56 146.49 C 608.72 147.19 609.75 148.09 610.26 149.39 C 590.32 135.32 569.08 123.12 546.73 113.31 Z" />
<path fill="#ca9656" opacity="1.00" d=" M 214.18 152.15 C 213.17 150.61 215.79 148.75 217.01 150.04 C 216.24 150.95 215.25 151.64 214.18 152.15 Z" />
<path fill="#ca9656" opacity="1.00" d=" M 204.92 159.16 C 206.87 156.27 209.86 153.77 213.22 152.77 C 210.53 155.00 207.77 157.14 204.92 159.16 Z" />
<path fill="#ca9656" opacity="1.00" d=" M 202.33 160.23 C 202.78 160.12 203.68 159.90 204.12 159.79 C 188.73 172.43 174.31 186.20 161.09 201.09 C 162.70 198.72 164.13 196.20 166.16 194.16 C 173.31 187.30 180.30 180.27 187.18 173.14 C 192.36 168.99 197.40 164.68 202.33 160.23 Z" />
<path fill="#ca9656" opacity="1.00" d=" M 628.83 163.84 C 633.13 164.53 634.77 169.62 638.68 171.36 C 646.65 178.67 653.89 186.81 661.85 194.17 C 664.33 196.32 665.72 199.40 668.16 201.59 C 669.45 202.87 671.19 204.04 671.17 206.08 C 658.23 190.88 644.05 176.76 628.83 163.84 Z" />
<path fill="#ca9656" opacity="1.00" d=" M 378.26 203.22 C 382.87 197.88 390.24 196.24 396.99 195.88 C 403.04 195.73 410.23 196.84 413.76 202.39 C 417.15 207.96 416.08 214.79 415.73 220.98 C 415.21 224.86 415.71 228.89 414.69 232.69 C 412.77 236.06 409.33 238.13 406.78 240.97 C 407.67 241.88 408.42 243.43 409.96 243.15 C 415.39 243.01 422.49 241.80 426.26 246.74 C 428.73 253.38 430.41 260.33 432.97 266.95 C 436.45 265.92 439.75 264.41 443.10 263.02 C 447.30 261.20 452.75 265.34 451.70 269.92 C 451.05 272.75 448.96 274.95 447.21 277.17 C 442.05 282.86 436.74 288.53 430.30 292.80 C 433.28 295.93 436.15 299.51 436.91 303.89 C 437.57 308.22 437.33 312.62 437.35 316.99 C 437.22 322.02 437.96 327.04 437.62 332.08 C 433.59 332.17 428.65 331.23 425.66 334.67 C 423.70 337.37 423.13 341.00 423.70 344.26 C 424.83 344.00 425.93 343.65 427.00 343.21 C 440.48 335.88 454.47 329.51 467.73 321.78 C 468.80 321.23 469.64 320.22 469.68 318.97 C 471.07 306.33 472.39 293.66 472.83 280.94 C 472.62 275.09 472.43 268.81 469.31 263.67 C 466.71 259.21 460.70 258.49 458.11 254.04 C 452.87 245.54 449.66 235.68 442.80 228.24 C 440.82 225.82 437.79 224.93 434.92 224.10 C 432.92 225.07 430.76 226.56 430.77 229.06 C 430.41 234.44 431.44 240.61 435.85 244.23 C 438.19 245.55 436.86 250.08 434.01 249.04 C 424.15 245.20 420.81 233.55 421.09 223.89 C 421.83 212.98 434.40 205.13 444.56 208.51 C 456.25 214.93 466.29 226.09 468.54 239.58 C 469.86 242.05 472.68 243.33 474.49 245.45 C 483.06 253.86 485.97 266.99 482.93 278.45 C 491.39 270.08 499.92 261.78 508.31 253.32 C 512.65 248.94 518.37 244.87 524.88 245.69 C 528.84 245.68 531.77 248.47 535.03 250.27 C 538.69 249.79 542.93 248.22 546.07 251.11 C 550.74 254.56 550.44 260.82 550.66 265.99 C 550.79 284.34 551.57 302.67 551.75 321.01 C 551.98 330.98 549.27 340.83 544.61 349.60 C 539.43 359.10 535.08 369.03 531.14 379.10 C 529.09 384.20 528.09 389.95 524.22 394.11 C 518.88 400.32 510.60 402.29 503.41 405.51 C 472.86 418.61 442.58 432.90 415.16 451.85 C 392.61 436.80 368.56 424.05 343.63 413.40 C 334.22 409.22 324.52 405.58 315.62 400.36 C 310.31 397.23 305.40 393.02 302.81 387.32 C 296.67 374.47 291.14 361.34 285.81 348.14 C 283.27 341.55 280.38 335.00 279.24 327.99 C 278.33 318.65 279.74 309.31 280.01 299.97 C 281.18 284.65 282.61 269.35 283.89 254.04 C 284.22 250.27 287.38 247.09 291.04 246.40 C 293.67 245.71 296.29 246.77 298.83 247.32 C 303.25 241.15 312.64 241.31 318.30 245.62 C 322.23 248.74 324.84 253.15 328.30 256.75 C 335.74 264.92 342.64 273.66 350.66 281.26 C 351.08 270.88 351.24 259.47 357.72 250.77 C 361.74 245.24 367.63 241.50 373.70 238.58 C 377.31 236.68 374.92 232.05 374.54 229.04 C 371.57 220.51 372.28 210.30 378.26 203.22 M 394.37 211.25 C 394.45 218.21 389.36 223.73 383.66 226.99 C 385.24 232.11 387.02 237.54 386.04 242.94 C 384.83 246.58 380.87 247.97 377.98 250.01 C 370.88 254.20 365.24 261.01 363.22 269.08 C 359.74 282.45 360.66 296.42 361.23 310.07 C 361.49 313.20 361.42 316.45 362.47 319.45 C 364.68 323.65 369.18 325.80 373.34 327.62 C 378.98 329.97 384.79 331.97 390.22 334.83 C 399.70 339.53 407.85 346.46 415.30 353.90 C 417.02 352.61 418.72 351.30 420.40 349.95 C 415.04 346.62 407.87 345.25 404.36 339.59 C 402.64 333.58 402.44 326.77 405.10 321.00 C 407.96 315.97 414.60 316.54 419.27 314.31 C 422.25 313.42 422.63 309.93 424.27 307.73 C 424.65 308.12 425.41 308.92 425.79 309.32 C 425.62 312.24 425.92 316.11 422.98 317.82 C 419.12 319.77 414.43 321.21 412.29 325.31 C 410.59 329.21 410.97 333.79 412.12 337.79 C 412.97 340.45 415.98 338.42 416.75 336.73 C 417.57 333.16 417.56 329.39 419.19 326.03 C 422.74 324.87 426.53 325.46 430.18 324.98 C 430.48 319.33 429.83 313.62 431.23 308.07 C 430.58 305.60 428.49 303.85 426.57 302.33 C 425.22 301.37 423.09 300.13 421.72 301.74 C 419.54 303.54 419.96 307.14 417.55 308.66 C 415.42 309.10 413.86 307.12 411.95 306.58 C 410.23 307.18 408.94 308.55 407.37 309.44 C 404.66 311.12 400.90 310.44 398.78 308.13 C 395.27 304.33 394.23 298.98 394.01 293.98 C 394.25 285.91 397.82 278.48 401.54 271.50 C 402.53 269.83 400.53 268.49 399.88 267.12 C 395.83 261.69 395.42 253.76 399.01 248.00 C 399.61 246.75 400.67 245.65 400.86 244.23 C 400.13 242.68 399.14 241.29 398.24 239.85 C 402.88 235.52 407.61 230.43 408.52 223.88 C 408.79 219.43 407.26 214.15 402.94 212.08 C 400.33 210.57 397.22 211.01 394.37 211.25 M 418.64 254.87 C 418.76 259.17 415.53 262.31 411.43 262.91 C 411.62 264.91 411.98 267.04 411.04 268.92 C 408.59 274.54 404.73 279.39 401.80 284.74 C 399.69 289.19 400.09 295.61 404.12 298.82 C 408.71 300.61 414.04 300.22 418.82 299.61 C 420.21 295.19 418.44 290.23 419.70 285.75 C 422.26 280.83 428.54 283.86 432.57 281.58 C 436.17 279.40 438.52 275.74 440.24 272.00 C 434.08 273.61 426.14 276.06 420.92 271.08 C 420.40 267.77 422.49 265.20 424.53 262.90 C 423.96 260.54 423.39 258.19 422.88 255.82 C 421.47 255.47 420.05 255.16 418.64 254.87 M 312.87 269.00 C 314.06 279.89 316.03 290.70 317.61 301.55 C 317.84 304.55 319.87 306.94 322.95 307.16 C 326.84 305.16 326.00 300.49 325.13 297.00 C 323.21 288.16 321.53 279.26 319.36 270.48 C 318.53 267.64 314.97 267.47 312.87 269.00 M 526.64 278.16 C 525.03 291.17 522.55 304.04 520.10 316.91 C 518.94 322.64 518.00 328.46 516.06 334.00 C 512.20 344.31 503.60 352.11 494.04 357.17 C 487.94 360.43 482.01 364.62 475.04 365.67 C 471.54 366.44 467.89 362.74 469.21 359.30 C 472.65 354.73 478.43 353.06 483.01 349.94 C 490.11 345.32 498.92 342.09 503.29 334.35 C 504.82 330.43 506.34 325.93 504.98 321.77 C 500.48 321.26 496.60 323.89 492.77 325.81 C 477.24 333.65 461.27 340.63 445.95 348.87 C 440.85 351.64 435.54 354.29 431.46 358.52 C 421.24 369.13 416.90 384.14 415.45 398.48 C 415.10 393.01 414.06 387.61 412.52 382.35 C 409.06 371.32 403.64 359.84 393.38 353.65 C 374.59 342.42 354.19 334.32 334.87 324.11 C 332.12 322.68 329.16 321.41 325.99 321.79 C 325.54 323.15 324.91 324.56 325.33 326.02 C 326.05 331.17 327.68 336.59 332.01 339.87 C 340.04 346.10 349.29 350.48 357.92 355.79 C 359.80 356.98 361.84 358.59 362.01 361.00 C 361.68 363.93 358.84 366.29 355.87 365.67 C 348.88 364.62 342.93 360.43 336.82 357.16 C 329.25 353.18 322.41 347.51 317.84 340.22 C 314.14 334.39 312.83 327.50 311.69 320.80 C 309.22 305.55 307.56 290.18 305.66 274.86 C 305.44 272.28 303.76 270.23 301.73 268.78 C 296.60 270.41 296.35 276.38 296.26 280.87 C 295.93 294.33 295.32 307.80 293.50 321.15 C 292.76 327.76 295.23 334.17 298.14 339.97 C 303.12 350.08 307.26 360.58 312.37 370.62 C 314.46 374.90 317.37 378.91 321.46 381.48 C 351.08 398.09 384.21 408.09 412.03 427.93 C 413.54 428.83 415.43 431.03 417.13 429.18 C 445.12 408.74 478.69 398.50 508.80 381.86 C 512.33 379.74 515.28 376.68 517.19 373.03 C 522.21 363.85 526.02 354.08 530.48 344.63 C 532.90 339.19 535.95 333.92 537.12 328.01 C 538.67 321.43 537.37 314.66 537.30 308.00 C 536.62 296.38 537.37 284.71 536.65 273.10 C 536.65 270.73 535.03 269.00 533.06 267.96 C 528.77 269.39 527.06 274.04 526.64 278.16 M 512.46 270.35 C 510.60 274.68 510.52 279.53 509.33 284.06 C 508.22 290.98 506.06 297.84 506.05 304.88 C 507.81 308.15 512.03 304.89 512.25 302.18 C 513.96 293.81 515.16 285.34 516.64 276.93 C 517.07 274.19 517.83 271.40 517.10 268.65 C 515.53 269.09 513.22 268.50 512.46 270.35 M 330.28 284.38 C 330.05 284.75 329.60 285.51 329.37 285.88 C 329.94 291.24 331.11 296.52 331.75 301.87 C 332.16 304.12 332.05 306.67 333.53 308.57 C 334.75 309.88 337.71 310.42 338.00 308.03 C 337.02 301.35 335.44 294.76 334.75 288.03 C 334.72 285.82 332.64 283.24 330.28 284.38 M 493.67 299.50 C 493.33 303.06 491.26 307.81 494.92 310.33 C 496.40 309.39 498.31 308.64 498.77 306.75 C 500.08 302.27 499.65 297.52 500.09 292.92 C 500.20 289.54 501.54 285.77 499.10 282.85 C 494.01 286.81 495.01 293.87 493.67 299.50 M 344.27 296.12 C 342.90 301.10 344.91 306.12 345.57 311.05 C 345.78 313.15 346.95 316.68 349.69 315.77 C 352.43 314.64 350.84 311.51 350.58 309.41 C 349.51 305.42 349.37 301.14 347.66 297.35 C 347.07 295.91 345.51 296.20 344.27 296.12 M 484.08 296.06 C 481.60 297.38 481.73 300.53 481.06 302.89 C 480.43 306.75 478.69 310.78 480.20 314.64 C 480.85 316.00 482.32 316.25 483.67 315.90 C 485.83 313.90 485.45 310.67 485.71 308.01 C 485.68 304.03 486.71 300.02 485.99 296.06 C 485.52 296.06 484.56 296.06 484.08 296.06 Z" />
<path fill="#ca9656" opacity="1.00" d=" M 155.97 207.15 C 156.62 204.83 157.95 202.75 160.33 201.94 C 158.92 203.71 157.51 205.48 155.97 207.15 Z" />
<path fill="#ca9656" opacity="1.00" d=" M 671.88 206.95 C 673.64 208.33 676.40 209.47 676.09 212.18 C 674.67 210.44 673.25 208.71 671.88 206.95 Z" />
<path fill="#ca9656" opacity="1.00" d=" M 148.45 215.61 C 150.76 213.08 151.96 209.37 155.30 207.93 C 150.03 214.56 144.99 221.35 139.88 228.08 C 141.35 223.15 145.46 219.64 148.45 215.61 Z" />
<path fill="#ca9656" opacity="1.00" d=" M 676.88 213.24 C 678.72 212.20 681.22 215.40 679.90 217.01 C 678.76 215.86 677.75 214.59 676.88 213.24 Z" />
<path fill="#ca9656" opacity="1.00" d=" M 680.87 218.20 C 682.41 217.13 684.20 219.84 682.92 221.04 C 682.02 220.25 681.35 219.27 680.87 218.20 Z" />
<path fill="#ca9656" opacity="1.00" d=" M 683.88 222.18 C 685.41 221.22 687.10 223.84 685.94 225.04 C 684.87 224.40 684.37 223.24 683.88 222.18 Z" />
<path fill="#ca9656" opacity="1.00" d=" M 687.25 226.04 L 688.09 226.22 C 688.06 226.65 687.99 227.50 687.96 227.93 C 687.78 227.46 687.43 226.52 687.25 226.04 Z" />
<path fill="#ca9656" opacity="1.00" d=" M 137.74 229.75 C 138.16 229.49 139.01 228.97 139.43 228.71 C 134.02 236.75 128.87 244.94 123.75 253.16 C 124.43 251.16 125.08 249.12 126.27 247.35 C 130.26 241.60 133.52 235.35 137.74 229.75 Z" />
<path fill="#ca9656" opacity="1.00" d=" M 688.86 229.16 C 690.41 228.13 692.18 230.84 690.90 232.03 C 690.01 231.23 689.33 230.24 688.86 229.16 Z" />
<path fill="#ca9656" opacity="1.00" d=" M 691.41 232.63 C 694.51 235.03 696.77 238.72 697.81 242.50 C 695.54 239.30 693.38 236.02 691.41 232.63 Z" />
<path fill="#ca9656" opacity="1.00" d=" M 698.08 242.92 C 698.91 243.68 699.79 244.42 700.44 245.36 C 706.31 254.73 711.56 264.45 716.33 274.42 C 719.13 278.98 720.29 284.30 723.10 288.86 C 723.76 289.96 724.00 291.16 723.80 292.46 C 716.46 275.33 707.80 258.81 698.08 242.92 Z" />
<path fill="#ca9656" opacity="1.00" d=" M 105.19 290.35 C 104.84 287.74 106.67 285.69 108.02 283.69 C 107.14 285.94 106.23 288.17 105.19 290.35 Z" />
<path fill="#ca9656" opacity="1.00" d=" M 95.11 317.29 C 94.62 314.08 96.71 311.41 98.02 308.69 C 97.12 311.58 96.16 314.45 95.11 317.29 Z" />
<path fill="#ca9656" opacity="1.00" d=" M 89.09 337.83 C 87.92 336.33 88.21 335.40 89.95 335.05 C 89.97 336.06 89.68 336.99 89.09 337.83 Z" />
<path fill="#ca9656" opacity="1.00" d=" M 87.97 339.24 L 88.84 338.96 C 88.69 339.47 88.40 340.49 88.26 341.00 L 87.67 340.28 L 87.97 339.24 Z" />
<path fill="#ca9656" opacity="1.00" d=" M 87.10 345.81 C 85.92 344.32 86.20 343.39 87.93 343.02 C 87.97 344.04 87.70 344.97 87.10 345.81 Z" />
<path fill="#ca9656" opacity="1.00" d=" M 86.30 349.89 C 85.01 348.46 85.21 347.51 86.92 347.03 C 87.01 348.04 86.80 348.99 86.30 349.89 Z" />
<path fill="#ca9656" opacity="1.00" d=" M 741.09 347.04 L 741.96 347.32 L 742.26 348.37 L 741.67 349.08 C 741.53 348.57 741.23 347.55 741.09 347.04 Z" />
<path fill="#ca9656" opacity="1.00" d=" M 742.11 351.09 C 743.76 351.64 743.92 352.60 742.59 353.97 C 742.10 353.06 741.94 352.10 742.11 351.09 Z" />
<path fill="#ca9656" opacity="1.00" d=" M 748.09 450.00 C 748.24 447.26 748.63 444.55 748.86 441.82 C 748.98 444.54 748.99 447.27 749.00 450.00 L 748.09 450.00 Z" />
<path fill="#ca9656" opacity="1.00" d=" M 747.05 460.88 C 747.02 458.98 747.36 457.11 747.73 455.26 C 748.94 456.61 749.27 460.75 747.05 460.88 Z" />
<path fill="#ca9656" opacity="1.00" d=" M 744.06 480.99 C 744.20 480.48 744.49 479.46 744.63 478.95 L 745.24 479.67 L 744.94 480.72 L 744.06 480.99 Z" />
<path fill="#ca9656" opacity="1.00" d=" M 742.06 491.95 C 741.95 490.93 742.14 489.97 742.64 489.08 C 743.94 490.49 743.74 491.45 742.06 491.95 Z" />
<path fill="#ca9656" opacity="1.00" d=" M 741.10 496.02 C 741.25 495.51 741.56 494.49 741.71 493.99 L 742.30 494.70 L 741.98 495.75 L 741.10 496.02 Z" />
<path fill="#ca9656" opacity="1.00" d=" M 87.26 497.78 C 87.89 500.33 88.46 502.89 89.09 505.45 C 87.19 503.37 87.48 500.37 87.26 497.78 Z" />
<path fill="#ca9656" opacity="1.00" d=" M 739.03 504.95 C 738.96 503.92 739.19 502.98 739.73 502.12 C 740.98 503.55 740.74 504.50 739.03 504.95 Z" />
<path fill="#ca9656" opacity="1.00" d=" M 89.32 506.16 C 90.02 507.99 90.53 509.88 90.91 511.81 C 88.71 511.88 87.77 507.63 89.32 506.16 Z" />
<path fill="#ca9656" opacity="1.00" d=" M 737.10 511.81 C 737.47 509.88 738.01 508.00 738.68 506.16 C 740.24 507.63 739.30 511.90 737.10 511.81 Z" />
<path fill="#ca9656" opacity="1.00" d=" M 91.24 513.09 C 91.78 513.96 92.00 514.90 91.91 515.93 C 90.21 515.46 89.98 514.52 91.24 513.09 Z" />
<path fill="#ca9656" opacity="1.00" d=" M 735.10 518.79 C 735.44 516.85 736.08 514.99 736.75 513.15 C 738.25 514.65 737.30 518.92 735.10 518.79 Z" />
<path fill="#ca9656" opacity="1.00" d=" M 92.30 516.92 C 92.42 517.44 92.65 518.48 92.77 518.99 L 91.92 518.67 L 91.68 517.61 L 92.30 516.92 Z" />
<path fill="#ca9656" opacity="1.00" d=" M 93.15 520.03 C 93.34 520.53 93.74 521.52 93.93 522.01 L 93.03 521.81 L 92.63 520.80 L 93.15 520.03 Z" />
<path fill="#ca9656" opacity="1.00" d=" M 100.20 540.59 C 101.62 543.78 102.90 547.03 104.11 550.32 C 101.89 547.60 100.47 544.08 100.20 540.59 Z" />
<path fill="#ca9656" opacity="1.00" d=" M 726.00 544.87 C 726.39 543.46 726.92 542.09 727.63 540.81 C 729.08 541.94 727.95 545.46 726.00 544.87 Z" />
<path fill="#ca9656" opacity="1.00" d=" M 724.01 549.81 C 724.40 548.40 724.98 547.06 725.65 545.77 C 727.11 546.91 725.96 550.47 724.01 549.81 Z" />
<path fill="#ca9656" opacity="1.00" d=" M 104.24 550.63 C 105.24 552.82 106.19 555.02 107.11 557.25 C 105.55 555.39 103.64 553.26 104.24 550.63 Z" />
<path fill="#ca9656" opacity="1.00" d=" M 721.02 557.07 C 721.93 554.86 722.87 552.68 723.78 550.47 C 724.40 553.12 722.48 555.14 721.02 557.07 Z" />
<path fill="#ca9656" opacity="1.00" d=" M 107.34 557.78 C 111.62 567.06 116.28 576.16 121.04 585.20 C 119.85 584.32 118.78 583.28 118.22 581.89 C 115.37 575.86 112.37 569.90 109.30 563.97 C 108.26 562.04 107.73 559.91 107.34 557.78 Z" />
<path fill="#ca9656" opacity="1.00" d=" M 707.01 585.13 C 711.89 576.09 716.45 566.90 720.79 557.59 C 721.00 559.14 720.48 560.61 719.74 561.95 C 716.85 567.40 714.08 572.92 711.40 578.47 C 710.20 580.84 709.39 583.63 707.01 585.13 Z" />
<path fill="#ca9656" opacity="1.00" d=" M 121.26 585.60 C 128.26 597.45 135.58 609.13 143.77 620.20 C 161.47 644.50 182.73 666.06 206.10 684.92 C 202.16 683.93 200.10 680.07 196.71 678.12 C 193.09 674.35 188.47 671.73 185.13 667.67 C 178.49 661.04 171.93 654.33 165.17 647.83 C 163.17 645.82 161.91 643.18 159.76 641.31 C 156.35 638.24 153.93 634.28 150.96 630.82 C 141.48 619.11 132.78 606.75 125.20 593.71 C 123.58 591.17 121.80 588.63 121.26 585.60 Z" />
<path fill="#ca9656" opacity="1.00" d=" M 702.98 592.19 C 704.14 589.93 705.43 587.75 706.75 585.58 C 706.13 588.08 705.41 590.83 702.98 592.19 Z" />
<path fill="#ca9656" opacity="1.00" d=" M 694.05 606.91 C 694.28 606.43 694.74 605.49 694.97 605.01 L 695.43 605.82 L 694.95 606.80 L 694.05 606.91 Z" />
<path fill="#ca9656" opacity="1.00" d=" M 691.89 610.01 C 692.14 609.54 692.63 608.61 692.87 608.14 L 693.30 608.96 L 692.80 609.92 L 691.89 610.01 Z" />
<path fill="#ca9656" opacity="1.00" d=" M 689.76 613.02 C 690.01 612.55 690.51 611.63 690.76 611.17 L 691.19 611.99 L 690.68 612.94 L 689.76 613.02 Z" />
<path fill="#ca9656" opacity="1.00" d=" M 686.83 616.78 C 687.33 615.70 688.02 614.74 688.92 613.96 C 690.20 615.17 688.36 617.84 686.83 616.78 Z" />
<path fill="#ca9656" opacity="1.00" d=" M 681.66 624.06 C 683.09 621.91 684.61 619.83 686.18 617.78 C 685.83 620.52 683.60 622.34 681.66 624.06 Z" />
<path fill="#ca9656" opacity="1.00" d=" M 633.88 675.00 C 651.15 659.86 666.77 642.95 680.99 624.93 C 678.72 630.37 674.00 634.16 670.63 638.87 C 667.28 641.83 665.22 645.91 661.81 648.81 C 655.42 654.97 649.24 661.34 642.93 667.59 C 640.32 670.52 637.47 673.30 633.88 675.00 Z" />
<path fill="#ca9656" opacity="1.00" d=" M 627.83 680.13 C 629.48 678.57 631.28 677.17 633.05 675.74 C 631.84 677.69 630.55 680.32 627.83 680.13 Z" />
<path fill="#ca9656" opacity="1.00" d=" M 207.22 685.75 C 208.26 686.27 209.22 686.98 210.00 687.88 C 208.77 689.14 206.09 687.27 207.22 685.75 Z" />
<path fill="#ca9656" opacity="1.00" d=" M 210.73 688.53 C 213.35 690.24 215.89 692.10 218.25 694.16 C 215.19 693.44 212.32 691.21 210.73 688.53 Z" />
<path fill="#ca9656" opacity="1.00" d=" M 607.17 695.85 C 608.51 694.53 610.10 693.50 611.77 692.63 C 612.64 694.73 608.94 696.80 607.17 695.85 Z" />
<path fill="#ca9656" opacity="1.00" d=" M 219.04 694.71 C 219.48 695.00 220.36 695.58 220.80 695.87 L 219.96 696.23 L 219.05 695.64 L 219.04 694.71 Z" />
<path fill="#ca9656" opacity="1.00" d=" M 222.25 696.90 C 223.34 697.31 224.35 697.95 225.12 698.86 C 223.97 700.17 221.25 698.44 222.25 696.90 Z" />
<path fill="#ca9656" opacity="1.00" d=" M 225.85 699.49 C 228.37 700.96 230.84 702.53 233.22 704.24 C 230.45 703.41 227.12 702.34 225.85 699.49 Z" />
<path fill="#ca9656" opacity="1.00" d=" M 587.52 708.73 C 590.06 707.15 592.53 705.44 595.17 704.02 C 593.21 706.36 590.61 708.30 587.52 708.73 Z" />
<path fill="#ca9656" opacity="1.00" d=" M 233.68 704.53 C 240.55 708.72 247.54 712.69 254.45 716.81 C 249.97 715.79 246.30 712.94 242.42 710.66 C 239.52 708.61 235.73 707.58 233.68 704.53 Z" />
<path fill="#ca9656" opacity="1.00" d=" M 582.76 711.55 C 584.04 710.56 585.41 709.72 586.89 709.06 C 587.72 711.02 584.20 713.00 582.76 711.55 Z" />
<path fill="#ca9656" opacity="1.00" d=" M 573.59 716.74 C 576.41 715.05 579.32 713.50 582.21 711.91 C 580.37 714.91 576.71 715.76 573.59 716.74 Z" />
<path fill="#ca9656" opacity="1.00" d=" M 553.71 726.70 C 560.17 723.45 566.70 720.34 573.12 717.00 C 571.88 719.22 569.35 719.97 567.22 721.07 C 562.76 723.05 558.67 726.07 553.71 726.70 Z" />
<path fill="#ca9656" opacity="1.00" d=" M 289.08 732.93 C 290.53 733.21 291.88 733.85 293.18 734.59 C 292.00 735.92 288.51 734.83 289.08 732.93 Z" />
<path fill="#ca9656" opacity="1.00" d=" M 517.86 740.63 C 519.43 739.86 521.10 739.31 522.82 738.97 C 523.12 741.03 519.19 741.98 517.86 740.63 Z" />
<path fill="#ca9656" opacity="1.00" d=" M 500.18 745.91 C 501.00 745.30 501.93 745.00 502.96 745.02 C 502.60 746.76 501.68 747.05 500.18 745.91 Z" />
<path fill="#ca9656" opacity="1.00" d=" M 329.05 746.04 C 330.06 746.02 330.99 746.31 331.82 746.91 C 330.31 748.07 329.39 747.78 329.05 746.04 Z" />
<path fill="#ca9656" opacity="1.00" d=" M 496.99 746.74 C 497.50 746.60 498.52 746.31 499.03 746.16 L 498.76 747.03 L 497.71 747.33 L 496.99 746.74 Z" />
<path fill="#ca9656" opacity="1.00" d=" M 333.02 747.09 C 334.04 747.03 334.98 747.29 335.83 747.89 C 334.35 749.07 333.42 748.80 333.02 747.09 Z" />
<path fill="#ca9656" opacity="1.00" d=" M 492.17 747.90 C 493.00 747.29 493.93 747.02 494.97 747.08 C 494.57 748.79 493.64 749.07 492.17 747.90 Z" />
<path fill="#ca9656" opacity="1.00" d=" M 336.99 748.20 C 337.52 748.30 338.56 748.50 339.08 748.60 L 338.40 749.25 L 337.33 749.04 L 336.99 748.20 Z" />
<path fill="#ca9656" opacity="1.00" d=" M 488.92 748.65 C 489.44 748.53 490.47 748.30 490.99 748.19 L 490.66 749.04 L 489.60 749.27 L 488.92 748.65 Z" />
<path fill="#ca9656" opacity="1.00" d=" M 484.09 749.67 C 484.98 749.15 485.93 748.95 486.96 749.09 C 486.43 750.76 485.48 750.96 484.09 749.67 Z" />
<path fill="#ca9656" opacity="1.00" d=" M 479.12 750.69 C 480.00 750.18 480.95 749.97 481.97 750.08 C 481.47 751.78 480.51 751.98 479.12 750.69 Z" />
<path fill="#ca9656" opacity="1.00" d=" M 351.05 751.04 C 352.05 750.92 353.01 751.10 353.92 751.57 C 352.52 752.91 351.56 752.73 351.05 751.04 Z" />
<path fill="#ca9656" opacity="1.00" d=" M 363.10 753.06 C 364.10 752.90 365.06 753.06 365.98 753.53 C 364.64 754.89 363.68 754.73 363.10 753.06 Z" />
<path fill="#ca9656" opacity="1.00" d=" M 461.99 753.54 C 462.90 753.06 463.86 752.90 464.87 753.06 C 464.30 754.73 463.34 754.89 461.99 753.54 Z" />
</g>
<g id="#ba1b40ff">
<path fill="#ba1b40" opacity="1.00" d=" M 261.30 491.24 C 274.48 482.57 292.17 483.15 306.09 489.74 C 308.67 490.70 311.28 493.02 310.93 496.01 C 310.11 501.80 308.68 507.49 307.77 513.27 C 304.18 513.40 300.59 513.34 297.02 513.07 C 296.12 508.00 295.84 502.77 294.21 497.86 C 287.64 493.01 277.93 493.07 270.86 496.90 C 267.72 500.61 267.25 506.42 268.93 510.92 C 270.52 515.05 274.31 517.71 278.02 519.80 C 287.16 524.74 297.78 527.18 305.70 534.22 C 314.95 542.25 314.55 558.42 305.19 566.21 C 297.39 572.69 286.80 574.39 276.95 573.99 C 267.54 573.41 257.83 571.56 249.89 566.20 C 249.86 559.80 249.91 553.40 250.02 547.00 C 253.94 546.66 257.89 546.56 261.83 546.75 C 262.39 551.58 263.81 556.24 265.11 560.91 C 272.13 564.84 280.69 565.12 288.40 563.46 C 292.77 562.69 294.32 557.96 294.77 554.12 C 295.37 549.67 292.64 545.35 288.89 543.12 C 279.62 537.25 268.33 535.27 259.53 528.56 C 254.44 524.94 250.93 519.07 250.58 512.79 C 249.50 504.25 254.16 495.76 261.30 491.24 Z" />
<path fill="#ba1b40" opacity="1.00" d=" M 346.99 486.82 C 359.79 482.86 374.06 484.91 385.74 491.29 C 386.38 492.77 387.62 494.19 387.35 495.92 C 386.57 501.77 385.38 507.57 384.03 513.32 C 380.44 513.38 376.84 513.41 373.29 512.91 C 372.87 507.71 371.97 502.55 370.67 497.50 C 364.01 493.47 355.38 493.06 348.34 496.34 C 345.79 497.55 345.24 500.62 344.72 503.10 C 343.39 508.50 346.11 514.27 350.63 517.30 C 359.56 523.70 370.87 525.69 379.73 532.23 C 383.69 535.10 386.99 539.15 388.14 543.98 C 390.63 552.13 387.62 561.58 380.87 566.80 C 372.76 573.20 361.85 574.50 351.84 573.90 C 343.12 573.07 333.85 571.50 326.67 566.16 C 325.77 559.93 326.62 553.41 326.66 547.08 C 330.45 546.60 334.28 546.62 338.10 546.67 C 339.17 551.32 339.93 556.08 341.61 560.56 C 346.74 564.45 353.74 564.53 359.93 564.26 C 363.45 563.88 368.23 563.50 369.70 559.62 C 371.34 556.21 371.79 552.02 370.36 548.48 C 367.97 543.93 363.12 541.53 358.62 539.53 C 349.99 535.71 340.50 532.96 333.45 526.39 C 326.53 519.92 324.89 508.78 329.36 500.50 C 332.86 493.60 339.81 489.15 346.99 486.82 Z" />
<path fill="#ba1b40" opacity="1.00" d=" M 420.88 487.75 C 433.35 482.90 447.83 484.20 459.74 490.07 C 462.33 491.10 464.64 493.91 463.80 496.82 C 462.91 502.34 461.61 507.78 460.70 513.29 C 457.13 513.39 453.56 513.33 450.01 513.07 C 449.06 508.00 448.81 502.75 447.15 497.84 C 441.56 493.57 433.75 493.40 427.22 495.35 C 425.49 495.97 423.33 496.56 422.63 498.46 C 420.38 503.14 420.12 509.19 423.30 513.52 C 426.35 517.72 431.20 520.04 435.79 522.17 C 443.86 525.84 452.73 528.53 459.28 534.79 C 467.68 542.82 467.38 557.91 458.71 565.63 C 451.30 572.42 440.74 574.21 431.03 574.02 C 421.25 573.59 411.15 571.72 402.86 566.23 C 402.93 559.82 402.82 553.41 403.02 547.00 C 406.92 546.66 410.84 546.57 414.76 546.74 C 415.43 551.56 416.73 556.26 418.12 560.92 C 425.15 564.87 433.79 565.15 441.51 563.38 C 446.20 562.51 447.58 557.07 447.73 552.98 C 447.99 548.26 444.45 544.41 440.56 542.28 C 430.90 536.78 419.42 534.60 410.83 527.24 C 404.78 522.16 402.19 513.65 403.88 506.00 C 405.57 497.29 412.88 490.83 420.88 487.75 Z" />
<path fill="#ba1b40" opacity="1.00" d=" M 476.76 486.91 C 501.75 486.66 526.78 487.62 551.73 485.89 C 552.72 487.33 553.74 488.76 554.57 490.31 C 554.62 497.44 553.23 504.51 552.93 511.63 C 549.34 511.98 545.71 512.05 542.18 511.26 C 541.48 506.13 540.18 501.11 539.06 496.06 C 533.92 495.74 528.76 494.94 523.61 495.50 C 523.99 516.36 523.02 537.26 524.26 558.09 C 524.57 563.56 531.21 564.07 535.25 565.47 C 534.91 567.67 534.43 569.84 533.91 572.00 C 521.37 571.96 508.83 572.07 496.30 571.95 C 495.96 569.84 495.57 567.75 494.95 565.72 C 498.52 564.28 502.33 563.51 505.93 562.11 C 507.40 539.89 506.81 517.60 506.87 495.34 C 501.69 495.19 496.53 495.68 491.39 496.15 C 490.35 501.46 489.10 506.73 487.90 512.01 C 484.18 512.10 480.44 512.14 476.77 511.51 C 476.13 503.32 476.15 495.09 476.76 486.91 Z" />
<path fill="#ba1b40" opacity="1.00" d=" M 562.55 486.83 C 585.38 486.76 608.24 487.50 631.03 485.87 C 632.16 487.79 634.64 489.47 633.96 491.98 C 632.96 498.36 631.60 504.68 630.76 511.09 C 627.31 510.97 623.74 511.53 620.38 510.64 C 619.35 505.87 618.65 501.04 617.62 496.27 C 609.41 495.59 601.12 494.71 592.92 495.91 C 592.00 496.14 591.12 496.48 590.29 496.93 C 590.21 506.52 589.50 516.10 589.74 525.70 C 598.75 525.40 607.75 524.71 616.78 524.66 C 617.24 525.26 618.16 526.47 618.62 527.08 C 618.14 529.84 617.64 532.60 617.03 535.34 C 607.92 535.15 598.79 535.13 589.69 534.62 C 589.43 541.44 589.99 548.25 590.08 555.07 C 590.07 557.31 590.61 559.51 591.32 561.63 C 596.63 563.66 602.47 563.30 608.05 563.31 C 611.75 562.92 615.59 563.28 619.20 562.31 C 621.13 557.72 621.55 552.45 623.11 547.66 C 626.77 547.63 630.44 547.62 634.10 547.92 C 634.31 555.95 634.30 563.96 634.10 572.00 C 610.17 571.95 586.24 572.10 562.32 571.92 C 561.94 569.70 561.58 567.49 561.27 565.27 C 564.90 564.49 568.43 563.35 571.95 562.19 C 573.26 546.48 572.82 530.70 572.89 514.95 C 572.72 509.41 572.77 503.80 571.69 498.34 C 569.30 494.99 564.70 494.59 561.11 493.17 C 561.55 491.05 562.02 488.93 562.55 486.83 Z" />
<path fill="#ba1b40" opacity="1.00" d=" M 197.97 486.89 C 210.54 486.99 223.11 486.68 235.67 487.05 C 236.00 489.12 236.37 491.18 236.78 493.25 C 233.25 494.37 229.71 495.49 226.12 496.42 C 224.66 509.91 225.23 523.50 225.11 537.05 C 225.20 544.88 224.73 552.85 226.34 560.57 C 228.67 563.90 233.30 564.16 236.83 565.57 C 236.37 567.64 235.98 569.74 235.64 571.84 C 223.08 572.20 210.52 571.90 197.96 572.00 C 197.43 569.93 196.91 567.85 196.68 565.72 C 200.02 564.09 203.81 563.50 207.33 562.29 C 208.44 554.24 207.62 546.09 208.29 538.02 C 208.35 530.67 208.53 523.31 208.03 515.97 C 207.83 510.70 208.34 505.39 207.50 500.16 C 206.88 494.93 200.36 494.92 196.55 493.19 C 196.98 491.07 197.46 488.98 197.97 486.89 Z" />
</g>
</svg>
