<?xml version="1.0" encoding="UTF-8" standalone="no"?>
<svg
   width="824pt"
   height="1067pt"
   viewBox="0 0 824 1067"
   version="1.1"
   id="svg18"
   xmlns="http://www.w3.org/2000/svg"
   xmlns:svg="http://www.w3.org/2000/svg">
  <defs
     id="defs18" />
  <path
     fill="currentColor"
     opacity="1.00"
     d=" M 400.67 0.00 L 423.25 0.00 C 470.14 1.49 516.83 10.62 560.56 27.70 C 628.21 53.88 688.54 98.46 733.75 155.17 C 779.02 211.68 808.98 280.36 819.28 352.05 C 826.69 402.54 824.17 454.22 814.15 504.17 C 801.58 567.04 777.64 627.19 747.53 683.63 C 700.16 771.98 638.25 851.82 570.08 925.03 C 524.74 973.41 476.55 1019.20 424.99 1060.92 C 421.32 1064.01 417.06 1067.12 412.00 1066.82 C 407.20 1067.14 402.96 1064.55 399.48 1061.53 C 358.44 1028.53 319.75 992.67 282.67 955.30 C 230.86 902.68 182.48 846.53 139.83 786.21 C 96.53 724.74 58.90 658.76 33.18 587.94 C 14.68 536.92 2.59 483.30 0.45 428.97 C 0.12 423.75 0.42 418.51 0.00 413.29 L 0.00 410.40 C 0.16 407.93 0.27 405.45 0.26 402.98 C 1.56 324.90 26.11 247.45 69.76 182.72 C 121.26 105.62 199.44 46.72 287.95 18.97 C 324.39 7.38 362.47 1.23 400.67 0.00 M 384.60 87.85 C 323.12 93.05 263.29 115.88 213.90 152.86 C 164.84 189.36 126.04 239.52 103.23 296.26 C 77.73 359.20 72.29 429.93 87.34 496.11 C 96.43 536.27 113.10 574.71 136.19 608.81 C 175.34 667.12 233.32 712.54 299.37 736.45 C 377.91 765.21 467.28 763.05 544.28 730.32 C 580.47 715.09 613.89 693.33 642.58 666.53 C 694.12 618.64 729.99 554.13 743.04 484.96 C 752.28 436.41 750.82 385.81 738.50 337.93 C 728.59 299.15 711.53 262.22 688.54 229.46 C 650.09 174.49 594.85 131.41 531.99 107.91 C 485.19 90.26 434.40 83.50 384.60 87.85 Z"
     id="path1" />
  <path
     fill="#ba1b40"
     opacity="1.00"
     d=" M 264.35 489.32 C 277.70 482.43 294.37 483.58 307.53 490.38 C 309.54 491.11 310.31 493.18 311.26 494.92 C 310.18 501.11 308.96 507.28 307.75 513.45 C 304.12 513.54 300.49 513.49 296.87 513.19 C 296.26 507.99 295.45 502.81 294.26 497.71 C 287.78 493.58 279.29 493.27 272.28 496.19 C 269.22 497.34 268.72 501.04 268.21 503.85 C 267.32 508.94 269.80 514.20 274.01 517.09 C 284.01 524.33 297.23 526.04 306.33 534.71 C 314.71 542.60 314.54 557.39 306.26 565.30 C 299.06 572.16 288.64 574.28 278.99 574.03 C 268.84 573.86 258.20 572.00 249.72 566.10 C 249.73 559.71 249.80 553.33 250.04 546.95 C 253.94 546.46 257.88 546.43 261.81 546.58 C 262.56 551.44 263.83 556.19 265.22 560.90 C 272.26 564.70 280.77 565.13 288.46 563.33 C 292.78 562.59 294.27 557.85 294.64 554.06 C 295.35 549.30 292.14 544.99 288.16 542.76 C 278.41 536.90 266.57 534.85 257.82 527.28 C 252.06 522.45 249.41 514.54 250.61 507.18 C 251.65 499.31 257.45 492.83 264.35 489.32 Z"
     id="path2" />
  <path
     fill="#ba1b40"
     opacity="1.00"
     d=" M 345.31 487.31 C 357.99 482.79 372.53 484.33 384.38 490.55 C 386.14 491.30 387.01 493.19 387.55 494.92 C 386.84 501.17 385.42 507.32 384.16 513.48 C 380.55 513.53 376.95 513.48 373.36 513.22 C 372.71 507.93 371.95 502.65 370.57 497.50 C 363.92 493.61 355.41 493.21 348.41 496.38 C 345.85 497.50 345.35 500.61 344.81 503.04 C 343.62 508.17 345.86 513.74 350.10 516.81 C 360.21 524.39 373.87 525.94 383.06 534.95 C 391.27 542.99 390.94 557.75 382.50 565.50 C 374.94 572.61 363.99 574.38 353.98 574.01 C 344.34 573.63 334.26 571.75 326.23 566.09 C 326.46 559.72 325.82 553.22 326.83 546.94 C 330.59 546.34 334.41 546.53 338.20 546.53 C 339.25 551.35 340.00 556.32 341.91 560.89 C 347.92 564.49 355.31 564.74 362.10 563.96 C 364.70 563.44 368.01 562.96 369.27 560.26 C 372.24 555.17 371.92 547.74 366.71 544.21 C 356.63 536.96 343.33 535.43 333.96 526.99 C 326.53 520.54 324.68 508.86 329.36 500.28 C 332.60 493.96 338.81 489.77 345.31 487.31 Z"
     id="path3" />
  <path
     fill="#ba1b40"
     opacity="1.00"
     d=" M 417.31 489.31 C 430.72 482.40 447.44 483.60 460.64 490.45 C 462.53 491.20 463.26 493.18 464.22 494.81 C 463.17 501.06 461.92 507.26 460.68 513.48 C 457.07 513.53 453.46 513.48 449.86 513.20 C 449.20 508.03 448.43 502.88 447.24 497.82 C 441.34 493.75 433.54 493.45 426.86 495.56 C 425.25 496.17 423.28 496.79 422.66 498.60 C 420.56 503.09 420.22 508.76 423.06 513.01 C 425.89 517.26 430.63 519.65 435.12 521.76 C 443.39 525.59 452.55 528.29 459.30 534.71 C 466.38 541.45 467.44 553.20 462.33 561.39 C 458.65 567.12 452.44 570.81 445.95 572.47 C 437.46 574.67 428.49 574.40 419.91 572.88 C 413.84 571.68 407.76 569.77 402.70 566.11 C 402.84 559.72 402.62 553.33 403.05 546.94 C 406.92 546.46 410.83 546.44 414.73 546.55 C 415.56 551.40 416.78 556.18 418.17 560.89 C 425.39 564.77 434.21 565.25 442.03 563.11 C 444.97 562.54 446.37 559.60 447.08 557.00 C 447.83 553.74 448.00 549.94 445.95 547.11 C 443.35 543.47 439.17 541.47 435.21 539.68 C 426.67 535.86 417.30 533.19 410.23 526.79 C 404.99 522.10 402.53 514.75 403.47 507.83 C 404.35 499.71 410.20 492.92 417.31 489.31 Z"
     id="path4" />
  <path
     fill="#ba1b40"
     opacity="1.00"
     d=" M 476.57 486.76 C 501.63 486.52 526.72 487.44 551.74 485.80 C 552.74 487.25 553.75 488.70 554.78 490.15 C 554.51 497.37 553.56 504.54 552.90 511.74 C 549.39 512.01 545.87 511.89 542.36 511.63 C 541.25 506.44 540.13 501.24 539.02 496.05 C 533.93 495.71 528.84 495.37 523.74 495.48 C 523.76 513.00 523.67 530.52 523.78 548.03 C 524.12 552.31 523.74 556.75 525.09 560.88 C 527.71 563.75 531.93 564.25 535.45 565.50 C 534.97 567.66 534.52 569.83 534.06 572.00 C 521.47 572.00 508.87 572.01 496.28 571.99 C 495.82 569.79 495.39 567.61 495.01 565.41 C 498.54 564.18 502.38 563.64 505.71 561.94 C 507.40 539.84 506.57 517.61 506.73 495.45 C 501.69 495.63 496.51 495.35 491.57 496.35 C 490.26 501.54 489.24 506.79 488.06 512.01 C 484.24 512.29 480.41 512.01 476.61 511.62 C 476.07 503.35 476.14 495.04 476.57 486.76 Z"
     id="path5" />
  <path
     fill="#ba1b40"
     opacity="1.00"
     d=" M 562.43 486.73 C 585.31 486.59 608.23 487.39 631.07 485.77 C 632.11 487.39 633.78 488.82 634.17 490.76 C 633.24 497.61 631.79 504.39 630.74 511.23 C 627.24 511.30 623.73 511.29 620.26 510.84 C 619.44 506.01 618.52 501.20 617.56 496.40 C 608.61 495.63 599.37 494.52 590.53 496.63 C 590.09 506.26 589.65 515.90 589.75 525.55 C 598.78 525.43 607.79 524.58 616.83 524.54 C 617.31 525.16 618.27 526.39 618.74 527.00 C 618.20 529.82 617.68 532.65 617.17 535.48 C 608.03 535.40 598.88 535.02 589.75 534.69 C 589.62 541.48 589.87 548.26 590.17 555.05 C 590.38 557.21 590.36 559.56 591.56 561.48 C 593.48 562.64 595.78 562.76 597.96 563.01 C 605.10 563.61 612.30 563.20 619.42 562.35 C 620.63 557.41 621.76 552.46 622.98 547.53 C 626.73 547.47 630.49 547.46 634.23 547.80 C 634.46 555.87 634.45 563.92 634.23 572.00 C 610.27 571.99 586.30 572.03 562.34 571.98 C 561.91 569.78 561.48 567.59 561.05 565.40 C 564.70 564.37 568.33 563.28 571.95 562.12 C 572.56 551.76 572.86 541.38 572.76 531.00 C 572.70 521.01 573.03 510.99 572.08 501.03 C 572.19 495.26 565.12 494.90 561.07 493.32 C 561.46 491.11 561.92 488.91 562.43 486.73 Z"
     id="path6" />
  <path
     fill="#ba1b40"
     opacity="1.00"
     d=" M 196.41 493.28 C 196.89 491.10 197.37 488.93 197.86 486.76 C 210.45 486.81 223.05 486.66 235.64 486.84 C 236.04 489.01 236.47 491.18 236.90 493.35 C 233.30 494.41 229.74 495.55 226.13 496.54 C 225.00 508.99 225.27 521.51 225.24 534.01 C 225.27 541.99 225.02 550.01 225.90 557.96 C 225.95 563.65 232.94 563.87 236.93 565.49 C 236.47 567.65 236.03 569.81 235.59 571.97 C 223.00 572.03 210.41 571.98 197.82 572.00 C 197.36 569.83 196.89 567.67 196.42 565.52 C 200.02 564.35 203.66 563.28 207.28 562.18 C 208.25 548.17 208.34 534.11 208.20 520.07 C 207.59 512.78 208.74 505.27 206.87 498.12 C 204.44 494.97 199.91 494.65 196.41 493.28 Z"
     id="path7" />
  <path
     fill="#ffffff"
     opacity="1.00"
     d=" M 384.60 87.85 C 434.40 83.50 485.19 90.26 531.99 107.91 C 594.85 131.41 650.09 174.49 688.54 229.46 C 711.53 262.22 728.59 299.15 738.50 337.93 C 750.82 385.81 752.28 436.41 743.04 484.96 C 729.99 554.13 694.12 618.64 642.58 666.53 C 613.89 693.33 580.47 715.09 544.28 730.32 C 467.28 763.05 377.91 765.21 299.37 736.45 C 233.32 712.54 175.34 667.12 136.19 608.81 C 113.10 574.71 96.43 536.27 87.34 496.11 C 72.29 429.93 77.73 359.20 103.23 296.26 C 126.04 239.52 164.84 189.36 213.90 152.86 C 263.29 115.88 323.12 93.05 384.60 87.85 M 378.20 203.21 C 372.21 210.26 371.48 220.48 374.45 228.99 C 374.87 232.03 377.16 236.67 373.62 238.55 C 366.96 241.75 360.48 246.00 356.50 252.39 C 351.12 260.93 351.04 271.43 350.53 281.19 C 342.24 272.89 334.74 263.83 326.94 255.07 C 323.55 251.47 321.05 246.83 316.57 244.42 C 310.95 241.21 302.77 241.64 298.80 247.24 C 295.87 246.45 292.69 245.56 289.72 246.68 C 286.26 247.83 283.86 251.24 283.66 254.84 C 282.08 277.57 279.19 300.24 278.97 323.05 C 278.65 329.82 281.16 336.24 283.50 342.46 C 289.02 356.67 295.00 370.69 301.37 384.53 C 303.25 388.75 305.61 392.89 309.22 395.86 C 316.18 401.79 324.79 405.25 333.06 408.93 C 358.66 419.65 383.80 431.71 407.16 446.77 C 409.87 448.54 412.43 450.56 415.39 451.91 C 441.81 433.36 471.19 419.60 500.69 406.75 C 506.89 403.87 513.59 402.03 519.41 398.38 C 523.66 395.52 527.09 391.35 528.64 386.43 C 531.42 377.95 534.94 369.74 538.65 361.63 C 542.58 352.83 548.16 344.68 550.26 335.16 C 552.39 327.26 551.64 319.04 551.74 310.97 C 551.26 294.67 550.84 278.37 550.57 262.07 C 550.74 257.26 548.81 251.83 544.09 249.82 C 541.14 248.47 538.04 249.99 535.04 250.22 C 532.10 248.56 529.47 246.08 525.96 245.72 C 519.11 244.37 512.81 248.58 508.30 253.30 C 500.04 261.78 491.31 269.79 483.11 278.34 C 486.45 265.22 481.96 250.26 470.89 242.13 C 467.58 240.23 468.30 236.02 466.92 232.95 C 462.76 222.51 454.53 213.84 444.71 208.49 C 434.18 204.76 420.83 213.53 421.01 225.01 C 421.21 233.18 423.33 242.50 430.59 247.30 C 432.40 248.41 435.41 250.69 436.87 247.92 C 438.06 244.70 434.39 243.37 433.12 241.01 C 431.21 237.36 430.46 233.11 430.80 229.02 C 430.98 226.55 433.31 223.90 435.97 224.58 C 439.90 225.06 442.80 228.00 445.07 231.00 C 450.32 238.13 453.43 246.52 458.03 254.04 C 460.64 258.49 466.57 259.25 469.23 263.66 C 472.22 268.55 472.48 274.51 472.70 280.09 C 472.47 292.82 471.06 305.48 469.69 318.12 C 469.41 319.18 469.59 320.73 468.40 321.28 C 455.18 329.10 441.15 335.42 427.69 342.78 C 426.43 343.45 425.05 343.82 423.70 344.22 C 423.34 340.97 423.75 337.42 425.67 334.70 C 428.72 331.26 433.69 332.39 437.74 332.05 C 437.86 326.68 437.37 321.33 437.49 315.96 C 437.45 311.45 437.79 306.86 436.65 302.45 C 435.64 298.65 433.01 295.61 430.34 292.84 C 437.17 288.28 442.90 282.31 448.20 276.07 C 449.77 273.98 451.84 271.81 451.82 269.02 C 452.12 264.76 446.97 261.17 443.09 262.92 C 439.71 264.36 436.37 265.92 432.79 266.83 C 431.15 260.97 428.91 255.29 427.40 249.40 C 426.88 247.31 425.74 245.24 423.70 244.34 C 419.11 242.12 413.90 243.05 409.02 243.13 C 408.19 242.61 406.75 241.59 407.51 240.46 C 410.09 237.19 414.80 235.15 415.26 230.57 C 415.64 226.03 415.59 221.46 416.06 216.93 C 416.45 211.57 416.52 205.50 412.92 201.12 C 409.35 196.72 403.24 195.91 397.93 195.79 C 390.86 196.03 383.02 197.55 378.20 203.21 M 264.35 489.32 C 257.45 492.83 251.65 499.31 250.61 507.18 C 249.41 514.54 252.06 522.45 257.82 527.28 C 266.57 534.85 278.41 536.90 288.16 542.76 C 292.14 544.99 295.35 549.30 294.64 554.06 C 294.27 557.85 292.78 562.59 288.46 563.33 C 280.77 565.13 272.26 564.70 265.22 560.90 C 263.83 556.19 262.56 551.44 261.81 546.58 C 257.88 546.43 253.94 546.46 250.04 546.95 C 249.80 553.33 249.73 559.71 249.72 566.10 C 258.20 572.00 268.84 573.86 278.99 574.03 C 288.64 574.28 299.06 572.16 306.26 565.30 C 314.54 557.39 314.71 542.60 306.33 534.71 C 297.23 526.04 284.01 524.33 274.01 517.09 C 269.80 514.20 267.32 508.94 268.21 503.85 C 268.72 501.04 269.22 497.34 272.28 496.19 C 279.29 493.27 287.78 493.58 294.26 497.71 C 295.45 502.81 296.26 507.99 296.87 513.19 C 300.49 513.49 304.12 513.54 307.75 513.45 C 308.96 507.28 310.18 501.11 311.26 494.92 C 310.31 493.18 309.54 491.11 307.53 490.38 C 294.37 483.58 277.70 482.43 264.35 489.32 M 345.31 487.31 C 338.81 489.77 332.60 493.96 329.36 500.28 C 324.68 508.86 326.53 520.54 333.96 526.99 C 343.33 535.43 356.63 536.96 366.71 544.21 C 371.92 547.74 372.24 555.17 369.27 560.26 C 368.01 562.96 364.70 563.44 362.10 563.96 C 355.31 564.74 347.92 564.49 341.91 560.89 C 340.00 556.32 339.25 551.35 338.20 546.53 C 334.41 546.53 330.59 546.34 326.83 546.94 C 325.82 553.22 326.46 559.72 326.23 566.09 C 334.26 571.75 344.34 573.63 353.98 574.01 C 363.99 574.38 374.94 572.61 382.50 565.50 C 390.94 557.75 391.27 542.99 383.06 534.95 C 373.87 525.94 360.21 524.39 350.10 516.81 C 345.86 513.74 343.62 508.17 344.81 503.04 C 345.35 500.61 345.85 497.50 348.41 496.38 C 355.41 493.21 363.92 493.61 370.57 497.50 C 371.95 502.65 372.71 507.93 373.36 513.22 C 376.95 513.48 380.55 513.53 384.16 513.48 C 385.42 507.32 386.84 501.17 387.55 494.92 C 387.01 493.19 386.14 491.30 384.38 490.55 C 372.53 484.33 357.99 482.79 345.31 487.31 M 417.31 489.31 C 410.20 492.92 404.35 499.71 403.47 507.83 C 402.53 514.75 404.99 522.10 410.23 526.79 C 417.30 533.19 426.67 535.86 435.21 539.68 C 439.17 541.47 443.35 543.47 445.95 547.11 C 448.00 549.94 447.83 553.74 447.08 557.00 C 446.37 559.60 444.97 562.54 442.03 563.11 C 434.21 565.25 425.39 564.77 418.17 560.89 C 416.78 556.18 415.56 551.40 414.73 546.55 C 410.83 546.44 406.92 546.46 403.05 546.94 C 402.62 553.33 402.84 559.72 402.70 566.11 C 407.76 569.77 413.84 571.68 419.91 572.88 C 428.49 574.40 437.46 574.67 445.95 572.47 C 452.44 570.81 458.65 567.12 462.33 561.39 C 467.44 553.20 466.38 541.45 459.30 534.71 C 452.55 528.29 443.39 525.59 435.12 521.76 C 430.63 519.65 425.89 517.26 423.06 513.01 C 420.22 508.76 420.56 503.09 422.66 498.60 C 423.28 496.79 425.25 496.17 426.86 495.56 C 433.54 493.45 441.34 493.75 447.24 497.82 C 448.43 502.88 449.20 508.03 449.86 513.20 C 453.46 513.48 457.07 513.53 460.68 513.48 C 461.92 507.26 463.17 501.06 464.22 494.81 C 463.26 493.18 462.53 491.20 460.64 490.45 C 447.44 483.60 430.72 482.40 417.31 489.31 M 476.57 486.76 C 476.14 495.04 476.07 503.35 476.61 511.62 C 480.41 512.01 484.24 512.29 488.06 512.01 C 489.24 506.79 490.26 501.54 491.57 496.35 C 496.51 495.35 501.69 495.63 506.73 495.45 C 506.57 517.61 507.40 539.84 505.71 561.94 C 502.38 563.64 498.54 564.18 495.01 565.41 C 495.39 567.61 495.82 569.79 496.28 571.99 C 508.87 572.01 521.47 572.00 534.06 572.00 C 534.52 569.83 534.97 567.66 535.45 565.50 C 531.93 564.25 527.71 563.75 525.09 560.88 C 523.74 556.75 524.12 552.31 523.78 548.03 C 523.67 530.52 523.76 513.00 523.74 495.48 C 528.84 495.37 533.93 495.71 539.02 496.05 C 540.13 501.24 541.25 506.44 542.36 511.63 C 545.87 511.89 549.39 512.01 552.90 511.74 C 553.56 504.54 554.51 497.37 554.78 490.15 C 553.75 488.70 552.74 487.25 551.74 485.80 C 526.72 487.44 501.63 486.52 476.57 486.76 M 562.43 486.73 C 561.92 488.91 561.46 491.11 561.07 493.32 C 565.12 494.90 572.19 495.26 572.08 501.03 C 573.03 510.99 572.70 521.01 572.76 531.00 C 572.86 541.38 572.56 551.76 571.95 562.12 C 568.33 563.28 564.70 564.37 561.05 565.40 C 561.48 567.59 561.91 569.78 562.34 571.98 C 586.30 572.03 610.27 571.99 634.23 572.00 C 634.45 563.92 634.46 555.87 634.23 547.80 C 630.49 547.46 626.73 547.47 622.98 547.53 C 621.76 552.46 620.63 557.41 619.42 562.35 C 612.30 563.20 605.10 563.61 597.96 563.01 C 595.78 562.76 593.48 562.64 591.56 561.48 C 590.36 559.56 590.38 557.21 590.17 555.05 C 589.87 548.26 589.62 541.48 589.75 534.69 C 598.88 535.02 608.03 535.40 617.17 535.48 C 617.68 532.65 618.20 529.82 618.74 527.00 C 618.27 526.39 617.31 525.16 616.83 524.54 C 607.79 524.58 598.78 525.43 589.75 525.55 C 589.65 515.90 590.09 506.26 590.53 496.63 C 599.37 494.52 608.61 495.63 617.56 496.40 C 618.52 501.20 619.44 506.01 620.26 510.84 C 623.73 511.29 627.24 511.30 630.74 511.23 C 631.79 504.39 633.24 497.61 634.17 490.76 C 633.78 488.82 632.11 487.39 631.07 485.77 C 608.23 487.39 585.31 486.59 562.43 486.73 M 196.41 493.28 C 199.91 494.65 204.44 494.97 206.87 498.12 C 208.74 505.27 207.59 512.78 208.20 520.07 C 208.34 534.11 208.25 548.17 207.28 562.18 C 203.66 563.28 200.02 564.35 196.42 565.52 C 196.89 567.67 197.36 569.83 197.82 572.00 C 210.41 571.98 223.00 572.03 235.59 571.97 C 236.03 569.81 236.47 567.65 236.93 565.49 C 232.94 563.87 225.95 563.65 225.90 557.96 C 225.02 550.01 225.27 541.99 225.24 534.01 C 225.27 521.51 225.00 508.99 226.13 496.54 C 229.74 495.55 233.30 494.41 236.90 493.35 C 236.47 491.18 236.04 489.01 235.64 486.84 C 223.05 486.66 210.45 486.81 197.86 486.76 C 197.37 488.93 196.89 491.10 196.41 493.28 Z"
     id="path8" />
  <path
     fill="#ffffff"
     opacity="1.00"
     d=" M 394.48 211.34 C 398.63 210.47 403.56 211.23 406.19 214.89 C 408.46 218.41 409.17 223.02 407.72 227.00 C 405.94 232.17 402.00 236.17 398.13 239.88 C 398.98 241.76 401.82 243.83 400.08 246.00 C 395.90 251.74 395.07 259.93 399.06 265.99 C 399.94 267.95 402.81 269.83 401.13 272.13 C 396.95 279.96 392.93 288.67 394.30 297.78 C 394.91 302.43 396.79 307.62 401.20 309.90 C 405.20 311.91 408.87 308.56 411.95 306.40 C 413.84 307.46 415.98 309.68 418.31 308.38 C 419.87 305.79 420.37 302.54 422.98 300.68 C 426.66 301.86 429.54 304.62 431.40 307.96 C 429.50 313.43 430.55 319.28 430.18 324.94 C 426.94 325.38 423.63 325.02 420.41 325.52 C 415.20 328.58 419.97 338.07 412.93 339.36 C 411.03 335.52 410.97 330.96 411.77 326.84 C 413.26 321.45 419.26 319.96 423.57 317.56 C 426.01 315.16 427.08 309.99 424.15 307.63 C 422.62 309.87 422.21 313.32 419.27 314.22 C 414.35 316.50 407.20 315.99 404.64 321.71 C 402.53 327.60 402.41 334.48 404.66 340.33 C 408.44 345.23 414.84 346.92 420.12 349.72 C 418.61 351.16 417.20 353.24 415.01 353.49 C 407.27 345.89 398.84 338.77 388.96 334.10 C 381.97 330.47 374.15 328.63 367.40 324.49 C 364.34 322.66 361.78 319.57 361.73 315.85 C 360.77 300.60 359.49 285.00 363.05 269.98 C 364.92 261.59 370.63 254.44 377.97 250.11 C 381.14 247.89 385.72 246.29 386.37 241.94 C 386.81 236.85 385.27 231.81 383.72 227.01 C 389.48 223.81 394.42 218.26 394.48 211.34 Z"
     id="path9" />
  <path
     fill="#ffffff"
     opacity="1.00"
     d=" M 418.76 254.97 C 420.10 255.24 421.46 255.53 422.81 255.83 C 423.33 258.21 423.90 260.59 424.47 262.97 C 422.79 265.00 420.39 267.12 421.00 270.07 C 420.95 271.63 422.43 272.71 423.72 273.26 C 429.14 274.87 434.85 273.60 440.16 272.17 C 438.32 275.70 436.20 279.39 432.65 281.45 C 429.24 283.46 424.94 281.48 421.58 283.60 C 420.35 284.30 419.32 285.59 419.31 287.05 C 419.15 291.10 419.27 295.15 419.32 299.20 C 416.37 300.57 413.02 299.94 409.89 299.95 C 407.39 299.69 404.24 299.70 402.65 297.40 C 400.22 293.45 399.85 288.18 402.21 284.11 C 405.13 279.06 408.70 274.38 411.08 269.04 C 412.04 267.12 411.62 264.93 411.58 262.88 C 415.71 262.42 418.75 259.16 418.76 254.97 Z"
     id="path10" />
  <path
     fill="#ffffff"
     opacity="1.00"
     d=" M 312.98 268.85 C 315.24 267.55 318.77 267.86 319.39 270.86 C 321.62 280.23 323.51 289.69 325.45 299.12 C 326.17 302.02 325.94 305.55 322.92 307.02 C 319.87 306.88 317.89 304.44 317.69 301.51 C 316.12 290.63 314.06 279.79 312.98 268.85 Z"
     id="path11" />
  <path
     fill="#ffffff"
     opacity="1.00"
     d=" M 296.61 276.86 C 296.77 273.82 297.88 270.09 301.21 269.23 C 303.91 269.50 305.22 272.52 305.58 274.90 C 307.91 292.62 309.45 310.47 313.01 328.00 C 315.16 339.73 323.50 349.44 333.56 355.39 C 338.53 358.20 343.44 361.16 348.63 363.56 C 351.56 364.85 354.72 366.08 357.99 365.69 C 361.31 365.21 363.23 360.72 360.93 358.14 C 358.93 355.97 356.18 354.73 353.70 353.22 C 346.83 349.18 339.72 345.48 333.26 340.78 C 327.37 336.72 324.41 328.73 325.93 321.85 C 329.66 321.34 333.02 323.29 336.22 324.90 C 355.93 335.28 376.88 343.36 395.74 355.30 C 408.73 365.56 413.70 382.71 415.56 398.52 C 416.33 387.99 419.32 377.61 424.31 368.30 C 427.62 361.95 432.69 356.50 438.89 352.88 C 457.61 342.11 477.60 333.80 496.75 323.85 C 499.26 322.79 502.09 320.93 504.87 322.11 C 506.31 324.93 504.92 328.18 504.39 331.08 C 502.99 337.26 497.54 341.21 492.43 344.29 C 486.71 347.57 481.12 351.09 475.32 354.25 C 473.07 355.55 470.69 356.91 469.24 359.14 C 468.01 362.18 470.61 366.04 473.95 365.76 C 478.68 365.72 482.93 363.27 487.03 361.18 C 493.14 357.69 499.58 354.58 504.88 349.87 C 511.37 344.23 516.19 336.57 517.86 328.08 C 521.24 312.13 524.30 296.09 526.48 279.93 C 526.92 276.00 527.63 271.44 531.10 268.98 C 533.45 267.28 536.26 269.61 536.40 272.12 C 537.44 284.37 536.65 296.70 537.29 308.97 C 537.29 315.32 538.50 321.77 537.03 328.05 C 535.76 334.42 532.36 340.03 529.80 345.92 C 525.35 355.42 521.55 365.26 516.32 374.37 C 513.03 380.20 506.71 383.05 500.99 385.88 C 472.51 400.54 441.53 410.79 415.66 430.16 C 402.99 421.48 389.73 413.63 375.75 407.24 C 358.03 399.01 339.94 391.49 322.76 382.15 C 318.74 380.06 315.63 376.56 313.53 372.60 C 308.59 363.51 304.86 353.85 300.39 344.54 C 297.82 338.81 294.47 333.25 293.71 326.90 C 293.06 322.77 293.92 318.64 294.39 314.55 C 295.86 302.04 295.89 289.42 296.61 276.86 Z"
     id="path12" />
  <path
     fill="#ffffff"
     opacity="1.00"
     d=" M 511.88 271.98 C 512.19 269.29 514.88 268.71 517.14 268.63 C 517.80 272.84 516.38 276.96 515.86 281.10 C 514.54 288.36 513.66 295.71 511.96 302.89 C 511.57 304.98 509.40 305.75 507.80 306.70 C 506.30 305.54 505.56 303.84 506.12 301.97 C 507.78 291.93 509.75 281.92 511.88 271.98 Z"
     id="path13" />
  <path
     fill="#ffffff"
     opacity="1.00"
     d=" M 330.34 284.45 C 332.78 283.40 334.66 286.01 334.69 288.22 C 335.43 294.84 336.86 301.35 337.94 307.91 C 337.48 311.22 332.70 309.16 332.62 306.58 C 331.54 299.67 330.32 292.76 329.48 285.81 C 329.70 285.47 330.12 284.79 330.34 284.45 Z"
     id="path14" />
  <path
     fill="#ffffff"
     opacity="1.00"
     d=" M 495.07 290.90 C 495.49 288.10 496.24 284.83 498.92 283.32 C 500.88 283.89 500.33 286.39 500.43 287.94 C 499.92 293.62 499.78 299.34 499.17 305.01 C 499.05 307.47 497.14 309.13 495.12 310.20 C 493.77 309.26 492.46 307.93 492.81 306.12 C 493.36 301.02 494.35 295.98 495.07 290.90 Z"
     id="path15" />
  <path
     fill="#ffffff"
     opacity="1.00"
     d=" M 344.24 296.28 C 345.73 296.17 347.52 296.28 347.93 298.08 C 349.45 303.29 350.39 308.70 351.29 314.05 C 350.36 317.03 346.06 315.75 346.07 312.91 C 345.20 307.43 343.06 301.85 344.24 296.28 Z"
     id="path16" />
  <path
     fill="#ffffff"
     opacity="1.00"
     d=" M 482.28 298.16 C 482.79 296.52 484.56 295.94 486.12 295.97 C 486.45 300.97 485.49 305.92 485.42 310.92 C 485.42 313.04 484.73 316.31 481.96 316.06 C 479.31 314.87 479.43 311.50 479.87 309.09 C 480.61 305.43 481.26 301.75 482.28 298.16 Z"
     id="path17" />
  <path
     fill="#ca9656"
     opacity="1.00"
     d=" M 378.20 203.21 C 383.02 197.55 390.86 196.03 397.93 195.79 C 403.24 195.91 409.35 196.72 412.92 201.12 C 416.52 205.50 416.45 211.57 416.06 216.93 C 415.59 221.46 415.64 226.03 415.26 230.57 C 414.80 235.15 410.09 237.19 407.51 240.46 C 406.75 241.59 408.19 242.61 409.02 243.13 C 413.90 243.05 419.11 242.12 423.70 244.34 C 425.74 245.24 426.88 247.31 427.40 249.40 C 428.91 255.29 431.15 260.97 432.79 266.83 C 436.37 265.92 439.71 264.36 443.09 262.92 C 446.97 261.17 452.12 264.76 451.82 269.02 C 451.84 271.81 449.77 273.98 448.20 276.07 C 442.90 282.31 437.17 288.28 430.34 292.84 C 433.01 295.61 435.64 298.65 436.65 302.45 C 437.79 306.86 437.45 311.45 437.49 315.96 C 437.37 321.33 437.86 326.68 437.74 332.05 C 433.69 332.39 428.72 331.26 425.67 334.70 C 423.75 337.42 423.34 340.97 423.70 344.22 C 425.05 343.82 426.43 343.45 427.69 342.78 C 441.15 335.42 455.18 329.10 468.40 321.28 C 469.59 320.73 469.41 319.18 469.69 318.12 C 471.06 305.48 472.47 292.82 472.70 280.09 C 472.48 274.51 472.22 268.55 469.23 263.66 C 466.57 259.25 460.64 258.49 458.03 254.04 C 453.43 246.52 450.32 238.13 445.07 231.00 C 442.80 228.00 439.90 225.06 435.97 224.58 C 433.31 223.90 430.98 226.55 430.80 229.02 C 430.46 233.11 431.21 237.36 433.12 241.01 C 434.39 243.37 438.06 244.70 436.87 247.92 C 435.41 250.69 432.40 248.41 430.59 247.30 C 423.33 242.50 421.21 233.18 421.01 225.01 C 420.83 213.53 434.18 204.76 444.71 208.49 C 454.53 213.84 462.76 222.51 466.92 232.95 C 468.30 236.02 467.58 240.23 470.89 242.13 C 481.96 250.26 486.45 265.22 483.11 278.34 C 491.31 269.79 500.04 261.78 508.30 253.30 C 512.81 248.58 519.11 244.37 525.96 245.72 C 529.47 246.08 532.10 248.56 535.04 250.22 C 538.04 249.99 541.14 248.47 544.09 249.82 C 548.81 251.83 550.74 257.26 550.57 262.07 C 550.84 278.37 551.26 294.67 551.74 310.97 C 551.64 319.04 552.39 327.26 550.26 335.16 C 548.16 344.68 542.58 352.83 538.65 361.63 C 534.94 369.74 531.42 377.95 528.64 386.43 C 527.09 391.35 523.66 395.52 519.41 398.38 C 513.59 402.03 506.89 403.87 500.69 406.75 C 471.19 419.60 441.81 433.36 415.39 451.91 C 412.43 450.56 409.87 448.54 407.16 446.77 C 383.80 431.71 358.66 419.65 333.06 408.93 C 324.79 405.25 316.18 401.79 309.22 395.86 C 305.61 392.89 303.25 388.75 301.37 384.53 C 295.00 370.69 289.02 356.67 283.50 342.46 C 281.16 336.24 278.65 329.82 278.97 323.05 C 279.19 300.24 282.08 277.57 283.66 254.84 C 283.86 251.24 286.26 247.83 289.72 246.68 C 292.69 245.56 295.87 246.45 298.80 247.24 C 302.77 241.64 310.95 241.21 316.57 244.42 C 321.05 246.83 323.55 251.47 326.94 255.07 C 334.74 263.83 342.24 272.89 350.53 281.19 C 351.04 271.43 351.12 260.93 356.50 252.39 C 360.48 246.00 366.96 241.75 373.62 238.55 C 377.16 236.67 374.87 232.03 374.45 228.99 C 371.48 220.48 372.21 210.26 378.20 203.21 M 394.48 211.34 C 394.42 218.26 389.48 223.81 383.72 227.01 C 385.27 231.81 386.81 236.85 386.37 241.94 C 385.72 246.29 381.14 247.89 377.97 250.11 C 370.63 254.44 364.92 261.59 363.05 269.98 C 359.49 285.00 360.77 300.60 361.73 315.85 C 361.78 319.57 364.34 322.66 367.40 324.49 C 374.15 328.63 381.97 330.47 388.96 334.10 C 398.84 338.77 407.27 345.89 415.01 353.49 C 417.20 353.24 418.61 351.16 420.12 349.72 C 414.84 346.92 408.44 345.23 404.66 340.33 C 402.41 334.48 402.53 327.60 404.64 321.71 C 407.20 315.99 414.35 316.50 419.27 314.22 C 422.21 313.32 422.62 309.87 424.15 307.63 C 427.08 309.99 426.01 315.16 423.57 317.56 C 419.26 319.96 413.26 321.45 411.77 326.84 C 410.97 330.96 411.03 335.52 412.93 339.36 C 419.97 338.07 415.20 328.58 420.41 325.52 C 423.63 325.02 426.94 325.38 430.18 324.94 C 430.55 319.28 429.50 313.43 431.40 307.96 C 429.54 304.62 426.66 301.86 422.98 300.68 C 420.37 302.54 419.87 305.79 418.31 308.38 C 415.98 309.68 413.84 307.46 411.95 306.40 C 408.87 308.56 405.20 311.91 401.20 309.90 C 396.79 307.62 394.91 302.43 394.30 297.78 C 392.93 288.67 396.95 279.96 401.13 272.13 C 402.81 269.83 399.94 267.95 399.06 265.99 C 395.07 259.93 395.90 251.74 400.08 246.00 C 401.82 243.83 398.98 241.76 398.13 239.88 C 402.00 236.17 405.94 232.17 407.72 227.00 C 409.17 223.02 408.46 218.41 406.19 214.89 C 403.56 211.23 398.63 210.47 394.48 211.34 M 418.76 254.97 C 418.75 259.16 415.71 262.42 411.58 262.88 C 411.62 264.93 412.04 267.12 411.08 269.04 C 408.70 274.38 405.13 279.06 402.21 284.11 C 399.85 288.18 400.22 293.45 402.65 297.40 C 404.24 299.70 407.39 299.69 409.89 299.95 C 413.02 299.94 416.37 300.57 419.32 299.20 C 419.27 295.15 419.15 291.10 419.31 287.05 C 419.32 285.59 420.35 284.30 421.58 283.60 C 424.94 281.48 429.24 283.46 432.65 281.45 C 436.20 279.39 438.32 275.70 440.16 272.17 C 434.85 273.60 429.14 274.87 423.72 273.26 C 422.43 272.71 420.95 271.63 421.00 270.07 C 420.39 267.12 422.79 265.00 424.47 262.97 C 423.90 260.59 423.33 258.21 422.81 255.83 C 421.46 255.53 420.10 255.24 418.76 254.97 M 312.98 268.85 C 314.06 279.79 316.12 290.63 317.69 301.51 C 317.89 304.44 319.87 306.88 322.92 307.02 C 325.94 305.55 326.17 302.02 325.45 299.12 C 323.51 289.69 321.62 280.23 319.39 270.86 C 318.77 267.86 315.24 267.55 312.98 268.85 M 296.61 276.86 C 295.89 289.42 295.86 302.04 294.39 314.55 C 293.92 318.64 293.06 322.77 293.71 326.90 C 294.47 333.25 297.82 338.81 300.39 344.54 C 304.86 353.85 308.59 363.51 313.53 372.60 C 315.63 376.56 318.74 380.06 322.76 382.15 C 339.94 391.49 358.03 399.01 375.75 407.24 C 389.73 413.63 402.99 421.48 415.66 430.16 C 441.53 410.79 472.51 400.54 500.99 385.88 C 506.71 383.05 513.03 380.20 516.32 374.37 C 521.55 365.26 525.35 355.42 529.80 345.92 C 532.36 340.03 535.76 334.42 537.03 328.05 C 538.50 321.77 537.29 315.32 537.29 308.97 C 536.65 296.70 537.44 284.37 536.40 272.12 C 536.26 269.61 533.45 267.28 531.10 268.98 C 527.63 271.44 526.92 276.00 526.48 279.93 C 524.30 296.09 521.24 312.13 517.86 328.08 C 516.19 336.57 511.37 344.23 504.88 349.87 C 499.58 354.58 493.14 357.69 487.03 361.18 C 482.93 363.27 478.68 365.72 473.95 365.76 C 470.61 366.04 468.01 362.18 469.24 359.14 C 470.69 356.91 473.07 355.55 475.32 354.25 C 481.12 351.09 486.71 347.57 492.43 344.29 C 497.54 341.21 502.99 337.26 504.39 331.08 C 504.92 328.18 506.31 324.93 504.87 322.11 C 502.09 320.93 499.26 322.79 496.75 323.85 C 477.60 333.80 457.61 342.11 438.89 352.88 C 432.69 356.50 427.62 361.95 424.31 368.30 C 419.32 377.61 416.33 387.99 415.56 398.52 C 413.70 382.71 408.73 365.56 395.74 355.30 C 376.88 343.36 355.93 335.28 336.22 324.90 C 333.02 323.29 329.66 321.34 325.93 321.85 C 324.41 328.73 327.37 336.72 333.26 340.78 C 339.72 345.48 346.83 349.18 353.70 353.22 C 356.18 354.73 358.93 355.97 360.93 358.14 C 363.23 360.72 361.31 365.21 357.99 365.69 C 354.72 366.08 351.56 364.85 348.63 363.56 C 343.44 361.16 338.53 358.20 333.56 355.39 C 323.50 349.44 315.16 339.73 313.01 328.00 C 309.45 310.47 307.91 292.62 305.58 274.90 C 305.22 272.52 303.91 269.50 301.21 269.23 C 297.88 270.09 296.77 273.82 296.61 276.86 M 511.88 271.98 C 509.75 281.92 507.78 291.93 506.12 301.97 C 505.56 303.84 506.30 305.54 507.80 306.70 C 509.40 305.75 511.57 304.98 511.96 302.89 C 513.66 295.71 514.54 288.36 515.86 281.10 C 516.38 276.96 517.80 272.84 517.14 268.63 C 514.88 268.71 512.19 269.29 511.88 271.98 M 330.34 284.45 C 330.12 284.79 329.70 285.47 329.48 285.81 C 330.32 292.76 331.54 299.67 332.62 306.58 C 332.70 309.16 337.48 311.22 337.94 307.91 C 336.86 301.35 335.43 294.84 334.69 288.22 C 334.66 286.01 332.78 283.40 330.34 284.45 M 495.07 290.90 C 494.35 295.98 493.36 301.02 492.81 306.12 C 492.46 307.93 493.77 309.26 495.12 310.20 C 497.14 309.13 499.05 307.47 499.17 305.01 C 499.78 299.34 499.92 293.62 500.43 287.94 C 500.33 286.39 500.88 283.89 498.92 283.32 C 496.24 284.83 495.49 288.10 495.07 290.90 M 344.24 296.28 C 343.06 301.85 345.20 307.43 346.07 312.91 C 346.06 315.75 350.36 317.03 351.29 314.05 C 350.39 308.70 349.45 303.29 347.93 298.08 C 347.52 296.28 345.73 296.17 344.24 296.28 M 482.28 298.16 C 481.26 301.75 480.61 305.43 479.87 309.09 C 479.43 311.50 479.31 314.87 481.96 316.06 C 484.73 316.31 485.42 313.04 485.42 310.92 C 485.49 305.92 486.45 300.97 486.12 295.97 C 484.56 295.94 482.79 296.52 482.28 298.16 Z"
     id="path18" />
</svg>
