<?xml version="1.0" encoding="UTF-8" ?>
<!DOCTYPE svg PUBLIC "-//W3C//DTD SVG 1.1//EN" "http://www.w3.org/Graphics/SVG/1.1/DTD/svg11.dtd">
<svg width="824pt" height="1067pt" viewBox="0 0 824 1067" version="1.1" xmlns="http://www.w3.org/2000/svg">
<g id="#fa463fff">
<path fill="#fa463f" opacity="1.00" d=" M 400.39 0.00 L 423.53 0.00 C 474.90 1.65 526.00 12.58 573.25 32.87 C 638.45 60.67 696.11 105.71 739.10 162.03 C 788.18 225.91 817.77 304.52 822.72 384.94 C 827.45 458.59 812.19 532.38 785.68 600.87 C 761.81 662.49 729.15 720.41 691.79 774.81 C 638.81 851.64 576.66 921.89 509.36 986.44 C 481.49 1013.00 452.80 1038.72 422.69 1062.73 C 419.44 1065.45 415.28 1067.19 410.99 1066.80 C 406.57 1066.85 402.79 1064.31 399.55 1061.59 C 362.16 1031.53 326.72 999.10 292.69 965.31 C 240.71 913.58 192.17 858.27 148.98 798.97 C 102.53 734.94 62.05 665.96 34.51 591.60 C 13.42 534.70 0.52 474.42 0.00 413.60 L 0.00 410.25 C 0.38 382.24 3.03 354.21 8.90 326.79 C 17.99 283.50 34.18 241.70 56.63 203.58 C 84.08 156.86 120.81 115.62 164.08 82.99 C 203.73 52.99 248.86 30.24 296.60 16.34 C 330.31 6.43 365.30 1.19 400.39 0.00 M 354.96 91.35 C 353.51 90.05 352.57 90.26 352.15 91.96 C 351.38 92.03 349.85 92.18 349.08 92.25 L 348.32 91.71 L 347.30 92.07 L 347.09 92.95 C 346.54 93.01 345.45 93.14 344.90 93.21 C 343.40 92.02 342.49 92.29 342.18 94.01 C 340.06 94.15 337.91 94.44 335.93 95.24 C 334.44 94.01 333.51 94.25 333.13 95.96 L 331.91 96.22 C 330.41 95.01 329.48 95.26 329.11 96.97 L 327.94 97.28 C 326.46 96.03 325.53 96.27 325.14 97.97 L 324.03 98.18 L 323.26 97.66 L 322.24 98.04 L 322.04 98.92 L 320.76 99.30 C 319.31 97.89 315.32 98.80 315.37 100.91 L 314.03 101.14 L 313.25 100.63 L 312.24 101.05 L 312.07 101.94 L 310.95 102.02 L 310.14 101.58 L 309.17 102.06 L 309.05 102.96 L 307.94 103.02 L 307.12 102.59 L 306.16 103.09 L 306.06 104.00 C 296.92 106.62 288.09 110.29 279.40 114.16 C 276.42 114.25 273.97 116.07 271.37 117.30 C 260.24 123.05 248.63 127.96 238.25 135.07 C 235.81 136.81 232.79 137.83 230.90 140.27 C 230.65 140.45 230.16 140.82 229.92 141.00 L 229.05 140.66 L 228.15 141.27 L 228.16 142.18 C 227.85 142.38 227.22 142.77 226.90 142.97 L 226.04 142.65 L 225.16 143.28 L 225.19 144.20 C 224.96 144.36 224.49 144.67 224.25 144.82 C 221.67 145.49 219.10 146.79 217.86 149.29 C 213.40 152.29 209.21 155.68 204.95 158.95 C 201.12 160.71 198.39 164.02 194.95 166.36 C 183.81 176.37 172.61 186.46 163.07 198.06 C 157.63 203.76 152.59 209.84 147.90 216.17 C 144.98 220.00 141.50 223.55 139.69 228.08 C 136.07 233.23 132.44 238.39 129.36 243.88 C 126.31 246.02 124.88 249.66 123.84 253.09 C 123.72 253.29 123.48 253.69 123.36 253.89 L 122.44 254.46 C 117.68 262.17 113.71 270.34 109.63 278.44 C 107.29 284.09 104.97 289.76 102.40 295.31 C 101.65 296.87 101.35 298.59 101.12 300.29 C 99.52 304.24 97.91 308.22 96.92 312.37 C 94.79 311.69 93.75 315.65 95.34 316.84 L 94.93 318.00 L 94.04 318.17 L 93.62 319.17 L 94.12 319.96 L 93.87 320.70 C 92.32 323.68 91.21 326.94 91.08 330.33 C 90.55 331.90 90.15 333.51 89.98 335.17 C 88.25 335.42 87.95 336.33 89.07 337.89 L 88.95 339.13 C 87.24 339.43 86.95 340.35 88.09 341.88 L 87.94 343.16 C 86.22 343.45 85.93 344.36 87.08 345.90 L 86.97 347.14 C 85.26 347.50 85.03 348.43 86.28 349.93 C 84.52 358.28 82.62 366.67 81.98 375.18 C 80.29 375.61 80.09 376.56 81.39 378.02 C 79.94 389.30 78.94 400.66 78.93 412.04 C 78.01 421.72 79.07 431.42 79.13 441.11 C 80.25 458.58 82.43 476.03 86.19 493.12 C 85.02 494.65 85.30 495.56 87.02 495.87 C 87.58 500.64 88.92 505.31 90.23 509.93 L 89.67 510.69 L 90.02 511.72 L 90.89 511.94 L 91.30 513.21 C 89.85 514.65 90.79 518.60 92.85 518.64 L 93.06 520.07 L 92.62 520.89 L 93.12 521.85 L 94.03 521.94 C 95.84 530.06 99.21 537.81 102.15 545.59 C 102.81 550.55 105.70 554.81 107.53 559.39 C 109.86 565.86 113.63 571.67 116.36 577.98 C 117.53 580.14 118.16 582.87 120.46 584.16 C 120.56 584.34 120.77 584.71 120.87 584.89 C 121.65 587.15 121.98 590.05 124.43 591.17 C 127.70 596.82 131.01 602.47 134.83 607.78 C 136.73 613.10 140.80 617.34 144.12 621.84 C 146.21 624.22 147.39 627.51 150.28 629.10 C 150.45 629.34 150.80 629.82 150.97 630.06 C 153.84 635.86 158.84 640.16 163.01 644.98 C 165.73 648.48 168.66 651.83 171.98 654.78 C 177.95 659.86 182.55 666.35 188.76 671.18 C 192.58 674.03 195.48 678.10 199.96 680.03 C 200.32 680.27 201.04 680.75 201.41 680.99 C 200.23 682.79 203.37 685.28 204.91 683.78 C 205.28 684.08 206.02 684.69 206.39 685.00 C 205.20 686.81 208.38 689.27 209.92 687.78 C 210.26 688.04 210.92 688.55 211.26 688.80 C 210.10 690.29 212.79 692.17 213.96 690.83 C 214.29 691.08 214.96 691.60 215.29 691.85 C 214.11 693.34 216.81 695.19 217.97 693.86 C 218.28 694.09 218.88 694.56 219.18 694.79 L 219.17 695.70 L 220.07 696.31 L 220.94 695.97 C 225.04 699.21 229.38 702.15 233.94 704.71 C 235.90 707.37 239.19 708.43 241.86 710.21 C 257.69 720.12 274.71 727.96 292.06 734.80 C 296.22 735.96 299.98 738.49 304.36 738.79 C 308.99 740.35 313.59 742.18 318.41 743.09 C 318.33 745.21 322.33 746.14 323.77 744.67 C 325.46 745.47 327.32 745.82 329.18 746.02 C 329.40 747.73 330.29 748.04 331.87 746.94 L 333.11 747.05 C 333.40 748.75 334.32 749.04 335.87 747.92 L 337.14 748.04 C 337.48 749.73 338.40 750.00 339.91 748.85 L 341.10 749.05 C 341.53 750.73 342.47 750.93 343.93 749.65 C 389.93 759.45 438.08 759.48 484.07 749.65 C 485.50 750.94 486.44 750.74 486.89 749.05 L 488.12 748.88 C 489.66 749.99 490.56 749.70 490.84 748.01 C 491.38 747.97 492.46 747.88 493.00 747.84 L 493.78 748.34 L 494.78 747.94 L 494.96 747.04 C 495.47 746.99 496.51 746.88 497.02 746.82 L 497.80 747.32 L 498.80 746.90 L 498.97 746.00 C 499.47 745.96 500.49 745.87 500.99 745.83 L 501.76 746.35 L 502.77 745.97 L 502.97 745.09 L 504.07 744.81 C 505.59 745.98 506.51 745.71 506.84 744.01 L 508.00 743.90 L 508.81 744.34 L 509.78 743.87 L 509.90 742.96 C 520.05 740.57 529.85 736.66 539.55 732.85 C 541.27 732.85 542.84 732.13 544.36 731.38 C 550.90 728.60 557.36 725.63 563.86 722.74 C 568.85 720.60 573.16 717.19 578.16 715.07 C 585.54 710.90 592.67 706.30 599.87 701.82 C 602.01 700.24 604.76 699.20 606.07 696.72 C 606.26 696.58 606.66 696.30 606.85 696.16 C 609.32 695.38 611.91 694.23 613.08 691.74 C 613.32 691.52 613.80 691.08 614.04 690.86 C 615.20 692.19 617.90 690.31 616.70 688.84 C 620.85 686.29 624.70 683.17 628.15 679.74 C 629.91 681.13 633.05 678.39 632.09 676.48 L 632.66 676.09 C 637.88 673.15 641.93 668.60 646.24 664.52 C 652.54 657.40 660.10 651.50 666.06 644.07 C 672.34 636.58 679.33 629.46 684.06 620.85 C 684.23 620.59 684.58 620.07 684.76 619.81 L 685.68 619.85 L 686.32 618.97 L 686.01 618.10 C 686.23 617.75 686.68 617.05 686.91 616.70 C 688.40 617.86 690.25 615.14 688.87 614.01 C 689.10 613.72 689.57 613.14 689.80 612.84 L 690.72 612.82 L 691.29 611.90 L 690.92 611.05 C 691.16 610.75 691.65 610.16 691.89 609.86 L 692.80 609.83 L 693.36 608.89 L 692.98 608.04 C 695.81 604.30 698.25 600.23 700.63 596.17 C 703.67 593.82 704.79 589.84 706.79 586.69 C 710.66 580.97 713.03 574.44 716.30 568.40 C 717.84 564.82 720.66 561.62 720.81 557.58 L 721.00 557.16 C 722.77 555.40 724.00 553.08 723.77 550.51 L 724.03 549.63 C 725.93 550.58 727.16 546.96 725.58 545.96 L 726.01 544.69 C 727.93 545.58 729.13 541.99 727.57 540.96 L 728.05 539.98 L 728.94 539.79 L 729.33 538.78 L 728.80 538.00 L 729.08 537.23 C 730.81 535.05 731.68 532.35 731.77 529.58 L 731.99 528.87 L 732.89 528.69 L 733.30 527.69 L 732.79 526.91 L 733.07 525.60 C 735.15 525.62 736.15 521.67 734.68 520.26 L 735.04 518.99 L 735.93 518.82 L 736.35 517.82 L 735.86 517.04 L 736.00 515.87 C 737.71 515.56 738.00 514.64 736.86 513.12 L 737.16 511.60 C 739.25 511.62 740.16 507.56 738.65 506.18 L 739.04 504.86 C 740.74 504.47 740.99 503.54 739.79 502.07 L 740.04 500.87 C 741.72 500.46 741.94 499.53 740.69 498.08 C 740.82 497.54 741.08 496.46 741.22 495.92 C 742.94 493.86 742.85 491.16 742.88 488.64 C 743.40 486.10 743.88 483.54 744.00 480.96 L 744.89 480.73 L 745.22 479.70 L 744.65 478.95 C 745.12 475.84 745.66 472.73 745.86 469.59 C 748.05 469.50 748.02 465.55 746.70 464.27 C 746.79 463.39 746.97 461.63 747.06 460.75 C 749.28 460.54 748.99 456.59 747.70 455.31 C 747.96 453.54 747.98 451.75 748.10 449.98 L 748.99 449.93 C 749.04 447.24 749.04 444.54 748.86 441.86 C 749.61 428.29 749.48 414.71 748.84 401.14 C 748.75 398.32 749.74 395.14 748.13 392.61 C 747.15 378.25 744.84 363.98 741.83 349.91 C 742.99 348.38 742.72 347.47 741.00 347.18 C 740.18 341.27 738.62 335.42 736.67 329.79 C 738.16 328.35 737.23 324.41 735.15 324.35 L 734.94 322.97 L 735.40 322.15 L 734.91 321.19 L 734.01 321.08 C 733.72 318.58 732.77 316.25 731.98 313.89 C 728.29 303.61 724.66 293.28 719.86 283.45 C 719.61 279.18 716.65 275.81 715.02 272.03 C 710.89 263.09 706.04 254.52 700.86 246.16 C 696.29 239.33 692.64 231.74 686.73 225.93 C 686.51 225.69 686.07 225.21 685.85 224.97 C 687.23 223.82 685.36 221.12 683.85 222.25 C 683.60 221.93 683.09 221.29 682.84 220.97 C 684.23 219.83 682.36 217.11 680.86 218.26 C 680.59 217.93 680.07 217.26 679.80 216.93 C 681.24 215.34 678.79 212.24 676.96 213.39 C 676.75 213.09 676.32 212.49 676.10 212.19 C 676.01 209.64 673.81 208.26 671.98 206.92 C 671.81 206.69 671.47 206.22 671.30 205.98 C 670.39 203.18 668.05 201.31 666.16 199.20 C 654.67 185.63 641.48 173.63 627.99 162.10 C 623.18 158.93 619.37 154.28 614.01 151.99 C 613.78 151.83 613.32 151.52 613.10 151.36 C 610.48 148.66 607.60 145.76 603.85 144.81 C 603.59 144.65 603.07 144.33 602.81 144.17 L 602.83 143.25 L 601.93 142.63 L 601.07 142.97 C 600.77 142.76 600.17 142.34 599.88 142.13 L 599.86 141.22 L 598.94 140.64 L 598.08 141.01 C 597.83 140.82 597.33 140.44 597.08 140.25 C 591.82 135.06 584.72 132.33 578.59 128.35 C 575.29 126.09 571.38 125.01 568.00 122.91 C 565.98 121.74 564.10 119.89 561.58 120.16 C 549.73 114.33 537.59 108.90 524.97 105.01 L 524.86 104.11 L 523.90 103.61 L 523.09 104.04 L 521.94 103.92 L 521.79 103.02 L 520.80 102.58 L 520.01 103.05 L 518.95 102.90 L 518.76 102.01 L 517.74 101.63 L 516.96 102.17 C 513.22 100.87 509.44 99.57 505.54 98.87 C 505.66 96.78 501.56 95.81 500.20 97.34 L 498.90 96.98 C 498.53 95.27 497.59 95.02 496.10 96.22 L 494.90 95.98 C 494.52 94.27 493.59 94.02 492.10 95.22 L 490.86 94.95 C 490.45 93.25 489.52 93.03 488.07 94.29 C 487.52 94.21 486.41 94.05 485.86 93.97 C 485.53 92.26 484.61 91.99 483.12 93.17 C 482.56 93.11 481.44 93.00 480.88 92.95 C 480.49 91.24 479.56 91.01 478.10 92.25 C 437.58 84.43 395.58 84.08 354.96 91.35 Z" />
</g>
<g id="#ffffffff">
<path fill="#ffffff" opacity="1.00" d=" M 354.96 91.35 C 395.58 84.08 437.58 84.43 478.10 92.25 C 478.94 92.81 479.87 93.04 480.88 92.95 C 481.44 93.00 482.56 93.11 483.12 93.17 C 483.93 93.78 484.84 94.05 485.86 93.97 C 486.41 94.05 487.52 94.21 488.07 94.29 C 488.91 94.84 489.84 95.06 490.86 94.95 L 492.10 95.22 C 492.94 95.80 493.87 96.05 494.90 95.98 L 496.10 96.22 C 496.94 96.80 497.87 97.05 498.90 96.98 L 500.20 97.34 C 501.85 98.22 503.67 98.69 505.54 98.87 C 509.44 99.57 513.22 100.87 516.96 102.17 C 517.46 102.36 518.46 102.72 518.95 102.90 L 520.01 103.05 C 520.49 103.27 521.46 103.70 521.94 103.92 L 523.09 104.04 C 523.56 104.29 524.50 104.77 524.97 105.01 C 537.59 108.90 549.73 114.33 561.58 120.16 C 573.73 126.28 585.44 133.20 597.08 140.25 C 597.33 140.44 597.83 140.82 598.08 141.01 C 598.53 141.29 599.43 141.85 599.88 142.13 C 600.17 142.34 600.77 142.76 601.07 142.97 C 601.50 143.27 602.37 143.87 602.81 144.17 C 603.07 144.33 603.59 144.65 603.85 144.81 C 606.82 147.14 609.82 149.45 613.10 151.36 C 613.32 151.52 613.78 151.83 614.01 151.99 C 623.74 159.16 632.94 167.00 641.97 175.02 C 652.01 185.09 662.36 194.89 671.30 205.98 C 671.47 206.22 671.81 206.69 671.98 206.92 C 673.24 208.76 674.66 210.48 676.10 212.19 C 676.32 212.49 676.75 213.09 676.96 213.39 C 677.73 214.70 678.66 215.91 679.80 216.93 C 680.07 217.26 680.59 217.93 680.86 218.26 C 681.29 219.30 681.95 220.24 682.84 220.97 C 683.09 221.29 683.60 221.93 683.85 222.25 C 684.31 223.29 684.94 224.25 685.85 224.97 C 686.07 225.21 686.51 225.69 686.73 225.93 C 695.47 238.96 704.05 252.13 711.27 266.08 C 714.28 271.80 716.95 277.68 719.86 283.45 C 724.66 293.28 728.29 303.61 731.98 313.89 C 732.77 316.25 733.72 318.58 734.01 321.08 C 734.24 321.55 734.71 322.50 734.94 322.97 L 735.15 324.35 C 735.28 326.25 735.78 328.10 736.67 329.79 C 738.62 335.42 740.18 341.27 741.00 347.18 C 740.94 348.18 741.22 349.09 741.83 349.91 C 744.84 363.98 747.15 378.25 748.13 392.61 C 748.27 395.46 748.57 398.30 748.84 401.14 C 749.48 414.71 749.61 428.29 748.86 441.86 C 748.63 444.57 748.24 447.26 748.10 449.98 C 747.98 451.75 747.96 453.54 747.70 455.31 C 747.31 457.09 746.99 458.91 747.06 460.75 C 746.97 461.63 746.79 463.39 746.70 464.27 C 746.22 466.01 745.85 467.78 745.86 469.59 C 745.66 472.73 745.12 475.84 744.65 478.95 C 744.49 479.45 744.16 480.45 744.00 480.96 C 743.88 483.54 743.40 486.10 742.88 488.64 C 742.36 491.07 741.56 493.44 741.22 495.92 C 741.08 496.46 740.82 497.54 740.69 498.08 C 740.13 498.93 739.92 499.86 740.04 500.87 L 739.79 502.07 C 739.20 502.90 738.95 503.83 739.04 504.86 L 738.65 506.18 C 737.78 507.87 737.32 509.71 737.16 511.60 L 736.86 513.12 C 736.24 513.93 735.95 514.85 736.00 515.87 L 735.86 517.04 C 735.65 517.52 735.25 518.50 735.04 518.99 L 734.68 520.26 C 733.75 521.90 733.20 523.71 733.07 525.60 L 732.79 526.91 C 732.59 527.40 732.19 528.38 731.99 528.87 L 731.77 529.58 C 730.78 532.10 729.85 534.64 729.08 537.23 L 728.80 538.00 C 728.62 538.50 728.24 539.48 728.05 539.98 L 727.57 540.96 C 726.85 542.11 726.31 543.36 726.01 544.69 L 725.58 545.96 C 724.88 547.10 724.30 548.31 724.03 549.63 L 723.77 550.51 C 722.84 552.72 721.87 554.92 721.00 557.16 L 720.81 557.58 C 714.70 570.76 707.92 583.61 700.63 596.17 C 698.25 600.23 695.81 604.30 692.98 608.04 C 692.70 608.50 692.16 609.41 691.89 609.86 C 691.65 610.16 691.16 610.75 690.92 611.05 C 690.64 611.50 690.08 612.40 689.80 612.84 C 689.57 613.14 689.10 613.72 688.87 614.01 C 687.97 614.71 687.31 615.63 686.91 616.70 C 686.68 617.05 686.23 617.75 686.01 618.10 C 685.69 618.53 685.07 619.38 684.76 619.81 C 684.58 620.07 684.23 620.59 684.06 620.85 C 673.91 633.68 663.64 646.48 651.89 657.89 C 645.75 664.25 639.18 670.14 632.66 676.09 L 632.09 676.48 C 630.60 677.33 629.22 678.38 628.15 679.74 C 624.70 683.17 620.85 686.29 616.70 688.84 C 615.63 689.25 614.74 689.97 614.04 690.86 C 613.80 691.08 613.32 691.52 613.08 691.74 C 610.96 693.15 608.86 694.59 606.85 696.16 C 606.66 696.30 606.26 696.58 606.07 696.72 C 590.76 706.98 574.97 716.59 558.26 724.41 C 552.14 727.47 545.72 729.88 539.55 732.85 C 529.85 736.66 520.05 740.57 509.90 742.96 C 509.42 743.20 508.47 743.66 508.00 743.90 L 506.84 744.01 C 505.82 743.94 504.89 744.20 504.07 744.81 L 502.97 745.09 C 502.48 745.27 501.49 745.65 500.99 745.83 C 500.49 745.87 499.47 745.96 498.97 746.00 C 498.48 746.21 497.51 746.62 497.02 746.82 C 496.51 746.88 495.47 746.99 494.96 747.04 C 494.47 747.24 493.49 747.64 493.00 747.84 C 492.46 747.88 491.38 747.97 490.84 748.01 C 489.81 747.92 488.91 748.21 488.12 748.88 L 486.89 749.05 C 485.88 748.94 484.94 749.13 484.07 749.65 C 438.08 759.48 389.93 759.45 343.93 749.65 C 343.05 749.13 342.11 748.93 341.10 749.05 L 339.91 748.85 C 339.08 748.23 338.15 747.95 337.14 748.04 L 335.87 747.92 C 335.04 747.28 334.12 746.99 333.11 747.05 L 331.87 746.94 C 331.08 746.29 330.18 745.98 329.18 746.02 C 327.32 745.82 325.46 745.47 323.77 744.67 C 322.10 743.78 320.28 743.26 318.41 743.09 C 313.59 742.18 308.99 740.35 304.36 738.79 C 287.95 732.68 271.73 725.96 256.32 717.60 C 248.66 713.65 241.40 709.00 233.94 704.71 C 229.38 702.15 225.04 699.21 220.94 695.97 C 220.50 695.67 219.62 695.08 219.18 694.79 C 218.88 694.56 218.28 694.09 217.97 693.86 C 217.27 692.95 216.34 692.27 215.29 691.85 C 214.96 691.60 214.29 691.08 213.96 690.83 C 213.24 689.93 212.31 689.24 211.26 688.80 C 210.92 688.55 210.26 688.04 209.92 687.78 C 208.91 686.65 207.69 685.76 206.39 685.00 C 206.02 684.69 205.28 684.08 204.91 683.78 C 203.89 682.67 202.72 681.71 201.41 680.99 C 201.04 680.75 200.32 680.27 199.96 680.03 C 193.17 674.44 186.48 668.70 180.37 662.37 C 169.86 652.26 159.96 641.54 150.97 630.06 C 150.80 629.82 150.45 629.34 150.28 629.10 C 145.19 621.95 139.94 614.91 134.83 607.78 C 131.01 602.47 127.70 596.82 124.43 591.17 C 123.31 589.03 122.13 586.94 120.87 584.89 C 120.77 584.71 120.56 584.34 120.46 584.16 C 113.78 571.57 107.69 558.70 102.15 545.59 C 99.21 537.81 95.84 530.06 94.03 521.94 C 93.78 521.47 93.30 520.53 93.06 520.07 L 92.85 518.64 C 92.75 516.73 92.20 514.89 91.30 513.21 L 90.89 511.94 C 90.73 511.44 90.39 510.43 90.23 509.93 C 88.92 505.31 87.58 500.64 87.02 495.87 C 87.07 494.85 86.79 493.94 86.19 493.12 C 82.43 476.03 80.25 458.58 79.13 441.11 C 79.07 431.42 78.01 421.72 78.93 412.04 C 78.94 400.66 79.94 389.30 81.39 378.02 C 81.89 377.13 82.09 376.18 81.98 375.18 C 82.62 366.67 84.52 358.28 86.28 349.93 C 86.81 349.07 87.05 348.14 86.97 347.14 L 87.08 345.90 C 87.70 345.08 87.98 344.17 87.94 343.16 L 88.09 341.88 C 88.71 341.06 89.00 340.14 88.95 339.13 L 89.07 337.89 C 89.70 337.09 90.00 336.18 89.98 335.17 C 90.15 333.51 90.55 331.90 91.08 330.33 C 92.22 327.18 93.13 323.96 93.87 320.70 L 94.12 319.96 C 94.32 319.47 94.73 318.49 94.93 318.00 L 95.34 316.84 C 96.02 315.41 96.63 313.94 96.92 312.37 C 97.91 308.22 99.52 304.24 101.12 300.29 C 107.53 284.36 114.98 268.88 123.36 253.89 C 123.48 253.69 123.72 253.29 123.84 253.09 C 125.78 250.08 127.69 247.05 129.36 243.88 C 132.44 238.39 136.07 233.23 139.69 228.08 C 146.99 217.94 154.62 207.99 163.08 198.78 C 169.72 190.58 177.73 183.64 185.01 176.03 C 191.53 170.20 198.14 164.45 204.95 158.95 C 209.21 155.68 213.40 152.29 217.86 149.29 C 220.08 147.93 222.20 146.42 224.25 144.82 C 224.49 144.67 224.96 144.36 225.19 144.20 C 225.62 143.90 226.48 143.28 226.90 142.97 C 227.22 142.77 227.85 142.38 228.16 142.18 C 228.60 141.88 229.48 141.30 229.92 141.00 C 230.16 140.82 230.65 140.45 230.90 140.27 C 240.33 134.77 249.55 128.88 259.30 123.95 C 265.89 120.45 272.71 117.43 279.40 114.16 C 288.09 110.29 296.92 106.62 306.06 104.00 C 306.53 103.75 307.47 103.27 307.94 103.02 L 309.05 102.96 C 309.53 102.72 310.47 102.25 310.95 102.02 L 312.07 101.94 C 312.56 101.74 313.54 101.34 314.03 101.14 L 315.37 100.91 C 317.26 100.77 319.09 100.21 320.76 99.30 L 322.04 98.92 C 322.54 98.73 323.53 98.36 324.03 98.18 L 325.14 97.97 C 326.14 98.06 327.08 97.83 327.94 97.28 L 329.11 96.97 C 330.13 97.04 331.06 96.79 331.91 96.22 L 333.13 95.96 C 334.14 96.04 335.07 95.80 335.93 95.24 C 337.91 94.44 340.06 94.15 342.18 94.01 C 343.18 94.09 344.09 93.82 344.90 93.21 C 345.45 93.14 346.54 93.01 347.09 92.95 C 347.59 92.77 348.58 92.42 349.08 92.25 C 349.85 92.18 351.38 92.03 352.15 91.96 C 353.14 92.07 354.08 91.86 354.96 91.35 M 377.76 203.83 C 372.24 210.91 371.66 220.73 374.53 229.02 C 374.92 232.05 377.31 236.73 373.65 238.60 C 366.74 241.90 360.08 246.42 356.12 253.15 C 351.21 261.62 351.03 271.75 350.66 281.27 C 349.39 280.25 348.18 279.15 347.12 277.93 C 338.29 268.03 329.34 258.23 320.90 248.00 C 315.64 241.63 304.13 240.10 298.89 247.27 C 295.72 246.54 292.24 245.45 289.12 247.02 C 285.97 248.33 283.83 251.59 283.78 254.99 C 282.05 277.33 279.50 299.61 278.96 322.02 C 278.53 330.71 282.23 338.80 285.25 346.73 C 290.84 360.65 296.63 374.50 303.16 388.00 C 308.38 398.28 319.79 402.73 329.63 407.37 C 358.36 419.40 386.75 432.73 412.55 450.31 C 413.78 451.05 415.32 452.29 416.62 450.87 C 443.01 432.79 472.04 419.05 501.33 406.39 C 506.65 404.00 512.25 402.22 517.41 399.47 C 522.35 396.88 526.40 392.51 528.27 387.22 C 532.70 374.03 538.34 361.25 544.92 348.99 C 549.08 340.96 551.66 332.03 551.73 322.95 C 551.70 316.97 551.83 310.99 551.44 305.03 C 550.98 290.37 550.97 275.69 550.41 261.04 C 550.49 256.54 548.32 251.64 543.95 249.88 C 541.04 248.54 537.97 250.14 534.99 250.23 C 531.75 248.46 528.83 245.68 524.89 245.69 C 518.39 244.87 512.66 248.93 508.32 253.31 C 499.95 261.68 491.58 270.04 483.05 278.23 C 485.78 267.04 483.18 254.35 475.01 245.99 C 473.08 243.62 470.00 242.21 468.53 239.54 C 466.50 226.93 457.45 216.58 447.00 209.82 C 441.18 205.83 433.22 207.84 427.94 211.82 C 422.47 215.57 420.10 222.71 421.31 229.10 C 422.15 235.98 424.60 243.36 430.72 247.29 C 432.45 248.48 435.46 250.47 436.86 247.79 C 437.93 244.96 434.69 243.58 433.42 241.60 C 431.10 237.91 430.46 233.35 430.77 229.07 C 430.83 226.10 434.06 223.35 436.96 224.73 C 440.47 225.44 442.99 228.20 445.10 230.89 C 450.35 238.07 453.53 246.47 458.11 254.05 C 460.71 258.45 466.63 259.20 469.26 263.60 C 472.44 268.76 472.62 275.10 472.82 280.98 C 472.38 293.66 471.08 306.29 469.68 318.89 C 469.65 320.18 468.82 321.23 467.70 321.79 C 454.70 329.40 440.95 335.62 427.74 342.84 C 426.46 343.51 425.05 343.89 423.68 344.31 C 423.19 340.83 423.65 336.78 426.18 334.14 C 429.26 331.28 433.76 332.19 437.58 332.11 C 437.99 327.08 437.22 322.06 437.35 317.03 C 437.33 312.66 437.58 308.25 436.91 303.91 C 436.18 299.54 433.29 295.97 430.34 292.84 C 436.90 288.32 442.45 282.54 447.70 276.59 C 449.43 274.32 451.64 272.01 451.79 269.01 C 452.06 264.76 447.01 261.38 443.14 263.01 C 439.67 264.15 436.47 266.53 432.73 266.60 C 431.23 262.27 429.98 257.86 428.49 253.54 C 427.39 250.51 427.29 246.61 424.26 244.74 C 419.89 242.26 414.70 242.98 409.91 243.15 C 408.27 243.54 406.10 241.14 407.83 239.90 C 410.87 236.70 415.80 234.06 415.27 228.91 C 415.20 220.71 417.69 212.12 414.71 204.19 C 412.22 198.03 405.09 195.92 398.99 195.88 C 391.37 195.86 382.75 197.53 377.76 203.83 M 262.45 490.49 C 256.20 494.21 251.22 500.64 250.62 508.05 C 249.68 515.38 252.57 523.12 258.43 527.71 C 267.36 535.07 279.24 537.02 288.89 543.12 C 292.63 545.35 295.37 549.65 294.77 554.11 C 294.32 557.90 292.83 562.59 288.54 563.42 C 280.80 565.14 272.20 564.84 265.12 560.93 C 263.80 556.26 262.41 551.58 261.82 546.75 C 257.88 546.57 253.94 546.66 250.02 547.00 C 249.91 553.39 249.86 559.79 249.88 566.19 C 257.53 571.38 266.86 573.25 275.93 573.94 C 285.43 574.45 295.58 573.13 303.52 567.50 C 314.58 560.19 315.54 542.11 305.20 533.78 C 297.32 527.08 287.01 524.64 278.06 519.83 C 275.20 518.19 272.34 516.33 270.40 513.62 C 266.98 508.89 267.34 502.11 270.37 497.30 C 277.36 492.91 287.44 493.00 294.21 497.82 C 295.83 502.74 296.12 507.99 297.02 513.08 C 300.60 513.34 304.19 513.40 307.77 513.26 C 308.68 507.14 310.38 501.15 311.00 495.00 C 310.27 490.94 305.96 489.66 302.68 488.24 C 289.82 483.38 274.45 483.21 262.45 490.49 M 346.12 487.11 C 339.30 489.50 332.77 493.83 329.41 500.41 C 324.75 508.92 326.62 520.47 333.98 526.88 C 341.96 533.95 352.64 536.44 361.99 541.11 C 365.49 542.93 369.08 545.35 370.64 549.14 C 371.84 553.32 371.09 558.13 368.46 561.63 C 365.83 563.82 362.20 564.07 358.93 564.32 C 353.16 564.53 346.94 564.16 341.96 560.94 C 339.76 556.55 339.31 551.43 338.11 546.68 C 334.33 546.61 330.54 546.68 326.76 546.95 C 326.52 553.33 325.81 559.87 326.66 566.19 C 334.21 571.67 343.85 573.25 352.96 573.97 C 363.44 574.42 375.11 572.70 382.86 564.98 C 390.92 557.18 391.04 542.85 382.98 535.01 C 373.97 526.17 360.65 524.51 350.61 517.29 C 346.08 514.23 343.37 508.42 344.74 503.01 C 345.25 500.54 345.83 497.50 348.37 496.32 C 355.39 493.05 363.88 493.54 370.59 497.38 C 372.01 502.44 372.85 507.65 373.28 512.89 C 376.84 513.40 380.45 513.40 384.04 513.31 C 385.35 507.57 386.58 501.79 387.34 495.95 C 387.61 494.23 386.39 492.79 385.77 491.30 C 373.82 484.78 359.14 482.75 346.12 487.11 M 420.11 488.07 C 412.42 491.21 405.51 497.59 403.88 506.01 C 402.20 513.65 404.78 522.15 410.82 527.23 C 419.43 534.62 430.95 536.79 440.63 542.32 C 444.50 544.45 448.00 548.30 447.72 553.00 C 447.58 557.09 446.19 562.48 441.53 563.37 C 433.80 565.16 425.17 564.86 418.11 560.93 C 416.74 556.27 415.43 551.57 414.77 546.74 C 410.85 546.57 406.93 546.66 403.02 547.00 C 402.82 553.39 402.94 559.79 402.84 566.19 C 409.14 570.44 416.64 572.51 424.11 573.43 C 432.43 574.62 441.09 574.18 449.06 571.41 C 455.51 569.09 461.48 564.47 463.98 557.93 C 466.71 550.36 465.52 541.12 459.74 535.26 C 450.35 525.75 435.94 524.52 425.75 516.23 C 420.66 512.18 419.73 504.72 422.37 499.03 C 423.25 496.21 426.50 495.53 429.01 494.90 C 435.05 493.46 442.14 493.93 447.16 497.87 C 448.81 502.77 449.08 508.01 450.00 513.07 C 453.57 513.34 457.15 513.40 460.73 513.26 C 461.65 507.15 463.31 501.15 464.00 495.01 C 463.49 492.76 461.87 490.93 459.75 490.08 C 447.60 484.09 432.74 482.83 420.11 488.07 M 476.80 486.90 C 476.16 494.28 476.17 501.72 476.58 509.11 C 476.77 510.03 476.45 511.74 477.93 511.71 C 481.22 512.23 484.58 512.01 487.91 512.01 C 489.08 506.74 490.38 501.50 491.34 496.19 C 496.47 495.61 501.63 495.28 506.79 495.26 C 506.92 517.54 507.34 539.86 505.94 562.11 C 502.39 563.42 498.74 564.44 495.10 565.43 C 495.51 567.58 495.90 569.74 496.24 571.91 C 508.80 572.12 521.36 571.94 533.92 572.00 C 534.49 569.82 534.92 567.61 535.11 565.37 C 531.08 564.10 524.60 563.50 524.26 558.13 C 523.25 544.79 523.79 531.40 523.66 518.04 C 523.78 510.43 523.40 502.82 523.87 495.23 C 528.94 495.24 534.01 495.63 539.07 496.06 C 540.18 501.11 541.49 506.13 542.18 511.26 C 545.70 512.01 549.31 512.00 552.89 511.66 C 553.30 504.79 554.40 497.98 554.63 491.10 C 554.38 489.10 552.74 487.62 551.80 485.92 C 526.83 487.57 501.80 486.70 476.80 486.90 M 562.33 487.05 C 561.95 489.08 561.57 491.12 561.13 493.15 C 565.17 494.87 572.28 495.24 572.14 501.06 C 573.14 509.67 572.84 518.36 572.89 527.01 C 572.85 538.69 573.12 550.42 571.81 562.04 C 568.57 563.67 564.87 564.33 561.35 565.19 C 561.58 567.43 561.91 569.67 562.29 571.91 C 586.22 572.12 610.16 571.94 634.10 572.00 C 634.30 563.96 634.32 555.94 634.10 547.91 C 630.43 547.62 626.75 547.62 623.07 547.68 C 621.62 552.52 621.05 557.65 619.25 562.35 C 610.07 563.41 600.35 564.36 591.35 561.69 C 590.63 559.56 590.08 557.35 590.08 555.10 C 590.00 548.26 589.42 541.44 589.70 534.60 C 598.81 535.14 607.94 535.18 617.07 535.31 C 617.65 532.50 618.14 529.68 618.68 526.87 C 617.62 525.97 616.76 524.24 615.09 524.66 C 606.61 524.75 598.17 525.48 589.70 525.66 C 589.47 517.42 590.18 509.20 590.15 500.96 C 590.45 499.35 589.64 496.40 591.98 496.10 C 600.46 494.59 609.09 495.60 617.61 496.26 C 618.65 501.01 619.36 505.84 620.35 510.61 C 623.71 511.56 627.32 510.98 630.78 511.05 C 631.60 504.27 633.20 497.62 634.08 490.85 C 633.71 488.89 632.09 487.49 631.05 485.88 C 608.18 487.63 585.23 486.47 562.33 487.05 M 197.96 486.89 C 197.45 488.98 197.00 491.07 196.59 493.19 C 199.94 494.41 203.66 495.07 206.52 497.33 C 208.71 502.23 207.76 507.81 207.99 513.02 C 208.40 523.33 208.58 533.67 208.00 543.98 C 207.75 550.03 208.46 556.24 207.16 562.17 C 203.79 563.56 200.22 564.38 196.70 565.34 C 196.97 567.57 197.37 569.81 197.94 572.00 C 210.48 571.93 223.04 572.13 235.58 571.90 C 235.97 569.79 236.37 567.70 236.84 565.62 C 233.33 564.15 228.76 563.90 226.37 560.64 C 224.65 552.55 225.23 544.20 225.11 535.99 C 225.24 522.78 224.63 509.52 226.16 496.37 C 229.75 495.50 233.27 494.36 236.79 493.25 C 236.10 491.26 236.59 488.47 235.08 487.00 C 222.71 486.73 210.33 486.97 197.96 486.89 Z" />
<path fill="#ffffff" opacity="1.00" d=" M 394.38 211.24 C 397.26 211.02 400.38 210.57 403.00 212.11 C 407.04 214.03 408.48 218.79 408.60 222.94 C 408.11 229.89 403.11 235.31 398.26 239.83 C 399.11 241.76 401.95 243.92 400.12 246.10 C 397.53 249.85 396.05 254.39 396.70 258.98 C 396.90 263.26 399.66 266.67 401.84 270.14 C 401.60 272.10 400.26 273.73 399.48 275.51 C 395.53 283.26 392.43 292.31 395.01 301.00 C 396.17 305.24 398.93 310.33 403.94 310.39 C 407.20 310.53 409.22 307.59 412.04 306.58 C 414.05 307.32 415.99 309.54 418.27 308.34 C 420.01 305.92 420.12 300.86 423.98 301.04 C 427.72 302.53 432.47 306.28 430.75 310.83 C 429.87 315.51 430.53 320.29 430.17 325.01 C 426.77 325.48 423.19 324.82 419.90 325.82 C 416.97 328.63 417.90 333.18 416.74 336.74 C 415.95 338.16 413.92 340.07 412.41 338.47 C 410.95 335.05 410.95 331.08 411.52 327.47 C 412.52 322.58 417.45 320.28 421.59 318.52 C 425.72 317.20 426.82 311.36 424.83 307.96 C 422.21 308.99 422.72 312.97 420.01 313.97 C 415.20 316.58 408.18 315.74 405.11 320.97 C 402.44 326.78 402.60 333.66 404.41 339.70 C 407.84 345.08 414.62 346.57 419.88 349.56 C 419.37 351.74 416.81 352.51 415.26 353.87 C 406.30 344.74 395.96 336.76 384.03 331.93 C 377.50 328.94 370.04 327.34 364.64 322.36 C 361.58 319.82 361.63 315.61 361.34 312.00 C 360.71 298.01 359.67 283.72 362.98 269.97 C 364.87 261.54 370.60 254.33 378.00 250.00 C 380.86 247.98 384.77 246.59 386.02 243.02 C 387.18 237.58 384.99 232.25 383.86 227.01 C 389.34 223.50 394.48 218.23 394.38 211.24 Z" />
<path fill="#ffffff" opacity="1.00" d=" M 418.54 255.00 C 419.93 255.30 421.71 254.92 422.76 256.11 C 423.62 258.32 423.99 260.67 424.50 262.98 C 422.91 265.06 420.41 267.15 421.00 270.08 C 421.27 272.39 423.81 273.40 425.83 273.68 C 430.66 274.66 435.47 273.25 440.12 272.06 C 438.45 276.03 435.83 279.93 431.89 281.90 C 427.95 283.56 422.08 281.11 419.70 285.74 C 418.48 290.26 420.14 295.16 418.85 299.66 C 414.64 300.33 410.27 300.16 406.06 299.56 C 402.03 298.88 400.87 294.29 400.54 290.84 C 400.15 285.28 404.25 281.06 406.83 276.57 C 409.28 272.40 412.65 268.05 411.51 262.89 C 415.51 262.26 418.75 259.25 418.54 255.00 Z" />
<path fill="#ffffff" opacity="1.00" d=" M 314.22 268.27 C 316.34 267.28 319.08 268.62 319.52 270.93 C 321.64 280.08 323.49 289.28 325.43 298.47 C 325.84 300.84 326.43 303.61 324.83 305.68 C 323.47 307.35 320.70 307.12 319.28 305.68 C 318.03 304.12 317.72 302.08 317.35 300.18 C 315.98 291.13 314.73 282.07 313.21 273.05 C 313.18 271.46 312.22 269.01 314.22 268.27 Z" />
<path fill="#ffffff" opacity="1.00" d=" M 526.83 277.03 C 527.42 273.53 528.93 268.98 532.94 268.30 C 536.10 268.57 536.80 272.36 536.80 274.95 C 537.17 289.13 536.71 303.32 537.77 317.48 C 538.48 324.74 536.63 332.00 533.37 338.46 C 527.64 350.12 523.06 362.34 516.79 373.73 C 513.66 379.67 507.50 382.85 501.69 385.61 C 473.53 400.19 442.91 410.32 417.12 429.19 C 415.42 431.00 413.51 428.79 412.00 427.91 C 384.19 408.08 351.08 398.09 321.48 381.49 C 315.11 377.58 312.21 370.39 309.11 363.95 C 305.17 355.22 301.30 346.45 297.13 337.82 C 294.47 332.37 292.71 326.23 293.61 320.14 C 295.59 306.16 295.87 292.03 296.42 277.96 C 296.55 274.49 297.59 269.49 301.80 269.15 C 304.51 270.14 305.54 273.22 305.82 275.85 C 307.56 290.52 309.22 305.21 311.53 319.82 C 312.57 325.88 313.58 332.10 316.40 337.65 C 320.78 346.20 328.41 352.71 336.81 357.16 C 342.63 360.30 348.29 364.15 354.86 365.53 C 357.42 366.26 360.65 365.24 361.55 362.54 C 362.88 360.00 360.63 357.51 358.60 356.25 C 349.65 350.56 339.85 346.15 331.56 339.48 C 327.24 335.96 325.85 330.28 325.21 325.00 C 324.90 323.36 326.09 321.35 327.97 321.66 C 330.90 322.02 333.55 323.44 336.15 324.77 C 355.86 335.19 376.83 343.24 395.71 355.19 C 408.60 365.37 413.86 382.41 415.46 398.18 C 416.71 385.44 420.51 372.59 428.17 362.19 C 432.54 356.35 438.85 352.51 445.24 349.25 C 460.60 340.94 476.61 333.93 492.22 326.10 C 496.26 324.09 500.32 321.24 505.07 321.77 C 506.23 325.99 504.87 330.47 503.26 334.40 C 499.02 341.90 490.54 345.13 483.62 349.57 C 479.19 352.54 473.93 354.34 470.11 358.16 C 467.56 360.41 469.58 364.67 472.47 365.49 C 475.08 366.12 477.75 365.22 480.20 364.34 C 485.96 362.02 491.24 358.70 496.64 355.67 C 506.65 349.93 515.08 340.53 517.55 329.04 C 521.31 311.83 524.48 294.48 526.83 277.03 Z" />
<path fill="#ffffff" opacity="1.00" d=" M 513.29 269.29 C 514.94 268.52 517.95 268.23 517.49 270.97 C 516.11 281.01 514.27 290.99 512.54 300.98 C 512.22 303.45 510.70 306.11 507.96 306.35 C 505.29 305.96 505.98 302.76 506.19 300.87 C 507.52 292.87 509.19 284.94 510.72 276.98 C 511.31 274.37 511.34 271.34 513.29 269.29 Z" />
<path fill="#ffffff" opacity="1.00" d=" M 329.47 286.94 C 329.00 285.41 330.27 283.66 331.94 284.15 C 334.97 284.91 334.74 288.64 335.18 291.06 C 335.75 297.18 337.55 303.10 338.06 309.22 C 335.55 310.42 332.59 308.80 332.38 305.98 C 331.47 299.63 330.41 293.29 329.47 286.94 Z" />
<path fill="#ffffff" opacity="1.00" d=" M 497.49 284.29 C 498.82 282.17 500.88 284.24 500.55 286.13 C 500.23 291.78 499.84 297.45 499.50 303.11 C 499.33 305.95 498.34 309.45 495.07 310.00 C 491.27 308.67 493.24 303.76 493.44 300.85 C 494.78 295.36 494.06 289.07 497.49 284.29 Z" />
<path fill="#ffffff" opacity="1.00" d=" M 344.21 296.12 C 345.41 296.28 347.06 295.88 347.65 297.32 C 349.41 301.30 349.59 305.78 350.70 309.96 C 350.79 311.69 352.20 314.10 350.34 315.35 C 348.60 317.01 346.11 314.85 346.01 312.90 C 345.04 307.38 343.02 301.74 344.21 296.12 Z" />
<path fill="#ffffff" opacity="1.00" d=" M 482.25 298.10 C 482.67 296.32 484.67 296.10 486.15 295.81 C 486.40 300.23 485.79 304.64 485.66 309.06 C 485.47 311.38 485.55 314.07 483.77 315.85 C 480.73 317.08 479.24 313.50 479.58 311.04 C 480.15 306.68 481.03 302.32 482.25 298.10 Z" />
</g>
<g id="#ca9656ff">
<path fill="#ca9656" opacity="1.00" d=" M 352.15 91.96 C 352.57 90.26 353.51 90.05 354.96 91.35 C 354.08 91.86 353.14 92.07 352.15 91.96 Z" />
<path fill="#ca9656" opacity="1.00" d=" M 347.30 92.07 L 348.32 91.71 L 349.08 92.25 C 348.58 92.42 347.59 92.77 347.09 92.95 L 347.30 92.07 Z" />
<path fill="#ca9656" opacity="1.00" d=" M 478.10 92.25 C 479.56 91.01 480.49 91.24 480.88 92.95 C 479.87 93.04 478.94 92.81 478.10 92.25 Z" />
<path fill="#ca9656" opacity="1.00" d=" M 342.18 94.01 C 342.49 92.29 343.40 92.02 344.90 93.21 C 344.09 93.82 343.18 94.09 342.18 94.01 Z" />
<path fill="#ca9656" opacity="1.00" d=" M 483.12 93.17 C 484.61 91.99 485.53 92.26 485.86 93.97 C 484.84 94.05 483.93 93.78 483.12 93.17 Z" />
<path fill="#ca9656" opacity="1.00" d=" M 488.07 94.29 C 489.52 93.03 490.45 93.25 490.86 94.95 C 489.84 95.06 488.91 94.84 488.07 94.29 Z" />
<path fill="#ca9656" opacity="1.00" d=" M 333.13 95.96 C 333.51 94.25 334.44 94.01 335.93 95.24 C 335.07 95.80 334.14 96.04 333.13 95.96 Z" />
<path fill="#ca9656" opacity="1.00" d=" M 492.10 95.22 C 493.59 94.02 494.52 94.27 494.90 95.98 C 493.87 96.05 492.94 95.80 492.10 95.22 Z" />
<path fill="#ca9656" opacity="1.00" d=" M 329.11 96.97 C 329.48 95.26 330.41 95.01 331.91 96.22 C 331.06 96.79 330.13 97.04 329.11 96.97 Z" />
<path fill="#ca9656" opacity="1.00" d=" M 496.10 96.22 C 497.59 95.02 498.53 95.27 498.90 96.98 C 497.87 97.05 496.94 96.80 496.10 96.22 Z" />
<path fill="#ca9656" opacity="1.00" d=" M 325.14 97.97 C 325.53 96.27 326.46 96.03 327.94 97.28 C 327.08 97.83 326.14 98.06 325.14 97.97 Z" />
<path fill="#ca9656" opacity="1.00" d=" M 500.20 97.34 C 501.56 95.81 505.66 96.78 505.54 98.87 C 503.67 98.69 501.85 98.22 500.20 97.34 Z" />
<path fill="#ca9656" opacity="1.00" d=" M 322.24 98.04 L 323.26 97.66 L 324.03 98.18 C 323.53 98.36 322.54 98.73 322.04 98.92 L 322.24 98.04 Z" />
<path fill="#ca9656" opacity="1.00" d=" M 315.37 100.91 C 315.32 98.80 319.31 97.89 320.76 99.30 C 319.09 100.21 317.26 100.77 315.37 100.91 Z" />
<path fill="#ca9656" opacity="1.00" d=" M 312.24 101.05 L 313.25 100.63 L 314.03 101.14 C 313.54 101.34 312.56 101.74 312.07 101.94 L 312.24 101.05 Z" />
<path fill="#ca9656" opacity="1.00" d=" M 309.17 102.06 L 310.14 101.58 L 310.95 102.02 C 310.47 102.25 309.53 102.72 309.05 102.96 L 309.17 102.06 Z" />
<path fill="#ca9656" opacity="1.00" d=" M 516.96 102.17 L 517.74 101.63 L 518.76 102.01 L 518.95 102.90 C 518.46 102.72 517.46 102.36 516.96 102.17 Z" />
<path fill="#ca9656" opacity="1.00" d=" M 306.16 103.09 L 307.12 102.59 L 307.94 103.02 C 307.47 103.27 306.53 103.75 306.06 104.00 L 306.16 103.09 Z" />
<path fill="#ca9656" opacity="1.00" d=" M 520.01 103.05 L 520.80 102.58 L 521.79 103.02 L 521.94 103.92 C 521.46 103.70 520.49 103.27 520.01 103.05 Z" />
<path fill="#ca9656" opacity="1.00" d=" M 523.09 104.04 L 523.90 103.61 L 524.86 104.11 L 524.97 105.01 C 524.50 104.77 523.56 104.29 523.09 104.04 Z" />
<path fill="#ca9656" opacity="1.00" d=" M 271.37 117.30 C 273.97 116.07 276.42 114.25 279.40 114.16 C 272.71 117.43 265.89 120.45 259.30 123.95 C 249.55 128.88 240.33 134.77 230.90 140.27 C 232.79 137.83 235.81 136.81 238.25 135.07 C 248.63 127.96 260.24 123.05 271.37 117.30 Z" />
<path fill="#ca9656" opacity="1.00" d=" M 561.58 120.16 C 564.10 119.89 565.98 121.74 568.00 122.91 C 571.38 125.01 575.29 126.09 578.59 128.35 C 584.72 132.33 591.82 135.06 597.08 140.25 C 585.44 133.20 573.73 126.28 561.58 120.16 Z" />
<path fill="#ca9656" opacity="1.00" d=" M 228.15 141.27 L 229.05 140.66 L 229.92 141.00 C 229.48 141.30 228.60 141.88 228.16 142.18 L 228.15 141.27 Z" />
<path fill="#ca9656" opacity="1.00" d=" M 598.08 141.01 L 598.94 140.64 L 599.86 141.22 L 599.88 142.13 C 599.43 141.85 598.53 141.29 598.08 141.01 Z" />
<path fill="#ca9656" opacity="1.00" d=" M 225.16 143.28 L 226.04 142.65 L 226.90 142.97 C 226.48 143.28 225.62 143.90 225.19 144.20 L 225.16 143.28 Z" />
<path fill="#ca9656" opacity="1.00" d=" M 601.07 142.97 L 601.93 142.63 L 602.83 143.25 L 602.81 144.17 C 602.37 143.87 601.50 143.27 601.07 142.97 Z" />
<path fill="#ca9656" opacity="1.00" d=" M 217.86 149.29 C 219.10 146.79 221.67 145.49 224.25 144.82 C 222.20 146.42 220.08 147.93 217.86 149.29 Z" />
<path fill="#ca9656" opacity="1.00" d=" M 603.85 144.81 C 607.60 145.76 610.48 148.66 613.10 151.36 C 609.82 149.45 606.82 147.14 603.85 144.81 Z" />
<path fill="#ca9656" opacity="1.00" d=" M 377.76 203.83 C 382.75 197.53 391.37 195.86 398.99 195.88 C 405.09 195.92 412.22 198.03 414.71 204.19 C 417.69 212.12 415.20 220.71 415.27 228.91 C 415.80 234.06 410.87 236.70 407.83 239.90 C 406.10 241.14 408.27 243.54 409.91 243.15 C 414.70 242.98 419.89 242.26 424.26 244.74 C 427.29 246.61 427.39 250.51 428.49 253.54 C 429.98 257.86 431.23 262.27 432.73 266.60 C 436.47 266.53 439.67 264.15 443.14 263.01 C 447.01 261.38 452.06 264.76 451.79 269.01 C 451.64 272.01 449.43 274.32 447.70 276.59 C 442.45 282.54 436.90 288.32 430.34 292.84 C 433.29 295.97 436.18 299.54 436.91 303.91 C 437.58 308.25 437.33 312.66 437.35 317.03 C 437.22 322.06 437.99 327.08 437.58 332.11 C 433.76 332.19 429.26 331.28 426.18 334.14 C 423.65 336.78 423.19 340.83 423.68 344.31 C 425.05 343.89 426.46 343.51 427.74 342.84 C 440.95 335.62 454.70 329.40 467.70 321.79 C 468.82 321.23 469.65 320.18 469.68 318.89 C 471.08 306.29 472.38 293.66 472.82 280.98 C 472.62 275.10 472.44 268.76 469.26 263.60 C 466.63 259.20 460.71 258.45 458.11 254.05 C 453.53 246.47 450.35 238.07 445.10 230.89 C 442.99 228.20 440.47 225.44 436.96 224.73 C 434.06 223.35 430.83 226.10 430.77 229.07 C 430.46 233.35 431.10 237.91 433.42 241.60 C 434.69 243.58 437.93 244.96 436.86 247.79 C 435.46 250.47 432.45 248.48 430.72 247.29 C 424.60 243.36 422.15 235.98 421.31 229.10 C 420.10 222.71 422.47 215.57 427.94 211.82 C 433.22 207.84 441.18 205.83 447.00 209.82 C 457.45 216.58 466.50 226.93 468.53 239.54 C 470.00 242.21 473.08 243.62 475.01 245.99 C 483.18 254.35 485.78 267.04 483.05 278.23 C 491.58 270.04 499.95 261.68 508.32 253.31 C 512.66 248.93 518.39 244.87 524.89 245.69 C 528.83 245.68 531.75 248.46 534.99 250.23 C 537.97 250.14 541.04 248.54 543.95 249.88 C 548.32 251.64 550.49 256.54 550.41 261.04 C 550.97 275.69 550.98 290.37 551.44 305.03 C 551.83 310.99 551.70 316.97 551.73 322.95 C 551.66 332.03 549.08 340.96 544.92 348.99 C 538.34 361.25 532.70 374.03 528.27 387.22 C 526.40 392.51 522.35 396.88 517.41 399.47 C 512.25 402.22 506.65 404.00 501.33 406.39 C 472.04 419.05 443.01 432.79 416.62 450.87 C 415.32 452.29 413.78 451.05 412.55 450.31 C 386.75 432.73 358.36 419.40 329.63 407.37 C 319.79 402.73 308.38 398.28 303.16 388.00 C 296.63 374.50 290.84 360.65 285.25 346.73 C 282.23 338.80 278.53 330.71 278.96 322.02 C 279.50 299.61 282.05 277.33 283.78 254.99 C 283.83 251.59 285.97 248.33 289.12 247.02 C 292.24 245.45 295.72 246.54 298.89 247.27 C 304.13 240.10 315.64 241.63 320.90 248.00 C 329.34 258.23 338.29 268.03 347.12 277.93 C 348.18 279.15 349.39 280.25 350.66 281.27 C 351.03 271.75 351.21 261.62 356.12 253.15 C 360.08 246.42 366.74 241.90 373.65 238.60 C 377.31 236.73 374.92 232.05 374.53 229.02 C 371.66 220.73 372.24 210.91 377.76 203.83 M 394.38 211.24 C 394.48 218.23 389.34 223.50 383.86 227.01 C 384.99 232.25 387.18 237.58 386.02 243.02 C 384.77 246.59 380.86 247.98 378.00 250.00 C 370.60 254.33 364.87 261.54 362.98 269.97 C 359.67 283.72 360.71 298.01 361.34 312.00 C 361.63 315.61 361.58 319.82 364.64 322.36 C 370.04 327.34 377.50 328.94 384.03 331.93 C 395.96 336.76 406.30 344.74 415.26 353.87 C 416.81 352.51 419.37 351.74 419.88 349.56 C 414.62 346.57 407.84 345.08 404.41 339.70 C 402.60 333.66 402.44 326.78 405.11 320.97 C 408.18 315.74 415.20 316.58 420.01 313.97 C 422.72 312.97 422.21 308.99 424.83 307.96 C 426.82 311.36 425.72 317.20 421.59 318.52 C 417.45 320.28 412.52 322.58 411.52 327.47 C 410.95 331.08 410.95 335.05 412.41 338.47 C 413.92 340.07 415.95 338.16 416.74 336.74 C 417.90 333.18 416.97 328.63 419.90 325.82 C 423.19 324.82 426.77 325.48 430.17 325.01 C 430.53 320.29 429.87 315.51 430.75 310.83 C 432.47 306.28 427.72 302.53 423.98 301.04 C 420.12 300.86 420.01 305.92 418.27 308.34 C 415.99 309.54 414.05 307.32 412.04 306.58 C 409.22 307.59 407.20 310.53 403.94 310.39 C 398.93 310.33 396.17 305.24 395.01 301.00 C 392.43 292.31 395.53 283.26 399.48 275.51 C 400.26 273.73 401.60 272.10 401.84 270.14 C 399.66 266.67 396.90 263.26 396.70 258.98 C 396.05 254.39 397.53 249.85 400.12 246.10 C 401.95 243.92 399.11 241.76 398.26 239.83 C 403.11 235.31 408.11 229.89 408.60 222.94 C 408.48 218.79 407.04 214.03 403.00 212.11 C 400.38 210.57 397.26 211.02 394.38 211.24 M 418.54 255.00 C 418.75 259.25 415.51 262.26 411.51 262.89 C 412.65 268.05 409.28 272.40 406.83 276.57 C 404.25 281.06 400.15 285.28 400.54 290.84 C 400.87 294.29 402.03 298.88 406.06 299.56 C 410.27 300.16 414.64 300.33 418.85 299.66 C 420.14 295.16 418.48 290.26 419.70 285.74 C 422.08 281.11 427.95 283.56 431.89 281.90 C 435.83 279.93 438.45 276.03 440.12 272.06 C 435.47 273.25 430.66 274.66 425.83 273.68 C 423.81 273.40 421.27 272.39 421.00 270.08 C 420.41 267.15 422.91 265.06 424.50 262.98 C 423.99 260.67 423.62 258.32 422.76 256.11 C 421.71 254.92 419.93 255.30 418.54 255.00 M 314.22 268.27 C 312.22 269.01 313.18 271.46 313.21 273.05 C 314.73 282.07 315.98 291.13 317.35 300.18 C 317.72 302.08 318.03 304.12 319.28 305.68 C 320.70 307.12 323.47 307.35 324.83 305.68 C 326.43 303.61 325.84 300.84 325.43 298.47 C 323.49 289.28 321.64 280.08 319.52 270.93 C 319.08 268.62 316.34 267.28 314.22 268.27 M 526.83 277.03 C 524.48 294.48 521.31 311.83 517.55 329.04 C 515.08 340.53 506.65 349.93 496.64 355.67 C 491.24 358.70 485.96 362.02 480.20 364.34 C 477.75 365.22 475.08 366.12 472.47 365.49 C 469.58 364.67 467.56 360.41 470.11 358.16 C 473.93 354.34 479.19 352.54 483.62 349.57 C 490.54 345.13 499.02 341.90 503.26 334.40 C 504.87 330.47 506.23 325.99 505.07 321.77 C 500.32 321.24 496.26 324.09 492.22 326.10 C 476.61 333.93 460.60 340.94 445.24 349.25 C 438.85 352.51 432.54 356.35 428.17 362.19 C 420.51 372.59 416.71 385.44 415.46 398.18 C 413.86 382.41 408.60 365.37 395.71 355.19 C 376.83 343.24 355.86 335.19 336.15 324.77 C 333.55 323.44 330.90 322.02 327.97 321.66 C 326.09 321.35 324.90 323.36 325.21 325.00 C 325.85 330.28 327.24 335.96 331.56 339.48 C 339.85 346.15 349.65 350.56 358.60 356.25 C 360.63 357.51 362.88 360.00 361.55 362.54 C 360.65 365.24 357.42 366.26 354.86 365.53 C 348.29 364.15 342.63 360.30 336.81 357.16 C 328.41 352.71 320.78 346.20 316.40 337.65 C 313.58 332.10 312.57 325.88 311.53 319.82 C 309.22 305.21 307.56 290.52 305.82 275.85 C 305.54 273.22 304.51 270.14 301.80 269.15 C 297.59 269.49 296.55 274.49 296.42 277.96 C 295.87 292.03 295.59 306.16 293.61 320.14 C 292.71 326.23 294.47 332.37 297.13 337.82 C 301.30 346.45 305.17 355.22 309.11 363.95 C 312.21 370.39 315.11 377.58 321.48 381.49 C 351.08 398.09 384.19 408.08 412.00 427.91 C 413.51 428.79 415.42 431.00 417.12 429.19 C 442.91 410.32 473.53 400.19 501.69 385.61 C 507.50 382.85 513.66 379.67 516.79 373.73 C 523.06 362.34 527.64 350.12 533.37 338.46 C 536.63 332.00 538.48 324.74 537.77 317.48 C 536.71 303.32 537.17 289.13 536.80 274.95 C 536.80 272.36 536.10 268.57 532.94 268.30 C 528.93 268.98 527.42 273.53 526.83 277.03 M 513.29 269.29 C 511.34 271.34 511.31 274.37 510.72 276.98 C 509.19 284.94 507.52 292.87 506.19 300.87 C 505.98 302.76 505.29 305.96 507.96 306.35 C 510.70 306.11 512.22 303.45 512.54 300.98 C 514.27 290.99 516.11 281.01 517.49 270.97 C 517.95 268.23 514.94 268.52 513.29 269.29 M 329.47 286.94 C 330.41 293.29 331.47 299.63 332.38 305.98 C 332.59 308.80 335.55 310.42 338.06 309.22 C 337.55 303.10 335.75 297.18 335.18 291.06 C 334.74 288.64 334.97 284.91 331.94 284.15 C 330.27 283.66 329.00 285.41 329.47 286.94 M 497.49 284.29 C 494.06 289.07 494.78 295.36 493.44 300.85 C 493.24 303.76 491.27 308.67 495.07 310.00 C 498.34 309.45 499.33 305.95 499.50 303.11 C 499.84 297.45 500.23 291.78 500.55 286.13 C 500.88 284.24 498.82 282.17 497.49 284.29 M 344.21 296.12 C 343.02 301.74 345.04 307.38 346.01 312.90 C 346.11 314.85 348.60 317.01 350.34 315.35 C 352.20 314.10 350.79 311.69 350.70 309.96 C 349.59 305.78 349.41 301.30 347.65 297.32 C 347.06 295.88 345.41 296.28 344.21 296.12 M 482.25 298.10 C 481.03 302.32 480.15 306.68 479.58 311.04 C 479.24 313.50 480.73 317.08 483.77 315.85 C 485.55 314.07 485.47 311.38 485.66 309.06 C 485.79 304.64 486.40 300.23 486.15 295.81 C 484.67 296.10 482.67 296.32 482.25 298.10 Z" />
<path fill="#ca9656" opacity="1.00" d=" M 671.98 206.92 C 673.81 208.26 676.01 209.64 676.10 212.19 C 674.66 210.48 673.24 208.76 671.98 206.92 Z" />
<path fill="#ca9656" opacity="1.00" d=" M 676.96 213.39 C 678.79 212.24 681.24 215.34 679.80 216.93 C 678.66 215.91 677.73 214.70 676.96 213.39 Z" />
<path fill="#ca9656" opacity="1.00" d=" M 680.86 218.26 C 682.36 217.11 684.23 219.83 682.84 220.97 C 681.95 220.24 681.29 219.30 680.86 218.26 Z" />
<path fill="#ca9656" opacity="1.00" d=" M 683.85 222.25 C 685.36 221.12 687.23 223.82 685.85 224.97 C 684.94 224.25 684.31 223.29 683.85 222.25 Z" />
<path fill="#ca9656" opacity="1.00" d=" M 686.73 225.93 C 692.64 231.74 696.29 239.33 700.86 246.16 C 706.04 254.52 710.89 263.09 715.02 272.03 C 716.65 275.81 719.61 279.18 719.86 283.45 C 716.95 277.68 714.28 271.80 711.27 266.08 C 704.05 252.13 695.47 238.96 686.73 225.93 Z" />
<path fill="#ca9656" opacity="1.00" d=" M 123.84 253.09 C 124.88 249.66 126.31 246.02 129.36 243.88 C 127.69 247.05 125.78 250.08 123.84 253.09 Z" />
<path fill="#ca9656" opacity="1.00" d=" M 122.44 254.46 L 123.36 253.89 C 114.98 268.88 107.53 284.36 101.12 300.29 C 101.35 298.59 101.65 296.87 102.40 295.31 C 104.97 289.76 107.29 284.09 109.63 278.44 C 113.71 270.34 117.68 262.17 122.44 254.46 Z" />
<path fill="#ca9656" opacity="1.00" d=" M 95.34 316.84 C 93.75 315.65 94.79 311.69 96.92 312.37 C 96.63 313.94 96.02 315.41 95.34 316.84 Z" />
<path fill="#ca9656" opacity="1.00" d=" M 94.04 318.17 L 94.93 318.00 C 94.73 318.49 94.32 319.47 94.12 319.96 L 93.62 319.17 L 94.04 318.17 Z" />
<path fill="#ca9656" opacity="1.00" d=" M 91.08 330.33 C 91.21 326.94 92.32 323.68 93.87 320.70 C 93.13 323.96 92.22 327.18 91.08 330.33 Z" />
<path fill="#ca9656" opacity="1.00" d=" M 734.01 321.08 L 734.91 321.19 L 735.40 322.15 L 734.94 322.97 C 734.71 322.50 734.24 321.55 734.01 321.08 Z" />
<path fill="#ca9656" opacity="1.00" d=" M 735.15 324.35 C 737.23 324.41 738.16 328.35 736.67 329.79 C 735.78 328.10 735.28 326.25 735.15 324.35 Z" />
<path fill="#ca9656" opacity="1.00" d=" M 89.07 337.89 C 87.95 336.33 88.25 335.42 89.98 335.17 C 90.00 336.18 89.70 337.09 89.07 337.89 Z" />
<path fill="#ca9656" opacity="1.00" d=" M 88.09 341.88 C 86.95 340.35 87.24 339.43 88.95 339.13 C 89.00 340.14 88.71 341.06 88.09 341.88 Z" />
<path fill="#ca9656" opacity="1.00" d=" M 87.08 345.90 C 85.93 344.36 86.22 343.45 87.94 343.16 C 87.98 344.17 87.70 345.08 87.08 345.90 Z" />
<path fill="#ca9656" opacity="1.00" d=" M 86.28 349.93 C 85.03 348.43 85.26 347.50 86.97 347.14 C 87.05 348.14 86.81 349.07 86.28 349.93 Z" />
<path fill="#ca9656" opacity="1.00" d=" M 741.00 347.18 C 742.72 347.47 742.99 348.38 741.83 349.91 C 741.22 349.09 740.94 348.18 741.00 347.18 Z" />
<path fill="#ca9656" opacity="1.00" d=" M 81.39 378.02 C 80.09 376.56 80.29 375.61 81.98 375.18 C 82.09 376.18 81.89 377.13 81.39 378.02 Z" />
<path fill="#ca9656" opacity="1.00" d=" M 748.13 392.61 C 749.74 395.14 748.75 398.32 748.84 401.14 C 748.57 398.30 748.27 395.46 748.13 392.61 Z" />
<path fill="#ca9656" opacity="1.00" d=" M 748.10 449.98 C 748.24 447.26 748.63 444.57 748.86 441.86 C 749.04 444.54 749.04 447.24 748.99 449.93 L 748.10 449.98 Z" />
<path fill="#ca9656" opacity="1.00" d=" M 747.06 460.75 C 746.99 458.91 747.31 457.09 747.70 455.31 C 748.99 456.59 749.28 460.54 747.06 460.75 Z" />
<path fill="#ca9656" opacity="1.00" d=" M 745.86 469.59 C 745.85 467.78 746.22 466.01 746.70 464.27 C 748.02 465.55 748.05 469.50 745.86 469.59 Z" />
<path fill="#ca9656" opacity="1.00" d=" M 744.00 480.96 C 744.16 480.45 744.49 479.45 744.65 478.95 L 745.22 479.70 L 744.89 480.73 L 744.00 480.96 Z" />
<path fill="#ca9656" opacity="1.00" d=" M 86.19 493.12 C 86.79 493.94 87.07 494.85 87.02 495.87 C 85.30 495.56 85.02 494.65 86.19 493.12 Z" />
<path fill="#ca9656" opacity="1.00" d=" M 740.04 500.87 C 739.92 499.86 740.13 498.93 740.69 498.08 C 741.94 499.53 741.72 500.46 740.04 500.87 Z" />
<path fill="#ca9656" opacity="1.00" d=" M 739.04 504.86 C 738.95 503.83 739.20 502.90 739.79 502.07 C 740.99 503.54 740.74 504.47 739.04 504.86 Z" />
<path fill="#ca9656" opacity="1.00" d=" M 737.16 511.60 C 737.32 509.71 737.78 507.87 738.65 506.18 C 740.16 507.56 739.25 511.62 737.16 511.60 Z" />
<path fill="#ca9656" opacity="1.00" d=" M 90.23 509.93 C 90.39 510.43 90.73 511.44 90.89 511.94 L 90.02 511.72 L 89.67 510.69 L 90.23 509.93 Z" />
<path fill="#ca9656" opacity="1.00" d=" M 91.30 513.21 C 92.20 514.89 92.75 516.73 92.85 518.64 C 90.79 518.60 89.85 514.65 91.30 513.21 Z" />
<path fill="#ca9656" opacity="1.00" d=" M 736.00 515.87 C 735.95 514.85 736.24 513.93 736.86 513.12 C 738.00 514.64 737.71 515.56 736.00 515.87 Z" />
<path fill="#ca9656" opacity="1.00" d=" M 735.04 518.99 C 735.25 518.50 735.65 517.52 735.86 517.04 L 736.35 517.82 L 735.93 518.82 L 735.04 518.99 Z" />
<path fill="#ca9656" opacity="1.00" d=" M 93.06 520.07 C 93.30 520.53 93.78 521.47 94.03 521.94 L 93.12 521.85 L 92.62 520.89 L 93.06 520.07 Z" />
<path fill="#ca9656" opacity="1.00" d=" M 733.07 525.60 C 733.20 523.71 733.75 521.90 734.68 520.26 C 736.15 521.67 735.15 525.62 733.07 525.60 Z" />
<path fill="#ca9656" opacity="1.00" d=" M 731.99 528.87 C 732.19 528.38 732.59 527.40 732.79 526.91 L 733.30 527.69 L 732.89 528.69 L 731.99 528.87 Z" />
<path fill="#ca9656" opacity="1.00" d=" M 729.08 537.23 C 729.85 534.64 730.78 532.10 731.77 529.58 C 731.68 532.35 730.81 535.05 729.08 537.23 Z" />
<path fill="#ca9656" opacity="1.00" d=" M 728.05 539.98 C 728.24 539.48 728.62 538.50 728.80 538.00 L 729.33 538.78 L 728.94 539.79 L 728.05 539.98 Z" />
<path fill="#ca9656" opacity="1.00" d=" M 726.01 544.69 C 726.31 543.36 726.85 542.11 727.57 540.96 C 729.13 541.99 727.93 545.58 726.01 544.69 Z" />
<path fill="#ca9656" opacity="1.00" d=" M 102.15 545.59 C 107.69 558.70 113.78 571.57 120.46 584.16 C 118.16 582.87 117.53 580.14 116.36 577.98 C 113.63 571.67 109.86 565.86 107.53 559.39 C 105.70 554.81 102.81 550.55 102.15 545.59 Z" />
<path fill="#ca9656" opacity="1.00" d=" M 724.03 549.63 C 724.30 548.31 724.88 547.10 725.58 545.96 C 727.16 546.96 725.93 550.58 724.03 549.63 Z" />
<path fill="#ca9656" opacity="1.00" d=" M 721.00 557.16 C 721.87 554.92 722.84 552.72 723.77 550.51 C 724.00 553.08 722.77 555.40 721.00 557.16 Z" />
<path fill="#ca9656" opacity="1.00" d=" M 700.63 596.17 C 707.92 583.61 714.70 570.76 720.81 557.58 C 720.66 561.62 717.84 564.82 716.30 568.40 C 713.03 574.44 710.66 580.97 706.79 586.69 C 704.79 589.84 703.67 593.82 700.63 596.17 Z" />
<path fill="#ca9656" opacity="1.00" d=" M 120.87 584.89 C 122.13 586.94 123.31 589.03 124.43 591.17 C 121.98 590.05 121.65 587.15 120.87 584.89 Z" />
<path fill="#ca9656" opacity="1.00" d=" M 134.83 607.78 C 139.94 614.91 145.19 621.95 150.28 629.10 C 147.39 627.51 146.21 624.22 144.12 621.84 C 140.80 617.34 136.73 613.10 134.83 607.78 Z" />
<path fill="#ca9656" opacity="1.00" d=" M 691.89 609.86 C 692.16 609.41 692.70 608.50 692.98 608.04 L 693.36 608.89 L 692.80 609.83 L 691.89 609.86 Z" />
<path fill="#ca9656" opacity="1.00" d=" M 689.80 612.84 C 690.08 612.40 690.64 611.50 690.92 611.05 L 691.29 611.90 L 690.72 612.82 L 689.80 612.84 Z" />
<path fill="#ca9656" opacity="1.00" d=" M 686.91 616.70 C 687.31 615.63 687.97 614.71 688.87 614.01 C 690.25 615.14 688.40 617.86 686.91 616.70 Z" />
<path fill="#ca9656" opacity="1.00" d=" M 684.76 619.81 C 685.07 619.38 685.69 618.53 686.01 618.10 L 686.32 618.97 L 685.68 619.85 L 684.76 619.81 Z" />
<path fill="#ca9656" opacity="1.00" d=" M 651.89 657.89 C 663.64 646.48 673.91 633.68 684.06 620.85 C 679.33 629.46 672.34 636.58 666.06 644.07 C 660.10 651.50 652.54 657.40 646.24 664.52 C 641.93 668.60 637.88 673.15 632.66 676.09 C 639.18 670.14 645.75 664.25 651.89 657.89 Z" />
<path fill="#ca9656" opacity="1.00" d=" M 628.15 679.74 C 629.22 678.38 630.60 677.33 632.09 676.48 C 633.05 678.39 629.91 681.13 628.15 679.74 Z" />
<path fill="#ca9656" opacity="1.00" d=" M 201.41 680.99 C 202.72 681.71 203.89 682.67 204.91 683.78 C 203.37 685.28 200.23 682.79 201.41 680.99 Z" />
<path fill="#ca9656" opacity="1.00" d=" M 206.39 685.00 C 207.69 685.76 208.91 686.65 209.92 687.78 C 208.38 689.27 205.20 686.81 206.39 685.00 Z" />
<path fill="#ca9656" opacity="1.00" d=" M 211.26 688.80 C 212.31 689.24 213.24 689.93 213.96 690.83 C 212.79 692.17 210.10 690.29 211.26 688.80 Z" />
<path fill="#ca9656" opacity="1.00" d=" M 614.04 690.86 C 614.74 689.97 615.63 689.25 616.70 688.84 C 617.90 690.31 615.20 692.19 614.04 690.86 Z" />
<path fill="#ca9656" opacity="1.00" d=" M 215.29 691.85 C 216.34 692.27 217.27 692.95 217.97 693.86 C 216.81 695.19 214.11 693.34 215.29 691.85 Z" />
<path fill="#ca9656" opacity="1.00" d=" M 606.85 696.16 C 608.86 694.59 610.96 693.15 613.08 691.74 C 611.91 694.23 609.32 695.38 606.85 696.16 Z" />
<path fill="#ca9656" opacity="1.00" d=" M 219.18 694.79 C 219.62 695.08 220.50 695.67 220.94 695.97 L 220.07 696.31 L 219.17 695.70 L 219.18 694.79 Z" />
<path fill="#ca9656" opacity="1.00" d=" M 558.26 724.41 C 574.97 716.59 590.76 706.98 606.07 696.72 C 604.76 699.20 602.01 700.24 599.87 701.82 C 592.67 706.30 585.54 710.90 578.16 715.07 C 573.16 717.19 568.85 720.60 563.86 722.74 C 557.36 725.63 550.90 728.60 544.36 731.38 C 542.84 732.13 541.27 732.85 539.55 732.85 C 545.72 729.88 552.14 727.47 558.26 724.41 Z" />
<path fill="#ca9656" opacity="1.00" d=" M 233.94 704.71 C 241.40 709.00 248.66 713.65 256.32 717.60 C 271.73 725.96 287.95 732.68 304.36 738.79 C 299.98 738.49 296.22 735.96 292.06 734.80 C 274.71 727.96 257.69 720.12 241.86 710.21 C 239.19 708.43 235.90 707.37 233.94 704.71 Z" />
<path fill="#ca9656" opacity="1.00" d=" M 318.41 743.09 C 320.28 743.26 322.10 743.78 323.77 744.67 C 322.33 746.14 318.33 745.21 318.41 743.09 Z" />
<path fill="#ca9656" opacity="1.00" d=" M 508.00 743.90 C 508.47 743.66 509.42 743.20 509.90 742.96 L 509.78 743.87 L 508.81 744.34 L 508.00 743.90 Z" />
<path fill="#ca9656" opacity="1.00" d=" M 504.07 744.81 C 504.89 744.20 505.82 743.94 506.84 744.01 C 506.51 745.71 505.59 745.98 504.07 744.81 Z" />
<path fill="#ca9656" opacity="1.00" d=" M 500.99 745.83 C 501.49 745.65 502.48 745.27 502.97 745.09 L 502.77 745.97 L 501.76 746.35 L 500.99 745.83 Z" />
<path fill="#ca9656" opacity="1.00" d=" M 329.18 746.02 C 330.18 745.98 331.08 746.29 331.87 746.94 C 330.29 748.04 329.40 747.73 329.18 746.02 Z" />
<path fill="#ca9656" opacity="1.00" d=" M 497.02 746.82 C 497.51 746.62 498.48 746.21 498.97 746.00 L 498.80 746.90 L 497.80 747.32 L 497.02 746.82 Z" />
<path fill="#ca9656" opacity="1.00" d=" M 333.11 747.05 C 334.12 746.99 335.04 747.28 335.87 747.92 C 334.32 749.04 333.40 748.75 333.11 747.05 Z" />
<path fill="#ca9656" opacity="1.00" d=" M 493.00 747.84 C 493.49 747.64 494.47 747.24 494.96 747.04 L 494.78 747.94 L 493.78 748.34 L 493.00 747.84 Z" />
<path fill="#ca9656" opacity="1.00" d=" M 337.14 748.04 C 338.15 747.95 339.08 748.23 339.91 748.85 C 338.40 750.00 337.48 749.73 337.14 748.04 Z" />
<path fill="#ca9656" opacity="1.00" d=" M 488.12 748.88 C 488.91 748.21 489.81 747.92 490.84 748.01 C 490.56 749.70 489.66 749.99 488.12 748.88 Z" />
<path fill="#ca9656" opacity="1.00" d=" M 341.10 749.05 C 342.11 748.93 343.05 749.13 343.93 749.65 C 342.47 750.93 341.53 750.73 341.10 749.05 Z" />
<path fill="#ca9656" opacity="1.00" d=" M 484.07 749.65 C 484.94 749.13 485.88 748.94 486.89 749.05 C 486.44 750.74 485.50 750.94 484.07 749.65 Z" />
</g>
<g id="#ba1b40ff">
<path fill="#ba1b40" opacity="1.00" d=" M 614.01 151.99 C 619.37 154.28 623.18 158.93 627.99 162.10 C 641.48 173.63 654.67 185.63 666.16 199.20 C 668.05 201.31 670.39 203.18 671.30 205.98 C 662.36 194.89 652.01 185.09 641.97 175.02 C 632.94 167.00 623.74 159.16 614.01 151.99 Z" />
<path fill="#ba1b40" opacity="1.00" d=" M 194.95 166.36 C 198.39 164.02 201.12 160.71 204.95 158.95 C 198.14 164.45 191.53 170.20 185.01 176.03 C 177.73 183.64 169.72 190.58 163.08 198.78 C 154.62 207.99 146.99 217.94 139.69 228.08 C 141.50 223.55 144.98 220.00 147.90 216.17 C 152.59 209.84 157.63 203.76 163.07 198.06 C 172.61 186.46 183.81 176.37 194.95 166.36 Z" />
<path fill="#ba1b40" opacity="1.00" d=" M 262.45 490.49 C 274.45 483.21 289.82 483.38 302.68 488.24 C 305.96 489.66 310.27 490.94 311.00 495.00 C 310.38 501.15 308.68 507.14 307.77 513.26 C 304.19 513.40 300.60 513.34 297.02 513.08 C 296.12 507.99 295.83 502.74 294.21 497.82 C 287.44 493.00 277.36 492.91 270.37 497.30 C 267.34 502.11 266.98 508.89 270.40 513.62 C 272.34 516.33 275.20 518.19 278.06 519.83 C 287.01 524.64 297.32 527.08 305.20 533.78 C 315.54 542.11 314.58 560.19 303.52 567.50 C 295.58 573.13 285.43 574.45 275.93 573.94 C 266.86 573.25 257.53 571.38 249.88 566.19 C 249.86 559.79 249.91 553.39 250.02 547.00 C 253.94 546.66 257.88 546.57 261.82 546.75 C 262.41 551.58 263.80 556.26 265.12 560.93 C 272.20 564.84 280.80 565.14 288.54 563.42 C 292.83 562.59 294.32 557.90 294.77 554.11 C 295.37 549.65 292.63 545.35 288.89 543.12 C 279.24 537.02 267.36 535.07 258.43 527.71 C 252.57 523.12 249.68 515.38 250.62 508.05 C 251.22 500.64 256.20 494.21 262.45 490.49 Z" />
<path fill="#ba1b40" opacity="1.00" d=" M 346.12 487.11 C 359.14 482.75 373.82 484.78 385.77 491.30 C 386.39 492.79 387.61 494.23 387.34 495.95 C 386.58 501.79 385.35 507.57 384.04 513.31 C 380.45 513.40 376.84 513.40 373.28 512.89 C 372.85 507.65 372.01 502.44 370.59 497.38 C 363.88 493.54 355.39 493.05 348.37 496.32 C 345.83 497.50 345.25 500.54 344.74 503.01 C 343.37 508.42 346.08 514.23 350.61 517.29 C 360.65 524.51 373.97 526.17 382.98 535.01 C 391.04 542.85 390.92 557.18 382.86 564.98 C 375.11 572.70 363.44 574.42 352.96 573.97 C 343.85 573.25 334.21 571.67 326.66 566.19 C 325.81 559.87 326.52 553.33 326.76 546.95 C 330.54 546.68 334.33 546.61 338.11 546.68 C 339.31 551.43 339.76 556.55 341.96 560.94 C 346.94 564.16 353.16 564.53 358.93 564.32 C 362.20 564.07 365.83 563.82 368.46 561.63 C 371.09 558.13 371.84 553.32 370.64 549.14 C 369.08 545.35 365.49 542.93 361.99 541.11 C 352.64 536.44 341.96 533.95 333.98 526.88 C 326.62 520.47 324.75 508.92 329.41 500.41 C 332.77 493.83 339.30 489.50 346.12 487.11 Z" />
<path fill="#ba1b40" opacity="1.00" d=" M 420.11 488.07 C 432.74 482.83 447.60 484.09 459.75 490.08 C 461.87 490.93 463.49 492.76 464.00 495.01 C 463.31 501.15 461.65 507.15 460.73 513.26 C 457.15 513.40 453.57 513.34 450.00 513.07 C 449.08 508.01 448.81 502.77 447.16 497.87 C 442.14 493.93 435.05 493.46 429.01 494.90 C 426.50 495.53 423.25 496.21 422.37 499.03 C 419.73 504.72 420.66 512.18 425.75 516.23 C 435.94 524.52 450.35 525.75 459.74 535.26 C 465.52 541.12 466.71 550.36 463.98 557.93 C 461.48 564.47 455.51 569.09 449.06 571.41 C 441.09 574.18 432.43 574.62 424.11 573.43 C 416.64 572.51 409.14 570.44 402.84 566.19 C 402.94 559.79 402.82 553.39 403.02 547.00 C 406.93 546.66 410.85 546.57 414.77 546.74 C 415.43 551.57 416.74 556.27 418.11 560.93 C 425.17 564.86 433.80 565.16 441.53 563.37 C 446.19 562.48 447.58 557.09 447.72 553.00 C 448.00 548.30 444.50 544.45 440.63 542.32 C 430.95 536.79 419.43 534.62 410.82 527.23 C 404.78 522.15 402.20 513.65 403.88 506.01 C 405.51 497.59 412.42 491.21 420.11 488.07 Z" />
<path fill="#ba1b40" opacity="1.00" d=" M 476.80 486.90 C 501.80 486.70 526.83 487.57 551.80 485.92 C 552.74 487.62 554.38 489.10 554.63 491.10 C 554.40 497.98 553.30 504.79 552.89 511.66 C 549.31 512.00 545.70 512.01 542.18 511.26 C 541.49 506.13 540.18 501.11 539.07 496.06 C 534.01 495.63 528.94 495.24 523.87 495.23 C 523.40 502.82 523.78 510.43 523.66 518.04 C 523.79 531.40 523.25 544.79 524.26 558.13 C 524.60 563.50 531.08 564.10 535.11 565.37 C 534.92 567.61 534.49 569.82 533.92 572.00 C 521.36 571.94 508.80 572.12 496.24 571.91 C 495.90 569.74 495.51 567.58 495.10 565.43 C 498.74 564.44 502.39 563.42 505.94 562.11 C 507.34 539.86 506.92 517.54 506.79 495.26 C 501.63 495.28 496.47 495.61 491.34 496.19 C 490.38 501.50 489.08 506.74 487.91 512.01 C 484.58 512.01 481.22 512.23 477.93 511.71 C 476.45 511.74 476.77 510.03 476.58 509.11 C 476.17 501.72 476.16 494.28 476.80 486.90 Z" />
<path fill="#ba1b40" opacity="1.00" d=" M 562.33 487.05 C 585.23 486.47 608.18 487.63 631.05 485.88 C 632.09 487.49 633.71 488.89 634.08 490.85 C 633.20 497.62 631.60 504.27 630.78 511.05 C 627.32 510.98 623.71 511.56 620.35 510.61 C 619.36 505.84 618.65 501.01 617.61 496.26 C 609.09 495.60 600.46 494.59 591.98 496.10 C 589.64 496.40 590.45 499.35 590.15 500.96 C 590.18 509.20 589.47 517.42 589.70 525.66 C 598.17 525.48 606.61 524.75 615.09 524.66 C 616.76 524.24 617.62 525.97 618.68 526.87 C 618.14 529.68 617.65 532.50 617.07 535.31 C 607.94 535.18 598.81 535.14 589.70 534.60 C 589.42 541.44 590.00 548.26 590.08 555.10 C 590.08 557.35 590.63 559.56 591.35 561.69 C 600.35 564.36 610.07 563.41 619.25 562.35 C 621.05 557.65 621.62 552.52 623.07 547.68 C 626.75 547.62 630.43 547.62 634.10 547.91 C 634.32 555.94 634.30 563.96 634.10 572.00 C 610.16 571.94 586.22 572.12 562.29 571.91 C 561.91 569.67 561.58 567.43 561.35 565.19 C 564.87 564.33 568.57 563.67 571.81 562.04 C 573.12 550.42 572.85 538.69 572.89 527.01 C 572.84 518.36 573.14 509.67 572.14 501.06 C 572.28 495.24 565.17 494.87 561.13 493.15 C 561.57 491.12 561.95 489.08 562.33 487.05 Z" />
<path fill="#ba1b40" opacity="1.00" d=" M 197.96 486.89 C 210.33 486.97 222.71 486.73 235.08 487.00 C 236.59 488.47 236.10 491.26 236.79 493.25 C 233.27 494.36 229.75 495.50 226.16 496.37 C 224.63 509.52 225.24 522.78 225.11 535.99 C 225.23 544.20 224.65 552.55 226.37 560.64 C 228.76 563.90 233.33 564.15 236.84 565.62 C 236.37 567.70 235.97 569.79 235.58 571.90 C 223.04 572.13 210.48 571.93 197.94 572.00 C 197.37 569.81 196.97 567.57 196.70 565.34 C 200.22 564.38 203.79 563.56 207.16 562.17 C 208.46 556.24 207.75 550.03 208.00 543.98 C 208.58 533.67 208.40 523.33 207.99 513.02 C 207.76 507.81 208.71 502.23 206.52 497.33 C 203.66 495.07 199.94 494.41 196.59 493.19 C 197.00 491.07 197.45 488.98 197.96 486.89 Z" />
<path fill="#ba1b40" opacity="1.00" d=" M 150.97 630.06 C 159.96 641.54 169.86 652.26 180.37 662.37 C 186.48 668.70 193.17 674.44 199.96 680.03 C 195.48 678.10 192.58 674.03 188.76 671.18 C 182.55 666.35 177.95 659.86 171.98 654.78 C 168.66 651.83 165.73 648.48 163.01 644.98 C 158.84 640.16 153.84 635.86 150.97 630.06 Z" />
</g>
</svg>
