<?xml version="1.0" encoding="UTF-8" ?>
<!DOCTYPE svg PUBLIC "-//W3C//DTD SVG 1.1//EN" "http://www.w3.org/Graphics/SVG/1.1/DTD/svg11.dtd">
<svg width="824pt" height="1067pt" viewBox="0 0 824 1067" version="1.1" xmlns="http://www.w3.org/2000/svg">
<g id="#ff6b5dff">
<path fill="#ff6b5d" opacity="1.00" d=" M 400.50 0.00 L 423.43 0.00 C 469.41 1.50 515.19 10.29 558.16 26.78 C 629.26 53.76 692.40 101.06 738.63 161.41 C 784.08 220.38 813.00 291.93 821.07 365.96 C 826.74 417.08 822.49 469.02 810.95 519.06 C 796.91 580.15 772.44 638.46 742.30 693.28 C 713.72 745.09 680.06 793.98 643.28 840.28 C 587.05 910.81 524.06 975.89 456.00 1035.04 C 444.51 1044.87 433.02 1054.73 421.03 1063.95 C 415.19 1068.28 406.48 1067.63 401.12 1062.82 C 364.76 1033.82 330.40 1002.37 297.20 969.83 C 244.92 918.10 195.96 862.88 152.37 803.60 C 105.99 740.34 65.41 672.27 37.25 598.88 C 14.54 539.78 0.52 476.94 0.00 413.48 L 0.00 409.67 C 0.16 407.44 0.25 405.20 0.25 402.96 C 1.57 324.91 26.10 247.48 69.73 182.76 C 121.23 105.65 199.42 46.72 287.95 18.97 C 324.34 7.40 362.36 1.25 400.50 0.00 M 361.81 90.24 C 361.13 88.76 357.72 88.90 358.23 90.87 C 357.40 90.98 355.75 91.19 354.92 91.29 C 353.47 90.01 352.54 90.22 352.11 91.92 C 351.36 92.01 349.87 92.18 349.12 92.26 L 348.38 91.69 L 347.35 92.01 L 347.10 92.88 C 346.55 92.96 345.46 93.11 344.91 93.19 C 343.44 91.95 342.51 92.19 342.15 93.91 C 341.59 94.01 340.48 94.20 339.92 94.30 C 338.49 93.00 337.55 93.20 337.08 94.89 L 335.93 95.15 C 334.38 93.98 333.47 94.26 333.19 96.00 C 325.69 97.57 318.37 99.94 311.05 102.18 L 310.28 101.62 L 309.25 101.98 L 309.04 102.86 L 307.96 103.05 L 307.18 102.56 L 306.18 102.99 L 306.02 103.89 L 304.95 103.99 L 304.14 103.55 L 303.18 104.05 L 303.07 104.95 L 302.38 105.10 C 292.80 106.99 284.11 111.86 275.03 115.31 C 267.56 119.17 260.06 122.99 252.44 126.57 C 246.17 130.39 239.23 133.41 233.78 138.40 C 233.58 138.56 233.19 138.86 232.99 139.02 L 232.17 138.57 L 231.20 139.06 L 231.10 139.97 C 230.82 140.23 230.25 140.75 229.96 141.01 L 229.12 140.62 L 228.19 141.19 L 228.17 142.12 C 227.81 142.39 227.09 142.92 226.74 143.19 C 224.89 141.91 221.57 143.94 222.40 146.19 C 222.05 146.42 221.35 146.90 221.00 147.13 C 219.83 145.69 217.07 147.60 218.32 149.13 C 213.72 152.05 209.50 155.53 205.22 158.88 C 202.56 159.65 200.59 161.62 198.64 163.46 C 184.77 174.79 172.03 187.48 160.26 200.95 C 158.75 202.50 157.22 204.13 156.66 206.30 C 156.20 206.82 155.74 207.36 155.31 207.90 C 151.71 209.82 149.58 213.57 147.93 217.14 C 144.87 220.90 142.10 224.88 139.34 228.87 C 135.70 230.99 134.30 235.37 131.81 238.59 C 129.20 243.48 125.08 247.65 123.79 253.16 C 123.69 253.33 123.49 253.68 123.39 253.85 C 121.01 255.08 120.47 257.85 119.82 260.19 C 119.74 260.33 119.58 260.61 119.50 260.75 C 116.96 262.29 116.30 265.40 114.90 267.82 C 111.27 274.67 108.02 281.70 105.14 288.90 C 103.77 292.71 101.24 296.18 101.11 300.35 C 99.58 304.29 98.06 308.24 96.88 312.30 C 94.60 311.58 93.69 315.50 95.30 316.76 L 94.88 318.01 L 93.99 318.22 L 93.63 319.25 L 94.19 320.01 C 93.05 323.68 91.74 327.32 91.00 331.09 L 90.10 331.28 L 89.69 332.28 L 90.21 333.05 C 90.13 333.58 89.97 334.63 89.89 335.16 C 88.16 335.47 87.88 336.38 89.05 337.89 L 88.90 339.12 C 87.17 339.42 86.88 340.33 88.05 341.85 L 87.88 343.14 C 86.16 343.47 85.89 344.40 87.06 345.92 L 86.89 347.13 C 85.17 347.55 84.97 348.48 86.28 349.93 C 85.38 354.01 84.51 358.11 83.92 362.25 C 81.95 361.73 81.75 365.12 83.24 365.82 C 83.15 366.40 82.99 367.57 82.90 368.15 C 81.21 368.62 81.04 369.57 82.36 371.00 C 82.06 372.36 81.92 373.74 81.92 375.15 C 80.23 375.63 80.06 376.58 81.40 377.99 C 77.80 406.85 77.76 436.16 81.40 465.02 C 80.05 466.42 80.22 467.37 81.91 467.86 C 82.00 468.68 82.17 470.33 82.26 471.16 C 80.80 471.84 80.92 475.25 82.89 474.77 C 82.98 475.37 83.16 476.58 83.25 477.19 C 81.77 477.87 81.94 481.25 83.90 480.79 C 83.99 481.39 84.18 482.60 84.28 483.21 C 82.80 483.90 82.98 487.29 84.95 486.82 L 85.25 488.16 C 83.81 488.88 83.97 492.23 85.92 491.81 L 86.13 493.11 C 84.95 494.62 85.22 495.53 86.94 495.86 L 87.05 496.75 C 87.09 499.68 87.21 502.90 89.02 505.37 L 89.33 506.23 C 87.74 507.61 88.60 511.78 90.83 511.58 L 91.17 513.08 C 89.95 514.57 90.20 515.49 91.93 515.86 L 92.16 516.93 L 91.62 517.68 L 91.98 518.70 L 92.86 518.93 L 93.01 520.04 L 92.57 520.85 L 93.05 521.82 L 93.96 521.93 C 94.88 526.32 96.62 530.49 98.08 534.71 C 98.91 540.21 101.49 545.21 103.41 550.37 C 107.21 558.95 110.80 567.62 115.25 575.91 C 116.96 578.70 117.60 582.46 120.62 584.21 C 120.78 584.48 121.11 585.04 121.28 585.32 C 120.92 587.62 122.82 589.20 124.07 590.85 C 124.38 591.18 125.00 591.84 125.31 592.17 C 124.59 593.33 124.61 594.49 125.37 595.63 C 125.72 595.61 126.42 595.57 126.77 595.55 C 127.03 595.88 127.55 596.54 127.81 596.87 C 128.42 599.75 129.86 602.56 132.42 604.17 C 132.59 604.39 132.92 604.82 133.09 605.04 L 132.71 605.88 L 133.28 606.80 L 134.20 606.84 C 134.42 607.14 134.85 607.76 135.07 608.07 L 134.73 608.92 L 135.36 609.81 L 136.28 609.80 C 136.41 610.03 136.66 610.48 136.79 610.71 C 138.09 615.15 141.64 618.40 144.20 622.13 C 146.23 624.47 147.50 627.64 150.35 629.13 C 150.50 629.31 150.78 629.66 150.92 629.84 C 154.38 637.03 160.85 642.10 165.68 648.32 C 175.63 658.73 185.70 669.08 196.81 678.27 C 197.84 679.02 199.01 679.54 200.15 680.12 C 203.80 683.09 207.29 686.31 211.29 688.81 C 210.09 690.31 212.79 692.22 213.98 690.85 C 214.30 691.10 214.95 691.60 215.27 691.85 C 214.09 693.38 216.83 695.23 218.02 693.87 C 218.23 694.05 218.65 694.40 218.86 694.58 C 220.16 696.75 222.50 697.84 224.48 699.26 C 227.23 701.14 229.77 703.55 233.15 704.24 C 233.41 704.38 233.94 704.68 234.21 704.83 L 234.20 705.76 L 235.11 706.36 L 235.96 706.01 C 236.16 706.15 236.57 706.44 236.77 706.59 C 238.03 708.61 240.36 709.39 242.30 710.59 C 254.62 718.15 267.56 724.67 280.89 730.25 C 283.43 731.19 285.74 732.95 288.57 732.84 C 298.36 736.70 308.23 740.48 318.43 743.10 C 318.11 745.35 322.35 746.27 323.74 744.70 L 325.15 745.09 C 325.46 746.81 326.38 747.09 327.89 745.93 L 329.11 746.10 C 329.43 747.82 330.35 748.10 331.87 746.94 L 333.13 747.12 C 333.47 748.84 334.39 749.11 335.91 747.94 L 337.13 748.10 C 337.51 749.81 338.44 750.06 339.92 748.86 L 341.19 749.11 C 340.75 751.05 344.10 751.23 344.83 749.79 L 346.23 750.08 C 345.65 752.04 349.07 752.30 349.78 750.82 L 351.19 751.06 C 350.71 753.02 354.10 753.18 354.82 751.74 C 355.42 751.83 356.61 752.01 357.21 752.10 C 356.73 754.05 360.11 754.20 360.83 752.76 C 361.42 752.85 362.61 753.01 363.20 753.09 C 363.70 754.77 364.65 754.92 366.04 753.57 C 399.53 758.30 433.76 758.14 467.16 752.74 C 467.82 754.21 471.26 754.09 470.75 752.12 C 471.36 752.03 472.58 751.84 473.19 751.75 C 473.89 753.20 477.28 753.04 476.82 751.08 L 478.19 750.84 C 478.91 752.30 482.27 752.03 481.81 750.09 L 483.19 749.80 C 483.90 751.26 487.26 751.03 486.79 749.09 L 488.08 748.88 C 489.57 750.06 490.49 749.80 490.85 748.09 L 492.09 747.97 C 493.61 749.11 494.52 748.82 494.82 747.10 C 495.36 747.03 496.45 746.89 496.99 746.81 L 497.74 747.37 L 498.77 747.01 L 498.99 746.13 L 500.12 745.96 C 501.64 747.11 502.55 746.83 502.86 745.11 L 504.27 744.72 C 505.63 746.31 509.82 745.38 509.53 743.15 L 510.62 742.91 C 514.06 743.00 517.19 741.44 520.39 740.42 C 536.22 735.29 551.51 728.63 566.51 721.47 C 572.90 717.77 579.50 714.47 585.80 710.60 C 587.68 709.40 590.01 708.61 591.15 706.54 C 596.45 703.03 602.14 700.04 607.03 695.96 L 607.88 696.35 L 608.81 695.80 L 608.86 694.88 C 609.15 694.63 609.73 694.13 610.02 693.88 C 611.17 695.30 613.89 693.41 612.74 691.88 C 613.06 691.63 613.69 691.13 614.00 690.88 C 615.15 692.33 617.87 690.39 616.68 688.88 C 620.60 686.38 624.10 683.26 627.66 680.28 C 630.28 679.99 631.92 677.90 633.06 675.74 C 633.24 675.58 633.60 675.27 633.78 675.11 C 636.00 673.98 638.02 672.48 639.84 670.77 C 655.15 656.22 670.11 641.15 682.49 623.97 C 683.07 622.92 683.60 621.86 684.10 620.78 C 684.26 620.54 684.57 620.05 684.73 619.81 L 685.65 619.84 L 686.29 618.96 L 685.97 618.10 C 686.21 617.76 686.67 617.08 686.91 616.74 C 688.44 617.95 690.28 615.15 688.86 614.01 C 689.10 613.66 689.57 612.95 689.81 612.60 C 692.05 613.37 694.08 610.08 692.81 608.24 C 693.07 607.89 693.60 607.20 693.86 606.85 L 694.78 606.83 L 695.36 605.90 L 694.98 605.05 C 695.13 604.86 695.43 604.46 695.58 604.27 C 697.15 603.21 698.17 601.62 699.09 600.02 C 704.66 590.53 710.55 581.19 715.06 571.13 C 716.98 566.58 720.44 562.51 720.86 557.47 C 725.41 547.03 729.66 536.41 733.05 525.54 C 735.34 525.82 736.24 521.65 734.67 520.25 C 735.73 517.42 736.55 514.49 737.16 511.53 C 739.41 511.75 740.30 507.56 738.71 506.20 L 739.12 504.84 C 740.82 504.40 741.06 503.47 739.82 502.04 L 740.10 500.86 C 741.79 500.43 742.01 499.49 740.76 498.04 C 740.84 497.49 741.02 496.39 741.11 495.84 C 742.82 495.51 743.09 494.59 741.92 493.09 L 742.09 491.89 C 743.78 491.42 743.99 490.48 742.71 489.05 C 742.80 488.49 742.98 487.36 743.08 486.80 C 745.02 487.24 745.20 483.88 743.76 483.16 C 743.85 482.61 744.02 481.50 744.10 480.95 L 744.97 480.69 L 745.26 479.64 L 744.64 478.91 C 745.10 475.53 745.67 472.15 746.04 468.76 C 748.18 468.99 748.12 465.21 746.70 464.25 C 746.80 463.37 747.00 461.61 747.10 460.73 C 749.37 460.60 749.09 456.57 747.69 455.34 C 747.92 453.55 748.00 451.75 748.13 449.96 L 749.04 449.96 C 749.08 447.24 749.06 444.53 748.85 441.83 C 749.53 428.27 749.40 414.70 748.84 401.15 C 749.04 398.43 749.08 395.71 749.03 392.99 L 748.13 393.05 C 747.62 385.94 746.95 378.83 745.73 371.82 C 747.18 371.13 747.07 367.71 745.11 368.23 C 745.03 367.61 744.87 366.39 744.79 365.78 C 746.28 365.09 746.05 361.72 744.11 362.20 C 744.02 361.61 743.83 360.43 743.74 359.84 C 745.21 359.14 745.02 355.77 743.07 356.23 L 742.75 354.83 C 744.19 354.12 744.03 350.77 742.09 351.21 L 741.90 349.90 C 743.05 348.37 742.76 347.46 741.04 347.18 C 740.07 341.28 738.51 335.46 736.68 329.77 C 738.28 328.39 737.42 324.27 735.21 324.41 L 734.95 322.98 L 735.42 322.18 L 734.95 321.20 L 734.05 321.08 C 733.11 316.69 731.39 312.51 729.91 308.29 C 729.25 303.62 727.17 299.35 725.52 294.98 C 723.81 291.22 722.82 287.01 720.07 283.82 L 719.90 283.44 C 719.59 279.39 716.98 276.06 715.43 272.44 C 711.76 264.66 707.42 257.25 703.23 249.76 C 702.57 248.58 701.77 247.41 700.51 246.84 C 697.93 242.92 695.76 238.72 692.91 234.99 L 693.27 234.14 L 692.67 233.23 L 691.75 233.22 C 691.61 233.00 691.33 232.57 691.20 232.35 C 690.59 229.70 688.91 227.43 686.66 225.94 C 686.47 225.70 686.08 225.24 685.88 225.00 C 687.28 223.84 685.44 221.08 683.90 222.26 C 683.65 221.95 683.14 221.32 682.88 221.00 C 684.30 219.85 682.45 217.08 680.91 218.27 C 680.64 217.93 680.08 217.24 679.81 216.90 C 681.30 215.31 678.81 212.09 676.98 213.39 C 676.78 213.12 676.38 212.57 676.18 212.29 C 676.02 209.64 673.81 208.10 671.80 206.81 C 671.67 206.65 671.41 206.33 671.28 206.18 C 670.83 204.87 670.30 203.57 669.31 202.58 C 652.83 183.80 634.68 166.35 614.42 151.68 C 610.90 149.37 607.99 145.95 603.82 144.79 C 603.56 144.63 603.04 144.31 602.78 144.15 L 602.78 143.23 L 601.88 142.63 L 601.02 142.98 C 600.74 142.73 600.17 142.22 599.89 141.96 L 599.79 141.06 L 598.82 140.57 L 598.01 141.02 C 597.73 140.77 597.18 140.27 596.90 140.02 L 596.82 139.11 L 595.86 138.60 L 595.04 139.03 C 594.83 138.88 594.43 138.57 594.22 138.42 C 590.90 134.35 585.55 132.66 581.21 129.88 C 575.86 126.31 569.78 124.14 564.33 120.75 C 560.11 119.12 556.17 116.93 552.13 114.93 C 543.33 111.62 534.95 106.92 525.67 105.07 L 524.93 104.91 L 524.80 104.01 L 523.82 103.55 L 523.02 104.01 L 521.94 103.87 L 521.77 102.97 L 520.77 102.55 L 519.99 103.04 L 519.00 102.85 L 518.78 101.97 L 517.74 101.62 L 516.98 102.19 C 513.33 100.97 509.66 99.74 505.89 98.96 L 505.73 98.05 L 504.74 97.61 L 503.96 98.10 L 502.86 97.92 C 502.44 96.21 501.50 95.98 500.05 97.23 L 498.84 96.89 C 498.44 95.18 497.51 94.94 496.05 96.18 L 494.89 95.91 C 494.46 94.20 493.53 93.96 492.08 95.20 L 490.78 94.89 C 491.21 92.94 487.87 92.73 487.16 94.20 L 485.88 93.93 C 485.54 92.20 484.62 91.94 483.13 93.15 C 482.56 93.09 481.43 92.97 480.86 92.91 C 480.49 91.20 479.56 90.95 478.10 92.17 C 477.51 92.09 476.35 91.95 475.77 91.88 C 476.32 89.91 472.88 89.76 472.19 91.20 C 471.59 91.12 470.39 90.96 469.79 90.88 C 470.29 88.90 466.87 88.75 466.21 90.25 C 463.10 89.60 459.95 89.16 456.79 88.95 C 457.18 86.95 453.76 86.99 453.13 88.47 C 422.80 84.88 391.98 85.50 361.81 90.24 Z" />
</g>
<g id="#ffffffff">
<path fill="#ffffff" opacity="1.00" d=" M 361.81 90.24 C 391.98 85.50 422.80 84.88 453.13 88.47 C 454.32 88.77 455.54 88.98 456.79 88.95 C 459.95 89.16 463.10 89.60 466.21 90.25 C 467.37 90.59 468.56 90.86 469.79 90.88 C 470.39 90.96 471.59 91.12 472.19 91.20 C 473.34 91.56 474.53 91.87 475.77 91.88 C 476.35 91.95 477.51 92.09 478.10 92.17 C 478.92 92.74 479.85 92.99 480.86 92.91 C 481.43 92.97 482.56 93.09 483.13 93.15 C 483.95 93.72 484.86 93.98 485.88 93.93 L 487.16 94.20 C 488.33 94.58 489.53 94.86 490.78 94.89 L 492.08 95.20 C 492.93 95.75 493.86 95.99 494.89 95.91 L 496.05 96.18 C 496.89 96.74 497.82 96.98 498.84 96.89 L 500.05 97.23 C 500.90 97.78 501.84 98.00 502.86 97.92 L 503.96 98.10 C 504.44 98.31 505.41 98.74 505.89 98.96 C 509.66 99.74 513.33 100.97 516.98 102.19 C 517.49 102.36 518.49 102.69 519.00 102.85 L 519.99 103.04 C 520.48 103.25 521.46 103.66 521.94 103.87 L 523.02 104.01 C 523.50 104.23 524.46 104.68 524.93 104.91 L 525.67 105.07 C 542.29 111.18 558.57 118.23 574.11 126.74 C 580.98 130.35 587.47 134.61 594.22 138.42 C 594.43 138.57 594.83 138.88 595.04 139.03 C 595.50 139.28 596.44 139.77 596.90 140.02 C 597.18 140.27 597.73 140.77 598.01 141.02 C 598.48 141.25 599.42 141.73 599.89 141.96 C 600.17 142.22 600.74 142.73 601.02 142.98 C 601.46 143.28 602.34 143.86 602.78 144.15 C 603.04 144.31 603.56 144.63 603.82 144.79 C 628.79 162.30 651.59 182.87 671.28 206.18 C 671.41 206.33 671.67 206.65 671.80 206.81 C 673.24 208.65 674.71 210.46 676.18 212.29 C 676.38 212.57 676.78 213.12 676.98 213.39 C 677.79 214.65 678.75 215.82 679.81 216.90 C 680.08 217.24 680.64 217.93 680.91 218.27 C 681.38 219.29 682.04 220.23 682.88 221.00 C 683.14 221.32 683.65 221.95 683.90 222.26 C 684.38 223.28 685.03 224.22 685.88 225.00 C 686.08 225.24 686.47 225.70 686.66 225.94 C 688.11 228.12 689.61 230.26 691.20 232.35 C 691.33 232.57 691.61 233.00 691.75 233.22 C 692.04 233.66 692.62 234.55 692.91 234.99 C 695.76 238.72 697.93 242.92 700.51 246.84 C 707.53 258.73 714.05 270.92 719.90 283.44 L 720.07 283.82 C 723.47 291.93 726.85 300.04 729.91 308.29 C 731.39 312.51 733.11 316.69 734.05 321.08 C 734.27 321.55 734.72 322.51 734.95 322.98 L 735.21 324.41 C 735.43 326.26 735.95 328.06 736.68 329.77 C 738.51 335.46 740.07 341.28 741.04 347.18 C 740.99 348.18 741.28 349.09 741.90 349.90 L 742.09 351.21 C 742.08 352.44 742.35 353.65 742.75 354.83 L 743.07 356.23 C 743.09 357.46 743.36 358.66 743.74 359.84 C 743.83 360.43 744.02 361.61 744.11 362.20 C 744.12 363.42 744.42 364.61 744.79 365.78 C 744.87 366.39 745.03 367.61 745.11 368.23 C 745.09 369.45 745.36 370.64 745.73 371.82 C 746.95 378.83 747.62 385.94 748.13 393.05 C 748.31 395.75 748.62 398.44 748.84 401.15 C 749.40 414.70 749.53 428.27 748.85 441.83 C 748.64 444.54 748.30 447.24 748.13 449.96 C 748.00 451.75 747.92 453.55 747.69 455.34 C 747.37 457.12 747.11 458.91 747.10 460.73 C 747.00 461.61 746.80 463.37 746.70 464.25 C 746.36 465.73 746.08 467.23 746.04 468.76 C 745.67 472.15 745.10 475.53 744.64 478.91 C 744.51 479.42 744.23 480.44 744.10 480.95 C 744.02 481.50 743.85 482.61 743.76 483.16 C 743.38 484.34 743.09 485.55 743.08 486.80 C 742.98 487.36 742.80 488.49 742.71 489.05 C 742.18 489.92 741.98 490.87 742.09 491.89 L 741.92 493.09 C 741.31 493.90 741.04 494.82 741.11 495.84 C 741.02 496.39 740.84 497.49 740.76 498.04 C 740.21 498.90 739.99 499.84 740.10 500.86 L 739.82 502.04 C 739.25 502.89 739.02 503.82 739.12 504.84 L 738.71 506.20 C 737.99 507.91 737.44 509.69 737.16 511.53 C 736.55 514.49 735.73 517.42 734.67 520.25 C 733.93 521.95 733.39 523.72 733.05 525.54 C 729.66 536.41 725.41 547.03 720.86 557.47 C 713.55 573.65 704.96 589.20 695.58 604.27 C 695.43 604.46 695.13 604.86 694.98 605.05 C 694.70 605.50 694.14 606.40 693.86 606.85 C 693.60 607.20 693.07 607.89 692.81 608.24 C 691.61 609.55 690.60 611.01 689.81 612.60 C 689.57 612.95 689.10 613.66 688.86 614.01 C 688.04 614.79 687.36 615.69 686.91 616.74 C 686.67 617.08 686.21 617.76 685.97 618.10 C 685.66 618.53 685.04 619.38 684.73 619.81 C 684.57 620.05 684.26 620.54 684.10 620.78 C 669.16 640.50 652.36 658.78 633.78 675.11 C 633.60 675.27 633.24 675.58 633.06 675.74 C 631.23 677.22 629.41 678.70 627.66 680.28 C 624.10 683.26 620.60 686.38 616.68 688.88 C 615.66 689.36 614.75 690.04 614.00 690.88 C 613.69 691.13 613.06 691.63 612.74 691.88 C 611.71 692.37 610.77 693.02 610.02 693.88 C 609.73 694.13 609.15 694.63 608.86 694.88 C 608.40 695.15 607.49 695.69 607.03 695.96 C 602.14 700.04 596.45 703.03 591.15 706.54 C 565.99 722.02 538.90 734.35 510.62 742.91 L 509.53 743.15 C 507.70 743.41 505.95 743.98 504.27 744.72 L 502.86 745.11 C 501.84 745.06 500.93 745.34 500.12 745.96 L 498.99 746.13 C 498.49 746.30 497.49 746.64 496.99 746.81 C 496.45 746.89 495.36 747.03 494.82 747.10 C 493.80 747.05 492.89 747.34 492.09 747.97 L 490.85 748.09 C 489.83 748.02 488.90 748.28 488.08 748.88 L 486.79 749.09 C 485.55 749.12 484.35 749.41 483.19 749.80 L 481.81 750.09 C 480.56 750.15 479.36 750.45 478.19 750.84 L 476.82 751.08 C 475.57 751.11 474.37 751.38 473.19 751.75 C 472.58 751.84 471.36 752.03 470.75 752.12 C 469.52 752.13 468.32 752.39 467.16 752.74 C 433.76 758.14 399.53 758.30 366.04 753.57 C 365.14 753.10 364.19 752.94 363.20 753.09 C 362.61 753.01 361.42 752.85 360.83 752.76 C 359.65 752.38 358.44 752.09 357.21 752.10 C 356.61 752.01 355.42 751.83 354.82 751.74 C 353.63 751.36 352.43 751.08 351.19 751.06 L 349.78 750.82 C 348.62 750.44 347.44 750.14 346.23 750.08 L 344.83 749.79 C 343.64 749.41 342.43 749.13 341.19 749.11 L 339.92 748.86 C 339.07 748.27 338.14 748.02 337.13 748.10 L 335.91 747.94 C 335.07 747.34 334.15 747.06 333.13 747.12 L 331.87 746.94 C 331.05 746.33 330.13 746.05 329.11 746.10 L 327.89 745.93 C 327.07 745.31 326.16 745.03 325.15 745.09 L 323.74 744.70 C 322.02 743.99 320.26 743.40 318.43 743.10 C 308.23 740.48 298.36 736.70 288.57 732.84 C 270.64 725.46 253.42 716.49 236.77 706.59 C 236.57 706.44 236.16 706.15 235.96 706.01 C 235.53 705.71 234.65 705.13 234.21 704.83 C 233.94 704.68 233.41 704.38 233.15 704.24 C 228.40 701.00 223.69 697.70 218.86 694.58 C 218.65 694.40 218.23 694.05 218.02 693.87 C 217.23 693.01 216.30 692.33 215.27 691.85 C 214.95 691.60 214.30 691.10 213.98 690.85 C 213.22 690.00 212.32 689.28 211.29 688.81 C 207.29 686.31 203.80 683.09 200.15 680.12 C 182.18 664.97 165.68 648.14 150.92 629.84 C 150.78 629.66 150.50 629.31 150.35 629.13 C 145.85 622.98 141.31 616.85 136.79 610.71 C 136.66 610.48 136.41 610.03 136.28 609.80 C 135.98 609.37 135.37 608.50 135.07 608.07 C 134.85 607.76 134.42 607.14 134.20 606.84 C 133.92 606.39 133.37 605.49 133.09 605.04 C 132.92 604.82 132.59 604.39 132.42 604.17 C 131.01 601.66 129.60 599.13 127.81 596.87 C 127.55 596.54 127.03 595.88 126.77 595.55 C 126.90 594.27 126.17 593.04 125.31 592.17 C 125.00 591.84 124.38 591.18 124.07 590.85 C 123.75 590.32 123.12 589.26 122.80 588.73 C 122.41 587.54 121.91 586.39 121.28 585.32 C 121.11 585.04 120.78 584.48 120.62 584.21 C 111.76 568.36 104.39 551.72 98.08 534.71 C 96.62 530.49 94.88 526.32 93.96 521.93 C 93.73 521.46 93.25 520.51 93.01 520.04 L 92.86 518.93 C 92.69 518.43 92.34 517.43 92.16 516.93 L 91.93 515.86 C 91.99 514.84 91.74 513.92 91.17 513.08 L 90.83 511.58 C 90.55 509.74 90.08 507.93 89.33 506.23 L 89.02 505.37 C 88.38 502.49 87.71 499.62 87.05 496.75 L 86.94 495.86 C 87.00 494.84 86.72 493.92 86.13 493.11 L 85.92 491.81 C 85.90 490.55 85.63 489.34 85.25 488.16 L 84.95 486.82 C 84.90 485.58 84.64 484.38 84.28 483.21 C 84.18 482.60 83.99 481.39 83.90 480.79 C 83.89 479.55 83.61 478.35 83.25 477.19 C 83.16 476.58 82.98 475.37 82.89 474.77 C 82.89 473.52 82.61 472.32 82.26 471.16 C 82.17 470.33 82.00 468.68 81.91 467.86 C 82.04 466.85 81.87 465.91 81.40 465.02 C 77.76 436.16 77.80 406.85 81.40 377.99 C 81.87 377.09 82.04 376.14 81.92 375.15 C 81.92 373.74 82.06 372.36 82.36 371.00 C 82.85 370.10 83.02 369.15 82.90 368.15 C 82.99 367.57 83.15 366.40 83.24 365.82 C 83.60 364.65 83.89 363.47 83.92 362.25 C 84.51 358.11 85.38 354.01 86.28 349.93 C 86.77 349.06 86.98 348.12 86.89 347.13 L 87.06 345.92 C 87.65 345.08 87.92 344.15 87.88 343.14 L 88.05 341.85 C 88.66 341.04 88.94 340.12 88.90 339.12 L 89.05 337.89 C 89.66 337.07 89.94 336.16 89.89 335.16 C 89.97 334.63 90.13 333.58 90.21 333.05 C 90.40 332.56 90.80 331.58 91.00 331.09 C 91.74 327.32 93.05 323.68 94.19 320.01 C 94.36 319.51 94.71 318.51 94.88 318.01 L 95.30 316.76 C 95.90 315.30 96.49 313.83 96.88 312.30 C 98.06 308.24 99.58 304.29 101.11 300.35 C 106.49 286.82 112.66 273.61 119.50 260.75 C 119.58 260.61 119.74 260.33 119.82 260.19 C 121.05 258.10 122.25 255.99 123.39 253.85 C 123.49 253.68 123.69 253.33 123.79 253.16 C 128.79 244.94 133.93 236.82 139.34 228.87 C 142.10 224.88 144.87 220.90 147.93 217.14 C 150.49 214.14 152.91 211.03 155.31 207.90 C 155.74 207.36 156.20 206.82 156.66 206.30 C 167.55 193.71 178.94 181.50 191.54 170.60 C 195.95 166.53 200.72 162.87 205.22 158.88 C 209.50 155.53 213.72 152.05 218.32 149.13 C 219.33 148.64 220.22 147.94 221.00 147.13 C 221.35 146.90 222.05 146.42 222.40 146.19 C 223.97 145.38 225.42 144.37 226.74 143.19 C 227.09 142.92 227.81 142.39 228.17 142.12 C 228.61 141.84 229.51 141.28 229.96 141.01 C 230.25 140.75 230.82 140.23 231.10 139.97 C 231.58 139.73 232.52 139.26 232.99 139.02 C 233.19 138.86 233.58 138.56 233.78 138.40 C 239.08 135.47 244.17 132.19 249.46 129.26 C 266.35 119.66 284.14 111.74 302.38 105.10 L 303.07 104.95 C 303.54 104.71 304.48 104.23 304.95 103.99 L 306.02 103.89 C 306.50 103.68 307.47 103.26 307.96 103.05 L 309.04 102.86 C 309.54 102.69 310.55 102.35 311.05 102.18 C 318.37 99.94 325.69 97.57 333.19 96.00 C 334.19 96.02 335.10 95.74 335.93 95.15 L 337.08 94.89 C 338.09 95.01 339.03 94.81 339.92 94.30 C 340.48 94.20 341.59 94.01 342.15 93.91 C 343.15 93.99 344.07 93.75 344.91 93.19 C 345.46 93.11 346.55 92.96 347.10 92.88 C 347.60 92.73 348.61 92.42 349.12 92.26 C 349.87 92.18 351.36 92.01 352.11 91.92 C 353.11 92.03 354.05 91.82 354.92 91.29 C 355.75 91.19 357.40 90.98 358.23 90.87 C 359.45 90.88 360.64 90.58 361.81 90.24 M 386.79 197.70 C 381.36 199.36 376.86 203.59 374.83 208.90 C 371.97 215.32 372.44 222.66 374.58 229.22 C 374.98 232.20 377.27 236.83 373.62 238.61 C 366.49 242.02 359.61 246.77 355.72 253.85 C 351.22 262.21 350.99 271.99 350.68 281.26 C 349.39 280.24 348.17 279.14 347.10 277.91 C 339.85 269.79 332.54 261.72 325.46 253.46 C 322.70 250.27 320.34 246.51 316.51 244.48 C 310.92 241.36 302.84 241.75 298.87 247.27 C 295.03 246.17 290.47 245.36 287.15 248.19 C 284.01 250.46 283.66 254.51 283.52 258.06 C 281.85 279.36 279.46 300.63 278.96 322.00 C 278.55 329.66 281.46 336.91 284.15 343.92 C 289.93 358.57 296.04 373.09 302.80 387.31 C 305.40 393.01 310.31 397.23 315.61 400.36 C 324.54 405.59 334.26 409.24 343.69 413.43 C 368.58 424.09 392.63 436.77 415.12 451.85 C 442.16 433.20 471.95 419.04 502.04 406.09 C 507.33 403.72 512.91 402.00 517.98 399.15 C 522.87 396.46 526.75 391.95 528.49 386.63 C 531.95 376.19 536.35 366.08 541.16 356.20 C 544.75 349.38 548.54 342.52 550.24 334.92 C 552.26 327.10 551.67 318.98 551.69 310.99 C 550.92 294.32 551.07 277.62 550.40 260.96 C 550.45 256.49 548.31 251.64 543.97 249.89 C 541.08 248.59 538.01 250.08 535.06 250.25 C 531.77 248.50 528.85 245.68 524.89 245.69 C 517.04 244.74 510.81 250.56 505.83 255.81 C 498.26 263.34 490.69 270.87 483.02 278.30 C 485.02 269.89 484.24 260.70 480.13 253.03 C 477.53 247.77 472.91 244.08 468.76 240.13 C 466.42 226.49 456.53 215.04 444.62 208.53 C 434.45 205.09 421.83 212.96 421.09 223.88 C 420.81 233.55 424.16 245.27 434.07 249.04 C 436.88 250.02 438.16 245.54 435.82 244.22 C 431.46 240.57 430.39 234.46 430.77 229.08 C 430.73 226.54 432.95 225.13 434.90 224.06 C 437.76 224.94 440.81 225.82 442.79 228.24 C 449.67 235.68 452.87 245.57 458.13 254.08 C 460.76 258.47 466.69 259.24 469.30 263.66 C 472.45 268.84 472.63 275.19 472.82 281.08 C 472.36 293.75 471.08 306.37 469.67 318.97 C 469.63 320.19 468.84 321.19 467.78 321.73 C 454.79 329.36 441.04 335.57 427.83 342.79 C 426.51 343.49 425.06 343.89 423.65 344.32 C 423.24 340.85 423.63 336.83 426.13 334.19 C 429.22 331.28 433.75 332.19 437.59 332.10 C 437.75 329.09 437.71 326.06 437.49 323.06 C 437.04 316.68 437.83 310.25 436.91 303.90 C 436.17 299.52 433.28 295.96 430.33 292.81 C 438.13 287.22 445.14 280.35 450.67 272.50 C 454.13 268.04 449.32 261.42 444.04 262.73 C 440.33 264.02 436.81 265.82 433.05 266.98 C 430.36 260.42 428.78 253.46 426.31 246.84 C 422.87 242.04 416.08 242.92 410.93 243.12 C 409.29 243.58 406.51 242.42 407.38 240.40 C 410.09 237.07 415.20 234.88 415.19 229.97 C 415.36 222.96 416.57 215.95 415.95 208.93 C 415.54 204.17 412.70 199.55 408.19 197.69 C 401.39 194.98 393.67 195.52 386.79 197.70 M 266.41 488.40 C 258.72 491.74 251.84 498.47 250.74 507.09 C 249.46 514.70 252.30 522.94 258.45 527.73 C 267.40 535.09 279.30 537.03 288.95 543.16 C 292.99 545.55 295.72 550.42 294.63 555.15 C 294.04 558.61 292.46 562.68 288.57 563.41 C 280.81 565.15 272.20 564.83 265.12 560.93 C 263.80 556.25 262.42 551.57 261.81 546.74 C 257.88 546.57 253.94 546.66 250.02 547.00 C 249.91 553.39 249.88 559.78 249.87 566.17 C 257.82 571.57 267.57 573.42 277.01 573.99 C 287.05 574.40 297.93 572.60 305.71 565.75 C 314.57 557.81 314.76 542.16 305.75 534.26 C 297.82 527.19 287.18 524.75 278.02 519.80 C 274.32 517.72 270.56 515.08 268.95 510.98 C 267.25 506.47 267.70 500.62 270.86 496.89 C 277.93 493.06 287.58 493.03 294.19 497.82 C 295.84 502.73 296.12 507.99 297.02 513.08 C 300.59 513.34 304.18 513.39 307.77 513.27 C 308.65 507.81 309.93 502.43 310.81 496.98 C 311.63 494.07 309.53 491.17 306.88 490.13 C 294.49 483.96 279.21 482.78 266.41 488.40 M 348.49 486.38 C 340.98 488.49 333.61 492.81 329.73 499.81 C 325.33 507.37 326.02 517.67 331.67 524.42 C 336.61 530.41 344.04 533.42 351.00 536.38 C 356.98 538.97 363.62 540.87 368.33 545.62 C 372.11 549.23 371.79 555.32 369.65 559.71 C 368.34 563.17 364.17 563.76 360.97 564.16 C 354.54 564.66 347.52 564.49 341.92 560.92 C 339.79 556.50 339.28 551.43 338.12 546.69 C 334.37 546.66 330.59 546.52 326.87 547.05 C 326.15 552.97 326.31 558.97 326.35 564.94 C 326.22 566.53 327.99 567.15 329.08 567.89 C 337.63 572.44 347.48 574.02 357.08 574.03 C 366.25 573.86 376.13 571.73 382.82 565.02 C 390.92 557.22 391.05 542.87 382.98 535.01 C 373.97 526.17 360.65 524.51 350.61 517.29 C 346.11 514.25 343.40 508.50 344.72 503.12 C 345.23 500.66 345.77 497.61 348.27 496.37 C 355.31 493.04 363.90 493.51 370.63 497.42 C 371.99 502.49 372.85 507.69 373.30 512.92 C 376.86 513.39 380.45 513.39 384.04 513.32 C 385.31 507.89 386.40 502.42 387.24 496.91 C 387.85 494.87 386.61 493.08 385.80 491.32 C 374.56 485.17 360.94 483.03 348.49 486.38 M 416.01 490.13 C 409.76 493.66 404.73 499.81 403.70 507.04 C 402.40 514.41 405.07 522.40 410.84 527.24 C 419.42 534.60 430.89 536.78 440.54 542.27 C 444.43 544.40 447.98 548.23 447.73 552.96 C 447.60 557.06 446.21 562.48 441.52 563.38 C 433.79 565.15 425.16 564.86 418.10 560.93 C 416.74 556.26 415.43 551.56 414.76 546.74 C 410.84 546.58 406.92 546.66 403.02 546.99 C 402.82 553.40 402.93 559.81 402.85 566.22 C 411.16 571.73 421.28 573.58 431.07 574.03 C 440.97 574.20 451.81 572.33 459.17 565.18 C 467.44 557.34 467.50 542.59 459.22 534.73 C 452.69 528.52 443.86 525.84 435.82 522.18 C 431.24 520.06 426.41 517.75 423.34 513.58 C 420.13 509.26 420.37 503.19 422.61 498.50 C 423.47 496.37 425.95 495.76 427.94 495.15 C 434.28 493.43 441.86 493.69 447.18 497.90 C 448.81 502.80 449.08 508.02 450.01 513.08 C 453.57 513.34 457.15 513.39 460.72 513.27 C 461.65 507.13 463.33 501.11 463.99 494.94 C 463.16 490.97 458.98 489.66 455.72 488.28 C 443.06 483.45 427.96 483.20 416.01 490.13 M 476.87 487.03 C 476.03 492.97 476.40 499.00 476.36 504.98 C 476.50 507.16 476.33 509.48 477.13 511.53 C 480.67 512.28 484.31 512.01 487.90 512.01 C 489.10 506.74 490.36 501.48 491.36 496.17 C 496.50 495.64 501.66 495.24 506.84 495.30 C 506.84 517.58 507.39 539.89 505.92 562.14 C 502.40 563.44 498.73 564.29 495.19 565.53 C 495.40 567.69 495.91 569.81 496.29 571.96 C 508.84 572.06 521.38 571.96 533.93 572.01 C 534.47 569.82 534.86 567.61 535.13 565.39 C 531.70 564.42 527.75 563.73 525.19 561.11 C 523.30 556.67 524.27 551.65 523.69 546.98 C 523.74 529.73 523.43 512.47 523.85 495.24 C 528.93 495.24 534.01 495.63 539.07 496.06 C 540.18 501.12 541.48 506.14 542.19 511.27 C 545.70 512.00 549.30 511.99 552.86 511.69 C 553.33 504.80 554.39 497.96 554.63 491.06 C 554.34 489.08 552.73 487.60 551.78 485.91 C 526.85 487.68 501.83 486.51 476.87 487.03 M 563.92 486.93 C 560.96 486.92 562.06 491.18 561.12 493.18 C 564.71 494.57 569.23 495.00 571.66 498.29 C 572.88 504.41 572.76 510.70 572.90 516.92 C 572.83 532.02 573.22 547.14 571.94 562.20 C 568.43 563.35 564.91 564.48 561.30 565.25 C 561.60 567.47 561.94 569.69 562.29 571.91 C 586.23 572.11 610.16 571.95 634.10 572.00 C 634.30 563.96 634.32 555.94 634.10 547.91 C 630.43 547.63 626.76 547.63 623.09 547.67 C 621.56 552.49 621.13 557.74 619.17 562.37 C 610.01 563.41 600.33 564.35 591.35 561.70 C 590.62 559.56 590.09 557.34 590.08 555.08 C 589.98 548.25 589.44 541.44 589.69 534.61 C 598.79 535.15 607.91 535.14 617.03 535.34 C 617.49 531.84 619.71 527.82 617.09 524.69 C 607.94 524.64 598.83 525.44 589.70 525.67 C 589.47 517.43 590.18 509.20 590.15 500.96 C 590.45 499.34 589.64 496.35 592.02 496.09 C 600.49 494.59 609.12 495.59 617.62 496.27 C 618.65 501.05 619.35 505.90 620.39 510.68 C 623.78 511.46 627.31 511.01 630.76 511.09 C 631.61 504.28 633.21 497.60 634.08 490.81 C 633.65 488.87 632.10 487.47 631.05 485.87 C 608.71 487.54 586.29 486.64 563.92 486.93 M 197.95 486.90 C 197.46 488.98 196.99 491.07 196.54 493.18 C 200.34 494.91 206.80 494.92 207.49 500.09 C 208.30 505.02 207.88 510.03 208.01 515.01 C 208.52 524.65 208.49 534.32 208.01 543.96 C 207.93 550.06 208.13 556.20 207.35 562.27 C 203.81 563.32 200.30 564.46 196.71 565.33 C 196.97 567.57 197.37 569.81 197.93 572.00 C 210.49 571.92 223.05 572.16 235.60 571.88 C 235.98 569.77 236.38 567.68 236.83 565.61 C 233.33 564.17 228.79 563.89 226.38 560.67 C 224.69 552.90 225.21 544.86 225.11 536.97 C 225.24 523.44 224.63 509.86 226.14 496.39 C 229.73 495.49 233.25 494.35 236.79 493.27 C 236.07 491.32 236.63 488.36 235.06 487.02 C 222.70 486.70 210.32 486.98 197.95 486.90 Z" />
<path fill="#ffffff" opacity="1.00" d=" M 394.39 211.23 C 397.26 211.04 400.38 210.57 403.00 212.10 C 407.26 214.19 408.78 219.42 408.52 223.84 C 407.65 230.41 402.88 235.49 398.26 239.85 C 399.12 241.77 401.91 243.88 400.13 246.08 C 395.99 251.76 395.22 259.93 399.12 265.93 C 399.86 267.77 402.50 269.37 401.51 271.52 C 397.70 278.81 393.84 286.60 394.05 295.03 C 394.48 300.31 395.83 306.41 400.56 309.50 C 403.94 311.60 407.69 309.59 410.40 307.40 C 412.89 304.96 415.43 310.23 418.15 308.30 C 419.91 306.19 419.88 302.86 422.33 301.27 C 423.80 300.35 425.45 301.64 426.68 302.42 C 428.54 303.89 430.54 305.60 431.19 307.98 C 429.94 313.58 430.42 319.32 430.17 325.01 C 426.78 325.48 423.19 324.79 419.93 325.86 C 416.68 328.72 418.23 333.82 416.34 337.33 C 415.54 338.80 412.74 340.14 412.13 337.83 C 410.96 333.82 410.59 329.22 412.29 325.30 C 414.52 320.98 419.57 319.73 423.49 317.49 C 426.13 315.04 426.24 310.73 424.88 307.58 C 423.13 309.10 422.45 311.37 421.16 313.23 C 416.29 316.78 408.40 315.30 405.07 321.03 C 402.45 326.83 402.59 333.68 404.42 339.70 C 407.83 345.09 414.64 346.56 419.88 349.58 C 419.34 351.63 416.94 352.46 415.53 353.88 C 410.51 349.38 405.66 344.65 400.11 340.79 C 392.80 335.50 384.45 331.90 376.05 328.74 C 371.64 326.90 366.87 325.12 363.71 321.34 C 361.42 318.82 361.71 315.17 361.34 312.03 C 360.71 298.70 359.82 285.17 362.50 272.00 C 363.77 265.51 366.80 259.26 371.72 254.76 C 375.16 251.34 379.61 249.26 383.49 246.41 C 385.24 245.17 386.37 243.13 386.33 240.96 C 386.47 236.17 385.09 231.51 383.68 226.99 C 389.39 223.70 394.43 218.19 394.39 211.23 Z" />
<path fill="#ffffff" opacity="1.00" d=" M 418.55 254.99 C 419.94 255.28 421.67 254.97 422.75 256.09 C 423.59 258.29 423.99 260.62 424.51 262.92 C 422.97 265.04 420.43 267.10 421.00 270.04 C 421.12 272.00 423.21 273.14 424.95 273.50 C 430.06 274.80 435.25 273.32 440.20 272.05 C 438.17 276.30 435.32 281.03 430.48 282.33 C 426.82 283.01 421.63 281.68 419.66 285.83 C 418.53 290.36 420.12 295.21 418.84 299.72 C 414.00 300.07 408.75 300.69 404.15 298.83 C 400.10 295.65 399.69 289.21 401.78 284.77 C 404.70 279.39 408.61 274.55 411.05 268.90 C 411.97 267.02 411.56 264.89 411.50 262.89 C 415.50 262.26 418.75 259.25 418.55 254.99 Z" />
<path fill="#ffffff" opacity="1.00" d=" M 312.85 268.90 C 315.04 267.65 318.52 267.57 319.36 270.48 C 321.61 279.53 323.32 288.71 325.30 297.82 C 325.75 300.41 326.56 303.46 324.79 305.75 C 323.03 307.70 319.43 306.91 318.52 304.49 C 316.99 300.53 316.89 296.22 316.15 292.08 C 315.15 284.34 313.53 276.68 312.85 268.90 Z" />
<path fill="#ffffff" opacity="1.00" d=" M 529.86 269.89 C 530.94 268.86 532.76 267.66 534.22 268.69 C 536.16 269.64 536.58 271.99 536.74 273.94 C 537.29 285.60 536.65 297.29 537.34 308.95 C 537.47 315.26 538.59 321.68 537.14 327.92 C 536.04 333.59 533.19 338.67 530.83 343.88 C 526.34 353.34 522.51 363.12 517.56 372.36 C 515.61 376.23 512.62 379.57 508.90 381.79 C 488.27 393.19 466.18 401.59 445.19 412.25 C 434.69 417.36 424.97 423.85 415.22 430.22 C 387.19 409.26 353.27 398.95 322.83 382.28 C 318.59 380.02 315.31 376.26 313.13 372.04 C 308.16 362.70 304.33 352.81 299.73 343.30 C 296.36 336.38 292.55 329.04 293.51 321.08 C 295.45 307.13 295.91 293.03 296.35 278.97 C 296.47 275.19 297.17 269.84 301.72 269.06 C 304.47 270.15 305.58 273.21 305.83 275.94 C 307.56 290.61 309.23 305.30 311.54 319.89 C 312.69 326.65 313.87 333.63 317.46 339.59 C 322.12 347.42 329.44 353.35 337.45 357.52 C 343.38 360.69 349.20 364.74 356.01 365.68 C 358.94 366.23 361.69 363.88 362.00 361.00 C 361.85 358.61 359.82 357.01 357.97 355.83 C 349.74 350.78 341.01 346.51 333.19 340.80 C 327.30 336.70 324.30 328.69 325.85 321.78 C 329.09 321.45 332.15 322.66 334.95 324.15 C 354.25 334.35 374.64 342.44 393.40 353.66 C 403.23 359.56 408.57 370.42 412.08 380.92 C 413.89 386.54 414.92 392.37 415.54 398.23 C 416.23 388.24 419.08 378.44 423.57 369.51 C 427.06 362.46 432.52 356.35 439.41 352.49 C 456.47 342.74 474.55 334.96 492.10 326.16 C 496.19 324.12 500.28 321.27 505.09 321.74 C 506.18 325.97 504.90 330.42 503.28 334.34 C 499.06 341.90 490.51 345.13 483.57 349.60 C 479.15 352.56 473.90 354.35 470.11 358.17 C 467.40 360.58 469.85 365.20 473.06 365.62 C 477.08 366.03 480.86 364.11 484.41 362.45 C 494.94 356.88 506.28 351.19 512.72 340.66 C 516.67 334.76 517.95 327.67 519.33 320.85 C 521.71 308.61 524.05 296.36 525.87 284.03 C 526.62 279.21 526.48 273.79 529.86 269.89 Z" />
<path fill="#ffffff" opacity="1.00" d=" M 512.40 270.46 C 513.13 268.50 515.59 269.13 517.20 268.61 C 517.50 270.76 517.38 272.94 516.97 275.06 C 515.41 283.89 514.09 292.76 512.40 301.56 C 512.09 304.09 509.81 306.97 506.98 306.09 C 505.41 304.82 506.07 302.65 506.19 300.94 C 507.50 292.93 509.18 285.00 510.70 277.04 C 511.16 274.82 511.36 272.50 512.40 270.46 Z" />
<path fill="#ffffff" opacity="1.00" d=" M 330.20 284.38 C 332.21 283.38 334.34 285.18 334.58 287.19 C 335.46 292.49 335.98 297.85 337.21 303.08 C 337.54 304.99 338.22 306.96 337.78 308.91 C 335.75 311.03 332.48 308.46 332.39 306.00 C 331.47 299.32 330.21 292.67 329.41 285.97 C 329.61 285.57 330.00 284.78 330.20 284.38 Z" />
<path fill="#ffffff" opacity="1.00" d=" M 493.43 300.93 C 494.97 294.86 493.77 287.27 499.06 282.81 C 501.53 285.72 500.20 289.52 500.10 292.91 C 499.64 297.53 500.09 302.29 498.75 306.79 C 498.29 308.50 496.71 309.52 495.12 310.04 C 491.29 308.71 493.21 303.86 493.43 300.93 Z" />
<path fill="#ffffff" opacity="1.00" d=" M 344.24 296.06 C 345.77 296.06 347.59 296.25 348.00 298.06 C 349.51 302.96 350.27 308.08 351.23 313.11 C 351.84 315.03 348.97 316.88 347.50 315.42 C 345.88 314.30 345.92 312.11 345.43 310.40 C 344.76 305.66 343.00 300.86 344.24 296.06 Z" />
<path fill="#ffffff" opacity="1.00" d=" M 484.06 296.09 C 487.26 294.98 486.04 299.05 486.16 300.89 C 485.53 305.45 486.23 310.24 484.69 314.64 C 483.99 316.59 481.03 316.46 480.21 314.67 C 478.69 310.83 480.42 306.79 481.04 302.94 C 481.73 300.59 481.59 297.41 484.06 296.09 Z" />
</g>
<g id="#ca9656ff">
<path fill="#ca9656" opacity="1.00" d=" M 453.13 88.47 C 453.76 86.99 457.18 86.95 456.79 88.95 C 455.54 88.98 454.32 88.77 453.13 88.47 Z" />
<path fill="#ca9656" opacity="1.00" d=" M 358.23 90.87 C 357.72 88.90 361.13 88.76 361.81 90.24 C 360.64 90.58 359.45 90.88 358.23 90.87 Z" />
<path fill="#ca9656" opacity="1.00" d=" M 466.21 90.25 C 466.87 88.75 470.29 88.90 469.79 90.88 C 468.56 90.86 467.37 90.59 466.21 90.25 Z" />
<path fill="#ca9656" opacity="1.00" d=" M 352.11 91.92 C 352.54 90.22 353.47 90.01 354.92 91.29 C 354.05 91.82 353.11 92.03 352.11 91.92 Z" />
<path fill="#ca9656" opacity="1.00" d=" M 472.19 91.20 C 472.88 89.76 476.32 89.91 475.77 91.88 C 474.53 91.87 473.34 91.56 472.19 91.20 Z" />
<path fill="#ca9656" opacity="1.00" d=" M 347.35 92.01 L 348.38 91.69 L 349.12 92.26 C 348.61 92.42 347.60 92.73 347.10 92.88 L 347.35 92.01 Z" />
<path fill="#ca9656" opacity="1.00" d=" M 478.10 92.17 C 479.56 90.95 480.49 91.20 480.86 92.91 C 479.85 92.99 478.92 92.74 478.10 92.17 Z" />
<path fill="#ca9656" opacity="1.00" d=" M 342.15 93.91 C 342.51 92.19 343.44 91.95 344.91 93.19 C 344.07 93.75 343.15 93.99 342.15 93.91 Z" />
<path fill="#ca9656" opacity="1.00" d=" M 483.13 93.15 C 484.62 91.94 485.54 92.20 485.88 93.93 C 484.86 93.98 483.95 93.72 483.13 93.15 Z" />
<path fill="#ca9656" opacity="1.00" d=" M 337.08 94.89 C 337.55 93.20 338.49 93.00 339.92 94.30 C 339.03 94.81 338.09 95.01 337.08 94.89 Z" />
<path fill="#ca9656" opacity="1.00" d=" M 487.16 94.20 C 487.87 92.73 491.21 92.94 490.78 94.89 C 489.53 94.86 488.33 94.58 487.16 94.20 Z" />
<path fill="#ca9656" opacity="1.00" d=" M 333.19 96.00 C 333.47 94.26 334.38 93.98 335.93 95.15 C 335.10 95.74 334.19 96.02 333.19 96.00 Z" />
<path fill="#ca9656" opacity="1.00" d=" M 492.08 95.20 C 493.53 93.96 494.46 94.20 494.89 95.91 C 493.86 95.99 492.93 95.75 492.08 95.20 Z" />
<path fill="#ca9656" opacity="1.00" d=" M 496.05 96.18 C 497.51 94.94 498.44 95.18 498.84 96.89 C 497.82 96.98 496.89 96.74 496.05 96.18 Z" />
<path fill="#ca9656" opacity="1.00" d=" M 500.05 97.23 C 501.50 95.98 502.44 96.21 502.86 97.92 C 501.84 98.00 500.90 97.78 500.05 97.23 Z" />
<path fill="#ca9656" opacity="1.00" d=" M 503.96 98.10 L 504.74 97.61 L 505.73 98.05 L 505.89 98.96 C 505.41 98.74 504.44 98.31 503.96 98.10 Z" />
<path fill="#ca9656" opacity="1.00" d=" M 309.25 101.98 L 310.28 101.62 L 311.05 102.18 C 310.55 102.35 309.54 102.69 309.04 102.86 L 309.25 101.98 Z" />
<path fill="#ca9656" opacity="1.00" d=" M 516.98 102.19 L 517.74 101.62 L 518.78 101.97 L 519.00 102.85 C 518.49 102.69 517.49 102.36 516.98 102.19 Z" />
<path fill="#ca9656" opacity="1.00" d=" M 306.18 102.99 L 307.18 102.56 L 307.96 103.05 C 307.47 103.26 306.50 103.68 306.02 103.89 L 306.18 102.99 Z" />
<path fill="#ca9656" opacity="1.00" d=" M 519.99 103.04 L 520.77 102.55 L 521.77 102.97 L 521.94 103.87 C 521.46 103.66 520.48 103.25 519.99 103.04 Z" />
<path fill="#ca9656" opacity="1.00" d=" M 303.18 104.05 L 304.14 103.55 L 304.95 103.99 C 304.48 104.23 303.54 104.71 303.07 104.95 L 303.18 104.05 Z" />
<path fill="#ca9656" opacity="1.00" d=" M 523.02 104.01 L 523.82 103.55 L 524.80 104.01 L 524.93 104.91 C 524.46 104.68 523.50 104.23 523.02 104.01 Z" />
<path fill="#ca9656" opacity="1.00" d=" M 275.03 115.31 C 284.11 111.86 292.80 106.99 302.38 105.10 C 284.14 111.74 266.35 119.66 249.46 129.26 C 244.17 132.19 239.08 135.47 233.78 138.40 C 239.23 133.41 246.17 130.39 252.44 126.57 C 260.06 122.99 267.56 119.17 275.03 115.31 Z" />
<path fill="#ca9656" opacity="1.00" d=" M 525.67 105.07 C 534.95 106.92 543.33 111.62 552.13 114.93 C 556.17 116.93 560.11 119.12 564.33 120.75 C 569.78 124.14 575.86 126.31 581.21 129.88 C 585.55 132.66 590.90 134.35 594.22 138.42 C 587.47 134.61 580.98 130.35 574.11 126.74 C 558.57 118.23 542.29 111.18 525.67 105.07 Z" />
<path fill="#ca9656" opacity="1.00" d=" M 231.20 139.06 L 232.17 138.57 L 232.99 139.02 C 232.52 139.26 231.58 139.73 231.10 139.97 L 231.20 139.06 Z" />
<path fill="#ca9656" opacity="1.00" d=" M 595.04 139.03 L 595.86 138.60 L 596.82 139.11 L 596.90 140.02 C 596.44 139.77 595.50 139.28 595.04 139.03 Z" />
<path fill="#ca9656" opacity="1.00" d=" M 228.19 141.19 L 229.12 140.62 L 229.96 141.01 C 229.51 141.28 228.61 141.84 228.17 142.12 L 228.19 141.19 Z" />
<path fill="#ca9656" opacity="1.00" d=" M 598.01 141.02 L 598.82 140.57 L 599.79 141.06 L 599.89 141.96 C 599.42 141.73 598.48 141.25 598.01 141.02 Z" />
<path fill="#ca9656" opacity="1.00" d=" M 222.40 146.19 C 221.57 143.94 224.89 141.91 226.74 143.19 C 225.42 144.37 223.97 145.38 222.40 146.19 Z" />
<path fill="#ca9656" opacity="1.00" d=" M 601.02 142.98 L 601.88 142.63 L 602.78 143.23 L 602.78 144.15 C 602.34 143.86 601.46 143.28 601.02 142.98 Z" />
<path fill="#ca9656" opacity="1.00" d=" M 603.82 144.79 C 607.99 145.95 610.90 149.37 614.42 151.68 C 634.68 166.35 652.83 183.80 669.31 202.58 C 670.30 203.57 670.83 204.87 671.28 206.18 C 651.59 182.87 628.79 162.30 603.82 144.79 Z" />
<path fill="#ca9656" opacity="1.00" d=" M 218.32 149.13 C 217.07 147.60 219.83 145.69 221.00 147.13 C 220.22 147.94 219.33 148.64 218.32 149.13 Z" />
<path fill="#ca9656" opacity="1.00" d=" M 198.64 163.46 C 200.59 161.62 202.56 159.65 205.22 158.88 C 200.72 162.87 195.95 166.53 191.54 170.60 C 178.94 181.50 167.55 193.71 156.66 206.30 C 157.22 204.13 158.75 202.50 160.26 200.95 C 172.03 187.48 184.77 174.79 198.64 163.46 Z" />
<path fill="#ca9656" opacity="1.00" d=" M 386.79 197.70 C 393.67 195.52 401.39 194.98 408.19 197.69 C 412.70 199.55 415.54 204.17 415.95 208.93 C 416.57 215.95 415.36 222.96 415.19 229.97 C 415.20 234.88 410.09 237.07 407.38 240.40 C 406.51 242.42 409.29 243.58 410.93 243.12 C 416.08 242.92 422.87 242.04 426.31 246.84 C 428.78 253.46 430.36 260.42 433.05 266.98 C 436.81 265.82 440.33 264.02 444.04 262.73 C 449.32 261.42 454.13 268.04 450.67 272.50 C 445.14 280.35 438.13 287.22 430.33 292.81 C 433.28 295.96 436.17 299.52 436.91 303.90 C 437.83 310.25 437.04 316.68 437.49 323.06 C 437.71 326.06 437.75 329.09 437.59 332.10 C 433.75 332.19 429.22 331.28 426.13 334.19 C 423.63 336.83 423.24 340.85 423.65 344.32 C 425.06 343.89 426.51 343.49 427.83 342.79 C 441.04 335.57 454.79 329.36 467.78 321.73 C 468.84 321.19 469.63 320.19 469.67 318.97 C 471.08 306.37 472.36 293.75 472.82 281.08 C 472.63 275.19 472.45 268.84 469.30 263.66 C 466.69 259.24 460.76 258.47 458.13 254.08 C 452.87 245.57 449.67 235.68 442.79 228.24 C 440.81 225.82 437.76 224.94 434.90 224.06 C 432.95 225.13 430.73 226.54 430.77 229.08 C 430.39 234.46 431.46 240.57 435.82 244.22 C 438.16 245.54 436.88 250.02 434.07 249.04 C 424.16 245.27 420.81 233.55 421.09 223.88 C 421.83 212.96 434.45 205.09 444.62 208.53 C 456.53 215.04 466.42 226.49 468.76 240.13 C 472.91 244.08 477.53 247.77 480.13 253.03 C 484.24 260.70 485.02 269.89 483.02 278.30 C 490.69 270.87 498.26 263.34 505.83 255.81 C 510.81 250.56 517.04 244.74 524.89 245.69 C 528.85 245.68 531.77 248.50 535.06 250.25 C 538.01 250.08 541.08 248.59 543.97 249.89 C 548.31 251.64 550.45 256.49 550.40 260.96 C 551.07 277.62 550.92 294.32 551.69 310.99 C 551.67 318.98 552.26 327.10 550.24 334.92 C 548.54 342.52 544.75 349.38 541.16 356.20 C 536.35 366.08 531.95 376.19 528.49 386.63 C 526.75 391.95 522.87 396.46 517.98 399.15 C 512.91 402.00 507.33 403.72 502.04 406.09 C 471.95 419.04 442.16 433.20 415.12 451.85 C 392.63 436.77 368.58 424.09 343.69 413.43 C 334.26 409.24 324.54 405.59 315.61 400.36 C 310.31 397.23 305.40 393.01 302.80 387.31 C 296.04 373.09 289.93 358.57 284.15 343.92 C 281.46 336.91 278.55 329.66 278.96 322.00 C 279.46 300.63 281.85 279.36 283.52 258.06 C 283.66 254.51 284.01 250.46 287.15 248.19 C 290.47 245.36 295.03 246.17 298.87 247.27 C 302.84 241.75 310.92 241.36 316.51 244.48 C 320.34 246.51 322.70 250.27 325.46 253.46 C 332.54 261.72 339.85 269.79 347.10 277.91 C 348.17 279.14 349.39 280.24 350.68 281.26 C 350.99 271.99 351.22 262.21 355.72 253.85 C 359.61 246.77 366.49 242.02 373.62 238.61 C 377.27 236.83 374.98 232.20 374.58 229.22 C 372.44 222.66 371.97 215.32 374.83 208.90 C 376.86 203.59 381.36 199.36 386.79 197.70 M 394.39 211.23 C 394.43 218.19 389.39 223.70 383.68 226.99 C 385.09 231.51 386.47 236.17 386.33 240.96 C 386.37 243.13 385.24 245.17 383.49 246.41 C 379.61 249.26 375.16 251.34 371.72 254.76 C 366.80 259.26 363.77 265.51 362.50 272.00 C 359.82 285.17 360.71 298.70 361.34 312.03 C 361.71 315.17 361.42 318.82 363.71 321.34 C 366.87 325.12 371.64 326.90 376.05 328.74 C 384.45 331.90 392.80 335.50 400.11 340.79 C 405.66 344.65 410.51 349.38 415.53 353.88 C 416.94 352.46 419.34 351.63 419.88 349.58 C 414.64 346.56 407.83 345.09 404.42 339.70 C 402.59 333.68 402.45 326.83 405.07 321.03 C 408.40 315.30 416.29 316.78 421.16 313.23 C 422.45 311.37 423.13 309.10 424.88 307.58 C 426.24 310.73 426.13 315.04 423.49 317.49 C 419.57 319.73 414.52 320.98 412.29 325.30 C 410.59 329.22 410.96 333.82 412.13 337.83 C 412.74 340.14 415.54 338.80 416.34 337.33 C 418.23 333.82 416.68 328.72 419.93 325.86 C 423.19 324.79 426.78 325.48 430.17 325.01 C 430.42 319.32 429.94 313.58 431.19 307.98 C 430.54 305.60 428.54 303.89 426.68 302.42 C 425.45 301.64 423.80 300.35 422.33 301.27 C 419.88 302.86 419.91 306.19 418.15 308.30 C 415.43 310.23 412.89 304.96 410.40 307.40 C 407.69 309.59 403.94 311.60 400.56 309.50 C 395.83 306.41 394.48 300.31 394.05 295.03 C 393.84 286.60 397.70 278.81 401.51 271.52 C 402.50 269.37 399.86 267.77 399.12 265.93 C 395.22 259.93 395.99 251.76 400.13 246.08 C 401.91 243.88 399.12 241.77 398.26 239.85 C 402.88 235.49 407.65 230.41 408.52 223.84 C 408.78 219.42 407.26 214.19 403.00 212.10 C 400.38 210.57 397.26 211.04 394.39 211.23 M 418.55 254.99 C 418.75 259.25 415.50 262.26 411.50 262.89 C 411.56 264.89 411.97 267.02 411.05 268.90 C 408.61 274.55 404.70 279.39 401.78 284.77 C 399.69 289.21 400.10 295.65 404.15 298.83 C 408.75 300.69 414.00 300.07 418.84 299.72 C 420.12 295.21 418.53 290.36 419.66 285.83 C 421.63 281.68 426.82 283.01 430.48 282.33 C 435.32 281.03 438.17 276.30 440.20 272.05 C 435.25 273.32 430.06 274.80 424.95 273.50 C 423.21 273.14 421.12 272.00 421.00 270.04 C 420.43 267.10 422.97 265.04 424.51 262.92 C 423.99 260.62 423.59 258.29 422.75 256.09 C 421.67 254.97 419.94 255.28 418.55 254.99 M 312.85 268.90 C 313.53 276.68 315.15 284.34 316.15 292.08 C 316.89 296.22 316.99 300.53 318.52 304.49 C 319.43 306.91 323.03 307.70 324.79 305.75 C 326.56 303.46 325.75 300.41 325.30 297.82 C 323.32 288.71 321.61 279.53 319.36 270.48 C 318.52 267.57 315.04 267.65 312.85 268.90 M 529.86 269.89 C 526.48 273.79 526.62 279.21 525.87 284.03 C 524.05 296.36 521.71 308.61 519.33 320.85 C 517.95 327.67 516.67 334.76 512.72 340.66 C 506.28 351.19 494.94 356.88 484.41 362.45 C 480.86 364.11 477.08 366.03 473.06 365.62 C 469.85 365.20 467.40 360.58 470.11 358.17 C 473.90 354.35 479.15 352.56 483.57 349.60 C 490.51 345.13 499.06 341.90 503.28 334.34 C 504.90 330.42 506.18 325.97 505.09 321.74 C 500.28 321.27 496.19 324.12 492.10 326.16 C 474.55 334.96 456.47 342.74 439.41 352.49 C 432.52 356.35 427.06 362.46 423.57 369.51 C 419.08 378.44 416.23 388.24 415.54 398.23 C 414.92 392.37 413.89 386.54 412.08 380.92 C 408.57 370.42 403.23 359.56 393.40 353.66 C 374.64 342.44 354.25 334.35 334.95 324.15 C 332.15 322.66 329.09 321.45 325.85 321.78 C 324.30 328.69 327.30 336.70 333.19 340.80 C 341.01 346.51 349.74 350.78 357.97 355.83 C 359.82 357.01 361.85 358.61 362.00 361.00 C 361.69 363.88 358.94 366.23 356.01 365.68 C 349.20 364.74 343.38 360.69 337.45 357.52 C 329.44 353.35 322.12 347.42 317.46 339.59 C 313.87 333.63 312.69 326.65 311.54 319.89 C 309.23 305.30 307.56 290.61 305.83 275.94 C 305.58 273.21 304.47 270.15 301.72 269.06 C 297.17 269.84 296.47 275.19 296.35 278.97 C 295.91 293.03 295.45 307.13 293.51 321.08 C 292.55 329.04 296.36 336.38 299.73 343.30 C 304.33 352.81 308.16 362.70 313.13 372.04 C 315.31 376.26 318.59 380.02 322.83 382.28 C 353.27 398.95 387.19 409.26 415.22 430.22 C 424.97 423.85 434.69 417.36 445.19 412.25 C 466.18 401.59 488.27 393.19 508.90 381.79 C 512.62 379.57 515.61 376.23 517.56 372.36 C 522.51 363.12 526.34 353.34 530.83 343.88 C 533.19 338.67 536.04 333.59 537.14 327.92 C 538.59 321.68 537.47 315.26 537.34 308.95 C 536.65 297.29 537.29 285.60 536.74 273.94 C 536.58 271.99 536.16 269.64 534.22 268.69 C 532.76 267.66 530.94 268.86 529.86 269.89 M 512.40 270.46 C 511.36 272.50 511.16 274.82 510.70 277.04 C 509.18 285.00 507.50 292.93 506.19 300.94 C 506.07 302.65 505.41 304.82 506.98 306.09 C 509.81 306.97 512.09 304.09 512.40 301.56 C 514.09 292.76 515.41 283.89 516.97 275.06 C 517.38 272.94 517.50 270.76 517.20 268.61 C 515.59 269.13 513.13 268.50 512.40 270.46 M 330.20 284.38 C 330.00 284.78 329.61 285.57 329.41 285.97 C 330.21 292.67 331.47 299.32 332.39 306.00 C 332.48 308.46 335.75 311.03 337.78 308.91 C 338.22 306.96 337.54 304.99 337.21 303.08 C 335.98 297.85 335.46 292.49 334.58 287.19 C 334.34 285.18 332.21 283.38 330.20 284.38 M 493.43 300.93 C 493.21 303.86 491.29 308.71 495.12 310.04 C 496.71 309.52 498.29 308.50 498.75 306.79 C 500.09 302.29 499.64 297.53 500.10 292.91 C 500.20 289.52 501.53 285.72 499.06 282.81 C 493.77 287.27 494.97 294.86 493.43 300.93 M 344.24 296.06 C 343.00 300.86 344.76 305.66 345.43 310.40 C 345.92 312.11 345.88 314.30 347.50 315.42 C 348.97 316.88 351.84 315.03 351.23 313.11 C 350.27 308.08 349.51 302.96 348.00 298.06 C 347.59 296.25 345.77 296.06 344.24 296.06 M 484.06 296.09 C 481.59 297.41 481.73 300.59 481.04 302.94 C 480.42 306.79 478.69 310.83 480.21 314.67 C 481.03 316.46 483.99 316.59 484.69 314.64 C 486.23 310.24 485.53 305.45 486.16 300.89 C 486.04 299.05 487.26 294.98 484.06 296.09 Z" />
<path fill="#ca9656" opacity="1.00" d=" M 671.80 206.81 C 673.81 208.10 676.02 209.64 676.18 212.29 C 674.71 210.46 673.24 208.65 671.80 206.81 Z" />
<path fill="#ca9656" opacity="1.00" d=" M 147.93 217.14 C 149.58 213.57 151.71 209.82 155.31 207.90 C 152.91 211.03 150.49 214.14 147.93 217.14 Z" />
<path fill="#ca9656" opacity="1.00" d=" M 676.98 213.39 C 678.81 212.09 681.30 215.31 679.81 216.90 C 678.75 215.82 677.79 214.65 676.98 213.39 Z" />
<path fill="#ca9656" opacity="1.00" d=" M 680.91 218.27 C 682.45 217.08 684.30 219.85 682.88 221.00 C 682.04 220.23 681.38 219.29 680.91 218.27 Z" />
<path fill="#ca9656" opacity="1.00" d=" M 683.90 222.26 C 685.44 221.08 687.28 223.84 685.88 225.00 C 685.03 224.22 684.38 223.28 683.90 222.26 Z" />
<path fill="#ca9656" opacity="1.00" d=" M 686.66 225.94 C 688.91 227.43 690.59 229.70 691.20 232.35 C 689.61 230.26 688.11 228.12 686.66 225.94 Z" />
<path fill="#ca9656" opacity="1.00" d=" M 131.81 238.59 C 134.30 235.37 135.70 230.99 139.34 228.87 C 133.93 236.82 128.79 244.94 123.79 253.16 C 125.08 247.65 129.20 243.48 131.81 238.59 Z" />
<path fill="#ca9656" opacity="1.00" d=" M 691.75 233.22 L 692.67 233.23 L 693.27 234.14 L 692.91 234.99 C 692.62 234.55 692.04 233.66 691.75 233.22 Z" />
<path fill="#ca9656" opacity="1.00" d=" M 700.51 246.84 C 701.77 247.41 702.57 248.58 703.23 249.76 C 707.42 257.25 711.76 264.66 715.43 272.44 C 716.98 276.06 719.59 279.39 719.90 283.44 C 714.05 270.92 707.53 258.73 700.51 246.84 Z" />
<path fill="#ca9656" opacity="1.00" d=" M 119.82 260.19 C 120.47 257.85 121.01 255.08 123.39 253.85 C 122.25 255.99 121.05 258.10 119.82 260.19 Z" />
<path fill="#ca9656" opacity="1.00" d=" M 114.90 267.82 C 116.30 265.40 116.96 262.29 119.50 260.75 C 112.66 273.61 106.49 286.82 101.11 300.35 C 101.24 296.18 103.77 292.71 105.14 288.90 C 108.02 281.70 111.27 274.67 114.90 267.82 Z" />
<path fill="#ca9656" opacity="1.00" d=" M 720.07 283.82 C 722.82 287.01 723.81 291.22 725.52 294.98 C 727.17 299.35 729.25 303.62 729.91 308.29 C 726.85 300.04 723.47 291.93 720.07 283.82 Z" />
<path fill="#ca9656" opacity="1.00" d=" M 95.30 316.76 C 93.69 315.50 94.60 311.58 96.88 312.30 C 96.49 313.83 95.90 315.30 95.30 316.76 Z" />
<path fill="#ca9656" opacity="1.00" d=" M 93.99 318.22 L 94.88 318.01 C 94.71 318.51 94.36 319.51 94.19 320.01 L 93.63 319.25 L 93.99 318.22 Z" />
<path fill="#ca9656" opacity="1.00" d=" M 734.05 321.08 L 734.95 321.20 L 735.42 322.18 L 734.95 322.98 C 734.72 322.51 734.27 321.55 734.05 321.08 Z" />
<path fill="#ca9656" opacity="1.00" d=" M 735.21 324.41 C 737.42 324.27 738.28 328.39 736.68 329.77 C 735.95 328.06 735.43 326.26 735.21 324.41 Z" />
<path fill="#ca9656" opacity="1.00" d=" M 90.10 331.28 L 91.00 331.09 C 90.80 331.58 90.40 332.56 90.21 333.05 L 89.69 332.28 L 90.10 331.28 Z" />
<path fill="#ca9656" opacity="1.00" d=" M 89.05 337.89 C 87.88 336.38 88.16 335.47 89.89 335.16 C 89.94 336.16 89.66 337.07 89.05 337.89 Z" />
<path fill="#ca9656" opacity="1.00" d=" M 88.05 341.85 C 86.88 340.33 87.17 339.42 88.90 339.12 C 88.94 340.12 88.66 341.04 88.05 341.85 Z" />
<path fill="#ca9656" opacity="1.00" d=" M 87.06 345.92 C 85.89 344.40 86.16 343.47 87.88 343.14 C 87.92 344.15 87.65 345.08 87.06 345.92 Z" />
<path fill="#ca9656" opacity="1.00" d=" M 86.28 349.93 C 84.97 348.48 85.17 347.55 86.89 347.13 C 86.98 348.12 86.77 349.06 86.28 349.93 Z" />
<path fill="#ca9656" opacity="1.00" d=" M 741.04 347.18 C 742.76 347.46 743.05 348.37 741.90 349.90 C 741.28 349.09 740.99 348.18 741.04 347.18 Z" />
<path fill="#ca9656" opacity="1.00" d=" M 742.09 351.21 C 744.03 350.77 744.19 354.12 742.75 354.83 C 742.35 353.65 742.08 352.44 742.09 351.21 Z" />
<path fill="#ca9656" opacity="1.00" d=" M 743.07 356.23 C 745.02 355.77 745.21 359.14 743.74 359.84 C 743.36 358.66 743.09 357.46 743.07 356.23 Z" />
<path fill="#ca9656" opacity="1.00" d=" M 83.24 365.82 C 81.75 365.12 81.95 361.73 83.92 362.25 C 83.89 363.47 83.60 364.65 83.24 365.82 Z" />
<path fill="#ca9656" opacity="1.00" d=" M 744.11 362.20 C 746.05 361.72 746.28 365.09 744.79 365.78 C 744.42 364.61 744.12 363.42 744.11 362.20 Z" />
<path fill="#ca9656" opacity="1.00" d=" M 82.36 371.00 C 81.04 369.57 81.21 368.62 82.90 368.15 C 83.02 369.15 82.85 370.10 82.36 371.00 Z" />
<path fill="#ca9656" opacity="1.00" d=" M 745.11 368.23 C 747.07 367.71 747.18 371.13 745.73 371.82 C 745.36 370.64 745.09 369.45 745.11 368.23 Z" />
<path fill="#ca9656" opacity="1.00" d=" M 81.40 377.99 C 80.06 376.58 80.23 375.63 81.92 375.15 C 82.04 376.14 81.87 377.09 81.40 377.99 Z" />
<path fill="#ca9656" opacity="1.00" d=" M 748.13 393.05 L 749.03 392.99 C 749.08 395.71 749.04 398.43 748.84 401.15 C 748.62 398.44 748.31 395.75 748.13 393.05 Z" />
<path fill="#ca9656" opacity="1.00" d=" M 748.13 449.96 C 748.30 447.24 748.64 444.54 748.85 441.83 C 749.06 444.53 749.08 447.24 749.04 449.96 L 748.13 449.96 Z" />
<path fill="#ca9656" opacity="1.00" d=" M 747.10 460.73 C 747.11 458.91 747.37 457.12 747.69 455.34 C 749.09 456.57 749.37 460.60 747.10 460.73 Z" />
<path fill="#ca9656" opacity="1.00" d=" M 746.04 468.76 C 746.08 467.23 746.36 465.73 746.70 464.25 C 748.12 465.21 748.18 468.99 746.04 468.76 Z" />
<path fill="#ca9656" opacity="1.00" d=" M 81.40 465.02 C 81.87 465.91 82.04 466.85 81.91 467.86 C 80.22 467.37 80.05 466.42 81.40 465.02 Z" />
<path fill="#ca9656" opacity="1.00" d=" M 82.26 471.16 C 82.61 472.32 82.89 473.52 82.89 474.77 C 80.92 475.25 80.80 471.84 82.26 471.16 Z" />
<path fill="#ca9656" opacity="1.00" d=" M 83.25 477.19 C 83.61 478.35 83.89 479.55 83.90 480.79 C 81.94 481.25 81.77 477.87 83.25 477.19 Z" />
<path fill="#ca9656" opacity="1.00" d=" M 744.10 480.95 C 744.23 480.44 744.51 479.42 744.64 478.91 L 745.26 479.64 L 744.97 480.69 L 744.10 480.95 Z" />
<path fill="#ca9656" opacity="1.00" d=" M 84.28 483.21 C 84.64 484.38 84.90 485.58 84.95 486.82 C 82.98 487.29 82.80 483.90 84.28 483.21 Z" />
<path fill="#ca9656" opacity="1.00" d=" M 743.08 486.80 C 743.09 485.55 743.38 484.34 743.76 483.16 C 745.20 483.88 745.02 487.24 743.08 486.80 Z" />
<path fill="#ca9656" opacity="1.00" d=" M 85.25 488.16 C 85.63 489.34 85.90 490.55 85.92 491.81 C 83.97 492.23 83.81 488.88 85.25 488.16 Z" />
<path fill="#ca9656" opacity="1.00" d=" M 742.09 491.89 C 741.98 490.87 742.18 489.92 742.71 489.05 C 743.99 490.48 743.78 491.42 742.09 491.89 Z" />
<path fill="#ca9656" opacity="1.00" d=" M 86.13 493.11 C 86.72 493.92 87.00 494.84 86.94 495.86 C 85.22 495.53 84.95 494.62 86.13 493.11 Z" />
<path fill="#ca9656" opacity="1.00" d=" M 741.11 495.84 C 741.04 494.82 741.31 493.90 741.92 493.09 C 743.09 494.59 742.82 495.51 741.11 495.84 Z" />
<path fill="#ca9656" opacity="1.00" d=" M 87.05 496.75 C 87.71 499.62 88.38 502.49 89.02 505.37 C 87.21 502.90 87.09 499.68 87.05 496.75 Z" />
<path fill="#ca9656" opacity="1.00" d=" M 740.10 500.86 C 739.99 499.84 740.21 498.90 740.76 498.04 C 742.01 499.49 741.79 500.43 740.10 500.86 Z" />
<path fill="#ca9656" opacity="1.00" d=" M 739.12 504.84 C 739.02 503.82 739.25 502.89 739.82 502.04 C 741.06 503.47 740.82 504.40 739.12 504.84 Z" />
<path fill="#ca9656" opacity="1.00" d=" M 89.33 506.23 C 90.08 507.93 90.55 509.74 90.83 511.58 C 88.60 511.78 87.74 507.61 89.33 506.23 Z" />
<path fill="#ca9656" opacity="1.00" d=" M 737.16 511.53 C 737.44 509.69 737.99 507.91 738.71 506.20 C 740.30 507.56 739.41 511.75 737.16 511.53 Z" />
<path fill="#ca9656" opacity="1.00" d=" M 91.17 513.08 C 91.74 513.92 91.99 514.84 91.93 515.86 C 90.20 515.49 89.95 514.57 91.17 513.08 Z" />
<path fill="#ca9656" opacity="1.00" d=" M 92.16 516.93 C 92.34 517.43 92.69 518.43 92.86 518.93 L 91.98 518.70 L 91.62 517.68 L 92.16 516.93 Z" />
<path fill="#ca9656" opacity="1.00" d=" M 93.01 520.04 C 93.25 520.51 93.73 521.46 93.96 521.93 L 93.05 521.82 L 92.57 520.85 L 93.01 520.04 Z" />
<path fill="#ca9656" opacity="1.00" d=" M 733.05 525.54 C 733.39 523.72 733.93 521.95 734.67 520.25 C 736.24 521.65 735.34 525.82 733.05 525.54 Z" />
<path fill="#ca9656" opacity="1.00" d=" M 98.08 534.71 C 104.39 551.72 111.76 568.36 120.62 584.21 C 117.60 582.46 116.96 578.70 115.25 575.91 C 110.80 567.62 107.21 558.95 103.41 550.37 C 101.49 545.21 98.91 540.21 98.08 534.71 Z" />
<path fill="#ca9656" opacity="1.00" d=" M 695.58 604.27 C 704.96 589.20 713.55 573.65 720.86 557.47 C 720.44 562.51 716.98 566.58 715.06 571.13 C 710.55 581.19 704.66 590.53 699.09 600.02 C 698.17 601.62 697.15 603.21 695.58 604.27 Z" />
<path fill="#ca9656" opacity="1.00" d=" M 127.81 596.87 C 129.60 599.13 131.01 601.66 132.42 604.17 C 129.86 602.56 128.42 599.75 127.81 596.87 Z" />
<path fill="#ca9656" opacity="1.00" d=" M 133.09 605.04 C 133.37 605.49 133.92 606.39 134.20 606.84 L 133.28 606.80 L 132.71 605.88 L 133.09 605.04 Z" />
<path fill="#ca9656" opacity="1.00" d=" M 693.86 606.85 C 694.14 606.40 694.70 605.50 694.98 605.05 L 695.36 605.90 L 694.78 606.83 L 693.86 606.85 Z" />
<path fill="#ca9656" opacity="1.00" d=" M 135.07 608.07 C 135.37 608.50 135.98 609.37 136.28 609.80 L 135.36 609.81 L 134.73 608.92 L 135.07 608.07 Z" />
<path fill="#ca9656" opacity="1.00" d=" M 689.81 612.60 C 690.60 611.01 691.61 609.55 692.81 608.24 C 694.08 610.08 692.05 613.37 689.81 612.60 Z" />
<path fill="#ca9656" opacity="1.00" d=" M 136.79 610.71 C 141.31 616.85 145.85 622.98 150.35 629.13 C 147.50 627.64 146.23 624.47 144.20 622.13 C 141.64 618.40 138.09 615.15 136.79 610.71 Z" />
<path fill="#ca9656" opacity="1.00" d=" M 686.91 616.74 C 687.36 615.69 688.04 614.79 688.86 614.01 C 690.28 615.15 688.44 617.95 686.91 616.74 Z" />
<path fill="#ca9656" opacity="1.00" d=" M 684.73 619.81 C 685.04 619.38 685.66 618.53 685.97 618.10 L 686.29 618.96 L 685.65 619.84 L 684.73 619.81 Z" />
<path fill="#ca9656" opacity="1.00" d=" M 633.78 675.11 C 652.36 658.78 669.16 640.50 684.10 620.78 C 683.60 621.86 683.07 622.92 682.49 623.97 C 670.11 641.15 655.15 656.22 639.84 670.77 C 638.02 672.48 636.00 673.98 633.78 675.11 Z" />
<path fill="#ca9656" opacity="1.00" d=" M 150.92 629.84 C 165.68 648.14 182.18 664.97 200.15 680.12 C 199.01 679.54 197.84 679.02 196.81 678.27 C 185.70 669.08 175.63 658.73 165.68 648.32 C 160.85 642.10 154.38 637.03 150.92 629.84 Z" />
<path fill="#ca9656" opacity="1.00" d=" M 627.66 680.28 C 629.41 678.70 631.23 677.22 633.06 675.74 C 631.92 677.90 630.28 679.99 627.66 680.28 Z" />
<path fill="#ca9656" opacity="1.00" d=" M 211.29 688.81 C 212.32 689.28 213.22 690.00 213.98 690.85 C 212.79 692.22 210.09 690.31 211.29 688.81 Z" />
<path fill="#ca9656" opacity="1.00" d=" M 614.00 690.88 C 614.75 690.04 615.66 689.36 616.68 688.88 C 617.87 690.39 615.15 692.33 614.00 690.88 Z" />
<path fill="#ca9656" opacity="1.00" d=" M 215.27 691.85 C 216.30 692.33 217.23 693.01 218.02 693.87 C 216.83 695.23 214.09 693.38 215.27 691.85 Z" />
<path fill="#ca9656" opacity="1.00" d=" M 610.02 693.88 C 610.77 693.02 611.71 692.37 612.74 691.88 C 613.89 693.41 611.17 695.30 610.02 693.88 Z" />
<path fill="#ca9656" opacity="1.00" d=" M 218.86 694.58 C 223.69 697.70 228.40 701.00 233.15 704.24 C 229.77 703.55 227.23 701.14 224.48 699.26 C 222.50 697.84 220.16 696.75 218.86 694.58 Z" />
<path fill="#ca9656" opacity="1.00" d=" M 607.03 695.96 C 607.49 695.69 608.40 695.15 608.86 694.88 L 608.81 695.80 L 607.88 696.35 L 607.03 695.96 Z" />
<path fill="#ca9656" opacity="1.00" d=" M 234.21 704.83 C 234.65 705.13 235.53 705.71 235.96 706.01 L 235.11 706.36 L 234.20 705.76 L 234.21 704.83 Z" />
<path fill="#ca9656" opacity="1.00" d=" M 236.77 706.59 C 253.42 716.49 270.64 725.46 288.57 732.84 C 285.74 732.95 283.43 731.19 280.89 730.25 C 267.56 724.67 254.62 718.15 242.30 710.59 C 240.36 709.39 238.03 708.61 236.77 706.59 Z" />
<path fill="#ca9656" opacity="1.00" d=" M 510.62 742.91 C 538.90 734.35 565.99 722.02 591.15 706.54 C 590.01 708.61 587.68 709.40 585.80 710.60 C 579.50 714.47 572.90 717.77 566.51 721.47 C 551.51 728.63 536.22 735.29 520.39 740.42 C 517.19 741.44 514.06 743.00 510.62 742.91 Z" />
<path fill="#ca9656" opacity="1.00" d=" M 318.43 743.10 C 320.26 743.40 322.02 743.99 323.74 744.70 C 322.35 746.27 318.11 745.35 318.43 743.10 Z" />
<path fill="#ca9656" opacity="1.00" d=" M 504.27 744.72 C 505.95 743.98 507.70 743.41 509.53 743.15 C 509.82 745.38 505.63 746.31 504.27 744.72 Z" />
<path fill="#ca9656" opacity="1.00" d=" M 325.15 745.09 C 326.16 745.03 327.07 745.31 327.89 745.93 C 326.38 747.09 325.46 746.81 325.15 745.09 Z" />
<path fill="#ca9656" opacity="1.00" d=" M 500.12 745.96 C 500.93 745.34 501.84 745.06 502.86 745.11 C 502.55 746.83 501.64 747.11 500.12 745.96 Z" />
<path fill="#ca9656" opacity="1.00" d=" M 329.11 746.10 C 330.13 746.05 331.05 746.33 331.87 746.94 C 330.35 748.10 329.43 747.82 329.11 746.10 Z" />
<path fill="#ca9656" opacity="1.00" d=" M 496.99 746.81 C 497.49 746.64 498.49 746.30 498.99 746.13 L 498.77 747.01 L 497.74 747.37 L 496.99 746.81 Z" />
<path fill="#ca9656" opacity="1.00" d=" M 333.13 747.12 C 334.15 747.06 335.07 747.34 335.91 747.94 C 334.39 749.11 333.47 748.84 333.13 747.12 Z" />
<path fill="#ca9656" opacity="1.00" d=" M 492.09 747.97 C 492.89 747.34 493.80 747.05 494.82 747.10 C 494.52 748.82 493.61 749.11 492.09 747.97 Z" />
<path fill="#ca9656" opacity="1.00" d=" M 337.13 748.10 C 338.14 748.02 339.07 748.27 339.92 748.86 C 338.44 750.06 337.51 749.81 337.13 748.10 Z" />
<path fill="#ca9656" opacity="1.00" d=" M 488.08 748.88 C 488.90 748.28 489.83 748.02 490.85 748.09 C 490.49 749.80 489.57 750.06 488.08 748.88 Z" />
<path fill="#ca9656" opacity="1.00" d=" M 341.19 749.11 C 342.43 749.13 343.64 749.41 344.83 749.79 C 344.10 751.23 340.75 751.05 341.19 749.11 Z" />
<path fill="#ca9656" opacity="1.00" d=" M 483.19 749.80 C 484.35 749.41 485.55 749.12 486.79 749.09 C 487.26 751.03 483.90 751.26 483.19 749.80 Z" />
<path fill="#ca9656" opacity="1.00" d=" M 346.23 750.08 C 347.44 750.14 348.62 750.44 349.78 750.82 C 349.07 752.30 345.65 752.04 346.23 750.08 Z" />
<path fill="#ca9656" opacity="1.00" d=" M 478.19 750.84 C 479.36 750.45 480.56 750.15 481.81 750.09 C 482.27 752.03 478.91 752.30 478.19 750.84 Z" />
<path fill="#ca9656" opacity="1.00" d=" M 351.19 751.06 C 352.43 751.08 353.63 751.36 354.82 751.74 C 354.10 753.18 350.71 753.02 351.19 751.06 Z" />
<path fill="#ca9656" opacity="1.00" d=" M 473.19 751.75 C 474.37 751.38 475.57 751.11 476.82 751.08 C 477.28 753.04 473.89 753.20 473.19 751.75 Z" />
<path fill="#ca9656" opacity="1.00" d=" M 357.21 752.10 C 358.44 752.09 359.65 752.38 360.83 752.76 C 360.11 754.20 356.73 754.05 357.21 752.10 Z" />
<path fill="#ca9656" opacity="1.00" d=" M 467.16 752.74 C 468.32 752.39 469.52 752.13 470.75 752.12 C 471.26 754.09 467.82 754.21 467.16 752.74 Z" />
<path fill="#ca9656" opacity="1.00" d=" M 363.20 753.09 C 364.19 752.94 365.14 753.10 366.04 753.57 C 364.65 754.92 363.70 754.77 363.20 753.09 Z" />
</g>
<g id="#ba1b40ff">
<path fill="#ba1b40" opacity="1.00" d=" M 266.41 488.40 C 279.21 482.78 294.49 483.96 306.88 490.13 C 309.53 491.17 311.63 494.07 310.81 496.98 C 309.93 502.43 308.65 507.81 307.77 513.27 C 304.18 513.39 300.59 513.34 297.02 513.08 C 296.12 507.99 295.84 502.73 294.19 497.82 C 287.58 493.03 277.93 493.06 270.86 496.89 C 267.70 500.62 267.25 506.47 268.95 510.98 C 270.56 515.08 274.32 517.72 278.02 519.80 C 287.18 524.75 297.82 527.19 305.75 534.26 C 314.76 542.16 314.57 557.81 305.71 565.75 C 297.93 572.60 287.05 574.40 277.01 573.99 C 267.57 573.42 257.82 571.57 249.87 566.17 C 249.88 559.78 249.91 553.39 250.02 547.00 C 253.94 546.66 257.88 546.57 261.81 546.74 C 262.42 551.57 263.80 556.25 265.12 560.93 C 272.20 564.83 280.81 565.15 288.57 563.41 C 292.46 562.68 294.04 558.61 294.63 555.15 C 295.72 550.42 292.99 545.55 288.95 543.16 C 279.30 537.03 267.40 535.09 258.45 527.73 C 252.30 522.94 249.46 514.70 250.74 507.09 C 251.84 498.47 258.72 491.74 266.41 488.40 Z" />
<path fill="#ba1b40" opacity="1.00" d=" M 348.49 486.38 C 360.94 483.03 374.56 485.17 385.80 491.32 C 386.61 493.08 387.85 494.87 387.24 496.91 C 386.40 502.42 385.31 507.89 384.04 513.32 C 380.45 513.39 376.86 513.39 373.30 512.92 C 372.85 507.69 371.99 502.49 370.63 497.42 C 363.90 493.51 355.31 493.04 348.27 496.37 C 345.77 497.61 345.23 500.66 344.72 503.12 C 343.40 508.50 346.11 514.25 350.61 517.29 C 360.65 524.51 373.97 526.17 382.98 535.01 C 391.05 542.87 390.92 557.22 382.82 565.02 C 376.13 571.73 366.25 573.86 357.08 574.03 C 347.48 574.02 337.63 572.44 329.08 567.89 C 327.99 567.15 326.22 566.53 326.35 564.94 C 326.31 558.97 326.15 552.97 326.87 547.05 C 330.59 546.52 334.37 546.66 338.12 546.69 C 339.28 551.43 339.79 556.50 341.92 560.92 C 347.52 564.49 354.54 564.66 360.97 564.16 C 364.17 563.76 368.34 563.17 369.65 559.71 C 371.79 555.32 372.11 549.23 368.33 545.62 C 363.62 540.87 356.98 538.97 351.00 536.38 C 344.04 533.42 336.61 530.41 331.67 524.42 C 326.02 517.67 325.33 507.37 329.73 499.81 C 333.61 492.81 340.98 488.49 348.49 486.38 Z" />
<path fill="#ba1b40" opacity="1.00" d=" M 416.01 490.13 C 427.96 483.20 443.06 483.45 455.72 488.28 C 458.98 489.66 463.16 490.97 463.99 494.94 C 463.33 501.11 461.65 507.13 460.72 513.27 C 457.15 513.39 453.57 513.34 450.01 513.08 C 449.08 508.02 448.81 502.80 447.18 497.90 C 441.86 493.69 434.28 493.43 427.94 495.15 C 425.95 495.76 423.47 496.37 422.61 498.50 C 420.37 503.19 420.13 509.26 423.34 513.58 C 426.41 517.75 431.24 520.06 435.82 522.18 C 443.86 525.84 452.69 528.52 459.22 534.73 C 467.50 542.59 467.44 557.34 459.17 565.18 C 451.81 572.33 440.97 574.20 431.07 574.03 C 421.28 573.58 411.16 571.73 402.85 566.22 C 402.93 559.81 402.82 553.40 403.02 546.99 C 406.92 546.66 410.84 546.58 414.76 546.74 C 415.43 551.56 416.74 556.26 418.10 560.93 C 425.16 564.86 433.79 565.15 441.52 563.38 C 446.21 562.48 447.60 557.06 447.73 552.96 C 447.98 548.23 444.43 544.40 440.54 542.27 C 430.89 536.78 419.42 534.60 410.84 527.24 C 405.07 522.40 402.40 514.41 403.70 507.04 C 404.73 499.81 409.76 493.66 416.01 490.13 Z" />
<path fill="#ba1b40" opacity="1.00" d=" M 476.87 487.03 C 501.83 486.51 526.85 487.68 551.78 485.91 C 552.73 487.60 554.34 489.08 554.63 491.06 C 554.39 497.96 553.33 504.80 552.86 511.69 C 549.30 511.99 545.70 512.00 542.19 511.27 C 541.48 506.14 540.18 501.12 539.07 496.06 C 534.01 495.63 528.93 495.24 523.85 495.24 C 523.43 512.47 523.74 529.73 523.69 546.98 C 524.27 551.65 523.30 556.67 525.19 561.11 C 527.75 563.73 531.70 564.42 535.13 565.39 C 534.86 567.61 534.47 569.82 533.93 572.01 C 521.38 571.96 508.84 572.06 496.29 571.96 C 495.91 569.81 495.40 567.69 495.19 565.53 C 498.73 564.29 502.40 563.44 505.92 562.14 C 507.39 539.89 506.84 517.58 506.84 495.30 C 501.66 495.24 496.50 495.64 491.36 496.17 C 490.36 501.48 489.10 506.74 487.90 512.01 C 484.31 512.01 480.67 512.28 477.13 511.53 C 476.33 509.48 476.50 507.16 476.36 504.98 C 476.40 499.00 476.03 492.97 476.87 487.03 Z" />
<path fill="#ba1b40" opacity="1.00" d=" M 563.92 486.93 C 586.29 486.64 608.71 487.54 631.05 485.87 C 632.10 487.47 633.65 488.87 634.08 490.81 C 633.21 497.60 631.61 504.28 630.76 511.09 C 627.31 511.01 623.78 511.46 620.39 510.68 C 619.35 505.90 618.65 501.05 617.62 496.27 C 609.12 495.59 600.49 494.59 592.02 496.09 C 589.64 496.35 590.45 499.34 590.15 500.96 C 590.18 509.20 589.47 517.43 589.70 525.67 C 598.83 525.44 607.94 524.64 617.09 524.69 C 619.71 527.82 617.49 531.84 617.03 535.34 C 607.91 535.14 598.79 535.15 589.69 534.61 C 589.44 541.44 589.98 548.25 590.08 555.08 C 590.09 557.34 590.62 559.56 591.35 561.70 C 600.33 564.35 610.01 563.41 619.17 562.37 C 621.13 557.74 621.56 552.49 623.09 547.67 C 626.76 547.63 630.43 547.63 634.10 547.91 C 634.32 555.94 634.30 563.96 634.10 572.00 C 610.16 571.95 586.23 572.11 562.29 571.91 C 561.94 569.69 561.60 567.47 561.30 565.25 C 564.91 564.48 568.43 563.35 571.94 562.20 C 573.22 547.14 572.83 532.02 572.90 516.92 C 572.76 510.70 572.88 504.41 571.66 498.29 C 569.23 495.00 564.71 494.57 561.12 493.18 C 562.06 491.18 560.96 486.92 563.92 486.93 Z" />
<path fill="#ba1b40" opacity="1.00" d=" M 197.95 486.90 C 210.32 486.98 222.70 486.70 235.06 487.02 C 236.63 488.36 236.07 491.32 236.79 493.27 C 233.25 494.35 229.73 495.49 226.14 496.39 C 224.63 509.86 225.24 523.44 225.11 536.97 C 225.21 544.86 224.69 552.90 226.38 560.67 C 228.79 563.89 233.33 564.17 236.83 565.61 C 236.38 567.68 235.98 569.77 235.60 571.88 C 223.05 572.16 210.49 571.92 197.93 572.00 C 197.37 569.81 196.97 567.57 196.71 565.33 C 200.30 564.46 203.81 563.32 207.35 562.27 C 208.13 556.20 207.93 550.06 208.01 543.96 C 208.49 534.32 208.52 524.65 208.01 515.01 C 207.88 510.03 208.30 505.02 207.49 500.09 C 206.80 494.92 200.34 494.91 196.54 493.18 C 196.99 491.07 197.46 488.98 197.95 486.90 Z" />
</g>
</svg>
