<?xml version="1.0" encoding="UTF-8" ?>
<!DOCTYPE svg PUBLIC "-//W3C//DTD SVG 1.1//EN" "http://www.w3.org/Graphics/SVG/1.1/DTD/svg11.dtd">
<svg width="824pt" height="1067pt" viewBox="0 0 824 1067" version="1.1" xmlns="http://www.w3.org/2000/svg">
<g id="#3c8254ff">
<path fill="#3c8254" opacity="1.00" d=" M 400.57 0.00 L 423.33 0.00 C 474.99 1.62 526.39 12.65 573.88 33.14 C 638.59 60.87 695.85 105.58 738.66 161.45 C 783.09 219.13 811.76 288.83 820.50 361.13 C 826.62 410.72 823.31 461.23 812.94 510.03 C 799.00 575.85 772.77 638.56 740.12 697.20 C 690.91 785.15 627.72 864.62 558.34 937.44 C 519.89 977.66 479.34 1015.90 436.56 1051.49 C 431.39 1055.65 426.37 1060.03 421.01 1063.96 C 415.16 1068.28 406.49 1067.62 401.12 1062.82 C 366.03 1034.84 332.83 1004.57 300.69 973.27 C 252.01 925.41 206.21 874.53 164.81 820.23 C 117.27 757.70 75.23 690.48 44.86 617.88 C 17.74 553.21 0.54 483.76 0.00 413.40 L 0.00 410.38 C 0.16 407.56 0.26 404.75 0.26 401.93 C 1.70 330.76 22.29 260.11 59.22 199.25 C 107.54 118.92 184.01 55.92 272.29 24.27 C 313.38 9.34 356.90 1.39 400.57 0.00 M 354.89 91.41 C 353.49 90.14 352.58 90.36 352.17 92.07 C 351.38 92.15 349.82 92.33 349.03 92.42 L 348.33 91.83 L 347.30 92.12 L 347.02 93.00 C 346.48 93.05 345.42 93.16 344.89 93.22 C 343.42 92.05 342.53 92.33 342.21 94.07 C 340.07 94.19 337.90 94.43 335.92 95.27 C 334.45 94.09 333.54 94.37 333.19 96.10 L 331.87 96.21 C 330.37 95.10 329.48 95.42 329.20 97.16 C 323.01 98.16 317.02 100.28 311.09 102.25 L 310.36 101.67 L 309.32 101.99 L 309.07 102.87 L 308.01 103.12 L 307.24 102.64 L 306.25 103.08 L 306.10 104.00 C 286.72 109.92 268.41 118.88 250.56 128.38 C 244.66 131.90 238.53 135.11 232.96 139.11 L 232.13 138.72 L 231.19 139.27 L 231.14 140.19 C 230.84 140.40 230.24 140.84 229.93 141.06 L 229.09 140.70 L 228.18 141.29 L 228.17 142.21 C 227.86 142.43 227.25 142.87 226.94 143.09 L 226.10 142.72 L 225.20 143.32 L 225.18 144.25 C 224.84 144.48 224.15 144.92 223.81 145.14 C 221.73 146.13 219.76 147.36 218.15 149.02 C 217.86 149.30 217.26 149.85 216.96 150.12 C 215.24 149.43 214.48 149.99 214.68 151.79 L 213.95 152.27 C 211.11 153.87 208.50 155.85 206.17 158.12 C 191.69 169.19 178.73 182.02 166.14 195.15 C 152.69 210.53 139.60 226.49 129.30 244.20 L 128.37 244.22 L 127.79 245.13 L 128.16 245.97 C 127.96 246.23 127.56 246.75 127.36 247.01 C 125.87 248.74 124.82 250.78 123.97 252.88 C 122.01 256.06 120.26 259.37 118.39 262.60 C 115.26 268.55 112.22 274.53 109.37 280.61 C 105.31 289.98 101.00 299.30 98.02 309.08 L 97.12 309.27 L 96.72 310.29 L 97.25 311.05 C 96.15 313.26 95.39 315.65 94.96 318.09 L 94.06 318.31 L 93.69 319.33 L 94.24 320.08 C 91.26 328.92 88.80 338.02 87.05 347.18 C 85.30 347.57 85.06 348.48 86.32 349.90 C 81.40 371.58 79.11 393.80 78.70 416.00 C 78.22 451.08 82.73 486.40 93.23 519.91 L 92.67 520.66 L 93.04 521.68 L 93.93 521.90 C 94.95 526.37 96.44 530.75 98.25 534.95 L 97.72 535.72 L 98.12 536.73 L 99.02 536.92 C 104.26 552.70 111.67 567.68 119.37 582.39 C 123.84 590.05 127.96 598.00 133.27 605.11 C 132.01 606.77 134.33 610.22 136.31 609.58 C 136.53 609.98 136.97 610.77 137.18 611.16 C 138.09 613.31 139.35 615.32 141.13 616.88 C 145.89 623.45 150.70 630.01 156.05 636.12 C 156.79 638.11 158.37 639.54 160.02 640.79 C 167.99 650.59 177.29 659.19 186.26 668.04 C 187.84 669.96 189.45 672.03 191.87 672.93 C 192.21 673.23 192.88 673.82 193.22 674.12 C 194.89 676.00 196.61 677.92 198.89 679.08 C 204.13 683.56 209.48 687.93 215.13 691.88 C 216.70 693.64 218.72 694.88 220.82 695.92 C 221.17 696.15 221.87 696.62 222.22 696.85 L 222.25 697.79 L 223.16 698.37 L 224.01 697.98 C 224.26 698.25 224.76 698.78 225.01 699.04 C 227.45 701.19 230.26 702.87 233.18 704.31 C 238.26 707.49 243.37 710.61 248.56 713.62 C 251.97 715.39 255.31 717.28 258.64 719.21 C 259.16 719.45 260.20 719.94 260.72 720.18 C 262.71 721.20 264.71 722.20 266.72 723.19 C 267.21 723.44 268.20 723.95 268.70 724.21 C 289.35 733.76 310.73 742.16 333.02 746.96 L 333.25 747.84 L 334.27 748.19 L 335.01 747.62 C 382.04 759.03 431.59 759.97 479.06 750.68 C 480.46 751.94 481.37 751.70 481.79 749.97 C 494.07 747.92 506.10 744.37 517.99 740.69 C 533.08 736.12 547.56 729.80 561.84 723.18 C 565.61 721.20 569.65 719.67 573.05 717.06 C 577.86 714.56 582.60 711.92 587.17 709.01 C 589.58 707.95 591.81 706.52 593.85 704.87 C 598.42 702.13 602.94 699.28 607.14 695.98 C 609.21 694.91 611.20 693.63 612.83 691.94 C 618.10 688.18 623.22 684.19 628.11 679.95 C 630.11 679.26 631.50 677.65 632.75 676.02 C 633.56 675.29 634.38 674.56 635.20 673.84 C 637.76 672.37 639.93 670.35 641.77 668.05 C 648.30 661.72 654.77 655.31 661.06 648.73 C 663.80 646.68 665.82 643.92 667.71 641.11 C 668.02 640.77 668.64 640.09 668.95 639.75 C 670.63 638.55 671.85 636.87 672.85 635.08 C 673.12 634.75 673.68 634.09 673.95 633.76 C 675.61 632.59 676.81 630.93 677.70 629.12 C 678.00 628.75 678.58 628.01 678.87 627.64 C 680.37 625.92 681.80 624.13 683.04 622.21 C 684.38 620.45 685.68 618.65 686.94 616.84 C 688.63 615.25 689.89 613.28 690.86 611.19 C 691.08 610.85 691.53 610.16 691.75 609.82 L 692.68 609.79 L 693.26 608.87 L 692.88 608.04 C 695.80 604.19 698.45 600.09 700.70 595.81 L 701.63 595.78 L 702.20 594.86 L 701.82 594.02 C 708.85 582.99 714.49 571.13 720.16 559.35 C 721.40 556.15 722.90 553.07 724.13 549.87 C 725.50 546.95 726.73 543.96 727.71 540.89 L 728.05 539.88 L 728.94 539.64 L 729.28 538.60 L 728.70 537.88 C 730.06 535.04 731.18 532.06 731.85 528.99 L 732.74 528.76 L 733.10 527.74 L 732.54 527.00 C 733.76 524.46 734.56 521.70 734.91 518.91 L 735.82 518.76 L 736.27 517.78 L 735.80 517.00 L 735.91 516.05 L 736.78 515.77 L 737.07 514.73 L 736.47 514.02 C 737.59 511.05 738.51 507.97 738.90 504.81 C 740.64 504.45 740.91 503.55 739.71 502.10 C 740.55 500.12 740.81 497.94 740.98 495.82 C 742.71 495.48 742.97 494.57 741.78 493.11 C 742.83 489.15 743.72 485.08 743.92 480.98 L 744.80 480.74 L 745.13 479.72 L 744.56 478.98 C 751.98 434.63 751.03 388.68 740.58 344.89 C 741.84 343.47 741.60 342.56 739.86 342.15 C 738.80 335.66 736.73 329.34 734.78 323.07 L 735.32 322.31 L 734.93 321.30 L 734.03 321.10 C 732.59 314.67 730.03 308.52 727.68 302.38 C 727.86 299.82 726.06 297.78 725.41 295.42 C 723.39 289.79 720.39 284.62 718.24 279.04 C 712.31 267.20 706.59 255.16 699.03 244.25 C 690.60 230.86 681.41 217.91 671.09 205.91 C 669.93 203.62 668.00 201.91 666.15 200.21 C 663.42 196.55 660.22 193.31 657.02 190.09 C 650.05 182.71 643.10 175.16 634.98 169.02 C 634.68 168.76 634.08 168.24 633.78 167.98 C 631.97 165.60 629.47 163.95 627.03 162.31 C 619.25 155.92 611.32 149.60 602.79 144.27 L 602.78 143.34 L 601.87 142.74 L 601.03 143.10 C 600.72 142.81 600.12 142.22 599.82 141.93 L 599.68 141.02 L 598.70 140.58 L 597.91 141.05 C 595.65 139.05 592.90 137.69 590.45 135.95 C 581.95 130.76 573.17 126.10 564.42 121.39 C 551.47 115.39 538.54 109.13 524.87 104.98 L 524.74 104.07 L 523.77 103.60 L 522.98 104.06 L 521.94 104.05 L 521.81 103.15 L 520.84 102.68 L 520.06 103.14 L 518.98 102.94 L 518.74 102.05 L 517.71 101.70 L 516.97 102.27 C 514.70 101.24 512.28 100.51 509.82 100.17 C 509.49 98.41 508.59 98.12 507.11 99.30 C 504.44 98.18 501.62 97.41 498.75 97.10 C 498.46 95.35 497.56 95.04 496.08 96.19 L 494.84 96.10 C 494.47 94.37 493.57 94.10 492.12 95.29 C 488.50 94.22 484.76 93.37 481.01 93.09 L 480.77 92.21 L 479.74 91.88 L 479.01 92.45 C 438.19 84.46 395.83 84.01 354.89 91.41 Z" />
</g>
<g id="#ffffffff">
<path fill="#ffffff" opacity="1.00" d=" M 354.89 91.41 C 395.83 84.01 438.19 84.46 479.01 92.45 C 479.51 92.61 480.51 92.93 481.01 93.09 C 484.76 93.37 488.50 94.22 492.12 95.29 C 492.91 95.91 493.82 96.18 494.84 96.10 L 496.08 96.19 C 496.85 96.83 497.74 97.14 498.75 97.10 C 501.62 97.41 504.44 98.18 507.11 99.30 C 507.91 99.90 508.81 100.19 509.82 100.17 C 512.28 100.51 514.70 101.24 516.97 102.27 C 517.48 102.44 518.48 102.77 518.98 102.94 L 520.06 103.14 C 520.53 103.37 521.47 103.83 521.94 104.05 L 522.98 104.06 C 523.45 104.29 524.39 104.75 524.87 104.98 C 538.54 109.13 551.47 115.39 564.42 121.39 C 573.17 126.10 581.95 130.76 590.45 135.95 C 592.90 137.69 595.65 139.05 597.91 141.05 C 598.39 141.27 599.34 141.71 599.82 141.93 C 600.12 142.22 600.72 142.81 601.03 143.10 C 601.47 143.39 602.35 143.97 602.79 144.27 C 611.32 149.60 619.25 155.92 627.03 162.31 C 629.20 164.29 631.50 166.12 633.78 167.98 C 634.08 168.24 634.68 168.76 634.98 169.02 C 642.94 175.37 649.80 182.93 657.02 190.09 C 660.22 193.31 663.42 196.55 666.15 200.21 C 667.75 202.14 669.42 204.02 671.09 205.91 C 681.41 217.91 690.60 230.86 699.03 244.25 C 701.81 248.87 705.11 253.26 706.78 258.45 C 709.54 261.87 711.54 265.78 713.41 269.75 C 715.43 274.12 718.16 278.22 719.32 282.95 C 719.77 285.18 721.39 286.89 722.46 288.84 C 723.40 293.60 725.61 298.02 727.68 302.38 C 730.03 308.52 732.59 314.67 734.03 321.10 C 734.21 321.59 734.59 322.58 734.78 323.07 C 736.73 329.34 738.80 335.66 739.86 342.15 C 739.77 343.14 740.01 344.05 740.58 344.89 C 751.03 388.68 751.98 434.63 744.56 478.98 C 744.40 479.48 744.08 480.48 743.92 480.98 C 743.72 485.08 742.83 489.15 741.78 493.11 C 741.17 493.91 740.90 494.82 740.98 495.82 C 740.81 497.94 740.55 500.12 739.71 502.10 C 739.10 502.90 738.83 503.81 738.90 504.81 C 738.51 507.97 737.59 511.05 736.47 514.02 C 736.33 514.53 736.05 515.54 735.91 516.05 L 735.80 517.00 C 735.58 517.48 735.13 518.44 734.91 518.91 C 734.56 521.70 733.76 524.46 732.54 527.00 C 732.37 527.49 732.02 528.49 731.85 528.99 C 731.18 532.06 730.06 535.04 728.70 537.88 C 728.54 538.38 728.21 539.38 728.05 539.88 L 727.71 540.89 C 726.54 543.89 725.27 546.85 724.13 549.87 C 722.90 553.07 721.40 556.15 720.16 559.35 C 714.49 571.13 708.85 582.99 701.82 594.02 C 701.54 594.47 700.98 595.36 700.70 595.81 C 698.45 600.09 695.80 604.19 692.88 608.04 C 692.60 608.48 692.03 609.37 691.75 609.82 C 691.53 610.16 691.08 610.85 690.86 611.19 C 689.53 613.06 688.21 614.93 686.94 616.84 C 685.68 618.65 684.38 620.45 683.04 622.21 C 681.64 624.01 680.25 625.82 678.87 627.64 C 678.58 628.01 678.00 628.75 677.70 629.12 C 676.43 630.65 675.19 632.21 673.95 633.76 C 673.68 634.09 673.12 634.75 672.85 635.08 C 671.51 636.60 670.25 638.19 668.95 639.75 C 668.64 640.09 668.02 640.77 667.71 641.11 C 665.36 643.53 663.26 646.17 661.06 648.73 C 654.77 655.31 648.30 661.72 641.77 668.05 C 639.61 670.02 637.35 671.86 635.20 673.84 C 634.38 674.56 633.56 675.29 632.75 676.02 C 631.19 677.32 629.62 678.60 628.11 679.95 C 623.22 684.19 618.10 688.18 612.83 691.94 C 610.90 693.24 608.98 694.56 607.14 695.98 C 602.94 699.28 598.42 702.13 593.85 704.87 C 591.59 706.19 589.37 707.59 587.17 709.01 C 582.60 711.92 577.86 714.56 573.05 717.06 C 555.39 726.45 536.97 734.39 517.99 740.69 C 506.10 744.37 494.07 747.92 481.79 749.97 C 480.79 749.87 479.88 750.11 479.06 750.68 C 431.59 759.97 382.04 759.03 335.01 747.62 C 334.51 747.46 333.51 747.12 333.02 746.96 C 310.73 742.16 289.35 733.76 268.70 724.21 C 268.20 723.95 267.21 723.44 266.72 723.19 C 264.71 722.20 262.71 721.20 260.72 720.18 C 260.20 719.94 259.16 719.45 258.64 719.21 C 255.31 717.28 251.97 715.39 248.56 713.62 C 243.37 710.61 238.26 707.49 233.18 704.31 C 230.40 702.63 227.63 700.95 225.01 699.04 C 224.76 698.78 224.26 698.25 224.01 697.98 C 223.56 697.70 222.67 697.14 222.22 696.85 C 221.87 696.62 221.17 696.15 220.82 695.92 C 218.94 694.54 217.06 693.18 215.13 691.88 C 209.48 687.93 204.13 683.56 198.89 679.08 C 197.00 677.42 195.11 675.77 193.22 674.12 C 192.88 673.82 192.21 673.23 191.87 672.93 C 190.03 671.26 188.12 669.68 186.26 668.04 C 177.29 659.19 167.99 650.59 160.02 640.79 C 158.70 639.23 157.39 637.66 156.05 636.12 C 150.70 630.01 145.89 623.45 141.13 616.88 C 139.84 614.95 138.47 613.08 137.18 611.16 C 136.97 610.77 136.53 609.98 136.31 609.58 C 135.61 607.89 134.59 606.36 133.27 605.11 C 127.96 598.00 123.84 590.05 119.37 582.39 C 111.67 567.68 104.26 552.70 99.02 536.92 C 98.83 536.43 98.45 535.45 98.25 534.95 C 96.44 530.75 94.95 526.37 93.93 521.90 C 93.76 521.41 93.41 520.41 93.23 519.91 C 82.73 486.40 78.22 451.08 78.70 416.00 C 79.11 393.80 81.40 371.58 86.32 349.90 C 86.89 349.08 87.13 348.17 87.05 347.18 C 88.80 338.02 91.26 328.92 94.24 320.08 C 94.42 319.58 94.78 318.59 94.96 318.09 C 95.39 315.65 96.15 313.26 97.25 311.05 C 97.45 310.55 97.83 309.57 98.02 309.08 C 101.00 299.30 105.31 289.98 109.37 280.61 C 112.22 274.53 115.26 268.55 118.39 262.60 C 120.26 259.37 122.01 256.06 123.97 252.88 C 125.14 250.95 126.24 248.97 127.36 247.01 C 127.56 246.75 127.96 246.23 128.16 245.97 C 128.45 245.53 129.02 244.64 129.30 244.20 C 139.60 226.49 152.69 210.53 166.14 195.15 C 178.73 182.02 191.69 169.19 206.17 158.12 C 208.81 156.24 211.34 154.20 213.95 152.27 L 214.68 151.79 C 215.64 151.51 216.40 150.96 216.96 150.12 C 217.26 149.85 217.86 149.30 218.15 149.02 C 220.04 147.72 221.94 146.46 223.81 145.14 C 224.15 144.92 224.84 144.48 225.18 144.25 C 225.62 143.96 226.50 143.38 226.94 143.09 C 227.25 142.87 227.86 142.43 228.17 142.21 C 228.61 141.92 229.49 141.34 229.93 141.06 C 230.24 140.84 230.84 140.40 231.14 140.19 C 231.59 139.92 232.50 139.38 232.96 139.11 C 238.53 135.11 244.66 131.90 250.56 128.38 C 268.41 118.88 286.72 109.92 306.10 104.00 C 306.58 103.78 307.54 103.34 308.01 103.12 L 309.07 102.87 C 309.57 102.72 310.58 102.41 311.09 102.25 C 317.02 100.28 323.01 98.16 329.20 97.16 C 330.21 97.20 331.10 96.88 331.87 96.21 L 333.19 96.10 C 334.20 96.17 335.11 95.89 335.92 95.27 C 337.90 94.43 340.07 94.19 342.21 94.07 C 343.21 94.15 344.10 93.87 344.89 93.22 C 345.42 93.16 346.48 93.05 347.02 93.00 C 347.52 92.85 348.53 92.56 349.03 92.42 C 349.82 92.33 351.38 92.15 352.17 92.07 C 353.15 92.21 354.06 91.99 354.89 91.41 M 387.30 197.53 C 381.96 199.06 377.36 202.96 375.18 208.10 C 372.00 214.61 372.33 222.20 374.51 228.97 C 374.90 232.00 377.33 236.67 373.69 238.57 C 366.79 241.91 360.08 246.39 356.12 253.14 C 351.21 261.63 351.03 271.78 350.67 281.31 C 348.12 279.20 346.00 276.66 343.79 274.22 C 336.06 265.55 328.27 256.93 320.88 247.98 C 315.57 241.57 304.14 240.18 298.81 247.27 C 296.06 246.68 293.18 245.64 290.38 246.56 C 286.61 247.53 283.80 251.15 283.78 255.04 C 282.59 270.04 281.11 285.02 280.01 300.02 C 279.73 309.37 278.32 318.72 279.26 328.07 C 280.34 334.79 283.09 341.09 285.52 347.40 C 290.92 360.85 296.55 374.21 302.79 387.29 C 305.30 392.78 309.93 396.93 315.02 400.00 C 322.74 404.63 331.12 408.00 339.38 411.55 C 365.75 422.69 391.34 435.85 415.10 451.86 C 442.38 433.06 472.43 418.80 502.79 405.77 C 508.08 403.42 513.69 401.72 518.68 398.73 C 523.24 396.04 526.81 391.70 528.47 386.66 C 531.27 378.09 534.83 369.81 538.56 361.62 C 542.37 353.08 547.76 345.18 549.98 335.98 C 552.26 327.84 551.70 319.33 551.69 310.97 C 550.93 294.31 551.06 277.62 550.41 260.97 C 550.43 256.48 548.31 251.61 543.93 249.87 C 541.04 248.62 537.98 250.10 535.04 250.22 C 531.75 248.50 528.83 245.69 524.89 245.69 C 517.04 244.74 510.83 250.56 505.84 255.80 C 498.27 263.35 490.67 270.87 483.00 278.32 C 485.16 269.41 484.14 259.56 479.34 251.66 C 476.77 246.95 472.36 243.78 468.73 240.02 C 466.88 229.00 459.92 219.48 451.19 212.78 C 447.91 210.33 444.37 207.46 440.02 207.67 C 431.88 207.68 423.37 213.14 421.54 221.37 C 420.34 225.99 421.47 230.77 422.56 235.29 C 424.05 241.28 428.19 246.82 434.07 249.04 C 436.87 250.04 438.16 245.55 435.82 244.23 C 431.29 240.32 430.14 233.77 430.94 228.10 C 431.25 225.99 433.35 225.10 434.90 224.04 C 437.76 224.95 440.81 225.84 442.81 228.25 C 449.66 235.68 452.86 245.54 458.11 254.03 C 460.71 258.44 466.64 259.23 469.28 263.63 C 472.43 268.79 472.63 275.10 472.82 280.98 C 472.38 293.68 471.09 306.34 469.66 318.96 C 469.66 320.58 468.25 321.52 467.00 322.23 C 455.91 328.55 444.44 334.12 433.09 339.94 C 430.01 341.58 427.03 343.50 423.62 344.36 C 423.31 340.86 423.59 336.79 426.17 334.14 C 429.28 331.28 433.80 332.21 437.63 332.08 C 437.75 328.74 437.65 325.39 437.44 322.05 C 437.10 316.01 437.79 309.92 436.91 303.91 C 436.18 299.52 433.26 295.96 430.33 292.79 C 436.74 288.50 442.08 282.86 447.22 277.16 C 448.98 274.97 451.00 272.77 451.69 269.98 C 452.80 265.37 447.29 261.15 443.06 263.05 C 439.70 264.40 436.41 265.92 432.94 266.97 C 430.60 260.50 428.71 253.88 426.56 247.35 C 424.26 242.93 418.40 242.84 414.07 242.97 C 411.64 242.91 407.91 244.16 407.02 240.95 C 409.64 237.20 415.22 235.10 415.20 229.89 C 415.37 222.90 416.57 215.91 415.94 208.92 C 415.54 204.19 412.72 199.59 408.26 197.72 C 401.61 195.04 394.06 195.50 387.30 197.53 M 267.07 488.11 C 259.09 491.40 251.85 498.23 250.73 507.14 C 249.48 514.74 252.31 522.95 258.45 527.72 C 267.37 535.07 279.23 537.02 288.87 543.11 C 292.62 545.34 295.38 549.65 294.77 554.12 C 294.33 557.99 292.73 562.73 288.34 563.48 C 280.64 565.13 272.16 564.78 265.12 560.95 C 263.79 556.27 262.44 551.57 261.79 546.73 C 257.87 546.59 253.93 546.66 250.02 546.99 C 249.91 553.40 249.86 559.81 249.89 566.22 C 255.63 570.03 262.33 572.17 269.11 573.15 C 279.78 574.84 291.39 574.48 301.02 569.09 C 306.00 566.44 309.87 561.83 311.56 556.44 C 313.54 548.97 312.13 540.17 306.27 534.75 C 296.67 525.54 282.30 524.33 272.30 515.78 C 267.11 511.23 266.77 502.93 270.35 497.32 C 277.21 492.93 286.82 493.15 293.76 497.36 C 296.15 502.13 295.92 507.89 297.02 513.09 C 300.59 513.33 304.17 513.38 307.75 513.28 C 308.66 507.80 309.93 502.39 310.82 496.90 C 311.61 493.98 309.46 491.13 306.82 490.10 C 294.65 484.05 279.72 482.86 267.07 488.11 M 343.92 487.95 C 337.72 490.53 331.98 494.89 329.06 501.08 C 324.85 509.49 326.81 520.57 333.91 526.82 C 342.25 534.26 353.54 536.59 363.19 541.76 C 367.06 543.91 371.16 547.31 371.19 552.14 C 371.34 556.64 369.86 562.71 364.61 563.53 C 357.13 564.96 348.65 565.00 341.95 560.94 C 339.76 556.53 339.31 551.43 338.10 546.67 C 334.29 546.60 330.47 546.63 326.67 547.08 C 326.45 553.04 326.15 559.02 326.37 564.99 C 326.24 566.57 328.03 567.16 329.10 567.89 C 337.63 572.44 347.44 574.01 357.02 574.03 C 366.03 573.87 375.69 571.84 382.42 565.43 C 391.48 557.22 391.08 541.18 381.44 533.59 C 372.43 525.96 360.15 524.12 350.64 517.31 C 346.14 514.28 343.41 508.55 344.71 503.16 C 345.22 500.66 345.77 497.56 348.34 496.34 C 355.38 493.04 363.94 493.53 370.64 497.43 C 371.98 502.51 372.85 507.71 373.31 512.95 C 376.87 513.36 380.46 513.39 384.04 513.33 C 385.34 507.58 386.60 501.81 387.33 495.96 C 387.59 494.25 386.38 492.80 385.79 491.30 C 373.16 484.45 357.41 482.47 343.92 487.95 M 417.42 489.35 C 410.53 492.82 404.77 499.27 403.70 507.09 C 402.40 514.44 405.08 522.39 410.82 527.23 C 419.42 534.62 430.94 536.78 440.61 542.31 C 444.48 544.44 447.98 548.27 447.72 552.97 C 447.60 557.06 446.21 562.46 441.55 563.37 C 433.81 565.17 425.19 564.84 418.11 560.95 C 416.73 556.27 415.45 551.55 414.74 546.72 C 410.83 546.59 406.92 546.67 403.02 546.99 C 402.82 553.40 402.93 559.81 402.85 566.23 C 412.31 572.38 423.93 574.19 435.03 574.00 C 444.13 573.57 453.93 571.14 460.21 564.08 C 466.95 556.61 467.17 544.09 460.71 536.37 C 454.07 528.72 443.91 525.99 435.05 521.83 C 429.33 519.19 422.84 515.66 421.24 509.03 C 420.66 504.92 420.88 499.82 424.02 496.77 C 431.08 493.13 440.62 492.99 447.14 497.84 C 448.82 502.75 449.07 508.00 450.01 513.08 C 453.57 513.33 457.14 513.38 460.71 513.29 C 461.65 507.12 463.36 501.07 463.98 494.86 C 463.39 492.37 461.36 490.65 459.07 489.74 C 446.18 483.67 430.28 482.72 417.42 489.35 M 476.78 486.90 C 476.12 495.07 476.16 503.31 476.74 511.49 C 480.42 512.11 484.17 512.11 487.90 512.02 C 489.11 506.73 490.35 501.45 491.40 496.13 C 496.54 495.68 501.69 495.22 506.85 495.30 C 506.82 517.59 507.42 539.91 505.91 562.16 C 502.29 563.40 498.59 564.39 494.98 565.67 C 495.52 567.74 495.93 569.84 496.33 571.96 C 508.86 572.05 521.40 571.97 533.94 572.01 C 534.43 569.83 534.89 567.64 535.21 565.44 C 531.19 564.07 524.64 563.56 524.28 558.19 C 523.36 547.14 523.72 536.04 523.66 524.97 C 523.75 515.06 523.46 505.15 523.81 495.25 C 528.91 495.23 534.00 495.63 539.07 496.07 C 540.21 501.13 541.44 506.18 542.22 511.31 C 545.74 511.95 549.34 512.01 552.90 511.66 C 553.29 504.79 554.42 497.98 554.62 491.10 C 554.37 489.09 552.71 487.59 551.76 485.89 C 526.80 487.62 501.77 486.67 476.78 486.90 M 562.95 487.04 C 561.39 488.29 561.82 491.24 561.12 493.18 C 564.70 494.57 569.27 494.99 571.66 498.32 C 572.89 504.45 572.76 510.76 572.90 516.99 C 572.84 532.06 573.21 547.16 571.95 562.19 C 568.42 563.36 564.88 564.46 561.27 565.29 C 561.60 567.50 561.96 569.71 562.31 571.93 C 586.24 572.09 610.17 571.96 634.09 572.00 C 634.31 563.96 634.32 555.93 634.09 547.90 C 630.43 547.64 626.76 547.63 623.10 547.66 C 621.55 552.48 621.15 557.76 619.15 562.36 C 609.99 563.43 600.31 564.33 591.33 561.70 C 590.63 559.54 590.10 557.30 590.08 555.03 C 589.97 548.22 589.45 541.42 589.69 534.60 C 598.79 535.16 607.92 535.13 617.04 535.35 C 617.64 532.53 618.14 529.70 618.71 526.89 C 617.97 526.08 617.17 525.35 616.31 524.71 C 607.43 524.64 598.58 525.46 589.71 525.69 C 589.47 517.42 590.17 509.16 590.15 500.89 C 590.44 499.28 589.67 496.30 592.06 496.08 C 600.52 494.60 609.13 495.59 617.62 496.27 C 618.65 501.05 619.35 505.89 620.39 510.67 C 623.77 511.47 627.30 511.01 630.75 511.09 C 631.59 504.71 632.97 498.42 633.94 492.06 C 634.61 489.53 632.20 487.79 631.05 485.86 C 608.39 487.64 585.63 486.48 562.95 487.04 M 197.96 486.89 C 197.45 488.98 196.98 491.08 196.54 493.19 C 199.91 494.38 203.61 495.08 206.50 497.31 C 207.43 499.00 207.69 500.96 207.84 502.87 C 208.39 522.66 208.67 542.50 207.37 562.27 C 203.80 563.33 200.25 564.44 196.66 565.39 C 196.99 567.60 197.41 569.81 197.92 572.00 C 210.48 571.92 223.04 572.15 235.60 571.88 C 235.98 569.78 236.38 567.68 236.82 565.60 C 233.32 564.18 228.80 563.88 226.38 560.67 C 224.80 553.57 225.19 546.22 225.11 538.99 C 225.25 524.80 224.61 510.56 226.11 496.42 C 229.70 495.49 233.23 494.36 236.77 493.28 C 236.37 491.18 236.00 489.09 235.63 487.00 C 223.08 486.75 210.51 486.96 197.96 486.89 Z" />
<path fill="#ffffff" opacity="1.00" d=" M 394.44 211.18 C 397.28 211.07 400.38 210.58 402.97 212.09 C 407.01 214.01 408.48 218.76 408.60 222.92 C 408.11 229.88 403.11 235.30 398.28 239.82 C 399.09 241.74 401.86 243.85 400.15 246.02 C 396.01 251.75 395.18 259.96 399.17 265.98 C 400.08 267.94 402.88 269.88 401.20 272.18 C 396.80 280.45 392.46 289.85 394.65 299.43 C 395.60 303.94 397.94 309.51 403.07 310.32 C 405.92 310.85 408.22 308.81 410.45 307.40 C 412.93 305.02 415.53 310.26 418.18 308.25 C 419.88 306.12 419.93 302.88 422.32 301.28 C 423.74 300.35 425.37 301.60 426.59 302.34 C 428.47 303.83 430.55 305.55 431.17 307.99 C 430.03 313.60 430.34 319.32 430.20 325.00 C 426.80 325.47 423.17 324.78 419.90 325.89 C 417.36 328.07 417.83 331.92 417.12 334.91 C 417.14 337.09 414.75 340.15 412.45 338.60 C 410.56 333.29 410.03 325.89 415.03 322.09 C 417.68 319.82 421.27 319.13 424.01 317.03 C 426.09 314.37 426.19 310.51 424.83 307.50 C 423.33 309.22 422.38 311.30 421.17 313.20 C 416.33 316.80 408.39 315.29 405.07 321.04 C 402.45 326.83 402.59 333.69 404.43 339.69 C 407.83 345.12 414.67 346.54 419.91 349.61 C 419.24 351.62 416.94 352.49 415.49 353.90 C 409.87 348.69 404.26 343.41 397.82 339.22 C 391.07 334.74 383.58 331.59 376.04 328.73 C 371.61 326.90 366.85 325.10 363.69 321.33 C 361.45 318.79 361.69 315.18 361.34 312.04 C 360.71 298.35 359.74 284.40 362.74 270.90 C 364.36 263.14 368.99 256.08 375.56 251.62 C 378.91 248.98 383.48 247.58 385.75 243.77 C 387.39 238.18 385.21 232.37 383.68 226.99 C 389.43 223.70 394.39 218.15 394.44 211.18 Z" />
<path fill="#ffffff" opacity="1.00" d=" M 418.66 254.90 C 420.06 255.19 421.47 255.49 422.88 255.80 C 423.41 258.17 423.96 260.53 424.50 262.89 C 422.42 265.20 420.56 267.83 420.80 271.11 C 426.21 275.96 434.00 273.65 440.25 272.03 C 438.13 276.26 435.34 281.09 430.42 282.33 C 426.81 283.02 421.73 281.71 419.72 285.72 C 418.44 290.25 420.21 295.22 418.79 299.70 C 414.58 300.28 410.24 300.20 406.04 299.55 C 401.74 298.77 400.69 293.69 400.51 290.02 C 401.22 279.93 412.89 273.50 411.51 262.94 C 413.36 262.14 415.59 261.76 416.92 260.11 C 418.19 258.68 418.17 256.65 418.66 254.90 Z" />
<path fill="#ffffff" opacity="1.00" d=" M 312.84 268.85 C 315.06 267.77 318.47 267.50 319.33 270.44 C 321.73 280.20 323.70 290.08 325.67 299.94 C 326.54 302.80 325.39 305.58 323.02 307.27 C 321.41 306.58 319.12 306.39 318.50 304.44 C 316.98 300.48 316.89 296.17 316.14 292.03 C 315.13 284.29 313.53 276.63 312.84 268.85 Z" />
<path fill="#ffffff" opacity="1.00" d=" M 526.83 277.05 C 527.40 273.49 528.97 269.05 532.96 268.22 C 535.64 268.64 536.68 271.50 536.73 273.89 C 537.30 285.58 536.65 297.29 537.34 308.97 C 537.48 315.28 538.58 321.70 537.14 327.95 C 536.14 333.06 533.70 337.71 531.52 342.40 C 527.52 350.85 523.92 359.50 519.86 367.93 C 517.98 371.56 516.26 375.40 513.32 378.32 C 509.51 382.17 504.37 384.17 499.65 386.63 C 472.81 400.39 443.75 410.16 419.06 427.86 C 417.53 428.77 415.62 430.97 413.89 429.18 C 388.64 410.85 358.89 400.64 331.24 386.70 C 325.34 383.53 318.57 380.97 314.89 374.98 C 309.44 366.06 305.86 356.17 301.35 346.77 C 298.66 340.56 294.90 334.67 293.79 327.89 C 292.67 322.29 294.25 316.67 294.70 311.09 C 295.55 300.76 296.06 290.40 296.29 280.04 C 296.58 276.48 296.44 271.93 299.84 269.74 C 302.60 267.78 305.03 271.54 305.48 273.98 C 308.06 292.28 309.45 310.79 313.30 328.89 C 315.83 341.28 325.34 351.04 336.21 356.82 C 342.56 360.18 348.69 364.61 355.95 365.67 C 358.89 366.26 361.68 363.90 362.01 361.01 C 361.84 358.64 359.86 357.04 358.02 355.86 C 349.77 350.79 341.02 346.53 333.19 340.80 C 327.28 336.69 324.31 328.66 325.84 321.72 C 329.09 321.56 332.19 322.62 335.01 324.18 C 354.86 334.72 375.97 342.88 395.11 354.77 C 408.02 364.31 413.11 380.86 415.41 396.09 C 417.66 383.28 421.23 369.96 430.03 360.00 C 434.86 354.44 441.59 351.22 447.96 347.80 C 462.45 340.13 477.46 333.50 492.12 326.15 C 496.20 324.06 500.32 321.36 505.12 321.69 C 506.32 328.21 504.04 335.55 498.83 339.81 C 493.68 344.26 487.39 347.07 481.70 350.72 C 477.49 353.46 472.30 355.09 469.24 359.28 C 467.84 362.72 471.57 366.47 475.06 365.67 C 482.54 364.49 488.83 359.89 495.38 356.40 C 505.95 350.65 515.00 341.00 517.56 328.97 C 521.32 311.80 524.47 294.47 526.83 277.05 Z" />
<path fill="#ffffff" opacity="1.00" d=" M 513.30 269.28 C 514.92 268.50 517.97 268.24 517.48 270.97 C 516.13 281.02 514.26 291.00 512.53 300.99 C 512.19 303.45 510.70 306.14 507.94 306.34 C 505.27 305.91 505.99 302.80 506.19 300.91 C 507.60 292.19 509.51 283.56 511.10 274.87 C 511.51 272.92 511.82 270.76 513.30 269.28 Z" />
<path fill="#ffffff" opacity="1.00" d=" M 330.25 284.35 C 332.26 283.41 334.35 285.21 334.58 287.22 C 335.50 293.05 336.18 298.92 337.54 304.66 C 337.69 306.21 338.54 308.11 337.30 309.42 C 335.00 310.49 332.60 308.28 332.40 306.01 C 331.47 299.31 330.20 292.66 329.41 285.95 C 329.62 285.55 330.04 284.75 330.25 284.35 Z" />
<path fill="#ffffff" opacity="1.00" d=" M 493.89 298.05 C 495.07 293.01 494.23 286.49 498.96 283.13 C 501.27 284.64 500.44 287.74 500.35 290.04 C 499.68 295.33 500.13 300.75 499.00 305.98 C 498.72 308.22 496.60 309.29 494.97 310.46 C 491.03 307.38 493.57 302.15 493.89 298.05 Z" />
<path fill="#ffffff" opacity="1.00" d=" M 344.27 295.97 C 346.10 295.95 347.98 296.71 348.26 298.76 C 349.50 303.81 350.62 308.91 351.32 314.06 C 350.32 317.17 346.10 315.83 346.03 312.95 C 344.99 307.38 343.01 301.65 344.27 295.97 Z" />
<path fill="#ffffff" opacity="1.00" d=" M 484.08 296.09 C 487.25 294.94 486.01 299.08 486.16 300.90 C 485.56 305.43 486.20 310.19 484.72 314.58 C 484.05 316.60 481.06 316.47 480.20 314.65 C 478.71 310.80 480.42 306.75 481.04 302.90 C 481.73 300.56 481.61 297.38 484.08 296.09 Z" />
</g>
<g id="#ca9656ff">
<path fill="#ca9656" opacity="1.00" d=" M 352.17 92.07 C 352.58 90.36 353.49 90.14 354.89 91.41 C 354.06 91.99 353.15 92.21 352.17 92.07 Z" />
<path fill="#ca9656" opacity="1.00" d=" M 347.30 92.12 L 348.33 91.83 L 349.03 92.42 C 348.53 92.56 347.52 92.85 347.02 93.00 L 347.30 92.12 Z" />
<path fill="#ca9656" opacity="1.00" d=" M 479.01 92.45 L 479.74 91.88 L 480.77 92.21 L 481.01 93.09 C 480.51 92.93 479.51 92.61 479.01 92.45 Z" />
<path fill="#ca9656" opacity="1.00" d=" M 342.21 94.07 C 342.53 92.33 343.42 92.05 344.89 93.22 C 344.10 93.87 343.21 94.15 342.21 94.07 Z" />
<path fill="#ca9656" opacity="1.00" d=" M 333.19 96.10 C 333.54 94.37 334.45 94.09 335.92 95.27 C 335.11 95.89 334.20 96.17 333.19 96.10 Z" />
<path fill="#ca9656" opacity="1.00" d=" M 492.12 95.29 C 493.57 94.10 494.47 94.37 494.84 96.10 C 493.82 96.18 492.91 95.91 492.12 95.29 Z" />
<path fill="#ca9656" opacity="1.00" d=" M 329.20 97.16 C 329.48 95.42 330.37 95.10 331.87 96.21 C 331.10 96.88 330.21 97.20 329.20 97.16 Z" />
<path fill="#ca9656" opacity="1.00" d=" M 496.08 96.19 C 497.56 95.04 498.46 95.35 498.75 97.10 C 497.74 97.14 496.85 96.83 496.08 96.19 Z" />
<path fill="#ca9656" opacity="1.00" d=" M 507.11 99.30 C 508.59 98.12 509.49 98.41 509.82 100.17 C 508.81 100.19 507.91 99.90 507.11 99.30 Z" />
<path fill="#ca9656" opacity="1.00" d=" M 309.32 101.99 L 310.36 101.67 L 311.09 102.25 C 310.58 102.41 309.57 102.72 309.07 102.87 L 309.32 101.99 Z" />
<path fill="#ca9656" opacity="1.00" d=" M 516.97 102.27 L 517.71 101.70 L 518.74 102.05 L 518.98 102.94 C 518.48 102.77 517.48 102.44 516.97 102.27 Z" />
<path fill="#ca9656" opacity="1.00" d=" M 306.25 103.08 L 307.24 102.64 L 308.01 103.12 C 307.54 103.34 306.58 103.78 306.10 104.00 L 306.25 103.08 Z" />
<path fill="#ca9656" opacity="1.00" d=" M 520.06 103.14 L 520.84 102.68 L 521.81 103.15 L 521.94 104.05 C 521.47 103.83 520.53 103.37 520.06 103.14 Z" />
<path fill="#ca9656" opacity="1.00" d=" M 522.98 104.06 L 523.77 103.60 L 524.74 104.07 L 524.87 104.98 C 524.39 104.75 523.45 104.29 522.98 104.06 Z" />
<path fill="#ca9656" opacity="1.00" d=" M 231.19 139.27 L 232.13 138.72 L 232.96 139.11 C 232.50 139.38 231.59 139.92 231.14 140.19 L 231.19 139.27 Z" />
<path fill="#ca9656" opacity="1.00" d=" M 228.18 141.29 L 229.09 140.70 L 229.93 141.06 C 229.49 141.34 228.61 141.92 228.17 142.21 L 228.18 141.29 Z" />
<path fill="#ca9656" opacity="1.00" d=" M 597.91 141.05 L 598.70 140.58 L 599.68 141.02 L 599.82 141.93 C 599.34 141.71 598.39 141.27 597.91 141.05 Z" />
<path fill="#ca9656" opacity="1.00" d=" M 225.20 143.32 L 226.10 142.72 L 226.94 143.09 C 226.50 143.38 225.62 143.96 225.18 144.25 L 225.20 143.32 Z" />
<path fill="#ca9656" opacity="1.00" d=" M 601.03 143.10 L 601.87 142.74 L 602.78 143.34 L 602.79 144.27 C 602.35 143.97 601.47 143.39 601.03 143.10 Z" />
<path fill="#ca9656" opacity="1.00" d=" M 218.15 149.02 C 219.76 147.36 221.73 146.13 223.81 145.14 C 221.94 146.46 220.04 147.72 218.15 149.02 Z" />
<path fill="#ca9656" opacity="1.00" d=" M 214.68 151.79 C 214.48 149.99 215.24 149.43 216.96 150.12 C 216.40 150.96 215.64 151.51 214.68 151.79 Z" />
<path fill="#ca9656" opacity="1.00" d=" M 206.17 158.12 C 208.50 155.85 211.11 153.87 213.95 152.27 C 211.34 154.20 208.81 156.24 206.17 158.12 Z" />
<path fill="#ca9656" opacity="1.00" d=" M 627.03 162.31 C 629.47 163.95 631.97 165.60 633.78 167.98 C 631.50 166.12 629.20 164.29 627.03 162.31 Z" />
<path fill="#ca9656" opacity="1.00" d=" M 387.30 197.53 C 394.06 195.50 401.61 195.04 408.26 197.72 C 412.72 199.59 415.54 204.19 415.94 208.92 C 416.57 215.91 415.37 222.90 415.20 229.89 C 415.22 235.10 409.64 237.20 407.02 240.95 C 407.91 244.16 411.64 242.91 414.07 242.97 C 418.40 242.84 424.26 242.93 426.56 247.35 C 428.71 253.88 430.60 260.50 432.94 266.97 C 436.41 265.92 439.70 264.40 443.06 263.05 C 447.29 261.15 452.80 265.37 451.69 269.98 C 451.00 272.77 448.98 274.97 447.22 277.16 C 442.08 282.86 436.74 288.50 430.33 292.79 C 433.26 295.96 436.18 299.52 436.91 303.91 C 437.79 309.92 437.10 316.01 437.44 322.05 C 437.65 325.39 437.75 328.74 437.63 332.08 C 433.80 332.21 429.28 331.28 426.17 334.14 C 423.59 336.79 423.31 340.86 423.62 344.36 C 427.03 343.50 430.01 341.58 433.09 339.94 C 444.44 334.12 455.91 328.55 467.00 322.23 C 468.25 321.52 469.66 320.58 469.66 318.96 C 471.09 306.34 472.38 293.68 472.82 280.98 C 472.63 275.10 472.43 268.79 469.28 263.63 C 466.64 259.23 460.71 258.44 458.11 254.03 C 452.86 245.54 449.66 235.68 442.81 228.25 C 440.81 225.84 437.76 224.95 434.90 224.04 C 433.35 225.10 431.25 225.99 430.94 228.10 C 430.14 233.77 431.29 240.32 435.82 244.23 C 438.16 245.55 436.87 250.04 434.07 249.04 C 428.19 246.82 424.05 241.28 422.56 235.29 C 421.47 230.77 420.34 225.99 421.54 221.37 C 423.37 213.14 431.88 207.68 440.02 207.67 C 444.37 207.46 447.91 210.33 451.19 212.78 C 459.92 219.48 466.88 229.00 468.73 240.02 C 472.36 243.78 476.77 246.95 479.34 251.66 C 484.14 259.56 485.16 269.41 483.00 278.32 C 490.67 270.87 498.27 263.35 505.84 255.80 C 510.83 250.56 517.04 244.74 524.89 245.69 C 528.83 245.69 531.75 248.50 535.04 250.22 C 537.98 250.10 541.04 248.62 543.93 249.87 C 548.31 251.61 550.43 256.48 550.41 260.97 C 551.06 277.62 550.93 294.31 551.69 310.97 C 551.70 319.33 552.26 327.84 549.98 335.98 C 547.76 345.18 542.37 353.08 538.56 361.62 C 534.83 369.81 531.27 378.09 528.47 386.66 C 526.81 391.70 523.24 396.04 518.68 398.73 C 513.69 401.72 508.08 403.42 502.79 405.77 C 472.43 418.80 442.38 433.06 415.10 451.86 C 391.34 435.85 365.75 422.69 339.38 411.55 C 331.12 408.00 322.74 404.63 315.02 400.00 C 309.93 396.93 305.30 392.78 302.79 387.29 C 296.55 374.21 290.92 360.85 285.52 347.40 C 283.09 341.09 280.34 334.79 279.26 328.07 C 278.32 318.72 279.73 309.37 280.01 300.02 C 281.11 285.02 282.59 270.04 283.78 255.04 C 283.80 251.15 286.61 247.53 290.38 246.56 C 293.18 245.64 296.06 246.68 298.81 247.27 C 304.14 240.18 315.57 241.57 320.88 247.98 C 328.27 256.93 336.06 265.55 343.79 274.22 C 346.00 276.66 348.12 279.20 350.67 281.31 C 351.03 271.78 351.21 261.63 356.12 253.14 C 360.08 246.39 366.79 241.91 373.69 238.57 C 377.33 236.67 374.90 232.00 374.51 228.97 C 372.33 222.20 372.00 214.61 375.18 208.10 C 377.36 202.96 381.96 199.06 387.30 197.53 M 394.44 211.18 C 394.39 218.15 389.43 223.70 383.68 226.99 C 385.21 232.37 387.39 238.18 385.75 243.77 C 383.48 247.58 378.91 248.98 375.56 251.62 C 368.99 256.08 364.36 263.14 362.74 270.90 C 359.74 284.40 360.71 298.35 361.34 312.04 C 361.69 315.18 361.45 318.79 363.69 321.33 C 366.85 325.10 371.61 326.90 376.04 328.73 C 383.58 331.59 391.07 334.74 397.82 339.22 C 404.26 343.41 409.87 348.69 415.49 353.90 C 416.94 352.49 419.24 351.62 419.91 349.61 C 414.67 346.54 407.83 345.12 404.43 339.69 C 402.59 333.69 402.45 326.83 405.07 321.04 C 408.39 315.29 416.33 316.80 421.17 313.20 C 422.38 311.30 423.33 309.22 424.83 307.50 C 426.19 310.51 426.09 314.37 424.01 317.03 C 421.27 319.13 417.68 319.82 415.03 322.09 C 410.03 325.89 410.56 333.29 412.45 338.60 C 414.75 340.15 417.14 337.09 417.12 334.91 C 417.83 331.92 417.36 328.07 419.90 325.89 C 423.17 324.78 426.80 325.47 430.20 325.00 C 430.34 319.32 430.03 313.60 431.17 307.99 C 430.55 305.55 428.47 303.83 426.59 302.34 C 425.37 301.60 423.74 300.35 422.32 301.28 C 419.93 302.88 419.88 306.12 418.18 308.25 C 415.53 310.26 412.93 305.02 410.45 307.40 C 408.22 308.81 405.92 310.85 403.07 310.32 C 397.94 309.51 395.60 303.94 394.65 299.43 C 392.46 289.85 396.80 280.45 401.20 272.18 C 402.88 269.88 400.08 267.94 399.17 265.98 C 395.18 259.96 396.01 251.75 400.15 246.02 C 401.86 243.85 399.09 241.74 398.28 239.82 C 403.11 235.30 408.11 229.88 408.60 222.92 C 408.48 218.76 407.01 214.01 402.97 212.09 C 400.38 210.58 397.28 211.07 394.44 211.18 M 418.66 254.90 C 418.17 256.65 418.19 258.68 416.92 260.11 C 415.59 261.76 413.36 262.14 411.51 262.94 C 412.89 273.50 401.22 279.93 400.51 290.02 C 400.69 293.69 401.74 298.77 406.04 299.55 C 410.24 300.20 414.58 300.28 418.79 299.70 C 420.21 295.22 418.44 290.25 419.72 285.72 C 421.73 281.71 426.81 283.02 430.42 282.33 C 435.34 281.09 438.13 276.26 440.25 272.03 C 434.00 273.65 426.21 275.96 420.80 271.11 C 420.56 267.83 422.42 265.20 424.50 262.89 C 423.96 260.53 423.41 258.17 422.88 255.80 C 421.47 255.49 420.06 255.19 418.66 254.90 M 312.84 268.85 C 313.53 276.63 315.13 284.29 316.14 292.03 C 316.89 296.17 316.98 300.48 318.50 304.44 C 319.12 306.39 321.41 306.58 323.02 307.27 C 325.39 305.58 326.54 302.80 325.67 299.94 C 323.70 290.08 321.73 280.20 319.33 270.44 C 318.47 267.50 315.06 267.77 312.84 268.85 M 526.83 277.05 C 524.47 294.47 521.32 311.80 517.56 328.97 C 515.00 341.00 505.95 350.65 495.38 356.40 C 488.83 359.89 482.54 364.49 475.06 365.67 C 471.57 366.47 467.84 362.72 469.24 359.28 C 472.30 355.09 477.49 353.46 481.70 350.72 C 487.39 347.07 493.68 344.26 498.83 339.81 C 504.04 335.55 506.32 328.21 505.12 321.69 C 500.32 321.36 496.20 324.06 492.12 326.15 C 477.46 333.50 462.45 340.13 447.96 347.80 C 441.59 351.22 434.86 354.44 430.03 360.00 C 421.23 369.96 417.66 383.28 415.41 396.09 C 413.11 380.86 408.02 364.31 395.11 354.77 C 375.97 342.88 354.86 334.72 335.01 324.18 C 332.19 322.62 329.09 321.56 325.84 321.72 C 324.31 328.66 327.28 336.69 333.19 340.80 C 341.02 346.53 349.77 350.79 358.02 355.86 C 359.86 357.04 361.84 358.64 362.01 361.01 C 361.68 363.90 358.89 366.26 355.95 365.67 C 348.69 364.61 342.56 360.18 336.21 356.82 C 325.34 351.04 315.83 341.28 313.30 328.89 C 309.45 310.79 308.06 292.28 305.48 273.98 C 305.03 271.54 302.60 267.78 299.84 269.74 C 296.44 271.93 296.58 276.48 296.29 280.04 C 296.06 290.40 295.55 300.76 294.70 311.09 C 294.25 316.67 292.67 322.29 293.79 327.89 C 294.90 334.67 298.66 340.56 301.35 346.77 C 305.86 356.17 309.44 366.06 314.89 374.98 C 318.57 380.97 325.34 383.53 331.24 386.70 C 358.89 400.64 388.64 410.85 413.89 429.18 C 415.62 430.97 417.53 428.77 419.06 427.86 C 443.75 410.16 472.81 400.39 499.65 386.63 C 504.37 384.17 509.51 382.17 513.32 378.32 C 516.26 375.40 517.98 371.56 519.86 367.93 C 523.92 359.50 527.52 350.85 531.52 342.40 C 533.70 337.71 536.14 333.06 537.14 327.95 C 538.58 321.70 537.48 315.28 537.34 308.97 C 536.65 297.29 537.30 285.58 536.73 273.89 C 536.68 271.50 535.64 268.64 532.96 268.22 C 528.97 269.05 527.40 273.49 526.83 277.05 M 513.30 269.28 C 511.82 270.76 511.51 272.92 511.10 274.87 C 509.51 283.56 507.60 292.19 506.19 300.91 C 505.99 302.80 505.27 305.91 507.94 306.34 C 510.70 306.14 512.19 303.45 512.53 300.99 C 514.26 291.00 516.13 281.02 517.48 270.97 C 517.97 268.24 514.92 268.50 513.30 269.28 M 330.25 284.35 C 330.04 284.75 329.62 285.55 329.41 285.95 C 330.20 292.66 331.47 299.31 332.40 306.01 C 332.60 308.28 335.00 310.49 337.30 309.42 C 338.54 308.11 337.69 306.21 337.54 304.66 C 336.18 298.92 335.50 293.05 334.58 287.22 C 334.35 285.21 332.26 283.41 330.25 284.35 M 493.89 298.05 C 493.57 302.15 491.03 307.38 494.97 310.46 C 496.60 309.29 498.72 308.22 499.00 305.98 C 500.13 300.75 499.68 295.33 500.35 290.04 C 500.44 287.74 501.27 284.64 498.96 283.13 C 494.23 286.49 495.07 293.01 493.89 298.05 M 344.27 295.97 C 343.01 301.65 344.99 307.38 346.03 312.95 C 346.10 315.83 350.32 317.17 351.32 314.06 C 350.62 308.91 349.50 303.81 348.26 298.76 C 347.98 296.71 346.10 295.95 344.27 295.97 M 484.08 296.09 C 481.61 297.38 481.73 300.56 481.04 302.90 C 480.42 306.75 478.71 310.80 480.20 314.65 C 481.06 316.47 484.05 316.60 484.72 314.58 C 486.20 310.19 485.56 305.43 486.16 300.90 C 486.01 299.08 487.25 294.94 484.08 296.09 Z" />
<path fill="#ca9656" opacity="1.00" d=" M 666.15 200.21 C 668.00 201.91 669.93 203.62 671.09 205.91 C 669.42 204.02 667.75 202.14 666.15 200.21 Z" />
<path fill="#ca9656" opacity="1.00" d=" M 128.37 244.22 L 129.30 244.20 C 129.02 244.64 128.45 245.53 128.16 245.97 L 127.79 245.13 L 128.37 244.22 Z" />
<path fill="#ca9656" opacity="1.00" d=" M 123.97 252.88 C 124.82 250.78 125.87 248.74 127.36 247.01 C 126.24 248.97 125.14 250.95 123.97 252.88 Z" />
<path fill="#ca9656" opacity="1.00" d=" M 97.12 309.27 L 98.02 309.08 C 97.83 309.57 97.45 310.55 97.25 311.05 L 96.72 310.29 L 97.12 309.27 Z" />
<path fill="#ca9656" opacity="1.00" d=" M 94.06 318.31 L 94.96 318.09 C 94.78 318.59 94.42 319.58 94.24 320.08 L 93.69 319.33 L 94.06 318.31 Z" />
<path fill="#ca9656" opacity="1.00" d=" M 734.03 321.10 L 734.93 321.30 L 735.32 322.31 L 734.78 323.07 C 734.59 322.58 734.21 321.59 734.03 321.10 Z" />
<path fill="#ca9656" opacity="1.00" d=" M 739.86 342.15 C 741.60 342.56 741.84 343.47 740.58 344.89 C 740.01 344.05 739.77 343.14 739.86 342.15 Z" />
<path fill="#ca9656" opacity="1.00" d=" M 86.32 349.90 C 85.06 348.48 85.30 347.57 87.05 347.18 C 87.13 348.17 86.89 349.08 86.32 349.90 Z" />
<path fill="#ca9656" opacity="1.00" d=" M 743.92 480.98 C 744.08 480.48 744.40 479.48 744.56 478.98 L 745.13 479.72 L 744.80 480.74 L 743.92 480.98 Z" />
<path fill="#ca9656" opacity="1.00" d=" M 740.98 495.82 C 740.90 494.82 741.17 493.91 741.78 493.11 C 742.97 494.57 742.71 495.48 740.98 495.82 Z" />
<path fill="#ca9656" opacity="1.00" d=" M 738.90 504.81 C 738.83 503.81 739.10 502.90 739.71 502.10 C 740.91 503.55 740.64 504.45 738.90 504.81 Z" />
<path fill="#ca9656" opacity="1.00" d=" M 735.91 516.05 C 736.05 515.54 736.33 514.53 736.47 514.02 L 737.07 514.73 L 736.78 515.77 L 735.91 516.05 Z" />
<path fill="#ca9656" opacity="1.00" d=" M 734.91 518.91 C 735.13 518.44 735.58 517.48 735.80 517.00 L 736.27 517.78 L 735.82 518.76 L 734.91 518.91 Z" />
<path fill="#ca9656" opacity="1.00" d=" M 93.23 519.91 C 93.41 520.41 93.76 521.41 93.93 521.90 L 93.04 521.68 L 92.67 520.66 L 93.23 519.91 Z" />
<path fill="#ca9656" opacity="1.00" d=" M 731.85 528.99 C 732.02 528.49 732.37 527.49 732.54 527.00 L 733.10 527.74 L 732.74 528.76 L 731.85 528.99 Z" />
<path fill="#ca9656" opacity="1.00" d=" M 98.25 534.95 C 98.45 535.45 98.83 536.43 99.02 536.92 L 98.12 536.73 L 97.72 535.72 L 98.25 534.95 Z" />
<path fill="#ca9656" opacity="1.00" d=" M 728.05 539.88 C 728.21 539.38 728.54 538.38 728.70 537.88 L 729.28 538.60 L 728.94 539.64 L 728.05 539.88 Z" />
<path fill="#ca9656" opacity="1.00" d=" M 724.13 549.87 C 725.27 546.85 726.54 543.89 727.71 540.89 C 726.73 543.96 725.50 546.95 724.13 549.87 Z" />
<path fill="#ca9656" opacity="1.00" d=" M 700.70 595.81 C 700.98 595.36 701.54 594.47 701.82 594.02 L 702.20 594.86 L 701.63 595.78 L 700.70 595.81 Z" />
<path fill="#ca9656" opacity="1.00" d=" M 133.27 605.11 C 134.59 606.36 135.61 607.89 136.31 609.58 C 134.33 610.22 132.01 606.77 133.27 605.11 Z" />
<path fill="#ca9656" opacity="1.00" d=" M 691.75 609.82 C 692.03 609.37 692.60 608.48 692.88 608.04 L 693.26 608.87 L 692.68 609.79 L 691.75 609.82 Z" />
<path fill="#ca9656" opacity="1.00" d=" M 137.18 611.16 C 138.47 613.08 139.84 614.95 141.13 616.88 C 139.35 615.32 138.09 613.31 137.18 611.16 Z" />
<path fill="#ca9656" opacity="1.00" d=" M 686.94 616.84 C 688.21 614.93 689.53 613.06 690.86 611.19 C 689.89 613.28 688.63 615.25 686.94 616.84 Z" />
<path fill="#ca9656" opacity="1.00" d=" M 678.87 627.64 C 680.25 625.82 681.64 624.01 683.04 622.21 C 681.80 624.13 680.37 625.92 678.87 627.64 Z" />
<path fill="#ca9656" opacity="1.00" d=" M 673.95 633.76 C 675.19 632.21 676.43 630.65 677.70 629.12 C 676.81 630.93 675.61 632.59 673.95 633.76 Z" />
<path fill="#ca9656" opacity="1.00" d=" M 668.95 639.75 C 670.25 638.19 671.51 636.60 672.85 635.08 C 671.85 636.87 670.63 638.55 668.95 639.75 Z" />
<path fill="#ca9656" opacity="1.00" d=" M 156.05 636.12 C 157.39 637.66 158.70 639.23 160.02 640.79 C 158.37 639.54 156.79 638.11 156.05 636.12 Z" />
<path fill="#ca9656" opacity="1.00" d=" M 661.06 648.73 C 663.26 646.17 665.36 643.53 667.71 641.11 C 665.82 643.92 663.80 646.68 661.06 648.73 Z" />
<path fill="#ca9656" opacity="1.00" d=" M 186.26 668.04 C 188.12 669.68 190.03 671.26 191.87 672.93 C 189.45 672.03 187.84 669.96 186.26 668.04 Z" />
<path fill="#ca9656" opacity="1.00" d=" M 635.20 673.84 C 637.35 671.86 639.61 670.02 641.77 668.05 C 639.93 670.35 637.76 672.37 635.20 673.84 Z" />
<path fill="#ca9656" opacity="1.00" d=" M 193.22 674.12 C 195.11 675.77 197.00 677.42 198.89 679.08 C 196.61 677.92 194.89 676.00 193.22 674.12 Z" />
<path fill="#ca9656" opacity="1.00" d=" M 628.11 679.95 C 629.62 678.60 631.19 677.32 632.75 676.02 C 631.50 677.65 630.11 679.26 628.11 679.95 Z" />
<path fill="#ca9656" opacity="1.00" d=" M 215.13 691.88 C 217.06 693.18 218.94 694.54 220.82 695.92 C 218.72 694.88 216.70 693.64 215.13 691.88 Z" />
<path fill="#ca9656" opacity="1.00" d=" M 607.14 695.98 C 608.98 694.56 610.90 693.24 612.83 691.94 C 611.20 693.63 609.21 694.91 607.14 695.98 Z" />
<path fill="#ca9656" opacity="1.00" d=" M 222.22 696.85 C 222.67 697.14 223.56 697.70 224.01 697.98 L 223.16 698.37 L 222.25 697.79 L 222.22 696.85 Z" />
<path fill="#ca9656" opacity="1.00" d=" M 587.17 709.01 C 589.37 707.59 591.59 706.19 593.85 704.87 C 591.81 706.52 589.58 707.95 587.17 709.01 Z" />
<path fill="#ca9656" opacity="1.00" d=" M 517.99 740.69 C 536.97 734.39 555.39 726.45 573.05 717.06 C 569.65 719.67 565.61 721.20 561.84 723.18 C 547.56 729.80 533.08 736.12 517.99 740.69 Z" />
<path fill="#ca9656" opacity="1.00" d=" M 333.02 746.96 C 333.51 747.12 334.51 747.46 335.01 747.62 L 334.27 748.19 L 333.25 747.84 L 333.02 746.96 Z" />
<path fill="#ca9656" opacity="1.00" d=" M 479.06 750.68 C 479.88 750.11 480.79 749.87 481.79 749.97 C 481.37 751.70 480.46 751.94 479.06 750.68 Z" />
</g>
<g id="#ba1b40ff">
<path fill="#ba1b40" opacity="1.00" d=" M 267.07 488.11 C 279.72 482.86 294.65 484.05 306.82 490.10 C 309.46 491.13 311.61 493.98 310.82 496.90 C 309.93 502.39 308.66 507.80 307.75 513.28 C 304.17 513.38 300.59 513.33 297.02 513.09 C 295.92 507.89 296.15 502.13 293.76 497.36 C 286.82 493.15 277.21 492.93 270.35 497.32 C 266.77 502.93 267.11 511.23 272.30 515.78 C 282.30 524.33 296.67 525.54 306.27 534.75 C 312.13 540.17 313.54 548.97 311.56 556.44 C 309.87 561.83 306.00 566.44 301.02 569.09 C 291.39 574.48 279.78 574.84 269.11 573.15 C 262.33 572.17 255.63 570.03 249.89 566.22 C 249.86 559.81 249.91 553.40 250.02 546.99 C 253.93 546.66 257.87 546.59 261.79 546.73 C 262.44 551.57 263.79 556.27 265.12 560.95 C 272.16 564.78 280.64 565.13 288.34 563.48 C 292.73 562.73 294.33 557.99 294.77 554.12 C 295.38 549.65 292.62 545.34 288.87 543.11 C 279.23 537.02 267.37 535.07 258.45 527.72 C 252.31 522.95 249.48 514.74 250.73 507.14 C 251.85 498.23 259.09 491.40 267.07 488.11 Z" />
<path fill="#ba1b40" opacity="1.00" d=" M 343.92 487.95 C 357.41 482.47 373.16 484.45 385.79 491.30 C 386.38 492.80 387.59 494.25 387.33 495.96 C 386.60 501.81 385.34 507.58 384.04 513.33 C 380.46 513.39 376.87 513.36 373.31 512.95 C 372.85 507.71 371.98 502.51 370.64 497.43 C 363.94 493.53 355.38 493.04 348.34 496.34 C 345.77 497.56 345.22 500.66 344.71 503.16 C 343.41 508.55 346.14 514.28 350.64 517.31 C 360.15 524.12 372.43 525.96 381.44 533.59 C 391.08 541.18 391.48 557.22 382.42 565.43 C 375.69 571.84 366.03 573.87 357.02 574.03 C 347.44 574.01 337.63 572.44 329.10 567.89 C 328.03 567.16 326.24 566.57 326.37 564.99 C 326.15 559.02 326.45 553.04 326.67 547.08 C 330.47 546.63 334.29 546.60 338.10 546.67 C 339.31 551.43 339.76 556.53 341.95 560.94 C 348.65 565.00 357.13 564.96 364.61 563.53 C 369.86 562.71 371.34 556.64 371.19 552.14 C 371.16 547.31 367.06 543.91 363.19 541.76 C 353.54 536.59 342.25 534.26 333.91 526.82 C 326.81 520.57 324.85 509.49 329.06 501.08 C 331.98 494.89 337.72 490.53 343.92 487.95 Z" />
<path fill="#ba1b40" opacity="1.00" d=" M 417.42 489.35 C 430.28 482.72 446.18 483.67 459.07 489.74 C 461.36 490.65 463.39 492.37 463.98 494.86 C 463.36 501.07 461.65 507.12 460.71 513.29 C 457.14 513.38 453.57 513.33 450.01 513.08 C 449.07 508.00 448.82 502.75 447.14 497.84 C 440.62 492.99 431.08 493.13 424.02 496.77 C 420.88 499.82 420.66 504.92 421.24 509.03 C 422.84 515.66 429.33 519.19 435.05 521.83 C 443.91 525.99 454.07 528.72 460.71 536.37 C 467.17 544.09 466.95 556.61 460.21 564.08 C 453.93 571.14 444.13 573.57 435.03 574.00 C 423.93 574.19 412.31 572.38 402.85 566.23 C 402.93 559.81 402.82 553.40 403.02 546.99 C 406.92 546.67 410.83 546.59 414.74 546.72 C 415.45 551.55 416.73 556.27 418.11 560.95 C 425.19 564.84 433.81 565.17 441.55 563.37 C 446.21 562.46 447.60 557.06 447.72 552.97 C 447.98 548.27 444.48 544.44 440.61 542.31 C 430.94 536.78 419.42 534.62 410.82 527.23 C 405.08 522.39 402.40 514.44 403.70 507.09 C 404.77 499.27 410.53 492.82 417.42 489.35 Z" />
<path fill="#ba1b40" opacity="1.00" d=" M 476.78 486.90 C 501.77 486.67 526.80 487.62 551.76 485.89 C 552.71 487.59 554.37 489.09 554.62 491.10 C 554.42 497.98 553.29 504.79 552.90 511.66 C 549.34 512.01 545.74 511.95 542.22 511.31 C 541.44 506.18 540.21 501.13 539.07 496.07 C 534.00 495.63 528.91 495.23 523.81 495.25 C 523.46 505.15 523.75 515.06 523.66 524.97 C 523.72 536.04 523.36 547.14 524.28 558.19 C 524.64 563.56 531.19 564.07 535.21 565.44 C 534.89 567.64 534.43 569.83 533.94 572.01 C 521.40 571.97 508.86 572.05 496.33 571.96 C 495.93 569.84 495.52 567.74 494.98 565.67 C 498.59 564.39 502.29 563.40 505.91 562.16 C 507.42 539.91 506.82 517.59 506.85 495.30 C 501.69 495.22 496.54 495.68 491.40 496.13 C 490.35 501.45 489.11 506.73 487.90 512.02 C 484.17 512.11 480.42 512.11 476.74 511.49 C 476.16 503.31 476.12 495.07 476.78 486.90 Z" />
<path fill="#ba1b40" opacity="1.00" d=" M 562.95 487.04 C 585.63 486.48 608.39 487.64 631.05 485.86 C 632.20 487.79 634.61 489.53 633.94 492.06 C 632.97 498.42 631.59 504.71 630.75 511.09 C 627.30 511.01 623.77 511.47 620.39 510.67 C 619.35 505.89 618.65 501.05 617.62 496.27 C 609.13 495.59 600.52 494.60 592.06 496.08 C 589.67 496.30 590.44 499.28 590.15 500.89 C 590.17 509.16 589.47 517.42 589.71 525.69 C 598.58 525.46 607.43 524.64 616.31 524.71 C 617.17 525.35 617.97 526.08 618.71 526.89 C 618.14 529.70 617.64 532.53 617.04 535.35 C 607.92 535.13 598.79 535.16 589.69 534.60 C 589.45 541.42 589.97 548.22 590.08 555.03 C 590.10 557.30 590.63 559.54 591.33 561.70 C 600.31 564.33 609.99 563.43 619.15 562.36 C 621.15 557.76 621.55 552.48 623.10 547.66 C 626.76 547.63 630.43 547.64 634.09 547.90 C 634.32 555.93 634.31 563.96 634.09 572.00 C 610.17 571.96 586.24 572.09 562.31 571.93 C 561.96 569.71 561.60 567.50 561.27 565.29 C 564.88 564.46 568.42 563.36 571.95 562.19 C 573.21 547.16 572.84 532.06 572.90 516.99 C 572.76 510.76 572.89 504.45 571.66 498.32 C 569.27 494.99 564.70 494.57 561.12 493.18 C 561.82 491.24 561.39 488.29 562.95 487.04 Z" />
<path fill="#ba1b40" opacity="1.00" d=" M 197.96 486.89 C 210.51 486.96 223.08 486.75 235.63 487.00 C 236.00 489.09 236.37 491.18 236.77 493.28 C 233.23 494.36 229.70 495.49 226.11 496.42 C 224.61 510.56 225.25 524.80 225.11 538.99 C 225.19 546.22 224.80 553.57 226.38 560.67 C 228.80 563.88 233.32 564.18 236.82 565.60 C 236.38 567.68 235.98 569.78 235.60 571.88 C 223.04 572.15 210.48 571.92 197.92 572.00 C 197.41 569.81 196.99 567.60 196.66 565.39 C 200.25 564.44 203.80 563.33 207.37 562.27 C 208.67 542.50 208.39 522.66 207.84 502.87 C 207.69 500.96 207.43 499.00 206.50 497.31 C 203.61 495.08 199.91 494.38 196.54 493.19 C 196.98 491.08 197.45 488.98 197.96 486.89 Z" />
</g>
</svg>
