<?xml version="1.0" encoding="UTF-8" ?>
<!DOCTYPE svg PUBLIC "-//W3C//DTD SVG 1.1//EN" "http://www.w3.org/Graphics/SVG/1.1/DTD/svg11.dtd">
<svg width="1917pt" height="600pt" viewBox="0 0 1917 600" version="1.1" xmlns="http://www.w3.org/2000/svg">
<g id="#ca9657ff">
<path fill="#ca9657" opacity="1.00" d=" M 274.55 0.00 L 284.50 0.00 C 292.87 0.78 301.71 2.11 308.64 7.26 C 315.64 12.32 320.16 20.47 321.07 29.03 C 322.40 40.35 321.19 51.73 320.35 63.04 C 319.73 71.22 321.42 80.00 317.68 87.64 C 313.44 94.78 305.83 98.92 300.42 105.01 C 301.48 107.45 302.92 110.54 305.94 110.85 C 310.31 111.54 314.65 110.18 319.03 110.20 C 327.06 110.06 335.64 111.01 342.50 115.53 C 347.85 119.41 347.82 126.61 349.86 132.32 C 353.60 143.62 357.51 154.88 360.54 166.41 C 367.41 164.78 374.10 162.38 380.46 159.30 C 383.47 157.88 386.53 156.17 389.96 156.20 C 395.57 156.17 400.80 159.64 403.72 164.30 C 406.43 168.83 405.98 174.74 403.21 179.13 C 398.46 186.83 392.36 193.58 385.99 199.97 C 376.51 209.93 366.76 219.82 354.93 227.03 C 359.59 232.43 364.69 237.66 367.65 244.26 C 371.77 252.50 371.70 261.92 371.98 270.90 C 372.05 283.26 371.95 295.62 372.02 307.98 C 372.01 311.56 372.58 315.21 371.71 318.74 C 365.96 320.25 359.89 318.68 354.09 320.01 C 348.49 320.91 343.26 324.65 341.42 330.14 C 340.09 334.31 339.45 338.68 338.91 343.01 C 338.40 345.26 340.49 348.42 343.00 347.25 C 348.32 345.65 352.66 341.98 357.71 339.76 C 367.93 335.20 377.63 329.58 387.62 324.55 C 403.45 316.54 419.18 308.33 434.73 299.77 C 438.48 297.63 443.18 296.43 445.47 292.43 C 448.59 287.03 448.09 280.55 448.82 274.56 C 451.70 246.49 455.09 218.34 454.33 190.07 C 453.87 179.47 452.16 168.57 446.73 159.29 C 443.74 154.25 439.00 150.52 433.83 147.92 C 426.83 144.33 421.10 138.53 417.34 131.64 C 408.18 114.61 400.53 96.61 388.95 81.00 C 383.49 74.23 376.32 67.08 366.98 67.16 C 361.34 66.56 356.46 71.52 356.04 76.95 C 355.08 87.65 357.08 98.95 363.05 108.03 C 365.26 111.65 370.50 113.27 370.81 117.99 C 371.26 121.29 368.91 125.84 365.02 124.95 C 359.58 123.43 354.84 120.03 350.60 116.40 C 342.49 109.21 338.28 98.80 335.68 88.52 C 333.38 78.95 332.79 68.87 334.51 59.17 C 337.58 45.01 349.91 34.76 363.03 29.97 C 372.31 26.90 383.29 25.83 391.97 31.17 C 414.85 45.15 434.43 66.25 442.57 92.17 C 444.47 96.81 442.78 103.27 447.55 106.34 C 460.02 115.44 470.28 127.80 475.79 142.30 C 482.31 158.36 482.37 176.37 478.83 193.14 C 497.34 175.54 515.12 157.18 533.47 139.42 C 540.85 132.11 548.05 124.10 557.73 119.81 C 569.25 114.75 583.69 115.30 593.91 123.05 C 597.03 125.36 600.62 128.67 604.83 127.09 C 610.20 125.26 616.23 124.15 621.65 126.47 C 631.28 130.34 636.75 140.92 636.97 150.95 C 637.37 171.30 637.43 191.66 638.15 212.00 C 638.47 234.99 639.71 257.96 640.00 280.95 C 639.85 291.01 640.71 301.09 639.43 311.11 C 637.41 330.68 629.08 348.81 620.14 366.08 C 608.11 388.99 598.10 412.89 588.91 437.07 C 585.64 446.71 582.50 456.76 575.63 464.56 C 567.52 474.64 555.38 479.97 543.73 484.81 C 532.36 489.44 520.97 494.03 509.58 498.60 C 493.24 506.22 476.69 513.38 460.48 521.26 C 448.86 526.70 437.49 532.66 425.77 537.88 C 396.42 552.87 367.51 568.81 339.96 586.93 C 333.35 591.22 326.80 595.61 320.25 600.00 L 317.71 600.00 C 283.67 575.93 246.97 555.90 209.75 537.23 C 194.10 528.82 177.64 522.08 161.50 514.67 C 141.73 505.60 121.40 497.80 101.87 488.19 C 88.28 481.55 74.65 473.99 64.55 462.47 C 56.72 452.84 51.79 441.34 46.99 430.00 C 36.03 405.94 25.72 381.59 15.90 357.04 C 9.40 339.56 1.02 322.24 0.00 303.31 L 0.00 288.73 C 0.67 280.46 0.89 272.17 1.25 263.89 C 3.77 221.48 7.95 179.19 11.21 136.84 C 12.04 126.46 21.58 117.97 31.92 117.97 C 36.80 117.52 41.33 119.63 46.03 120.43 C 49.32 118.30 51.50 114.82 54.93 112.85 C 63.24 107.66 73.85 108.56 82.82 111.44 C 93.03 114.79 100.00 123.47 106.33 131.66 C 120.26 148.33 135.03 164.27 149.35 180.60 C 155.59 187.41 161.39 194.65 168.08 201.03 C 168.58 182.59 169.53 163.87 175.24 146.19 C 181.62 127.77 196.49 113.41 213.45 104.43 C 217.28 102.21 221.63 100.89 225.21 98.25 C 227.65 96.23 226.68 92.69 226.49 89.97 C 224.50 76.61 219.11 63.67 220.09 49.95 C 220.62 34.83 228.09 20.23 239.79 10.70 C 249.69 3.17 262.49 1.18 274.55 0.00 M 273.42 36.67 C 271.02 37.16 271.51 40.28 270.90 42.07 C 269.10 53.86 261.19 64.02 251.12 70.11 C 249.22 71.37 246.05 73.04 247.37 75.81 C 250.69 84.83 252.78 94.35 253.03 103.97 C 253.32 110.75 249.53 117.31 243.74 120.75 C 233.60 127.01 223.15 133.18 215.03 142.06 C 210.84 146.08 208.11 151.26 204.39 155.65 C 201.72 162.27 198.78 168.84 197.41 175.90 C 189.98 211.52 192.67 248.16 195.52 284.12 C 196.58 291.96 202.68 297.86 209.13 301.80 C 223.02 309.87 238.67 314.06 253.10 320.99 C 257.30 323.05 261.85 324.69 265.33 327.93 C 270.86 329.20 275.52 332.79 279.95 336.18 C 294.69 345.47 307.61 357.35 319.94 369.59 C 323.71 367.09 327.30 364.26 330.45 361.01 C 324.35 358.98 318.80 355.68 313.03 352.91 C 306.49 349.54 299.09 346.61 295.07 340.03 C 289.67 332.11 290.64 322.10 290.61 313.00 C 290.99 304.44 292.10 294.82 298.67 288.59 C 303.87 283.35 311.47 282.29 318.21 280.20 C 323.07 278.63 328.41 277.82 332.57 274.67 C 336.47 271.85 335.12 265.71 339.33 263.16 C 341.14 261.81 343.99 262.82 344.58 264.99 C 345.93 272.85 345.24 283.06 337.43 287.42 C 330.53 290.58 323.15 293.32 317.51 298.58 C 312.11 303.80 310.93 311.76 311.47 318.93 C 311.91 323.87 310.95 329.64 314.37 333.73 C 316.39 336.13 319.52 333.84 320.93 331.91 C 324.46 327.06 323.25 320.64 324.65 315.10 C 325.72 310.05 327.92 303.53 333.86 302.77 C 340.60 301.89 347.43 302.87 354.19 302.23 C 354.20 290.22 352.58 277.94 355.69 266.16 C 357.17 260.71 352.36 256.52 348.94 253.04 C 345.70 250.40 341.72 246.65 337.20 248.11 C 330.04 251.41 332.37 262.41 324.98 265.30 C 319.69 267.03 316.06 261.07 311.11 261.02 C 307.73 262.42 305.26 265.30 302.07 267.04 C 297.55 269.83 291.63 270.58 286.79 268.12 C 280.01 264.66 275.01 258.23 272.59 251.08 C 267.01 234.34 268.65 215.62 275.94 199.66 C 278.59 192.12 282.12 184.93 286.14 178.04 C 287.47 175.97 287.09 173.34 285.56 171.49 C 281.07 165.51 277.14 158.87 275.69 151.43 C 273.38 140.62 275.88 129.07 281.76 119.78 C 283.35 117.34 284.68 114.73 285.54 111.93 C 282.90 109.46 279.98 106.78 279.33 103.04 C 280.35 99.59 284.03 97.92 286.24 95.28 C 294.72 86.53 302.67 75.63 302.99 62.97 C 302.80 55.87 301.11 48.26 296.14 42.90 C 290.39 36.93 281.34 35.14 273.42 36.67 M 326.03 148.92 C 323.35 154.35 317.23 156.11 311.91 157.80 C 312.77 163.23 312.62 168.99 309.81 173.88 C 304.71 183.39 299.46 192.95 292.78 201.47 C 291.02 205.35 288.59 208.94 287.45 213.09 C 284.88 221.07 286.29 230.10 290.82 237.11 C 292.49 239.54 295.09 241.27 297.98 241.88 C 306.16 243.72 314.62 243.09 322.95 243.21 C 324.78 243.10 327.55 243.46 327.80 240.98 C 328.37 232.66 327.69 224.29 328.10 215.96 C 328.36 210.87 331.41 205.91 336.16 203.86 C 342.36 200.96 349.45 203.45 355.88 201.53 C 360.38 200.45 363.79 197.19 367.43 194.56 C 370.71 189.91 374.23 185.35 376.25 179.96 C 364.56 183.63 351.76 185.71 339.77 182.24 C 333.16 180.43 330.21 172.12 333.29 166.24 C 334.90 162.46 339.45 160.35 339.87 156.03 C 339.65 152.27 338.31 148.68 337.57 145.01 C 337.03 141.10 332.52 139.32 329.02 139.60 C 327.19 142.23 327.91 146.12 326.03 148.92 M 83.41 169.63 C 80.53 170.04 78.73 173.07 79.57 175.83 C 83.00 197.84 86.46 219.84 89.62 241.90 C 90.40 246.56 90.97 251.43 93.26 255.65 C 96.14 260.49 104.44 261.89 107.87 256.96 C 110.52 252.90 109.60 247.73 109.35 243.16 C 104.69 220.73 100.05 198.29 95.04 175.93 C 94.28 170.57 88.24 167.93 83.41 169.63 M 552.49 170.73 C 548.35 172.53 546.23 176.91 545.48 181.14 C 541.12 203.77 536.90 226.43 532.60 249.07 C 531.98 251.76 532.19 254.75 533.85 257.04 C 535.38 259.26 538.74 259.57 540.87 258.02 C 545.42 255.78 547.48 250.81 547.94 246.01 C 552.00 223.03 556.26 200.06 559.50 176.95 C 560.48 172.87 556.64 168.35 552.49 170.73 M 592.95 171.91 C 586.78 175.23 583.69 182.29 582.85 188.97 C 580.93 202.72 579.12 216.50 576.66 230.17 C 571.96 256.58 567.44 283.03 561.46 309.19 C 559.73 315.99 558.80 323.44 554.09 328.96 C 543.93 350.34 525.67 367.00 505.03 378.12 C 493.28 384.54 481.82 391.70 469.15 396.23 C 464.31 397.98 458.97 398.95 453.88 397.80 C 447.01 396.09 443.26 386.54 448.05 380.98 C 453.56 374.41 461.77 371.22 468.97 366.95 C 479.19 360.80 489.64 355.05 499.80 348.81 C 508.99 343.00 518.82 337.11 524.67 327.64 C 527.44 318.70 530.99 309.60 530.28 300.05 C 530.25 297.83 528.45 295.55 526.06 295.97 C 515.30 296.87 506.47 303.77 496.98 308.21 C 479.96 316.47 462.90 324.64 445.84 332.83 C 440.25 335.39 434.97 338.65 429.08 340.51 C 410.10 349.72 391.40 359.54 373.22 370.25 C 357.74 379.65 346.16 394.42 338.56 410.68 C 330.30 427.83 324.87 446.32 322.26 465.17 C 321.80 468.41 322.03 471.74 321.18 474.93 C 320.79 474.62 320.00 473.98 319.61 473.67 C 318.38 469.20 318.29 464.50 317.49 459.95 C 314.42 441.81 308.87 424.03 300.32 407.71 C 295.54 398.82 290.34 389.97 283.03 382.89 C 275.27 374.96 265.77 369.03 256.05 363.82 C 214.21 340.71 169.97 322.40 127.69 300.14 C 123.09 298.05 118.18 295.45 112.99 296.08 C 109.62 296.98 109.19 300.95 109.71 303.85 C 111.23 313.72 112.96 324.39 119.98 332.02 C 127.62 340.33 137.57 345.98 147.15 351.74 C 159.37 358.96 171.69 366.01 183.97 373.13 C 187.75 375.49 191.76 377.98 194.07 381.93 C 197.15 387.85 194.01 396.28 187.56 398.38 C 182.31 400.03 176.63 399.05 171.52 397.35 C 158.37 392.77 146.52 385.30 134.37 378.64 C 121.01 371.31 108.62 361.97 98.66 350.38 C 89.29 339.38 82.78 326.06 79.40 312.04 C 77.48 303.81 76.23 295.44 74.86 287.11 C 69.70 253.46 65.79 219.63 61.67 185.84 C 61.02 181.28 59.17 176.42 55.17 173.81 C 51.32 171.83 47.21 175.12 45.25 178.31 C 41.33 185.19 42.19 193.39 41.80 201.00 C 40.58 223.13 40.04 245.32 38.16 267.41 C 36.61 283.41 32.84 299.86 37.19 315.74 C 39.87 326.85 46.28 336.51 50.01 347.23 C 50.92 348.64 51.75 350.10 52.44 351.62 C 60.53 369.46 68.37 387.42 76.91 405.05 C 79.95 411.17 83.26 417.19 87.21 422.78 C 91.25 428.48 96.96 432.75 102.99 436.16 C 138.16 455.27 174.88 471.29 211.33 487.78 C 231.49 496.82 251.52 506.22 270.71 517.20 C 286.33 526.40 302.01 535.60 316.64 546.34 C 318.41 547.80 320.99 548.44 322.93 546.88 C 344.15 531.87 366.36 518.19 389.72 506.75 C 399.86 501.70 409.80 496.18 420.36 492.03 C 425.24 488.96 430.69 486.96 435.91 484.56 C 458.30 474.55 480.64 464.43 502.74 453.80 C 515.66 447.52 528.68 441.37 541.07 434.08 C 545.85 430.60 550.27 426.55 553.79 421.77 C 557.92 416.32 560.76 410.07 563.81 403.99 C 574.70 381.87 583.96 358.98 594.83 336.85 C 598.85 327.50 603.13 318.13 604.87 308.02 C 607.48 295.14 605.48 281.99 605.20 269.01 C 605.01 254.04 604.11 239.09 604.45 224.13 C 605.00 212.75 603.94 201.38 603.81 190.01 C 603.81 184.98 603.96 179.71 601.89 175.01 C 600.36 171.77 596.16 170.09 592.95 171.91 M 513.45 206.35 C 510.70 208.77 509.10 212.28 508.28 215.80 C 505.99 226.13 504.85 236.65 503.17 247.08 C 502.38 251.97 501.17 256.90 501.70 261.88 C 502.02 265.47 506.37 268.44 509.70 266.61 C 514.32 264.20 517.02 259.09 517.01 253.95 C 517.86 239.33 519.62 224.73 519.58 210.07 C 520.17 206.77 516.08 203.92 513.45 206.35 M 121.22 207.38 C 118.58 208.34 118.00 211.42 118.51 213.89 C 120.79 228.31 122.86 242.76 125.10 257.18 C 125.67 261.66 128.50 266.18 133.04 267.42 C 136.84 267.55 139.33 263.50 138.27 260.04 C 135.34 246.50 132.91 232.85 131.22 219.10 C 130.83 215.84 130.70 212.20 128.36 209.64 C 126.66 207.72 123.74 206.23 121.22 207.38 M 155.13 235.17 C 151.68 236.91 150.89 241.39 151.70 244.86 C 153.60 255.24 155.16 265.69 157.66 275.95 C 158.34 280.51 164.18 282.43 167.82 280.05 C 169.81 278.40 169.81 275.46 169.36 273.13 C 167.82 265.11 165.84 257.17 164.44 249.12 C 163.69 245.29 162.98 241.35 161.11 237.88 C 159.99 235.81 157.47 234.42 155.13 235.17 M 479.07 238.05 C 475.57 243.43 476.33 250.34 473.65 256.09 C 472.99 262.55 471.61 268.92 471.51 275.44 C 473.00 277.45 474.27 280.09 476.98 280.64 C 480.92 280.63 483.21 276.34 483.20 272.82 C 483.67 261.24 485.08 249.69 485.32 238.11 C 484.72 234.92 480.32 235.77 479.07 238.05 Z" />
<path fill="#ca9657" opacity="1.00" d=" M 821.13 371.14 C 830.32 366.00 842.27 367.84 850.99 373.09 C 851.42 375.25 849.88 377.29 849.21 379.30 C 848.51 380.70 847.45 383.18 845.49 382.46 C 840.72 380.15 835.54 377.54 830.08 378.55 C 827.46 378.83 826.70 382.71 829.03 383.97 C 834.75 387.37 841.96 387.52 847.31 391.67 C 854.09 396.99 852.79 409.29 844.98 413.04 C 834.49 418.58 820.86 415.67 812.00 408.29 C 813.52 405.25 814.20 401.50 817.01 399.30 C 822.83 402.78 829.37 407.14 836.51 405.27 C 839.30 404.55 839.67 400.24 837.10 398.99 C 831.34 396.02 824.44 395.63 819.06 391.88 C 812.40 386.66 813.79 375.09 821.13 371.14 Z" />
<path fill="#ca9657" opacity="1.00" d=" M 1100.60 368.79 C 1109.42 366.96 1119.35 369.66 1125.25 376.67 C 1132.96 385.44 1132.60 400.03 1124.49 408.42 C 1114.59 418.57 1095.80 418.59 1086.61 407.45 C 1080.05 399.87 1079.18 388.02 1084.53 379.56 C 1088.04 373.88 1094.09 370.04 1100.60 368.79 M 1101.47 379.76 C 1095.91 381.91 1092.93 388.30 1093.85 394.03 C 1094.47 400.78 1101.01 406.65 1107.91 405.38 C 1116.74 404.01 1120.89 392.78 1116.73 385.35 C 1114.09 379.86 1107.03 377.39 1101.47 379.76 Z" />
<path fill="#ca9657" opacity="1.00" d=" M 1297.97 370.99 C 1307.27 366.06 1319.22 367.85 1327.92 373.30 C 1327.26 376.20 1326.11 379.05 1324.43 381.51 C 1323.51 382.68 1322.43 382.85 1321.19 382.04 C 1316.68 379.75 1311.60 377.59 1306.46 378.57 C 1303.87 379.13 1303.57 382.92 1305.84 384.12 C 1311.72 387.69 1319.40 387.57 1324.69 392.28 C 1330.24 397.51 1329.30 407.90 1322.97 412.15 C 1319.23 414.82 1314.52 415.67 1310.02 415.74 C 1302.36 415.77 1294.35 413.70 1288.64 408.36 C 1290.06 405.18 1291.59 402.03 1293.23 398.95 C 1298.20 402.38 1303.76 405.66 1309.99 405.74 C 1311.98 405.71 1314.81 405.30 1315.32 402.93 C 1315.80 401.22 1314.77 399.48 1313.26 398.74 C 1307.02 395.52 1298.85 395.68 1294.03 390.02 C 1289.06 384.19 1291.28 374.50 1297.97 370.99 Z" />
<path fill="#ca9657" opacity="1.00" d=" M 731.07 369.21 C 733.97 368.59 737.05 368.55 739.99 369.07 C 742.25 369.48 742.34 372.19 742.45 374.02 C 742.60 385.67 742.41 397.33 742.54 408.99 C 742.54 410.95 742.64 412.95 742.09 414.87 C 738.35 415.24 734.58 415.17 730.85 414.99 C 729.76 413.18 730.30 410.97 730.17 408.99 C 730.40 395.83 729.86 382.64 730.43 369.52 L 731.07 369.21 Z" />
<path fill="#ca9657" opacity="1.00" d=" M 757.60 371.01 C 757.37 369.14 759.66 368.91 760.98 368.76 C 765.32 368.13 769.71 370.22 772.10 373.87 C 777.31 381.54 783.09 388.78 788.77 396.10 C 788.82 388.38 788.83 380.65 788.72 372.93 C 788.81 371.65 788.54 369.61 790.15 369.17 C 792.93 368.58 795.91 368.75 798.66 369.47 C 800.44 370.19 800.08 372.47 800.29 374.03 C 800.26 387.05 800.41 400.08 800.24 413.10 C 800.30 415.33 797.49 415.13 795.97 415.31 C 791.97 415.62 787.88 413.84 785.70 410.41 C 780.67 402.76 774.89 395.64 769.12 388.55 C 768.67 396.72 769.19 404.92 768.90 413.09 C 768.87 415.56 765.76 415.15 764.07 415.20 C 762.11 414.98 759.68 415.37 758.19 413.81 C 757.33 411.63 757.59 409.23 757.53 406.94 C 757.65 394.97 757.40 382.98 757.60 371.01 Z" />
<path fill="#ca9657" opacity="1.00" d=" M 861.24 369.37 C 869.10 368.42 877.10 369.20 885.01 368.95 C 889.65 369.11 894.33 368.54 898.93 369.26 C 899.90 372.07 900.41 375.48 899.25 378.27 C 895.57 379.98 891.24 378.45 887.39 379.50 C 885.80 379.88 885.82 381.71 885.70 383.01 C 885.50 392.68 885.63 402.35 885.65 412.02 C 885.59 413.10 885.61 415.16 883.98 414.99 C 881.13 415.27 878.14 415.41 875.38 414.60 C 873.52 413.83 873.67 411.50 873.49 409.84 C 873.40 401.24 873.44 392.64 873.50 384.05 C 873.35 382.49 873.78 380.69 872.81 379.35 C 868.63 378.74 864.38 379.49 860.22 378.83 C 859.89 375.87 858.45 371.39 861.24 369.37 Z" />
<path fill="#ca9657" opacity="1.00" d=" M 911.10 369.22 C 914.71 368.76 918.37 368.87 922.00 369.15 C 922.75 370.25 922.78 371.61 922.79 372.91 C 922.70 385.96 922.76 399.01 922.76 412.05 C 922.77 413.20 922.49 415.05 920.95 415.01 C 918.30 415.35 915.56 415.28 912.95 414.77 C 910.79 414.34 910.71 411.76 910.64 410.03 C 910.50 398.35 910.71 386.67 910.54 375.00 C 910.55 373.06 910.37 371.05 911.10 369.22 Z" />
<path fill="#ca9657" opacity="1.00" d=" M 935.29 369.37 C 940.12 368.49 945.09 369.13 949.98 368.95 C 957.63 369.13 965.32 368.58 972.95 369.21 C 973.60 372.15 974.13 375.78 972.45 378.43 C 968.57 380.10 963.84 377.90 960.20 380.13 C 958.90 391.22 960.16 402.53 959.55 413.68 C 959.18 415.74 956.47 414.95 955.01 415.24 C 952.44 415.12 948.06 415.68 947.75 412.10 C 946.99 401.77 947.75 391.37 947.41 381.02 C 947.26 380.59 946.96 379.75 946.81 379.32 C 942.62 378.77 938.36 379.50 934.18 378.84 C 933.89 375.88 932.33 371.29 935.29 369.37 Z" />
<path fill="#ca9657" opacity="1.00" d=" M 983.73 369.06 C 987.06 368.95 990.50 368.40 993.79 369.24 C 995.62 369.95 995.65 372.24 995.80 373.89 C 996.02 381.60 995.63 389.32 995.95 397.02 C 995.96 401.77 1000.22 405.98 1005.05 405.52 C 1009.18 405.64 1012.66 402.08 1012.90 398.04 C 1013.46 389.09 1012.77 380.10 1013.22 371.15 C 1013.35 368.76 1016.20 368.75 1017.99 368.83 C 1020.14 369.04 1022.81 368.61 1024.52 370.26 C 1025.54 372.69 1025.16 375.43 1025.27 378.01 C 1025.14 384.98 1025.44 391.96 1025.12 398.92 C 1024.73 405.75 1020.19 412.22 1013.66 414.48 C 1004.82 417.57 993.54 416.24 987.41 408.58 C 983.80 404.24 983.51 398.36 983.56 392.98 C 983.57 385.01 983.38 377.03 983.73 369.06 Z" />
<path fill="#ca9657" opacity="1.00" d=" M 1036.17 368.94 C 1048.83 369.07 1061.50 368.75 1074.15 369.08 C 1076.16 371.41 1075.64 375.15 1075.26 378.02 C 1071.73 380.20 1067.18 378.35 1063.32 379.50 C 1061.79 379.92 1061.90 381.73 1061.76 382.98 C 1061.51 392.99 1061.93 403.02 1061.60 413.02 C 1061.29 415.72 1057.88 415.12 1055.97 415.19 C 1053.62 415.09 1049.75 415.23 1049.74 411.95 C 1049.26 401.95 1049.61 391.92 1049.55 381.91 C 1049.54 380.96 1049.32 380.07 1048.88 379.25 C 1044.91 378.88 1040.92 379.39 1036.96 379.22 C 1034.53 376.35 1036.06 372.29 1036.17 368.94 Z" />
<path fill="#ca9657" opacity="1.00" d=" M 1164.25 369.30 C 1168.46 368.58 1172.77 369.13 1177.03 368.90 C 1185.08 368.79 1194.03 369.03 1200.49 374.54 C 1212.10 383.69 1210.64 404.47 1197.59 411.62 C 1187.34 417.18 1175.24 414.76 1164.11 414.90 C 1164.10 399.70 1163.82 384.48 1164.25 369.30 M 1176.46 379.39 C 1175.99 386.26 1176.33 393.17 1176.27 400.05 C 1176.33 401.97 1176.28 405.21 1179.01 405.19 C 1183.69 405.46 1189.19 405.26 1192.57 401.50 C 1197.18 396.13 1197.21 386.99 1191.75 382.17 C 1187.68 378.32 1181.59 378.90 1176.46 379.39 Z" />
<path fill="#ca9657" opacity="1.00" d=" M 1220.47 371.92 C 1220.53 370.92 1220.44 368.84 1222.02 369.07 C 1232.67 368.77 1243.36 369.01 1254.02 368.96 C 1257.12 368.33 1256.90 372.04 1256.79 374.05 C 1256.63 375.61 1256.86 378.26 1254.78 378.59 C 1247.64 379.50 1240.37 378.28 1233.24 379.20 C 1232.06 381.67 1232.84 384.54 1232.81 387.18 C 1239.51 387.34 1246.22 387.18 1252.93 387.30 C 1254.94 387.17 1254.49 389.62 1254.69 390.92 C 1254.57 392.82 1255.23 396.23 1252.54 396.57 C 1246.08 397.30 1239.53 396.40 1233.08 397.22 C 1232.51 399.58 1232.07 402.45 1233.23 404.68 C 1240.82 406.11 1248.82 404.29 1256.47 405.50 C 1258.29 407.31 1257.31 410.61 1257.16 412.99 C 1257.03 415.14 1254.59 414.97 1253.06 415.08 C 1243.35 415.14 1233.64 415.07 1223.94 415.14 C 1222.68 414.97 1220.58 415.41 1220.59 413.55 C 1220.35 399.69 1220.60 385.79 1220.47 371.92 Z" />
<path fill="#ca9657" opacity="1.00" d=" M 1340.98 369.25 C 1351.26 368.48 1361.63 369.24 1371.96 368.89 C 1373.49 369.12 1375.97 368.32 1376.81 370.12 C 1377.26 372.94 1377.17 375.87 1376.70 378.69 C 1368.88 379.44 1360.93 378.30 1353.17 379.29 C 1352.37 381.66 1352.52 384.28 1353.25 386.66 C 1359.97 388.07 1366.94 386.69 1373.75 387.39 C 1375.27 389.33 1374.60 392.27 1374.49 394.60 C 1374.52 395.98 1373.33 396.51 1372.15 396.63 C 1365.81 397.25 1359.39 396.40 1353.08 397.24 C 1352.46 399.83 1352.78 402.50 1352.90 405.12 C 1360.59 405.30 1368.30 405.05 1376.00 405.26 C 1377.83 405.23 1377.74 407.64 1377.83 408.93 C 1377.75 411.07 1378.32 415.03 1375.10 414.96 C 1366.05 415.33 1356.98 414.94 1347.93 415.15 C 1345.68 415.12 1343.38 415.40 1341.23 414.69 C 1340.12 413.39 1340.59 411.56 1340.49 410.02 C 1340.73 397.03 1340.39 384.02 1340.59 371.02 C 1340.68 370.58 1340.88 369.69 1340.98 369.25 Z" />
<path fill="#ca9657" opacity="1.00" d=" M 1389.32 384.55 C 1392.04 376.37 1399.60 370.21 1408.06 368.84 C 1416.55 367.33 1426.01 369.44 1432.42 375.38 C 1430.10 378.11 1428.52 381.93 1425.03 383.36 C 1422.16 381.69 1419.51 379.34 1416.06 379.06 C 1409.68 377.56 1402.74 381.82 1401.17 388.15 C 1399.97 393.44 1401.28 399.90 1406.00 403.11 C 1410.44 406.33 1416.95 406.30 1421.33 403.01 C 1421.78 399.28 1421.15 395.49 1421.76 391.77 C 1424.72 391.22 1428.11 390.67 1430.93 392.06 C 1432.62 395.73 1431.56 400.02 1431.88 403.95 C 1431.65 406.17 1432.32 408.89 1430.73 410.72 C 1420.14 417.51 1404.50 418.34 1395.05 409.05 C 1388.68 402.86 1386.57 392.91 1389.32 384.55 Z" />
<path fill="#ca9657" opacity="1.00" d=" M 1446.04 369.19 C 1448.98 368.63 1452.06 368.46 1455.03 368.99 C 1457.04 369.32 1457.31 371.67 1457.45 373.33 C 1457.85 381.55 1457.14 389.81 1457.77 398.02 C 1458.24 402.43 1462.44 405.97 1466.90 405.51 C 1470.96 405.58 1474.29 402.07 1474.61 398.14 C 1475.31 389.13 1474.53 380.06 1474.97 371.04 C 1475.33 368.22 1478.89 368.92 1480.92 368.87 C 1483.03 369.03 1486.65 368.83 1486.79 371.81 C 1487.28 377.54 1486.84 383.30 1487.03 389.04 C 1487.07 395.62 1487.66 402.94 1483.40 408.49 C 1478.29 415.62 1468.48 416.99 1460.41 415.41 C 1452.94 413.90 1446.30 407.75 1445.62 399.93 C 1444.89 390.97 1445.42 381.97 1445.28 373.00 C 1445.45 371.75 1444.96 370.12 1446.04 369.19 Z" />
<path fill="#ca9657" opacity="1.00" d=" M 1501.51 371.06 C 1501.48 368.63 1504.23 368.90 1505.96 368.91 C 1514.43 369.30 1523.17 367.98 1531.42 370.49 C 1542.53 373.66 1544.87 390.27 1536.58 397.53 C 1535.66 398.73 1533.08 399.86 1534.36 401.66 C 1537.05 406.21 1540.08 410.57 1542.84 415.09 C 1538.28 414.97 1533.68 415.43 1529.16 414.84 C 1527.08 412.13 1525.89 408.89 1524.21 405.95 C 1522.72 401.93 1517.10 401.48 1513.69 402.91 C 1513.04 406.62 1514.62 411.03 1512.30 414.27 C 1509.44 415.52 1506.09 415.32 1503.07 414.94 C 1501.27 414.65 1501.47 412.42 1501.40 411.09 C 1501.48 397.75 1501.24 384.39 1501.51 371.06 M 1514.29 379.33 C 1513.21 383.30 1513.14 387.83 1514.33 391.78 C 1516.29 393.05 1518.77 392.57 1521.01 392.68 C 1523.80 392.73 1527.05 392.17 1528.65 389.58 C 1531.25 386.08 1529.47 380.05 1524.96 379.28 C 1521.47 378.95 1517.60 377.88 1514.29 379.33 Z" />
<path fill="#ca9657" opacity="1.00" d=" M 1556.15 369.20 C 1559.02 368.58 1562.09 368.67 1565.00 369.21 C 1567.79 370.08 1567.14 373.72 1567.40 376.00 C 1567.30 388.32 1567.44 400.64 1567.35 412.95 C 1567.57 415.45 1564.69 415.06 1563.05 415.20 C 1560.72 415.11 1558.21 415.35 1556.16 414.10 C 1554.96 412.33 1555.16 410.09 1555.06 408.07 C 1554.97 396.38 1555.19 384.68 1555.04 372.99 C 1555.37 371.84 1554.47 369.42 1556.15 369.20 Z" />
<path fill="#ca9657" opacity="1.00" d=" M 1583.32 369.42 C 1586.05 368.35 1589.11 369.15 1592.00 369.01 C 1600.58 369.20 1610.12 368.05 1617.53 373.38 C 1630.20 381.92 1629.84 403.71 1616.47 411.42 C 1606.28 417.13 1594.04 414.73 1582.91 414.87 C 1581.82 401.98 1582.81 388.96 1582.43 376.02 C 1582.56 373.84 1581.89 371.29 1583.32 369.42 M 1595.12 379.29 C 1594.01 383.76 1594.93 388.50 1594.64 393.08 C 1594.83 396.85 1593.90 400.94 1595.48 404.49 C 1599.17 405.87 1603.49 405.35 1607.23 404.28 C 1616.19 400.51 1616.78 386.19 1608.85 381.00 C 1604.83 378.24 1599.67 379.11 1595.12 379.29 Z" />
<path fill="#ca9657" opacity="1.00" d=" M 1653.33 369.27 C 1656.43 368.60 1659.72 368.74 1662.85 369.31 C 1665.65 369.96 1666.68 373.01 1667.79 375.33 C 1673.25 388.61 1679.04 401.75 1684.33 415.10 C 1680.24 414.95 1676.13 415.37 1672.08 414.90 C 1669.80 413.02 1669.85 409.48 1667.66 407.57 C 1664.20 406.56 1660.51 407.22 1656.97 407.04 C 1654.20 407.20 1651.29 406.56 1648.65 407.50 C 1647.39 409.83 1647.28 413.16 1644.65 414.48 C 1641.11 416.04 1637.15 415.05 1633.51 414.51 C 1638.21 401.83 1644.11 389.63 1649.20 377.11 C 1650.50 374.49 1651.02 371.22 1653.33 369.27 M 1652.46 397.55 C 1656.45 397.55 1660.44 397.60 1664.44 397.45 C 1662.63 392.20 1660.51 387.06 1658.57 381.87 C 1656.50 387.08 1654.48 392.31 1652.46 397.55 Z" />
<path fill="#ca9657" opacity="1.00" d=" M 1694.83 369.11 C 1703.62 369.10 1712.51 368.26 1721.22 369.82 C 1729.18 371.39 1736.28 377.45 1738.26 385.44 C 1740.63 395.40 1737.01 407.64 1727.25 412.25 C 1717.12 416.97 1705.62 414.57 1694.85 415.08 C 1694.58 399.76 1694.62 384.43 1694.83 369.11 M 1707.53 379.50 L 1707.01 379.81 C 1706.85 386.53 1706.89 393.26 1706.93 399.99 C 1707.09 401.69 1706.78 404.56 1709.01 405.02 C 1713.52 405.52 1718.74 405.46 1722.43 402.41 C 1729.37 396.35 1727.52 382.77 1718.50 379.70 C 1714.95 378.91 1711.05 378.70 1707.53 379.50 Z" />
<path fill="#ca9657" opacity="1.00" d=" M 725.58 444.51 C 729.47 444.51 733.39 444.21 737.28 444.60 C 741.62 450.60 744.58 457.52 748.39 463.87 C 752.10 457.68 754.86 450.87 759.01 444.98 C 762.86 443.72 767.14 444.84 771.16 444.46 C 766.64 452.87 762.41 461.43 757.55 469.66 C 754.45 475.27 754.17 481.83 754.66 488.08 C 754.98 490.11 752.60 490.66 751.07 490.64 C 748.49 490.61 745.58 491.18 743.29 489.72 C 742.03 487.69 742.52 485.18 742.41 482.94 C 742.56 479.17 741.95 475.33 740.14 471.99 C 735.17 462.89 730.10 453.84 725.58 444.51 Z" />
<path fill="#ca9657" opacity="1.00" d=" M 808.35 446.35 C 817.88 441.56 829.64 443.31 838.55 448.72 C 837.29 451.63 836.62 454.99 834.41 457.37 C 833.40 458.51 831.91 457.64 830.85 457.15 C 826.68 454.84 821.83 453.26 817.03 453.99 C 814.56 454.24 813.79 457.87 815.84 459.20 C 821.54 463.03 829.17 462.85 834.57 467.29 C 839.34 471.20 839.80 478.69 836.85 483.82 C 833.75 488.84 827.60 490.95 821.95 491.09 C 813.91 491.45 805.15 489.32 799.22 483.64 C 800.36 480.49 801.31 476.76 804.12 474.70 C 809.75 478.18 816.00 482.30 822.98 480.92 C 826.13 480.39 826.84 475.30 823.74 474.16 C 817.97 471.35 811.11 471.05 805.89 467.10 C 799.31 461.84 800.93 450.08 808.35 446.35 Z" />
<path fill="#ca9657" opacity="1.00" d=" M 852.40 444.53 C 861.93 444.36 871.49 444.53 881.04 444.42 C 883.08 444.44 885.19 444.23 887.19 444.84 C 887.67 447.50 887.90 450.32 887.15 452.96 C 886.17 454.18 884.42 453.92 883.07 454.08 C 876.99 454.24 870.92 453.99 864.86 454.18 C 862.79 454.02 863.16 456.63 862.99 457.96 C 863.00 459.62 862.68 462.40 865.03 462.53 C 871.35 463.16 877.73 462.37 884.06 462.89 C 885.47 464.17 884.92 466.34 885.06 468.04 C 884.97 469.47 885.02 471.92 883.04 472.03 C 876.83 472.77 870.54 472.03 864.33 472.55 C 861.94 474.08 863.42 478.00 863.49 480.45 C 870.31 480.87 877.17 480.56 884.01 480.61 C 885.35 480.75 887.47 480.14 887.78 482.05 C 888.22 484.55 888.85 487.35 887.74 489.77 C 885.96 490.68 883.91 490.51 882.00 490.57 C 873.34 490.55 864.68 490.50 856.02 490.61 C 854.46 490.51 852.70 490.80 851.41 489.75 C 850.49 487.96 850.83 485.88 850.77 483.96 C 851.01 471.97 850.85 459.98 850.81 447.99 C 850.95 446.73 850.57 444.62 852.40 444.53 Z" />
<path fill="#ca9657" opacity="1.00" d=" M 901.63 444.68 C 907.76 444.31 913.94 444.39 920.10 444.38 C 926.10 444.61 932.92 444.95 937.41 449.51 C 941.58 454.11 942.26 461.16 940.61 466.96 C 939.55 470.74 936.17 473.03 933.84 475.96 C 936.53 481.02 939.98 485.63 942.94 490.55 C 938.47 490.40 933.97 490.86 929.54 490.36 C 926.48 487.30 925.54 482.59 922.81 479.20 C 920.17 477.42 916.76 477.81 913.75 477.80 C 913.41 481.22 913.72 484.65 913.79 488.08 C 914.05 490.11 911.64 490.70 910.11 490.84 C 907.27 490.93 904.43 490.73 901.66 490.23 C 901.05 482.83 901.56 475.39 901.40 467.98 C 901.56 460.22 901.07 452.42 901.63 444.68 M 913.51 454.92 C 913.36 459.30 913.57 463.70 913.69 468.09 C 917.67 468.09 921.77 468.64 925.66 467.51 C 931.06 465.88 931.41 456.86 925.98 455.00 C 922.00 453.75 917.41 453.06 913.51 454.92 Z" />
<path fill="#ca9657" opacity="1.00" d=" M 987.39 444.54 C 991.11 444.28 994.85 444.47 998.59 444.55 C 993.38 458.38 987.77 472.07 982.57 485.90 C 981.81 487.65 981.19 490.13 978.94 490.36 C 974.85 490.80 968.60 492.23 966.92 487.09 C 961.22 472.95 955.70 458.74 950.35 444.47 C 954.63 445.06 959.65 443.24 963.48 445.42 C 967.77 455.70 970.70 466.56 974.73 476.97 C 978.30 467.03 981.82 457.07 985.24 447.07 C 985.67 446.10 986.03 444.50 987.39 444.54 Z" />
<path fill="#ca9657" opacity="1.00" d=" M 1010.43 444.57 C 1013.28 444.25 1016.28 444.12 1019.08 444.89 C 1021.74 446.05 1020.89 449.61 1021.17 451.94 C 1020.90 464.59 1021.60 477.30 1020.86 489.91 C 1017.96 491.25 1014.53 490.68 1011.48 490.28 C 1008.68 489.67 1009.14 486.15 1008.99 484.00 C 1009.17 471.04 1008.66 458.05 1009.24 445.13 C 1009.54 444.99 1010.13 444.71 1010.43 444.57 Z" />
<path fill="#ca9657" opacity="1.00" d=" M 1036.24 456.29 C 1040.95 447.60 1051.32 443.11 1060.94 443.86 C 1066.89 444.50 1072.48 447.44 1076.65 451.69 C 1074.22 454.32 1072.83 458.72 1069.09 459.60 C 1066.20 457.13 1063.16 454.36 1059.13 454.24 C 1052.01 453.34 1045.88 460.10 1046.04 466.97 C 1045.68 473.31 1050.44 479.90 1057.06 480.27 C 1061.89 480.86 1065.98 477.91 1069.76 475.37 C 1072.30 477.70 1074.67 480.23 1076.84 482.92 C 1072.36 486.94 1067.04 490.40 1060.96 491.19 C 1052.69 492.28 1043.61 489.24 1038.46 482.49 C 1032.95 475.10 1031.65 464.44 1036.24 456.29 Z" />
<path fill="#ca9657" opacity="1.00" d=" M 1089.42 444.55 C 1092.95 444.81 1099.45 442.10 1100.46 447.09 C 1099.62 461.33 1100.72 475.66 1099.86 489.87 C 1097.00 491.32 1093.53 490.63 1090.49 490.25 C 1088.07 489.80 1088.10 486.88 1088.02 484.98 C 1087.95 472.63 1088.05 460.28 1087.97 447.92 C 1088.09 446.82 1087.74 444.56 1089.42 444.55 Z" />
<path fill="#ca9657" opacity="1.00" d=" M 1130.40 444.60 C 1138.74 442.51 1148.30 444.20 1154.72 450.16 C 1163.99 458.42 1164.64 474.18 1156.29 483.29 C 1146.67 494.26 1127.45 494.04 1118.01 482.97 C 1110.27 474.32 1110.55 459.86 1118.56 451.48 C 1121.71 448.08 1125.91 445.73 1130.40 444.60 M 1134.37 454.51 C 1128.14 456.12 1124.30 462.89 1125.13 469.10 C 1125.56 475.54 1131.40 481.31 1138.01 480.74 C 1145.38 480.58 1150.73 472.94 1149.64 465.92 C 1149.09 458.67 1141.67 452.33 1134.37 454.51 Z" />
<path fill="#ca9657" opacity="1.00" d=" M 1180.44 446.31 C 1189.98 441.51 1201.64 443.36 1210.56 448.71 C 1209.12 451.80 1208.55 455.62 1205.80 457.88 C 1202.05 457.66 1199.02 454.49 1195.15 454.23 C 1192.13 453.39 1185.52 453.07 1186.79 457.97 C 1191.24 462.84 1198.83 462.33 1204.27 465.73 C 1212.45 469.63 1212.75 482.59 1205.46 487.52 C 1198.26 492.40 1188.69 491.92 1180.75 489.28 C 1177.44 487.85 1173.55 486.60 1171.36 483.63 C 1172.23 480.49 1173.29 476.87 1176.01 474.84 C 1178.43 475.42 1180.10 477.53 1182.37 478.50 C 1186.47 480.34 1191.21 482.10 1195.71 480.67 C 1198.11 479.82 1198.75 476.04 1196.52 474.65 C 1190.51 471.24 1182.88 471.24 1177.47 466.67 C 1171.20 461.22 1173.11 449.91 1180.44 446.31 Z" />
<path fill="#ca9657" opacity="1.00" d=" M 1244.46 452.58 C 1246.55 447.59 1251.83 444.65 1257.01 443.94 C 1264.53 442.96 1272.50 444.23 1279.05 448.15 C 1279.25 448.39 1279.65 448.87 1279.84 449.11 C 1278.71 452.26 1277.86 456.10 1274.94 458.09 C 1269.60 455.91 1263.98 452.59 1258.01 454.18 C 1255.89 454.91 1255.63 458.10 1257.49 459.27 C 1263.30 462.69 1270.55 463.05 1276.04 467.10 C 1283.06 472.69 1281.18 485.39 1272.89 488.83 C 1262.42 493.29 1249.31 491.20 1240.59 483.91 C 1242.02 480.66 1243.60 477.48 1245.32 474.38 C 1250.23 477.90 1255.82 481.07 1262.02 481.26 C 1264.44 481.33 1268.06 480.01 1267.39 476.95 C 1267.12 474.34 1264.27 473.55 1262.22 472.83 C 1257.39 471.07 1252.01 470.40 1247.77 467.31 C 1243.25 464.03 1242.56 457.50 1244.46 452.58 Z" />
<path fill="#ca9657" opacity="1.00" d=" M 1307.55 444.63 C 1315.89 442.51 1325.48 444.17 1331.93 450.11 C 1341.22 458.44 1341.61 474.27 1333.34 483.43 C 1324.18 493.73 1306.30 494.11 1296.58 484.40 C 1290.61 478.43 1288.31 469.19 1290.32 461.05 C 1292.41 452.90 1299.50 446.64 1307.55 444.63 M 1311.37 454.58 C 1306.39 456.03 1302.76 460.81 1302.33 465.92 C 1301.35 472.91 1306.54 480.61 1313.94 480.74 C 1321.83 481.48 1328.02 473.35 1326.73 465.87 C 1326.36 458.48 1318.69 452.19 1311.37 454.58 Z" />
<path fill="#ca9657" opacity="1.00" d=" M 1356.19 449.19 C 1366.29 441.10 1382.25 442.18 1391.03 451.77 C 1388.68 454.37 1387.13 457.93 1384.02 459.69 C 1381.14 458.66 1379.41 455.36 1376.18 454.80 C 1369.87 452.40 1362.71 456.80 1360.97 463.07 C 1358.58 469.92 1362.64 478.59 1369.99 480.08 C 1375.22 481.38 1380.11 478.45 1383.94 475.20 C 1386.65 477.40 1388.93 480.06 1391.12 482.78 C 1382.44 492.80 1365.51 494.35 1355.59 485.34 C 1345.13 476.28 1345.29 457.84 1356.19 449.19 Z" />
<path fill="#ca9657" opacity="1.00" d=" M 1403.41 444.65 C 1406.72 444.31 1410.49 443.78 1413.54 445.44 C 1414.96 447.68 1414.52 450.51 1414.66 453.05 C 1414.52 465.18 1414.84 477.35 1414.46 489.46 C 1411.85 491.42 1408.12 490.74 1405.06 490.68 C 1402.38 490.36 1402.55 487.12 1402.44 485.11 C 1402.41 473.05 1402.51 461.00 1402.38 448.94 C 1402.57 447.52 1401.92 445.53 1403.41 444.65 Z" />
<path fill="#ca9657" opacity="1.00" d=" M 1488.43 444.54 C 1491.08 444.23 1493.82 444.23 1496.46 444.77 C 1498.40 445.05 1498.77 447.28 1498.87 448.91 C 1499.15 458.62 1498.74 468.34 1499.04 478.05 C 1499.00 479.36 1499.65 479.98 1500.98 479.90 C 1506.61 480.23 1512.28 479.52 1517.90 480.26 C 1518.49 483.08 1518.72 486.08 1518.06 488.91 C 1517.15 490.74 1514.70 490.38 1513.04 490.58 C 1505.36 490.62 1497.68 490.49 1490.01 490.61 C 1488.92 490.50 1486.67 490.71 1486.90 489.01 C 1486.62 478.01 1486.90 466.99 1486.80 455.98 C 1486.88 452.33 1486.45 448.66 1487.06 445.05 C 1487.40 444.92 1488.09 444.67 1488.43 444.54 Z" />
<path fill="#ca9657" opacity="1.00" d=" M 1530.11 444.97 C 1532.31 444.05 1534.74 444.48 1537.08 444.42 C 1546.79 444.62 1556.51 444.17 1566.22 444.64 C 1565.99 447.50 1567.84 452.08 1564.81 453.77 C 1557.85 454.62 1550.79 453.82 1543.80 454.20 C 1541.68 453.96 1542.15 456.64 1542.00 457.99 C 1542.06 459.61 1541.74 462.52 1544.11 462.55 C 1550.39 463.15 1556.73 462.36 1563.02 462.90 C 1564.67 464.78 1563.84 467.78 1563.79 470.09 C 1563.43 472.85 1559.93 472.09 1557.99 472.33 C 1552.77 472.80 1547.27 471.56 1542.25 473.02 C 1542.32 475.38 1540.59 480.18 1544.08 480.59 C 1551.10 480.79 1558.13 480.40 1565.15 480.72 C 1566.76 480.80 1567.07 482.61 1567.08 483.89 C 1567.10 486.09 1567.26 488.38 1566.52 490.49 C 1555.65 490.74 1544.77 490.48 1533.90 490.60 C 1532.18 490.69 1529.65 490.32 1529.90 488.03 C 1530.06 473.68 1529.59 459.30 1530.11 444.97 Z" />
<path fill="#ca9657" opacity="1.00" d=" M 1581.49 451.40 C 1584.71 445.69 1591.73 443.46 1597.96 443.63 C 1604.33 443.71 1611.29 444.90 1616.39 448.97 C 1615.28 452.09 1614.32 455.55 1611.89 457.93 C 1606.62 456.67 1601.70 452.90 1595.90 453.86 C 1593.09 453.64 1591.43 457.54 1593.88 459.18 C 1599.43 462.85 1606.69 462.88 1612.15 466.80 C 1618.37 471.34 1618.37 481.75 1612.61 486.67 C 1609.14 489.71 1604.43 490.85 1599.94 491.08 C 1591.81 491.46 1583.32 489.34 1577.09 483.93 C 1578.52 480.67 1580.07 477.47 1581.81 474.36 C 1586.55 477.85 1591.99 480.80 1597.97 481.21 C 1600.00 481.26 1602.51 480.86 1603.66 478.95 C 1604.37 477.17 1603.68 474.85 1601.82 474.14 C 1596.23 471.49 1589.73 470.99 1584.52 467.52 C 1579.46 464.02 1578.81 456.57 1581.49 451.40 Z" />
<path fill="#ca9657" opacity="1.00" d=" M 1651.40 444.54 C 1659.61 444.63 1667.94 443.70 1676.08 445.16 C 1684.99 446.73 1692.88 453.99 1694.17 463.10 C 1695.29 471.76 1692.16 481.54 1684.60 486.47 C 1676.73 491.69 1666.85 490.31 1657.92 490.56 C 1655.34 490.37 1652.56 491.12 1650.17 489.98 C 1649.50 480.68 1650.10 471.31 1649.90 461.98 C 1650.08 456.36 1649.51 450.71 1650.13 445.11 C 1650.45 444.97 1651.08 444.68 1651.40 444.54 M 1662.54 455.33 C 1661.33 459.68 1662.46 464.48 1662.09 469.01 C 1662.37 472.68 1661.20 476.78 1662.94 480.17 C 1668.26 480.85 1674.94 481.17 1678.88 476.81 C 1683.19 471.01 1683.03 461.49 1677.04 456.85 C 1674.22 454.54 1670.43 454.41 1666.97 454.56 C 1665.54 454.86 1663.48 453.98 1662.54 455.33 Z" />
<path fill="#ca9657" opacity="1.00" d=" M 1708.30 444.49 C 1719.16 444.41 1730.05 444.41 1740.92 444.50 C 1743.36 444.38 1742.97 447.38 1743.03 449.02 C 1742.79 450.63 1743.24 453.43 1741.06 453.83 C 1733.86 454.74 1726.49 453.50 1719.34 454.46 C 1717.94 456.65 1718.31 460.17 1719.20 462.60 C 1726.14 463.13 1733.15 462.27 1740.08 463.05 C 1740.48 465.85 1741.09 469.02 1739.76 471.67 C 1733.33 473.10 1726.62 471.99 1720.09 472.50 C 1718.35 472.57 1718.54 474.73 1718.53 475.94 C 1718.79 477.35 1717.97 479.55 1719.36 480.47 C 1727.21 481.18 1735.24 479.98 1743.02 481.04 C 1744.21 483.65 1743.52 486.82 1743.45 489.63 C 1742.30 490.88 1740.44 490.40 1738.98 490.57 C 1729.30 490.54 1719.62 490.52 1709.94 490.63 C 1708.23 490.79 1706.24 490.00 1706.43 488.00 C 1706.40 474.35 1706.47 460.69 1706.39 447.03 C 1706.18 445.84 1706.94 444.43 1708.30 444.49 Z" />
<path fill="#ca9657" opacity="1.00" d=" M 1779.42 444.56 C 1782.91 444.78 1789.31 442.14 1790.39 447.03 C 1789.89 456.65 1790.28 466.31 1790.06 475.95 C 1790.17 477.39 1789.75 479.89 1791.89 479.88 C 1797.61 480.15 1803.37 479.60 1809.10 480.15 C 1810.19 483.37 1809.75 487.00 1809.28 490.32 C 1800.52 490.91 1791.71 490.43 1782.94 490.62 C 1781.01 490.58 1777.45 491.06 1777.97 488.04 C 1778.03 473.73 1777.64 459.38 1778.17 445.10 C 1778.48 444.96 1779.10 444.70 1779.42 444.56 Z" />
<path fill="#ca9657" opacity="1.00" d=" M 1835.55 444.75 C 1843.25 442.65 1851.92 443.85 1858.49 448.49 C 1863.56 452.03 1867.24 457.68 1867.92 463.88 C 1868.67 470.92 1866.60 478.39 1861.76 483.65 C 1852.46 493.87 1834.45 494.03 1824.90 484.08 C 1816.56 475.45 1816.20 460.27 1824.44 451.45 C 1827.39 448.21 1831.33 445.93 1835.55 444.75 M 1839.47 454.74 C 1832.00 457.28 1828.74 466.90 1832.27 473.75 C 1834.89 479.74 1842.71 482.58 1848.55 479.57 C 1855.38 476.24 1857.22 466.77 1853.69 460.43 C 1851.12 455.44 1844.78 452.79 1839.47 454.74 Z" />
<path fill="#ca9657" opacity="1.00" d=" M 1880.61 452.82 C 1882.21 448.29 1886.65 445.50 1891.13 444.39 C 1899.73 442.44 1908.91 444.25 1916.48 448.69 C 1915.11 451.88 1914.12 455.38 1911.76 458.02 C 1906.24 456.54 1901.06 452.67 1895.04 453.98 C 1892.13 454.08 1891.80 458.60 1894.29 459.68 C 1899.74 462.60 1906.23 463.10 1911.47 466.49 C 1914.60 468.47 1915.97 472.09 1917.00 475.48 L 1917.00 478.44 C 1915.65 484.13 1911.35 489.07 1905.51 490.33 C 1895.87 492.51 1884.40 490.70 1877.23 483.57 C 1878.00 480.30 1879.47 477.06 1881.84 474.62 C 1887.57 478.09 1893.87 482.35 1900.95 480.90 C 1903.70 480.43 1904.77 476.26 1902.38 474.68 C 1896.61 471.22 1889.28 471.25 1883.82 467.16 C 1879.46 463.90 1878.93 457.63 1880.61 452.82 Z" />
<path fill="#ca9657" opacity="1.00" d=" M 1443.77 446.46 C 1444.75 443.93 1447.82 444.41 1450.02 444.36 C 1453.01 444.38 1456.87 444.53 1458.24 447.75 C 1461.28 453.84 1463.57 460.28 1466.33 466.51 C 1469.54 474.44 1473.18 482.21 1476.05 490.28 C 1472.39 490.60 1468.70 490.78 1465.04 490.60 C 1460.82 489.71 1462.65 482.56 1457.94 482.54 C 1452.94 482.60 1447.95 482.66 1442.96 482.54 C 1438.38 482.47 1439.69 489.65 1435.57 490.38 C 1432.24 490.84 1428.88 490.56 1425.57 490.19 C 1427.56 482.86 1431.27 476.15 1434.05 469.11 C 1437.35 461.59 1440.37 453.94 1443.77 446.46 M 1445.58 472.00 C 1448.18 474.65 1452.91 472.71 1456.36 472.87 C 1454.67 467.54 1452.40 462.42 1450.53 457.17 C 1448.88 462.10 1446.16 466.78 1445.58 472.00 Z" />
<path fill="#ca9657" opacity="1.00" d=" M 1167.47 519.74 C 1175.89 518.12 1185.32 520.37 1191.24 526.81 C 1199.34 535.25 1199.59 549.90 1191.68 558.55 C 1182.28 569.29 1163.64 569.42 1153.89 559.11 C 1146.92 551.69 1145.64 539.54 1150.86 530.81 C 1154.37 524.85 1160.74 520.94 1167.47 519.74 M 1168.36 530.46 C 1161.40 533.07 1158.08 542.01 1161.36 548.62 C 1163.79 554.32 1170.73 557.87 1176.69 555.52 C 1184.61 552.79 1187.43 541.97 1182.78 535.28 C 1179.87 530.55 1173.54 528.23 1168.36 530.46 Z" />
<path fill="#ca9657" opacity="1.00" d=" M 1320.40 521.45 C 1329.40 517.31 1340.29 518.57 1348.76 523.42 C 1350.84 527.11 1346.63 530.44 1345.47 533.80 C 1340.37 531.31 1334.86 528.57 1329.03 529.21 C 1326.38 529.33 1325.08 533.11 1327.34 534.65 C 1332.86 537.91 1339.59 538.46 1345.06 541.85 C 1353.04 547.03 1351.34 561.08 1342.47 564.45 C 1332.14 568.73 1319.01 566.55 1310.75 559.03 C 1311.52 556.52 1312.54 554.06 1313.89 551.81 C 1314.43 550.68 1315.95 549.84 1317.06 550.79 C 1322.13 554.45 1328.54 557.70 1334.94 556.18 C 1337.95 555.49 1338.22 550.86 1335.45 549.67 C 1329.28 546.61 1321.57 546.57 1316.44 541.55 C 1310.68 535.77 1313.15 524.82 1320.40 521.45 Z" />
<path fill="#ca9657" opacity="1.00" d=" M 1616.57 519.70 C 1624.92 518.10 1633.99 519.48 1641.22 524.08 C 1640.12 527.39 1639.50 531.82 1636.06 533.51 C 1631.01 531.33 1625.75 528.25 1620.04 529.27 C 1617.37 529.63 1616.64 533.65 1619.05 534.91 C 1625.74 538.66 1635.04 538.50 1639.69 545.39 C 1644.41 552.18 1640.53 562.26 1632.94 564.96 C 1624.35 567.95 1614.53 566.76 1606.60 562.46 C 1604.99 561.47 1602.97 560.67 1602.20 558.84 C 1603.29 555.77 1604.18 552.15 1606.97 550.17 C 1612.69 553.57 1619.03 557.82 1626.06 556.24 C 1629.04 555.80 1629.61 551.29 1627.11 549.85 C 1621.45 546.77 1614.53 546.57 1609.21 542.77 C 1604.48 539.22 1603.17 532.11 1606.12 527.03 C 1608.25 523.14 1612.28 520.58 1616.57 519.70 Z" />
<path fill="#ca9657" opacity="1.00" d=" M 1824.55 519.79 C 1833.39 518.03 1843.37 520.53 1849.42 527.47 C 1856.84 535.71 1857.05 549.39 1849.87 557.85 C 1844.36 564.47 1835.34 567.37 1826.93 566.74 C 1818.97 566.13 1811.63 561.06 1807.94 554.03 C 1803.82 546.40 1804.27 536.44 1809.34 529.35 C 1812.86 524.29 1818.53 520.94 1824.55 519.79 M 1826.24 530.29 C 1820.26 532.27 1816.95 539.07 1818.00 545.10 C 1818.68 552.14 1825.96 557.76 1832.97 555.92 C 1840.65 554.31 1844.14 544.97 1841.64 538.04 C 1839.80 531.73 1832.41 527.92 1826.24 530.29 Z" />
<path fill="#ca9657" opacity="1.00" d=" M 727.37 520.40 C 731.17 519.54 735.13 520.08 739.00 519.95 C 747.68 520.10 756.38 519.66 765.05 520.15 C 766.15 522.86 766.11 526.23 765.07 528.95 C 761.63 531.65 755.95 528.45 752.54 531.28 C 751.21 542.40 752.66 553.78 751.81 564.96 C 749.28 566.61 745.95 565.72 743.12 565.62 C 741.21 565.60 739.89 563.91 739.99 562.08 C 739.57 552.74 740.10 543.38 739.75 534.04 C 739.63 532.72 739.49 530.91 737.96 530.49 C 734.34 529.70 730.59 530.33 726.95 529.78 C 725.80 527.05 724.91 522.51 727.37 520.40 Z" />
<path fill="#ca9657" opacity="1.00" d=" M 776.72 522.97 C 776.13 518.69 781.43 520.14 784.00 519.94 C 791.97 520.55 800.41 518.66 808.01 521.78 C 816.58 525.35 819.10 536.95 814.66 544.60 C 813.25 547.19 810.99 549.13 808.91 551.14 C 811.85 556.09 815.01 560.90 818.05 565.80 C 813.49 565.64 808.89 566.18 804.38 565.53 C 801.85 562.22 800.68 558.08 798.19 554.76 C 795.47 552.96 792.01 553.18 788.93 553.53 C 788.82 557.36 789.08 561.20 788.78 565.03 C 786.21 566.61 782.84 565.91 779.96 565.89 C 776.89 565.84 776.75 562.23 776.76 559.97 C 776.73 547.64 776.76 535.30 776.72 522.97 M 790.17 530.13 C 788.15 532.03 789.14 535.45 788.88 537.99 C 789.11 539.85 788.50 543.14 791.03 543.59 C 794.31 543.83 797.70 543.67 800.92 542.85 C 806.25 541.34 806.59 532.70 801.63 530.50 C 798.01 529.22 793.88 529.34 790.17 530.13 Z" />
<path fill="#ca9657" opacity="1.00" d=" M 843.77 523.69 C 844.51 521.92 845.57 519.66 847.89 519.94 C 851.63 519.97 856.84 519.04 858.99 522.98 C 861.81 528.35 863.78 534.12 866.24 539.66 C 869.72 548.30 873.69 556.76 876.81 565.55 C 873.14 565.81 869.46 565.99 865.79 565.84 C 861.58 565.14 863.54 558.14 859.06 557.93 C 855.04 557.88 851.03 558.33 847.02 558.04 C 845.20 558.11 843.18 557.63 841.54 558.57 C 839.77 560.73 840.04 564.58 836.96 565.53 C 833.63 566.30 830.08 565.96 826.81 565.10 C 827.00 562.16 828.43 559.54 829.55 556.89 C 834.34 545.84 839.11 534.79 843.77 523.69 M 845.38 548.43 C 849.36 548.58 853.34 548.55 857.33 548.44 C 855.53 543.12 853.33 537.95 851.34 532.70 C 849.36 537.95 847.14 543.10 845.38 548.43 Z" />
<path fill="#ca9657" opacity="1.00" d=" M 887.69 520.11 C 896.14 519.82 904.60 519.97 913.06 520.15 C 919.20 520.31 926.19 524.40 926.50 531.13 C 926.90 535.66 923.61 539.27 920.01 541.49 C 922.51 543.08 925.20 544.71 926.67 547.40 C 929.47 552.52 927.83 559.65 922.86 562.84 C 918.57 565.99 913.01 565.65 907.97 565.81 C 901.30 565.82 894.62 565.96 887.97 565.65 C 887.31 564.17 887.59 562.51 887.52 560.95 C 887.68 547.34 887.35 533.72 887.69 520.11 M 899.88 529.64 C 899.79 532.35 899.01 535.23 900.18 537.83 C 903.64 538.64 907.47 538.18 911.01 537.74 C 914.89 536.93 914.93 530.45 910.94 529.80 C 907.28 529.24 903.56 529.56 899.88 529.64 M 900.09 547.12 C 899.49 550.08 899.63 553.16 899.97 556.15 C 904.29 556.97 909.14 557.12 913.26 555.31 C 916.46 553.83 915.86 548.49 912.47 547.67 C 908.41 546.90 904.20 546.77 900.09 547.12 Z" />
<path fill="#ca9657" opacity="1.00" d=" M 956.25 520.27 C 959.43 519.59 962.79 519.76 965.99 520.35 C 968.43 520.95 969.49 523.51 970.48 525.57 C 974.67 535.39 978.65 545.30 982.87 555.11 C 984.33 558.56 985.97 561.95 986.88 565.61 C 983.12 565.67 979.20 566.52 975.54 565.51 C 972.40 564.33 972.70 560.39 970.86 558.20 C 965.23 557.77 959.57 558.15 953.93 558.02 C 949.28 557.60 951.17 564.81 947.00 565.65 C 943.35 566.26 939.61 565.57 935.93 565.77 C 941.58 552.53 947.32 539.33 952.90 526.07 C 953.88 524.10 954.31 521.55 956.25 520.27 M 961.50 532.71 C 959.52 537.94 957.28 543.09 955.51 548.40 C 959.47 548.61 963.45 548.61 967.43 548.40 C 965.66 543.09 963.53 537.92 961.50 532.71 Z" />
<path fill="#ca9657" opacity="1.00" d=" M 997.29 521.97 C 997.87 519.44 1001.14 520.14 1003.07 519.93 C 1009.98 520.13 1016.95 519.60 1023.84 520.16 C 1025.50 520.32 1024.83 522.77 1025.08 523.93 C 1024.93 532.96 1025.16 541.98 1025.01 551.01 C 1024.97 556.85 1021.95 563.02 1016.31 565.31 C 1008.24 568.44 998.40 565.75 992.90 559.08 C 994.62 556.41 995.82 553.25 998.34 551.19 C 1001.33 551.75 1002.98 555.15 1006.14 555.59 C 1008.80 556.63 1011.93 554.96 1012.35 552.09 C 1013.22 546.79 1012.53 541.37 1012.78 536.03 C 1012.60 534.11 1013.22 531.91 1012.02 530.23 C 1007.36 529.76 1002.65 530.39 998.00 529.89 C 996.18 527.77 997.08 524.51 997.29 521.97 Z" />
<path fill="#ca9657" opacity="1.00" d=" M 1052.80 520.77 C 1055.52 519.17 1059.04 520.00 1062.07 520.12 C 1065.61 520.27 1067.03 523.95 1068.24 526.72 C 1073.07 538.25 1077.81 549.82 1082.82 561.28 C 1083.37 562.67 1084.07 564.11 1083.89 565.68 C 1080.28 565.76 1076.56 566.38 1073.03 565.58 C 1069.68 564.55 1070.08 560.31 1068.08 558.15 C 1062.37 557.84 1056.64 558.06 1050.93 558.04 C 1046.76 558.10 1047.88 564.87 1043.95 565.59 C 1040.39 566.02 1036.80 565.74 1033.24 565.79 C 1037.88 554.89 1042.49 543.98 1047.23 533.12 C 1049.17 529.05 1050.41 524.61 1052.80 520.77 M 1052.76 548.35 C 1056.74 548.63 1060.74 548.63 1064.73 548.38 C 1062.94 543.10 1060.78 537.96 1058.83 532.73 C 1056.80 537.93 1054.61 543.08 1052.76 548.35 Z" />
<path fill="#ca9657" opacity="1.00" d=" M 1094.90 520.12 C 1103.99 520.13 1113.22 519.03 1122.21 520.88 C 1128.89 522.37 1134.84 527.06 1137.53 533.41 C 1142.04 543.76 1138.11 557.45 1127.97 562.90 C 1120.00 567.22 1110.60 565.46 1101.93 565.83 C 1099.68 565.52 1096.82 566.54 1094.98 565.04 C 1094.61 550.08 1094.80 535.09 1094.90 520.12 M 1107.23 530.02 C 1106.72 537.03 1107.07 544.09 1107.01 551.13 C 1107.14 552.73 1106.93 555.32 1108.99 555.80 C 1113.68 556.44 1119.29 556.53 1122.96 553.01 C 1128.01 547.79 1128.50 538.18 1122.81 533.22 C 1118.62 529.44 1112.52 529.26 1107.23 530.02 Z" />
<path fill="#ca9657" opacity="1.00" d=" M 1209.76 521.96 C 1209.69 519.12 1213.15 520.16 1214.98 519.94 C 1224.12 520.38 1233.93 518.40 1242.47 522.60 C 1249.31 526.14 1250.49 535.09 1248.83 541.88 C 1247.95 545.86 1244.61 548.36 1241.95 551.13 C 1244.41 556.29 1248.00 560.83 1250.84 565.80 C 1246.33 565.63 1241.77 566.19 1237.32 565.52 C 1234.24 562.13 1233.54 556.95 1229.74 554.14 C 1227.43 552.45 1224.50 553.12 1221.94 553.60 C 1221.50 557.48 1222.60 561.77 1221.33 565.42 C 1218.32 566.21 1215.06 566.07 1212.03 565.53 C 1209.64 564.91 1209.83 561.93 1209.71 560.00 C 1209.75 547.32 1209.58 534.63 1209.76 521.96 M 1222.42 530.40 C 1221.42 534.56 1221.91 538.97 1222.07 543.22 C 1226.15 543.91 1230.66 544.13 1234.57 542.49 C 1239.43 540.19 1239.00 531.90 1233.80 530.26 C 1230.16 529.46 1225.86 528.88 1222.42 530.40 Z" />
<path fill="#ca9657" opacity="1.00" d=" M 1264.19 520.20 C 1275.10 519.62 1286.09 520.15 1297.03 519.95 C 1300.13 519.33 1299.76 523.12 1299.73 525.10 C 1299.64 526.67 1299.67 529.20 1297.56 529.37 C 1290.35 530.17 1283.04 529.07 1275.85 529.94 C 1275.86 532.42 1274.26 536.36 1276.87 537.85 C 1283.46 538.43 1290.20 537.32 1296.72 538.46 C 1298.25 540.94 1297.55 544.25 1296.93 546.95 C 1290.17 548.93 1282.83 547.09 1275.89 548.20 C 1275.32 550.71 1275.44 553.32 1275.84 555.86 C 1283.73 556.72 1291.73 555.59 1299.62 556.38 C 1300.94 558.94 1300.43 562.12 1299.74 564.81 C 1296.25 566.75 1291.87 565.42 1288.04 565.80 C 1280.67 565.66 1273.30 565.90 1265.95 565.79 C 1264.33 566.00 1263.10 564.59 1263.36 563.04 C 1263.49 550.03 1263.40 537.01 1263.35 524.00 C 1263.44 522.73 1263.13 521.16 1264.19 520.20 Z" />
<path fill="#ca9657" opacity="1.00" d=" M 1384.01 520.15 C 1390.66 519.67 1397.34 520.08 1404.02 520.01 C 1411.04 519.94 1418.35 522.62 1422.86 528.18 C 1427.43 533.75 1428.56 541.49 1427.30 548.43 C 1425.40 557.84 1416.61 565.16 1407.06 565.61 C 1399.72 566.00 1392.36 565.87 1385.03 565.73 C 1383.40 565.94 1383.44 564.15 1383.43 563.09 C 1383.43 550.07 1383.51 537.06 1383.40 524.05 C 1383.39 522.72 1383.32 521.34 1384.01 520.15 M 1395.78 529.81 C 1395.61 536.86 1395.61 543.91 1395.67 550.97 C 1395.77 552.74 1395.64 555.65 1398.04 555.91 C 1401.39 556.32 1404.94 556.31 1408.16 555.15 C 1416.78 551.55 1418.11 537.85 1410.47 532.53 C 1406.29 529.31 1400.75 529.60 1395.78 529.81 Z" />
<path fill="#ca9657" opacity="1.00" d=" M 1441.11 520.18 C 1447.70 519.55 1454.39 520.15 1461.02 519.95 C 1465.98 520.09 1470.98 519.59 1475.93 520.22 C 1476.90 522.96 1477.01 526.23 1475.82 528.92 C 1468.40 530.61 1460.59 529.00 1453.05 529.79 C 1451.28 531.75 1452.37 535.13 1452.41 537.63 C 1459.42 538.68 1466.63 537.29 1473.65 538.36 C 1473.92 541.18 1475.18 545.43 1472.58 547.35 C 1466.09 548.41 1459.43 547.42 1452.91 548.09 C 1451.56 550.19 1452.02 553.01 1452.59 555.32 C 1453.77 556.33 1455.53 555.96 1457.01 556.15 C 1463.02 556.24 1469.04 556.02 1475.06 556.17 C 1478.47 556.23 1477.00 560.80 1477.19 563.04 C 1477.39 565.41 1474.82 565.79 1473.05 565.77 C 1463.35 565.89 1453.65 565.67 1443.95 565.86 C 1442.58 565.79 1440.03 566.04 1440.08 564.02 C 1439.81 550.68 1440.13 537.33 1439.93 523.99 C 1440.13 522.78 1439.51 520.59 1441.11 520.18 Z" />
<path fill="#ca9657" opacity="1.00" d=" M 1491.19 520.23 C 1494.87 519.94 1502.05 518.21 1502.51 523.64 C 1502.97 533.41 1502.57 543.22 1502.68 553.00 C 1502.48 556.48 1506.81 555.25 1508.99 555.48 C 1513.25 555.83 1517.90 554.56 1521.95 556.12 C 1522.56 558.94 1522.54 562.01 1521.59 564.76 C 1519.12 566.48 1515.80 565.56 1512.99 565.82 C 1505.99 565.68 1498.99 565.98 1492.01 565.73 C 1490.53 565.87 1490.36 564.14 1490.38 563.11 C 1490.37 550.08 1490.45 537.05 1490.34 524.03 C 1490.52 522.79 1490.00 521.07 1491.19 520.23 Z" />
<path fill="#ca9657" opacity="1.00" d=" M 1555.05 520.26 C 1566.01 519.52 1577.06 520.23 1588.06 519.93 C 1591.75 519.31 1591.17 523.61 1591.04 526.01 C 1590.87 527.14 1590.84 529.16 1589.34 529.30 C 1582.29 530.17 1575.14 529.27 1568.08 529.78 C 1565.95 531.69 1567.16 535.10 1567.49 537.59 C 1574.21 538.64 1581.07 537.44 1587.81 538.21 C 1589.94 540.65 1588.67 544.55 1588.48 547.52 C 1581.99 548.14 1575.45 547.70 1568.96 547.97 C 1566.72 547.82 1566.94 550.45 1566.94 551.94 C 1566.88 553.49 1566.74 556.16 1569.03 556.08 C 1576.27 556.37 1583.56 555.75 1590.78 556.34 C 1592.60 558.59 1591.83 562.41 1591.07 565.09 C 1589.15 565.92 1587.02 565.78 1585.02 565.82 C 1576.00 565.78 1566.99 565.79 1557.99 565.85 C 1556.76 565.76 1554.27 565.94 1554.60 564.02 C 1554.42 551.02 1554.67 538.01 1554.49 525.01 C 1554.52 523.42 1554.33 521.73 1555.05 520.26 Z" />
<path fill="#ca9657" opacity="1.00" d=" M 1650.11 520.07 C 1663.03 520.00 1676.01 519.61 1688.92 520.25 C 1689.55 523.12 1689.73 526.20 1688.87 529.04 C 1685.05 531.43 1679.89 528.68 1676.18 531.13 C 1674.93 541.98 1676.08 553.03 1675.60 563.95 C 1675.75 566.39 1672.54 565.73 1671.00 565.94 C 1668.47 565.81 1664.21 566.53 1663.71 563.08 C 1662.72 552.44 1663.88 541.67 1663.15 531.03 C 1659.69 528.48 1654.19 531.54 1650.46 529.59 C 1649.18 526.57 1649.94 523.22 1650.11 520.07 Z" />
<path fill="#ca9657" opacity="1.00" d=" M 1709.40 522.36 C 1711.06 518.62 1715.91 520.08 1719.13 520.08 C 1722.15 519.97 1724.12 522.53 1725.10 525.10 C 1730.86 538.61 1736.43 552.21 1742.16 565.73 C 1738.24 565.52 1734.16 566.66 1730.39 565.38 C 1727.40 564.17 1727.19 560.63 1725.95 558.12 C 1720.28 557.75 1714.59 558.06 1708.93 558.03 C 1704.19 557.69 1705.55 565.34 1701.13 565.66 C 1697.89 566.01 1694.63 565.81 1691.43 565.37 C 1693.63 557.80 1697.40 550.82 1700.31 543.52 C 1703.41 536.49 1706.24 529.35 1709.40 522.36 M 1710.34 548.42 C 1714.37 548.61 1718.40 548.50 1722.45 548.55 C 1720.41 543.27 1718.39 537.98 1716.36 532.70 C 1714.36 537.94 1712.10 543.09 1710.34 548.42 Z" />
<path fill="#ca9657" opacity="1.00" d=" M 1752.66 520.07 C 1764.07 520.45 1776.67 517.65 1787.01 523.89 C 1799.77 531.70 1800.10 552.43 1788.13 561.13 C 1779.54 567.85 1768.07 565.34 1758.01 565.84 C 1756.21 565.47 1752.55 566.85 1752.55 564.02 C 1752.51 549.38 1752.34 534.71 1752.66 520.07 M 1765.22 530.18 C 1764.35 531.60 1764.77 533.35 1764.71 534.93 C 1764.99 541.27 1764.22 547.67 1765.04 553.98 C 1765.06 555.40 1766.68 555.87 1767.86 555.95 C 1771.83 556.25 1776.30 556.27 1779.63 553.72 C 1787.17 547.85 1785.58 533.56 1776.11 530.56 C 1772.60 529.83 1768.66 529.13 1765.22 530.18 Z" />
</g>
<g id="#c1163aff">
<path fill="#c1163a" opacity="1.00" d=" M 937.53 52.76 C 963.50 50.21 990.36 55.06 1013.22 67.84 C 1018.47 71.05 1021.41 77.89 1019.89 83.91 C 1017.36 96.91 1014.85 109.92 1012.44 122.94 C 1012.02 124.27 1011.89 126.67 1009.95 126.48 C 1001.98 126.37 994.00 126.01 986.04 125.60 C 983.76 125.45 983.68 122.80 983.41 121.09 C 982.33 110.96 980.61 100.91 978.51 90.95 C 977.98 88.41 977.20 85.60 974.85 84.14 C 966.60 78.83 956.64 76.71 946.94 76.61 C 937.39 76.57 927.59 77.73 918.93 81.97 C 916.56 83.09 914.52 84.95 913.47 87.37 C 909.32 96.33 907.62 106.75 910.32 116.38 C 912.52 124.48 917.97 131.41 924.73 136.26 C 937.27 145.42 951.98 150.79 966.10 156.94 C 981.90 163.72 998.21 171.03 1010.16 183.80 C 1028.56 203.17 1028.83 236.30 1011.63 256.52 C 1000.05 270.37 982.51 277.76 965.14 281.10 C 948.31 284.07 931.01 283.68 914.11 281.51 C 897.92 279.19 881.87 274.56 867.60 266.46 C 865.22 264.93 861.65 263.46 861.99 260.05 C 861.80 245.66 862.02 231.27 862.70 216.91 C 862.92 215.71 862.72 213.72 864.24 213.37 C 869.38 212.27 874.71 212.41 879.94 212.14 C 884.07 212.19 888.30 211.62 892.38 212.50 C 893.41 214.90 893.67 217.53 894.20 220.07 C 895.82 228.41 897.97 236.63 900.21 244.83 C 900.81 247.20 901.90 249.69 904.28 250.76 C 915.84 256.76 929.09 258.75 942.00 258.47 C 950.15 258.32 958.43 257.42 966.09 254.46 C 968.66 253.50 971.07 251.89 972.48 249.47 C 977.78 240.52 980.42 229.31 976.74 219.26 C 974.67 212.72 969.75 207.54 964.11 203.85 C 949.21 193.84 931.83 188.70 915.59 181.38 C 901.30 175.03 886.81 167.60 876.48 155.53 C 858.85 135.26 859.33 102.12 876.97 82.01 C 892.13 64.56 914.77 54.84 937.53 52.76 Z" />
<path fill="#c1163a" opacity="1.00" d=" M 1137.62 52.83 C 1163.57 50.06 1190.42 55.09 1213.25 67.82 C 1218.43 70.82 1221.11 77.14 1220.10 82.98 C 1218.11 96.08 1215.30 109.04 1212.82 122.05 C 1212.32 123.67 1212.33 126.58 1209.96 126.49 C 1202.95 126.67 1195.94 126.15 1188.94 125.88 C 1186.96 125.77 1183.83 125.80 1183.91 123.03 C 1182.40 111.66 1180.86 100.26 1178.21 89.09 C 1177.69 86.27 1175.55 84.16 1173.08 82.92 C 1159.75 75.61 1143.67 75.34 1129.10 78.40 C 1124.16 79.82 1118.66 81.15 1115.04 85.01 C 1109.01 95.19 1107.29 108.22 1111.49 119.41 C 1114.44 127.40 1120.64 133.76 1127.75 138.26 C 1145.66 149.93 1166.47 155.86 1185.32 165.75 C 1196.89 171.81 1208.19 179.41 1215.61 190.40 C 1224.33 203.25 1226.08 219.93 1222.78 234.86 C 1219.07 251.26 1206.76 264.60 1192.00 272.06 C 1171.24 283.08 1146.97 284.30 1123.98 282.59 C 1103.20 280.84 1082.24 275.58 1064.47 264.35 C 1061.67 262.97 1061.93 259.55 1061.97 256.93 C 1062.24 250.31 1061.39 243.60 1062.65 237.05 C 1063.39 229.73 1062.43 222.33 1063.05 215.00 C 1063.45 212.94 1065.98 213.10 1067.59 212.80 C 1075.36 212.24 1083.18 211.84 1090.97 212.20 C 1093.10 211.88 1093.12 214.39 1093.57 215.85 C 1095.36 226.11 1097.90 236.23 1100.81 246.22 C 1101.36 248.42 1102.98 250.15 1105.03 251.08 C 1118.54 257.84 1134.07 259.32 1148.96 258.12 C 1155.64 257.57 1162.38 256.33 1168.47 253.44 C 1171.65 251.92 1173.21 248.56 1174.71 245.58 C 1179.03 236.57 1180.25 225.53 1175.73 216.36 C 1172.62 209.76 1166.76 205.03 1160.55 201.50 C 1142.41 190.90 1121.95 185.25 1103.39 175.51 C 1091.81 169.48 1080.60 161.86 1073.09 150.97 C 1064.79 139.13 1062.43 123.92 1064.36 109.80 C 1066.26 95.98 1074.11 83.52 1084.60 74.54 C 1099.23 61.62 1118.34 54.60 1137.62 52.83 Z" />
<path fill="#c1163a" opacity="1.00" d=" M 1337.54 52.80 C 1363.48 50.21 1390.39 54.94 1413.24 67.72 C 1418.41 70.72 1421.30 76.98 1420.28 82.87 C 1418.25 96.37 1415.34 109.71 1412.73 123.10 C 1412.37 124.54 1412.04 126.88 1409.99 126.54 C 1402.63 126.59 1395.27 126.19 1387.93 125.79 C 1386.62 125.58 1384.43 125.77 1384.26 123.97 C 1382.71 113.80 1381.58 103.54 1379.34 93.48 C 1378.48 89.91 1378.19 85.43 1374.42 83.63 C 1359.61 74.79 1341.12 75.30 1324.93 79.56 C 1318.97 80.91 1314.00 85.42 1312.02 91.19 C 1308.29 101.76 1308.04 114.18 1313.84 124.07 C 1318.26 131.87 1325.72 137.30 1333.35 141.69 C 1349.55 150.89 1367.45 156.51 1384.01 164.99 C 1397.55 171.89 1410.99 180.93 1418.32 194.69 C 1427.26 211.91 1426.72 233.90 1416.35 250.39 C 1409.38 261.75 1398.20 270.00 1385.98 274.98 C 1367.15 283.05 1346.22 284.08 1326.04 282.73 C 1304.84 281.16 1283.42 276.03 1265.19 264.79 C 1262.53 263.57 1261.91 260.59 1262.19 257.94 C 1262.37 251.93 1262.02 245.90 1262.41 239.90 C 1263.72 231.66 1262.48 223.28 1263.18 215.01 C 1263.31 213.19 1265.51 213.11 1266.90 212.91 C 1274.93 212.19 1283.02 211.90 1291.09 212.17 C 1292.36 212.06 1293.36 213.06 1293.42 214.31 C 1295.33 225.00 1297.86 235.57 1300.92 245.99 C 1301.66 249.64 1305.25 251.33 1308.37 252.59 C 1322.74 258.69 1338.84 259.51 1354.18 257.60 C 1359.92 256.54 1366.13 255.52 1370.87 251.87 C 1378.93 241.68 1381.59 226.62 1375.15 214.92 C 1370.41 206.32 1361.26 201.61 1352.91 197.17 C 1334.49 188.25 1314.70 182.27 1297.01 171.84 C 1285.50 165.58 1275.35 156.31 1269.59 144.40 C 1260.89 127.14 1262.11 105.58 1272.23 89.18 C 1280.28 75.59 1293.82 66.25 1308.13 60.20 C 1317.48 56.25 1327.45 53.84 1337.54 52.80 Z" />
<path fill="#c1163a" opacity="1.00" d=" M 1849.07 55.26 C 1851.50 55.33 1854.69 54.10 1856.45 56.40 C 1859.85 60.53 1863.85 65.28 1862.80 71.05 C 1861.32 82.43 1858.95 93.67 1857.08 104.99 C 1856.11 109.82 1855.69 114.76 1854.39 119.51 C 1854.04 120.98 1852.08 120.52 1851.04 120.71 C 1844.66 120.70 1838.27 120.56 1831.92 119.96 C 1830.30 119.72 1827.82 119.78 1827.52 117.68 C 1825.32 106.86 1823.39 95.98 1821.38 85.12 C 1821.29 82.29 1818.38 81.68 1816.15 81.52 C 1801.49 79.91 1786.73 79.48 1772.00 79.94 C 1765.34 80.17 1758.33 79.47 1752.07 82.21 C 1749.85 83.14 1750.42 86.00 1750.09 87.91 C 1748.72 111.26 1747.99 134.69 1748.67 158.06 C 1770.48 157.20 1792.28 156.08 1814.09 155.15 C 1819.22 154.62 1823.87 160.20 1822.57 165.16 C 1821.54 170.67 1820.75 176.24 1819.53 181.71 C 1819.21 183.39 1817.35 183.60 1815.98 183.56 C 1793.53 182.91 1771.07 181.84 1748.61 181.52 C 1748.30 196.67 1748.33 211.83 1748.94 226.97 C 1749.50 233.90 1749.20 241.05 1751.30 247.74 C 1752.76 252.23 1757.81 253.60 1761.99 254.12 C 1781.59 256.70 1801.49 255.86 1821.11 253.78 C 1823.00 253.55 1825.77 253.50 1826.03 251.00 C 1828.84 239.72 1831.35 228.35 1834.17 217.07 C 1834.64 213.75 1838.59 214.67 1840.99 214.53 C 1848.26 214.93 1855.78 214.20 1862.87 216.06 C 1863.95 219.59 1863.33 223.36 1863.61 226.99 C 1864.18 243.17 1863.90 259.37 1863.35 275.55 C 1863.38 277.86 1860.73 278.15 1859.01 278.07 C 1806.67 277.92 1754.33 278.04 1701.99 278.00 C 1694.63 277.95 1687.25 278.28 1679.91 277.91 C 1678.27 277.94 1677.12 276.53 1677.06 274.99 C 1676.36 270.59 1675.17 266.29 1674.44 261.91 C 1675.40 261.00 1676.67 260.51 1677.96 260.15 C 1684.92 258.10 1691.82 255.86 1698.81 253.90 C 1700.74 253.48 1702.55 252.07 1702.58 249.93 C 1703.86 231.01 1704.36 212.04 1704.31 193.08 C 1704.46 167.06 1704.58 141.04 1704.21 115.03 C 1703.97 106.58 1703.55 98.10 1702.12 89.76 C 1701.66 86.83 1699.99 84.10 1697.39 82.61 C 1690.24 78.33 1681.93 76.84 1674.31 73.68 C 1675.41 68.86 1676.23 63.96 1677.37 59.15 C 1677.88 57.14 1680.40 57.54 1681.99 57.43 C 1710.97 57.51 1739.96 57.63 1768.95 57.47 C 1795.67 57.31 1822.41 57.19 1849.07 55.26 Z" />
<path fill="#c1163a" opacity="1.00" d=" M 1625.02 56.07 C 1630.32 55.89 1635.60 55.22 1640.92 55.28 C 1648.89 55.23 1653.97 63.76 1653.99 70.96 C 1653.06 86.39 1651.12 101.74 1649.78 117.14 C 1649.53 118.87 1649.60 121.69 1647.20 121.73 C 1639.50 122.61 1631.70 122.10 1624.01 121.47 C 1622.13 121.44 1621.89 119.33 1621.51 117.94 C 1619.16 106.74 1616.72 95.56 1614.43 84.35 C 1614.17 82.58 1613.03 80.85 1611.04 80.97 C 1602.07 80.09 1593.03 80.01 1584.03 79.82 C 1580.73 79.82 1577.40 79.53 1574.16 80.18 C 1573.24 88.05 1574.07 96.04 1573.80 103.95 C 1573.81 135.28 1573.67 166.61 1573.80 197.94 C 1573.92 213.00 1573.52 228.13 1575.60 243.09 C 1575.95 246.72 1577.04 250.73 1580.47 252.63 C 1586.55 256.19 1593.38 258.17 1600.09 260.16 C 1601.33 260.60 1602.76 260.91 1603.66 262.02 C 1602.92 266.68 1601.81 271.30 1600.84 275.92 C 1600.71 277.86 1598.54 278.06 1597.06 278.04 C 1567.04 277.99 1537.01 277.96 1506.99 278.05 C 1505.51 277.92 1503.14 278.27 1502.75 276.34 C 1501.77 271.56 1500.51 266.83 1499.79 262.00 C 1500.53 260.86 1501.98 260.63 1503.19 260.18 C 1510.45 258.03 1517.72 255.90 1524.96 253.66 C 1526.64 253.29 1527.89 251.87 1527.84 250.09 C 1529.36 229.44 1529.81 208.72 1529.75 188.01 C 1529.88 153.30 1529.71 118.59 1529.85 83.88 C 1529.99 81.99 1529.46 79.37 1526.96 79.81 C 1516.34 79.69 1505.73 80.33 1495.13 80.79 C 1493.01 80.87 1490.18 81.17 1489.83 83.76 C 1487.06 95.79 1484.60 107.90 1481.83 119.93 C 1481.56 121.74 1479.85 122.85 1478.10 122.71 C 1470.09 122.76 1462.04 122.59 1454.09 121.63 C 1451.61 121.62 1451.43 118.85 1451.45 117.00 C 1451.00 98.06 1450.86 79.08 1451.58 60.15 C 1451.35 57.63 1453.99 57.33 1455.91 57.44 C 1483.58 57.53 1511.26 57.49 1538.93 57.50 C 1567.63 57.60 1596.35 57.63 1625.02 56.07 Z" />
<path fill="#c1163a" opacity="1.00" d=" M 729.44 57.64 C 759.61 57.22 789.83 57.71 820.02 57.42 C 821.83 57.58 823.99 57.07 825.56 58.27 C 827.04 63.34 828.06 68.59 828.83 73.82 C 821.92 76.65 814.56 78.30 807.44 80.57 C 804.81 81.41 800.72 81.90 800.78 85.51 C 798.67 111.29 799.10 137.18 799.00 163.02 C 799.04 176.35 799.06 189.68 799.12 203.01 C 799.27 217.30 798.74 231.72 801.23 245.86 C 801.83 248.98 803.83 251.77 806.65 253.25 C 812.43 256.28 818.72 258.22 824.96 260.08 C 826.34 260.50 827.77 260.96 828.92 261.90 C 827.85 267.11 827.11 272.45 825.43 277.50 C 823.72 278.22 821.81 278.00 820.02 278.08 C 790.66 277.93 761.31 278.01 731.95 278.06 C 730.45 277.94 728.07 278.27 727.90 276.20 C 726.85 271.82 725.97 267.38 725.14 262.96 C 724.54 261.07 726.80 260.77 728.03 260.28 C 735.56 258.02 743.14 255.89 750.63 253.48 C 752.71 253.07 753.04 250.87 753.13 249.11 C 755.86 211.80 754.32 174.39 754.65 137.03 C 754.47 121.66 755.21 106.17 752.87 90.92 C 752.48 87.73 751.01 84.53 748.21 82.79 C 741.08 78.45 732.75 76.85 725.05 73.89 C 725.70 68.62 726.78 63.34 728.25 58.23 C 728.55 58.08 729.14 57.79 729.44 57.64 Z" />
</g>
</svg>
