<?xml version="1.0" encoding="UTF-8" ?>
<!DOCTYPE svg PUBLIC "-//W3C//DTD SVG 1.1//EN" "http://www.w3.org/Graphics/SVG/1.1/DTD/svg11.dtd">
<svg width="1997pt" height="625pt" viewBox="0 0 1997 625" version="1.1" xmlns="http://www.w3.org/2000/svg">
<g id="#919191ff">
<path fill="#919191" opacity="1.00" d=" M 283.59 0.00 L 297.61 0.00 C 305.46 0.95 313.66 2.20 320.37 6.70 C 328.01 11.71 333.15 20.18 334.37 29.20 C 336.06 41.79 334.50 54.47 333.68 67.06 C 333.25 75.08 334.67 83.62 331.04 91.12 C 326.68 98.83 318.46 103.04 312.84 109.66 C 314.29 111.73 315.33 114.64 318.07 115.31 C 323.02 116.27 328.00 114.69 332.98 114.74 C 341.33 114.70 350.26 115.70 357.25 120.66 C 361.91 124.35 362.36 130.71 363.95 136.01 C 367.86 148.38 372.37 160.58 375.52 173.19 C 384.39 171.52 392.61 167.65 400.73 163.88 C 408.69 160.24 418.37 165.39 421.57 173.10 C 423.33 177.64 422.49 182.91 419.87 186.95 C 416.10 193.00 411.51 198.50 406.64 203.68 C 395.23 215.50 384.00 227.85 369.86 236.47 C 374.70 242.22 380.08 247.72 383.18 254.68 C 387.12 262.88 387.26 272.17 387.51 281.09 C 387.70 296.74 387.37 312.39 387.73 328.04 C 387.47 329.49 388.19 332.23 386.00 332.34 C 380.08 333.39 373.98 332.07 368.10 333.51 C 362.45 334.68 357.22 338.73 355.56 344.38 C 354.25 348.83 353.42 353.44 353.07 358.06 C 352.89 359.95 354.62 362.39 356.71 361.84 C 361.82 360.50 366.04 357.16 370.70 354.83 C 386.29 347.61 401.23 339.09 416.62 331.48 C 431.11 324.15 445.26 316.19 459.67 308.73 C 464.29 306.36 466.06 300.99 466.62 296.15 C 468.94 269.45 472.60 242.83 473.24 216.00 C 473.47 204.23 473.78 192.29 471.08 180.76 C 469.08 172.64 465.86 164.23 459.17 158.82 C 455.16 155.32 449.99 153.57 445.85 150.26 C 441.11 146.60 437.22 141.88 434.42 136.60 C 427.21 123.13 420.91 109.17 412.97 96.10 C 408.11 88.20 402.90 80.20 395.35 74.61 C 390.98 71.34 385.45 69.41 379.97 70.06 C 375.18 70.78 371.41 75.18 370.97 79.93 C 369.89 90.73 371.86 102.04 377.51 111.40 C 379.17 114.36 382.08 116.23 384.37 118.64 C 387.34 121.55 386.98 127.11 383.63 129.58 C 381.88 130.90 379.66 130.10 377.85 129.41 C 366.06 124.54 356.99 114.27 352.80 102.31 C 348.16 90.13 346.28 76.81 348.07 63.86 C 349.16 55.42 353.87 47.78 360.06 42.08 C 368.99 33.90 380.83 28.73 393.00 28.52 C 398.36 28.45 403.82 29.62 408.42 32.47 C 432.07 46.91 452.19 68.63 460.89 95.30 C 462.96 100.35 461.23 107.27 466.30 110.77 C 479.69 120.53 490.61 133.98 496.25 149.66 C 502.51 165.99 502.30 184.04 498.99 200.99 C 518.57 182.26 537.48 162.85 556.93 143.98 C 564.85 136.04 572.92 127.44 583.79 123.66 C 594.14 120.04 606.22 120.50 615.76 126.17 C 619.08 128.08 621.79 131.01 625.42 132.38 C 628.01 133.39 630.65 132.03 633.18 131.44 C 638.72 129.77 645.03 129.85 650.10 132.89 C 659.22 138.03 663.85 148.84 663.63 159.01 C 664.02 201.35 665.40 243.66 666.63 285.98 C 666.56 301.07 667.92 316.32 665.14 331.26 C 661.80 349.88 653.50 367.10 644.82 383.74 C 632.93 406.68 622.93 430.55 613.77 454.69 C 610.17 465.10 606.82 476.04 599.32 484.42 C 590.40 495.09 577.22 500.62 564.67 505.77 C 553.56 510.30 542.42 514.74 531.31 519.26 C 511.20 528.44 490.98 537.41 471.12 547.13 C 456.47 554.52 441.39 561.04 426.98 568.92 C 394.76 585.70 363.65 604.55 333.63 625.00 L 330.93 625.00 C 302.93 605.26 273.24 588.06 242.91 572.17 C 226.31 563.67 209.89 554.80 192.85 547.20 C 180.87 541.89 168.96 536.44 156.98 531.13 C 137.10 522.44 116.89 514.40 97.66 504.29 C 88.33 499.36 79.27 493.69 71.62 486.37 C 64.00 479.26 58.93 469.96 54.50 460.65 C 40.41 429.11 26.39 397.51 13.97 365.26 C 7.92 349.89 1.46 334.34 0.00 317.71 L 0.00 299.30 C 0.87 290.19 0.88 281.02 1.45 271.89 C 4.08 228.86 8.30 185.96 11.60 142.99 C 12.12 133.79 19.33 125.73 28.15 123.50 C 34.83 121.62 41.57 123.86 48.03 125.50 C 51.97 122.26 55.17 117.97 60.03 116.00 C 69.21 112.02 79.84 113.47 88.91 117.05 C 99.45 121.60 106.11 131.38 113.16 139.94 C 126.88 156.15 141.27 171.77 155.29 187.71 C 161.85 194.92 167.99 202.52 175.03 209.29 C 175.65 189.92 176.55 170.21 182.73 151.68 C 189.33 133.13 204.26 118.59 221.29 109.30 C 225.55 106.78 230.40 105.30 234.44 102.39 C 236.78 100.72 236.28 97.50 236.06 95.02 C 234.25 80.91 228.42 67.35 229.18 52.94 C 229.56 36.58 237.60 20.53 250.56 10.53 C 260.12 3.50 272.16 1.70 283.59 0.00 M 283.33 39.25 C 282.37 41.93 282.23 44.81 281.47 47.54 C 278.74 57.91 271.55 66.78 262.56 72.46 C 260.65 73.93 257.26 75.08 257.47 77.98 C 261.06 88.25 263.74 99.00 263.60 109.95 C 263.35 116.72 259.13 122.95 253.29 126.23 C 240.32 134.07 227.00 142.43 218.21 155.09 C 216.10 158.39 213.15 161.19 211.79 164.94 C 209.16 171.43 206.53 177.98 205.33 184.92 C 198.07 221.36 200.75 258.76 203.69 295.51 C 204.55 303.77 210.96 310.11 217.73 314.23 C 236.62 325.24 258.77 329.58 277.10 341.65 C 282.88 343.36 287.63 347.15 292.43 350.62 C 307.42 360.28 320.69 372.33 333.24 384.94 C 337.15 382.38 340.87 379.50 344.08 376.10 C 337.89 373.87 332.13 370.64 326.25 367.72 C 319.64 364.34 312.22 361.38 307.86 355.02 C 303.85 349.53 302.74 342.58 302.68 335.94 C 302.65 327.28 302.39 318.36 305.21 310.05 C 307.09 304.33 311.18 299.29 316.64 296.66 C 325.90 292.28 336.63 291.77 345.58 286.69 C 350.41 284.09 348.94 277.19 353.26 274.20 C 355.08 272.63 358.46 273.60 358.95 276.00 C 360.14 282.62 359.94 290.17 355.78 295.78 C 352.78 299.87 347.54 300.92 343.27 303.15 C 336.64 306.34 329.34 310.24 326.46 317.47 C 323.49 324.27 324.55 331.81 324.77 338.99 C 324.96 342.33 325.58 346.22 328.43 348.37 C 330.78 349.43 333.13 347.30 334.43 345.51 C 338.11 340.06 336.66 333.11 338.41 327.05 C 339.54 322.34 341.76 316.60 347.07 315.48 C 354.31 314.36 361.65 315.41 368.93 314.85 C 368.92 302.28 367.30 289.47 370.49 277.13 C 371.73 272.80 368.69 268.94 365.88 266.03 C 362.73 262.91 359.38 259.55 355.00 258.32 C 350.92 257.13 347.56 260.76 346.29 264.25 C 344.41 268.59 343.57 274.42 338.61 276.38 C 333.06 278.24 329.28 271.94 324.01 272.00 C 320.45 273.52 317.81 276.53 314.43 278.38 C 309.74 281.14 303.61 281.85 298.68 279.30 C 291.51 275.62 286.27 268.78 283.80 261.18 C 278.91 246.18 279.55 229.63 284.69 214.78 C 288.39 205.07 292.15 195.32 297.52 186.37 C 299.02 184.28 299.48 181.31 297.78 179.19 C 294.54 174.67 291.34 170.03 289.29 164.82 C 285.00 154.37 285.42 142.29 289.76 131.93 C 291.83 126.62 295.62 122.18 297.47 116.77 C 294.79 113.99 291.33 111.18 291.00 107.05 C 291.43 105.91 292.13 104.88 292.99 104.02 C 301.39 96.59 309.08 87.84 313.22 77.28 C 316.99 67.87 316.13 56.72 310.98 47.99 C 306.32 40.29 296.69 37.00 288.05 37.78 C 286.47 38.08 284.38 37.77 283.33 39.25 M 339.19 156.04 C 336.16 160.97 330.29 162.75 325.08 164.34 C 325.96 170.70 325.42 177.47 321.82 182.96 C 317.20 191.44 312.51 199.94 306.70 207.67 C 304.27 210.84 302.69 214.55 300.93 218.10 C 296.81 226.80 297.36 237.42 302.21 245.71 C 303.80 248.65 306.58 250.96 309.85 251.77 C 318.73 253.91 327.93 253.20 336.97 253.30 C 338.57 253.23 341.41 253.30 341.39 251.03 C 342.19 242.03 341.15 232.97 341.87 223.96 C 342.42 217.61 347.59 212.06 353.92 211.14 C 361.16 210.06 369.23 212.10 375.71 207.73 C 383.56 203.45 388.33 195.48 391.87 187.57 C 379.39 191.36 365.70 193.63 353.00 189.55 C 346.69 187.21 344.10 178.87 347.17 173.07 C 348.90 169.38 353.06 167.20 353.96 163.07 C 353.91 158.74 352.36 154.59 351.44 150.40 C 350.49 146.57 346.14 145.49 342.72 145.25 C 341.01 148.68 341.42 152.84 339.19 156.04 M 86.55 176.78 C 83.86 177.39 82.11 180.34 82.89 183.00 C 86.34 204.96 89.77 226.92 92.95 248.92 C 93.90 254.67 94.34 260.69 97.02 265.96 C 99.95 271.59 109.66 272.92 112.81 266.84 C 115.46 260.95 114.01 254.21 112.81 248.14 C 108.21 226.14 103.69 204.12 98.71 182.20 C 97.36 177.17 91.15 175.04 86.55 176.78 M 576.42 177.48 C 570.37 179.60 568.37 186.37 567.62 192.09 C 563.29 214.76 559.02 237.44 554.75 260.12 C 554.10 263.34 554.80 267.49 557.91 269.21 C 561.22 270.84 564.69 268.38 566.92 266.05 C 570.19 262.49 570.62 257.48 571.36 252.95 C 575.42 230.01 579.63 207.08 582.86 184.01 C 583.74 180.43 580.22 175.97 576.42 177.48 M 617.39 179.28 C 610.82 183.05 607.82 190.75 607.04 197.95 C 604.34 219.07 600.85 240.08 596.99 261.02 C 592.70 284.79 588.39 308.58 582.51 332.02 C 581.50 336.35 579.14 340.13 576.74 343.81 C 566.30 364.88 548.38 381.56 527.98 392.89 C 517.56 398.53 507.45 404.76 496.62 409.60 C 489.49 412.71 481.81 415.96 473.86 414.63 C 466.31 413.64 461.72 403.60 466.28 397.39 C 471.75 390.41 480.21 387.02 487.67 382.69 C 497.93 376.55 508.36 370.73 518.59 364.55 C 528.73 358.14 539.85 351.95 546.34 341.47 C 549.49 332.31 552.90 322.84 552.42 312.99 C 552.55 310.63 550.65 307.87 548.05 308.34 C 537.92 309.16 529.38 315.17 520.59 319.68 C 498.00 330.78 475.18 341.43 452.60 352.55 C 445.29 355.28 438.40 358.97 431.43 362.46 C 416.97 369.80 402.70 377.52 388.74 385.77 C 371.81 396.04 359.45 412.53 351.49 430.43 C 342.45 450.13 336.64 471.40 334.93 493.02 C 334.78 493.51 334.49 494.48 334.35 494.97 C 332.61 493.44 332.27 491.15 332.00 489.00 C 329.63 467.29 323.55 445.91 313.68 426.39 C 308.44 416.39 302.67 406.43 294.48 398.52 C 286.33 390.33 276.40 384.19 266.27 378.76 C 223.12 354.99 177.55 336.05 133.94 313.18 C 128.79 310.76 123.33 307.66 117.44 308.53 C 114.39 309.54 113.77 313.29 114.27 316.06 C 115.74 325.86 117.37 336.28 123.70 344.27 C 129.69 351.44 137.54 356.74 145.42 361.61 C 160.60 370.83 176.07 379.56 191.41 388.50 C 195.26 390.86 199.30 393.34 201.82 397.20 C 205.75 403.47 202.26 413.05 195.09 415.11 C 189.45 416.74 183.44 415.61 178.02 413.71 C 167.26 409.89 157.31 404.21 147.40 398.61 C 131.13 390.03 115.43 379.75 103.34 365.69 C 93.15 353.98 86.11 339.65 82.57 324.57 C 80.63 316.13 79.34 307.56 77.95 299.02 C 72.56 264.00 68.52 228.79 64.21 193.63 C 63.50 188.72 61.50 183.32 56.91 180.83 C 52.85 179.37 48.95 182.72 47.03 186.02 C 42.85 193.66 44.09 202.67 43.49 211.03 C 41.88 239.00 41.70 267.12 37.85 294.92 C 36.50 306.18 35.74 317.82 38.77 328.89 C 41.40 339.69 47.40 349.19 51.32 359.50 C 59.33 375.79 66.28 392.59 74.04 409.01 C 79.15 419.92 84.15 431.01 91.23 440.83 C 95.62 446.84 101.80 451.28 108.27 454.82 C 134.81 469.19 162.21 481.89 189.69 494.33 C 220.81 508.53 252.48 521.75 282.19 538.81 C 298.44 548.37 314.73 557.95 329.94 569.12 C 331.80 570.65 334.66 571.25 336.59 569.47 C 355.19 556.35 374.49 544.19 394.63 533.59 C 408.88 526.47 422.86 518.76 437.54 512.55 C 441.76 510.26 446.06 508.12 450.51 506.30 C 471.11 497.13 491.66 487.84 512.05 478.22 C 528.67 470.25 545.42 462.50 561.46 453.40 C 572.80 446.76 580.48 435.55 585.82 423.80 C 596.04 403.35 604.82 382.24 614.50 361.54 C 620.98 347.81 627.99 333.98 630.45 318.84 C 632.66 305.63 630.57 292.27 630.41 279.00 C 630.17 262.64 629.13 246.29 629.76 229.94 C 630.05 218.62 628.94 207.33 629.00 196.01 C 628.94 191.32 628.90 186.41 626.84 182.09 C 625.20 178.76 620.57 177.17 617.39 179.28 M 536.16 214.18 C 532.49 216.31 530.63 220.53 529.61 224.48 C 526.80 236.83 525.69 249.48 523.41 261.92 C 522.80 265.54 522.25 269.23 522.70 272.91 C 523.07 276.49 527.37 279.47 530.77 277.77 C 535.49 275.44 538.39 270.24 538.54 265.06 C 539.39 249.35 541.36 233.69 541.23 217.93 C 541.25 215.47 538.51 213.44 536.16 214.18 M 126.16 216.10 C 123.51 217.13 122.96 220.40 123.50 222.89 C 125.89 237.97 128.05 253.08 130.40 268.16 C 131.06 273.08 135.30 279.72 140.94 278.06 C 143.88 276.68 144.88 273.01 143.85 270.08 C 140.49 254.83 137.98 239.41 136.10 223.91 C 135.71 219.28 131.07 214.17 126.16 216.10 M 161.24 245.19 C 157.97 247.21 157.25 251.56 158.06 255.06 C 160.09 266.06 161.72 277.17 164.43 288.04 C 165.50 292.52 171.92 294.30 175.27 291.26 C 176.99 289.31 176.76 286.49 176.32 284.13 C 174.77 276.09 172.79 268.15 171.37 260.09 C 170.52 255.78 169.82 251.28 167.56 247.44 C 166.32 245.40 163.51 244.06 161.24 245.19 M 501.16 246.24 C 496.35 249.37 496.52 256.10 495.21 261.13 C 492.71 268.86 492.02 277.03 491.27 285.09 C 491.18 288.29 494.00 291.37 496.96 292.35 C 501.08 292.13 503.35 287.76 503.34 284.05 C 503.81 272.32 505.23 260.65 505.51 248.91 C 506.04 246.47 503.05 245.09 501.16 246.24 Z" />
<path fill="#919191" opacity="1.00" d=" M 760.89 385.76 C 760.84 383.78 763.67 384.45 764.95 384.09 C 767.68 384.24 772.41 383.19 773.14 386.89 C 773.95 393.87 773.28 400.94 773.50 407.96 C 773.25 416.05 774.02 424.18 773.18 432.24 C 769.10 432.47 765.00 432.56 760.92 432.23 C 760.61 429.83 760.54 427.40 760.61 424.99 C 760.89 411.91 760.26 398.82 760.89 385.76 Z" />
<path fill="#919191" opacity="1.00" d=" M 789.26 385.05 C 794.30 382.68 800.84 384.34 804.02 388.97 C 809.61 396.96 815.41 404.83 821.70 412.29 C 821.65 404.87 821.75 397.45 821.61 390.04 C 821.67 388.36 821.41 386.58 822.15 385.01 C 824.99 383.58 828.43 384.12 831.44 384.68 C 833.54 384.93 833.61 387.34 833.66 388.98 C 833.77 402.34 833.80 415.71 833.70 429.08 C 833.64 430.24 833.80 432.09 832.19 432.24 C 827.47 433.50 821.79 432.26 818.89 428.10 C 813.44 420.05 807.51 412.32 801.21 404.92 C 800.73 413.61 801.50 422.33 800.89 431.00 C 799.42 433.58 795.50 432.22 793.03 432.35 C 790.45 432.59 788.97 430.37 789.19 428.04 C 789.11 413.72 789.01 399.38 789.26 385.05 Z" />
<path fill="#919191" opacity="1.00" d=" M 855.53 386.47 C 865.34 381.20 877.66 383.15 886.88 388.82 C 886.00 392.04 885.04 395.47 882.80 398.03 C 881.60 399.42 879.89 397.78 878.61 397.42 C 874.23 395.30 869.32 393.35 864.39 394.42 C 862.11 394.88 861.37 398.37 863.30 399.68 C 869.52 403.68 877.72 403.53 883.38 408.54 C 889.91 414.60 887.97 427.14 879.64 430.62 C 868.66 435.95 855.36 432.79 845.97 425.64 C 847.00 422.10 848.36 418.53 850.95 415.82 C 856.98 419.40 863.66 423.89 871.04 422.23 C 874.06 421.84 874.84 417.19 872.21 415.79 C 866.14 412.47 858.72 412.24 853.04 408.10 C 846.22 402.60 847.83 390.42 855.53 386.47 Z" />
<path fill="#919191" opacity="1.00" d=" M 897.02 384.80 C 903.61 383.84 910.31 384.37 916.95 384.33 C 923.48 384.46 930.03 383.93 936.56 384.55 C 937.32 387.59 938.04 390.85 936.92 393.91 C 932.88 396.14 927.90 393.89 923.74 395.66 C 923.54 396.00 923.15 396.68 922.95 397.02 C 921.84 408.71 923.39 420.54 922.18 432.21 C 918.80 432.47 915.31 432.92 912.01 431.93 C 910.30 431.47 910.11 429.44 910.00 428.00 C 909.46 417.21 910.45 406.32 909.53 395.57 C 905.33 394.21 900.55 395.35 896.14 394.76 C 895.77 391.53 894.19 387.37 897.02 384.80 Z" />
<path fill="#919191" opacity="1.00" d=" M 949.20 384.40 C 953.02 384.23 956.85 384.21 960.68 384.46 C 961.81 388.53 961.14 392.79 961.31 396.95 C 961.12 407.94 961.48 418.94 961.24 429.92 C 961.49 432.91 957.94 432.48 955.98 432.57 C 953.29 432.45 948.75 432.78 948.77 428.96 C 948.28 417.01 948.73 405.03 948.53 393.07 C 948.50 390.17 948.22 387.19 949.20 384.40 Z" />
<path fill="#919191" opacity="1.00" d=" M 974.01 384.85 C 978.90 383.75 983.98 384.45 988.96 384.32 C 997.03 384.48 1005.13 383.87 1013.19 384.57 C 1014.46 385.86 1014.03 388.22 1014.23 389.96 C 1014.02 391.59 1014.04 394.31 1011.94 394.62 C 1008.07 395.41 1003.92 394.15 1000.23 395.91 C 999.18 406.58 999.99 417.30 999.77 428.00 C 999.55 429.35 999.99 431.00 999.00 432.13 C 996.40 432.76 993.69 432.62 991.06 432.42 C 989.57 432.31 987.69 431.67 987.42 430.00 C 986.14 418.47 987.70 406.82 986.63 395.28 C 982.17 394.64 977.67 395.11 973.20 394.78 C 972.83 391.55 971.26 387.47 974.01 384.85 Z" />
<path fill="#919191" opacity="1.00" d=" M 1024.65 384.56 C 1028.46 384.37 1033.08 383.09 1036.42 385.39 C 1038.46 391.29 1036.99 397.85 1037.43 404.01 C 1037.82 409.43 1035.98 416.24 1040.71 420.28 C 1045.17 424.52 1053.70 422.25 1054.90 416.03 C 1056.03 406.21 1054.81 396.28 1055.52 386.43 C 1055.65 384.25 1058.33 384.08 1059.99 384.14 C 1062.44 384.33 1065.38 383.87 1067.34 385.70 C 1068.24 388.01 1068.01 390.55 1068.08 392.99 C 1067.98 400.34 1068.20 407.70 1067.95 415.05 C 1067.78 422.65 1062.50 429.96 1055.12 432.08 C 1046.40 434.79 1035.68 433.51 1029.30 426.49 C 1025.60 422.63 1024.63 417.08 1024.58 411.93 C 1024.54 402.80 1024.51 393.68 1024.65 384.56 Z" />
<path fill="#919191" opacity="1.00" d=" M 1079.41 384.31 C 1092.72 384.42 1106.03 384.02 1119.34 384.47 C 1120.84 387.46 1120.60 390.82 1120.19 394.03 C 1116.30 395.59 1112.08 394.52 1108.08 395.23 C 1106.26 395.42 1106.16 397.54 1106.12 398.93 C 1105.69 409.57 1106.48 420.24 1105.81 430.87 C 1104.86 433.09 1101.94 432.38 1100.04 432.54 C 1097.86 432.35 1094.62 432.69 1093.69 430.20 C 1092.56 418.55 1093.96 406.78 1092.95 395.13 C 1088.62 394.76 1084.28 395.11 1079.95 395.08 C 1078.10 391.73 1078.98 387.89 1079.41 384.31 Z" />
<path fill="#919191" opacity="1.00" d=" M 1144.49 384.59 C 1155.87 381.24 1169.71 385.83 1175.24 396.71 C 1179.88 405.62 1178.72 417.41 1171.95 424.93 C 1162.01 435.77 1142.71 436.25 1132.67 425.31 C 1124.75 417.01 1123.87 402.99 1130.79 393.82 C 1134.12 389.28 1139.09 386.08 1144.49 384.59 M 1147.42 395.61 C 1141.54 397.93 1138.43 404.83 1139.57 410.89 C 1140.43 417.97 1147.80 424.00 1154.97 422.07 C 1163.50 420.07 1167.45 409.03 1163.42 401.60 C 1160.72 395.84 1153.24 393.08 1147.42 395.61 Z" />
<path fill="#919191" opacity="1.00" d=" M 1212.76 384.68 C 1218.13 383.89 1223.56 384.46 1228.97 384.24 C 1236.77 384.15 1245.33 385.18 1251.32 390.69 C 1262.64 400.49 1260.93 421.38 1247.71 428.74 C 1236.96 434.57 1224.35 432.16 1212.69 432.16 C 1212.56 416.33 1212.44 400.50 1212.76 384.68 M 1225.49 395.31 C 1225.23 402.55 1225.35 409.79 1225.39 417.03 C 1225.50 418.70 1225.40 420.92 1227.11 421.86 C 1231.85 422.46 1237.26 422.32 1241.21 419.25 C 1247.28 413.90 1247.46 403.05 1241.13 397.82 C 1236.82 394.16 1230.71 394.66 1225.49 395.31 Z" />
<path fill="#919191" opacity="1.00" d=" M 1272.02 384.37 C 1283.66 384.16 1295.31 384.33 1306.97 384.30 C 1309.01 384.03 1309.35 386.52 1309.32 388.04 C 1309.19 390.05 1309.52 392.45 1308.11 394.10 C 1300.29 395.77 1292.16 393.68 1284.32 395.25 C 1284.03 397.97 1283.96 400.71 1284.50 403.41 C 1290.67 403.29 1296.84 403.44 1303.02 403.35 C 1304.15 403.60 1305.98 402.89 1306.69 404.13 C 1307.22 406.62 1307.28 409.29 1306.72 411.78 C 1306.14 413.34 1304.25 413.11 1302.96 413.31 C 1296.84 413.63 1290.71 413.21 1284.60 413.69 C 1283.90 416.27 1283.79 418.96 1284.54 421.55 C 1292.56 422.93 1300.72 421.14 1308.74 422.37 C 1310.95 424.11 1309.82 427.54 1309.69 429.97 C 1309.60 432.86 1305.95 432.29 1303.97 432.44 C 1293.22 432.31 1282.47 432.70 1271.73 432.23 C 1270.94 418.85 1271.63 405.42 1271.38 392.02 C 1271.40 389.47 1271.06 386.81 1272.02 384.37 Z" />
<path fill="#919191" opacity="1.00" d=" M 1352.34 386.29 C 1362.17 381.27 1374.27 383.25 1383.45 388.80 C 1382.23 392.25 1381.49 396.70 1378.04 398.62 C 1372.61 396.45 1367.06 393.08 1360.97 394.39 C 1358.52 394.83 1357.94 398.61 1360.05 399.87 C 1366.09 403.77 1374.03 403.58 1379.65 408.29 C 1385.26 413.16 1385.06 422.76 1379.94 427.92 C 1376.02 431.72 1370.35 432.98 1365.06 433.08 C 1356.92 433.22 1348.36 431.03 1342.31 425.33 C 1343.90 422.06 1345.45 418.76 1347.15 415.53 C 1352.94 419.40 1359.60 423.47 1366.87 422.40 C 1370.08 422.28 1371.56 417.90 1368.94 415.98 C 1362.67 412.05 1354.24 412.56 1348.78 407.15 C 1342.59 401.33 1344.82 389.90 1352.34 386.29 Z" />
<path fill="#919191" opacity="1.00" d=" M 1396.71 384.68 C 1406.11 383.84 1415.55 384.46 1424.98 384.31 C 1428.06 384.34 1431.24 383.87 1434.26 384.82 C 1434.67 387.99 1434.62 391.20 1434.36 394.39 C 1426.07 395.47 1417.66 393.91 1409.39 395.24 C 1409.43 397.88 1407.74 403.42 1412.05 403.13 C 1418.48 403.90 1424.96 402.87 1431.41 403.51 C 1432.08 406.40 1432.99 410.43 1430.87 412.81 C 1423.88 414.16 1416.66 412.94 1409.59 413.71 C 1409.07 416.42 1409.17 419.19 1409.34 421.94 C 1417.74 422.42 1426.23 421.44 1434.58 422.42 C 1435.75 424.72 1435.41 427.48 1435.17 429.96 C 1434.83 433.05 1431.14 432.18 1429.00 432.41 C 1418.31 432.24 1407.58 432.87 1396.92 432.14 C 1395.99 428.83 1396.51 425.37 1396.47 421.99 C 1396.71 409.56 1396.04 397.10 1396.71 384.68 Z" />
<path fill="#919191" opacity="1.00" d=" M 1464.53 384.65 C 1474.03 382.25 1484.87 384.27 1492.23 390.96 C 1490.05 394.04 1488.01 397.30 1484.88 399.51 C 1481.67 397.77 1478.74 395.23 1474.99 394.81 C 1468.40 393.40 1461.17 397.89 1459.64 404.48 C 1458.37 410.08 1459.95 416.84 1465.01 420.10 C 1469.66 423.30 1476.13 423.01 1480.72 419.80 C 1480.81 415.87 1480.67 411.94 1480.98 408.02 C 1484.26 407.79 1490.51 405.81 1491.37 410.41 C 1492.00 414.57 1491.50 418.82 1491.63 423.02 C 1491.50 424.74 1491.75 427.04 1490.05 428.10 C 1479.17 434.95 1463.31 435.62 1453.53 426.42 C 1446.22 419.55 1444.06 408.04 1447.90 398.85 C 1450.86 391.89 1457.24 386.57 1464.53 384.65 Z" />
<path fill="#919191" opacity="1.00" d=" M 1506.51 384.57 C 1509.57 383.83 1512.84 383.80 1515.95 384.38 C 1517.60 384.67 1518.05 386.60 1518.21 388.03 C 1518.90 396.98 1517.82 406.00 1518.72 414.95 C 1519.42 421.56 1528.50 424.93 1533.32 420.33 C 1536.34 417.81 1536.27 413.60 1536.37 410.01 C 1536.65 402.14 1536.03 394.25 1536.55 386.39 C 1537.00 383.44 1540.83 384.28 1542.97 384.20 C 1545.01 384.37 1548.51 384.23 1548.81 386.99 C 1549.48 393.63 1548.84 400.30 1549.14 406.95 C 1549.28 413.45 1549.34 420.69 1545.00 426.01 C 1539.92 432.56 1530.80 434.19 1523.00 433.04 C 1514.71 432.09 1506.83 425.51 1505.97 416.96 C 1505.12 407.66 1505.69 398.32 1505.56 389.00 C 1505.85 387.62 1505.00 385.29 1506.51 384.57 Z" />
<path fill="#919191" opacity="1.00" d=" M 1564.24 385.95 C 1564.59 383.75 1567.44 384.38 1569.03 384.26 C 1578.52 384.68 1588.49 383.00 1597.53 386.72 C 1605.29 390.59 1607.73 401.02 1604.58 408.67 C 1603.28 412.13 1600.34 414.49 1597.81 417.02 C 1600.42 422.42 1604.35 427.04 1607.06 432.39 C 1602.35 432.42 1597.63 432.61 1592.94 432.24 C 1590.79 429.16 1589.34 425.69 1587.55 422.41 C 1585.67 418.74 1580.16 417.99 1576.92 419.94 C 1576.22 423.74 1577.76 428.02 1575.54 431.49 C 1572.25 432.97 1568.47 432.73 1565.03 432.08 C 1563.88 431.03 1564.09 429.39 1564.03 428.02 C 1564.18 414.00 1563.70 399.96 1564.24 385.95 M 1577.38 395.13 C 1576.66 399.44 1576.00 404.11 1577.76 408.25 C 1581.39 409.49 1585.57 409.27 1589.26 408.31 C 1594.85 406.49 1595.15 397.50 1589.64 395.42 C 1585.64 394.57 1581.36 393.82 1577.38 395.13 Z" />
<path fill="#919191" opacity="1.00" d=" M 1620.04 384.81 C 1623.62 383.99 1627.53 383.68 1631.07 384.87 C 1633.03 386.23 1632.59 388.93 1632.80 391.01 C 1632.81 404.02 1632.83 417.03 1632.79 430.04 C 1633.14 432.78 1629.79 432.46 1628.01 432.53 C 1624.81 432.67 1619.62 432.58 1620.06 428.08 C 1619.74 413.66 1619.95 399.23 1620.04 384.81 Z" />
<path fill="#919191" opacity="1.00" d=" M 1649.50 384.69 C 1653.23 383.68 1657.15 384.57 1660.97 384.39 C 1669.32 384.33 1678.62 383.92 1685.62 389.29 C 1698.14 398.36 1697.70 420.23 1684.37 428.34 C 1673.61 434.56 1660.69 432.18 1648.88 432.07 C 1647.84 418.08 1648.83 404.06 1648.40 390.06 C 1648.43 388.25 1648.13 386.12 1649.50 384.69 M 1661.65 395.12 C 1660.60 401.04 1661.56 407.06 1661.17 413.03 C 1661.21 415.83 1660.68 419.01 1662.36 421.46 C 1666.62 422.69 1671.43 422.36 1675.48 420.50 C 1683.86 415.61 1683.80 401.58 1675.52 396.61 C 1671.33 394.09 1666.26 394.95 1661.65 395.12 Z" />
<path fill="#919191" opacity="1.00" d=" M 1719.56 388.94 C 1720.42 387.03 1721.37 384.22 1723.95 384.33 C 1728.30 384.03 1734.48 383.47 1736.32 388.57 C 1742.56 403.12 1748.75 417.70 1754.66 432.39 C 1750.44 432.30 1746.21 432.70 1742.02 432.21 C 1738.87 430.29 1739.65 424.07 1735.09 424.15 C 1729.23 424.03 1723.33 423.76 1717.50 424.34 C 1716.38 426.83 1716.02 430.00 1713.60 431.63 C 1709.84 433.47 1705.54 432.36 1701.62 431.83 C 1707.01 417.29 1713.87 403.36 1719.56 388.94 M 1721.49 414.05 C 1725.59 414.07 1729.69 414.08 1733.80 414.01 C 1732.03 408.62 1729.88 403.37 1727.80 398.10 C 1725.50 403.34 1723.58 408.73 1721.49 414.05 Z" />
<path fill="#919191" opacity="1.00" d=" M 1765.51 384.46 C 1774.34 384.45 1783.24 383.63 1792.02 385.02 C 1800.61 386.26 1808.48 392.64 1810.75 401.14 C 1812.78 409.37 1811.06 418.81 1805.23 425.16 C 1801.84 428.89 1796.96 430.84 1792.11 431.76 C 1783.35 433.40 1774.43 432.01 1765.60 432.40 C 1765.20 416.42 1765.38 400.44 1765.51 384.46 M 1778.32 395.37 C 1778.09 402.61 1778.17 409.85 1778.22 417.08 C 1778.34 418.68 1778.15 421.22 1780.11 421.78 C 1784.86 422.50 1790.31 422.32 1794.23 419.18 C 1801.29 413.08 1799.72 399.72 1791.05 395.88 C 1786.97 394.47 1782.51 394.64 1778.32 395.37 Z" />
<path fill="#919191" opacity="1.00" d=" M 842.47 464.70 C 852.39 459.93 864.20 461.96 873.52 467.19 C 872.36 470.56 871.49 474.33 868.82 476.87 C 867.47 477.49 866.19 476.39 865.00 475.96 C 860.75 473.75 855.90 472.14 851.08 472.96 C 848.64 473.16 847.75 476.91 849.81 478.21 C 855.74 482.29 863.65 482.08 869.32 486.64 C 874.32 490.67 874.93 498.40 871.91 503.81 C 869.43 508.08 864.63 510.46 859.90 511.23 C 850.32 512.65 839.97 510.44 832.54 504.03 C 833.55 500.51 834.77 496.82 837.64 494.35 C 843.38 498.04 849.84 502.18 857.00 500.99 C 860.16 500.78 861.41 495.86 858.65 494.26 C 852.36 490.88 844.52 490.86 838.92 486.10 C 832.58 480.23 834.64 468.26 842.47 464.70 Z" />
<path fill="#919191" opacity="1.00" d=" M 1078.69 476.75 C 1083.31 466.55 1095.26 461.13 1106.09 462.43 C 1111.98 463.27 1117.52 466.24 1121.62 470.54 C 1119.07 473.23 1117.67 478.08 1113.59 478.61 C 1110.03 475.62 1105.90 472.38 1100.91 473.17 C 1092.78 474.05 1087.74 483.45 1090.28 490.95 C 1091.80 496.42 1097.11 500.80 1102.94 500.32 C 1107.21 500.16 1110.68 497.46 1114.19 495.35 C 1117.29 497.10 1119.37 500.44 1121.87 503.02 C 1117.59 506.85 1112.63 510.20 1106.94 511.41 C 1098.20 513.15 1088.38 510.38 1082.49 503.53 C 1076.45 496.23 1074.69 485.42 1078.69 476.75 Z" />
<path fill="#919191" opacity="1.00" d=" M 1179.48 462.67 C 1187.93 461.13 1197.32 463.28 1203.53 469.43 C 1212.83 478.36 1213.09 494.83 1204.05 504.04 C 1194.04 514.67 1175.06 514.48 1165.19 503.76 C 1158.15 496.41 1156.87 484.58 1161.44 475.61 C 1164.90 468.70 1171.92 463.95 1179.48 462.67 M 1181.40 473.55 C 1175.00 475.43 1171.13 482.57 1172.13 489.01 C 1172.76 495.75 1179.23 501.66 1186.14 500.71 C 1193.61 500.11 1198.88 492.05 1197.56 484.90 C 1196.75 477.49 1188.84 471.09 1181.40 473.55 Z" />
<path fill="#919191" opacity="1.00" d=" M 1229.77 464.82 C 1239.70 459.86 1251.72 461.90 1261.07 467.24 C 1259.69 470.59 1259.07 474.82 1255.93 477.01 C 1252.06 476.49 1248.97 473.66 1245.11 473.13 C 1242.56 472.70 1239.69 472.17 1237.36 473.56 C 1235.95 474.41 1235.62 476.82 1237.10 477.80 C 1242.32 482.29 1249.87 481.80 1255.48 485.60 C 1261.87 489.48 1262.90 498.95 1258.82 504.85 C 1255.45 509.48 1249.44 511.26 1243.97 511.68 C 1235.53 512.00 1226.49 509.77 1220.12 504.00 C 1221.02 500.47 1222.33 496.96 1225.01 494.38 C 1231.01 497.98 1237.63 502.48 1245.02 500.85 C 1247.79 500.42 1248.95 496.19 1246.57 494.58 C 1240.16 490.77 1231.84 490.98 1226.18 485.78 C 1220.07 479.94 1222.22 468.40 1229.77 464.82 Z" />
<path fill="#919191" opacity="1.00" d=" M 1302.00 465.03 C 1309.97 460.51 1320.03 461.58 1328.31 464.71 C 1329.95 465.62 1332.47 466.04 1333.17 467.99 C 1332.22 471.40 1331.05 475.09 1328.08 477.29 C 1322.76 474.89 1317.06 471.74 1311.03 473.01 C 1308.58 473.25 1307.79 476.96 1309.85 478.24 C 1316.10 482.14 1324.18 482.23 1329.94 487.06 C 1336.55 493.15 1334.39 505.78 1326.04 509.23 C 1314.98 513.91 1301.54 511.66 1292.27 504.13 C 1293.79 500.73 1295.46 497.39 1297.23 494.10 C 1302.47 497.75 1308.34 501.19 1314.92 501.28 C 1317.04 501.25 1319.63 500.42 1320.33 498.15 C 1320.54 496.42 1319.68 494.62 1318.09 493.88 C 1311.90 490.76 1304.29 490.71 1298.88 486.04 C 1292.89 480.23 1294.71 468.99 1302.00 465.03 Z" />
<path fill="#919191" opacity="1.00" d=" M 1364.45 462.62 C 1373.12 461.12 1382.76 463.54 1388.86 470.12 C 1397.66 479.53 1397.17 495.94 1387.84 504.83 C 1378.22 514.10 1361.45 514.33 1351.52 505.43 C 1342.07 496.96 1340.34 480.66 1349.04 471.07 C 1352.97 466.56 1358.54 463.57 1364.45 462.62 M 1365.53 473.73 C 1360.40 475.53 1356.86 480.70 1356.62 486.08 C 1355.97 493.15 1361.55 500.73 1368.96 500.78 C 1377.10 501.39 1383.54 492.74 1382.08 485.04 C 1381.56 477.32 1373.06 470.75 1365.53 473.73 Z" />
<path fill="#919191" opacity="1.00" d=" M 1412.82 467.82 C 1423.32 459.40 1439.79 460.76 1449.12 470.34 C 1447.00 473.47 1444.85 476.64 1441.91 479.08 C 1438.35 477.06 1435.56 473.39 1431.18 473.19 C 1423.48 472.15 1416.69 479.50 1417.08 487.00 C 1417.12 493.56 1422.26 500.06 1429.08 500.36 C 1433.97 500.72 1438.16 497.74 1441.88 494.96 C 1444.35 497.53 1447.31 499.83 1449.02 503.02 C 1440.00 513.60 1421.90 514.90 1411.73 505.25 C 1401.20 495.67 1401.55 476.68 1412.82 467.82 Z" />
<path fill="#919191" opacity="1.00" d=" M 1647.72 469.73 C 1650.87 464.61 1657.09 462.31 1662.88 462.10 C 1670.20 461.91 1677.95 463.11 1683.94 467.62 C 1682.57 470.79 1681.92 474.85 1678.98 476.97 C 1673.32 475.58 1668.03 471.63 1661.94 472.84 C 1659.33 472.94 1658.06 476.96 1660.46 478.29 C 1666.50 482.30 1674.47 482.12 1680.16 486.78 C 1686.13 491.97 1685.68 502.56 1679.47 507.38 C 1674.59 511.22 1668.05 511.91 1662.06 511.53 C 1655.10 511.07 1648.12 508.71 1642.82 504.08 C 1644.38 500.71 1645.95 497.33 1647.79 494.10 C 1653.13 497.88 1659.26 501.37 1666.02 501.20 C 1668.27 501.13 1671.25 499.69 1670.83 496.99 C 1670.72 495.50 1669.71 494.26 1668.34 493.79 C 1662.47 491.08 1655.67 490.58 1650.30 486.80 C 1645.16 482.92 1644.63 475.05 1647.72 469.73 Z" />
<path fill="#919191" opacity="1.00" d=" M 1914.51 462.70 C 1921.62 461.39 1929.30 462.66 1935.39 466.67 C 1940.93 470.27 1945.03 476.24 1945.86 482.85 C 1946.89 491.14 1944.04 500.09 1937.64 505.64 C 1927.79 514.21 1911.51 514.05 1901.92 505.17 C 1894.04 497.87 1892.16 485.31 1896.78 475.75 C 1900.05 468.80 1907.01 464.01 1914.51 462.70 M 1916.43 473.65 C 1909.69 475.82 1906.03 483.73 1907.64 490.43 C 1909.00 497.67 1917.16 502.66 1924.18 500.16 C 1931.73 497.68 1934.67 488.09 1931.74 481.15 C 1929.59 475.19 1922.47 471.52 1916.43 473.65 Z" />
<path fill="#919191" opacity="1.00" d=" M 1960.63 468.70 C 1964.86 463.10 1972.47 461.78 1979.08 462.10 C 1985.41 462.24 1991.34 464.67 1997.00 467.31 L 1997.00 467.79 C 1996.34 468.39 1995.72 469.01 1995.15 469.65 C 1994.79 472.47 1993.21 474.86 1991.76 477.22 C 1985.92 475.59 1980.34 471.61 1974.04 472.92 C 1971.13 473.13 1970.78 477.64 1973.28 478.73 C 1979.14 481.97 1986.25 482.35 1991.79 486.27 C 1994.50 488.19 1995.60 491.47 1996.99 494.34 L 1997.00 494.11 L 1997.00 497.15 C 1996.63 503.10 1992.16 508.46 1986.59 510.36 C 1975.99 513.41 1963.77 511.37 1955.43 503.92 C 1956.54 500.68 1957.56 496.26 1960.64 494.64 C 1966.57 497.91 1972.83 502.35 1980.00 500.97 C 1983.06 500.71 1984.38 495.92 1981.57 494.41 C 1975.59 490.86 1968.06 490.88 1962.42 486.67 C 1957.04 482.51 1956.96 473.99 1960.63 468.70 Z" />
<path fill="#919191" opacity="1.00" d=" M 755.80 463.03 C 759.86 462.89 763.93 462.83 768.00 462.99 C 772.49 469.28 775.72 476.33 779.47 483.06 C 783.65 476.83 786.16 469.60 790.65 463.57 C 794.72 462.20 799.14 463.21 803.36 463.03 C 798.56 472.06 793.92 481.16 788.82 490.02 C 785.43 496.12 786.22 503.28 785.91 509.92 C 783.10 511.97 779.10 511.17 775.86 510.86 C 773.53 510.63 773.37 507.88 773.39 506.08 C 773.44 501.30 773.51 496.25 771.11 491.93 C 765.92 482.35 760.56 472.84 755.80 463.03 Z" />
<path fill="#919191" opacity="1.00" d=" M 886.87 463.06 C 899.30 462.93 911.75 462.75 924.18 463.11 C 924.69 466.03 925.10 469.16 924.11 472.03 C 923.79 472.21 923.15 472.55 922.83 472.73 C 915.25 473.59 907.57 472.61 899.97 473.27 C 898.68 475.57 898.23 479.59 900.27 481.59 C 907.11 482.68 914.08 481.43 920.95 482.18 C 922.61 484.64 922.71 489.26 920.68 491.56 C 913.84 492.65 906.88 491.68 900.00 492.26 C 898.41 494.76 899.25 497.72 899.59 500.46 C 907.41 500.94 915.25 500.42 923.09 500.70 C 925.01 500.42 924.92 502.77 925.22 504.01 C 925.40 506.10 925.94 508.63 924.51 510.43 C 921.42 511.33 918.14 510.99 914.96 511.04 C 906.29 510.83 897.60 511.24 888.94 510.95 C 886.23 511.10 886.17 507.94 886.23 506.04 C 886.42 494.69 886.41 483.34 886.31 471.99 C 886.36 469.01 885.99 465.96 886.87 463.06 Z" />
<path fill="#919191" opacity="1.00" d=" M 939.18 463.19 C 946.44 462.79 953.71 462.79 960.98 462.97 C 966.54 463.24 972.74 464.11 976.73 468.41 C 980.86 473.16 981.55 480.08 980.02 486.00 C 979.05 490.18 975.29 492.69 972.83 495.94 C 975.83 501.06 979.21 505.94 982.35 510.98 C 977.60 510.99 972.86 511.22 968.13 510.85 C 965.31 507.42 964.09 503.03 961.50 499.47 C 958.85 497.20 955.06 497.81 951.85 497.73 C 951.59 501.49 951.97 505.26 951.90 509.02 C 951.91 510.44 950.16 510.95 949.07 511.19 C 945.79 511.61 942.49 511.12 939.25 510.74 C 938.67 503.20 939.08 495.63 939.00 488.08 C 939.08 479.78 938.71 471.48 939.18 463.19 M 951.62 473.80 C 951.66 478.41 951.49 483.04 952.03 487.63 C 956.27 487.52 960.68 488.19 964.79 486.77 C 969.52 484.79 970.04 477.12 965.66 474.48 C 961.28 472.54 956.15 472.08 951.62 473.80 Z" />
<path fill="#919191" opacity="1.00" d=" M 989.97 463.08 C 993.97 463.21 998.04 462.33 1002.00 463.21 C 1004.20 463.47 1004.44 466.07 1005.24 467.69 C 1009.02 477.12 1011.33 487.12 1015.56 496.36 C 1019.14 486.27 1022.73 476.19 1026.19 466.06 C 1026.63 465.03 1026.88 463.74 1027.92 463.12 C 1032.03 462.65 1036.18 462.98 1040.31 463.04 C 1034.86 477.55 1028.97 491.88 1023.53 506.38 C 1022.78 508.41 1021.71 511.02 1019.13 510.93 C 1015.36 511.33 1009.98 512.45 1007.73 508.48 C 1001.50 493.47 995.78 478.25 989.97 463.08 Z" />
<path fill="#919191" opacity="1.00" d=" M 1051.37 463.37 C 1054.73 462.72 1058.27 462.45 1061.60 463.40 C 1064.19 464.48 1063.62 467.78 1063.79 470.03 C 1063.55 483.53 1064.27 497.04 1063.48 510.53 C 1059.97 511.45 1056.17 511.51 1052.72 510.39 C 1050.72 508.93 1051.24 506.13 1051.07 504.00 C 1051.28 490.46 1050.66 476.90 1051.37 463.37 Z" />
<path fill="#919191" opacity="1.00" d=" M 1133.84 463.16 C 1137.45 463.21 1141.28 461.71 1144.75 463.14 C 1146.90 464.31 1146.28 466.97 1146.28 468.97 C 1145.58 482.86 1146.77 496.79 1145.66 510.66 C 1142.25 511.40 1138.68 511.40 1135.32 510.50 C 1133.32 509.54 1133.51 506.96 1133.39 505.10 C 1133.35 492.39 1133.41 479.69 1133.36 466.98 C 1133.32 465.68 1133.55 464.41 1133.84 463.16 Z" />
<path fill="#919191" opacity="1.00" d=" M 1462.13 463.20 C 1465.43 462.65 1469.06 462.35 1472.21 463.78 C 1473.91 465.28 1473.52 467.93 1473.71 469.99 C 1473.55 483.22 1473.98 496.46 1473.47 509.68 C 1471.07 512.07 1467.06 511.20 1463.98 511.16 C 1461.26 511.24 1460.94 507.98 1460.97 506.00 C 1460.87 492.99 1461.02 479.97 1460.86 466.97 C 1461.05 465.79 1460.47 463.46 1462.13 463.20 Z" />
<path fill="#919191" opacity="1.00" d=" M 1504.03 465.01 C 1505.13 462.28 1508.57 462.90 1510.94 462.83 C 1514.34 462.68 1518.50 463.60 1519.61 467.32 C 1525.83 481.69 1531.96 496.11 1537.75 510.66 C 1533.83 511.08 1529.88 511.34 1525.97 511.00 C 1522.19 509.93 1523.38 504.32 1519.95 502.83 C 1514.01 502.61 1508.04 502.72 1502.11 502.80 C 1498.61 504.14 1499.45 509.52 1495.88 510.75 C 1492.27 511.41 1488.60 510.95 1485.00 510.69 C 1487.07 503.10 1490.82 496.15 1493.77 488.90 C 1497.23 480.95 1500.39 472.87 1504.03 465.01 M 1505.87 491.99 C 1509.34 493.86 1513.29 492.70 1517.02 492.52 C 1515.35 487.12 1513.17 481.89 1511.06 476.66 C 1509.03 481.65 1506.57 486.58 1505.87 491.99 Z" />
<path fill="#919191" opacity="1.00" d=" M 1549.22 463.22 C 1552.64 462.78 1556.19 462.48 1559.57 463.45 C 1560.96 464.03 1561.25 465.75 1561.40 467.10 C 1561.93 477.74 1561.06 488.43 1561.77 499.06 L 1562.30 499.66 C 1568.64 500.47 1575.08 499.29 1581.43 500.31 C 1581.66 503.50 1582.46 506.97 1581.06 510.00 C 1578.33 511.60 1574.97 510.87 1571.98 511.07 C 1564.35 510.86 1556.71 511.39 1549.11 510.75 C 1548.48 500.19 1548.96 489.60 1548.81 479.02 C 1548.99 473.75 1548.30 468.44 1549.22 463.22 Z" />
<path fill="#919191" opacity="1.00" d=" M 1594.07 463.17 C 1606.56 462.75 1619.09 462.79 1631.59 463.17 C 1631.49 466.20 1633.05 470.01 1630.62 472.45 C 1622.83 473.90 1614.80 472.61 1606.93 473.18 C 1606.42 475.87 1605.64 479.10 1607.36 481.51 C 1614.41 482.80 1621.66 481.32 1628.77 482.27 C 1629.45 485.09 1629.56 488.10 1628.71 490.90 C 1627.44 492.14 1625.50 491.86 1623.92 492.05 C 1618.17 492.42 1612.37 491.43 1606.69 492.63 C 1606.57 494.89 1605.77 497.29 1606.68 499.47 C 1607.31 500.72 1608.83 500.54 1610.05 500.63 C 1617.03 500.79 1624.04 500.26 1631.02 500.82 C 1633.81 503.15 1632.19 507.74 1632.07 510.96 C 1620.36 511.13 1608.63 511.08 1596.92 511.02 C 1595.14 511.19 1593.22 509.98 1593.73 507.99 C 1593.94 493.05 1593.24 478.09 1594.07 463.17 Z" />
<path fill="#919191" opacity="1.00" d=" M 1719.39 463.34 C 1727.53 462.74 1735.84 462.49 1744.00 463.35 C 1753.31 464.23 1762.02 470.94 1764.45 480.10 C 1766.25 487.98 1764.46 496.84 1759.17 503.05 C 1753.80 509.47 1744.97 511.13 1737.02 511.00 C 1731.04 510.81 1725.05 511.40 1719.11 510.74 C 1718.14 497.52 1719.11 484.25 1718.65 471.01 C 1718.83 468.48 1718.21 465.64 1719.39 463.34 M 1731.99 473.80 C 1730.89 478.48 1731.63 483.28 1731.54 488.03 C 1731.54 492.07 1730.88 496.22 1732.16 500.16 C 1737.59 500.76 1744.00 501.24 1748.34 497.24 C 1753.69 491.20 1753.34 480.30 1746.46 475.51 C 1742.21 472.70 1736.79 473.49 1731.99 473.80 Z" />
<path fill="#919191" opacity="1.00" d=" M 1777.56 466.02 C 1777.26 464.47 1778.10 462.67 1779.95 463.00 C 1791.58 463.00 1803.25 462.67 1814.87 463.19 C 1816.48 465.72 1815.92 469.25 1815.09 471.98 C 1814.80 472.16 1814.23 472.52 1813.94 472.70 C 1806.36 473.73 1798.69 472.54 1791.10 473.31 C 1789.73 476.02 1790.06 479.11 1790.94 481.92 C 1798.21 482.26 1805.49 481.60 1812.75 482.27 C 1813.20 485.33 1813.60 488.52 1812.42 491.48 C 1805.39 492.74 1798.23 491.59 1791.18 492.35 C 1789.60 494.50 1790.06 497.85 1790.79 500.30 C 1799.15 501.40 1807.65 499.84 1816.03 501.06 C 1816.66 504.10 1816.44 507.21 1816.29 510.29 C 1813.98 511.22 1811.46 511.05 1809.04 511.05 C 1799.69 510.90 1790.35 511.07 1781.00 511.09 C 1779.71 511.10 1777.51 510.65 1777.71 508.97 C 1777.48 494.66 1777.74 480.33 1777.56 466.02 Z" />
<path fill="#919191" opacity="1.00" d=" M 1852.36 463.40 C 1855.51 462.99 1858.71 462.32 1861.93 462.62 C 1863.52 462.75 1865.15 464.16 1865.06 465.87 C 1864.75 475.93 1864.95 486.00 1864.81 496.07 C 1864.78 497.47 1864.71 500.09 1866.82 499.83 C 1872.80 500.16 1878.81 499.55 1884.80 500.14 C 1885.52 503.65 1885.35 507.25 1884.86 510.79 C 1875.24 511.37 1865.59 510.93 1855.97 511.09 C 1854.56 511.08 1851.98 511.06 1852.15 509.07 C 1852.17 493.85 1851.80 478.62 1852.36 463.40 Z" />
<path fill="#919191" opacity="1.00" d=" M 1214.60 541.68 C 1223.40 539.53 1233.49 541.41 1240.12 547.84 C 1249.45 556.56 1249.98 572.84 1241.20 582.12 C 1231.55 592.76 1213.11 593.12 1202.81 583.23 C 1194.67 575.43 1193.16 561.79 1199.21 552.32 C 1202.64 546.88 1208.41 543.17 1214.60 541.68 M 1217.32 552.51 C 1210.07 555.12 1206.45 564.40 1209.76 571.30 C 1212.26 577.34 1219.71 581.17 1225.95 578.59 C 1233.96 575.65 1236.89 564.66 1232.23 557.76 C 1229.27 552.85 1222.70 550.27 1217.32 552.51 Z" />
<path fill="#919191" opacity="1.00" d=" M 1375.31 543.23 C 1384.71 538.84 1396.18 540.04 1405.02 545.21 C 1407.14 549.10 1403.03 552.60 1401.61 556.01 C 1396.09 553.50 1390.27 550.42 1384.02 551.37 C 1381.80 551.77 1380.63 554.96 1382.34 556.57 C 1388.37 560.52 1396.12 560.74 1402.01 564.97 C 1409.34 570.75 1407.51 584.16 1398.93 587.83 C 1387.90 592.52 1374.23 590.32 1365.31 582.28 C 1366.59 579.32 1367.40 575.96 1369.71 573.60 C 1371.03 572.63 1372.28 574.01 1373.42 574.63 C 1378.32 578.00 1384.36 580.69 1390.43 579.37 C 1393.59 578.91 1394.14 573.94 1391.28 572.68 C 1384.93 569.45 1377.03 569.43 1371.61 564.40 C 1365.33 558.52 1367.73 546.85 1375.31 543.23 Z" />
<path fill="#919191" opacity="1.00" d=" M 1673.05 549.05 C 1675.23 545.02 1679.38 542.30 1683.81 541.37 C 1692.62 539.59 1702.08 541.12 1709.78 545.83 C 1708.73 549.46 1707.83 553.46 1704.65 555.87 C 1699.16 553.62 1693.51 550.14 1687.35 551.42 C 1684.71 551.99 1684.25 556.23 1686.82 557.26 C 1693.59 560.98 1702.63 560.91 1707.70 567.45 C 1713.30 574.40 1709.24 585.89 1700.96 588.59 C 1690.39 592.05 1677.65 590.09 1669.20 582.71 C 1669.49 579.06 1671.30 575.53 1673.90 572.96 C 1679.82 576.50 1686.35 580.88 1693.61 579.46 C 1696.81 579.28 1697.77 574.28 1694.99 572.82 C 1689.13 569.55 1681.95 569.41 1676.42 565.47 C 1671.42 561.85 1670.04 554.36 1673.05 549.05 Z" />
<path fill="#919191" opacity="1.00" d=" M 1899.50 541.66 C 1908.34 539.57 1918.41 541.50 1925.13 547.85 C 1933.88 555.87 1935.02 570.53 1927.99 580.00 C 1919.05 591.98 1899.22 594.36 1888.35 583.69 C 1879.55 575.75 1877.81 561.27 1884.67 551.56 C 1888.12 546.52 1893.59 543.06 1899.50 541.66 M 1902.36 552.44 C 1896.19 554.59 1892.75 561.70 1893.90 567.96 C 1894.68 575.36 1902.75 581.26 1910.02 578.92 C 1917.63 576.86 1921.04 567.39 1918.45 560.37 C 1916.50 553.90 1908.70 549.90 1902.36 552.44 Z" />
<path fill="#919191" opacity="1.00" d=" M 757.29 542.34 C 759.69 541.27 762.44 541.64 765.02 541.56 C 775.73 541.81 786.45 541.26 797.16 541.79 C 797.80 544.88 798.58 548.62 796.62 551.38 C 792.66 553.25 788.04 551.16 784.05 553.06 C 782.49 564.95 784.19 576.97 783.16 588.89 C 779.83 589.85 776.32 589.60 772.96 589.01 C 771.32 588.42 770.72 586.61 770.81 585.03 C 770.45 575.46 770.95 565.87 770.58 556.31 C 770.45 554.87 770.27 552.80 768.49 552.58 C 764.72 551.92 760.87 552.31 757.09 551.89 C 756.29 548.81 755.14 545.13 757.29 542.34 Z" />
<path fill="#919191" opacity="1.00" d=" M 809.09 544.95 C 808.88 543.58 809.33 541.80 811.00 541.66 C 814.67 541.25 818.36 541.81 822.05 541.69 C 829.04 541.63 836.52 540.80 842.99 544.08 C 850.16 547.95 852.62 557.59 849.82 564.93 C 848.52 568.64 845.63 571.43 842.80 574.01 C 845.54 579.33 849.28 584.06 852.03 589.38 C 847.32 589.38 842.60 589.58 837.90 589.21 C 835.46 585.75 834.11 581.66 831.67 578.22 C 829.03 575.86 825.08 576.30 821.83 576.67 C 821.91 580.71 821.91 584.76 821.75 588.81 C 818.28 589.98 814.47 589.91 810.93 589.15 C 809.04 587.69 809.20 585.07 809.12 582.95 C 809.11 570.29 809.16 557.62 809.09 544.95 M 823.09 552.30 C 820.88 556.07 821.68 561.28 822.61 565.35 C 825.87 567.35 830.32 566.01 833.95 565.54 C 839.70 564.32 840.37 555.18 835.23 552.73 C 831.38 551.26 827.05 551.37 823.09 552.30 Z" />
<path fill="#919191" opacity="1.00" d=" M 879.45 544.40 C 881.02 540.11 886.37 541.70 889.87 541.66 C 894.57 541.84 895.90 546.88 897.53 550.38 C 902.71 563.36 908.62 576.04 913.45 589.16 C 909.33 589.32 905.16 589.84 901.06 589.26 C 898.07 587.63 899.04 582.93 895.99 581.43 C 892.03 580.81 888.00 581.66 884.01 581.38 C 881.63 581.43 879.11 580.87 876.84 581.76 C 875.04 583.81 875.12 587.14 872.77 588.77 C 869.14 590.23 865.15 589.33 861.41 588.95 C 861.31 586.34 862.43 583.94 863.44 581.60 C 868.89 569.25 874.12 556.80 879.45 544.40 M 886.75 555.12 C 884.83 560.53 882.51 565.79 880.70 571.25 C 884.82 571.41 888.94 571.40 893.06 571.25 C 891.10 565.82 889.11 560.39 886.75 555.12 Z" />
<path fill="#919191" opacity="1.00" d=" M 924.71 541.75 C 933.47 541.45 942.24 541.58 951.01 541.79 C 955.43 541.89 959.94 543.71 962.82 547.16 C 965.52 550.34 966.09 555.28 963.85 558.87 C 962.67 560.97 960.62 562.33 958.97 564.01 C 960.53 565.78 962.88 566.70 964.32 568.62 C 968.60 573.87 967.13 582.58 961.50 586.28 C 957.31 589.36 951.86 589.29 946.90 589.40 C 939.52 589.43 932.13 589.56 924.76 589.24 C 924.36 573.42 924.54 557.57 924.71 541.75 M 937.65 560.30 C 941.70 560.82 945.88 560.82 949.87 559.84 C 952.73 558.40 952.80 553.55 949.86 552.17 C 945.84 551.14 941.65 551.71 937.56 551.69 C 937.11 554.54 936.89 557.47 937.65 560.30 M 937.57 579.39 C 942.22 580.00 947.22 580.39 951.59 578.29 C 954.65 576.69 953.93 571.31 950.57 570.55 C 946.35 569.62 942.00 569.72 937.71 569.84 C 937.08 572.99 937.19 576.21 937.57 579.39 Z" />
<path fill="#919191" opacity="1.00" d=" M 994.25 544.23 C 995.16 541.29 998.52 541.45 1001.03 541.45 C 1004.27 541.49 1008.42 541.63 1009.87 545.16 C 1013.83 553.44 1017.01 562.08 1020.65 570.51 C 1023.14 576.73 1026.21 582.73 1028.16 589.16 C 1024.15 589.34 1020.04 590.15 1016.11 589.06 C 1013.20 587.71 1012.94 584.03 1011.54 581.50 C 1005.17 581.15 998.77 581.22 992.41 581.43 C 989.25 582.83 990.33 587.85 987.00 589.14 C 983.05 589.90 979.01 589.24 975.03 589.35 C 981.30 574.25 987.89 559.28 994.25 544.23 M 1001.50 555.14 C 999.59 560.55 997.23 565.79 995.42 571.24 C 999.51 571.42 1003.61 571.41 1007.71 571.26 C 1005.90 565.79 1003.90 560.38 1001.50 555.14 Z" />
<path fill="#919191" opacity="1.00" d=" M 1039.51 542.45 C 1042.70 540.84 1046.51 541.89 1049.97 541.61 C 1055.80 541.84 1061.98 540.75 1067.58 542.32 C 1068.24 547.84 1067.58 553.43 1067.86 558.98 C 1067.78 564.96 1068.15 570.98 1067.55 576.95 C 1066.73 581.92 1063.73 586.83 1058.94 588.81 C 1050.47 592.22 1039.95 589.42 1034.26 582.29 C 1036.06 579.39 1037.58 576.25 1040.11 573.88 C 1043.83 575.68 1046.96 580.20 1051.60 578.71 C 1055.80 576.96 1054.73 571.59 1055.04 567.96 C 1054.62 562.87 1055.62 557.62 1054.48 552.64 C 1049.54 551.53 1044.21 552.70 1039.15 551.90 C 1038.27 548.87 1038.05 545.30 1039.51 542.45 Z" />
<path fill="#919191" opacity="1.00" d=" M 1096.64 542.60 C 1099.31 540.73 1102.87 541.57 1105.93 541.71 C 1109.39 541.58 1111.28 544.88 1112.43 547.66 C 1116.87 558.18 1121.18 568.76 1125.71 579.25 C 1127.08 582.52 1128.79 585.70 1129.36 589.25 C 1125.56 589.41 1121.70 589.97 1117.94 589.21 C 1114.40 588.29 1114.72 583.81 1112.62 581.50 C 1106.43 581.08 1100.20 581.22 1094.01 581.45 C 1090.58 582.59 1091.36 587.87 1087.94 589.09 C 1084.10 589.70 1080.20 589.35 1076.35 589.37 C 1081.45 577.17 1086.66 565.03 1091.95 552.92 C 1093.45 549.45 1094.57 545.78 1096.64 542.60 M 1096.74 571.19 C 1100.85 571.43 1104.99 571.44 1109.12 571.22 C 1107.25 565.87 1105.19 560.58 1103.08 555.33 C 1100.62 560.46 1098.75 565.87 1096.74 571.19 Z" />
<path fill="#919191" opacity="1.00" d=" M 1140.70 589.07 C 1140.26 573.29 1140.36 557.50 1140.66 541.73 C 1150.09 541.80 1159.64 540.62 1168.97 542.53 C 1176.05 544.05 1182.35 549.08 1185.13 555.81 C 1189.53 566.26 1185.85 579.86 1176.00 585.85 C 1169.43 589.88 1161.42 589.59 1154.01 589.42 C 1149.57 589.16 1145.10 589.85 1140.70 589.07 M 1153.36 552.22 C 1153.11 559.83 1153.16 567.46 1153.30 575.08 C 1153.38 576.43 1153.45 578.29 1154.99 578.83 C 1159.57 579.61 1164.81 579.70 1168.77 576.88 C 1175.11 571.79 1175.85 560.75 1169.52 555.35 C 1165.12 551.55 1158.82 551.26 1153.36 552.22 Z" />
<path fill="#919191" opacity="1.00" d=" M 1260.29 543.19 C 1260.48 540.95 1263.44 541.73 1264.98 541.57 C 1274.60 542.06 1284.80 539.97 1293.89 544.12 C 1298.88 546.32 1301.38 551.90 1301.63 557.11 C 1301.77 561.12 1301.47 565.55 1298.87 568.82 C 1297.39 570.73 1295.59 572.36 1293.84 574.00 C 1296.26 579.49 1300.25 584.07 1302.95 589.40 C 1298.25 589.35 1293.55 589.59 1288.87 589.21 C 1285.99 585.58 1284.96 580.71 1281.45 577.58 C 1279.07 575.44 1275.66 576.16 1272.84 576.74 C 1272.77 580.69 1273.40 584.73 1272.50 588.63 C 1270.71 589.95 1268.11 589.45 1266.01 589.55 C 1264.27 589.24 1261.93 589.68 1260.94 587.91 C 1260.10 586.41 1260.25 584.63 1260.18 582.99 C 1260.24 569.73 1259.91 556.45 1260.29 543.19 M 1273.43 552.37 C 1272.55 556.83 1272.82 561.39 1273.12 565.90 C 1277.60 566.45 1282.49 566.90 1286.65 564.74 C 1291.01 562.05 1290.46 554.31 1285.58 552.51 C 1281.63 551.36 1277.38 551.20 1273.43 552.37 Z" />
<path fill="#919191" opacity="1.00" d=" M 1316.07 545.00 C 1316.05 543.79 1316.01 541.49 1317.89 541.80 C 1329.27 541.29 1340.67 541.74 1352.06 541.62 C 1354.21 541.56 1353.93 544.52 1354.03 546.00 C 1353.87 547.80 1354.31 551.01 1351.91 551.40 C 1344.35 552.31 1336.72 551.18 1329.15 552.00 C 1329.08 554.65 1327.55 558.14 1330.00 560.16 C 1337.00 560.89 1344.08 559.71 1351.07 560.83 C 1352.19 563.77 1351.81 566.94 1351.06 569.92 C 1343.80 571.57 1336.36 570.11 1329.05 571.03 C 1328.71 573.68 1328.72 576.36 1329.03 579.02 C 1337.30 579.74 1345.61 578.92 1353.91 579.42 C 1355.05 582.72 1355.95 589.37 1350.89 589.37 C 1340.61 589.42 1330.31 589.34 1320.03 589.44 C 1318.35 589.58 1315.88 589.23 1316.08 587.02 C 1316.19 573.02 1316.06 559.01 1316.07 545.00 Z" />
<path fill="#919191" opacity="1.00" d=" M 1441.13 553.01 C 1441.28 549.24 1440.63 545.37 1441.68 541.68 C 1448.79 541.47 1455.90 541.62 1463.01 541.64 C 1470.32 541.66 1477.90 544.57 1482.50 550.43 C 1487.18 556.40 1488.26 564.55 1486.78 571.85 C 1484.59 581.36 1475.60 588.73 1465.88 589.20 C 1458.91 589.61 1451.94 589.47 1444.98 589.40 C 1443.75 589.16 1441.31 589.96 1441.26 588.04 C 1440.87 576.38 1441.36 564.69 1441.13 553.01 M 1454.07 551.89 C 1453.87 559.28 1453.92 566.67 1453.96 574.06 C 1454.08 575.72 1453.88 578.35 1455.93 578.93 C 1459.84 579.57 1464.11 579.55 1467.78 577.83 C 1476.05 573.46 1476.94 560.01 1469.22 554.66 C 1464.88 551.42 1459.18 551.72 1454.07 551.89 Z" />
<path fill="#919191" opacity="1.00" d=" M 1500.33 542.32 C 1503.96 540.97 1508.11 541.70 1511.97 541.54 C 1520.57 541.98 1529.23 540.98 1537.80 541.97 C 1538.41 544.92 1538.45 547.95 1537.71 550.89 C 1529.94 552.84 1521.88 551.00 1514.02 551.93 C 1511.57 553.65 1513.12 557.49 1513.06 560.06 C 1520.41 560.99 1527.83 559.74 1535.17 560.73 C 1535.39 563.78 1536.90 567.90 1534.04 570.13 C 1527.15 571.46 1520.09 570.06 1513.18 571.09 C 1512.48 573.63 1512.64 576.26 1513.29 578.80 C 1521.36 580.05 1529.57 578.66 1537.67 579.49 C 1539.86 580.82 1538.73 583.91 1538.91 586.03 C 1539.19 587.78 1537.78 589.32 1536.02 589.26 C 1525.70 589.69 1515.37 589.16 1505.05 589.46 C 1503.29 589.38 1499.79 589.89 1500.16 587.18 C 1499.82 574.12 1500.22 561.05 1500.00 547.98 C 1500.00 546.09 1499.85 544.16 1500.33 542.32 Z" />
<path fill="#919191" opacity="1.00" d=" M 1552.88 541.92 C 1556.76 541.80 1562.58 539.75 1564.94 544.01 C 1566.23 555.06 1564.87 566.27 1565.60 577.36 C 1565.89 577.61 1566.48 578.11 1566.77 578.36 C 1573.02 579.39 1579.50 577.42 1585.66 579.27 C 1585.87 582.20 1586.24 585.28 1585.17 588.09 C 1583.63 589.78 1581.00 589.30 1578.96 589.43 C 1570.26 589.18 1561.55 589.76 1552.86 589.19 C 1552.18 578.46 1552.74 567.68 1552.57 556.93 C 1552.70 551.93 1552.13 546.89 1552.88 541.92 Z" />
<path fill="#919191" opacity="1.00" d=" M 1619.77 541.87 C 1631.48 541.22 1643.22 541.82 1654.96 541.56 C 1657.82 541.29 1657.63 544.96 1657.56 546.91 C 1657.28 548.43 1657.63 551.17 1655.52 551.39 C 1648.05 552.36 1640.51 551.25 1633.03 551.96 C 1631.85 554.54 1632.41 557.35 1632.94 560.03 C 1639.57 560.90 1646.27 559.97 1652.92 560.49 C 1654.46 560.20 1654.96 561.83 1655.25 563.04 C 1655.61 565.52 1655.02 568.01 1654.69 570.47 C 1647.51 571.06 1640.26 570.29 1633.14 571.10 C 1631.93 573.37 1631.87 576.61 1633.14 578.87 C 1641.16 579.99 1649.37 578.65 1657.45 579.49 C 1658.85 582.41 1658.24 585.63 1657.66 588.68 C 1652.21 590.08 1646.53 589.20 1640.98 589.37 C 1634.00 589.18 1626.93 589.95 1620.01 589.05 L 1619.54 588.40 C 1619.14 574.96 1619.54 561.48 1619.33 548.03 C 1619.23 545.96 1619.35 543.89 1619.77 541.87 Z" />
<path fill="#919191" opacity="1.00" d=" M 1718.94 541.70 C 1732.51 541.77 1746.12 540.95 1759.66 542.10 C 1759.53 545.25 1761.64 551.34 1757.12 552.00 C 1753.46 552.54 1749.64 551.58 1746.16 553.07 C 1744.66 565.07 1746.49 577.21 1745.23 589.21 C 1741.86 589.49 1738.41 589.95 1735.10 589.10 C 1733.29 588.59 1732.98 586.56 1732.96 585.00 C 1732.26 574.38 1733.13 563.74 1732.61 553.11 C 1728.39 550.87 1723.56 553.33 1719.17 551.84 C 1718.28 548.51 1718.57 545.07 1718.94 541.70 Z" />
<path fill="#919191" opacity="1.00" d=" M 1780.83 543.91 C 1782.75 540.22 1787.63 541.68 1790.97 541.71 C 1794.05 541.63 1796.11 544.32 1797.12 546.92 C 1803.05 561.03 1809.03 575.13 1814.81 589.30 C 1810.59 589.20 1806.16 590.36 1802.12 588.77 C 1799.46 587.23 1799.09 583.84 1797.85 581.31 C 1791.59 581.22 1785.32 581.14 1779.07 581.43 C 1775.63 582.60 1776.33 587.83 1772.95 589.12 C 1769.30 589.77 1765.57 589.35 1761.93 588.99 C 1764.36 580.89 1768.31 573.39 1771.49 565.58 C 1774.66 558.38 1777.49 551.03 1780.83 543.91 M 1787.91 555.32 C 1785.75 560.58 1783.61 565.86 1781.76 571.24 C 1785.91 571.40 1790.08 571.40 1794.26 571.36 C 1792.08 566.04 1790.38 560.50 1787.91 555.32 Z" />
<path fill="#919191" opacity="1.00" d=" M 1825.77 541.75 C 1837.65 542.03 1850.65 539.24 1861.47 545.60 C 1874.74 553.53 1875.31 575.01 1863.19 584.25 C 1857.03 589.35 1848.61 589.71 1840.99 589.48 C 1835.93 589.19 1830.86 589.71 1825.83 589.16 C 1825.39 573.37 1825.53 557.55 1825.77 541.75 M 1839.10 552.24 C 1838.02 553.14 1838.47 554.75 1838.36 555.98 C 1838.72 562.98 1837.82 570.02 1838.74 576.99 C 1838.64 578.68 1840.71 579.02 1842.00 579.11 C 1845.99 579.42 1850.45 579.32 1853.80 576.81 C 1861.50 570.94 1860.19 556.73 1851.03 553.00 C 1847.19 551.87 1843.02 551.25 1839.10 552.24 Z" />
</g>
<g id="#6b6b6bff">
<path fill="#6b6b6b" opacity="1.00" d=" M 950.05 60.86 C 965.33 55.20 981.84 53.67 998.03 54.44 C 1017.78 55.46 1037.39 60.66 1054.76 70.20 C 1060.68 73.32 1064.01 80.57 1062.56 87.11 C 1059.84 100.88 1057.25 114.67 1054.63 128.46 C 1054.21 129.74 1053.97 132.07 1052.09 131.75 C 1043.74 131.67 1035.38 131.35 1027.04 130.80 C 1025.16 130.79 1024.76 128.60 1024.56 127.14 C 1023.16 115.37 1021.45 103.59 1018.61 92.07 C 1017.64 88.08 1013.56 86.44 1010.26 84.80 C 996.78 78.71 981.21 78.72 966.99 81.92 C 961.68 83.56 955.31 84.91 952.18 89.98 C 946.02 102.02 944.71 117.37 951.77 129.33 C 957.17 138.85 966.81 144.76 976.17 149.84 C 993.57 158.91 1012.41 164.92 1029.63 174.39 C 1039.45 179.81 1048.79 186.53 1055.75 195.42 C 1066.31 209.16 1069.36 227.83 1065.30 244.51 C 1062.26 257.66 1054.09 269.32 1043.23 277.24 C 1026.78 289.31 1006.12 294.16 986.00 294.92 C 957.30 295.82 927.48 291.43 902.37 276.76 C 900.29 275.50 897.66 273.87 897.95 271.06 C 897.71 256.34 897.97 241.61 898.61 226.90 C 898.76 225.43 898.68 223.82 899.52 222.54 C 903.51 221.25 907.78 221.36 911.94 221.12 C 917.88 221.05 923.87 220.37 929.79 221.30 C 932.51 233.23 934.76 245.30 938.46 256.99 C 939.07 258.74 940.27 260.32 941.98 261.14 C 953.34 267.08 966.33 269.24 979.05 269.24 C 988.21 269.19 997.53 268.40 1006.16 265.12 C 1009.07 264.06 1011.81 262.19 1013.29 259.40 C 1018.49 250.42 1021.10 239.28 1017.75 229.19 C 1015.74 222.38 1010.84 216.77 1005.03 212.86 C 990.23 202.73 972.97 197.32 956.65 190.24 C 942.01 183.82 927.13 176.71 915.82 165.10 C 895.66 145.22 894.22 110.44 911.26 88.18 C 921.16 75.52 935.05 66.34 950.05 60.86 Z" />
<path fill="#6b6b6b" opacity="1.00" d=" M 1135.27 73.21 C 1153.47 59.61 1176.57 54.22 1199.00 54.24 C 1221.43 54.12 1243.95 59.56 1263.60 70.44 C 1269.02 73.36 1272.00 79.89 1271.11 85.92 C 1269.06 99.86 1266.03 113.64 1263.40 127.48 C 1262.89 128.94 1262.94 131.44 1261.00 131.71 C 1253.30 132.09 1245.60 131.40 1237.92 131.12 C 1236.35 130.91 1233.77 131.05 1233.45 129.03 C 1231.69 116.83 1230.20 104.55 1227.28 92.56 C 1226.69 89.94 1224.72 87.87 1222.42 86.63 C 1212.91 81.29 1201.79 79.40 1190.99 79.84 C 1183.01 80.20 1174.96 81.41 1167.57 84.54 C 1164.94 85.77 1162.14 87.28 1160.79 89.99 C 1155.22 100.34 1153.73 113.08 1157.84 124.20 C 1160.84 132.42 1167.16 139.05 1174.44 143.73 C 1192.29 155.45 1212.94 161.64 1231.93 171.15 C 1244.05 177.24 1255.98 184.66 1264.38 195.54 C 1271.17 204.20 1274.75 215.11 1275.35 226.04 C 1275.94 237.38 1274.02 249.14 1268.17 259.02 C 1261.16 271.21 1249.62 280.26 1236.86 285.83 C 1217.23 294.68 1195.16 295.94 1173.95 294.61 C 1151.66 293.15 1129.17 287.82 1109.95 276.10 C 1107.55 275.05 1106.00 272.69 1106.27 270.06 C 1106.50 262.56 1105.74 255.02 1106.83 247.57 C 1107.88 239.73 1106.61 231.79 1107.43 223.94 C 1107.60 221.99 1110.02 221.97 1111.50 221.71 C 1120.33 220.97 1129.21 220.61 1138.07 221.09 C 1139.42 224.54 1139.80 228.25 1140.58 231.85 C 1142.26 240.00 1144.33 248.07 1146.67 256.07 C 1147.19 258.29 1148.64 260.26 1150.72 261.27 C 1162.77 267.46 1176.55 269.52 1189.99 269.21 C 1198.98 268.94 1208.18 268.02 1216.49 264.31 C 1218.68 263.40 1220.43 261.68 1221.63 259.64 C 1226.43 251.65 1228.91 241.98 1227.19 232.70 C 1226.02 226.35 1222.61 220.50 1217.80 216.21 C 1212.56 211.47 1206.17 208.29 1199.93 205.09 C 1181.80 196.15 1162.24 190.33 1144.65 180.27 C 1133.51 173.98 1122.99 165.85 1116.22 154.82 C 1108.48 142.14 1106.62 126.50 1109.12 112.03 C 1112.01 96.15 1122.41 82.55 1135.27 73.21 Z" />
<path fill="#6b6b6b" opacity="1.00" d=" M 1361.23 63.30 C 1378.36 55.69 1397.44 53.42 1416.03 54.50 C 1435.42 55.63 1454.67 60.80 1471.71 70.21 C 1477.34 73.15 1480.65 79.86 1479.61 86.13 C 1477.76 98.66 1475.11 111.05 1472.66 123.48 C 1472.04 126.34 1471.84 129.39 1470.20 131.90 C 1461.22 131.69 1452.17 131.80 1443.25 130.67 C 1442.99 130.49 1442.47 130.11 1442.21 129.93 C 1440.27 118.81 1439.23 107.53 1436.69 96.52 C 1435.94 93.09 1435.31 88.90 1431.82 87.16 C 1416.25 77.94 1396.93 78.43 1379.94 82.98 C 1374.23 84.38 1369.32 88.64 1367.15 94.11 C 1362.50 106.20 1362.58 120.85 1370.27 131.71 C 1377.77 142.35 1389.84 148.33 1401.27 153.83 C 1417.85 161.56 1435.33 167.46 1451.05 176.95 C 1460.79 182.81 1469.94 190.23 1475.96 200.02 C 1486.01 216.75 1486.76 238.61 1478.15 256.09 C 1471.44 269.86 1458.94 280.12 1444.98 286.00 C 1426.52 294.16 1405.93 295.81 1385.99 294.81 C 1362.35 293.66 1338.39 288.35 1318.02 275.92 C 1315.78 274.85 1314.64 272.39 1314.81 269.98 C 1315.01 261.65 1314.50 253.30 1315.57 245.02 C 1316.13 237.72 1315.03 230.37 1316.05 223.11 C 1317.21 221.71 1319.25 221.90 1320.91 221.63 C 1328.96 221.02 1337.06 220.62 1345.13 221.02 C 1346.80 220.80 1347.42 222.57 1347.56 223.90 C 1349.58 235.05 1352.22 246.09 1355.46 256.95 C 1356.75 260.86 1361.07 262.27 1364.51 263.71 C 1379.18 269.48 1395.40 270.29 1410.91 268.24 C 1416.87 267.12 1423.38 266.17 1428.16 262.11 C 1436.92 251.18 1439.31 234.54 1431.61 222.41 C 1426.45 214.41 1417.74 209.86 1409.57 205.55 C 1391.18 196.56 1371.44 190.52 1353.57 180.44 C 1341.09 173.92 1329.71 164.45 1323.20 151.77 C 1313.39 133.47 1314.50 110.07 1325.48 92.53 C 1333.62 79.03 1347.00 69.54 1361.23 63.30 Z" />
<path fill="#6b6b6b" opacity="1.00" d=" M 1615.98 59.88 C 1645.34 59.96 1674.73 59.71 1704.03 57.68 C 1707.89 57.54 1712.19 57.01 1715.58 59.34 C 1720.97 62.90 1723.60 69.77 1722.93 76.08 C 1721.83 91.79 1719.96 107.44 1718.53 123.12 C 1718.36 124.62 1717.97 126.85 1716.04 126.82 C 1708.05 127.74 1699.98 127.26 1692.00 126.57 C 1690.08 126.74 1689.53 124.64 1689.22 123.19 C 1686.70 111.43 1684.21 99.66 1681.76 87.89 C 1681.48 86.40 1680.66 84.55 1678.93 84.47 C 1667.31 83.27 1655.60 83.27 1643.93 83.14 C 1642.51 83.41 1639.51 82.58 1639.74 84.94 C 1639.02 93.59 1639.80 102.29 1639.50 110.96 C 1639.55 141.67 1639.33 172.38 1639.50 203.09 C 1639.66 219.08 1639.15 235.14 1641.09 251.05 C 1641.55 254.89 1641.91 259.28 1644.97 262.05 C 1652.56 267.76 1662.44 268.63 1670.73 272.81 C 1669.51 278.17 1668.84 283.69 1667.12 288.92 C 1665.23 289.96 1662.99 289.55 1660.96 289.65 C 1632.32 289.61 1603.69 289.61 1575.05 289.65 C 1572.01 289.52 1568.79 290.17 1565.92 289.00 C 1564.34 284.10 1563.46 278.98 1562.50 273.92 C 1561.77 272.18 1563.89 271.68 1565.07 271.26 C 1572.98 268.80 1580.99 266.63 1588.88 264.07 C 1590.28 263.72 1591.43 262.45 1591.51 260.98 C 1593.43 236.38 1593.64 211.69 1593.56 187.03 C 1593.73 153.65 1593.54 120.27 1593.66 86.90 C 1593.75 85.35 1593.11 82.97 1591.15 83.17 C 1579.73 83.04 1568.31 83.70 1556.91 84.24 C 1555.05 84.31 1552.47 84.78 1552.13 87.00 C 1549.12 99.63 1546.65 112.39 1543.67 125.03 C 1543.41 126.72 1541.77 127.93 1540.11 127.84 C 1531.41 127.92 1522.66 127.78 1514.04 126.59 C 1512.01 126.18 1512.05 123.58 1511.98 121.97 C 1511.57 101.96 1511.30 81.93 1512.20 61.93 C 1512.37 59.65 1515.31 59.83 1517.00 59.79 C 1550.00 59.93 1582.99 59.86 1615.98 59.88 Z" />
<path fill="#6b6b6b" opacity="1.00" d=" M 1843.01 59.82 C 1872.01 59.70 1901.05 59.45 1929.99 57.29 C 1933.04 56.70 1934.72 59.65 1936.34 61.67 C 1939.06 65.17 1941.45 69.49 1940.57 74.09 C 1938.64 88.44 1935.56 102.61 1933.35 116.92 C 1932.86 119.57 1932.56 122.28 1931.64 124.83 C 1931.01 126.17 1929.10 125.46 1927.99 125.75 C 1920.93 125.75 1913.86 125.64 1906.86 124.80 C 1905.71 124.58 1903.91 124.38 1903.89 122.86 C 1901.29 111.27 1899.47 99.51 1897.17 87.86 C 1896.68 85.53 1893.89 85.17 1891.96 84.95 C 1876.35 83.24 1860.62 82.81 1844.93 83.32 C 1838.25 83.52 1831.18 82.88 1824.97 85.82 C 1823.36 86.50 1823.46 88.49 1823.28 89.91 C 1821.70 114.76 1821.02 139.69 1821.66 164.59 C 1844.46 163.76 1867.25 162.50 1890.05 161.58 C 1895.40 161.21 1900.01 166.96 1898.65 172.13 C 1897.54 177.96 1896.80 183.88 1895.36 189.65 C 1895.01 191.09 1893.18 191.20 1892.03 191.23 C 1868.54 190.66 1845.06 189.31 1821.56 189.21 C 1821.38 206.82 1821.21 224.46 1822.29 242.05 C 1822.57 247.52 1822.76 253.12 1824.54 258.36 C 1825.95 262.26 1830.28 263.84 1834.05 264.45 C 1855.09 267.46 1876.48 266.50 1897.55 264.28 C 1899.14 263.98 1901.62 263.99 1902.03 261.95 C 1905.16 249.94 1907.68 237.78 1910.78 225.77 C 1911.34 222.92 1914.83 223.49 1917.01 223.43 C 1924.95 223.82 1933.04 223.08 1940.82 225.07 C 1942.22 245.67 1941.82 266.38 1941.11 287.01 C 1941.31 289.23 1938.70 289.75 1937.04 289.68 C 1881.69 289.56 1826.33 289.66 1770.98 289.62 C 1764.01 289.59 1757.04 289.89 1750.09 289.51 C 1748.61 289.58 1747.26 288.50 1747.15 287.03 C 1746.21 282.27 1745.24 277.52 1744.18 272.80 C 1745.35 272.03 1746.59 271.30 1748.00 270.94 C 1755.19 268.80 1762.35 266.53 1769.58 264.48 C 1771.31 264.02 1773.28 262.92 1773.50 260.93 C 1775.67 232.98 1775.37 204.92 1775.50 176.91 C 1775.38 152.26 1776.15 127.54 1774.36 102.93 C 1773.44 97.44 1774.13 90.51 1769.17 86.75 C 1761.60 81.72 1752.41 80.24 1744.13 76.78 C 1745.36 71.64 1746.06 66.37 1747.49 61.28 C 1748.10 59.47 1750.47 59.98 1751.98 59.80 C 1782.32 59.84 1812.66 60.04 1843.01 59.82 Z" />
<path fill="#6b6b6b" opacity="1.00" d=" M 758.66 60.71 C 759.79 59.61 761.64 60.15 763.09 59.94 C 793.38 59.62 823.67 60.06 853.96 59.79 C 855.87 59.84 857.88 59.64 859.72 60.34 C 861.88 65.52 862.28 71.23 863.58 76.66 C 856.15 80.18 847.96 81.67 840.19 84.22 C 837.78 84.94 834.23 85.75 834.26 88.90 C 833.02 103.56 832.63 118.28 832.48 132.98 C 832.26 159.32 832.43 185.65 832.50 211.99 C 832.66 226.54 832.13 241.21 834.61 255.61 C 835.08 258.46 836.57 261.17 838.94 262.87 C 846.45 267.76 855.57 268.97 863.60 272.68 C 862.50 278.21 861.54 283.77 859.97 289.20 C 858.33 289.50 856.65 289.70 854.99 289.70 C 824.31 289.57 793.64 289.60 762.97 289.69 C 761.48 289.50 759.57 289.98 758.52 288.63 C 757.04 283.42 756.25 278.04 755.09 272.76 C 757.35 271.09 760.16 270.59 762.79 269.78 C 769.17 267.88 775.58 266.09 781.91 264.01 C 784.20 263.58 784.43 260.96 784.57 259.07 C 787.38 219.43 785.77 179.67 786.09 139.98 C 785.95 124.61 786.62 109.12 784.12 93.89 C 783.59 90.13 781.14 86.79 777.66 85.25 C 770.61 81.55 762.79 79.75 755.33 77.11 C 755.92 71.56 756.96 66.03 758.66 60.71 Z" />
</g>
</svg>
