<?xml version="1.0" encoding="UTF-8" ?>
<!DOCTYPE svg PUBLIC "-//W3C//DTD SVG 1.1//EN" "http://www.w3.org/Graphics/SVG/1.1/DTD/svg11.dtd">
<svg width="1997pt" height="625pt" viewBox="0 0 1997 625" version="1.1" xmlns="http://www.w3.org/2000/svg">
<g id="#ffffffff">
<path fill="#ffffff" opacity="1.00" d=" M 285.19 0.00 L 297.59 0.00 C 306.81 1.02 316.64 2.82 323.75 9.29 C 330.83 15.39 334.58 24.66 334.85 33.90 C 335.69 44.96 334.39 56.00 333.68 67.03 C 333.25 75.10 334.70 83.72 330.97 91.24 C 326.58 98.83 318.52 103.11 312.84 109.58 C 314.26 111.70 315.31 114.62 318.06 115.31 C 323.00 116.27 327.97 114.69 332.94 114.74 C 341.30 114.70 350.26 115.69 357.26 120.66 C 362.12 124.55 362.40 131.24 364.16 136.74 C 368.14 148.89 372.34 160.98 375.67 173.34 C 382.48 171.58 389.19 169.34 395.53 166.26 C 398.87 164.72 402.20 162.78 405.98 162.67 C 411.94 162.55 417.54 166.17 420.62 171.15 C 423.34 175.70 422.99 181.67 420.33 186.17 C 416.52 192.54 411.71 198.26 406.65 203.67 C 395.24 215.51 383.97 227.84 369.84 236.51 C 374.74 242.20 380.08 247.74 383.18 254.70 C 387.25 263.17 387.28 272.79 387.53 281.99 C 387.62 294.65 387.52 307.32 387.57 319.98 C 387.67 324.02 387.87 328.06 387.45 332.08 C 378.86 333.87 369.08 330.87 361.46 336.39 C 354.98 340.62 354.31 348.95 353.25 355.92 C 352.61 358.24 353.25 361.45 356.00 362.00 C 361.44 360.83 365.86 357.23 370.75 354.80 C 386.54 347.47 401.68 338.85 417.28 331.14 C 431.61 323.88 445.62 316.01 459.87 308.61 C 464.35 306.20 466.04 300.94 466.61 296.20 C 468.97 269.14 472.68 242.17 473.27 214.98 C 473.56 199.58 473.85 183.40 467.06 169.18 C 464.31 162.96 459.24 158.00 453.26 154.86 C 448.53 152.45 444.11 149.37 440.57 145.38 C 435.94 140.43 433.18 134.17 430.07 128.24 C 422.36 113.19 415.14 97.72 404.92 84.15 C 399.45 77.31 392.28 70.36 383.01 69.98 C 377.07 69.09 371.43 74.11 370.97 79.96 C 369.87 91.20 371.99 103.07 378.30 112.58 C 380.73 116.26 386.00 118.15 386.36 123.04 C 386.96 126.87 383.49 131.85 379.26 129.90 C 368.27 125.91 359.24 117.08 354.53 106.42 C 348.24 92.35 345.73 76.37 348.55 61.15 C 351.63 47.71 362.87 37.63 375.17 32.37 C 385.38 28.18 397.81 26.45 407.81 32.12 C 432.10 46.75 452.77 69.10 461.27 96.55 C 462.83 101.25 461.57 107.56 466.25 110.73 C 479.48 120.38 490.32 133.59 496.02 149.04 C 502.48 165.53 502.40 183.86 498.94 201.03 C 518.55 182.30 537.46 162.86 556.92 143.98 C 564.86 136.02 572.96 127.40 583.87 123.63 C 594.24 120.03 606.33 120.51 615.86 126.23 C 619.14 128.14 621.83 131.03 625.43 132.38 C 628.00 133.39 630.63 132.04 633.14 131.45 C 638.67 129.79 644.94 129.83 650.01 132.84 C 659.17 137.95 663.85 148.78 663.63 158.98 C 664.03 201.00 665.36 243.01 666.61 285.02 C 666.53 300.68 667.99 316.53 665.00 332.03 C 661.57 350.36 653.38 367.32 644.82 383.73 C 632.91 406.73 622.88 430.66 613.71 454.86 C 610.14 465.20 606.78 476.06 599.35 484.39 C 590.47 495.03 577.36 500.56 564.86 505.69 C 553.45 510.36 541.99 514.88 530.60 519.56 C 511.18 528.48 491.63 537.11 472.43 546.50 C 456.65 554.41 440.46 561.48 424.98 569.98 C 393.44 586.46 363.03 605.01 333.61 625.00 L 330.98 625.00 C 302.73 605.16 272.82 587.80 242.24 571.82 C 225.87 563.45 209.68 554.70 192.88 547.21 C 179.98 541.51 167.17 535.58 154.24 529.94 C 135.07 521.63 115.65 513.79 97.15 504.02 C 86.57 498.39 76.30 491.76 68.17 482.84 C 62.55 476.43 58.43 468.87 54.77 461.22 C 40.25 428.80 25.87 396.30 13.14 363.13 C 7.32 348.47 1.39 333.56 0.00 317.70 L 0.00 299.33 C 0.86 290.24 0.88 281.11 1.44 272.00 C 4.07 228.94 8.29 186.00 11.61 142.99 C 12.14 133.21 20.27 124.72 29.83 123.16 C 36.02 121.89 42.09 124.06 48.04 125.49 C 51.81 122.41 54.86 118.32 59.41 116.29 C 68.26 112.10 78.67 113.34 87.64 116.53 C 97.61 120.32 104.45 128.97 110.83 137.11 C 125.04 154.21 140.17 170.50 154.84 187.20 C 161.52 194.56 167.82 202.28 174.93 209.24 C 175.79 189.71 176.50 169.77 182.94 151.11 C 189.72 132.61 204.76 118.17 221.86 108.99 C 225.97 106.61 230.60 105.19 234.44 102.38 C 236.77 100.72 236.28 97.52 236.06 95.06 C 234.27 80.96 228.44 67.42 229.17 53.02 C 229.55 36.42 237.78 20.09 251.11 10.14 C 261.06 3.20 273.40 1.28 285.19 0.00 M 283.31 39.25 C 282.36 42.02 282.21 45.00 281.39 47.81 C 278.48 58.65 270.67 67.71 261.13 73.39 C 259.29 74.58 256.41 76.35 257.75 78.94 C 261.22 88.58 263.51 98.73 263.63 109.01 C 263.71 115.86 259.71 122.41 253.86 125.87 C 243.69 132.12 233.27 138.32 224.96 147.02 C 220.34 151.50 216.94 157.00 213.14 162.13 C 209.43 170.03 206.37 178.33 204.94 186.97 C 198.63 220.27 200.49 254.39 203.09 287.97 C 203.54 292.31 203.27 296.87 205.11 300.94 C 207.84 307.13 213.24 311.68 218.99 314.98 C 237.59 325.41 259.10 329.82 276.98 341.60 C 282.77 343.32 287.56 347.07 292.37 350.58 C 307.41 360.24 320.67 372.36 333.30 384.95 C 337.17 382.35 340.84 379.45 344.12 376.12 C 337.18 373.59 330.76 369.89 324.13 366.66 C 318.81 364.00 313.17 361.41 309.23 356.80 C 303.51 350.32 302.47 341.30 302.66 333.00 C 302.72 322.62 302.58 311.03 309.35 302.47 C 314.21 296.17 322.30 294.36 329.57 292.39 C 335.08 290.56 341.09 289.75 345.97 286.41 C 350.33 283.71 349.07 277.32 353.06 274.35 C 355.20 272.25 359.23 273.98 359.15 276.98 C 360.33 284.69 359.45 294.43 352.22 299.00 C 344.61 302.83 336.09 305.54 330.04 311.83 C 324.87 317.47 323.94 325.60 324.53 332.92 C 324.89 337.81 324.12 343.43 327.44 347.51 C 329.30 350.05 332.61 347.93 334.05 346.02 C 338.26 340.49 336.57 333.10 338.48 326.80 C 339.60 322.18 341.83 316.64 347.00 315.49 C 354.26 314.34 361.64 315.42 368.94 314.84 C 368.91 302.30 367.31 289.52 370.48 277.21 C 371.91 272.06 367.73 267.85 364.41 264.55 C 360.85 261.41 356.60 257.06 351.39 258.46 C 343.83 261.82 346.31 273.41 338.44 276.44 C 333.28 277.91 329.64 272.78 324.90 271.93 C 321.45 272.49 319.11 275.48 316.24 277.23 C 311.33 280.81 304.45 282.18 298.86 279.39 C 291.58 275.73 286.26 268.80 283.78 261.11 C 278.18 243.90 279.90 224.76 287.22 208.32 C 290.08 200.53 293.63 192.99 297.82 185.82 C 299.19 183.85 299.27 181.10 297.77 179.18 C 294.99 175.26 292.18 171.32 290.20 166.92 C 285.08 156.19 285.11 143.39 289.55 132.44 C 291.61 126.92 295.54 122.35 297.46 116.77 C 294.79 114.00 291.42 111.22 290.98 107.13 C 292.28 103.65 295.81 101.86 298.19 99.19 C 306.70 90.38 314.61 79.67 315.53 67.03 C 315.72 59.32 313.99 51.09 308.84 45.13 C 303.43 39.15 294.83 36.96 287.02 37.88 C 285.75 38.14 284.10 38.01 283.31 39.25 M 342.60 145.30 C 341.06 149.09 341.30 153.56 338.64 156.87 C 335.44 161.23 329.97 162.82 325.06 164.36 C 325.68 169.70 325.79 175.42 323.21 180.31 C 318.20 189.73 313.07 199.14 306.67 207.71 C 304.29 210.82 302.74 214.47 300.99 217.96 C 296.79 226.72 297.33 237.46 302.27 245.81 C 303.86 248.71 306.63 250.98 309.86 251.78 C 318.41 253.86 327.28 253.19 335.99 253.32 C 337.75 253.16 340.07 253.62 341.25 251.94 C 342.34 242.67 341.09 233.28 341.86 223.98 C 342.37 218.74 345.93 213.82 350.93 211.99 C 357.05 209.61 363.78 211.65 370.05 210.08 C 374.93 208.96 378.92 205.69 382.66 202.54 C 386.34 197.96 389.60 192.97 391.96 187.56 C 379.73 191.25 366.42 193.51 353.91 189.86 C 347.34 188.12 344.14 179.87 346.81 173.86 C 348.34 169.73 352.90 167.51 353.94 163.15 C 353.96 158.77 352.34 154.59 351.42 150.34 C 350.42 146.53 346.05 145.41 342.60 145.30 M 86.52 176.79 C 83.87 177.39 82.12 180.32 82.88 182.94 C 86.57 206.32 90.18 229.71 93.58 253.14 C 94.36 257.74 94.99 262.55 97.42 266.63 C 100.60 271.44 108.99 272.64 112.42 267.51 C 115.22 262.81 114.22 257.01 113.58 251.87 C 108.81 228.85 104.02 205.84 98.89 182.90 C 97.94 177.46 91.35 174.89 86.52 176.79 M 575.59 177.83 C 571.39 179.72 569.10 184.16 568.31 188.50 C 563.73 212.36 559.26 236.24 554.75 260.12 C 553.84 263.90 555.39 269.47 559.95 269.75 C 565.29 269.40 569.17 264.32 570.23 259.38 C 574.61 234.33 579.31 209.32 582.84 184.13 C 583.96 180.15 579.53 175.39 575.59 177.83 M 607.03 198.02 C 604.41 218.42 601.10 238.72 597.36 258.95 C 592.96 283.40 588.56 307.89 582.51 332.00 C 581.50 336.38 579.09 340.17 576.70 343.90 C 570.21 356.91 560.84 368.37 549.80 377.78 C 540.87 385.56 530.64 391.61 520.24 397.18 C 509.83 403.03 499.41 409.06 488.09 413.01 C 483.29 414.65 478.08 415.53 473.06 414.47 C 465.91 412.94 461.86 403.25 466.35 397.30 C 472.01 390.15 480.79 386.79 488.42 382.25 C 499.23 375.76 510.28 369.69 521.01 363.07 C 530.35 357.14 540.36 351.16 546.32 341.52 C 549.47 332.39 552.87 322.94 552.42 313.12 C 552.59 310.73 550.73 307.85 548.05 308.33 C 537.62 309.20 528.93 315.49 519.86 320.05 C 506.47 326.58 493.04 333.01 479.62 339.46 C 467.94 344.81 456.67 351.06 444.74 355.83 C 426.35 364.81 408.23 374.36 390.56 384.69 C 383.36 388.80 376.87 394.08 371.21 400.12 C 359.18 412.80 351.45 428.81 345.47 445.07 C 339.61 461.11 336.08 477.96 334.64 494.97 C 332.64 493.57 332.21 491.20 331.99 488.94 C 328.93 461.21 319.92 433.90 304.45 410.57 C 296.77 398.95 285.77 389.92 273.80 382.99 C 229.93 358.01 183.19 338.68 138.39 315.49 C 133.27 312.87 128.18 309.96 122.53 308.66 C 120.26 308.36 117.42 307.75 115.67 309.65 C 113.57 311.96 114.10 315.34 114.56 318.16 C 116.06 327.49 117.90 337.38 124.15 344.83 C 130.91 352.62 139.74 358.19 148.50 363.47 C 160.82 370.88 173.31 378.01 185.75 385.22 C 191.05 388.39 196.86 391.12 200.91 395.93 C 206.18 402.05 202.78 412.98 195.02 415.13 C 189.06 416.82 182.73 415.47 177.05 413.37 C 163.21 408.25 150.71 400.28 137.81 393.25 C 119.21 382.61 102.06 368.13 91.82 349.01 C 85.88 338.20 82.44 326.22 80.45 314.11 C 73.60 274.13 69.19 233.79 64.19 193.55 C 63.49 188.71 61.50 183.42 57.03 180.88 C 53.25 179.34 49.43 182.33 47.44 185.35 C 43.10 192.44 43.97 201.08 43.58 209.03 C 42.31 232.37 41.75 255.75 39.73 279.05 C 38.17 294.94 34.57 311.16 38.30 327.02 C 40.80 338.74 47.34 348.96 51.55 360.06 C 58.68 374.32 64.74 389.10 71.51 403.55 C 77.61 416.47 83.17 429.82 91.66 441.41 C 98.74 450.80 109.81 455.59 119.89 460.98 C 163.47 483.76 209.12 502.20 253.37 523.56 C 280.40 536.92 306.41 552.41 331.03 569.80 C 333.20 571.39 335.83 570.30 337.65 568.77 C 359.72 553.16 382.89 539.06 407.20 527.21 C 417.23 522.11 427.18 516.84 437.59 512.53 C 444.15 508.82 451.18 506.09 458.02 502.95 C 478.82 493.64 499.57 484.21 520.13 474.38 C 534.24 467.55 548.46 460.88 562.06 453.05 C 571.68 447.09 578.94 437.92 583.82 427.80 C 594.46 406.93 603.49 385.30 613.33 364.05 C 620.03 349.66 627.61 335.32 630.33 319.52 C 632.73 306.09 630.57 292.48 630.41 278.98 C 630.18 263.00 629.16 247.02 629.73 231.04 C 630.12 219.36 628.94 207.70 629.00 196.02 C 628.94 191.33 628.91 186.40 626.84 182.08 C 625.14 178.63 620.26 177.11 617.07 179.46 C 610.69 183.33 607.79 190.90 607.03 198.02 M 536.17 214.19 C 532.48 216.29 530.63 220.56 529.60 224.51 C 526.85 236.60 525.74 248.98 523.54 261.18 C 522.87 265.04 522.23 268.98 522.69 272.90 C 523.07 276.50 527.42 279.50 530.82 277.75 C 535.50 275.40 538.38 270.24 538.53 265.09 C 539.39 249.42 541.33 233.79 541.24 218.07 C 541.34 215.57 538.56 213.41 536.17 214.19 M 126.09 216.13 C 123.51 217.19 122.97 220.39 123.50 222.84 C 125.88 237.88 128.04 252.96 130.37 268.01 C 131.00 272.69 134.08 277.49 138.91 278.59 C 142.54 278.42 145.09 274.39 144.03 271.00 C 140.63 255.43 137.99 239.70 136.09 223.88 C 135.69 219.24 131.00 214.11 126.09 216.13 M 161.22 245.22 C 157.95 247.22 157.26 251.58 158.06 255.07 C 160.10 266.10 161.72 277.22 164.45 288.11 C 165.57 292.54 171.93 294.28 175.26 291.26 C 177.01 289.30 176.76 286.45 176.31 284.06 C 174.72 275.89 172.72 267.81 171.28 259.61 C 170.46 255.44 169.74 251.11 167.54 247.41 C 166.29 245.39 163.46 244.04 161.22 245.22 M 501.08 246.27 C 496.54 249.28 496.53 255.62 495.35 260.43 C 492.83 269.01 491.59 277.99 491.32 286.92 C 492.67 289.14 494.26 291.74 497.00 292.34 C 500.75 292.14 503.09 288.31 503.28 284.86 C 503.78 272.88 505.21 260.94 505.51 248.94 C 506.09 246.43 503.00 245.07 501.08 246.27 Z" />
<path fill="#ffffff" opacity="1.00" d=" M 1146.80 66.00 C 1166.44 55.68 1189.26 53.05 1211.13 54.71 C 1229.40 56.26 1247.41 61.50 1263.48 70.38 C 1269.01 73.29 1272.04 79.92 1271.10 86.03 C 1269.00 100.08 1265.99 113.97 1263.29 127.91 C 1262.84 129.22 1262.82 131.54 1261.02 131.71 C 1253.23 132.08 1245.43 131.39 1237.66 131.11 C 1236.13 130.92 1233.71 130.94 1233.44 128.99 C 1231.69 116.79 1230.19 104.52 1227.27 92.54 C 1226.69 89.94 1224.74 87.89 1222.46 86.65 C 1212.95 81.30 1201.84 79.40 1191.04 79.83 C 1183.06 80.19 1175.00 81.40 1167.60 84.53 C 1164.96 85.76 1162.12 87.27 1160.79 90.00 C 1155.21 100.34 1153.74 113.07 1157.83 124.18 C 1160.83 132.40 1167.13 139.03 1174.40 143.71 C 1192.66 155.71 1213.84 161.91 1233.19 171.79 C 1245.06 177.85 1256.68 185.30 1264.79 196.09 C 1272.76 206.51 1276.02 219.95 1275.39 232.93 C 1275.03 244.03 1271.60 255.10 1264.90 264.03 C 1255.22 277.43 1240.08 285.81 1224.47 290.38 C 1205.85 295.70 1186.16 295.81 1167.01 294.03 C 1146.66 291.91 1126.31 286.41 1108.89 275.42 C 1106.09 274.05 1106.17 270.60 1106.25 267.96 C 1106.50 261.30 1105.78 254.61 1106.77 248.00 C 1107.91 240.05 1106.63 232.00 1107.41 224.03 C 1107.49 222.21 1109.65 221.97 1111.08 221.77 C 1120.05 220.97 1129.09 220.60 1138.10 221.10 C 1139.39 224.53 1139.80 228.18 1140.56 231.75 C 1142.23 239.86 1144.29 247.89 1146.60 255.85 C 1147.11 258.22 1148.65 260.33 1150.89 261.36 C 1165.65 268.85 1182.77 270.26 1199.04 268.64 C 1205.99 267.75 1213.38 266.63 1219.26 262.58 C 1225.26 255.66 1227.94 246.08 1227.70 237.00 C 1227.44 226.80 1221.20 217.58 1212.71 212.25 C 1188.24 196.68 1158.72 191.03 1134.96 174.15 C 1123.78 166.33 1114.27 155.35 1110.58 142.00 C 1106.35 126.89 1107.20 109.91 1114.84 96.01 C 1121.93 82.90 1133.77 72.90 1146.80 66.00 Z" />
<path fill="#ffffff" opacity="1.00" d=" M 965.04 56.62 C 995.28 50.94 1027.63 55.37 1054.73 70.18 C 1060.68 73.30 1064.02 80.59 1062.55 87.14 C 1060.09 99.69 1057.66 112.25 1055.34 124.83 C 1054.64 127.09 1054.96 130.13 1052.96 131.70 C 1044.30 131.77 1035.63 131.33 1027.00 130.80 C 1025.14 130.76 1024.76 128.58 1024.56 127.15 C 1023.15 115.32 1021.44 103.49 1018.57 91.93 C 1017.64 88.30 1014.00 86.65 1010.96 85.13 C 999.25 79.48 985.76 78.96 973.08 80.70 C 967.00 81.67 960.86 83.25 955.53 86.44 C 951.99 88.66 950.76 92.89 949.42 96.58 C 945.72 107.42 945.97 120.04 952.13 129.94 C 958.15 139.99 968.73 145.93 978.81 151.21 C 996.15 159.84 1014.72 165.88 1031.59 175.49 C 1040.83 180.81 1049.59 187.36 1056.11 195.89 C 1067.07 210.53 1069.69 230.52 1064.38 247.84 C 1060.68 260.44 1052.11 271.24 1041.35 278.60 C 1026.88 288.49 1009.42 293.22 992.09 294.54 C 961.62 296.52 929.68 292.42 902.84 277.05 C 900.62 275.69 897.64 274.07 897.95 271.03 C 897.72 255.96 897.95 240.88 898.69 225.83 C 898.83 224.34 898.87 222.04 900.94 222.10 C 910.45 220.86 920.19 220.45 929.75 221.27 C 932.62 233.41 934.76 245.77 938.71 257.62 C 939.73 260.33 942.56 261.53 945.02 262.63 C 960.92 269.67 978.99 270.52 995.99 267.89 C 1001.83 266.54 1008.74 265.60 1012.60 260.48 C 1018.47 251.13 1021.32 239.12 1017.50 228.45 C 1015.33 221.71 1010.28 216.29 1004.45 212.46 C 988.10 201.48 968.96 196.07 951.24 187.84 C 936.79 181.29 922.29 173.41 912.09 160.93 C 894.71 139.73 895.46 106.17 913.40 85.54 C 926.59 70.27 945.42 60.60 965.04 56.62 Z" />
<path fill="#ffffff" opacity="1.00" d=" M 1340.55 75.61 C 1356.61 62.94 1376.78 56.03 1397.09 54.64 C 1422.27 52.78 1448.12 57.56 1470.46 69.51 C 1474.61 71.43 1477.95 75.08 1479.19 79.52 C 1480.17 82.63 1479.72 85.91 1479.18 89.05 C 1476.99 102.44 1474.21 115.73 1471.53 129.03 C 1471.18 130.20 1470.69 132.11 1469.10 131.85 C 1460.13 131.58 1451.00 132.04 1442.17 130.30 C 1440.12 117.33 1438.90 104.16 1435.40 91.47 C 1434.50 88.27 1431.35 86.78 1428.63 85.43 C 1413.59 77.99 1395.88 78.77 1380.02 82.96 C 1373.78 84.44 1368.58 89.35 1366.64 95.45 C 1363.08 105.87 1362.75 117.90 1367.95 127.84 C 1372.15 136.11 1379.69 142.05 1387.53 146.69 C 1405.16 157.04 1424.89 163.00 1442.98 172.44 C 1455.77 179.07 1468.29 187.58 1475.99 200.07 C 1487.26 218.87 1486.78 244.16 1474.51 262.39 C 1467.11 273.56 1455.77 281.68 1443.45 286.65 C 1424.42 294.67 1403.32 295.90 1382.93 294.64 C 1360.37 293.19 1337.60 287.85 1318.14 275.99 C 1315.87 274.94 1314.63 272.49 1314.80 270.04 C 1315.06 262.13 1314.44 254.18 1315.47 246.31 C 1316.22 238.60 1315.00 230.81 1316.04 223.13 C 1317.18 221.71 1319.22 221.90 1320.86 221.64 C 1329.25 221.04 1337.70 220.51 1346.10 221.13 C 1346.35 221.35 1346.84 221.79 1347.08 222.01 C 1349.08 231.55 1350.94 241.15 1353.63 250.54 C 1354.82 254.50 1355.23 259.56 1359.57 261.47 C 1375.96 269.58 1395.07 270.66 1412.92 267.90 C 1419.15 266.53 1426.89 265.42 1430.26 259.24 C 1436.24 249.80 1438.26 237.46 1433.96 226.96 C 1431.24 219.97 1425.41 214.75 1419.15 210.91 C 1403.42 201.24 1385.64 195.73 1368.91 188.10 C 1354.96 181.62 1340.56 174.58 1330.49 162.57 C 1319.08 149.37 1314.25 130.96 1317.40 113.82 C 1319.94 98.75 1328.59 85.01 1340.55 75.61 Z" />
<path fill="#ffffff" opacity="1.00" d=" M 1595.99 59.87 C 1632.69 59.91 1669.44 60.16 1706.08 57.59 C 1711.01 56.92 1716.34 58.50 1719.24 62.76 C 1722.13 66.52 1723.43 71.40 1722.92 76.11 C 1721.83 91.80 1719.96 107.43 1718.54 123.09 C 1718.29 124.43 1718.19 126.52 1716.48 126.74 C 1708.17 127.80 1699.74 127.27 1691.44 126.49 C 1689.76 126.35 1689.57 124.32 1689.20 123.07 C 1686.68 111.32 1684.19 99.57 1681.74 87.81 C 1681.47 86.34 1680.61 84.55 1678.93 84.47 C 1670.68 83.55 1662.37 83.45 1654.08 83.26 C 1649.32 83.22 1644.54 82.84 1639.82 83.52 C 1639.02 94.67 1639.78 105.86 1639.50 117.04 C 1639.53 149.03 1639.31 181.03 1639.56 213.03 C 1639.53 227.00 1639.56 241.05 1641.61 254.90 C 1642.04 257.52 1642.92 260.25 1644.98 262.07 C 1652.59 267.68 1662.31 268.76 1670.70 272.67 C 1669.61 278.09 1668.79 283.61 1667.16 288.89 C 1665.92 289.65 1664.44 289.63 1663.08 289.64 C 1634.72 289.60 1606.36 289.64 1578.01 289.62 C 1573.93 289.58 1569.82 289.99 1565.81 289.19 C 1564.57 283.81 1563.12 278.46 1562.41 272.99 C 1562.88 271.49 1564.84 271.56 1566.04 270.95 C 1573.50 268.71 1580.98 266.56 1588.42 264.25 C 1589.95 263.87 1591.44 262.70 1591.50 260.99 C 1593.38 237.04 1593.64 213.00 1593.56 188.98 C 1593.73 154.98 1593.53 120.98 1593.67 86.98 C 1593.76 85.38 1593.12 82.89 1591.07 83.17 C 1579.68 83.03 1568.30 83.70 1556.93 84.23 C 1555.08 84.31 1552.49 84.77 1552.14 86.97 C 1549.12 99.62 1546.65 112.40 1543.66 125.05 C 1543.39 126.75 1541.75 127.94 1540.08 127.84 C 1531.38 127.91 1522.63 127.79 1514.00 126.58 C 1512.02 126.15 1512.04 123.61 1511.99 122.02 C 1511.56 102.02 1511.31 81.99 1512.19 62.01 C 1512.18 60.11 1514.54 59.74 1516.03 59.82 C 1542.68 59.87 1569.33 59.89 1595.99 59.87 Z" />
<path fill="#ffffff" opacity="1.00" d=" M 1830.96 59.87 C 1863.67 59.71 1896.43 59.79 1929.08 57.33 C 1930.58 57.28 1932.49 57.01 1933.60 58.39 C 1937.40 62.69 1941.66 67.95 1940.57 74.11 C 1938.37 89.89 1935.07 105.48 1932.60 121.21 C 1932.03 122.72 1932.38 125.61 1930.20 125.63 C 1922.82 125.95 1915.41 125.61 1908.06 124.96 C 1906.60 124.67 1904.15 124.80 1903.88 122.88 C 1901.30 111.26 1899.48 99.49 1897.16 87.83 C 1896.81 85.96 1894.73 85.32 1893.12 85.11 C 1873.81 82.73 1854.31 82.93 1834.90 83.54 C 1831.47 83.79 1827.95 84.31 1824.86 85.88 C 1823.37 86.61 1823.46 88.51 1823.29 89.90 C 1821.69 114.76 1821.02 139.69 1821.66 164.60 C 1844.44 163.74 1867.21 162.52 1889.99 161.58 C 1895.36 161.17 1900.00 166.92 1898.65 172.10 C 1897.55 177.93 1896.79 183.84 1895.37 189.61 C 1895.00 191.08 1893.19 191.25 1891.99 191.23 C 1868.52 190.63 1845.06 189.37 1821.58 189.17 C 1821.38 205.49 1821.23 221.82 1822.08 238.13 C 1822.53 244.94 1822.35 251.95 1824.59 258.49 C 1826.06 262.30 1830.30 263.84 1834.03 264.45 C 1855.20 267.47 1876.72 266.51 1897.92 264.23 C 1899.43 263.97 1901.70 263.84 1902.04 261.92 C 1905.12 250.02 1907.64 237.98 1910.70 226.07 C 1910.90 223.41 1913.94 223.34 1915.99 223.43 C 1924.25 223.80 1932.65 223.08 1940.78 225.02 C 1942.29 245.63 1941.79 266.38 1941.11 287.04 C 1941.32 289.23 1938.67 289.76 1937.04 289.68 C 1881.36 289.56 1825.68 289.65 1770.00 289.62 C 1763.34 289.60 1756.67 289.88 1750.03 289.51 C 1748.51 289.60 1747.23 288.38 1747.13 286.92 C 1746.21 282.15 1745.16 277.42 1744.20 272.66 C 1752.97 268.62 1762.70 267.08 1771.70 263.61 C 1774.02 262.27 1773.57 259.32 1773.83 257.06 C 1775.59 230.42 1775.41 203.72 1775.50 177.04 C 1775.63 163.37 1775.54 149.70 1775.47 136.03 C 1775.33 121.97 1775.48 107.82 1773.19 93.91 C 1772.75 90.66 1770.92 87.55 1767.99 85.96 C 1760.59 81.63 1752.04 80.00 1744.15 76.82 C 1745.32 71.67 1746.08 66.42 1747.47 61.31 C 1747.84 59.80 1749.73 59.91 1750.99 59.83 C 1777.64 59.78 1804.30 60.05 1830.96 59.87 Z" />
<path fill="#ffffff" opacity="1.00" d=" M 758.67 60.32 C 788.75 59.17 818.91 60.25 849.02 59.81 C 852.59 60.02 856.34 59.24 859.80 60.42 C 861.81 65.66 862.42 71.32 863.51 76.81 C 855.05 80.47 845.92 82.15 837.25 85.20 C 835.65 85.73 834.20 87.06 834.26 88.86 C 832.65 107.86 832.47 126.94 832.40 146.00 C 832.31 173.64 832.47 201.29 832.58 228.93 C 832.77 238.36 833.03 247.88 834.97 257.13 C 836.04 261.53 840.14 264.06 844.10 265.57 C 850.36 268.54 857.28 269.73 863.57 272.59 C 862.63 277.41 861.87 282.28 860.56 287.03 C 860.17 287.91 860.22 289.36 858.97 289.41 C 854.67 289.98 850.31 289.58 845.98 289.67 C 817.63 289.51 789.27 289.74 760.92 289.59 C 757.42 289.85 758.03 285.42 757.20 283.16 C 756.91 279.52 754.67 275.57 755.81 272.10 C 764.57 268.84 773.79 266.90 782.59 263.74 C 784.37 263.01 784.37 260.74 784.56 259.13 C 787.36 220.17 785.77 181.09 786.11 142.08 C 785.88 126.01 786.73 109.81 784.11 93.88 C 783.59 90.69 781.85 87.61 778.98 86.01 C 771.62 81.71 763.17 79.97 755.25 77.03 C 755.96 71.38 757.13 65.80 758.67 60.32 Z" />
<path fill="#ffffff" opacity="1.00" d=" M 760.88 384.67 C 764.53 384.11 768.61 383.38 772.09 384.95 C 773.99 387.09 773.31 390.31 773.51 392.95 C 773.27 406.04 773.92 419.16 773.23 432.22 C 769.13 432.50 765.02 432.53 760.92 432.27 C 760.37 428.19 760.68 424.07 760.68 419.98 C 760.69 408.21 760.41 396.44 760.88 384.67 Z" />
<path fill="#ffffff" opacity="1.00" d=" M 789.28 384.99 C 794.39 382.74 800.90 384.34 804.07 389.03 C 809.62 397.04 815.52 404.82 821.69 412.38 C 821.70 404.28 821.68 396.18 821.62 388.08 C 821.72 386.88 821.44 384.92 823.00 384.57 C 826.18 383.91 829.75 383.86 832.76 385.24 C 833.97 386.89 833.54 389.09 833.70 391.01 C 833.62 404.47 834.05 417.96 833.50 431.41 C 830.86 433.34 827.04 432.85 824.07 431.96 C 820.23 430.79 818.18 427.17 816.09 424.07 C 811.44 417.44 806.43 411.08 801.21 404.91 C 800.73 413.62 801.50 422.37 800.88 431.08 C 799.30 433.56 795.53 432.21 793.05 432.36 C 790.47 432.60 788.98 430.39 789.19 428.06 C 789.13 413.71 788.98 399.34 789.28 384.99 Z" />
<path fill="#ffffff" opacity="1.00" d=" M 855.44 386.52 C 865.28 381.19 877.65 383.13 886.90 388.84 C 885.80 392.23 885.02 396.32 882.02 398.59 C 876.38 396.94 870.95 392.99 864.73 394.35 C 862.30 394.55 861.24 398.13 863.20 399.61 C 869.25 403.56 877.17 403.49 882.88 408.11 C 889.82 413.80 888.30 426.55 880.13 430.37 C 869.07 436.04 855.40 432.92 845.91 425.56 C 847.06 422.07 848.41 418.57 850.89 415.79 C 856.94 419.36 863.62 423.89 871.02 422.23 C 874.07 421.87 874.85 417.12 872.15 415.76 C 866.07 412.46 858.66 412.22 852.99 408.06 C 846.25 402.56 847.83 390.50 855.44 386.52 Z" />
<path fill="#ffffff" opacity="1.00" d=" M 896.94 384.82 C 903.26 383.86 909.69 384.35 916.06 384.33 C 922.89 384.48 929.74 383.93 936.56 384.55 C 937.48 387.68 937.79 390.97 937.01 394.18 C 932.59 395.85 927.49 393.78 923.30 395.97 C 921.47 407.90 923.50 420.19 922.24 432.20 C 918.82 432.48 915.29 432.92 911.96 431.92 C 910.33 431.44 910.10 429.48 910.00 428.07 C 909.52 417.14 910.33 406.17 909.61 395.26 C 905.13 394.69 900.62 395.10 896.14 394.77 C 895.75 391.53 894.25 387.47 896.94 384.82 Z" />
<path fill="#ffffff" opacity="1.00" d=" M 948.90 384.77 C 952.75 383.80 956.81 384.37 960.75 384.49 C 962.08 394.22 960.84 404.14 961.31 413.95 C 960.96 419.91 962.06 426.08 960.69 431.89 C 957.61 432.99 954.15 432.61 950.99 432.06 C 948.69 431.65 948.68 428.80 948.61 426.98 C 948.47 416.00 948.62 405.01 948.55 394.03 C 948.53 390.94 948.26 387.81 948.90 384.77 Z" />
<path fill="#ffffff" opacity="1.00" d=" M 974.00 384.85 C 977.60 383.96 981.34 384.30 985.01 384.29 C 994.56 384.50 1004.11 383.93 1013.65 384.54 C 1014.14 387.71 1014.86 391.24 1013.13 394.18 C 1009.02 395.82 1004.36 393.99 1000.27 395.83 C 998.92 407.70 1000.42 419.66 999.49 431.53 C 998.07 433.06 995.77 432.35 993.95 432.58 C 991.67 432.48 988.10 432.75 987.40 429.95 C 986.39 419.67 987.22 409.31 986.98 399.00 C 986.83 397.71 987.07 396.18 986.14 395.14 C 981.83 394.70 977.49 395.11 973.18 394.77 C 972.83 391.54 971.26 387.47 974.00 384.85 Z" />
<path fill="#ffffff" opacity="1.00" d=" M 1024.71 384.45 C 1028.55 384.64 1034.08 382.56 1036.79 386.05 C 1038.36 395.55 1036.75 405.34 1037.69 414.93 C 1038.31 419.29 1042.57 422.80 1047.00 422.43 C 1051.06 422.48 1054.74 419.02 1055.07 415.00 C 1055.94 405.24 1054.70 395.39 1055.67 385.65 C 1057.85 382.98 1061.99 384.46 1064.96 384.50 C 1067.86 384.63 1068.07 387.80 1068.05 390.03 C 1068.02 398.37 1068.18 406.72 1067.95 415.07 C 1067.77 422.67 1062.48 429.98 1055.10 432.09 C 1046.19 434.87 1035.15 433.42 1028.87 425.99 C 1025.27 421.92 1024.58 416.23 1024.56 411.01 C 1024.59 402.16 1024.42 393.30 1024.71 384.45 Z" />
<path fill="#ffffff" opacity="1.00" d=" M 1079.41 384.31 C 1092.26 384.42 1105.12 384.05 1117.96 384.42 C 1119.60 384.06 1119.86 385.86 1120.28 387.02 C 1120.78 389.34 1120.36 391.72 1120.19 394.06 C 1116.29 395.60 1112.07 394.50 1108.07 395.24 C 1106.73 395.34 1106.21 396.71 1106.21 397.86 C 1105.58 408.86 1106.54 419.91 1105.79 430.91 C 1104.81 433.09 1101.89 432.38 1100.00 432.53 C 1097.81 432.36 1094.40 432.67 1093.65 430.03 C 1092.63 418.42 1093.90 406.73 1092.98 395.14 C 1088.61 394.75 1084.24 395.13 1079.88 395.07 C 1078.18 391.68 1078.95 387.89 1079.41 384.31 Z" />
<path fill="#ffffff" opacity="1.00" d=" M 1144.41 384.61 C 1152.93 382.21 1162.71 383.85 1169.54 389.62 C 1179.68 397.89 1180.83 414.44 1172.47 424.34 C 1162.71 435.77 1142.83 436.45 1132.63 425.27 C 1124.36 416.59 1123.86 401.71 1131.74 392.62 C 1135.01 388.73 1139.53 385.97 1144.41 384.61 M 1147.42 395.61 C 1141.54 397.93 1138.44 404.82 1139.57 410.87 C 1140.43 417.99 1147.85 424.04 1155.06 422.06 C 1163.55 419.99 1167.44 408.97 1163.40 401.56 C 1160.68 395.82 1153.22 393.08 1147.42 395.61 Z" />
<path fill="#ffffff" opacity="1.00" d=" M 1212.80 384.59 C 1218.16 383.99 1223.57 384.41 1228.97 384.24 C 1236.55 384.17 1244.83 385.09 1250.80 390.24 C 1262.59 399.78 1261.17 421.00 1247.95 428.61 C 1237.17 434.61 1224.43 432.15 1212.69 432.17 C 1212.58 416.31 1212.39 400.45 1212.80 384.59 M 1225.54 395.23 C 1225.16 402.49 1225.38 409.76 1225.40 417.02 C 1225.51 418.69 1225.39 420.97 1227.14 421.86 C 1231.87 422.46 1237.27 422.31 1241.20 419.26 C 1247.47 413.75 1247.44 402.39 1240.56 397.37 C 1236.26 394.17 1230.55 394.77 1225.54 395.23 Z" />
<path fill="#ffffff" opacity="1.00" d=" M 1271.84 384.43 C 1283.52 384.09 1295.21 384.35 1306.89 384.31 C 1309.43 384.00 1309.36 387.29 1309.32 389.02 C 1309.05 390.75 1309.57 393.60 1307.48 394.30 C 1299.99 395.47 1292.35 393.98 1284.84 395.05 C 1283.37 397.49 1284.34 400.60 1284.31 403.30 C 1291.24 403.46 1298.18 403.29 1305.12 403.41 C 1307.56 403.20 1306.87 406.46 1307.09 407.99 C 1306.99 409.70 1307.39 412.72 1305.07 413.05 C 1298.26 413.91 1291.37 413.07 1284.55 413.70 C 1283.93 416.27 1283.82 418.93 1284.47 421.52 C 1292.51 422.98 1300.71 421.11 1308.75 422.38 C 1311.12 424.43 1309.75 428.32 1309.44 431.04 C 1308.37 432.88 1305.72 432.19 1303.97 432.44 C 1293.20 432.31 1282.42 432.71 1271.67 432.21 C 1271.00 418.16 1271.64 404.08 1271.36 390.01 C 1271.29 388.13 1271.44 386.26 1271.84 384.43 Z" />
<path fill="#ffffff" opacity="1.00" d=" M 1352.01 386.47 C 1361.89 381.22 1374.17 383.20 1383.46 388.79 C 1382.22 392.24 1381.49 396.70 1378.03 398.63 C 1372.62 396.43 1367.08 393.10 1361.00 394.38 C 1358.41 394.82 1357.93 398.87 1360.26 400.01 C 1366.29 403.78 1374.14 403.63 1379.69 408.33 C 1384.65 412.66 1385.00 420.71 1381.48 426.04 C 1378.73 430.12 1373.82 432.09 1369.12 432.76 C 1359.73 433.97 1349.53 431.86 1342.33 425.45 C 1343.84 422.09 1345.41 418.74 1347.25 415.54 C 1352.95 419.49 1359.66 423.44 1366.88 422.40 C 1370.09 422.28 1371.56 417.89 1368.93 415.97 C 1362.52 411.97 1353.77 412.55 1348.39 406.73 C 1342.75 400.88 1344.93 390.15 1352.01 386.47 Z" />
<path fill="#ffffff" opacity="1.00" d=" M 1396.82 384.80 C 1405.12 383.71 1413.58 384.48 1421.95 384.32 C 1426.04 384.46 1430.21 383.80 1434.26 384.75 C 1434.67 387.97 1434.64 391.23 1434.31 394.47 C 1426.19 395.32 1418.00 394.04 1409.91 395.14 C 1408.49 397.16 1409.16 400.19 1409.65 402.50 C 1416.67 404.49 1424.20 402.66 1431.43 403.49 C 1432.21 405.98 1432.27 408.62 1431.86 411.19 C 1431.95 412.72 1430.13 413.19 1428.98 413.23 C 1422.49 413.75 1415.97 413.11 1409.50 413.74 C 1409.14 416.46 1409.18 419.20 1409.32 421.93 C 1417.58 422.30 1425.87 421.69 1434.13 422.22 C 1435.87 423.46 1435.19 426.05 1435.38 427.91 C 1435.31 429.50 1435.13 432.26 1432.97 432.21 C 1424.64 432.68 1416.30 432.33 1407.97 432.44 C 1404.24 432.46 1400.49 432.69 1396.80 432.10 C 1395.94 426.46 1396.71 420.73 1396.50 415.06 C 1396.68 404.98 1395.94 394.84 1396.82 384.80 Z" />
<path fill="#ffffff" opacity="1.00" d=" M 1463.81 384.85 C 1473.51 382.10 1484.62 384.18 1492.26 390.90 C 1490.06 394.01 1488.02 397.35 1484.80 399.52 C 1481.67 397.72 1478.73 395.25 1475.03 394.82 C 1468.40 393.37 1461.11 397.92 1459.63 404.55 C 1458.39 410.14 1459.97 416.86 1465.01 420.10 C 1469.66 423.32 1476.04 422.94 1480.68 419.88 C 1480.86 415.92 1480.64 411.96 1480.97 408.00 C 1484.20 407.43 1487.54 407.15 1490.73 408.19 C 1492.27 412.65 1491.46 417.42 1491.64 422.04 C 1491.47 424.07 1492.00 426.81 1490.02 428.13 C 1479.32 434.82 1463.92 435.60 1454.08 426.92 C 1446.36 420.15 1443.97 408.31 1447.88 398.91 C 1450.73 392.15 1456.80 386.92 1463.81 384.85 Z" />
<path fill="#ffffff" opacity="1.00" d=" M 1506.42 384.60 C 1509.54 383.82 1512.87 383.79 1516.04 384.40 C 1517.62 384.73 1518.04 386.61 1518.21 388.00 C 1518.90 396.96 1517.83 405.99 1518.72 414.95 C 1519.42 421.25 1527.73 424.71 1532.72 420.83 C 1535.92 418.62 1536.34 414.51 1536.34 410.95 C 1536.68 402.79 1536.03 394.60 1536.54 386.45 C 1536.78 383.78 1540.10 384.18 1542.02 384.17 C 1544.23 384.43 1547.68 383.88 1548.71 386.46 C 1549.57 392.94 1548.82 399.50 1549.12 406.01 C 1549.26 412.81 1549.55 420.45 1544.98 426.04 C 1539.89 432.56 1530.80 434.19 1523.02 433.04 C 1514.36 432.09 1506.23 424.92 1505.86 415.92 C 1505.35 405.60 1505.30 395.19 1505.89 384.88 L 1506.42 384.60 Z" />
<path fill="#ffffff" opacity="1.00" d=" M 1564.23 386.00 C 1564.27 384.17 1566.66 384.27 1567.97 384.26 C 1577.62 384.71 1587.68 383.01 1596.95 386.46 C 1605.29 390.10 1607.93 401.24 1604.39 409.12 C 1603.10 412.37 1600.17 414.42 1597.98 416.99 C 1600.26 422.51 1604.38 427.07 1607.15 432.36 C 1602.39 432.43 1597.63 432.62 1592.89 432.22 C 1590.43 428.71 1589.06 424.59 1586.65 421.08 C 1584.08 418.43 1579.98 418.69 1576.74 419.66 C 1576.46 423.57 1577.67 427.91 1575.55 431.48 C 1572.23 432.96 1568.38 432.78 1564.92 432.01 C 1563.75 430.63 1564.10 428.69 1564.02 427.03 C 1564.18 413.36 1563.70 399.66 1564.23 386.00 M 1577.42 395.06 C 1576.61 399.39 1576.05 404.06 1577.73 408.26 C 1581.47 409.48 1585.75 409.31 1589.53 408.21 C 1594.96 406.17 1595.02 397.29 1589.50 395.37 C 1585.54 394.56 1581.37 393.89 1577.42 395.06 Z" />
<path fill="#ffffff" opacity="1.00" d=" M 1620.57 384.73 C 1623.76 383.84 1627.20 383.94 1630.44 384.62 C 1632.66 385.25 1632.64 387.97 1632.77 389.86 C 1632.87 402.92 1632.77 415.97 1632.82 429.03 C 1632.82 430.30 1632.89 432.42 1631.01 432.32 C 1627.77 432.59 1624.27 432.89 1621.26 431.52 C 1619.88 430.04 1620.05 427.83 1619.95 425.97 C 1619.82 413.65 1620.01 401.34 1619.93 389.02 C 1620.21 387.72 1619.40 385.50 1620.57 384.73 Z" />
<path fill="#ffffff" opacity="1.00" d=" M 1649.59 384.67 C 1653.30 383.67 1657.21 384.60 1661.02 384.38 C 1669.34 384.33 1678.59 383.92 1685.58 389.26 C 1698.10 398.28 1697.72 420.08 1684.48 428.28 C 1673.70 434.61 1660.75 432.09 1648.90 432.15 C 1647.82 418.12 1648.84 404.05 1648.40 390.01 C 1648.47 388.24 1648.07 385.97 1649.59 384.67 M 1661.62 395.14 C 1660.62 401.38 1661.58 407.71 1661.15 414.00 C 1661.22 416.46 1660.76 419.45 1662.44 421.46 C 1666.64 422.71 1671.38 422.32 1675.39 420.55 C 1683.66 415.81 1683.84 402.22 1676.04 396.95 C 1671.81 394.03 1666.42 394.92 1661.62 395.14 Z" />
<path fill="#ffffff" opacity="1.00" d=" M 1719.58 388.88 C 1720.41 387.00 1721.39 384.23 1723.93 384.33 C 1728.26 384.05 1734.46 383.44 1736.30 388.54 C 1742.56 403.09 1748.71 417.70 1754.68 432.38 C 1750.41 432.31 1746.13 432.70 1741.90 432.21 C 1739.55 430.29 1739.43 426.84 1737.38 424.70 C 1735.02 423.79 1732.43 424.03 1729.99 424.02 C 1725.82 424.19 1721.63 423.72 1717.51 424.33 C 1716.36 426.80 1716.03 429.96 1713.65 431.60 C 1709.88 433.49 1705.55 432.35 1701.62 431.84 C 1707.02 417.28 1713.88 403.32 1719.58 388.88 M 1727.67 398.14 C 1725.59 403.44 1723.53 408.74 1721.49 414.06 C 1725.61 414.05 1729.76 414.17 1733.90 413.88 C 1731.79 408.64 1730.07 403.25 1727.67 398.14 Z" />
<path fill="#ffffff" opacity="1.00" d=" M 1765.50 384.45 C 1774.64 384.46 1783.86 383.57 1792.92 385.17 C 1801.41 386.75 1809.07 393.37 1810.94 401.94 C 1812.66 409.97 1810.87 419.01 1805.24 425.15 C 1801.62 429.14 1796.33 431.08 1791.14 431.93 C 1782.66 433.27 1774.07 432.06 1765.54 432.37 C 1765.28 416.40 1765.34 400.42 1765.50 384.45 M 1778.31 395.37 C 1778.10 402.60 1778.18 409.82 1778.22 417.05 C 1778.38 418.66 1778.10 421.27 1780.15 421.78 C 1784.86 422.49 1790.28 422.32 1794.19 419.21 C 1801.29 413.14 1799.75 399.78 1791.10 395.90 C 1787.00 394.48 1782.52 394.64 1778.31 395.37 Z" />
<path fill="#ffffff" opacity="1.00" d=" M 842.42 464.72 C 852.35 459.96 864.36 461.84 873.59 467.36 C 872.23 470.62 871.47 474.41 868.79 476.91 C 867.47 477.40 866.26 476.45 865.11 476.02 C 860.81 473.78 855.89 472.10 850.99 472.97 C 848.57 473.24 847.78 477.02 849.89 478.26 C 856.20 482.58 864.97 482.07 870.50 487.74 C 876.50 494.29 873.81 506.20 865.51 509.49 C 854.69 513.86 841.34 511.54 832.49 503.95 C 833.59 500.49 834.83 496.94 837.50 494.35 C 843.38 497.93 849.84 502.27 857.09 500.98 C 860.20 500.69 861.38 495.82 858.64 494.26 C 852.34 490.88 844.50 490.86 838.91 486.10 C 832.59 480.24 834.63 468.31 842.42 464.72 Z" />
<path fill="#ffffff" opacity="1.00" d=" M 1078.99 476.14 C 1083.63 466.63 1094.72 461.53 1105.01 462.31 C 1111.31 462.85 1117.15 466.05 1121.63 470.44 C 1119.24 473.34 1117.72 477.40 1113.94 478.81 C 1110.62 476.43 1107.43 473.16 1103.05 473.15 C 1095.92 472.46 1089.75 479.17 1089.71 486.07 C 1089.18 492.72 1094.17 499.79 1101.09 500.26 C 1106.18 500.91 1110.48 497.64 1114.58 495.14 C 1117.10 497.69 1119.58 500.30 1121.89 503.05 C 1117.67 506.71 1112.91 510.04 1107.38 511.31 C 1098.53 513.25 1088.49 510.50 1082.50 503.54 C 1076.30 496.07 1074.60 484.89 1078.99 476.14 Z" />
<path fill="#ffffff" opacity="1.00" d=" M 1179.48 462.67 C 1187.94 461.13 1197.32 463.28 1203.53 469.43 C 1212.85 478.37 1213.09 494.89 1204.01 504.09 C 1193.83 514.84 1174.47 514.44 1164.74 503.27 C 1156.24 493.91 1156.87 477.83 1166.20 469.25 C 1169.83 465.77 1174.55 463.55 1179.48 462.67 M 1181.44 473.54 C 1174.98 475.42 1171.07 482.66 1172.16 489.14 C 1172.84 495.81 1179.25 501.63 1186.09 500.71 C 1193.62 500.15 1198.92 492.00 1197.54 484.81 C 1196.70 477.45 1188.84 471.11 1181.44 473.54 Z" />
<path fill="#ffffff" opacity="1.00" d=" M 1229.85 464.78 C 1239.77 459.86 1251.76 461.92 1261.09 467.26 C 1259.69 470.62 1259.03 474.72 1255.98 477.05 C 1251.42 476.22 1247.69 472.86 1242.92 472.79 C 1240.19 472.14 1235.02 473.14 1236.39 476.99 C 1242.03 483.01 1251.81 481.44 1257.64 487.30 C 1263.05 492.88 1262.32 503.31 1255.88 507.81 C 1249.57 512.14 1241.37 512.47 1234.10 510.85 C 1229.04 509.59 1223.91 507.69 1220.11 503.98 C 1221.01 500.45 1222.36 496.97 1225.00 494.36 C 1230.96 497.97 1237.55 502.42 1244.91 500.87 C 1247.71 500.51 1248.96 496.35 1246.66 494.63 C 1240.25 490.77 1231.91 491.00 1226.21 485.81 C 1220.04 479.96 1222.22 468.34 1229.85 464.78 Z" />
<path fill="#ffffff" opacity="1.00" d=" M 1296.57 470.93 C 1299.30 465.19 1305.84 462.35 1311.93 462.15 C 1319.35 461.77 1327.32 463.08 1333.39 467.62 C 1332.20 471.10 1331.13 474.85 1328.23 477.32 C 1322.78 474.96 1317.01 471.65 1310.88 473.04 C 1308.56 473.40 1307.84 476.92 1309.79 478.19 C 1316.04 482.15 1324.16 482.21 1329.94 487.06 C 1336.14 492.81 1334.66 504.30 1327.43 508.54 C 1316.20 514.17 1301.93 511.94 1292.26 504.14 C 1293.79 500.74 1295.46 497.40 1297.22 494.11 C 1302.49 497.74 1308.37 501.22 1314.97 501.28 C 1317.08 501.24 1319.73 500.36 1320.34 498.06 C 1320.50 496.33 1319.63 494.57 1318.03 493.85 C 1312.24 490.99 1305.38 490.70 1300.00 486.96 C 1295.00 483.46 1294.24 476.20 1296.57 470.93 Z" />
<path fill="#ffffff" opacity="1.00" d=" M 1363.57 462.78 C 1372.47 460.98 1382.51 463.31 1388.83 470.08 C 1397.65 479.48 1397.18 495.88 1387.88 504.79 C 1378.28 514.08 1361.52 514.34 1351.56 505.48 C 1344.34 499.00 1341.65 488.16 1344.50 478.95 C 1347.23 470.57 1355.01 464.40 1363.57 462.78 M 1365.58 473.72 C 1360.43 475.49 1356.87 480.67 1356.62 486.06 C 1355.96 493.14 1361.55 500.73 1368.97 500.78 C 1377.10 501.38 1383.53 492.74 1382.08 485.05 C 1381.57 477.35 1373.11 470.77 1365.58 473.72 Z" />
<path fill="#ffffff" opacity="1.00" d=" M 1412.85 467.79 C 1423.35 459.39 1439.83 460.77 1449.14 470.36 C 1446.95 473.47 1444.84 476.71 1441.84 479.11 C 1438.60 477.20 1436.08 473.89 1432.16 473.36 C 1424.56 471.61 1417.21 478.51 1417.09 486.01 C 1416.70 492.55 1421.37 499.43 1428.12 500.24 C 1433.26 501.08 1437.93 498.05 1441.74 494.96 C 1444.55 497.33 1446.99 500.09 1449.30 502.97 C 1440.32 513.04 1423.29 514.96 1412.80 506.19 C 1401.23 496.96 1401.15 476.94 1412.85 467.79 Z" />
<path fill="#ffffff" opacity="1.00" d=" M 1654.01 464.22 C 1663.59 460.26 1675.44 461.75 1683.95 467.62 C 1682.80 471.00 1681.54 474.41 1679.23 477.19 C 1673.54 475.48 1668.07 471.71 1661.89 472.85 C 1659.34 473.00 1658.07 476.95 1660.45 478.28 C 1666.67 482.45 1675.10 482.09 1680.73 487.31 C 1687.23 493.74 1684.68 506.23 1676.06 509.47 C 1665.16 513.80 1651.87 511.56 1642.81 504.16 C 1644.33 500.74 1645.98 497.38 1647.76 494.09 C 1653.62 498.11 1660.67 502.40 1668.06 500.79 C 1670.93 500.23 1671.80 496.28 1669.58 494.49 C 1663.16 490.79 1654.90 490.94 1649.21 485.86 C 1642.97 479.46 1645.75 467.50 1654.01 464.22 Z" />
<path fill="#ffffff" opacity="1.00" d=" M 1914.52 462.69 C 1921.63 461.40 1929.31 462.66 1935.39 466.67 C 1940.93 470.27 1945.04 476.25 1945.86 482.87 C 1946.89 491.16 1944.03 500.10 1937.64 505.64 C 1927.77 514.23 1911.43 514.05 1901.85 505.10 C 1894.05 497.80 1892.18 485.34 1896.75 475.82 C 1900.01 468.83 1907.00 464.00 1914.52 462.69 M 1916.53 473.61 C 1909.22 475.91 1905.50 484.91 1908.09 491.91 C 1910.11 498.73 1918.44 502.75 1924.99 499.84 C 1932.44 496.75 1934.79 486.74 1931.19 479.94 C 1928.66 474.70 1922.09 471.73 1916.53 473.61 Z" />
<path fill="#ffffff" opacity="1.00" d=" M 1960.22 469.30 C 1963.82 463.83 1970.80 462.07 1977.00 462.06 C 1984.05 461.80 1990.76 464.33 1997.00 467.36 L 1997.00 467.71 C 1994.74 470.58 1993.84 474.26 1991.78 477.27 C 1985.96 475.57 1980.35 471.63 1974.05 472.92 C 1971.16 473.11 1970.77 477.58 1973.23 478.70 C 1979.09 481.97 1986.22 482.34 1991.77 486.25 C 1994.61 488.29 1995.86 491.72 1997.00 494.89 L 1997.00 498.77 C 1995.52 503.94 1991.80 508.69 1986.56 510.37 C 1975.97 513.41 1963.75 511.35 1955.42 503.91 C 1956.31 500.38 1957.91 497.06 1960.28 494.28 C 1966.22 497.91 1972.81 502.34 1980.15 500.93 C 1983.08 500.58 1984.31 495.99 1981.65 494.46 C 1975.65 490.84 1968.04 490.91 1962.37 486.63 C 1957.21 482.62 1957.01 474.59 1960.22 469.30 Z" />
<path fill="#ffffff" opacity="1.00" d=" M 755.79 463.03 C 759.86 462.91 763.94 462.82 768.02 462.99 C 772.51 469.31 775.71 476.39 779.54 483.10 C 783.14 477.38 785.70 471.08 789.36 465.39 C 790.03 464.53 790.49 463.12 791.83 463.16 C 795.64 462.53 799.52 463.10 803.37 463.04 C 798.56 472.03 793.95 481.12 788.85 489.95 C 785.36 496.10 786.34 503.40 785.82 510.06 C 782.91 511.83 779.09 511.22 775.86 510.86 C 773.49 510.62 773.37 507.78 773.38 505.97 C 773.45 501.23 773.48 496.23 771.13 491.97 C 765.92 482.37 760.58 472.84 755.79 463.03 Z" />
<path fill="#ffffff" opacity="1.00" d=" M 886.77 463.10 C 897.20 462.75 907.64 463.06 918.08 462.89 C 920.17 462.82 922.26 462.97 924.35 463.28 C 924.57 466.19 925.11 469.27 924.09 472.11 C 922.90 472.99 921.33 472.91 919.95 473.03 C 913.28 473.23 906.59 472.80 899.93 473.26 C 898.75 475.63 898.23 479.50 900.22 481.57 C 907.20 482.63 914.29 481.55 921.32 482.11 C 922.05 485.07 922.89 488.99 920.79 491.53 C 913.89 492.68 906.85 491.65 899.90 492.29 C 898.51 494.85 899.21 497.73 899.58 500.47 C 907.71 500.98 915.88 500.30 924.00 500.80 C 925.83 503.24 925.70 507.10 924.95 510.02 C 923.29 511.29 920.97 510.86 919.03 511.05 C 909.67 510.96 900.31 511.01 890.95 511.07 C 889.34 510.99 886.64 511.18 886.47 509.00 C 885.91 502.36 886.57 495.67 886.38 489.01 C 886.66 480.38 885.70 471.68 886.77 463.10 Z" />
<path fill="#ffffff" opacity="1.00" d=" M 939.20 463.17 C 946.43 462.81 953.69 462.78 960.94 462.97 C 966.48 463.24 972.66 464.08 976.67 468.34 C 980.87 473.10 981.56 480.09 980.01 486.05 C 978.98 490.06 975.58 492.73 972.86 495.60 C 975.52 501.02 979.24 505.82 982.36 510.98 C 977.62 510.99 972.88 511.21 968.16 510.87 C 965.33 507.46 964.11 503.10 961.55 499.55 C 958.95 497.17 955.07 497.82 951.84 497.72 C 951.52 501.75 952.15 505.80 951.78 509.82 C 948.27 512.63 943.31 510.93 939.24 510.73 C 938.66 502.86 939.10 494.97 939.00 487.09 C 939.08 479.11 938.70 471.13 939.20 463.17 M 951.63 473.74 C 951.56 478.33 951.70 482.92 951.83 487.51 C 956.16 487.61 960.66 488.19 964.85 486.75 C 969.60 484.69 970.04 476.86 965.46 474.38 C 961.11 472.51 956.11 472.17 951.63 473.74 Z" />
<path fill="#ffffff" opacity="1.00" d=" M 989.96 463.09 C 994.54 463.22 999.33 462.02 1003.74 463.81 C 1008.10 474.62 1011.21 485.89 1015.46 496.75 C 1018.99 486.53 1022.69 476.36 1026.17 466.12 C 1026.63 465.07 1026.86 463.74 1027.93 463.12 C 1032.04 462.65 1036.18 462.98 1040.31 463.04 C 1034.63 478.03 1028.65 492.92 1022.89 507.88 C 1021.95 511.46 1017.81 511.06 1014.93 511.35 C 1012.13 511.58 1008.57 510.95 1007.48 507.98 C 1001.40 493.11 995.71 478.09 989.96 463.09 Z" />
<path fill="#ffffff" opacity="1.00" d=" M 1051.41 463.30 C 1054.77 462.79 1058.29 462.43 1061.62 463.41 C 1064.19 464.50 1063.62 467.77 1063.79 470.02 C 1063.55 483.54 1064.28 497.06 1063.48 510.57 C 1060.02 511.44 1056.38 511.43 1052.95 510.51 C 1050.69 509.20 1051.24 506.15 1051.07 503.96 C 1051.31 490.41 1050.62 476.84 1051.41 463.30 Z" />
<path fill="#ffffff" opacity="1.00" d=" M 1133.74 463.20 C 1137.76 463.46 1144.00 460.40 1146.30 465.13 C 1145.66 480.29 1146.69 495.50 1145.68 510.64 C 1142.13 511.38 1138.31 511.52 1134.87 510.28 C 1132.93 508.45 1133.54 505.46 1133.36 503.08 C 1133.62 489.79 1132.89 476.45 1133.74 463.20 Z" />
<path fill="#ffffff" opacity="1.00" d=" M 1461.48 463.37 C 1464.78 462.62 1468.38 462.39 1471.64 463.52 C 1473.77 464.33 1473.49 467.14 1473.69 469.03 C 1473.63 482.70 1473.84 496.37 1473.55 510.04 C 1470.28 511.71 1466.50 511.47 1462.99 511.01 C 1461.01 510.23 1461.05 507.75 1460.96 506.00 C 1460.86 493.35 1461.04 480.70 1460.86 468.05 C 1460.95 466.49 1460.61 464.76 1461.48 463.37 Z" />
<path fill="#ffffff" opacity="1.00" d=" M 1504.40 464.34 C 1506.78 461.75 1510.96 463.08 1514.08 463.07 C 1518.87 463.25 1520.03 468.47 1521.73 472.00 C 1526.95 484.96 1532.81 497.67 1537.72 510.76 C 1533.56 510.92 1529.31 511.60 1525.21 510.77 C 1522.88 509.16 1522.88 505.92 1521.29 503.76 C 1519.99 502.20 1517.79 502.81 1516.06 502.69 C 1511.38 502.89 1506.70 502.55 1502.05 502.81 C 1498.67 504.23 1499.41 509.36 1496.01 510.71 C 1492.36 511.43 1488.63 510.96 1484.99 510.68 C 1487.25 502.62 1491.26 495.23 1494.36 487.49 C 1497.77 479.80 1500.69 471.89 1504.40 464.34 M 1505.84 492.02 C 1509.37 493.81 1513.32 492.74 1517.07 492.48 C 1515.30 487.13 1513.16 481.91 1511.12 476.67 C 1508.94 481.63 1506.63 486.62 1505.84 492.02 Z" />
<path fill="#ffffff" opacity="1.00" d=" M 1549.20 463.24 C 1552.62 462.77 1556.19 462.48 1559.56 463.45 C 1561.20 464.13 1561.29 466.21 1561.45 467.75 C 1561.76 477.17 1561.34 486.59 1561.56 496.01 C 1561.77 497.21 1561.05 499.74 1562.98 499.79 C 1569.10 500.27 1575.27 499.45 1581.39 500.24 C 1581.68 503.44 1582.46 506.93 1581.07 509.98 C 1578.67 511.52 1575.63 510.88 1572.96 511.07 C 1565.02 510.89 1557.06 511.35 1549.14 510.78 C 1548.44 499.54 1548.98 488.27 1548.81 477.02 C 1548.91 472.43 1548.38 467.79 1549.20 463.24 Z" />
<path fill="#ffffff" opacity="1.00" d=" M 1594.05 463.21 C 1606.52 462.67 1619.06 462.87 1631.55 463.12 C 1631.47 466.15 1633.07 469.98 1630.64 472.43 C 1622.82 473.95 1614.73 472.55 1606.82 473.23 C 1606.53 475.93 1605.59 479.16 1607.39 481.54 C 1614.44 482.74 1621.64 481.36 1628.74 482.25 C 1629.49 485.04 1629.49 488.02 1628.77 490.82 C 1627.56 492.15 1625.59 491.85 1624.02 492.04 C 1618.23 492.45 1612.39 491.42 1606.67 492.63 C 1606.70 495.12 1605.12 498.70 1607.67 500.37 C 1615.40 501.14 1623.24 500.08 1630.99 500.83 C 1633.82 503.08 1632.18 507.74 1632.10 510.95 C 1620.74 511.17 1609.37 511.02 1598.01 511.06 C 1596.06 511.24 1593.09 510.63 1593.73 508.01 C 1593.92 493.07 1593.26 478.12 1594.05 463.21 Z" />
<path fill="#ffffff" opacity="1.00" d=" M 1719.33 463.30 C 1727.89 462.80 1736.58 462.37 1745.13 463.51 C 1754.59 464.80 1763.23 472.28 1764.82 481.86 C 1766.15 490.65 1763.26 500.54 1755.97 506.05 C 1750.02 510.58 1742.19 511.11 1734.99 511.01 C 1729.71 510.85 1724.43 511.32 1719.18 510.80 C 1718.07 498.56 1719.10 486.23 1718.70 473.95 C 1718.80 470.42 1718.16 466.68 1719.33 463.30 M 1731.96 473.77 C 1731.10 477.78 1731.42 481.89 1731.54 485.97 C 1731.67 490.68 1730.85 495.48 1732.05 500.12 C 1737.49 500.78 1743.92 501.26 1748.29 497.28 C 1753.54 491.40 1753.38 480.92 1747.00 475.91 C 1742.73 472.59 1736.96 473.53 1731.96 473.77 Z" />
<path fill="#ffffff" opacity="1.00" d=" M 1777.57 465.96 C 1777.25 464.45 1778.10 462.68 1779.91 463.01 C 1791.29 462.93 1802.70 462.80 1814.09 463.09 C 1815.94 463.06 1815.70 465.73 1815.82 467.01 C 1815.64 469.06 1816.15 472.83 1813.13 472.84 C 1805.75 473.61 1798.31 472.53 1790.94 473.37 C 1789.86 476.12 1790.10 479.07 1790.85 481.88 C 1798.15 482.32 1805.46 481.57 1812.76 482.27 C 1813.24 485.31 1813.48 488.42 1812.57 491.41 C 1805.50 492.83 1798.28 491.54 1791.18 492.36 C 1789.41 494.56 1790.45 497.85 1790.65 500.46 C 1799.10 501.14 1807.61 499.98 1816.06 501.06 C 1816.65 504.15 1816.45 507.30 1816.24 510.43 C 1813.24 511.27 1810.10 511.05 1807.04 511.02 C 1798.37 510.92 1789.70 511.07 1781.03 511.09 C 1779.74 511.10 1777.49 510.67 1777.71 508.97 C 1777.49 494.64 1777.73 480.29 1777.57 465.96 Z" />
<path fill="#ffffff" opacity="1.00" d=" M 1852.41 463.33 C 1855.87 463.08 1859.43 462.00 1862.90 462.86 C 1865.92 463.94 1864.94 467.52 1864.98 469.98 C 1864.83 479.34 1864.78 488.73 1864.93 498.08 C 1864.72 499.78 1866.67 499.94 1867.87 499.90 C 1873.51 500.05 1879.18 499.59 1884.83 500.16 C 1885.51 503.67 1885.35 507.26 1884.87 510.79 C 1876.92 511.31 1868.97 511.00 1861.03 511.07 C 1858.04 511.01 1854.95 511.47 1852.15 510.29 C 1852.22 494.64 1851.72 478.98 1852.41 463.33 Z" />
<path fill="#ffffff" opacity="1.00" d=" M 1214.57 541.69 C 1222.94 539.64 1232.44 541.21 1239.09 546.89 C 1249.13 555.19 1250.32 571.83 1241.71 581.56 C 1232.21 592.73 1213.28 593.30 1202.80 583.22 C 1194.67 575.42 1193.15 561.78 1199.21 552.31 C 1202.63 546.89 1208.39 543.18 1214.57 541.69 M 1217.39 552.48 C 1210.12 555.05 1206.44 564.33 1209.74 571.25 C 1212.23 577.35 1219.76 581.20 1226.03 578.55 C 1233.96 575.58 1236.86 564.69 1232.26 557.81 C 1229.34 552.90 1222.78 550.29 1217.39 552.48 Z" />
<path fill="#ffffff" opacity="1.00" d=" M 1375.25 543.26 C 1383.71 539.24 1393.86 539.92 1402.27 543.74 C 1403.67 544.47 1405.80 545.02 1405.66 547.04 C 1405.64 550.46 1402.94 553.06 1401.58 556.02 C 1396.09 553.46 1390.25 550.44 1384.01 551.37 C 1381.79 551.77 1380.62 555.00 1382.36 556.59 C 1388.36 560.50 1396.05 560.74 1401.93 564.90 C 1409.33 570.63 1407.55 584.09 1398.99 587.80 C 1387.95 592.55 1374.30 590.30 1365.32 582.33 C 1366.86 579.21 1367.34 574.48 1370.99 573.19 C 1376.74 576.86 1383.31 581.03 1390.47 579.36 C 1393.70 578.85 1394.11 573.72 1391.11 572.59 C 1384.77 569.45 1376.96 569.38 1371.59 564.38 C 1365.35 558.50 1367.72 546.91 1375.25 543.26 Z" />
<path fill="#ffffff" opacity="1.00" d=" M 1680.37 542.49 C 1689.95 538.95 1701.09 540.63 1709.78 545.82 C 1708.74 549.46 1707.81 553.46 1704.63 555.88 C 1699.28 553.65 1693.84 550.35 1687.82 551.32 C 1684.90 551.49 1684.00 556.12 1686.80 557.24 C 1693.54 560.96 1702.52 560.90 1707.62 567.34 C 1713.33 574.26 1709.30 585.85 1700.99 588.58 C 1690.39 592.06 1677.66 590.08 1669.17 582.71 C 1669.51 579.06 1671.32 575.57 1673.86 572.94 C 1679.89 576.53 1686.55 581.02 1693.93 579.39 C 1696.88 578.95 1697.64 574.31 1695.07 572.87 C 1688.21 568.88 1678.57 569.51 1673.61 562.52 C 1668.73 555.56 1672.66 545.38 1680.37 542.49 Z" />
<path fill="#ffffff" opacity="1.00" d=" M 1899.51 541.65 C 1908.33 539.57 1918.39 541.50 1925.10 547.82 C 1933.88 555.85 1935.03 570.54 1927.97 580.03 C 1919.00 592.02 1899.09 594.36 1888.26 583.60 C 1879.17 575.34 1877.77 560.09 1885.48 550.47 C 1888.94 546.01 1894.04 542.96 1899.51 541.65 M 1903.13 552.18 C 1896.53 553.99 1892.67 561.43 1893.90 567.95 C 1894.68 575.38 1902.80 581.29 1910.08 578.90 C 1917.43 576.87 1920.87 567.86 1918.64 560.98 C 1917.01 554.48 1909.56 550.11 1903.13 552.18 Z" />
<path fill="#ffffff" opacity="1.00" d=" M 757.10 551.90 C 756.30 548.77 754.83 544.33 757.88 542.02 C 761.19 541.30 764.62 541.60 767.99 541.59 C 777.73 541.76 787.49 541.25 797.23 541.82 C 797.74 544.88 798.60 548.64 796.63 551.32 C 792.71 553.29 788.06 551.19 784.04 553.02 C 782.54 564.92 784.13 576.94 783.20 588.87 C 779.88 589.87 776.38 589.59 773.02 589.01 C 771.30 588.49 770.71 586.55 770.80 584.95 C 770.46 575.62 770.91 566.28 770.61 556.95 C 770.46 555.38 770.56 552.98 768.58 552.60 C 764.79 551.90 760.91 552.32 757.10 551.90 Z" />
<path fill="#ffffff" opacity="1.00" d=" M 810.00 542.01 C 812.55 541.06 815.34 541.67 818.00 541.63 C 826.01 542.03 834.47 540.35 842.08 543.63 C 849.91 547.10 852.76 557.30 849.81 564.94 C 848.50 568.69 845.55 571.46 842.74 574.10 C 845.74 579.27 849.10 584.21 852.17 589.34 C 847.40 589.40 842.62 589.60 837.86 589.20 C 835.29 585.57 834.05 581.11 831.17 577.72 C 828.38 575.99 824.97 576.37 821.87 576.57 C 821.86 580.67 821.96 584.77 821.71 588.87 C 818.26 589.96 814.57 589.83 811.06 589.23 C 809.06 587.85 809.20 585.18 809.12 583.05 C 809.11 570.71 809.16 558.38 809.10 546.04 C 809.20 544.67 808.68 542.96 810.00 542.01 M 823.11 552.29 C 821.05 554.68 822.04 558.13 821.87 561.00 C 822.03 562.74 821.62 565.66 823.90 566.15 C 827.45 566.54 831.09 566.28 834.55 565.36 C 839.82 563.62 840.14 555.06 835.22 552.72 C 831.37 551.26 827.06 551.38 823.11 552.29 Z" />
<path fill="#ffffff" opacity="1.00" d=" M 879.12 545.10 C 879.84 543.46 880.92 541.34 883.07 541.58 C 887.11 541.53 892.79 540.60 894.99 544.99 C 898.97 552.98 901.93 561.44 905.54 569.61 C 908.30 576.08 911.09 582.54 913.47 589.16 C 909.33 589.32 905.15 589.84 901.04 589.26 C 897.84 587.54 899.13 581.65 894.99 581.24 C 889.63 581.28 884.28 581.50 878.92 581.30 C 874.37 581.15 875.93 588.12 871.92 589.11 C 868.40 590.02 864.75 589.39 861.24 588.82 C 861.62 585.31 863.20 582.12 864.62 578.94 C 869.51 567.69 874.35 556.41 879.12 545.10 M 886.80 555.11 C 884.80 560.50 882.53 565.80 880.69 571.26 C 884.81 571.40 888.93 571.38 893.05 571.27 C 891.15 565.81 889.05 560.42 886.80 555.11 Z" />
<path fill="#ffffff" opacity="1.00" d=" M 924.70 541.74 C 933.79 541.47 942.89 541.53 951.98 541.86 C 958.42 542.17 965.44 547.05 965.24 554.06 C 965.34 558.42 961.91 561.49 958.86 564.07 C 961.03 565.93 963.74 567.32 965.20 569.89 C 968.37 575.24 966.67 582.92 961.43 586.32 C 956.99 589.55 951.22 589.28 946.00 589.42 C 938.91 589.43 931.82 589.55 924.73 589.24 C 924.39 573.42 924.52 557.57 924.70 541.74 M 937.60 560.32 C 941.68 560.80 945.88 560.83 949.88 559.83 C 952.72 558.38 952.79 553.59 949.89 552.18 C 945.84 551.13 941.62 551.70 937.50 551.72 C 937.15 554.58 936.94 557.48 937.60 560.32 M 937.52 579.37 C 942.15 580.01 947.12 580.38 951.48 578.34 C 954.63 576.83 954.00 571.40 950.64 570.58 C 946.37 569.62 941.96 569.68 937.62 569.88 C 937.17 573.03 937.19 576.21 937.52 579.37 Z" />
<path fill="#ffffff" opacity="1.00" d=" M 993.94 544.87 C 995.33 540.17 1001.16 541.52 1004.87 541.75 C 1009.26 541.84 1010.59 546.65 1012.08 549.93 C 1017.31 563.06 1023.36 575.88 1028.18 589.16 C 1024.15 589.33 1020.02 590.17 1016.07 589.05 C 1013.19 587.67 1012.94 584.02 1011.53 581.49 C 1005.16 581.16 998.76 581.21 992.40 581.44 C 989.25 582.86 990.31 587.90 986.95 589.16 C 982.99 589.90 978.94 589.25 974.96 589.32 C 981.28 574.50 987.70 559.73 993.94 544.87 M 995.41 571.24 C 999.52 571.42 1003.64 571.41 1007.77 571.25 C 1005.92 565.79 1003.75 560.45 1001.66 555.09 C 999.48 560.43 997.31 565.79 995.41 571.24 Z" />
<path fill="#ffffff" opacity="1.00" d=" M 1039.07 543.08 C 1040.03 541.31 1042.36 541.73 1044.05 541.59 C 1051.72 541.81 1059.42 541.07 1067.06 541.92 L 1067.59 542.37 C 1068.23 548.20 1067.58 554.09 1067.87 559.95 C 1067.76 565.57 1068.15 571.22 1067.57 576.82 C 1066.76 582.19 1063.29 587.50 1057.94 589.19 C 1049.62 592.03 1039.94 589.07 1034.26 582.47 C 1035.93 579.43 1037.62 576.36 1040.05 573.85 C 1043.80 575.64 1046.90 580.19 1051.58 578.72 C 1055.50 577.21 1054.77 572.30 1055.04 568.94 C 1054.69 563.49 1055.54 557.92 1054.50 552.55 C 1049.48 551.54 1044.26 552.86 1039.26 551.77 C 1037.92 549.05 1038.49 545.91 1039.07 543.08 Z" />
<path fill="#ffffff" opacity="1.00" d=" M 1096.66 542.57 C 1099.68 540.62 1103.56 541.62 1106.94 541.85 C 1109.88 542.17 1111.30 545.18 1112.39 547.57 C 1116.74 557.87 1120.96 568.22 1125.38 578.49 C 1126.85 582.02 1128.66 585.44 1129.42 589.24 C 1125.30 589.35 1121.00 590.21 1117.00 588.88 C 1114.55 587.20 1114.24 583.87 1112.83 581.44 C 1106.65 581.19 1100.46 581.19 1094.29 581.41 C 1090.57 582.22 1091.44 587.87 1087.95 589.08 C 1084.10 589.72 1080.18 589.35 1076.32 589.36 C 1081.41 577.41 1086.45 565.44 1091.68 553.55 C 1093.30 549.87 1094.46 545.96 1096.66 542.57 M 1096.72 571.20 C 1100.85 571.43 1104.99 571.43 1109.13 571.23 C 1107.24 565.80 1105.09 560.47 1103.02 555.12 C 1100.85 560.45 1098.67 565.78 1096.72 571.20 Z" />
<path fill="#ffffff" opacity="1.00" d=" M 1140.57 541.77 C 1150.05 541.75 1159.64 540.63 1169.01 542.54 C 1176.08 544.07 1182.37 549.11 1185.14 555.83 C 1189.55 566.32 1185.80 580.01 1175.85 585.94 C 1169.30 589.89 1161.34 589.59 1153.97 589.42 C 1149.55 589.21 1145.10 589.77 1140.71 589.12 C 1140.21 573.34 1140.47 557.55 1140.57 541.77 M 1153.42 552.13 C 1153.03 559.72 1153.21 567.33 1153.29 574.92 C 1153.37 576.31 1153.40 578.13 1154.89 578.81 C 1159.73 579.65 1165.41 579.74 1169.38 576.39 C 1175.13 571.05 1175.66 560.56 1169.49 555.33 C 1165.11 551.53 1158.87 551.35 1153.42 552.13 Z" />
<path fill="#ffffff" opacity="1.00" d=" M 1260.28 543.21 C 1260.44 540.91 1263.44 541.76 1264.99 541.58 C 1274.84 542.08 1285.41 539.85 1294.60 544.48 C 1301.01 547.96 1302.51 556.26 1301.32 562.90 C 1300.86 567.69 1297.04 570.99 1293.79 574.11 C 1296.46 579.44 1300.07 584.21 1303.08 589.35 C 1298.33 589.39 1293.58 589.59 1288.85 589.21 C 1286.02 585.55 1284.95 580.71 1281.44 577.58 C 1279.07 575.42 1275.70 576.24 1272.87 576.65 C 1272.76 580.42 1273.32 584.23 1272.66 587.97 C 1272.50 589.83 1270.16 589.22 1268.92 589.54 C 1266.61 589.64 1264.27 589.54 1262.04 588.97 C 1259.97 587.79 1260.29 585.06 1260.18 583.05 C 1260.24 569.77 1259.92 556.48 1260.28 543.21 M 1273.41 552.38 C 1272.57 556.84 1272.80 561.40 1273.13 565.91 C 1277.72 566.45 1282.79 566.95 1286.97 564.54 C 1290.96 561.66 1290.35 554.35 1285.65 552.54 C 1281.68 551.36 1277.39 551.18 1273.41 552.38 Z" />
<path fill="#ffffff" opacity="1.00" d=" M 1316.06 550.98 C 1316.07 547.92 1315.83 544.83 1316.54 541.83 C 1328.70 541.38 1340.90 541.56 1353.06 541.74 C 1354.41 543.56 1353.97 546.00 1353.95 548.13 C 1353.77 549.39 1353.57 551.37 1351.92 551.39 C 1344.36 552.32 1336.73 551.19 1329.16 551.99 C 1329.09 554.64 1327.51 558.16 1330.02 560.16 C 1337.03 560.89 1344.14 559.70 1351.14 560.85 C 1352.11 563.81 1351.79 566.92 1351.11 569.91 C 1343.83 571.60 1336.34 570.08 1329.00 571.05 C 1328.73 573.70 1328.74 576.37 1329.00 579.02 C 1337.31 579.75 1345.66 578.88 1353.98 579.46 C 1354.95 582.38 1355.06 585.67 1353.81 588.54 C 1351.05 589.83 1347.96 589.46 1345.03 589.40 C 1336.36 589.26 1327.69 589.52 1319.03 589.41 C 1317.67 589.62 1315.89 588.70 1316.09 587.16 C 1316.11 575.10 1316.16 563.04 1316.06 550.98 Z" />
<path fill="#ffffff" opacity="1.00" d=" M 1441.17 558.03 C 1441.26 552.61 1440.71 547.13 1441.53 541.75 C 1448.66 541.39 1455.80 541.65 1462.94 541.63 C 1470.07 541.65 1477.46 544.37 1482.10 549.95 C 1486.71 555.43 1488.07 563.01 1487.11 569.97 C 1486.06 578.19 1479.79 585.23 1472.07 587.96 C 1468.52 589.29 1464.67 589.29 1460.95 589.40 C 1454.46 589.58 1447.98 589.43 1441.51 589.31 C 1440.58 578.93 1441.44 568.45 1441.17 558.03 M 1454.06 551.89 C 1453.90 559.59 1453.86 567.30 1454.00 575.00 C 1454.08 576.40 1454.24 578.64 1456.02 578.93 C 1459.93 579.58 1464.21 579.54 1467.86 577.78 C 1476.04 573.37 1476.91 560.03 1469.25 554.69 C 1464.92 551.41 1459.19 551.72 1454.06 551.89 Z" />
<path fill="#ffffff" opacity="1.00" d=" M 1500.00 548.09 C 1500.30 546.14 1499.21 543.20 1500.99 541.92 C 1507.28 541.09 1513.66 541.74 1519.99 541.62 C 1525.91 541.71 1531.84 541.21 1537.75 541.87 C 1538.42 544.86 1538.48 547.95 1537.68 550.93 C 1529.88 552.79 1521.85 551.01 1513.99 551.94 C 1511.59 553.70 1513.12 557.49 1513.06 560.07 C 1520.41 560.96 1527.84 559.78 1535.20 560.71 C 1535.37 563.76 1536.88 567.82 1534.09 570.11 C 1527.20 571.48 1520.10 570.04 1513.17 571.11 C 1512.48 573.64 1512.64 576.27 1513.30 578.80 C 1521.30 580.03 1529.45 578.70 1537.49 579.47 C 1539.95 580.52 1538.71 583.98 1538.89 586.09 C 1539.38 588.45 1536.88 589.53 1534.95 589.35 C 1524.63 589.56 1514.32 589.24 1504.01 589.45 C 1502.41 589.49 1499.71 589.44 1500.16 587.12 C 1499.82 574.11 1500.22 561.10 1500.00 548.09 Z" />
<path fill="#ffffff" opacity="1.00" d=" M 1552.82 541.94 C 1556.72 541.80 1562.56 539.74 1564.95 544.02 C 1566.15 554.85 1565.01 565.81 1565.51 576.69 C 1565.47 578.45 1567.67 578.65 1568.99 578.60 C 1574.52 578.99 1580.19 577.67 1585.63 579.22 C 1585.78 582.70 1587.29 589.45 1581.92 589.37 C 1572.22 589.29 1562.51 589.69 1552.83 589.20 C 1552.23 578.80 1552.72 568.36 1552.56 557.95 C 1552.69 552.61 1552.19 547.26 1552.82 541.94 Z" />
<path fill="#ffffff" opacity="1.00" d=" M 1619.69 541.89 C 1631.45 541.19 1643.23 541.83 1655.00 541.56 C 1657.87 541.32 1657.62 545.03 1657.55 546.96 C 1657.25 548.34 1657.64 550.55 1656.10 551.24 C 1648.52 552.66 1640.69 550.89 1633.13 552.16 C 1631.54 554.53 1632.58 557.44 1632.92 560.03 C 1640.04 560.92 1647.22 559.93 1654.37 560.55 C 1655.92 563.67 1655.22 567.14 1654.76 570.42 C 1647.54 571.12 1640.23 570.25 1633.04 571.12 C 1632.01 573.48 1631.91 576.50 1633.06 578.84 C 1641.07 580.12 1649.33 578.45 1657.39 579.61 C 1659.10 582.42 1658.12 585.76 1657.60 588.77 C 1653.14 589.83 1648.55 589.36 1644.04 589.40 C 1635.89 589.20 1627.74 589.81 1619.62 589.17 C 1619.07 575.80 1619.55 562.41 1619.35 549.03 C 1619.25 546.64 1619.32 544.25 1619.69 541.89 Z" />
<path fill="#ffffff" opacity="1.00" d=" M 1718.94 541.69 C 1732.45 541.63 1745.97 541.24 1759.48 541.87 C 1759.93 544.96 1760.46 548.28 1759.24 551.27 C 1755.12 553.18 1750.39 551.29 1746.20 552.98 C 1744.84 564.31 1746.06 575.73 1745.56 587.10 C 1745.90 590.22 1741.95 589.35 1739.98 589.58 C 1737.64 589.47 1733.91 589.92 1733.22 586.98 C 1731.97 575.70 1733.30 564.31 1732.56 553.00 C 1728.29 551.01 1723.58 553.25 1719.20 551.86 C 1718.25 548.53 1718.58 545.07 1718.94 541.69 Z" />
<path fill="#ffffff" opacity="1.00" d=" M 1780.81 543.96 C 1782.66 540.22 1787.55 541.67 1790.89 541.71 C 1793.99 541.57 1796.10 544.29 1797.12 546.92 C 1803.10 561.01 1808.93 575.16 1814.88 589.26 C 1810.65 589.21 1806.21 590.36 1802.16 588.78 C 1799.48 587.28 1799.09 583.91 1797.92 581.36 C 1791.60 581.16 1785.26 581.16 1778.96 581.45 C 1775.65 582.75 1776.29 587.87 1772.92 589.12 C 1769.27 589.77 1765.56 589.34 1761.92 589.00 C 1764.37 580.92 1768.30 573.41 1771.47 565.62 C 1774.64 558.43 1777.47 551.08 1780.81 543.96 M 1781.74 571.25 C 1785.90 571.40 1790.08 571.39 1794.27 571.37 C 1792.17 565.95 1790.11 560.52 1788.01 555.10 C 1785.81 560.44 1783.64 565.80 1781.74 571.25 Z" />
<path fill="#ffffff" opacity="1.00" d=" M 1825.76 541.75 C 1837.64 542.03 1850.64 539.24 1861.46 545.60 C 1874.72 553.51 1875.31 574.96 1863.23 584.21 C 1857.35 589.10 1849.32 589.70 1841.99 589.50 C 1836.60 589.24 1831.20 589.62 1825.83 589.22 C 1825.38 573.41 1825.53 557.57 1825.76 541.75 M 1838.74 552.64 C 1838.03 559.32 1838.51 566.23 1838.38 572.99 C 1838.68 575.13 1837.90 578.75 1840.96 578.98 C 1845.47 579.51 1850.67 579.50 1854.32 576.39 C 1859.41 571.96 1860.11 563.84 1856.84 558.14 C 1853.50 551.94 1844.66 550.57 1838.74 552.64 Z" />
</g>
</svg>
