<?xml version="1.0" encoding="UTF-8" ?>
<!DOCTYPE svg PUBLIC "-//W3C//DTD SVG 1.1//EN" "http://www.w3.org/Graphics/SVG/1.1/DTD/svg11.dtd">
<svg width="1042pt" height="1042pt" viewBox="0 0 1042 1042" version="1.1" xmlns="http://www.w3.org/2000/svg">
<g id="#ffffffff">
<path fill="#ffffff" opacity="1.00" d=" M 463.38 130.62 C 470.16 129.15 476.91 127.09 483.94 127.47 C 493.84 127.14 504.09 129.00 512.50 134.47 C 519.14 138.69 521.96 146.68 523.25 154.08 C 523.92 162.34 523.66 170.68 523.07 178.94 C 521.40 188.06 523.79 197.72 520.33 206.52 C 516.55 212.59 510.38 216.55 505.50 221.64 C 506.02 222.87 506.55 224.10 507.08 225.33 C 517.59 226.50 528.92 223.17 538.75 228.25 C 543.36 230.36 546.07 235.05 547.22 239.82 C 549.98 251.24 555.08 261.97 557.28 273.55 C 567.07 274.49 574.32 265.28 584.07 265.97 C 591.12 266.10 597.18 272.24 598.13 279.04 C 597.81 284.46 595.02 289.43 591.68 293.60 C 586.18 300.41 580.24 306.86 574.14 313.12 C 567.96 319.49 560.78 324.71 553.73 330.04 C 558.05 334.58 562.73 339.15 564.89 345.20 C 567.26 350.78 567.53 356.92 568.01 362.89 C 568.26 379.00 567.99 395.12 568.27 411.24 C 563.04 413.26 557.36 411.03 552.07 412.63 C 548.48 413.66 544.44 414.93 542.43 418.36 C 539.65 423.61 538.70 429.72 539.23 435.61 C 545.53 433.05 551.29 429.44 557.24 426.18 C 577.00 416.06 596.98 406.33 616.50 395.74 C 621.30 392.61 626.93 390.81 631.41 387.20 C 633.51 381.54 633.19 375.37 634.33 369.50 C 635.62 358.03 636.58 346.52 637.64 335.03 C 638.87 316.68 640.99 297.86 636.21 279.81 C 634.81 273.80 631.60 268.16 626.83 264.20 C 623.32 261.19 618.75 259.81 615.22 256.82 C 606.70 250.28 603.36 239.63 598.36 230.54 C 591.14 217.07 584.47 202.49 572.24 192.74 C 568.41 189.77 562.64 187.56 558.16 190.37 C 553.39 193.98 553.25 200.71 554.12 206.10 C 555.32 213.52 557.12 221.77 563.31 226.71 C 565.04 228.42 567.31 230.26 567.14 232.96 C 567.22 235.54 566.64 238.98 563.90 240.00 C 559.54 241.10 555.51 238.41 552.02 236.17 C 542.99 230.05 536.91 220.13 534.66 209.54 C 532.72 200.57 530.55 191.24 532.58 182.09 C 534.22 175.47 536.95 168.79 542.00 164.03 C 547.57 159.20 554.05 155.23 561.20 153.26 C 565.74 152.41 570.38 151.93 575.01 152.11 C 582.25 152.32 588.27 156.89 593.96 160.88 C 603.29 168.14 611.96 176.43 618.74 186.16 C 623.31 192.34 627.27 199.07 629.46 206.48 C 631.16 211.09 631.15 216.21 633.34 220.65 C 639.50 225.80 645.67 231.04 650.75 237.29 C 653.73 241.41 656.31 245.81 658.49 250.41 C 661.95 257.48 663.21 265.37 664.19 273.11 C 664.17 281.07 664.89 289.12 663.36 296.99 C 670.33 288.46 678.62 281.15 686.23 273.22 C 696.56 264.60 705.53 254.53 715.19 245.20 C 723.38 236.62 734.73 229.89 746.95 230.67 C 754.40 230.86 761.31 234.34 766.99 238.96 C 769.84 241.34 773.64 239.67 776.87 239.22 C 781.84 238.62 787.47 238.26 791.84 241.17 C 796.26 244.49 800.09 249.07 801.30 254.58 C 803.95 269.96 801.31 285.63 803.32 301.06 C 803.74 306.91 803.32 312.78 803.58 318.64 C 804.08 327.43 803.22 336.26 804.37 345.01 C 804.97 358.65 804.27 372.33 804.90 385.98 C 804.65 393.01 804.92 400.08 803.88 407.06 C 802.77 416.79 799.77 426.18 796.22 435.26 C 791.66 446.10 785.61 456.23 780.60 466.86 C 772.83 483.05 765.93 499.64 759.64 516.45 C 757.40 522.51 756.04 529.02 752.35 534.44 C 747.96 540.82 742.56 546.69 735.85 550.68 C 727.99 555.36 719.32 558.36 710.87 561.76 C 648.74 587.97 587.31 616.73 531.00 654.09 C 527.77 656.11 524.95 659.08 521.13 659.96 C 515.88 659.82 512.28 655.46 508.06 652.94 C 463.19 623.60 415.16 599.36 365.88 578.38 C 348.57 570.85 330.98 563.80 314.54 554.44 C 305.21 548.94 296.50 541.97 290.39 532.93 C 287.79 529.17 285.95 524.97 283.99 520.86 C 270.79 492.90 258.93 464.33 247.59 435.57 C 243.21 424.04 238.68 412.37 237.27 400.04 C 237.25 392.31 237.03 384.57 237.33 376.84 C 238.60 364.30 238.95 351.69 239.96 339.13 C 241.92 309.35 245.16 279.67 247.20 249.91 C 247.50 241.59 254.04 234.53 261.93 232.50 C 267.42 230.51 273.14 232.59 278.45 234.16 C 282.00 230.28 286.13 226.50 291.40 225.25 C 300.52 223.43 310.59 224.11 318.53 229.34 C 324.85 232.85 328.80 239.09 333.29 244.53 C 347.20 260.68 361.28 276.68 375.67 292.41 C 378.92 296.16 381.98 300.12 385.76 303.38 C 386.43 288.28 387.59 273.05 391.58 258.41 C 394.07 252.30 396.88 246.24 400.78 240.88 C 410.03 228.85 423.52 221.26 436.90 214.69 C 438.18 207.34 436.05 200.06 434.09 193.05 C 430.17 180.20 431.03 165.95 436.45 153.66 C 441.52 142.58 451.47 133.61 463.38 130.62 M 480.01 161.19 C 476.84 163.19 478.29 167.52 477.28 170.57 C 474.04 180.74 465.88 188.58 456.76 193.71 C 460.07 204.38 463.49 215.64 461.44 226.90 C 459.89 232.93 453.86 235.93 449.00 238.98 C 436.25 246.38 424.25 256.39 418.07 270.09 C 410.48 287.31 408.98 306.41 408.64 325.00 C 408.66 333.64 408.35 342.31 409.34 350.91 C 410.55 361.41 409.00 372.20 411.77 382.51 C 414.46 389.54 421.04 394.08 427.43 397.51 C 436.83 402.25 446.96 405.29 456.58 409.53 C 471.80 416.01 486.37 424.29 499.00 435.06 C 506.72 441.05 514.21 447.38 520.92 454.50 C 524.02 452.76 526.86 450.58 529.30 447.99 C 519.60 443.68 509.62 439.41 501.30 432.70 C 495.68 428.15 495.71 420.50 494.85 413.98 C 493.69 407.57 495.21 401.14 496.24 394.82 C 497.30 387.15 503.17 379.97 510.96 378.51 C 517.66 376.60 524.55 375.04 530.85 371.98 C 535.04 369.39 534.82 363.62 538.16 360.26 C 539.46 360.11 540.76 359.95 542.07 359.80 C 543.53 365.48 544.03 371.58 542.22 377.25 C 541.26 380.64 538.07 382.71 535.00 384.03 C 528.22 386.98 520.69 390.06 516.56 396.55 C 514.54 400.98 512.63 405.95 513.69 410.88 C 514.41 415.06 513.48 419.63 515.58 423.50 C 516.38 424.91 518.57 425.14 519.73 424.05 C 523.15 421.46 524.21 417.00 524.43 412.93 C 524.67 407.66 525.70 402.26 528.27 397.61 C 535.49 395.29 543.22 397.17 550.55 395.43 C 552.29 387.35 551.17 379.07 551.48 370.89 C 551.60 367.52 552.87 364.29 552.81 360.90 C 550.32 355.53 545.56 351.48 540.56 348.48 C 539.45 347.95 538.13 346.81 536.90 347.68 C 532.07 350.89 531.25 356.97 528.68 361.72 C 525.85 364.31 521.31 363.57 518.29 361.67 C 516.64 360.80 514.89 359.07 512.89 360.05 C 510.28 361.19 508.40 363.44 505.95 364.86 C 499.47 368.87 490.17 367.58 485.09 361.90 C 481.56 356.87 478.27 351.36 477.40 345.17 C 476.56 339.83 475.49 334.47 475.71 329.04 C 477.24 312.66 484.52 297.61 492.25 283.32 C 488.09 277.64 484.02 271.64 482.16 264.76 C 481.15 258.56 481.18 252.17 482.07 245.97 C 483.49 239.94 486.81 234.58 490.09 229.41 C 487.94 226.35 486.10 223.08 484.58 219.66 C 491.40 212.37 498.97 205.42 502.97 196.04 C 506.54 188.89 506.78 180.34 503.53 173.03 C 500.40 163.65 489.12 159.48 480.01 161.19 M 524.59 263.65 C 522.13 266.29 518.54 267.10 515.30 268.33 C 512.91 271.50 514.98 275.88 513.65 279.46 C 511.02 287.51 505.65 294.26 501.48 301.54 C 497.44 308.65 491.45 315.39 491.36 323.99 C 491.82 328.97 492.66 334.22 495.52 338.44 C 497.78 341.91 502.22 342.75 506.05 343.24 C 512.33 343.68 518.65 343.49 524.95 343.46 C 527.56 343.88 528.45 340.93 528.59 338.89 C 528.73 331.59 528.50 324.29 528.68 316.99 C 528.70 313.19 531.54 309.78 535.08 308.62 C 541.05 306.50 547.65 308.87 553.56 306.42 C 561.35 303.47 566.69 296.37 569.92 288.96 C 563.19 289.44 556.72 291.88 549.95 291.87 C 543.60 291.45 536.72 290.59 531.88 286.03 C 531.97 282.48 531.56 278.89 532.14 275.37 C 533.90 272.93 536.18 270.93 538.34 268.86 C 538.32 264.20 537.35 259.57 535.68 255.23 C 534.17 253.06 531.31 252.71 528.93 252.22 C 528.03 256.18 527.93 260.81 524.59 263.65 M 309.61 281.68 C 309.58 286.85 311.10 291.81 311.81 296.89 C 313.10 307.92 315.45 318.80 316.64 329.84 C 318.21 337.04 318.26 344.54 320.62 351.56 C 321.47 354.29 323.65 356.62 326.40 357.49 C 328.81 358.26 331.27 356.69 332.81 354.93 C 334.80 351.71 334.06 347.68 333.79 344.11 C 331.52 330.34 328.02 316.81 325.30 303.13 C 324.05 297.09 322.95 291.02 321.30 285.08 C 320.51 281.79 317.28 280.15 314.70 278.43 C 313.00 279.51 311.31 280.60 309.61 281.68 M 720.02 297.02 C 716.46 315.00 712.77 332.98 709.83 351.05 C 709.12 353.75 711.14 356.56 713.91 356.74 C 717.69 355.47 720.53 351.89 721.13 347.97 C 724.08 334.10 725.94 320.02 728.47 306.07 C 729.33 298.02 732.05 290.16 731.68 282.01 C 730.44 280.12 727.76 281.06 725.89 280.75 C 722.08 285.32 720.60 291.22 720.02 297.02 M 278.17 287.21 C 274.45 294.26 276.06 302.43 274.96 310.01 C 273.97 318.71 275.15 327.53 273.76 336.19 C 273.16 342.86 273.81 349.59 272.77 356.22 C 272.29 368.53 270.03 380.68 269.19 392.95 C 268.86 410.25 278.97 425.05 285.47 440.39 C 293.93 458.17 301.11 476.56 310.43 493.92 C 313.28 499.07 316.62 504.02 320.94 508.06 C 325.63 512.36 331.50 514.98 337.07 517.94 C 343.21 521.04 349.06 524.75 355.45 527.37 C 368.13 532.47 379.88 539.58 392.56 544.67 C 400.26 547.70 407.41 551.98 415.15 554.95 C 420.53 556.94 425.55 559.76 430.78 562.10 C 444.70 567.74 457.89 575.01 471.28 581.77 C 478.72 586.38 486.56 590.29 493.97 594.95 C 503.40 600.75 512.55 606.98 521.66 613.26 C 547.19 594.16 575.43 579.04 604.18 565.41 C 614.29 561.33 623.84 556.01 634.00 552.03 C 639.67 549.76 644.93 546.61 650.59 544.30 C 667.13 537.31 683.16 529.21 699.23 521.22 C 707.42 517.04 716.01 513.21 722.87 506.93 C 729.33 500.57 732.93 492.10 736.97 484.16 C 746.20 465.38 753.93 445.92 763.16 427.14 C 767.22 418.46 771.38 409.62 772.89 400.08 C 773.80 395.13 774.88 390.08 774.15 385.03 C 772.59 374.38 774.39 363.56 772.68 352.92 C 771.92 337.68 773.20 322.37 772.12 307.13 C 770.58 298.68 773.34 289.55 769.23 281.59 C 766.49 281.56 763.75 281.52 761.01 281.47 C 753.20 289.65 752.40 301.53 751.41 312.18 C 749.55 323.30 747.82 334.44 745.78 345.53 C 744.49 355.25 741.91 364.74 740.63 374.46 C 736.23 393.67 734.55 414.36 723.22 431.12 C 713.33 445.86 698.97 457.15 683.28 465.18 C 672.05 471.25 661.11 478.62 648.41 481.21 C 643.32 482.19 636.73 482.31 633.50 477.47 C 630.82 474.27 631.62 469.87 631.87 466.06 C 636.24 460.79 642.32 457.46 648.25 454.24 C 655.54 450.33 662.47 445.82 669.61 441.65 C 678.85 436.50 688.46 431.55 696.05 424.03 C 700.14 419.79 703.34 414.58 704.79 408.84 C 706.24 403.03 707.81 396.91 706.15 390.96 C 702.81 391.05 699.27 390.79 696.21 392.34 C 678.12 401.32 660.15 410.58 641.71 418.81 C 624.43 427.38 606.94 435.51 589.91 444.56 C 575.48 452.28 560.19 459.78 549.70 472.80 C 541.38 483.91 534.85 496.43 530.80 509.73 C 527.26 520.65 523.49 531.75 523.32 543.36 C 522.38 543.39 520.50 543.44 519.56 543.47 C 519.70 537.33 517.49 531.52 516.71 525.51 C 513.20 511.50 508.48 497.64 501.01 485.21 C 495.10 473.95 486.46 464.01 475.60 457.29 C 465.97 451.36 455.98 446.02 445.86 440.97 C 430.00 433.14 414.33 424.92 398.12 417.84 C 380.80 409.63 363.68 401.01 346.55 392.41 C 343.68 390.97 340.40 390.91 337.26 390.96 C 336.40 392.89 334.65 394.78 335.17 397.04 C 336.04 401.42 337.02 405.78 338.19 410.08 C 340.08 417.41 345.14 423.54 351.18 427.92 C 366.49 439.05 383.40 447.65 399.58 457.39 C 402.68 459.26 406.00 460.93 408.47 463.65 C 412.64 468.02 411.97 475.72 407.67 479.75 C 402.35 482.54 395.98 482.01 390.38 480.42 C 378.18 476.83 367.48 469.75 356.46 463.64 C 349.58 460.00 343.16 455.54 336.97 450.85 C 325.11 441.06 315.83 428.10 310.64 413.61 C 306.63 400.06 304.62 386.02 302.62 372.05 C 298.85 346.05 295.85 319.95 292.75 293.85 C 292.36 288.86 289.29 284.67 285.72 281.38 C 282.77 282.61 279.50 284.07 278.17 287.21 M 691.74 313.57 C 686.89 320.44 687.39 329.22 685.58 337.08 C 684.57 345.36 682.19 353.55 682.84 361.95 C 684.59 362.64 686.54 364.97 688.45 363.44 C 691.33 361.58 693.79 358.60 694.05 355.06 C 694.99 347.04 695.32 338.96 695.70 330.90 C 696.54 324.48 696.95 317.97 696.04 311.53 C 694.56 312.09 692.57 311.99 691.74 313.57 M 344.11 316.08 C 344.15 320.04 345.02 323.94 345.63 327.85 C 347.29 336.48 348.27 345.23 349.60 353.92 C 350.16 356.57 350.67 359.37 352.20 361.68 C 354.34 364.06 357.90 362.82 360.24 361.43 C 357.18 350.47 355.72 339.15 353.85 327.95 C 353.84 322.05 352.72 315.07 346.91 312.08 C 345.93 313.37 344.70 314.54 344.11 316.08 M 660.48 342.01 C 658.89 349.02 657.48 356.06 655.93 363.07 C 655.48 367.34 654.54 372.90 658.29 376.00 C 659.27 376.89 661.31 377.58 662.18 376.18 C 666.39 371.14 665.95 364.16 666.06 358.01 C 665.94 350.79 668.68 343.43 666.10 336.35 C 663.93 337.83 661.10 339.21 660.48 342.01 M 374.54 337.56 C 372.88 342.21 373.46 347.24 374.67 351.92 C 376.39 358.52 376.62 365.41 378.47 371.97 C 378.91 374.07 380.77 375.34 382.19 376.78 C 383.89 376.02 385.59 375.22 387.25 374.35 C 386.97 368.15 384.92 362.25 383.93 356.17 C 382.75 350.85 382.28 345.25 379.82 340.31 C 378.91 338.22 376.47 337.97 374.54 337.56 Z" />
<path fill="#ffffff" opacity="1.00" d=" M 211.39 734.49 C 227.20 726.18 245.63 727.02 262.93 727.73 C 274.30 729.55 285.78 732.15 295.90 737.84 C 301.37 739.68 306.27 744.84 305.62 750.94 C 303.46 763.36 301.16 775.77 298.40 788.08 C 290.98 787.90 283.53 788.48 276.14 787.69 C 275.82 787.48 275.18 787.06 274.86 786.85 C 273.24 778.59 272.66 770.12 270.70 761.92 C 269.94 758.90 269.59 755.15 266.46 753.59 C 253.64 746.71 237.59 746.74 224.36 752.49 C 218.91 755.04 217.99 761.62 216.77 766.84 C 215.08 772.84 217.43 778.93 219.36 784.56 C 223.38 789.85 228.33 794.54 234.13 797.84 C 254.86 809.72 279.54 814.97 297.29 831.77 C 301.80 837.51 305.58 843.98 307.51 851.07 C 309.44 861.29 309.47 872.35 304.94 881.93 C 301.74 889.21 296.18 895.13 290.16 900.20 C 284.55 904.79 277.58 907.13 270.91 909.71 C 265.20 911.89 259.05 912.19 253.06 913.09 C 246.48 914.69 239.66 913.75 232.96 914.01 C 214.68 912.11 195.72 909.26 179.85 899.28 C 178.41 898.31 176.75 897.00 176.79 895.09 C 176.59 887.43 176.51 879.75 176.84 872.10 C 177.52 866.99 177.72 861.83 177.47 856.69 C 184.81 854.71 192.48 854.65 200.02 854.95 C 201.31 855.15 203.50 855.30 203.55 857.04 C 205.32 866.35 207.34 875.65 210.43 884.63 C 217.63 889.66 226.55 890.89 235.03 892.15 C 244.59 892.35 254.86 892.25 263.38 887.33 C 267.22 883.61 268.75 878.13 269.87 873.05 C 270.94 868.99 269.51 864.93 268.53 861.02 C 267.89 858.22 265.57 856.28 263.69 854.28 C 254.85 845.76 242.95 841.78 231.85 837.14 C 217.26 830.97 201.61 825.30 190.48 813.51 C 184.30 807.12 179.35 798.96 178.73 789.92 C 178.34 782.55 177.85 774.99 179.77 767.78 C 184.49 752.55 196.86 740.58 211.39 734.49 Z" />
<path fill="#ffffff" opacity="1.00" d=" M 358.46 741.28 C 368.84 733.65 381.47 729.49 394.14 727.71 C 403.07 727.24 412.05 727.19 420.97 727.76 C 432.82 729.31 444.55 732.48 455.20 737.98 C 460.06 739.99 464.21 744.56 464.13 750.07 C 463.66 755.14 462.64 760.16 461.68 765.17 C 459.56 772.71 459.33 780.64 456.71 788.07 C 448.78 787.88 440.75 788.77 432.92 787.07 C 432.94 780.69 431.48 774.45 430.46 768.19 C 429.54 763.79 429.09 759.04 427.03 755.04 C 413.25 746.13 394.44 746.17 380.30 754.23 C 376.68 758.01 376.07 763.50 375.15 768.42 C 373.50 776.04 377.77 783.16 381.02 789.75 C 383.03 789.58 384.81 790.77 384.87 792.89 C 389.22 795.28 393.17 798.34 397.63 800.56 C 413.76 808.90 431.52 814.04 446.66 824.29 C 454.92 829.83 462.24 837.72 464.64 847.62 C 470.91 864.06 466.08 883.49 453.99 895.99 C 448.95 900.91 442.65 904.28 436.25 907.09 C 426.76 911.40 416.27 912.46 406.06 913.89 C 387.23 914.72 368.12 912.08 350.48 905.32 C 345.55 903.51 341.15 900.52 336.21 898.74 C 335.55 884.62 335.75 870.48 336.19 856.36 C 344.61 854.78 353.32 854.20 361.82 855.45 C 363.70 864.52 365.54 873.63 368.38 882.46 C 369.31 885.81 372.91 887.03 375.81 888.17 C 389.78 893.05 405.51 893.93 419.51 888.67 C 423.28 887.45 424.87 883.52 426.35 880.21 C 428.98 873.73 430.06 865.81 426.27 859.56 C 422.74 852.59 415.55 848.72 408.95 845.19 C 394.19 837.99 378.15 833.43 364.16 824.67 C 351.05 818.40 340.66 806.21 337.59 791.90 C 336.07 781.59 336.45 770.56 341.10 761.06 C 343.02 756.96 346.31 753.76 348.62 749.91 C 350.85 745.94 355.45 744.50 358.46 741.28 Z" />
<path fill="#ffffff" opacity="1.00" d=" M 518.16 740.22 C 544.06 723.09 578.15 723.62 606.41 734.39 C 612.12 737.06 619.05 739.14 622.08 745.20 C 624.60 749.23 622.10 753.92 621.68 758.18 C 620.13 768.18 617.42 777.97 616.03 787.99 C 608.07 787.98 600.08 788.57 592.18 787.38 C 590.21 777.65 589.76 767.63 587.05 758.06 C 585.55 753.67 580.61 752.09 576.96 749.93 C 571.61 749.57 566.36 748.16 560.98 748.37 C 554.33 748.48 547.57 749.68 541.54 752.57 C 535.49 756.07 534.26 763.73 533.71 770.09 C 532.62 780.45 539.16 790.06 547.57 795.51 C 560.99 804.43 576.60 809.09 590.97 816.18 C 602.70 821.90 614.40 829.43 620.82 841.19 C 625.93 850.15 626.29 860.83 625.31 870.85 C 624.11 877.02 622.19 883.25 618.50 888.42 C 611.87 897.02 603.20 904.27 592.85 907.89 C 584.59 910.98 575.82 912.65 567.04 913.23 C 556.36 913.17 545.58 913.90 535.01 912.01 C 520.71 909.83 506.23 905.93 494.38 897.31 C 494.29 884.18 493.94 871.04 494.72 857.93 C 494.54 856.32 496.42 855.91 497.63 855.83 C 505.36 854.94 513.25 854.12 520.96 855.65 C 521.24 862.60 523.57 869.22 525.03 875.97 C 525.85 878.94 526.33 882.20 528.19 884.75 C 535.02 889.79 543.77 890.82 551.92 892.14 C 561.65 892.21 572.30 892.45 580.80 886.97 C 586.73 880.32 588.53 870.43 585.98 861.97 C 584.89 858.17 581.85 855.45 579.09 852.82 C 571.60 845.88 561.67 842.76 552.52 838.69 C 538.66 832.71 523.82 827.86 512.31 817.70 C 506.82 812.66 501.23 807.20 498.61 800.05 C 494.13 787.91 494.10 774.03 499.20 762.08 C 502.95 752.97 510.40 745.99 518.16 740.22 Z" />
<path fill="#ffffff" opacity="1.00" d=" M 766.05 730.82 C 778.84 730.89 791.65 730.10 804.43 730.51 C 808.28 733.71 811.67 738.67 810.79 743.93 C 809.45 757.30 808.45 770.69 806.78 784.02 C 799.25 785.53 791.59 784.46 784.04 783.87 C 781.54 773.14 779.42 762.32 776.96 751.58 C 767.29 751.65 757.63 749.84 747.96 750.81 C 746.13 751.32 746.55 753.56 746.43 754.99 C 746.45 784.64 746.43 814.28 746.44 843.93 C 746.49 853.97 746.26 864.03 747.11 874.05 C 747.65 878.10 748.03 882.40 749.91 886.08 C 755.55 891.16 763.47 891.89 770.24 894.74 C 770.57 899.65 768.79 904.30 767.66 908.99 C 741.22 909.10 714.78 909.08 688.34 909.00 C 687.46 904.17 685.89 899.47 685.65 894.55 C 693.25 891.83 701.64 890.92 708.62 886.72 C 708.99 879.81 708.51 872.87 709.64 866.03 C 710.27 827.56 709.96 789.09 710.00 750.62 C 705.34 750.74 700.68 750.41 696.03 750.64 C 690.43 751.52 684.75 751.53 679.10 751.81 C 678.11 762.71 674.16 773.07 673.07 783.96 C 667.52 785.71 661.69 784.78 655.99 784.84 C 653.12 784.84 650.29 784.33 647.49 783.77 C 647.32 774.84 646.32 765.93 646.59 756.99 C 646.34 748.54 647.44 740.12 647.47 731.68 C 679.32 731.59 711.18 731.63 743.03 731.62 C 750.71 731.54 758.43 732.02 766.05 730.82 Z" />
<path fill="#ffffff" opacity="1.00" d=" M 825.01 731.01 C 866.31 730.63 907.62 731.27 948.92 730.55 C 955.57 730.09 962.26 729.17 968.93 729.71 C 974.81 733.21 977.08 741.17 974.66 747.53 C 972.86 759.34 969.91 771.02 969.08 782.97 C 961.30 784.80 953.39 782.84 945.56 782.76 C 943.38 772.89 942.23 762.81 939.74 753.01 C 935.21 751.27 930.29 751.94 925.59 751.19 C 918.45 750.19 911.24 750.81 904.08 750.69 C 898.32 750.76 892.19 750.16 886.90 752.86 C 884.63 754.47 884.95 757.53 884.88 759.98 C 885.21 767.34 883.38 774.59 883.95 781.97 C 884.68 791.66 881.30 801.41 884.00 810.99 C 902.33 812.35 920.59 809.05 938.95 809.80 C 941.24 811.46 943.87 813.79 943.36 816.95 C 942.44 822.38 941.79 827.89 940.21 833.19 C 935.61 834.62 930.73 833.67 926.02 833.52 C 913.05 832.29 899.97 833.64 887.06 832.00 C 886.33 832.02 884.89 832.06 884.17 832.09 C 881.37 842.88 884.51 854.07 883.94 865.03 C 883.75 870.08 884.61 875.07 885.17 880.07 C 885.45 882.35 886.04 884.66 887.34 886.61 C 893.77 889.73 901.07 888.73 907.90 890.06 C 913.88 889.92 919.94 890.55 925.85 889.37 C 931.87 888.66 938.46 890.26 943.91 886.82 C 946.40 877.34 948.03 867.61 951.10 858.29 C 951.37 858.00 951.93 857.43 952.21 857.15 C 960.03 856.44 967.90 857.25 975.71 857.90 C 975.76 874.98 975.95 892.05 975.72 909.12 C 925.41 909.05 875.10 909.34 824.79 908.99 C 824.17 903.90 823.01 898.85 823.31 893.69 C 830.73 892.17 837.89 889.67 845.18 887.64 C 845.11 881.39 846.30 875.22 846.29 868.98 C 846.54 843.97 846.65 818.95 846.50 793.94 C 846.36 781.97 846.89 769.90 844.75 758.07 C 844.00 755.19 841.59 753.21 838.96 752.11 C 834.06 749.59 828.76 747.94 823.38 746.85 C 822.95 741.50 824.17 736.25 825.01 731.01 Z" />
<path fill="#ffffff" opacity="1.00" d=" M 69.30 731.45 C 71.54 731.14 73.78 730.86 76.04 730.87 C 99.06 730.89 122.07 730.85 145.08 730.89 C 146.55 730.80 147.88 731.47 149.18 732.03 C 150.23 736.74 151.27 741.54 150.69 746.39 C 143.51 748.85 136.23 750.99 128.92 753.01 C 128.86 759.33 128.30 765.63 127.89 771.93 C 127.41 799.28 127.71 826.64 127.62 854.00 C 127.76 863.17 127.45 872.45 129.27 881.50 C 129.74 884.23 131.34 886.87 133.91 888.09 C 139.30 890.64 144.97 892.71 150.87 893.70 C 151.04 898.87 150.24 903.99 149.33 909.06 C 122.61 909.22 95.89 909.10 69.17 909.12 C 67.83 904.28 66.92 899.31 66.82 894.28 C 72.83 892.56 78.83 890.78 84.80 888.91 C 86.30 888.29 88.47 887.78 88.81 885.92 C 90.78 872.36 89.91 858.60 90.30 844.95 C 91.74 832.66 90.81 820.29 91.13 807.96 C 91.28 803.94 90.45 799.98 90.24 795.99 C 89.85 783.14 91.28 770.08 88.41 757.42 C 87.90 754.60 85.23 753.01 82.83 751.94 C 77.76 749.75 72.50 747.89 67.03 746.99 C 66.66 741.69 67.91 736.51 69.30 731.45 Z" />
</g>
</svg>
