<?xml version="1.0" encoding="UTF-8" ?>
<!DOCTYPE svg PUBLIC "-//W3C//DTD SVG 1.1//EN" "http://www.w3.org/Graphics/SVG/1.1/DTD/svg11.dtd">
<svg width="1042pt" height="1042pt" viewBox="0 0 1042 1042" version="1.1" xmlns="http://www.w3.org/2000/svg">
<g id="#919191ff">
<path fill="#919191" opacity="1.00" d=" M 474.12 128.20 C 486.90 126.50 500.81 127.14 512.03 134.16 C 519.21 138.51 522.25 147.12 523.35 155.03 C 523.84 163.01 523.69 171.04 523.05 179.00 C 521.75 186.68 523.04 194.53 521.61 202.19 C 521.19 204.31 520.64 206.49 519.24 208.20 C 515.31 213.30 509.98 217.05 505.50 221.62 C 506.01 222.85 506.53 224.08 507.04 225.31 C 517.57 226.52 528.91 223.16 538.76 228.26 C 543.36 230.36 546.05 235.04 547.21 239.78 C 549.96 251.21 555.10 261.95 557.25 273.54 C 567.06 274.51 574.32 265.28 584.07 265.97 C 592.58 266.09 600.72 275.67 597.13 284.00 C 595.12 290.35 590.34 295.20 586.15 300.18 C 579.21 307.89 572.29 315.73 564.07 322.12 C 560.67 324.79 557.24 327.43 553.77 330.00 C 557.79 334.44 562.35 338.69 564.57 344.40 C 567.30 350.54 567.64 357.37 568.05 363.98 C 568.23 379.74 568.00 395.51 568.28 411.27 C 562.90 413.20 557.11 411.02 551.71 412.72 C 548.23 413.75 544.33 415.05 542.42 418.39 C 539.63 423.56 538.83 429.57 539.15 435.38 C 543.24 434.03 547.05 432.01 550.75 429.83 C 560.34 424.13 570.61 419.73 580.41 414.42 C 597.59 405.74 614.80 397.07 631.45 387.42 C 633.39 381.15 633.40 374.52 634.51 368.10 C 636.04 352.76 637.59 337.42 638.55 322.03 C 639.55 306.95 639.92 291.43 635.35 276.85 C 633.02 269.54 627.50 263.40 620.52 260.23 C 614.58 257.15 609.59 252.27 606.46 246.35 C 598.34 231.33 591.66 215.34 581.19 201.72 C 576.36 196.16 570.88 189.57 562.97 189.06 C 557.10 188.62 553.71 194.87 553.74 200.00 C 553.74 207.29 555.33 214.68 558.62 221.20 C 560.50 225.17 564.90 227.13 566.86 231.02 C 567.51 233.97 567.22 237.70 564.66 239.69 C 561.65 241.03 558.27 239.83 555.57 238.33 C 544.87 232.66 537.41 221.86 534.80 210.14 C 532.81 201.01 530.53 191.51 532.56 182.18 C 534.08 175.93 536.60 169.71 541.05 164.96 C 549.08 157.36 559.66 151.99 570.92 152.11 C 580.71 150.89 589.01 157.08 596.31 162.70 C 604.28 169.31 611.90 176.51 617.89 185.00 C 622.82 191.55 627.18 198.67 629.50 206.60 C 631.17 211.17 631.14 216.29 633.39 220.65 C 636.86 223.83 640.70 226.62 643.99 230.03 C 656.69 241.72 663.80 258.83 664.26 275.98 C 664.20 282.98 664.77 290.05 663.35 296.96 C 669.72 289.17 677.26 282.47 684.22 275.22 C 687.62 271.60 691.70 268.73 695.20 265.21 C 702.89 257.57 710.44 249.77 718.25 242.24 C 726.00 235.15 736.24 229.97 746.97 230.67 C 754.15 230.89 760.89 234.08 766.41 238.53 C 770.93 242.34 776.84 238.14 782.01 238.82 C 791.14 237.91 798.65 245.67 801.11 253.83 C 804.12 269.70 801.23 285.95 803.37 301.90 C 803.56 313.92 803.75 325.94 803.80 337.97 C 805.18 351.60 804.36 365.31 804.69 378.99 C 805.18 394.42 804.92 410.22 799.88 425.00 C 795.39 440.27 786.68 453.73 780.03 468.07 C 772.58 483.67 765.95 499.65 759.87 515.83 C 757.50 522.09 756.16 528.86 752.33 534.47 C 747.92 540.88 742.49 546.75 735.74 550.74 C 727.49 555.64 718.35 558.69 709.51 562.32 C 645.28 589.53 581.67 619.38 523.96 658.89 C 518.49 662.11 513.53 656.47 509.24 653.75 C 464.42 624.24 416.35 599.92 367.04 578.89 C 349.16 571.05 330.91 563.86 313.96 554.09 C 302.71 547.40 292.33 538.34 286.61 526.36 C 276.78 505.91 267.73 485.10 259.08 464.13 C 252.43 447.52 245.22 431.08 240.04 413.93 C 238.63 408.05 236.95 402.11 237.20 396.00 C 237.37 388.36 236.79 380.69 237.67 373.08 C 238.23 368.42 238.35 363.73 238.65 359.05 C 240.55 327.71 243.27 296.42 246.16 265.15 C 246.71 258.70 246.46 252.14 247.92 245.79 C 249.85 238.45 256.77 233.32 264.02 231.97 C 268.98 230.89 273.81 232.97 278.56 234.10 C 281.95 230.30 285.98 226.67 291.04 225.35 C 300.50 223.30 311.03 224.16 319.20 229.74 C 325.44 233.46 329.27 239.83 333.88 245.23 C 347.62 261.14 361.51 276.93 375.69 292.44 C 378.94 296.19 381.99 300.13 385.77 303.37 C 386.40 288.51 387.58 273.54 391.37 259.10 C 393.69 252.91 396.61 246.88 400.38 241.43 C 409.60 229.09 423.32 221.35 436.91 214.70 C 438.55 205.17 434.53 196.09 432.56 186.96 C 430.54 175.05 431.95 162.42 437.47 151.60 C 441.73 143.49 448.61 136.70 456.97 132.88 C 462.39 130.36 468.38 129.64 474.12 128.20 M 480.06 161.19 C 476.88 163.11 478.27 167.45 477.30 170.47 C 474.12 180.73 465.85 188.53 456.75 193.76 C 460.10 204.40 463.48 215.66 461.44 226.90 C 459.80 233.16 453.45 236.14 448.43 239.33 C 435.27 247.00 422.99 257.66 417.21 272.10 C 408.76 292.93 408.52 315.85 408.63 337.99 C 408.51 346.03 410.00 353.98 409.90 362.02 C 410.01 368.87 409.95 375.86 411.77 382.52 C 414.81 390.26 422.31 394.98 429.44 398.52 C 439.19 403.02 449.48 406.25 459.26 410.70 C 473.53 416.99 487.14 424.95 499.04 435.08 C 506.74 441.08 514.23 447.40 520.94 454.52 C 523.79 452.77 526.63 450.90 528.91 448.41 C 528.83 448.24 528.66 447.90 528.58 447.73 C 522.42 444.92 516.19 442.20 510.33 438.78 C 505.80 436.13 500.91 433.46 498.09 428.84 C 495.42 424.36 495.70 418.92 494.84 413.94 C 493.68 407.20 495.32 400.45 496.43 393.83 C 497.75 386.87 503.04 380.38 510.09 378.74 C 517.12 376.72 524.39 375.17 530.98 371.90 C 534.99 369.22 534.93 363.64 538.14 360.25 C 539.45 360.10 540.76 359.95 542.09 359.81 C 543.59 365.96 544.19 372.72 541.64 378.68 C 539.15 383.23 533.66 384.31 529.39 386.49 C 524.17 389.19 518.44 392.26 515.90 397.87 C 514.29 402.01 512.69 406.47 513.68 410.97 C 514.38 415.10 513.51 419.62 515.56 423.45 C 516.35 424.96 518.66 425.14 519.81 423.98 C 523.18 421.38 524.20 416.97 524.42 412.93 C 524.63 408.08 525.60 403.23 527.60 398.79 C 528.07 397.00 530.16 397.19 531.59 396.79 C 537.88 395.87 544.30 396.81 550.55 395.45 C 552.88 385.10 550.01 374.38 552.54 364.07 C 553.85 360.26 550.72 357.26 548.45 354.67 C 545.44 351.66 542.02 348.78 537.97 347.35 C 532.68 349.45 531.48 355.83 529.34 360.51 C 528.30 363.38 524.59 363.68 522.02 363.17 C 519.02 362.82 516.94 360.05 513.98 359.78 C 511.19 360.31 509.31 362.66 507.03 364.14 C 501.48 368.28 493.41 368.08 487.76 364.25 C 484.44 362.12 482.79 358.36 480.84 355.09 C 476.81 347.76 476.39 339.11 475.68 330.96 C 476.48 313.80 484.40 298.14 492.23 283.21 C 487.16 276.33 481.86 268.73 481.57 259.88 C 481.34 254.99 481.27 250.04 482.23 245.22 C 483.81 239.55 486.83 234.41 490.07 229.55 C 488.05 226.39 486.17 223.15 484.55 219.77 C 488.61 214.79 493.79 210.81 497.39 205.45 C 502.67 198.13 507.18 189.17 505.53 179.89 C 504.45 174.92 502.86 169.64 499.01 166.09 C 493.77 161.91 486.68 159.86 480.06 161.19 M 525.14 263.08 C 522.65 266.08 518.79 267.02 515.32 268.35 C 512.87 271.70 515.05 276.35 513.47 280.09 C 510.48 288.29 505.03 295.28 500.71 302.80 C 496.43 310.05 490.17 317.49 491.58 326.51 C 492.53 332.53 494.16 340.50 501.05 342.23 C 508.82 344.33 517.01 343.28 524.97 343.45 C 527.57 343.87 528.45 340.93 528.58 338.89 C 528.77 331.60 528.47 324.30 528.69 317.02 C 528.69 313.11 531.66 309.66 535.31 308.54 C 541.17 306.60 547.58 308.79 553.37 306.49 C 561.27 303.60 566.65 296.42 569.94 288.96 C 563.53 289.44 557.38 291.60 550.96 291.87 C 544.30 291.64 537.07 290.75 531.91 286.10 C 532.00 282.50 531.45 278.80 532.25 275.26 C 533.94 272.86 536.19 270.93 538.32 268.93 C 538.33 264.56 537.48 260.22 536.02 256.11 C 535.14 253.23 531.63 253.00 529.30 251.98 C 527.78 255.64 528.19 260.16 525.14 263.08 M 309.56 281.74 C 309.69 286.88 311.06 291.86 311.81 296.91 C 313.12 307.94 315.43 318.81 316.65 329.84 C 318.27 337.28 318.23 345.09 320.90 352.29 C 322.25 355.94 326.99 359.36 330.69 356.72 C 334.97 354.49 334.20 348.93 333.88 344.93 C 332.15 333.47 329.31 322.22 326.93 310.90 C 325.04 302.39 323.63 293.77 321.39 285.35 C 320.66 281.95 317.40 280.25 314.81 278.40 C 313.04 279.49 311.29 280.60 309.56 281.74 M 720.01 297.00 C 716.48 314.99 712.76 332.96 709.83 351.05 C 709.13 353.69 711.11 356.61 713.87 356.69 C 718.01 355.50 720.75 351.35 721.30 347.20 C 724.13 333.57 726.01 319.77 728.46 306.07 C 729.33 298.04 732.05 290.19 731.67 282.05 C 730.52 280.10 727.71 281.09 725.87 280.73 C 722.12 285.34 720.60 291.20 720.01 297.00 M 278.53 286.56 C 274.72 293.04 275.85 300.81 275.16 307.98 C 273.91 317.92 275.14 328.00 273.63 337.92 C 273.46 352.27 272.19 366.59 270.38 380.83 C 269.72 386.89 268.66 393.00 269.49 399.09 C 270.72 409.46 275.31 418.99 279.82 428.27 C 289.85 448.79 298.25 470.07 308.57 490.45 C 312.81 498.67 317.98 506.96 326.04 511.92 C 331.92 515.55 338.25 518.36 344.25 521.78 C 352.90 526.84 362.49 529.95 371.31 534.69 C 384.20 541.49 397.85 546.62 410.86 553.16 C 419.67 556.44 427.88 561.07 436.61 564.54 C 466.39 578.18 494.95 594.42 521.76 613.25 C 535.92 602.51 551.10 593.16 566.63 584.54 C 581.90 576.18 597.43 568.22 613.44 561.36 C 621.58 557.38 629.86 553.67 638.23 550.17 C 647.66 545.27 657.60 541.47 667.18 536.89 C 680.87 530.45 694.41 523.67 707.90 516.84 C 714.62 513.24 721.56 509.35 726.21 503.14 C 730.63 497.55 733.49 490.97 736.72 484.68 C 746.05 465.75 753.84 446.11 763.15 427.17 C 767.23 418.47 771.37 409.61 772.90 400.05 C 773.81 395.13 774.85 390.11 774.15 385.10 C 772.60 374.30 774.39 363.33 772.65 352.55 C 771.87 335.69 773.52 318.73 771.62 301.91 C 771.43 295.10 772.48 287.88 769.23 281.58 C 766.48 281.57 763.73 281.53 760.98 281.47 C 753.50 289.41 752.41 300.79 751.53 311.13 C 748.08 333.50 744.03 355.78 739.87 378.02 C 736.68 392.66 734.83 407.81 728.55 421.56 C 721.82 436.16 710.13 447.97 697.03 457.02 C 690.28 461.81 682.74 465.27 675.63 469.47 C 666.61 474.47 657.38 479.79 647.05 481.43 C 642.32 482.20 636.41 481.88 633.50 477.47 C 630.83 474.24 631.62 469.84 631.87 466.01 C 636.14 461.02 641.86 457.68 647.58 454.61 C 655.36 450.47 662.74 445.64 670.36 441.21 C 680.34 435.65 690.93 430.28 698.39 421.37 C 703.69 415.15 705.69 406.98 706.75 399.06 C 707.12 396.34 706.71 393.61 706.17 390.94 C 702.86 391.07 699.35 390.79 696.30 392.30 C 678.17 401.27 660.19 410.57 641.72 418.81 C 623.01 428.08 604.06 436.86 585.69 446.81 C 572.62 453.71 559.20 461.05 549.75 472.74 C 540.89 484.47 534.22 497.84 530.08 511.94 C 526.75 522.13 523.49 532.54 523.32 543.36 C 522.38 543.38 520.52 543.44 519.59 543.46 C 519.55 539.93 519.02 536.44 518.15 533.04 C 515.02 515.78 509.26 498.85 500.20 483.77 C 494.08 472.44 484.95 462.71 473.82 456.18 C 453.22 443.88 431.37 433.87 409.92 423.18 C 388.48 413.65 367.59 402.91 346.60 392.44 C 343.70 390.95 340.38 390.93 337.20 390.97 C 336.42 392.59 335.37 394.15 335.06 395.96 C 335.75 400.72 336.99 405.40 338.18 410.06 C 340.06 417.35 345.08 423.48 351.09 427.85 C 366.43 439.02 383.39 447.64 399.62 457.41 C 403.46 459.74 407.86 461.85 410.11 465.97 C 412.30 470.41 411.30 476.35 407.67 479.74 C 403.39 482.06 398.25 482.05 393.57 481.19 C 383.89 479.08 375.10 474.24 366.56 469.40 C 358.82 464.79 350.68 460.85 343.38 455.52 C 330.82 447.24 320.74 435.37 314.13 421.89 C 309.00 411.85 307.38 400.56 305.29 389.62 C 300.21 357.83 296.56 325.86 292.75 293.90 C 292.30 288.84 289.31 284.35 285.34 281.31 C 282.90 282.77 279.90 283.86 278.53 286.56 M 691.68 313.66 C 687.01 320.33 687.38 328.84 685.69 336.49 C 684.60 344.96 682.25 353.35 682.82 361.97 C 684.18 362.71 685.52 363.52 686.99 364.06 C 690.72 362.64 693.72 358.99 694.06 354.95 C 695.07 346.72 695.26 338.42 695.79 330.16 C 696.61 323.98 696.88 317.70 696.05 311.51 C 694.54 312.09 692.52 312.04 691.68 313.66 M 344.16 317.87 C 345.03 326.00 346.97 333.98 347.90 342.10 C 349.08 348.46 348.97 355.21 351.83 361.13 C 353.60 364.15 357.43 362.73 360.05 361.88 C 357.58 350.31 355.33 338.68 353.79 326.95 C 353.81 321.30 352.31 314.90 346.90 312.04 C 345.68 313.79 343.54 315.47 344.16 317.87 M 660.48 342.03 C 658.99 348.01 658.04 354.11 656.52 360.08 C 655.52 364.53 654.89 369.34 656.40 373.74 C 657.40 375.47 659.52 377.73 661.68 376.67 C 666.21 372.02 665.96 365.00 666.05 358.97 C 665.77 351.40 668.77 343.72 666.08 336.31 C 663.94 337.86 661.10 339.22 660.48 342.03 M 374.59 351.60 C 376.36 358.29 376.60 365.27 378.46 371.94 C 378.94 373.99 380.73 375.30 382.07 376.80 C 383.84 376.03 385.58 375.21 387.29 374.31 C 386.97 368.80 385.32 363.52 384.31 358.14 C 382.94 352.13 382.53 345.78 379.75 340.21 C 378.83 338.21 376.42 338.06 374.60 337.46 C 372.90 342.02 373.41 346.98 374.59 351.60 Z" />
<path fill="#919191" opacity="1.00" d=" M 298.94 739.28 C 303.33 741.71 306.54 746.79 305.48 751.91 C 303.36 763.95 301.01 775.95 298.53 787.93 C 291.09 788.06 283.60 788.42 276.18 787.68 C 275.86 787.47 275.22 787.05 274.90 786.84 C 272.77 776.63 272.52 765.93 268.97 756.04 C 265.57 751.72 259.53 750.61 254.47 749.28 C 243.44 747.25 231.36 748.31 221.57 754.11 C 222.30 753.02 222.81 751.62 224.15 751.16 C 236.21 745.61 250.56 745.31 262.89 750.21 C 266.34 751.65 270.23 753.69 271.19 757.64 C 273.56 766.95 274.30 776.57 276.15 785.98 C 283.34 786.49 290.56 786.47 297.76 786.10 C 299.56 775.33 301.90 764.66 303.86 753.92 C 304.17 751.50 304.73 748.80 303.46 746.56 C 302.02 744.09 300.27 741.82 298.94 739.28 Z" />
<path fill="#919191" opacity="1.00" d=" M 458.40 739.77 C 462.34 742.42 464.87 747.28 463.95 752.06 C 462.96 757.96 462.33 763.97 460.41 769.67 C 459.76 762.68 462.70 755.98 462.20 749.01 C 461.65 745.69 459.83 742.76 458.40 739.77 Z" />
<path fill="#919191" opacity="1.00" d=" M 695.83 749.74 C 700.84 749.87 705.83 749.12 710.84 749.26 C 711.31 766.84 711.23 784.42 710.94 802.00 C 711.06 815.32 711.27 828.65 710.98 841.97 C 710.70 849.18 711.89 856.57 709.91 863.63 C 709.94 825.97 710.11 788.29 710.00 750.62 C 705.09 750.73 700.19 750.41 695.30 750.68 C 695.43 750.44 695.70 749.97 695.83 749.74 Z" />
<path fill="#919191" opacity="1.00" d=" M 580.70 751.79 C 583.68 751.82 586.79 753.09 587.79 756.15 C 591.22 765.69 591.38 775.98 593.27 785.87 C 599.77 786.60 606.35 786.94 612.89 786.49 C 614.42 786.62 614.46 784.94 614.80 783.89 C 615.53 780.56 615.91 776.97 618.35 774.35 C 617.63 778.90 616.55 783.40 616.02 787.98 C 608.09 787.73 599.77 789.08 592.10 786.99 C 590.17 777.37 589.75 767.45 587.02 757.98 C 586.17 754.89 583.07 753.52 580.70 751.79 Z" />
<path fill="#919191" opacity="1.00" d=" M 216.25 762.14 C 217.13 759.58 217.61 756.07 220.60 755.17 C 218.22 759.72 217.03 764.77 216.25 769.82 C 215.67 774.58 217.88 779.00 218.72 783.59 C 213.52 777.74 214.51 769.15 216.25 762.14 Z" />
<path fill="#919191" opacity="1.00" d=" M 337.59 791.86 C 335.93 780.33 336.47 767.54 343.19 757.60 C 342.86 762.12 340.20 765.96 339.23 770.33 C 335.63 785.10 339.57 801.79 350.25 812.78 C 353.25 815.95 357.07 818.18 360.21 821.20 C 360.30 821.53 360.50 822.20 360.59 822.53 C 348.99 816.32 340.41 804.68 337.59 791.86 Z" />
<path fill="#919191" opacity="1.00" d=" M 373.53 770.28 C 374.18 765.74 374.42 760.55 377.92 757.15 C 376.37 761.67 375.31 766.35 374.78 771.10 C 374.43 776.15 376.90 780.73 378.58 785.34 C 374.07 781.86 373.45 775.57 373.53 770.28 Z" />
<path fill="#919191" opacity="1.00" d=" M 299.08 837.00 C 297.65 834.96 295.38 833.14 295.59 830.41 C 301.68 836.30 305.82 844.23 307.76 852.45 C 307.42 852.42 306.75 852.34 306.42 852.31 C 304.52 846.97 302.65 841.49 299.08 837.00 Z" />
<path fill="#919191" opacity="1.00" d=" M 464.86 848.68 C 470.28 862.97 466.67 879.46 457.81 891.58 C 457.43 891.32 456.67 890.78 456.29 890.51 C 461.75 883.84 464.92 875.51 465.92 866.99 C 466.63 860.85 464.72 854.82 464.86 848.68 Z" />
<path fill="#919191" opacity="1.00" d=" M 179.30 856.42 C 184.70 854.77 190.42 854.86 196.00 854.83 C 198.40 854.91 201.02 854.61 203.17 855.92 C 204.79 862.23 205.70 868.74 207.52 875.03 C 208.18 878.11 209.65 881.04 209.91 884.21 L 209.89 885.62 C 208.62 883.56 207.55 881.36 206.98 879.01 C 205.10 871.76 203.66 864.40 201.97 857.11 C 194.42 856.52 186.82 857.43 179.30 856.42 Z" />
<path fill="#919191" opacity="1.00" d=" M 336.19 856.32 C 344.62 854.96 353.26 854.20 361.76 855.51 C 361.98 856.48 362.43 858.42 362.65 859.39 C 355.12 855.20 346.31 857.00 338.14 857.23 C 337.84 860.37 337.13 863.45 336.14 866.45 C 335.96 863.07 335.98 859.69 336.19 856.32 Z" />
<path fill="#919191" opacity="1.00" d=" M 268.25 859.62 C 273.50 865.98 271.45 874.86 268.73 881.84 C 266.21 888.42 258.92 893.11 251.86 891.58 L 251.01 891.48 C 255.42 890.45 260.21 889.80 263.88 886.92 C 267.49 882.79 269.10 877.29 270.05 871.99 C 270.83 867.76 269.00 863.70 268.25 859.62 Z" />
<path fill="#919191" opacity="1.00" d=" M 523.92 877.09 C 522.77 872.19 520.81 867.27 521.56 862.15 C 523.89 869.42 524.56 877.24 527.77 884.20 C 532.95 888.98 540.40 889.97 547.05 891.44 L 546.11 891.57 C 540.27 892.80 534.50 890.11 529.52 887.32 C 525.83 885.24 524.98 880.82 523.92 877.09 Z" />
<path fill="#919191" opacity="1.00" d=" M 210.75 886.39 L 211.45 885.54 C 217.18 888.72 223.55 890.30 229.94 891.48 L 229.15 891.59 C 222.66 892.74 216.07 889.95 210.75 886.39 Z" />
<path fill="#919191" opacity="1.00" d=" M 228.06 912.38 C 235.89 912.81 243.95 911.29 251.62 913.31 C 244.51 914.72 237.19 913.70 230.00 913.98 C 229.35 913.43 228.70 912.90 228.06 912.38 Z" />
</g>
<g id="#6a6a6aff">
<path fill="#6a6a6a" opacity="1.00" d=" M 223.80 729.72 C 236.60 726.76 249.87 727.09 262.91 727.76 C 270.70 728.91 278.44 730.63 285.87 733.24 C 290.39 734.75 294.41 737.35 298.83 739.09 L 298.94 739.28 C 300.27 741.82 302.02 744.09 303.46 746.56 C 304.73 748.80 304.17 751.50 303.86 753.92 C 301.90 764.66 299.56 775.33 297.76 786.10 C 290.56 786.47 283.34 786.49 276.15 785.98 C 274.30 776.57 273.56 766.95 271.19 757.64 C 270.23 753.69 266.34 751.65 262.89 750.21 C 250.56 745.31 236.21 745.61 224.15 751.16 C 222.81 751.62 222.30 753.02 221.57 754.11 C 221.38 754.59 221.05 754.95 220.60 755.17 C 217.61 756.07 217.13 759.58 216.25 762.14 C 214.51 769.15 213.52 777.74 218.72 783.59 C 227.08 796.30 241.72 802.08 255.10 807.90 C 269.31 813.79 283.66 820.00 295.55 829.99 L 295.59 830.41 C 295.38 833.14 297.65 834.96 299.08 837.00 C 302.65 841.49 304.52 846.97 306.42 852.31 C 306.75 852.34 307.42 852.42 307.76 852.45 L 307.90 852.47 C 309.15 861.87 309.39 871.81 305.49 880.67 C 302.24 888.71 296.21 895.25 289.57 900.67 C 284.06 904.95 277.36 907.22 270.92 909.71 C 264.74 912.06 258.07 912.23 251.62 913.31 C 243.95 911.29 235.89 912.81 228.06 912.38 C 228.70 912.90 229.35 913.43 230.00 913.98 C 227.32 913.42 224.65 912.85 221.93 912.58 C 207.90 911.08 193.93 907.39 181.62 900.37 C 179.61 899.10 176.83 897.75 176.79 895.00 C 176.59 887.36 176.49 879.69 176.86 872.05 C 177.51 866.85 177.70 861.62 177.50 856.39 C 177.95 856.39 178.85 856.41 179.30 856.42 C 186.82 857.43 194.42 856.52 201.97 857.11 C 203.66 864.40 205.10 871.76 206.98 879.01 C 207.55 881.36 208.62 883.56 209.89 885.62 L 209.91 884.21 C 210.36 884.46 211.28 884.96 211.73 885.21 L 211.45 885.54 L 210.75 886.39 C 216.07 889.95 222.66 892.74 229.15 891.59 C 236.68 892.38 244.33 892.36 251.86 891.58 C 258.92 893.11 266.21 888.42 268.73 881.84 C 271.45 874.86 273.50 865.98 268.25 859.62 C 263.05 852.12 255.06 847.17 246.89 843.44 C 230.81 836.22 213.66 830.93 198.96 820.94 C 188.94 813.46 179.72 802.89 178.74 789.90 C 178.30 781.30 177.60 772.25 181.07 764.14 C 185.74 752.78 194.56 743.25 205.39 737.49 C 211.31 734.44 217.35 731.47 223.80 729.72 Z" />
<path fill="#6a6a6a" opacity="1.00" d=" M 373.82 732.92 C 382.50 729.66 391.68 727.29 401.02 727.43 C 409.99 727.41 419.08 726.95 427.92 728.86 C 438.54 730.91 449.05 734.25 458.40 739.77 C 459.83 742.76 461.65 745.69 462.20 749.01 C 462.70 755.98 459.76 762.68 460.41 769.67 C 459.88 775.91 458.59 782.06 456.79 788.07 C 448.84 787.86 440.77 788.85 432.93 787.10 C 432.83 780.94 431.51 774.92 430.57 768.87 C 429.62 764.24 429.20 759.26 427.01 755.06 C 413.88 746.47 396.18 746.28 382.26 753.13 C 380.37 753.92 379.23 755.68 377.92 757.15 C 374.42 760.55 374.18 765.74 373.53 770.28 C 373.45 775.57 374.07 781.86 378.58 785.34 C 379.68 786.59 380.24 788.21 381.03 789.68 C 383.18 789.63 384.72 790.82 385.06 792.96 C 389.48 795.53 393.60 798.59 398.19 800.86 C 414.82 809.34 433.15 814.60 448.46 825.55 C 456.20 831.18 462.97 839.05 464.86 848.68 C 464.72 854.82 466.63 860.85 465.92 866.99 C 464.92 875.51 461.75 883.84 456.29 890.51 C 456.67 890.78 457.43 891.32 457.81 891.58 C 453.52 897.47 447.40 901.70 440.95 904.90 C 429.92 910.88 417.29 912.55 405.01 913.96 C 386.52 914.60 367.79 911.96 350.48 905.31 C 345.56 903.48 341.15 900.55 336.23 898.73 C 335.78 887.99 335.49 877.17 336.14 866.45 C 337.13 863.45 337.84 860.37 338.14 857.23 C 346.31 857.00 355.12 855.20 362.65 859.39 C 364.26 867.20 365.96 875.02 368.45 882.61 C 369.44 885.89 373.02 887.07 375.89 888.21 C 389.90 893.06 405.69 893.94 419.69 888.59 C 423.31 887.33 424.86 883.54 426.30 880.32 C 428.96 873.84 430.07 865.91 426.30 859.62 C 422.79 852.62 415.59 848.74 408.97 845.20 C 396.41 839.09 383.01 834.86 370.61 828.39 C 367.30 826.64 364.24 824.44 360.74 823.06 L 360.59 822.53 C 360.50 822.20 360.30 821.53 360.21 821.20 C 357.07 818.18 353.25 815.95 350.25 812.78 C 339.57 801.79 335.63 785.10 339.23 770.33 C 340.20 765.96 342.86 762.12 343.19 757.60 L 343.25 757.25 C 345.40 754.60 347.37 751.81 349.22 748.94 C 351.06 746.13 354.34 744.91 356.77 742.73 C 361.68 738.30 367.77 735.46 373.82 732.92 Z" />
<path fill="#6a6a6a" opacity="1.00" d=" M 527.72 734.84 C 546.05 726.15 567.27 724.98 586.98 728.88 C 597.76 730.96 608.49 734.26 617.84 740.16 C 621.26 742.84 624.24 747.30 622.90 751.83 C 621.22 759.30 620.50 767.03 618.35 774.35 C 615.91 776.97 615.53 780.56 614.80 783.89 C 614.46 784.94 614.42 786.62 612.89 786.49 C 606.35 786.94 599.77 786.60 593.27 785.87 C 591.38 775.98 591.22 765.69 587.79 756.15 C 586.79 753.09 583.68 751.82 580.70 751.79 L 580.29 751.73 C 578.89 751.03 577.59 749.92 575.99 749.83 C 570.66 749.48 565.41 748.10 560.04 748.44 C 553.51 748.73 546.84 749.87 541.01 752.95 C 535.46 756.67 534.29 763.92 533.78 770.10 C 532.92 778.13 536.77 786.03 542.55 791.44 C 550.45 798.62 560.50 802.67 570.12 806.98 C 584.34 813.06 599.24 818.61 611.04 828.94 C 619.61 836.50 625.47 847.38 625.70 858.94 C 626.79 871.96 622.92 885.98 612.90 894.85 C 603.18 905.45 588.97 910.41 575.07 912.44 C 568.77 913.59 562.36 913.20 556.01 913.34 C 540.77 913.74 525.44 911.27 511.07 906.19 C 505.42 904.08 499.96 901.36 495.09 897.79 C 493.76 896.99 494.37 895.21 494.20 893.98 C 494.22 882.65 493.93 871.31 494.51 860.00 C 494.75 858.68 494.26 856.42 496.07 856.11 C 504.21 854.67 512.59 854.36 520.80 855.41 C 521.12 857.64 521.60 859.88 521.56 862.15 C 520.81 867.27 522.77 872.19 523.92 877.09 C 524.98 880.82 525.83 885.24 529.52 887.32 C 534.50 890.11 540.27 892.80 546.11 891.57 C 557.49 892.47 570.03 893.21 580.32 887.32 C 584.22 883.67 586.16 878.29 586.90 873.10 C 587.56 867.10 586.75 860.26 582.19 855.87 C 575.46 848.20 565.86 844.20 556.63 840.45 C 542.33 834.04 526.90 829.40 514.47 819.51 C 507.81 813.81 500.99 807.44 498.19 798.88 C 493.19 784.32 494.56 767.25 503.42 754.43 C 509.82 746.10 518.10 739.17 527.72 734.84 Z" />
<path fill="#6a6a6a" opacity="1.00" d=" M 767.04 730.78 C 779.55 730.96 792.10 729.97 804.59 730.59 C 808.36 733.90 811.74 738.81 810.77 744.10 C 809.44 757.41 808.44 770.75 806.78 784.03 C 799.25 785.51 791.59 784.48 784.04 783.87 C 781.45 773.12 779.56 762.21 776.82 751.49 C 767.20 751.75 757.58 749.76 747.98 750.83 C 746.12 751.29 746.57 753.61 746.43 755.03 C 746.47 789.04 746.40 823.05 746.46 857.06 C 746.72 866.58 746.26 876.43 749.55 885.52 C 754.77 891.46 763.69 891.34 770.11 895.06 C 770.73 899.83 768.65 904.37 767.70 908.96 C 741.24 909.13 714.78 909.09 688.33 908.98 C 687.40 904.20 686.05 899.51 685.56 894.67 C 693.16 891.78 701.59 890.94 708.64 886.74 C 708.89 879.02 708.63 871.27 709.91 863.63 C 711.89 856.57 710.70 849.18 710.98 841.97 C 711.27 828.65 711.06 815.32 710.94 802.00 C 711.23 784.42 711.31 766.84 710.84 749.26 C 705.83 749.12 700.84 749.87 695.83 749.74 C 695.70 749.97 695.43 750.44 695.30 750.68 L 695.12 751.00 C 689.78 751.30 684.45 751.63 679.11 751.81 C 678.08 762.72 674.18 773.10 673.06 783.99 C 667.51 785.62 661.71 784.86 656.03 784.83 C 653.13 784.81 650.27 784.36 647.46 783.73 C 647.36 775.15 646.36 766.61 646.58 758.03 C 646.33 749.23 647.39 740.47 647.47 731.68 C 677.98 731.59 708.49 731.63 739.00 731.62 C 748.35 731.53 757.74 732.05 767.04 730.78 Z" />
<path fill="#6a6a6a" opacity="1.00" d=" M 948.98 730.55 C 955.60 730.11 962.24 729.16 968.88 729.71 C 971.77 730.84 973.08 733.96 974.54 736.49 C 977.22 741.37 974.48 746.84 973.86 751.89 C 972.51 762.30 969.74 772.50 969.07 783.02 C 961.26 784.92 953.31 782.87 945.43 782.78 C 943.44 772.89 942.09 762.89 939.74 753.08 C 935.38 751.45 930.66 751.98 926.14 751.31 C 917.81 750.21 909.40 750.95 901.04 750.76 C 896.12 750.86 890.68 750.49 886.40 753.33 C 883.61 757.26 885.69 762.51 884.82 766.99 C 883.40 775.12 884.38 783.38 883.83 791.56 C 882.90 797.98 882.39 804.62 884.09 810.97 C 901.76 812.28 919.36 809.23 937.04 809.79 C 940.94 809.69 944.21 814.15 943.23 817.89 C 942.22 822.95 941.97 828.25 940.06 833.09 C 936.93 834.59 933.31 833.76 929.98 833.78 C 918.99 832.84 907.96 832.86 896.95 832.82 C 892.65 832.87 888.44 831.81 884.15 832.02 C 881.36 843.19 884.60 854.70 883.93 866.03 C 884.31 872.97 884.31 880.27 887.21 886.72 C 893.85 889.45 901.05 888.76 907.97 890.01 C 913.95 890.02 920.01 890.51 925.91 889.31 C 931.89 888.49 938.41 890.20 943.85 886.81 C 946.03 878.21 947.77 869.51 950.13 860.96 C 950.46 859.49 951.20 858.19 951.99 856.94 C 959.94 856.78 967.90 856.88 975.80 857.92 C 975.86 874.98 976.08 892.04 975.71 909.10 C 925.42 909.12 875.14 909.26 824.85 909.04 C 824.09 903.95 823.06 898.85 823.32 893.68 C 830.72 892.20 837.83 889.63 845.12 887.70 C 845.19 881.77 846.15 875.90 846.27 869.99 C 846.63 838.64 846.64 807.30 846.40 775.96 C 846.52 770.60 845.59 765.32 845.12 760.01 C 844.87 757.24 843.39 754.49 840.89 753.15 C 835.46 750.03 829.43 748.10 823.32 746.81 C 823.04 741.47 824.13 736.24 825.01 731.02 C 866.33 730.62 907.66 731.28 948.98 730.55 Z" />
<path fill="#6a6a6a" opacity="1.00" d=" M 69.36 731.38 C 71.88 731.11 74.41 730.85 76.95 730.86 C 99.65 730.90 122.35 730.84 145.05 730.89 C 146.72 730.91 149.17 731.29 149.44 733.34 C 150.55 737.60 151.12 742.03 150.66 746.43 C 143.47 748.82 136.22 751.00 128.92 753.01 C 128.92 761.04 127.79 769.01 127.80 777.04 C 127.47 803.04 127.68 829.03 127.63 855.03 C 127.75 863.72 127.51 872.50 129.19 881.07 C 129.62 883.71 130.90 886.39 133.32 887.74 C 138.78 890.71 144.83 892.34 150.80 893.88 C 150.89 898.90 150.65 904.28 149.01 908.97 C 122.38 909.32 95.75 909.09 69.12 909.08 C 67.91 904.20 66.80 899.25 66.90 894.19 C 72.62 892.71 78.25 890.90 83.91 889.20 C 85.95 888.47 88.99 887.78 88.96 885.06 C 90.40 873.76 90.18 862.34 90.18 850.98 C 90.01 843.97 91.31 837.03 91.13 830.02 C 91.03 821.37 91.17 812.71 91.01 804.07 C 88.85 788.60 91.97 772.74 88.40 757.41 C 87.89 754.66 85.34 753.07 83.00 752.02 C 77.87 749.76 72.54 747.93 67.01 746.97 C 66.72 741.66 67.86 736.44 69.36 731.38 Z" />
</g>
</svg>
