<?xml version="1.0" encoding="UTF-8" ?>
<!DOCTYPE svg PUBLIC "-//W3C//DTD SVG 1.1//EN" "http://www.w3.org/Graphics/SVG/1.1/DTD/svg11.dtd">
<svg width="1000pt" height="1000pt" viewBox="0 0 1000 1000" version="1.1" xmlns="http://www.w3.org/2000/svg">
<g id="#ca9656ff">
<path fill="#ca9656" opacity="1.00" d=" M 451.28 124.02 C 458.61 121.72 466.42 122.46 473.98 122.67 C 481.16 123.99 488.52 126.06 494.23 130.84 C 498.92 135.07 500.89 141.32 502.21 147.30 C 502.98 155.12 502.47 162.99 502.28 170.82 C 500.29 179.88 502.87 189.55 499.44 198.33 C 495.70 204.02 489.92 207.87 485.23 212.70 C 485.70 213.92 486.17 215.13 486.76 216.30 C 494.82 217.11 503.04 215.62 511.07 216.92 C 515.32 218.06 519.86 219.79 522.38 223.63 C 524.76 226.97 525.41 231.10 526.52 234.96 C 529.25 244.14 533.11 253.01 534.85 262.48 C 541.13 263.50 546.38 259.35 551.93 257.20 C 557.55 254.34 565.18 254.52 569.69 259.34 C 572.54 262.43 575.41 266.91 573.52 271.21 C 572.05 277.87 567.03 282.79 562.87 287.89 C 556.69 294.69 550.60 301.63 543.52 307.52 C 539.55 310.69 535.54 313.79 531.46 316.81 C 535.78 321.35 540.53 325.90 542.42 332.08 C 544.68 337.08 544.54 342.64 545.28 347.97 C 545.33 363.51 545.28 379.06 545.45 394.60 C 540.88 396.77 535.74 394.66 530.97 395.79 C 527.16 396.85 522.82 397.95 520.63 401.57 C 518.09 406.56 517.06 412.33 517.59 417.90 C 521.74 416.71 525.46 414.48 529.20 412.36 C 536.58 407.94 544.45 404.45 552.09 400.50 C 566.38 392.92 581.09 386.13 595.11 378.04 C 598.73 375.91 602.77 374.45 606.10 371.86 C 608.19 366.29 607.78 360.21 609.03 354.44 C 610.11 343.73 611.07 333.00 612.08 322.29 C 613.25 304.04 615.51 285.21 610.39 267.31 C 608.48 260.02 603.44 253.53 596.59 250.27 C 591.06 247.55 586.27 243.31 583.08 238.02 C 577.40 227.99 572.90 217.32 566.91 207.46 C 562.16 198.55 556.20 190.01 547.99 183.97 C 544.48 181.90 539.73 180.29 535.94 182.58 C 532.04 185.31 531.26 190.40 531.54 194.82 C 532.13 201.21 533.53 207.65 536.71 213.29 C 538.70 216.65 542.68 218.44 544.25 222.07 C 544.57 224.91 544.43 228.37 541.84 230.15 C 538.73 231.32 535.37 230.01 532.69 228.37 C 522.69 222.86 515.90 212.71 513.39 201.69 C 511.28 191.94 508.76 181.48 512.14 171.71 C 513.66 166.64 516.13 161.68 519.86 157.87 C 525.49 152.91 532.07 148.88 539.38 146.95 C 546.27 146.12 553.64 144.82 560.12 148.15 C 571.11 153.82 580.11 162.58 588.48 171.54 C 594.68 179.60 601.16 187.83 604.00 197.78 C 605.89 202.38 605.78 207.57 607.99 212.05 C 613.98 216.60 619.47 221.82 624.44 227.47 C 629.12 234.16 633.25 241.41 635.36 249.36 C 636.16 254.58 637.85 259.70 637.59 265.03 C 637.52 271.78 638.19 278.68 636.64 285.29 C 642.84 277.65 650.22 271.10 657.04 264.02 C 660.08 260.71 663.84 258.17 667.00 254.97 C 674.17 247.79 681.32 240.59 688.53 233.45 C 696.12 226.23 706.30 220.70 717.05 221.49 C 723.99 221.65 730.47 224.81 735.80 229.09 C 738.64 231.91 742.87 230.08 746.26 229.53 C 750.79 229.20 755.80 228.83 759.83 231.34 C 764.81 235.03 769.17 240.49 769.51 246.91 C 771.18 259.36 769.86 271.95 770.53 284.45 C 771.89 291.90 770.92 299.48 771.40 306.99 C 771.85 314.99 770.92 323.05 772.14 331.00 C 772.64 344.60 771.98 358.23 772.69 371.82 C 772.16 377.78 772.75 383.81 771.72 389.73 C 770.81 399.43 767.77 408.78 764.29 417.82 C 759.71 428.56 753.71 438.60 748.79 449.18 C 741.52 464.37 735.08 479.94 729.17 495.71 C 727.01 501.56 725.71 507.85 722.12 513.07 C 717.83 519.26 712.58 524.96 706.01 528.76 C 696.84 534.18 686.55 537.20 676.87 541.54 C 619.45 565.94 562.70 592.77 510.57 627.28 C 507.28 629.23 504.52 632.09 500.85 633.39 C 497.80 633.79 495.02 631.99 492.68 630.25 C 484.12 623.88 474.78 618.71 465.83 612.92 C 430.01 591.52 392.59 572.77 354.18 556.48 C 339.99 550.06 325.38 544.55 311.58 537.27 C 296.85 530.25 282.34 520.29 275.11 505.14 C 264.38 482.81 254.61 460.04 245.29 437.10 C 239.84 423.44 234.06 409.88 229.98 395.73 C 229.09 390.85 227.51 386.04 227.71 381.03 C 227.94 372.55 227.16 364.01 228.50 355.58 C 230.25 322.67 233.09 289.84 236.09 257.00 C 236.94 249.77 236.43 242.38 238.17 235.27 C 240.23 229.20 245.60 224.68 251.77 223.17 C 256.94 221.29 262.29 223.35 267.26 224.86 C 270.89 220.90 275.15 217.03 280.65 216.07 C 288.95 214.66 298.08 215.21 305.31 219.97 C 311.26 223.06 315.10 228.73 319.13 233.87 C 331.91 248.73 344.87 263.43 358.03 277.95 C 362.31 282.24 365.63 287.42 370.37 291.26 C 370.88 276.75 372.19 262.17 375.86 248.07 C 379.38 240.02 383.04 231.65 389.78 225.72 C 398.00 216.97 408.83 211.53 419.37 206.12 C 421.32 195.75 416.02 186.13 414.68 176.09 C 414.42 169.31 414.00 162.32 416.24 155.80 C 419.23 141.75 430.17 129.40 444.15 125.61 C 446.48 124.90 448.91 124.59 451.28 124.02 M 458.33 163.05 C 455.35 173.08 447.40 180.95 438.39 185.89 C 441.48 195.73 444.59 206.15 443.15 216.57 C 442.26 223.47 435.23 226.59 430.05 229.96 C 417.67 237.19 406.19 247.23 400.63 260.75 C 393.78 277.24 392.50 295.35 392.22 313.00 C 392.26 320.66 392.00 328.33 392.80 335.97 C 394.01 345.21 392.82 354.63 394.50 363.83 C 394.88 368.57 397.92 372.58 401.37 375.64 C 409.66 382.89 420.51 385.87 430.49 390.00 C 447.97 396.72 464.87 405.54 479.13 417.81 C 486.49 423.47 493.61 429.51 499.97 436.30 C 503.06 434.72 505.82 432.59 508.11 429.98 C 500.11 426.61 492.23 422.85 484.92 418.14 C 480.98 415.64 477.33 411.98 476.45 407.23 C 475.66 404.02 475.62 400.70 475.08 397.46 C 473.85 391.19 475.48 384.89 476.44 378.72 C 477.34 372.62 481.43 367.17 486.92 364.42 C 494.31 362.19 501.95 360.58 509.02 357.43 C 513.72 355.30 513.11 349.07 516.72 345.92 C 517.87 345.65 519.07 345.57 520.26 345.43 C 521.91 351.20 522.20 357.61 520.03 363.29 C 517.56 368.00 511.85 368.95 507.54 371.26 C 502.39 374.02 496.62 377.23 494.69 383.15 C 493.65 386.65 492.02 390.27 493.04 393.97 C 493.84 398.05 492.77 402.53 494.80 406.35 C 495.59 408.16 498.47 408.10 499.50 406.54 C 502.84 403.67 503.33 399.06 503.54 394.95 C 503.74 390.38 505.09 385.97 506.91 381.80 C 513.88 379.35 521.39 381.43 528.48 379.54 C 530.20 372.12 529.12 364.47 529.40 356.94 C 529.21 353.21 531.00 349.70 530.61 345.97 C 527.60 340.61 522.75 336.38 517.30 333.63 C 515.67 332.81 514.48 334.42 513.47 335.42 C 510.16 338.67 509.64 343.53 507.37 347.40 C 503.92 349.94 499.07 348.62 495.95 346.12 C 492.29 343.58 489.40 347.93 486.55 349.61 C 480.27 354.17 471.02 353.03 465.73 347.51 C 462.46 342.63 459.13 337.42 458.34 331.48 C 457.22 324.38 455.60 317.03 457.60 309.93 C 459.79 296.34 466.19 283.97 472.58 271.96 C 468.45 266.40 464.51 260.43 462.73 253.67 C 461.98 247.83 461.95 241.83 462.76 235.99 C 464.28 230.27 467.35 225.10 470.54 220.16 C 468.38 217.30 466.65 214.16 465.26 210.86 C 468.74 206.53 473.22 203.13 476.48 198.60 C 482.23 191.00 487.36 181.43 485.09 171.61 C 483.75 166.27 481.71 160.20 476.39 157.62 C 471.80 154.80 466.35 153.74 461.03 154.61 C 457.84 156.01 458.94 160.25 458.33 163.05 M 507.75 242.09 C 507.19 244.57 506.73 247.07 506.09 249.54 C 504.21 253.41 500.42 255.96 496.27 256.88 C 492.71 257.44 493.63 261.46 493.51 264.03 C 493.71 268.12 491.79 271.88 489.91 275.38 C 485.12 283.46 480.10 291.40 475.20 299.42 C 472.68 303.87 470.75 309.23 472.04 314.36 C 472.67 318.35 473.62 322.56 476.28 325.73 C 478.14 328.09 481.28 328.63 484.03 329.34 C 489.67 330.03 495.36 329.63 501.02 329.77 C 502.69 329.66 504.49 330.03 506.05 329.27 C 506.81 327.96 507.54 326.57 507.45 325.01 C 507.60 318.03 507.33 311.05 507.52 304.07 C 507.70 300.11 510.98 296.71 514.81 295.97 C 519.09 294.75 523.59 295.79 527.93 295.11 C 537.08 293.54 543.67 285.52 547.09 277.39 C 540.64 277.76 534.46 280.11 527.98 280.19 C 521.86 279.58 515.10 279.11 510.59 274.38 C 510.66 271.07 510.39 267.74 510.75 264.45 C 512.50 262.13 514.65 260.17 516.73 258.16 C 516.96 253.61 515.71 249.26 514.31 245.00 C 512.79 242.98 510.10 242.45 507.75 242.09 M 297.23 270.33 C 297.07 275.02 298.40 279.54 299.20 284.11 C 300.30 294.95 302.84 305.59 303.81 316.44 C 305.62 323.76 305.38 331.55 308.16 338.62 C 309.66 341.83 314.12 345.06 317.40 342.41 C 321.72 340.49 320.67 334.88 320.58 331.06 C 318.72 319.63 315.96 308.36 313.56 297.03 C 311.88 289.29 310.55 281.46 308.52 273.80 C 307.77 270.51 304.67 268.89 302.05 267.25 C 300.44 268.27 298.84 269.30 297.23 270.33 M 691.25 284.80 C 688.59 297.58 686.12 310.39 683.67 323.21 C 683.41 328.88 680.69 334.25 681.49 340.00 C 682.61 341.31 684.04 342.95 685.97 342.28 C 689.24 340.75 691.78 337.64 692.25 334.01 C 695.16 320.64 696.85 307.03 699.39 293.59 C 700.08 286.35 702.48 279.29 702.43 271.99 C 702.90 268.62 698.89 269.75 696.85 269.52 C 693.12 273.72 691.69 279.32 691.25 284.80 M 267.35 275.07 C 263.98 280.80 264.53 287.65 264.31 294.02 C 263.10 302.23 263.64 310.55 263.32 318.81 C 261.74 326.41 263.16 334.24 261.74 341.86 C 261.42 353.29 259.37 364.58 258.41 375.96 C 257.52 393.61 268.21 408.50 274.58 424.16 C 280.60 436.44 285.60 449.18 291.59 461.47 C 295.85 470.17 299.83 479.28 306.64 486.34 C 311.18 491.20 317.35 493.92 323.11 497.01 C 328.93 499.89 334.43 503.39 340.40 505.96 C 353.37 511.07 365.31 518.45 378.32 523.48 C 385.25 526.40 391.79 530.21 398.84 532.88 C 405.24 535.25 411.07 538.91 417.50 541.24 C 428.17 545.89 438.42 551.44 448.83 556.64 C 454.23 559.20 459.04 562.80 464.42 565.39 C 476.96 572.48 488.93 580.57 500.75 588.74 C 525.51 570.20 552.97 555.59 580.86 542.36 C 590.29 538.67 599.09 533.59 608.55 529.98 C 613.16 528.09 617.54 525.70 622.04 523.57 C 638.56 516.71 654.56 508.67 670.57 500.70 C 678.80 496.50 687.46 492.68 694.31 486.31 C 696.81 483.68 698.92 480.70 700.85 477.63 C 711.20 458.62 719.31 438.53 728.36 418.90 C 733.16 408.77 738.47 398.75 741.27 387.83 C 742.17 381.90 743.96 376.00 743.22 369.95 C 742.07 363.03 742.70 355.99 742.44 349.01 C 742.87 343.62 741.15 338.38 741.55 333.00 C 741.43 320.39 741.89 307.76 741.33 295.17 C 739.51 286.95 742.61 277.96 738.35 270.29 C 735.75 270.24 733.16 270.22 730.57 270.16 C 722.86 278.00 722.23 289.55 721.28 299.87 C 719.35 310.42 717.91 321.06 715.83 331.59 C 714.79 340.73 712.10 349.60 711.10 358.75 C 706.80 376.86 705.36 396.35 695.10 412.44 C 686.61 425.77 674.15 436.24 660.52 444.03 C 648.88 449.96 637.97 457.68 625.29 461.28 C 619.61 462.60 611.60 463.89 608.00 458.03 C 605.53 455.10 606.40 451.01 606.58 447.51 C 610.76 442.20 616.87 439.08 622.65 435.87 C 630.78 431.51 638.43 426.34 646.50 421.88 C 652.18 418.91 657.71 415.63 662.80 411.71 C 669.39 406.95 674.71 400.17 676.66 392.17 C 677.92 386.68 679.63 380.84 677.79 375.28 C 674.26 375.34 670.58 375.08 667.45 377.01 C 653.41 384.00 639.41 391.05 625.26 397.80 C 614.41 402.40 604.02 408.00 593.38 413.05 C 577.33 420.74 561.53 428.96 546.10 437.82 C 538.85 442.86 531.64 448.20 526.41 455.44 C 519.26 465.50 513.43 476.56 509.79 488.38 C 506.31 499.16 502.44 510.16 502.34 521.60 C 501.11 521.59 499.89 521.60 498.67 521.61 C 499.13 515.93 496.69 510.65 496.23 505.07 C 492.73 491.40 488.29 477.76 480.88 465.66 C 477.61 459.38 473.49 453.53 468.47 448.53 C 461.85 441.45 453.21 436.79 444.84 432.12 C 437.48 427.86 429.76 424.26 422.25 420.28 C 409.35 414.25 396.86 407.33 383.74 401.80 C 367.09 393.95 350.66 385.65 334.20 377.42 C 331.02 375.48 327.37 375.01 323.71 375.36 C 322.78 377.22 321.08 379.17 321.72 381.40 C 322.86 386.32 323.77 391.30 325.35 396.11 C 327.72 402.40 332.39 407.57 337.87 411.37 C 352.04 421.57 367.63 429.56 382.58 438.52 C 385.98 440.65 389.82 442.37 392.43 445.53 C 396.06 449.73 395.17 456.49 391.54 460.37 C 386.54 463.11 380.51 462.70 375.18 461.26 C 361.95 457.45 350.62 449.40 338.57 443.05 C 333.49 439.99 328.61 436.59 323.85 433.06 C 312.17 423.50 303.04 410.75 298.03 396.50 C 292.61 377.38 290.86 357.52 287.74 337.95 C 287.54 333.57 286.96 329.22 286.16 324.90 C 284.35 310.56 282.79 296.18 281.02 281.84 C 280.48 277.04 277.78 272.97 274.00 270.08 C 271.55 271.35 268.61 272.39 267.35 275.07 M 664.01 300.97 C 659.22 307.60 659.95 316.07 657.98 323.63 C 657.25 331.63 654.65 339.40 655.52 347.52 C 656.96 348.13 658.24 349.47 659.87 349.47 C 662.84 347.93 665.44 345.17 666.16 341.83 C 667.05 333.88 667.58 325.91 667.77 317.92 C 668.70 311.68 669.09 305.33 668.13 299.06 C 666.70 299.55 664.76 299.40 664.01 300.97 M 330.33 304.94 C 331.06 312.75 333.09 320.36 333.83 328.17 C 335.10 334.24 334.94 340.70 337.54 346.44 C 339.24 349.61 343.33 348.57 345.79 346.99 C 342.91 336.43 341.59 325.54 339.61 314.80 C 339.68 309.09 338.76 302.30 332.91 299.65 C 331.76 301.26 329.71 302.70 330.33 304.94 M 359.51 324.21 C 357.76 328.65 358.56 333.44 359.64 337.93 C 361.41 344.64 361.50 351.70 363.66 358.32 C 364.50 359.63 365.67 360.68 366.92 361.59 C 368.63 361.19 370.11 360.16 371.67 359.40 C 371.74 353.78 369.58 348.52 368.85 343.01 C 367.48 337.53 367.15 331.71 364.62 326.60 C 363.56 324.69 361.55 324.15 359.51 324.21 M 633.94 328.27 C 633.07 332.73 631.88 337.13 631.21 341.63 C 629.62 347.13 628.35 353.07 629.97 358.71 C 631.13 360.43 632.77 362.44 635.12 361.72 C 639.93 356.76 639.22 349.31 639.43 342.96 C 639.30 336.26 642.10 329.28 639.27 322.84 C 637.25 324.33 634.58 325.61 633.94 328.27 Z" />
<path fill="#ca9656" opacity="1.00" d=" M 928.92 750.28 C 930.50 735.96 934.06 721.93 935.82 707.64 C 937.72 712.49 935.14 717.52 934.62 722.41 C 933.46 732.14 930.63 741.66 930.25 751.47 C 922.79 753.52 915.26 751.26 907.74 751.44 C 905.55 741.99 904.59 732.27 902.10 722.91 C 898.40 721.15 894.26 721.73 890.32 721.33 C 883.29 720.03 876.10 720.70 869.00 720.54 C 862.95 720.73 856.46 719.87 850.92 722.85 C 850.59 723.39 849.94 724.49 849.62 725.03 C 849.09 730.07 849.80 735.20 848.77 740.19 C 848.07 746.43 848.79 752.73 848.43 758.99 C 847.54 765.38 846.80 772.13 848.59 778.44 C 852.16 779.01 855.83 778.50 859.41 779.15 C 855.48 780.37 851.36 780.64 847.30 780.05 C 846.64 774.07 846.35 768.03 846.97 762.04 C 848.10 750.85 847.05 739.59 847.69 728.39 C 848.04 725.98 848.08 722.81 850.56 721.55 C 855.31 719.14 860.81 719.41 865.99 719.29 C 878.18 719.33 890.57 718.92 902.56 721.41 C 904.20 724.55 904.62 728.15 905.30 731.60 C 906.25 737.91 907.41 744.18 908.82 750.41 C 915.51 750.59 922.22 750.66 928.92 750.28 Z" />
<path fill="#ca9656" opacity="1.00" d=" M 283.97 708.42 C 289.39 709.89 293.95 715.24 293.36 720.97 C 291.19 732.83 289.07 744.70 286.42 756.48 C 279.30 756.33 272.15 756.75 265.04 756.16 C 264.71 755.89 264.05 755.34 263.72 755.07 C 262.24 745.69 261.37 736.16 258.77 727.01 C 257.75 723.18 253.31 722.32 250.20 720.78 C 239.00 717.08 226.35 717.50 215.50 722.22 C 209.92 724.73 209.19 731.42 207.94 736.68 C 206.38 742.27 208.96 747.72 210.37 753.04 C 205.56 747.88 205.85 740.24 207.04 733.77 C 208.24 728.88 210.16 723.32 215.11 721.09 C 226.83 715.69 240.74 715.44 252.68 720.33 C 255.88 721.70 259.57 723.58 260.33 727.34 C 262.59 736.31 263.22 745.58 265.17 754.62 C 272.02 754.85 278.86 754.90 285.71 754.74 C 287.62 744.92 289.47 735.08 291.44 725.27 C 291.87 722.46 292.70 719.42 291.42 716.72 C 289.80 713.28 286.79 710.82 283.97 708.42 Z" />
<path fill="#ca9656" opacity="1.00" d=" M 438.28 709.18 C 443.01 711.29 446.31 716.71 445.34 721.90 C 444.32 728.06 443.50 734.28 441.66 740.27 C 441.26 733.37 443.87 726.78 443.76 719.92 C 443.79 715.66 440.84 712.27 438.28 709.18 Z" />
<path fill="#ca9656" opacity="1.00" d=" M 333.48 722.01 C 334.96 718.64 337.63 715.88 341.04 714.45 C 338.80 717.24 336.25 719.75 333.48 722.01 Z" />
<path fill="#ca9656" opacity="1.00" d=" M 520.76 720.63 C 530.90 716.56 542.81 714.94 553.05 719.58 C 550.55 719.67 548.08 719.33 545.66 718.74 C 537.36 717.71 528.73 718.61 520.97 721.81 C 514.33 724.56 512.83 732.64 512.32 739.03 C 511.39 746.74 515.03 754.27 520.47 759.55 C 527.79 766.34 537.14 770.20 546.12 774.25 C 560.89 780.61 576.59 786.25 588.42 797.57 C 592.36 801.76 595.93 806.47 597.93 811.92 C 600.96 819.16 600.80 827.19 600.38 834.88 C 599.75 839.33 598.35 843.66 596.59 847.78 C 593.78 854.15 588.43 858.81 583.44 863.46 C 572.58 872.07 558.54 875.39 544.99 876.61 C 534.73 876.47 524.40 877.30 514.24 875.52 C 500.30 873.40 485.96 869.80 474.53 861.15 C 474.56 848.47 474.19 835.78 474.91 823.12 C 475.16 822.78 475.66 822.11 475.91 821.78 C 483.92 820.88 492.12 819.76 500.11 821.42 C 500.12 826.53 501.73 831.39 502.84 836.33 C 504.04 840.63 504.61 845.17 506.73 849.16 C 513.27 854.13 521.72 854.98 529.53 856.49 C 524.67 856.77 519.72 856.55 515.12 854.84 C 510.90 853.35 505.79 851.55 504.40 846.77 C 501.82 838.98 500.34 830.86 498.80 822.81 C 491.16 822.33 483.51 822.44 475.87 822.76 C 475.41 832.50 475.74 842.26 475.52 852.00 C 475.59 854.84 475.35 857.80 476.34 860.52 C 478.47 862.96 481.54 864.29 484.39 865.70 C 495.26 870.64 506.97 873.82 518.90 874.68 C 529.88 876.12 541.06 876.10 552.02 874.39 C 567.56 872.56 583.23 865.42 592.40 852.34 C 599.34 842.61 600.66 829.91 598.50 818.41 C 596.70 809.17 591.13 800.97 583.84 795.15 C 571.34 785.08 555.86 780.13 541.47 773.51 C 531.49 768.97 520.73 763.97 514.67 754.36 C 510.71 748.48 510.85 741.04 511.60 734.28 C 512.34 728.66 515.13 722.73 520.76 720.63 Z" />
<path fill="#ca9656" opacity="1.00" d=" M 362.81 724.76 C 364.93 721.12 369.35 720.18 373.02 718.87 C 370.40 720.58 367.67 722.12 365.07 723.86 C 361.06 728.19 360.77 734.53 359.67 740.06 C 359.49 746.27 362.68 751.84 365.22 757.31 C 360.02 752.04 357.62 744.31 358.89 737.03 C 359.64 732.80 360.61 728.49 362.81 724.76 Z" />
<path fill="#ca9656" opacity="1.00" d=" M 668.88 720.35 C 673.33 719.16 677.95 719.16 682.51 719.43 C 682.73 752.61 682.63 785.80 682.50 818.98 C 682.60 823.47 682.39 828.00 681.24 832.37 C 681.79 795.08 681.57 757.78 681.56 720.49 C 677.33 720.48 673.10 720.59 668.88 720.35 Z" />
<path fill="#ca9656" opacity="1.00" d=" M 554.78 720.17 C 558.47 721.16 563.12 722.17 564.46 726.33 C 567.48 735.42 567.63 745.13 569.57 754.47 C 576.30 754.96 583.07 755.50 589.81 754.77 C 590.59 750.43 591.50 746.11 592.85 741.91 C 592.76 744.34 592.68 746.78 592.42 749.21 C 592.06 751.60 591.54 753.97 591.35 756.40 C 583.70 756.28 575.95 757.10 568.39 755.68 C 566.93 748.41 566.58 740.98 564.91 733.76 C 564.30 730.74 564.09 727.40 562.05 724.94 C 559.93 722.93 557.14 721.85 554.78 720.17 Z" />
<path fill="#ca9656" opacity="1.00" d=" M 324.00 759.78 C 322.33 747.50 323.39 733.52 331.99 723.87 C 329.46 729.54 326.42 735.09 325.21 741.24 C 322.89 753.47 325.46 766.83 333.26 776.70 C 337.72 782.80 344.46 786.51 349.86 791.65 C 336.98 785.73 326.93 773.74 324.00 759.78 Z" />
<path fill="#ca9656" opacity="1.00" d=" M 413.85 741.03 C 413.74 738.62 413.85 736.22 414.00 733.83 C 415.48 740.60 416.14 747.51 416.65 754.42 C 423.46 754.47 430.61 756.56 437.21 754.24 C 438.93 750.19 439.80 745.84 441.43 741.75 C 441.19 746.78 439.70 751.66 438.36 756.49 C 430.77 756.16 423.04 757.25 415.58 755.44 C 415.64 750.57 414.73 745.79 413.85 741.03 Z" />
<path fill="#ca9656" opacity="1.00" d=" M 365.98 758.43 C 367.35 757.49 370.07 759.60 369.05 761.09 C 367.67 760.69 366.60 759.69 365.98 758.43 Z" />
<path fill="#ca9656" opacity="1.00" d=" M 281.11 795.68 C 283.45 797.64 285.76 799.68 287.78 801.99 C 291.05 806.01 293.09 810.88 294.84 815.72 C 295.03 817.49 295.13 819.27 295.23 821.06 C 293.39 816.24 292.06 811.17 289.35 806.74 C 286.95 802.80 283.82 799.39 281.11 795.68 Z" />
<path fill="#ca9656" opacity="1.00" d=" M 447.20 825.03 C 446.59 820.89 445.83 816.78 445.55 812.61 C 450.96 825.72 449.06 841.54 441.05 853.20 C 439.22 855.34 437.13 857.24 435.03 859.12 C 438.42 854.32 442.28 849.71 444.31 844.12 C 446.50 838.05 448.13 831.52 447.20 825.03 Z" />
<path fill="#ca9656" opacity="1.00" d=" M 170.36 822.44 C 176.08 820.78 182.10 820.52 188.03 820.63 C 190.47 820.71 193.19 820.23 195.24 821.91 C 196.90 831.08 198.90 840.27 201.94 849.10 C 208.70 854.16 217.41 855.02 225.45 856.51 C 217.77 857.24 209.92 855.52 203.26 851.65 C 200.35 849.99 199.53 846.50 198.66 843.54 C 196.92 836.65 195.35 829.72 193.99 822.75 C 186.12 822.30 178.24 822.74 170.36 822.44 Z" />
<path fill="#ca9656" opacity="1.00" d=" M 322.60 822.31 C 323.15 822.13 324.24 821.77 324.79 821.59 C 332.13 821.37 339.48 821.48 346.82 821.88 C 347.21 823.07 347.60 824.26 348.00 825.47 C 346.13 824.32 344.32 822.77 342.04 822.61 C 336.15 822.11 330.24 822.59 324.36 822.89 C 324.09 826.35 323.76 829.82 323.36 833.28 C 323.02 829.92 322.86 826.55 322.60 823.19 L 322.60 822.31 Z" />
<path fill="#ca9656" opacity="1.00" d=" M 912.92 823.94 C 913.20 823.65 913.77 823.07 914.06 822.78 C 921.58 822.24 929.10 822.87 936.59 823.56 C 936.28 834.07 937.12 844.60 936.55 855.11 C 935.57 860.85 937.16 866.74 935.74 872.47 C 934.93 856.57 935.84 840.64 935.27 824.74 C 928.18 824.41 921.08 824.41 913.99 824.73 C 911.67 832.16 910.17 839.81 908.45 847.39 C 907.69 849.89 907.27 853.58 904.05 853.98 C 897.94 855.22 891.64 854.53 885.46 854.45 C 892.10 852.13 900.11 855.51 906.14 851.13 C 908.48 842.09 910.19 832.87 912.92 823.94 Z" />
<path fill="#ca9656" opacity="1.00" d=" M 257.48 825.08 C 259.68 827.89 260.87 831.42 260.56 835.01 C 260.19 840.70 258.71 846.63 255.14 851.19 C 250.44 856.24 243.00 857.02 236.49 856.49 C 242.25 855.32 248.50 854.97 253.44 851.40 C 256.75 847.30 258.39 842.11 259.28 836.98 C 260.07 832.90 258.17 829.02 257.48 825.08 Z" />
<path fill="#ca9656" opacity="1.00" d=" M 852.09 851.48 C 855.17 852.17 858.17 853.35 861.36 853.50 C 864.40 853.72 867.55 853.30 870.47 854.48 C 864.31 854.46 857.10 856.07 852.09 851.48 Z" />
<path fill="#ca9656" opacity="1.00" d=" M 216.67 876.34 C 225.52 875.51 234.41 875.68 243.27 876.27 C 238.67 877.86 233.77 877.23 229.00 877.33 C 224.88 877.26 220.63 877.78 216.67 876.34 Z" />
</g>
<g id="#ba1b40ff">
<path fill="#ba1b40" opacity="1.00" d=" M 501.19 708.32 C 517.80 698.44 537.94 696.14 556.83 698.56 C 569.75 700.52 582.86 703.87 593.93 711.08 C 596.23 713.75 599.07 717.11 598.04 720.92 C 596.16 730.34 594.73 739.87 592.42 749.21 C 592.68 746.78 592.76 744.34 592.85 741.91 C 591.50 746.11 590.59 750.43 589.81 754.77 C 583.07 755.50 576.30 754.96 569.57 754.47 C 567.63 745.13 567.48 735.42 564.46 726.33 C 563.12 722.17 558.47 721.16 554.78 720.17 C 554.35 720.02 553.48 719.73 553.05 719.58 C 542.81 714.94 530.90 716.56 520.76 720.63 C 515.13 722.73 512.34 728.66 511.60 734.28 C 510.85 741.04 510.71 748.48 514.67 754.36 C 520.73 763.97 531.49 768.97 541.47 773.51 C 555.86 780.13 571.34 785.08 583.84 795.15 C 591.13 800.97 596.70 809.17 598.50 818.41 C 600.66 829.91 599.34 842.61 592.40 852.34 C 583.23 865.42 567.56 872.56 552.02 874.39 C 541.06 876.10 529.88 876.12 518.90 874.68 C 506.97 873.82 495.26 870.64 484.39 865.70 C 481.54 864.29 478.47 862.96 476.34 860.52 C 475.35 857.80 475.59 854.84 475.52 852.00 C 475.74 842.26 475.41 832.50 475.87 822.76 C 483.51 822.44 491.16 822.33 498.80 822.81 C 500.34 830.86 501.82 838.98 504.40 846.77 C 505.79 851.55 510.90 853.35 515.12 854.84 C 519.72 856.55 524.67 856.77 529.53 856.49 C 538.94 856.42 549.26 856.72 557.53 851.55 C 563.09 845.22 564.97 835.85 562.62 827.78 C 561.77 824.05 558.78 821.41 556.17 818.84 C 548.81 811.91 538.96 808.90 529.94 804.84 C 515.99 798.89 500.97 793.93 489.88 783.11 C 485.31 778.74 480.78 773.95 478.63 767.87 C 473.14 753.02 474.71 735.18 484.56 722.47 C 489.49 717.10 494.64 711.71 501.19 708.32 Z" />
<path fill="#ba1b40" opacity="1.00" d=" M 213.40 700.86 C 226.31 697.55 239.75 698.05 252.95 698.60 C 263.58 700.63 274.61 702.73 283.97 708.42 C 286.79 710.82 289.80 713.28 291.42 716.72 C 292.70 719.42 291.87 722.46 291.44 725.27 C 289.47 735.08 287.62 744.92 285.71 754.74 C 278.86 754.90 272.02 754.85 265.17 754.62 C 263.22 745.58 262.59 736.31 260.33 727.34 C 259.57 723.58 255.88 721.70 252.68 720.33 C 240.74 715.44 226.83 715.69 215.11 721.09 C 210.16 723.32 208.24 728.88 207.04 733.77 C 205.85 740.24 205.56 747.88 210.37 753.04 C 214.02 757.60 218.18 761.85 223.16 764.97 C 240.27 775.24 260.14 780.09 276.65 791.45 C 280.53 794.76 285.52 797.15 287.78 801.99 C 285.76 799.68 283.45 797.64 281.11 795.68 C 283.82 799.39 286.95 802.80 289.35 806.74 C 292.06 811.17 293.39 816.24 295.23 821.06 C 295.13 819.27 295.03 817.49 294.84 815.72 L 294.76 814.94 C 297.00 825.62 297.38 837.28 292.33 847.26 C 289.54 853.42 284.90 858.47 279.88 862.89 C 274.65 867.82 267.73 870.24 261.16 872.80 C 255.47 875.08 249.32 875.75 243.27 876.27 C 234.41 875.68 225.52 875.51 216.67 876.34 C 201.87 875.10 186.90 871.54 173.96 864.01 C 172.08 862.87 169.71 861.51 169.69 859.02 C 169.58 851.67 169.53 844.30 169.73 836.96 C 170.55 832.16 170.61 827.29 170.36 822.44 C 178.24 822.74 186.12 822.30 193.99 822.75 C 195.35 829.72 196.92 836.65 198.66 843.54 C 199.53 846.50 200.35 849.99 203.26 851.65 C 209.92 855.52 217.77 857.24 225.45 856.51 C 229.13 856.39 232.81 856.39 236.49 856.49 C 243.00 857.02 250.44 856.24 255.14 851.19 C 258.71 846.63 260.19 840.70 260.56 835.01 C 260.87 831.42 259.68 827.89 257.48 825.08 C 249.60 813.82 236.12 809.14 223.96 804.12 C 212.61 799.49 201.11 794.88 190.90 787.97 C 181.58 780.86 173.00 771.21 171.65 759.09 C 171.26 751.81 170.72 744.33 172.53 737.19 C 176.60 724.30 186.25 713.43 198.28 707.40 C 203.15 704.86 208.18 702.61 213.40 700.86 Z" />
<path fill="#ba1b40" opacity="1.00" d=" M 353.30 706.07 C 361.04 702.16 369.51 699.91 378.04 698.57 C 386.67 698.12 395.33 698.12 403.95 698.57 C 415.85 700.22 427.71 703.36 438.28 709.18 C 440.84 712.27 443.79 715.66 443.76 719.92 C 443.87 726.78 441.26 733.37 441.66 740.27 C 441.60 740.64 441.49 741.38 441.43 741.75 C 439.80 745.84 438.93 750.19 437.21 754.24 C 430.61 756.56 423.46 754.47 416.65 754.42 C 416.14 747.51 415.48 740.60 414.00 733.83 C 413.85 736.22 413.74 738.62 413.85 741.03 C 412.94 735.58 412.10 730.04 410.19 724.85 C 396.91 716.23 378.81 716.26 365.07 723.86 C 367.67 722.12 370.40 720.58 373.02 718.87 C 369.35 720.18 364.93 721.12 362.81 724.76 C 360.61 728.49 359.64 732.80 358.89 737.03 C 357.62 744.31 360.02 752.04 365.22 757.31 C 365.41 757.59 365.79 758.15 365.98 758.43 C 366.60 759.69 367.67 760.69 369.05 761.09 C 372.80 762.78 376.00 765.45 379.61 767.42 C 397.25 776.97 417.40 782.03 433.33 794.67 C 438.72 799.48 443.97 805.37 445.55 812.61 C 445.83 816.78 446.59 820.89 447.20 825.03 C 448.13 831.52 446.50 838.05 444.31 844.12 C 442.28 849.71 438.42 854.32 435.03 859.12 C 437.13 857.24 439.22 855.34 441.05 853.20 C 436.15 862.00 426.99 867.17 418.03 871.01 C 409.20 874.94 399.48 875.76 390.04 877.27 C 371.17 878.02 351.99 875.36 334.43 868.19 C 330.48 866.53 326.90 864.06 322.79 862.77 C 322.03 849.61 322.49 836.34 322.60 823.19 C 322.86 826.55 323.02 829.92 323.36 833.28 C 323.76 829.82 324.09 826.35 324.36 822.89 C 330.24 822.59 336.15 822.11 342.04 822.61 C 344.32 822.77 346.13 824.32 348.00 825.47 C 347.60 824.26 347.21 823.07 346.82 821.88 C 339.48 821.48 332.13 821.37 324.79 821.59 C 332.25 820.73 339.87 819.90 347.33 821.26 C 349.07 830.02 350.94 838.79 353.64 847.32 C 354.71 850.66 358.47 851.64 361.36 852.86 C 373.39 856.82 386.65 857.95 398.92 854.32 C 401.62 853.51 404.72 852.81 406.46 850.37 C 410.44 844.16 412.62 836.50 411.04 829.17 C 409.41 824.83 406.96 820.60 403.14 817.85 C 394.74 811.30 384.64 807.62 374.85 803.72 C 366.40 799.99 357.57 796.80 349.86 791.65 C 344.46 786.51 337.72 782.80 333.26 776.70 C 325.46 766.83 322.89 753.47 325.21 741.24 C 326.42 735.09 329.46 729.54 331.99 723.87 C 332.35 723.13 332.84 722.51 333.48 722.01 C 336.25 719.75 338.80 717.24 341.04 714.45 C 344.37 710.71 348.88 708.31 353.30 706.07 Z" />
<path fill="#ba1b40" opacity="1.00" d=" M 914.98 701.04 C 919.30 700.34 923.68 700.47 928.04 700.35 C 932.26 699.75 933.97 704.71 935.82 707.64 C 934.06 721.93 930.50 735.96 928.92 750.28 C 922.22 750.66 915.51 750.59 908.82 750.41 C 907.41 744.18 906.25 737.91 905.30 731.60 C 904.62 728.15 904.20 724.55 902.56 721.41 C 890.57 718.92 878.18 719.33 865.99 719.29 C 860.81 719.41 855.31 719.14 850.56 721.55 C 848.08 722.81 848.04 725.98 847.69 728.39 C 847.05 739.59 848.10 750.85 846.97 762.04 C 846.35 768.03 846.64 774.07 847.30 780.05 C 851.36 780.64 855.48 780.37 859.41 779.15 C 864.87 778.14 870.48 778.54 876.02 778.28 C 884.31 777.23 892.72 777.23 901.07 777.40 C 903.73 778.78 906.30 781.71 905.42 784.94 C 904.47 789.81 904.11 794.83 902.50 799.55 C 899.79 801.29 896.05 800.10 892.95 800.43 C 881.35 799.22 869.65 799.57 858.00 799.35 C 854.99 799.20 852.04 798.23 849.03 798.65 C 847.43 801.13 847.70 804.17 847.68 806.98 C 847.74 810.99 847.48 815.02 848.07 819.01 C 849.12 825.67 847.86 832.46 849.00 839.11 C 849.67 843.26 849.33 848.00 852.09 851.48 C 857.10 856.07 864.31 854.46 870.47 854.48 C 875.46 854.39 880.46 854.42 885.46 854.45 C 891.64 854.53 897.94 855.22 904.05 853.98 C 907.27 853.58 907.69 849.89 908.45 847.39 C 910.17 839.81 911.67 832.16 913.99 824.73 C 921.08 824.41 928.18 824.41 935.27 824.74 C 935.84 840.64 934.93 856.57 935.74 872.47 C 937.16 866.74 935.57 860.85 936.55 855.11 C 937.20 860.92 936.14 866.81 936.63 872.67 C 888.34 872.59 840.03 872.85 791.74 872.54 C 791.29 867.64 789.92 862.82 790.41 857.87 C 797.53 856.48 804.38 853.97 811.39 852.11 C 811.18 846.36 812.39 840.71 812.39 834.98 C 812.73 803.99 812.76 772.98 812.46 741.98 C 812.55 738.26 811.55 734.65 811.45 730.95 C 811.40 727.77 810.03 724.30 807.04 722.83 C 801.91 720.03 796.32 717.95 790.54 717.01 C 789.78 711.85 791.31 706.82 791.95 701.74 C 823.96 701.48 855.98 701.76 887.99 701.60 C 896.98 701.19 906.01 701.81 914.98 701.04 Z" />
<path fill="#ba1b40" opacity="1.00" d=" M 66.54 702.24 C 68.65 701.82 70.80 701.58 72.96 701.62 C 94.98 701.66 117.01 701.64 139.04 701.63 C 140.57 701.50 142.13 701.97 143.24 703.09 C 144.18 707.45 145.28 711.98 144.54 716.46 C 137.70 718.84 130.71 720.86 123.72 722.80 C 123.57 728.26 123.41 733.74 122.77 739.18 C 122.23 766.45 122.58 793.73 122.47 821.00 C 122.63 829.60 122.35 838.30 124.19 846.75 C 124.76 849.51 126.64 851.89 129.30 852.91 C 134.23 855.08 139.35 857.10 144.71 857.85 C 145.08 862.81 144.14 867.70 143.32 872.57 C 117.71 872.80 92.08 872.63 66.46 872.65 C 65.14 868.03 64.23 863.28 64.20 858.46 C 70.01 856.83 75.77 855.05 81.54 853.30 C 82.99 852.73 84.95 852.11 85.34 850.41 C 87.03 837.34 86.50 824.13 86.65 810.99 C 88.20 799.40 87.16 787.66 87.49 776.00 C 87.81 770.96 86.34 766.03 86.61 761.00 C 86.44 749.65 87.44 738.12 84.88 726.97 C 84.27 723.87 81.03 722.40 78.41 721.28 C 73.89 719.49 69.29 717.74 64.45 717.08 C 63.88 712.02 65.28 707.08 66.54 702.24 Z" />
<path fill="#ba1b40" opacity="1.00" d=" M 728.05 702.33 C 731.03 702.23 733.95 701.42 736.95 701.50 C 748.34 701.62 759.72 700.98 771.12 701.16 C 772.69 700.94 773.57 702.54 774.51 703.52 C 776.58 706.23 778.78 709.34 778.35 712.94 C 777.83 718.62 777.35 724.32 776.64 729.99 C 776.60 737.55 774.95 744.98 774.44 752.51 C 767.21 754.12 759.91 752.93 752.65 752.44 C 750.25 742.12 748.20 731.73 745.86 721.40 C 736.59 721.49 727.35 719.84 718.06 720.63 C 716.11 721.26 716.62 723.40 716.48 724.99 C 716.47 757.33 716.47 789.68 716.48 822.03 C 716.77 831.51 716.31 841.33 719.54 850.38 C 724.88 855.35 732.62 856.13 739.15 858.84 C 740.02 863.32 737.75 868.06 736.90 872.55 C 711.52 872.60 686.13 872.58 660.74 872.56 C 660.14 867.88 658.20 863.44 658.32 858.68 C 663.48 857.19 668.63 855.65 673.78 854.14 C 676.07 853.44 678.55 852.80 680.25 850.99 C 680.78 844.80 679.89 838.48 681.24 832.37 C 682.39 828.00 682.60 823.47 682.50 818.98 C 682.63 785.80 682.73 752.61 682.51 719.43 C 677.95 719.16 673.33 719.16 668.88 720.35 C 663.26 721.47 657.50 721.31 651.81 721.66 C 650.98 732.09 647.08 741.99 646.10 752.40 C 640.90 754.35 635.36 753.21 629.99 753.36 C 627.13 753.45 624.34 752.85 621.56 752.33 C 621.47 743.87 620.38 735.46 620.76 727.00 C 620.35 718.78 621.62 710.63 621.49 702.42 C 657.01 702.23 692.53 702.41 728.05 702.33 Z" />
</g>
</svg>
