<?xml version="1.0" encoding="UTF-8" ?>
<!DOCTYPE svg PUBLIC "-//W3C//DTD SVG 1.1//EN" "http://www.w3.org/Graphics/SVG/1.1/DTD/svg11.dtd">
<svg width="500pt" height="500pt" viewBox="0 0 500 500" version="1.1" xmlns="http://www.w3.org/2000/svg">
<g id="#d9143fff">
<path fill="#d9143f" opacity="1.00" d=" M 61.32 35.24 C 62.85 35.05 64.39 35.00 65.94 34.99 C 188.65 35.02 311.36 34.99 434.07 35.00 C 446.34 34.87 458.11 43.14 462.15 54.71 C 464.46 60.53 463.99 66.87 464.00 73.00 C 464.00 190.67 464.00 308.33 464.00 426.00 C 463.99 432.12 464.44 438.46 462.18 444.29 C 458.10 455.85 446.35 464.14 434.07 464.00 C 310.70 463.98 187.32 464.04 63.95 463.97 C 48.34 463.81 34.68 449.68 35.01 434.07 C 35.00 311.03 35.00 187.98 35.01 64.93 C 34.75 50.27 46.74 36.74 61.32 35.24 M 61.46 55.66 C 58.01 56.95 55.31 60.27 55.10 64.00 C 54.84 67.66 55.03 71.33 55.00 75.00 C 55.00 194.36 55.01 313.72 54.99 433.08 C 54.81 436.49 56.16 440.00 59.00 442.01 C 62.41 444.69 66.99 443.88 71.01 444.02 C 191.70 443.98 312.39 444.01 433.08 444.00 C 436.48 444.16 439.99 442.83 442.02 440.00 C 444.73 436.61 443.87 432.01 444.02 427.99 C 443.95 306.98 444.05 185.96 443.97 64.94 C 444.20 59.20 438.69 54.50 433.10 55.00 C 310.70 55.00 188.30 55.00 65.90 55.00 C 64.40 55.05 62.87 55.12 61.46 55.66 Z" />
<path fill="#d9143f" opacity="1.00" d=" M 80.81 74.98 C 84.17 72.89 87.84 70.78 91.96 71.08 C 98.61 70.42 104.54 74.50 109.04 78.97 C 155.15 125.19 201.40 171.28 247.51 217.51 C 248.52 218.30 249.39 219.74 250.83 219.68 C 253.35 217.97 255.27 215.56 257.46 213.47 C 302.60 168.27 347.79 123.12 392.96 77.95 C 395.61 75.24 398.88 73.19 402.36 71.72 C 415.62 67.66 430.54 80.38 428.83 94.09 C 428.83 98.96 426.10 103.35 422.94 106.85 C 375.27 154.58 327.47 202.18 279.89 250.00 C 325.14 296.11 371.00 341.63 416.51 387.49 C 420.78 391.81 425.83 395.84 427.78 401.84 C 432.31 415.05 419.76 430.61 405.89 428.97 C 400.49 428.91 395.98 425.30 392.14 421.87 C 344.74 374.52 297.40 327.11 250.00 279.76 C 205.82 323.99 161.60 368.18 117.39 412.38 C 111.36 417.93 106.38 425.09 98.53 428.25 C 85.14 432.66 70.34 419.69 71.64 405.98 C 72.11 400.82 74.74 396.01 78.44 392.44 C 123.80 347.14 169.10 301.77 214.46 256.46 C 216.27 254.59 218.30 252.91 219.76 250.74 C 220.24 249.15 218.87 248.08 217.95 247.03 C 171.44 200.55 124.96 154.04 78.45 107.55 C 74.25 103.53 71.93 97.76 71.74 91.98 C 72.32 85.48 75.09 78.59 80.81 74.98 Z" />
</g>
<g id="#ffeee0ff">
<path fill="#ffeee0" opacity="1.00" d=" M 61.46 55.66 C 62.87 55.12 64.40 55.05 65.90 55.00 C 188.30 55.00 310.70 55.00 433.10 55.00 C 438.69 54.50 444.20 59.20 443.97 64.94 C 444.05 185.96 443.95 306.98 444.02 427.99 C 443.87 432.01 444.73 436.61 442.02 440.00 C 439.99 442.83 436.48 444.16 433.08 444.00 C 312.39 444.01 191.70 443.98 71.01 444.02 C 66.99 443.88 62.41 444.69 59.00 442.01 C 56.16 440.00 54.81 436.49 54.99 433.08 C 55.01 313.72 55.00 194.36 55.00 75.00 C 55.03 71.33 54.84 67.66 55.10 64.00 C 55.31 60.27 58.01 56.95 61.46 55.66 M 80.81 74.98 C 75.09 78.59 72.32 85.48 71.74 91.98 C 71.93 97.76 74.25 103.53 78.45 107.55 C 124.96 154.04 171.44 200.55 217.95 247.03 C 218.87 248.08 220.24 249.15 219.76 250.74 C 218.30 252.91 216.27 254.59 214.46 256.46 C 169.10 301.77 123.80 347.14 78.44 392.44 C 74.74 396.01 72.11 400.82 71.64 405.98 C 70.34 419.69 85.14 432.66 98.53 428.25 C 106.38 425.09 111.36 417.93 117.39 412.38 C 161.60 368.18 205.82 323.99 250.00 279.76 C 297.40 327.11 344.74 374.52 392.14 421.87 C 395.98 425.30 400.49 428.91 405.89 428.97 C 419.76 430.61 432.31 415.05 427.78 401.84 C 425.83 395.84 420.78 391.81 416.51 387.49 C 371.00 341.63 325.14 296.11 279.89 250.00 C 327.47 202.18 375.27 154.58 422.94 106.85 C 426.10 103.35 428.83 98.96 428.83 94.09 C 430.54 80.38 415.62 67.66 402.36 71.72 C 398.88 73.19 395.61 75.24 392.96 77.95 C 347.79 123.12 302.60 168.27 257.46 213.47 C 255.27 215.56 253.35 217.97 250.83 219.68 C 249.39 219.74 248.52 218.30 247.51 217.51 C 201.40 171.28 155.15 125.19 109.04 78.97 C 104.54 74.50 98.61 70.42 91.96 71.08 C 87.84 70.78 84.17 72.89 80.81 74.98 Z" />
</g>
</svg>
