<?xml version="1.0" encoding="UTF-8" ?>
<!DOCTYPE svg PUBLIC "-//W3C//DTD SVG 1.1//EN" "http://www.w3.org/Graphics/SVG/1.1/DTD/svg11.dtd">
<svg width="500pt" height="500pt" viewBox="0 0 500 500" version="1.1" xmlns="http://www.w3.org/2000/svg">
<g id="#d9143fff">
<path fill="#d9143f" opacity="1.00" d=" M 280.00 29.04 C 287.29 27.88 294.66 27.22 302.00 26.55 C 312.67 26.59 323.38 26.15 334.00 27.44 C 358.54 30.75 382.12 39.84 403.08 52.91 C 410.17 58.12 417.51 63.04 423.94 69.07 C 453.22 95.24 473.09 131.91 478.32 170.89 C 480.20 180.49 479.65 190.30 479.71 200.02 C 479.90 212.05 477.72 223.99 474.80 235.63 C 472.51 246.63 468.36 257.17 463.32 267.19 C 455.96 283.74 445.17 298.61 432.64 311.62 C 423.96 321.04 413.68 328.80 403.25 336.17 C 388.32 345.28 372.30 352.82 355.34 357.27 C 332.61 362.80 308.69 364.94 285.55 360.75 C 272.39 359.44 259.82 355.10 247.51 350.49 C 238.18 346.47 229.09 341.85 220.50 336.43 C 217.04 334.28 213.99 331.39 210.12 329.97 C 205.03 334.24 200.84 339.44 195.98 343.95 C 187.10 351.72 178.49 359.80 169.98 367.96 C 164.34 372.30 159.75 377.75 154.45 382.45 C 124.28 410.97 93.92 439.26 63.74 467.75 C 55.51 476.27 40.65 478.34 31.06 470.93 C 22.10 464.56 17.35 451.67 22.35 441.43 C 25.16 434.09 31.97 429.67 37.22 424.22 C 64.55 398.55 91.80 372.81 119.23 347.23 C 124.48 342.11 129.89 337.15 135.42 332.34 C 146.35 321.28 158.01 310.99 169.24 300.24 C 171.33 298.22 173.84 296.58 175.43 294.10 C 165.52 279.66 156.79 264.19 151.60 247.39 C 143.32 222.35 140.85 195.30 145.12 169.25 C 151.84 121.14 181.23 76.75 222.79 51.64 C 233.00 44.44 244.67 39.67 256.35 35.38 C 264.13 32.92 271.90 30.26 280.00 29.04 M 231.19 85.13 C 223.79 90.26 217.00 96.29 211.16 103.15 C 196.37 119.26 185.53 139.00 180.05 160.17 C 175.74 179.13 173.94 198.96 177.80 218.18 C 181.82 242.70 193.20 265.81 209.63 284.38 C 213.76 289.24 218.79 293.20 223.21 297.77 C 244.57 316.26 271.91 327.46 299.98 330.11 C 314.31 330.96 328.83 330.25 342.80 326.78 C 353.21 324.17 363.67 321.01 372.93 315.47 C 374.01 317.04 377.41 315.46 376.39 313.64 C 379.53 312.58 382.44 310.83 384.92 308.64 C 385.99 310.10 388.76 308.26 387.61 306.76 C 395.62 302.44 401.98 295.74 408.49 289.50 C 426.57 271.70 438.81 248.41 444.40 223.75 C 449.56 198.88 448.28 172.51 439.48 148.59 C 435.70 136.70 429.17 125.99 422.25 115.70 C 402.23 87.46 371.03 67.28 336.92 61.12 C 300.42 53.89 260.94 62.72 231.19 85.13 Z" />
</g>
<g id="#ffe1e1ff">
<path fill="#ffe1e1" opacity="1.00" d=" M 231.19 85.13 C 260.94 62.72 300.42 53.89 336.92 61.12 C 371.03 67.28 402.23 87.46 422.25 115.70 C 429.17 125.99 435.70 136.70 439.48 148.59 C 448.28 172.51 449.56 198.88 444.40 223.75 C 438.81 248.41 426.57 271.70 408.49 289.50 C 401.98 295.74 395.62 302.44 387.61 306.76 C 386.54 307.10 385.63 307.78 384.92 308.64 C 382.44 310.83 379.53 312.58 376.39 313.64 C 375.10 313.97 373.95 314.64 372.93 315.47 C 363.67 321.01 353.21 324.17 342.80 326.78 C 328.83 330.25 314.31 330.96 299.98 330.11 C 271.91 327.46 244.57 316.26 223.21 297.77 C 218.79 293.20 213.76 289.24 209.63 284.38 C 193.20 265.81 181.82 242.70 177.80 218.18 C 173.94 198.96 175.74 179.13 180.05 160.17 C 185.53 139.00 196.37 119.26 211.16 103.15 C 217.00 96.29 223.79 90.26 231.19 85.13 M 301.40 70.40 C 292.51 70.77 283.96 73.44 275.40 75.64 C 269.04 77.12 263.58 80.89 257.44 83.00 C 247.78 88.41 238.54 94.79 230.62 102.56 C 229.72 106.19 229.83 110.06 230.49 113.72 C 231.26 117.81 235.60 119.57 239.05 120.90 C 241.78 121.68 245.31 122.79 247.67 120.59 C 253.28 115.68 258.95 110.70 265.43 106.96 C 269.35 105.62 272.85 103.44 276.42 101.40 C 285.92 97.60 296.03 95.36 306.21 94.38 C 307.99 94.17 309.82 94.08 311.53 93.47 C 314.71 90.55 316.49 86.12 316.51 81.83 C 316.55 77.11 313.11 73.21 309.42 70.70 C 306.83 69.89 304.06 70.36 301.40 70.40 Z" />
</g>
<g id="#ff9b9bff">
<path fill="#ff9b9b" opacity="1.00" d=" M 301.40 70.40 C 304.06 70.36 306.83 69.89 309.42 70.70 C 313.11 73.21 316.55 77.11 316.51 81.83 C 316.49 86.12 314.71 90.55 311.53 93.47 C 309.82 94.08 307.99 94.17 306.21 94.38 C 296.03 95.36 285.92 97.60 276.42 101.40 C 272.85 103.44 269.35 105.62 265.43 106.96 C 258.95 110.70 253.28 115.68 247.67 120.59 C 245.31 122.79 241.78 121.68 239.05 120.90 C 235.60 119.57 231.26 117.81 230.49 113.72 C 229.83 110.06 229.72 106.19 230.62 102.56 C 238.54 94.79 247.78 88.41 257.44 83.00 C 263.58 80.89 269.04 77.12 275.40 75.64 C 283.96 73.44 292.51 70.77 301.40 70.40 Z" />
<path fill="#ff9b9b" opacity="1.00" d=" M 384.92 308.64 C 385.63 307.78 386.54 307.10 387.61 306.76 C 388.76 308.26 385.99 310.10 384.92 308.64 Z" />
<path fill="#ff9b9b" opacity="1.00" d=" M 372.93 315.47 C 373.95 314.64 375.10 313.97 376.39 313.64 C 377.41 315.46 374.01 317.04 372.93 315.47 Z" />
</g>
</svg>
