<?xml version="1.0" encoding="UTF-8" ?>
<!DOCTYPE svg PUBLIC "-//W3C//DTD SVG 1.1//EN" "http://www.w3.org/Graphics/SVG/1.1/DTD/svg11.dtd">
<svg width="500pt" height="500pt" viewBox="0 0 500 500" version="1.1" xmlns="http://www.w3.org/2000/svg">
<g id="#d9143fff">
<path fill="#d9143f" opacity="1.00" d=" M 228.49 19.83 C 235.96 18.78 243.52 19.01 251.04 19.00 C 274.76 18.30 298.40 23.74 320.17 32.95 C 354.40 47.55 383.73 73.21 402.93 105.07 C 420.52 134.04 429.46 168.13 428.47 202.00 C 427.28 246.60 410.84 289.39 388.59 327.57 C 361.83 373.12 327.00 413.51 288.76 449.77 C 277.89 459.96 266.75 469.88 255.11 479.19 C 252.14 482.02 246.98 481.68 244.19 478.75 C 208.69 449.79 176.37 416.92 147.92 381.02 C 124.04 350.58 103.00 317.55 88.67 281.49 C 75.94 249.42 68.81 214.54 72.16 179.98 C 75.46 144.22 90.11 109.67 113.28 82.26 C 142.00 47.92 183.99 25.01 228.49 19.83 M 234.54 56.71 C 201.23 60.33 169.44 76.08 146.28 100.27 C 126.88 120.12 113.43 145.71 108.02 172.93 C 102.14 202.12 105.52 233.10 117.65 260.31 C 131.27 291.12 155.89 316.90 186.09 331.85 C 210.74 344.33 239.03 349.17 266.47 346.26 C 290.41 343.77 313.65 335.08 333.43 321.37 C 355.56 306.16 373.31 284.70 384.17 260.15 C 394.15 237.62 398.24 212.49 395.89 187.96 C 393.37 159.09 381.71 131.15 363.21 108.86 C 345.09 86.81 320.34 70.26 293.02 62.01 C 274.16 56.20 254.12 54.68 234.54 56.71 Z" />
<path fill="#d9143f" opacity="1.00" d=" M 286.31 264.11 C 289.63 264.74 284.55 266.84 286.31 264.11 Z" />
</g>
<g id="#ffeee0ff">
<path fill="#ffeee0" opacity="1.00" d=" M 234.54 56.71 C 254.12 54.68 274.16 56.20 293.02 62.01 C 320.34 70.26 345.09 86.81 363.21 108.86 C 381.71 131.15 393.37 159.09 395.89 187.96 C 398.24 212.49 394.15 237.62 384.17 260.15 C 373.31 284.70 355.56 306.16 333.43 321.37 C 313.65 335.08 290.41 343.77 266.47 346.26 C 239.03 349.17 210.74 344.33 186.09 331.85 C 155.89 316.90 131.27 291.12 117.65 260.31 C 105.52 233.10 102.14 202.12 108.02 172.93 C 113.43 145.71 126.88 120.12 146.28 100.27 C 169.44 76.08 201.23 60.33 234.54 56.71 M 286.31 264.11 C 284.55 266.84 289.63 264.74 286.31 264.11 Z" />
</g>
</svg>
